<svg width="2119" height="1252" viewBox="0 0 2119 1252" fill="none" xmlns="http://www.w3.org/2000/svg">
<path d="M1640.31 777.079C1620.97 777.079 1602.82 773.49 1585.87 766.312C1569.12 759.134 1554.37 749.164 1541.61 736.402C1528.84 723.641 1518.87 708.886 1511.7 692.136C1504.52 675.188 1500.93 657.042 1500.93 637.701C1500.93 618.559 1504.52 600.613 1511.7 583.864C1518.87 567.114 1528.84 552.359 1541.61 539.598C1554.37 526.836 1569.12 516.866 1585.87 509.688C1602.82 502.51 1620.97 498.921 1640.31 498.921C1659.45 498.921 1677.39 502.51 1694.14 509.688C1710.89 516.866 1725.65 526.836 1738.41 539.598C1751.17 552.359 1761.14 567.114 1768.32 583.864C1775.5 600.613 1779.09 618.559 1779.09 637.701C1779.09 657.042 1775.5 675.188 1768.32 692.136C1761.14 708.886 1751.17 723.641 1738.41 736.402C1725.65 749.164 1710.89 759.134 1694.14 766.312C1677.39 773.49 1659.45 777.079 1640.31 777.079ZM1640.31 751.955C1661.24 751.955 1680.29 746.871 1697.43 736.702C1714.78 726.333 1728.54 712.575 1738.71 695.426C1748.88 678.079 1753.96 658.837 1753.96 637.701C1753.96 616.764 1748.88 597.722 1738.71 580.574C1728.54 563.426 1714.78 549.767 1697.43 539.598C1680.29 529.229 1661.24 524.045 1640.31 524.045C1619.17 524.045 1599.93 529.229 1582.58 539.598C1565.43 549.767 1551.67 563.426 1541.31 580.574C1531.14 597.722 1526.05 616.764 1526.05 637.701C1526.05 658.837 1531.14 678.079 1541.31 695.426C1551.67 712.575 1565.43 726.333 1582.58 736.702C1599.93 746.871 1619.17 751.955 1640.31 751.955ZM1591.85 705.297V567.713H1652.87C1664.63 567.713 1675 572.099 1683.97 580.873C1693.15 589.646 1697.73 600.015 1697.73 611.979C1697.73 619.755 1695.34 627.532 1690.55 635.308C1685.97 642.885 1679.59 648.468 1671.41 652.057L1697.73 705.297H1673.21L1649.28 656.245H1613.39V705.297H1591.85ZM1613.39 635.906H1652.27C1658.25 635.906 1663.64 633.613 1668.42 629.027C1673.21 624.242 1675.6 618.559 1675.6 611.979C1675.6 604.8 1673.01 599.018 1667.82 594.631C1662.64 590.244 1657.45 588.051 1652.27 588.051H1613.39V635.906Z" fill="#DCDFE6"/>
<path d="M279.847 739.266V526.68H315.426V705.902H409.317V739.266H279.847ZM521.418 743.694C500.16 743.694 481.952 739.069 466.796 729.817C451.639 720.468 439.976 707.476 431.808 690.843C423.737 674.211 419.702 654.92 419.702 632.973C419.702 611.026 423.737 591.735 431.808 575.103C439.976 558.47 451.639 545.528 466.796 536.276C481.952 526.926 500.16 522.252 521.418 522.252C542.677 522.252 560.884 526.926 576.041 536.276C591.296 545.528 602.958 558.47 611.029 575.103C619.198 591.735 623.282 611.026 623.282 632.973C623.282 654.92 619.198 674.211 611.029 690.843C602.958 707.476 591.296 720.468 576.041 729.817C560.884 739.069 542.677 743.694 521.418 743.694ZM521.418 710.183C535.689 710.281 547.549 707.132 556.997 700.735C566.543 694.337 573.679 685.332 578.403 673.719C583.225 662.105 585.637 648.523 585.637 632.973C585.637 617.423 583.225 603.939 578.403 592.523C573.679 581.008 566.543 572.052 556.997 565.654C547.549 559.257 535.689 555.96 521.418 555.763C507.148 555.665 495.288 558.814 485.84 565.212C476.392 571.609 469.256 580.614 464.434 592.228C459.71 603.841 457.347 617.423 457.347 632.973C457.347 648.523 459.71 662.056 464.434 673.571C469.158 684.988 476.244 693.894 485.692 700.292C495.239 706.689 507.148 709.986 521.418 710.183ZM743.311 743.694C729.532 743.694 716.59 741.283 704.485 736.461C692.478 731.54 681.897 724.355 672.745 714.907C663.69 705.459 656.604 693.894 651.486 680.214C646.368 666.436 643.809 650.688 643.809 632.973C643.809 609.746 648.14 589.915 656.801 573.479C665.462 556.944 677.321 544.297 692.379 535.538C707.437 526.68 724.415 522.252 743.311 522.252C769.49 522.252 790.208 528.354 805.463 540.558C820.816 552.663 831.199 569.69 836.612 591.637L800.296 597.395C796.26 584.797 789.666 574.758 780.513 567.278C771.36 559.7 759.698 555.911 745.525 555.911C731.255 555.714 719.395 558.814 709.947 565.212C700.499 571.609 693.363 580.614 688.541 592.228C683.817 603.841 681.455 617.423 681.455 632.973C681.455 648.523 683.817 662.056 688.541 673.571C693.265 684.988 700.351 693.894 709.799 700.292C719.346 706.689 731.255 709.986 745.525 710.183C756.253 710.281 765.652 708.362 773.722 704.425C781.793 700.39 788.387 694.337 793.505 686.267C798.623 678.098 802.067 667.912 803.839 655.708H766.341V627.806H841.632C841.828 629.381 841.976 631.694 842.075 634.745C842.173 637.796 842.222 639.616 842.222 640.207C842.222 660.284 838.236 678.147 830.264 693.796C822.391 709.346 811.073 721.55 796.31 730.408C781.547 739.266 763.881 743.694 743.311 743.694ZM964.731 743.694C943.472 743.694 925.265 739.069 910.108 729.817C894.952 720.468 883.289 707.476 875.12 690.843C867.05 674.211 863.015 654.92 863.015 632.973C863.015 611.026 867.05 591.735 875.12 575.103C883.289 558.47 894.952 545.528 910.108 536.276C925.265 526.926 943.472 522.252 964.731 522.252C985.989 522.252 1004.2 526.926 1019.35 536.276C1034.61 545.528 1046.27 558.47 1054.34 575.103C1062.51 591.735 1066.59 611.026 1066.59 632.973C1066.59 654.92 1062.51 674.211 1054.34 690.843C1046.27 707.476 1034.61 720.468 1019.35 729.817C1004.2 739.069 985.989 743.694 964.731 743.694ZM964.731 710.183C979.002 710.281 990.861 707.132 1000.31 700.735C1009.86 694.337 1016.99 685.332 1021.72 673.719C1026.54 662.105 1028.95 648.523 1028.95 632.973C1028.95 617.423 1026.54 603.939 1021.72 592.523C1016.99 581.008 1009.86 572.052 1000.31 565.654C990.861 559.257 979.002 555.96 964.731 555.763C950.46 555.665 938.601 558.814 929.152 565.212C919.704 571.609 912.569 580.614 907.746 592.228C903.022 603.841 900.66 617.423 900.66 632.973C900.66 648.523 903.022 662.056 907.746 673.571C912.47 684.988 919.556 693.894 929.005 700.292C938.551 706.689 950.46 709.986 964.731 710.183ZM1177.62 743.694C1162.07 743.694 1148.04 740.988 1135.54 735.575C1123.14 730.162 1112.91 722.436 1104.84 712.397C1096.87 702.26 1091.8 690.253 1089.63 676.376L1126.54 670.766C1129.69 683.364 1136.13 693.107 1145.88 699.996C1155.72 706.886 1167.04 710.33 1179.83 710.33C1187.41 710.33 1194.55 709.149 1201.24 706.787C1207.93 704.425 1213.34 700.981 1217.48 696.453C1221.71 691.926 1223.83 686.365 1223.83 679.771C1223.83 676.819 1223.33 674.112 1222.35 671.652C1221.37 669.093 1219.89 666.829 1217.92 664.861C1216.05 662.892 1213.59 661.121 1210.54 659.546C1207.59 657.873 1204.14 656.446 1200.21 655.265L1145.29 639.026C1140.56 637.648 1135.45 635.827 1129.93 633.564C1124.52 631.201 1119.35 628.003 1114.43 623.968C1109.61 619.834 1105.62 614.618 1102.48 608.319C1099.42 601.922 1097.9 594.048 1097.9 584.698C1097.9 571.018 1101.34 559.552 1108.23 550.301C1115.22 540.951 1124.57 533.963 1136.28 529.338C1148.09 524.712 1161.18 522.448 1175.55 522.547C1190.12 522.645 1203.11 525.155 1214.53 530.076C1225.94 534.898 1235.49 541.935 1243.17 551.187C1250.84 560.438 1256.26 571.609 1259.4 584.698L1221.17 591.342C1219.59 583.862 1216.54 577.514 1212.02 572.298C1207.59 566.983 1202.12 562.948 1195.63 560.192C1189.23 557.436 1182.39 555.96 1175.11 555.763C1168.02 555.665 1161.43 556.747 1155.33 559.011C1149.32 561.176 1144.45 564.326 1140.71 568.459C1137.07 572.593 1135.25 577.415 1135.25 582.927C1135.25 588.143 1136.82 592.424 1139.97 595.771C1143.12 599.018 1147.01 601.627 1151.64 603.595C1156.36 605.465 1161.13 607.04 1165.96 608.319L1204.04 618.948C1209.26 620.326 1215.12 622.196 1221.61 624.558C1228.11 626.92 1234.36 630.217 1240.36 634.449C1246.36 638.681 1251.28 644.242 1255.12 651.131C1259.06 658.021 1261.03 666.78 1261.03 677.409C1261.03 688.432 1258.72 698.126 1254.09 706.492C1249.56 714.759 1243.41 721.649 1235.64 727.16C1227.86 732.672 1218.95 736.805 1208.92 739.561C1198.98 742.317 1188.54 743.694 1177.62 743.694ZM1411.73 526.68H1442.88L1386.19 739.266H1355.04L1411.73 526.68Z" fill="#DCDFE6"/>
</svg>
