<svg width="277" height="64" viewBox="0 0 277 64" fill="none" xmlns="http://www.w3.org/2000/svg">
<path d="M153.326 0.876864H170.236L161.718 61.7561H144.808L153.326 0.876864ZM131.905 0.876864L120.506 35.9513L115.496 0.876864H103.595L88.5633 35.826L86.8095 1.00213H70.2742L76.0364 61.8814H89.6901L106.476 23.2995L112.363 61.7561H125.767L147.939 0.876864H131.905ZM274.332 36.3271H234.122C234.372 44.2189 239.007 49.4801 246.022 49.4801C251.284 49.4801 255.417 46.7242 258.674 41.3378L272.328 47.4758C267.443 56.6202 257.672 62.633 245.521 62.633C228.987 62.633 217.963 51.4843 217.963 33.5713C217.963 13.9045 230.865 0 249.154 0C265.188 0 275.209 10.7729 275.209 27.6838C275.209 30.4396 274.958 33.3207 274.332 36.3271ZM259.176 24.6774C259.176 17.6625 255.166 13.1529 248.904 13.1529C242.39 13.1529 236.878 17.7878 235.5 24.6774H259.176ZM17.2867 19.2909L0 39.4588H30.9407L34.4481 29.9385H21.17L29.3122 20.5436V20.2931L24.051 11.274H47.7263L29.3122 61.7561H41.8388L64.0109 0.876864H6.76436L17.2867 19.2909ZM197.795 13.1529C203.808 13.1529 209.069 16.4098 213.578 21.9216L215.959 4.7601C211.7 1.87899 205.937 0.125266 198.296 0.125266C183.139 0.125266 174.62 9.01916 174.62 20.2931C174.62 28.0596 179.005 32.945 186.145 35.9513L189.527 37.4545C195.916 40.2104 197.67 41.5883 197.67 44.4694C197.67 47.4758 194.789 49.3548 190.404 49.3548C183.139 49.3548 177.251 45.7221 172.867 39.3335L170.361 56.8707C175.372 60.754 181.886 62.7582 190.404 62.7582C204.809 62.7582 213.704 54.4907 213.704 42.8409C213.704 34.9492 210.196 29.9385 201.427 25.9301L197.67 24.1763C192.409 21.9216 190.655 20.5436 190.655 18.0383C190.78 15.2824 193.16 13.1529 197.795 13.1529Z" fill="white"/>
</svg>
