<svg width="306" height="127" viewBox="0 0 306 127" fill="none" xmlns="http://www.w3.org/2000/svg">
<path fill-rule="evenodd" clip-rule="evenodd" d="M304.756 72.9697H263.57C264.541 82.8319 271.746 86 279.922 86C288.302 86 295.047 84.1094 300.617 81.1456V98.1106C293.549 102.178 285.461 104.129 277.316 103.731C256.825 103.731 242.415 90.9567 242.415 65.5092C242.415 44.0986 254.628 27.0826 274.607 27.0826C294.638 27.0826 305.062 43.8432 305.062 65.407C305.062 67.451 304.858 71.8455 304.756 72.9697ZM274.505 44.2519C269.242 44.2519 263.417 47.9822 263.417 57.4355H285.134C285.134 47.9822 279.666 44.2519 274.505 44.2519ZM209.251 103.731C201.893 103.731 197.396 100.666 194.433 98.4171L194.33 122.076L173.278 126.522V28.4623H192.491L192.9 33.6744C197.356 29.4474 203.262 27.0885 209.405 27.0826C224.223 27.0826 238.122 40.3684 238.122 64.896C238.122 91.6209 224.326 103.731 209.251 103.731ZM204.397 45.7338C199.543 45.7338 196.528 47.4712 194.33 49.8729L194.433 81.1456C196.477 83.394 199.44 85.1313 204.397 85.1313C212.164 85.1313 217.376 76.7 217.376 65.3559C217.376 54.3696 212.062 45.7338 204.397 45.7338ZM144.304 28.4623H165.408V102.25H144.304V28.4623ZM144.304 4.44563L165.408 0V17.1693L144.304 21.6661V4.49673V4.44563ZM122.229 52.2234V102.25H101.176V28.4623H120.083L120.696 34.6964C125.806 25.6518 136.384 27.4914 139.194 28.4623V47.8289C136.537 46.9602 127.493 45.6316 122.229 52.2234ZM78.5395 76.3423C78.5395 88.7594 91.8253 84.9269 94.4825 83.8028V100.972C91.672 102.505 86.6132 103.731 79.7148 103.731C76.8397 103.815 73.9775 103.313 71.3025 102.256C68.6274 101.199 66.1954 99.6088 64.1544 97.5821C62.1133 95.5554 60.5059 93.1346 59.4299 90.4671C58.3539 87.7996 57.8318 84.941 57.8954 82.0654L57.9465 14.7677L78.4884 10.3731V28.4623H94.5336V46.5003H78.5395V76.3934V76.3423ZM53.4498 79.9192C53.4498 95.0957 41.6459 103.731 24.1699 103.731C16.3278 103.726 8.57061 102.108 1.37968 98.9792V78.8972C8.43137 82.7297 17.2204 85.5912 24.1699 85.5912C28.8711 85.5912 31.9881 84.3649 31.9881 80.4813C31.9881 70.3637 0 74.145 0 50.8437C0 35.9739 11.6506 27.0826 28.7178 27.0826C35.6673 27.0826 42.6168 28.1046 49.6174 30.915V50.7416C43.148 47.3367 35.9756 45.4824 28.6667 45.325C24.2721 45.325 21.3084 46.6025 21.3084 49.924C21.3084 59.3773 53.4498 54.8806 53.4498 79.9703V79.9192Z" fill="#635BFF"/>
</svg>
