<svg width="328" height="129" viewBox="0 0 328 129" fill="none" xmlns="http://www.w3.org/2000/svg">
<g clip-path="url(#clip0_2613_6639)">
<path d="M152.646 62.4023V100.233H140.641V6.8125H172.469C180.535 6.8125 187.414 9.50133 193.041 14.879C198.794 20.2566 201.67 26.8223 201.67 34.5761C201.67 42.5175 198.794 49.0832 193.041 54.3983C187.476 59.7134 180.598 62.3398 172.469 62.3398H152.646V62.4023ZM152.646 18.3182V50.8965H172.719C177.471 50.8965 181.473 49.2708 184.6 46.0817C187.789 42.8926 189.414 39.0157 189.414 34.6386C189.414 30.324 187.789 26.5096 184.6 23.3207C181.473 20.0065 177.534 18.3807 172.719 18.3807H152.646V18.3182Z" fill="white"/>
<path d="M233.061 34.2031C241.94 34.2031 248.943 36.5792 254.071 41.3316C259.198 46.0839 261.762 52.5871 261.762 60.8411V100.236H250.319V91.3561H249.819C244.879 98.6721 238.251 102.299 229.996 102.299C222.931 102.299 217.053 100.236 212.3 96.0459C207.548 91.8563 205.172 86.6663 205.172 80.4132C205.172 73.7849 207.673 68.5324 212.676 64.6555C217.678 60.716 224.369 58.7776 232.685 58.7776C239.814 58.7776 245.692 60.0908 250.256 62.717V59.9657C250.256 55.7761 248.631 52.2744 245.316 49.3355C242.002 46.3965 238.125 44.9583 233.686 44.9583C226.995 44.9583 221.68 47.7722 217.803 53.4625L207.235 46.8342C213.051 38.3926 221.68 34.2031 233.061 34.2031ZM217.553 80.6008C217.553 83.7273 218.866 86.3536 221.555 88.4171C224.181 90.4806 227.308 91.5436 230.872 91.5436C235.937 91.5436 240.439 89.6677 244.379 85.9159C248.318 82.164 250.319 77.7869 250.319 72.7219C246.567 69.783 241.377 68.2823 234.686 68.2823C229.809 68.2823 225.744 69.4703 222.493 71.784C219.179 74.2227 217.553 77.1616 217.553 80.6008Z" fill="white"/>
<path d="M327.047 36.2656L287.027 128.311H274.646L289.529 96.1074L263.141 36.2656H276.21L295.219 82.1631H295.469L313.978 36.2656H327.047Z" fill="white"/>
<path d="M104.88 54.7773C104.88 50.8629 104.53 47.1173 103.879 43.5156H53.5547V64.1507L82.5377 64.1569C81.3621 71.0228 77.579 76.8757 71.7824 80.7776V94.1654H89.0346C99.1083 84.8421 104.88 71.0603 104.88 54.7773Z" fill="#4285F4"/>
<path d="M71.7823 80.7739C66.98 84.013 60.7957 85.9077 53.5609 85.9077C39.5853 85.9077 27.7295 76.4906 23.4837 63.7969H5.6875V77.6036C14.5043 95.0997 32.6257 107.106 53.5609 107.106C68.0305 107.106 80.1865 102.347 89.0345 94.1555L71.7823 80.7739Z" fill="#34A853"/>
<path d="M21.8169 53.5555C21.8169 49.9913 22.411 46.5459 23.4927 43.3068V29.5H5.69653C2.051 36.7348 0 44.9013 0 53.5555C0 62.2098 2.05725 70.3763 5.69653 77.6111L23.4927 63.8043C22.411 60.5652 21.8169 57.1198 21.8169 53.5555Z" fill="#FABB05"/>
<path d="M53.5609 21.1979C61.4585 21.1979 68.5307 23.918 74.1147 29.2331L89.4035 13.9568C80.1177 5.30885 68.0117 0 53.5609 0C32.6319 0 14.5043 12.0059 5.6875 29.5019L23.4837 43.3087C27.7295 30.615 39.5853 21.1979 53.5609 21.1979Z" fill="#E94235"/>
</g>
<defs>
<clipPath id="clip0_2613_6639">
<rect width="328" height="129" fill="white"/>
</clipPath>
</defs>
</svg>
