<svg width="402" height="138" viewBox="0 0 402 138" fill="none" xmlns="http://www.w3.org/2000/svg">
<g clip-path="url(#clip0_496_925)">
<path d="M60.3849 8.82031C27.1503 8.82031 0.207031 35.7628 0.207031 68.9974C0.207031 102.233 27.1503 129.174 60.3849 129.174C93.6231 129.174 120.563 102.233 120.563 68.9974C120.563 35.765 93.6231 8.82319 60.3842 8.82319L60.3849 8.82031ZM87.9821 95.613C86.9042 97.3808 84.5903 97.9413 82.8225 96.8562C68.6934 88.2258 50.9065 86.2712 29.9593 91.0571C27.9407 91.517 25.9287 90.2522 25.4688 88.233C25.0067 86.2137 26.2664 84.2016 28.29 83.7417C51.2134 78.5045 70.8765 80.7595 86.7389 90.4534C88.5066 91.5385 89.0672 93.8452 87.9821 95.613ZM95.3477 79.2274C93.9896 81.435 91.1008 82.132 88.8947 80.7739C72.719 70.8313 48.0616 67.9519 28.9288 73.7596C26.4475 74.5091 23.8267 73.1107 23.0737 70.6337C22.3263 68.1524 23.7254 65.5366 26.2024 64.7821C48.0573 58.1509 75.2269 61.363 93.8027 72.778C96.0088 74.1361 96.7059 77.0249 95.3477 79.2282V79.2274ZM95.9801 62.165C76.585 50.6451 44.5857 49.5859 26.0681 55.206C23.0945 56.1079 19.9499 54.4292 19.0488 51.4557C18.1476 48.4806 19.8249 45.3382 22.8006 44.4342C44.0575 37.9812 79.3948 39.2279 101.725 52.484C104.405 54.0714 105.282 57.5257 103.694 60.1967C102.113 62.8714 98.649 63.7531 95.983 62.165H95.9801ZM163.931 64.3725C153.54 61.8948 151.693 60.1558 151.693 56.5017C151.693 53.0495 154.941 50.7263 159.778 50.7263C164.463 50.7263 169.105 52.4904 173.977 56.1222C174.121 56.2322 174.308 56.276 174.487 56.2473C174.674 56.22 174.832 56.1201 174.94 55.9699L180.013 48.8184C180.222 48.5238 180.164 48.1177 179.884 47.8928C174.085 43.2413 167.56 40.9799 159.928 40.9799C148.711 40.9799 140.871 47.7125 140.871 57.3453C140.871 67.6752 147.633 71.3329 159.318 74.1563C169.256 76.4464 170.937 78.3651 170.937 81.7943C170.937 85.5957 167.546 87.9599 162.084 87.9599C156.019 87.9599 151.068 85.9119 145.535 81.126C145.398 81.0038 145.212 80.9535 145.039 80.9607C144.852 80.9751 144.687 81.0613 144.572 81.1978L138.881 87.9671C138.643 88.2545 138.672 88.6713 138.945 88.9156C145.384 94.6644 153.303 97.6969 161.854 97.6969C173.941 97.6969 181.752 91.093 181.752 80.8673C181.774 72.239 176.607 67.4603 163.953 64.3819L163.931 64.3725ZM209.102 54.1253C203.864 54.1253 199.567 56.1891 196.017 60.418V55.658C196.017 55.2822 195.715 54.9761 195.341 54.9761H186.035C185.662 54.9761 185.36 55.2822 185.36 55.658V108.548C185.36 108.922 185.662 109.23 186.035 109.23H195.341C195.715 109.23 196.017 108.922 196.017 108.548V91.8547C199.567 95.8286 203.864 97.776 209.102 97.776C218.839 97.776 228.699 90.281 228.699 75.9528C228.713 61.6217 218.854 54.1245 209.11 54.1245L209.102 54.1253ZM217.877 75.9528C217.877 83.2459 213.385 88.3407 206.947 88.3407C200.587 88.3407 195.787 83.0159 195.787 75.9528C195.787 68.8889 200.587 63.5655 206.947 63.5655C213.277 63.5648 217.877 68.7732 217.877 75.9521V75.9528ZM253.957 54.1253C241.418 54.1253 231.595 63.7804 231.595 76.1087C231.595 88.3048 241.353 97.855 253.807 97.855C266.389 97.855 276.241 88.233 276.241 75.9528C276.241 63.7143 266.454 54.1267 253.957 54.1267V54.1253ZM253.957 88.4126C247.289 88.4126 242.259 83.0518 242.259 75.9492C242.259 68.8142 247.116 63.6367 253.807 63.6367C260.518 63.6367 265.577 68.9953 265.577 76.1051C265.577 83.2387 260.691 88.4126 253.957 88.4126ZM303.016 54.9761H292.776V44.5089C292.776 44.1338 292.475 43.8277 292.101 43.8277H282.795C282.421 43.8277 282.112 44.1338 282.112 44.5089V54.9761H277.643C277.269 54.9761 276.967 55.2822 276.967 55.658V63.6539C276.967 64.029 277.269 64.3359 277.643 64.3359H282.112V85.028C282.112 93.3853 286.273 97.6251 294.487 97.6251C297.821 97.6251 300.588 96.9352 303.196 95.4549C303.412 95.3399 303.541 95.11 303.541 94.8656V87.2485C303.541 87.0185 303.419 86.7957 303.218 86.6736C303.016 86.5442 302.765 86.5371 302.557 86.6448C300.767 87.5431 299.035 87.9599 297.095 87.9599C294.113 87.9599 292.776 86.6017 292.776 83.5692V64.3395H303.016C303.39 64.3395 303.692 64.0333 303.692 63.6575V55.6623C303.706 55.2865 303.404 54.9804 303.024 54.9804L303.016 54.9761ZM338.688 55.017V53.7315C338.688 49.9495 340.139 48.2629 343.387 48.2629C345.328 48.2629 346.887 48.6481 348.633 49.2301C348.849 49.2977 349.072 49.2639 349.244 49.1353C349.424 49.0067 349.524 48.8004 349.524 48.582V40.742C349.524 40.4424 349.337 40.1772 349.043 40.0888C347.203 39.5405 344.846 38.9779 341.311 38.9779C332.723 38.9779 328.175 43.8169 328.175 52.9669V54.9358H323.705C323.331 54.9358 323.022 55.242 323.022 55.6171V63.6539C323.022 64.029 323.331 64.3359 323.705 64.3359H328.175V96.2454C328.175 96.6262 328.484 96.928 328.857 96.928H338.156C338.537 96.928 338.839 96.6262 338.839 96.2454V64.338H347.527L360.835 96.2454C359.326 99.594 357.839 100.262 355.812 100.262C354.174 100.262 352.442 99.7737 350.681 98.8036C350.516 98.7173 350.315 98.703 350.142 98.7533C349.963 98.818 349.812 98.9473 349.74 99.1198L346.585 106.04C346.434 106.37 346.564 106.751 346.88 106.924C350.171 108.706 353.139 109.468 356.811 109.468C363.681 109.468 367.482 106.263 370.824 97.6538L386.964 55.9483C387.05 55.7385 387.021 55.5014 386.892 55.3153C386.769 55.1306 386.561 55.0192 386.338 55.0192H376.652C376.357 55.0192 376.098 55.2039 376.005 55.4762L366.081 83.8136L355.216 55.4575C355.115 55.1938 354.864 55.0192 354.583 55.0192H338.688V55.017ZM318.006 54.9761H308.701C308.327 54.9761 308.018 55.2822 308.018 55.658V96.2454C308.018 96.6262 308.327 96.928 308.701 96.928H318.006C318.38 96.928 318.689 96.6262 318.689 96.2454V55.6609C318.689 55.2851 318.387 54.979 318.006 54.979V54.9761ZM313.407 36.4944C309.721 36.4944 306.732 39.478 306.732 43.1637C306.732 46.8516 309.721 49.8388 313.407 49.8388C317.094 49.8388 320.076 46.8516 320.076 43.1637C320.076 39.4787 317.087 36.4944 313.407 36.4944ZM394.911 68.0266C391.232 68.0266 388.365 65.0696 388.365 61.4787C388.365 57.8879 391.268 54.897 394.947 54.897C398.626 54.897 401.494 57.8534 401.494 61.4413C401.494 65.0322 398.59 68.0266 394.911 68.0266ZM394.947 55.5481C391.591 55.5481 389.055 58.2141 389.055 61.4787C389.055 64.7419 391.577 67.372 394.911 67.372C398.267 67.372 400.804 64.7081 400.804 61.4413C400.804 58.1782 398.281 55.5481 394.947 55.5481ZM396.399 62.1147L398.253 64.7074H396.686L395.019 62.3288H393.589V64.7074H392.281V57.8347H395.342C396.945 57.8347 397.994 58.6517 397.994 60.0271C398.001 61.1539 397.347 61.8423 396.406 62.1147H396.399ZM395.292 59.0139H393.589V61.1877H395.292C396.14 61.1877 396.65 60.7716 396.65 60.0997C396.65 59.3926 396.14 59.0139 395.292 59.0139Z" fill="#1ED760"/>
</g>
<defs>
<clipPath id="clip0_496_925">
<rect width="401.178" height="137.547" fill="white"/>
</clipPath>
</defs>
</svg>
