<svg width="288" height="141" viewBox="0 0 288 141" fill="none" xmlns="http://www.w3.org/2000/svg">
<g clip-path="url(#clip0_496_929)">
<path fill-rule="evenodd" clip-rule="evenodd" d="M234.053 60.4815C235.152 62.3773 235.511 64.5343 235.63 66.9592L235.786 70.1913V92.7921L235.945 96.0276C236.264 101.312 240.161 105.218 245.485 105.551L248.704 105.71V70.1913L248.863 66.9592C248.996 64.5615 249.352 62.3638 250.467 60.4544C251.604 58.4959 253.237 56.871 255.2 55.7429C257.164 54.6147 259.39 54.023 261.654 54.0271C263.919 54.0313 266.142 54.6311 268.102 55.7664C270.061 56.9017 271.687 58.5325 272.817 60.4951C273.916 62.3909 274.259 64.5886 274.391 66.9592L274.55 70.1811V92.7921L274.71 96.0276C275.042 101.339 278.908 105.246 284.25 105.551L287.469 105.71V66.9592C287.469 60.107 284.747 53.5352 279.903 48.689C275.059 43.8428 268.488 41.1189 261.636 41.1162C257.968 41.1123 254.342 41.8911 251 43.4006C247.657 44.9102 244.675 47.1156 242.253 49.8696C239.83 47.1167 236.848 44.9118 233.506 43.4018C230.164 41.8919 226.538 41.1115 222.871 41.1128C217.506 41.1128 212.527 42.7407 208.403 45.5522C205.886 42.7441 200.257 41.1128 197.025 41.1128V105.71L200.257 105.551C205.663 105.195 209.57 101.393 209.78 96.0276L209.953 92.7921V70.1913L210.112 66.9592C210.248 64.5208 210.587 62.3773 211.689 60.4679C212.827 58.5107 214.459 56.8862 216.421 55.7567C218.383 54.6271 220.607 54.0321 222.871 54.0309C225.137 54.0314 227.363 54.6276 229.325 55.7598C231.288 56.892 232.918 58.5204 234.053 60.4815ZM12.9181 105.554L16.1502 105.71H64.5975L64.4381 102.488C64.0006 97.1773 60.2394 93.2975 54.9114 92.9515L51.6793 92.7921H22.6144L61.3654 54.0275L61.206 50.809C60.955 45.4437 57.0345 41.5672 51.6793 41.2722L48.4473 41.1263L0 41.1128L0.159399 44.3449C0.583334 49.605 4.39875 53.5663 9.68267 53.8715L12.9181 54.0309H41.9831L3.23208 92.7955L3.39148 96.0276C3.71028 101.352 7.55282 105.208 12.9181 105.551V105.554ZM184.344 50.5682C187.344 53.5674 189.723 57.1281 191.347 61.047C192.97 64.9659 193.806 69.1662 193.806 73.4081C193.806 77.65 192.97 81.8504 191.347 85.7693C189.723 89.6882 187.344 93.2489 184.344 96.248C178.283 102.304 170.066 105.705 161.499 105.705C152.931 105.705 144.714 102.304 138.654 96.248C126.041 83.6351 126.041 63.1811 138.654 50.5682C141.651 47.5701 145.209 45.1916 149.125 43.5687C153.042 41.9457 157.239 41.11 161.478 41.1094C165.725 41.1064 169.93 41.9406 173.853 43.5642C177.777 45.1879 181.341 47.5691 184.344 50.5716V50.5682ZM175.204 59.715C178.837 63.3508 180.878 68.2802 180.878 73.42C180.878 78.5598 178.837 83.4892 175.204 87.125C171.568 90.7579 166.639 92.7987 161.499 92.7987C156.359 92.7987 151.43 90.7579 147.794 87.125C144.161 83.4892 142.12 78.5598 142.12 73.42C142.12 68.2802 144.161 63.3508 147.794 59.715C151.43 56.082 156.359 54.0413 161.499 54.0413C166.639 54.0413 171.568 56.082 175.204 59.715ZM93.6896 41.1094C97.9291 41.1105 102.127 41.9467 106.043 43.5702C109.959 45.1938 113.517 47.5728 116.514 50.5716C129.131 63.1811 129.131 83.6385 116.514 96.248C110.454 102.304 102.237 105.705 93.6692 105.705C85.1018 105.705 76.8848 102.304 70.8242 96.248C58.2113 83.6351 58.2113 63.1811 70.8242 50.5682C73.8213 47.5701 77.3795 45.1916 81.2958 43.5687C85.2121 41.9457 89.4097 41.11 93.6489 41.1094H93.6896ZM107.374 59.7083C111.008 63.3441 113.05 68.2743 113.05 73.4149C113.05 78.5555 111.008 83.4857 107.374 87.1216C103.738 90.7546 98.809 92.7953 93.6692 92.7953C88.5295 92.7953 83.6 90.7546 79.9643 87.1216C76.3313 83.4858 74.2905 78.5564 74.2905 73.4166C74.2905 68.2768 76.3313 63.3474 79.9643 59.7116C83.6 56.0787 88.5295 54.0379 93.6692 54.0379C98.809 54.0379 103.738 56.0787 107.374 59.7116V59.7083Z" fill="#2D8CFF"/>
</g>
<defs>
<clipPath id="clip0_496_929">
<rect width="287.768" height="140.947" fill="white"/>
</clipPath>
</defs>
</svg>
