<svg width="345" height="104" viewBox="0 0 345 104" fill="none" xmlns="http://www.w3.org/2000/svg">
<path d="M202.49 96.7181C194.456 96.7181 189.383 91.8257 189.383 83.9133C189.383 72.1957 195.966 64.3438 206.959 64.3438C215.415 64.3438 219.704 69.5381 219.704 74.7929C219.704 74.9463 219.699 75.0948 219.689 75.2426C219.644 75.9352 219.023 76.4237 218.329 76.4237H215.12C214.315 76.4237 213.677 75.767 213.541 74.9744C213.02 71.9407 210.815 69.2361 206.536 69.2361C199.651 69.2361 195.785 75.5781 195.785 83.5509C195.785 88.8661 198.564 91.8257 202.912 91.8257C207.225 91.8257 210.55 89.6447 212.167 85.4271C212.398 84.825 212.958 84.3965 213.603 84.3965H216.646C217.549 84.3965 218.239 85.2132 218 86.0842C216.313 92.2389 211.361 96.7181 202.49 96.7181Z" fill="#DCDFE6"/>
<path d="M226.993 94.9097C226.87 95.6062 226.265 96.1141 225.558 96.1141H222.113C221.208 96.1141 220.522 95.2974 220.679 94.4062L227.717 54.3137C227.84 53.6173 228.444 53.1094 229.152 53.1094H232.597C233.502 53.1094 234.188 53.926 234.031 54.8173L226.993 94.9097Z" fill="#DCDFE6"/>
<path d="M247.924 91.8257C254.75 91.8257 258.978 85.5441 258.978 77.5109C258.978 72.1957 256.199 69.2361 251.548 69.2361C244.663 69.2361 240.495 75.5781 240.495 83.5509C240.495 88.8661 243.274 91.8257 247.924 91.8257ZM247.502 96.7181C239.166 96.7181 234.093 91.8257 234.093 83.9133C234.093 72.1957 240.978 64.3438 251.971 64.3438C260.306 64.3438 265.38 69.2361 265.38 77.1485C265.38 88.9265 258.434 96.7181 247.502 96.7181Z" fill="#DCDFE6"/>
<path d="M278.566 96.7181C272.526 96.7181 268.842 93.7585 268.842 88.2017C268.842 87.3561 268.902 86.4501 269.083 85.5441L272.495 66.1515C272.618 65.4554 273.223 64.9477 273.93 64.9477H277.373C278.279 64.9477 278.965 65.7658 278.807 66.6577L275.667 84.3965C275.546 85.1817 275.486 85.8461 275.486 86.5105C275.546 89.7721 277.358 91.5237 280.74 91.5237C285.15 91.5237 288.834 88.3225 289.861 82.5241L292.673 66.1573C292.793 65.4585 293.399 64.9477 294.108 64.9477H297.551C298.455 64.9477 299.141 65.7633 298.986 66.6541L294.058 94.9082C293.936 95.6053 293.331 96.1141 292.623 96.1141H288.738C288.221 96.1141 287.83 95.6471 287.92 95.1381C288.076 94.2572 286.688 93.6079 285.988 94.165C283.905 95.8226 281.362 96.7181 278.566 96.7181Z" fill="#DCDFE6"/>
<path d="M312.996 96.7181C305.205 96.7181 301.158 91.2821 301.158 83.9133C301.158 73.0413 306.956 64.3438 317.224 64.3438C319.717 64.3438 321.788 64.8979 323.399 65.9705C324.679 66.8226 327.696 66.3455 327.963 64.831L329.817 54.3127C329.94 53.6168 330.544 53.1094 331.251 53.1094H334.697C335.602 53.1094 336.288 53.926 336.132 54.8173L329.093 94.9097C328.971 95.6062 328.366 96.1141 327.659 96.1141H323.755C323.247 96.1141 322.862 95.6553 322.95 95.155C323.107 94.2691 321.593 93.5775 320.886 94.1339C318.812 95.7673 316.148 96.7181 312.996 96.7181ZM314.688 91.8257C321.392 91.8257 325.439 85.5441 325.439 77.5109C325.439 72.1957 322.842 69.2361 318.312 69.2361C311.547 69.2361 307.56 75.5781 307.56 83.5509C307.56 88.8661 310.158 91.8257 314.688 91.8257Z" fill="#DCDFE6"/>
<path d="M29.7774 98.0291C16.4643 98.0291 5.67188 87.3637 5.67188 74.2071C5.67188 61.0506 16.4643 50.3852 29.7774 50.3852C31.3754 50.3852 32.9372 50.5387 34.4483 50.8323M34.4483 50.8323C33.1597 47.3951 32.4558 43.6776 32.4558 39.7977C32.4558 22.2557 46.8457 8.03516 64.5965 8.03516C81.1312 8.03516 94.7495 20.3739 96.5382 36.2425M34.4483 50.8323C37.623 51.4482 40.5742 52.68 43.1694 54.3967M75.3103 36.3113C78.6609 35.1408 82.2668 34.5039 86.0235 34.5039C89.7059 34.5039 93.2433 35.1159 96.5382 36.2425M96.5382 36.2425C100.38 37.5561 103.891 39.5695 106.915 42.1283" stroke="#DCDFE6" stroke-width="6.3405" stroke-linecap="round"/>
<path d="M51.2651 87.6273C49.6233 90.962 47.3224 93.7532 44.6016 95.918" stroke="#DCDFE6" stroke-width="6.3405" stroke-linecap="round"/>
<path d="M52.2838 64.4164C53.8059 67.8074 54.4891 71.3596 54.4219 74.8359" stroke="#DCDFE6" stroke-width="6.3405" stroke-linecap="round"/>
<path d="M29.2974 60.9805C28.6653 60.9805 28.0591 61.2316 27.6121 61.6785C27.1652 62.1255 26.9141 62.7317 26.9141 63.3638V75.2803C26.9142 75.9123 27.1654 76.5184 27.6124 76.9653L34.7623 84.1152C35.2118 84.5493 35.8138 84.7895 36.4387 84.7841C37.0636 84.7787 37.6613 84.528 38.1032 84.0861C38.5451 83.6442 38.7958 83.0465 38.8012 82.4216C38.8066 81.7967 38.5664 81.1947 38.1323 80.7452L31.6807 74.2936V63.3638C31.6807 62.7317 31.4296 62.1255 30.9826 61.6785C30.5357 61.2316 29.9295 60.9805 29.2974 60.9805Z" fill="#DCDFE6"/>
<path d="M78.872 97.2915C72.53 97.2915 69.6308 95.6003 69.6308 90.7079C69.6308 89.7415 69.7516 88.7147 69.9932 87.4463L72.3528 73.9321C72.5084 73.0412 71.8227 72.2255 70.9184 72.2255H69.7215C68.8209 72.2255 68.1362 71.416 68.2856 70.5278L68.8829 66.9773C69.0008 66.2762 69.6079 65.7627 70.3188 65.7627H72.5804C73.2853 65.7627 73.889 65.2577 74.0136 64.5638L75.2744 57.5392C75.3989 56.8454 76.0027 56.3403 76.7076 56.3403H82.9406C83.844 56.3403 84.5294 57.1546 84.3754 58.0448L83.3346 64.0583C83.1805 64.9485 83.8659 65.7627 84.7694 65.7627H87.66C88.5607 65.7627 89.2454 66.5722 89.096 67.4604L88.4987 71.0109C88.3807 71.7121 87.7737 72.2255 87.0627 72.2255H83.1161C82.4084 72.2255 81.8032 72.7343 81.6816 73.4314L79.174 87.8087C79.1136 88.1711 79.0532 88.4731 79.0532 88.7751C79.0532 90.2247 79.9592 90.7683 81.8316 90.7683H83.2972C84.2026 90.7683 84.8885 91.5858 84.7311 92.4775L84.1405 95.8242C84.0256 96.4753 83.4868 96.9684 82.8284 97.0297C81.5345 97.1502 80.0267 97.2915 78.872 97.2915Z" fill="#DCDFE6"/>
<path d="M97.6293 95.7231C97.5077 96.4203 96.9025 96.9291 96.1949 96.9291H89.9099C89.0056 96.9291 88.32 96.1135 88.4754 95.2227L93.4035 66.9687C93.5251 66.2715 94.1303 65.7627 94.8379 65.7627H101.123C102.027 65.7627 102.713 66.5783 102.557 67.469L97.6293 95.7231ZM99.1706 61.8367C96.211 61.8367 94.4594 60.0851 94.4594 57.9107C94.4594 54.77 96.5734 52.5352 100.379 52.5352C103.338 52.5352 105.09 54.2868 105.09 56.4611C105.09 59.6019 102.976 61.8367 99.1706 61.8367Z" fill="#DCDFE6"/>
<path d="M147.232 95.7253C147.109 96.4214 146.505 96.9291 145.798 96.9291H139.879C138.973 96.9291 138.287 96.1102 138.445 95.2181L141.524 77.9031C141.644 77.2387 141.644 76.6951 141.644 76.1515C141.644 73.9771 140.738 72.5879 138.564 72.5879C135.604 72.5879 133.068 74.8831 132.403 79.0507L129.474 95.7249C129.352 96.4212 128.747 96.9291 128.04 96.9291H122.176C121.272 96.9291 120.587 96.1133 120.742 95.2225L123.766 77.9031C123.887 77.2387 123.947 76.6347 123.947 76.1515C123.947 73.9771 122.981 72.5879 120.867 72.5879C117.907 72.5879 115.37 74.8831 114.706 79.0507L111.777 95.7249C111.655 96.4212 111.05 96.9291 110.343 96.9291H104.479C103.575 96.9291 102.889 96.1135 103.045 95.2227L107.973 66.9687C108.094 66.2715 108.699 65.7627 109.407 65.7627H116.105C116.542 65.7627 116.874 66.1557 116.802 66.5865C116.673 67.3469 117.915 67.8997 118.504 67.4027C120.178 65.9922 122.23 65.1587 124.491 65.1587C127.882 65.1587 130.084 66.1779 131.465 67.7511C132.252 68.648 133.863 68.8511 134.722 68.0231C136.627 66.1873 139.01 65.1587 142.188 65.1587C147.443 65.1587 150.886 68.3599 150.886 73.7959C150.886 74.5811 150.825 75.4267 150.644 76.3327L147.232 95.7253Z" fill="#DCDFE6"/>
<path d="M167.936 97.5331C158.755 97.5331 153.621 92.5199 153.621 84.7283C153.621 72.7087 161.171 65.1587 172.043 65.1587C180.922 65.1587 185.995 70.5343 185.995 77.9635C185.995 79.5133 185.801 80.9854 185.444 82.3798C185.287 82.9926 184.721 83.3995 184.088 83.3995H163.999C163.251 83.3995 162.627 83.9674 162.622 84.7155C162.621 84.8641 162.621 85.0096 162.621 85.1511C162.621 89.1979 164.735 91.3723 168.54 91.3723C171.421 91.3723 173.716 90.0998 175.114 87.7311C175.404 87.2409 175.911 86.9027 176.481 86.9027H182.18C183.151 86.9027 183.851 87.8387 183.47 88.7318C181.177 94.098 176.102 97.5331 167.936 97.5331ZM171.439 71.3195C168.303 71.3195 165.844 72.8024 164.418 75.6617C163.983 76.5339 164.688 77.4803 165.662 77.4803H175.54C176.344 77.4803 177.012 76.8241 176.9 76.0277C176.482 73.0466 174.687 71.3195 171.439 71.3195Z" fill="#DCDFE6"/>
</svg>
