<svg width="327" height="268" viewBox="0 0 327 268" fill="none" xmlns="http://www.w3.org/2000/svg">
<path d="M124.138 14.2158C160.393 -6.92252 196.344 -3.4949 227.388 17.9307C240.726 26.6285 249.854 38.3283 248.52 52.3271C252.629 56.8093 255.372 74.3336 248.52 83.7002C225.871 114.658 269.522 115.892 273.517 134.61C276.079 135.395 278.641 136.206 281.201 137.045C296.538 141.969 313.139 149.243 326.312 157.685L299.832 168.077L299.963 200.515C300.118 205.103 297.797 208.522 292.998 210.771L275.73 221.387V259.784C261.65 252.519 247.806 246.338 234.085 241.421C213.985 257.938 188.88 267.153 162.868 267.562C136.856 267.972 111.473 259.552 90.8633 243.676C78.4733 248.98 64.2462 256.051 51.3799 264.365L50.5234 220.803L33.2285 210.034C28.2474 208.305 24.6906 202.825 25.3545 197.238L25.6807 168.033L0 157.654C15.4083 146.894 29.2554 141.372 45.2266 137.04C49.2973 116.584 58.5369 96.6731 72.5879 81.2549C76.5705 68.6644 82.1849 60.316 87.1758 54.9873C82.9729 51.2494 80.2338 44.2645 79.834 34.0576C93.6354 25.6045 110.997 13.5485 124.138 14.2158ZM192.523 9.14844C170.13 2.23063 146.39 7.26129 128.021 20.2158C113.266 21.7397 101.746 28.3781 88.1865 36.7822C88.1865 36.7822 89.4002 48.277 95.3652 56.1982C88.0951 63.5647 82.2653 74.0299 78.5127 85.0771L78.5146 85.0801C64.6513 101.041 55.7987 120.732 53.0625 141.695C30.849 147.588 19.2269 153.835 13.6094 156.542L34.1211 161.764L33.2422 194.626C33.2634 197.352 33.6077 200.495 35.6504 201.354L35.373 201.456L58.4902 215.132V251.005C64.8354 246.158 80.0322 239.509 93.3164 234.174C112.693 249.438 136.708 257.612 161.373 257.338C186.038 257.064 209.867 248.36 228.899 232.67C242.108 237.7 258.677 244.385 268.75 249.849V215.764L288.596 203.244C289.199 203.049 289.745 202.706 290.182 202.246L290.707 201.919L290.544 201.846C292.268 199.645 292.432 195.925 292.432 195.925L291.931 162.003L311.047 156.556C311.047 156.556 295.533 148.43 267.191 140.959C264.23 119.304 221.066 119.207 241.062 84.166C247.228 75.4453 247.73 60.9391 241.941 54.8877C242.907 45.6581 240.037 41.6935 239.032 40.0195C235.518 34.5946 229.477 24.7753 210.456 16.1982C201.008 11.4782 195.741 9.63794 192.523 9.14844Z" fill="#DCDFE6"/>
<path d="M194.196 246.187C182.523 251.587 175.514 252.01 173.17 247.455C169.721 247.871 166.213 248.117 162.697 248.187C162.388 250.99 161.691 253.151 160.607 254.668C159.784 253.07 159.232 250.913 158.953 248.198C155.556 248.149 152.167 247.939 148.833 247.569C146.555 252.194 139.534 251.867 127.77 246.589C138.325 248.502 143.11 248.987 144.715 247.025C131.641 245.022 119.682 240.485 111.668 233.424C120.674 238.842 132.686 242.109 145.526 243.417C144.972 236.131 120.333 229.911 121.856 215.751C123.367 229.143 149.066 230.555 149.569 243.767C152.615 243.979 155.66 244.084 158.742 244.087C158.697 239.248 159.262 233.158 160.438 225.816C162.021 233.172 162.835 239.244 162.88 244.033C166.064 243.942 169.241 243.741 172.375 243.423C172.966 230.388 198.392 228.619 199.744 215.278C201.416 229.249 177.463 235.772 176.435 242.962C189.233 241.314 201.13 237.867 209.93 232.829C202.073 240.069 190.259 244.729 177.291 246.858C178.948 248.755 183.734 248.214 194.196 246.187Z" fill="#DCDFE6"/>
<path d="M198.445 60.512C203.072 58.8913 206.705 58.9457 209.344 60.6751C210.207 60.7426 210.299 60.0785 209.62 58.683C205.851 55.9833 202.126 56.593 198.445 60.512Z" fill="#303136"/>
<path d="M167.463 13.7064C180.501 9.99787 198.886 16.9348 211.134 23.8216C216.498 26.2819 219.913 28.7163 221.952 31.1293C233.236 38.6369 236.737 49.5164 236.753 49.5658C235.231 56.0284 238.967 56.6455 240.259 62.5697C238.913 60.3377 238.286 58.6666 236.068 59.2621C234.359 59.6766 233.679 60.8941 232.589 63.5043C231.807 62.6053 230.443 61.8454 228.575 61.2923C230.381 63.1478 230.793 64.8289 229.811 66.3353C228.597 66.6629 227.302 66.4958 226.211 65.8705C225.993 69.425 221.712 69.627 213.367 66.4759C213.182 68.1932 211.937 68.9045 209.631 68.6097C206.604 68.2769 205.012 66.8293 204.855 64.267C204.931 63.3861 205.1 62.9157 205.849 62.1605C199.889 61.074 201.187 61.4473 195.807 61.2923C189.192 61.3854 185.955 63.2499 183.483 67.0775C182.216 69.0353 182.153 70.6671 181.673 72.514C181.126 74.599 180.945 76.2289 182.209 78.0414C179.401 75.0523 169.434 69.499 164.543 71.4271C152.324 76.2468 164.464 89.2117 170.219 100.996C177.942 117.596 186.045 122.301 190.01 124.187C191.67 127.661 186.321 130.081 186.112 130.901C182.285 127.094 174.259 128.511 171.408 123.177C171.408 123.177 173.9 123.592 177.183 124.189C172.358 122.022 167.688 119.527 163.206 116.72L143.877 106.945L128.368 100.388C117.797 94.3524 113.35 85.2334 115.028 73.0326C103.405 83.8221 108.533 108.092 108.533 108.092L129.314 118.581L134.279 128.044C120.718 129.005 109.706 130.305 101.514 131.268C83.299 134.095 77.1015 135.218 63.4453 138.395C65.1367 123.828 72.8949 100.232 86.4092 89.1214C90.1195 76.2301 101.514 65.3685 101.514 65.3685L134.279 54.7406L106.726 56.639C98.3657 53.8196 92.3026 45.6313 95.5898 37.7523C102.116 55.8622 120.463 48.3665 124.943 40.5922C108.533 44.7284 99.4724 43.6307 96.1016 36.8353C109.438 32.267 122.974 25.7 129.386 26.4847C145.887 13.9462 158.571 11.9049 182.521 19.7787C178.223 16.4586 175.687 15.0231 167.463 13.7064ZM233.799 45.2025C230.58 51.4578 225.028 48.3094 225.199 57.8959C234.227 57.5271 237.093 53.2961 233.799 45.2025ZM183.24 39.225C176.957 33.9453 166.372 39.2252 162.523 45.4925C171.184 39.2252 178.49 41.3489 180.914 42.8597C180.862 43.2698 180.839 43.6837 180.847 44.097C183.157 55.2764 189.565 58.6885 200.07 54.3334C201.04 53.8277 203.691 53.6631 208.023 53.8392C201.381 53.0397 195.504 49.7215 190.395 43.8861C187.921 39.6835 185.156 38.45 183.24 39.225Z" fill="#DCDFE6"/>
<path d="M206.773 37.2578C211.515 42.2069 212.991 47.9027 211.201 54.3452C216.721 50.5469 216.473 40.9435 206.773 37.2578Z" fill="#303136"/>
<path d="M217.766 54.1094C223.957 59.1509 223.711 67.1504 226.653 65.4536C228.792 62.5739 224.372 57.8391 217.766 54.1094Z" fill="#303136"/>
<path fill-rule="evenodd" clip-rule="evenodd" d="M223.018 74.9228C227.64 73.1411 232.542 70.5975 234.124 66.2233C234.318 64.4889 235.429 61.3286 237.324 63.2294C239.879 66.2293 241.338 69.4271 241.701 72.823C241.561 75.8457 240.229 78.4611 237.705 80.6691C236.113 82.133 234.199 83.2031 232.117 83.7936C228.504 84.6224 225.693 84.3195 223.685 82.8848C221.731 80.5473 221.508 77.8933 223.018 74.9228Z" fill="#DCDFE6"/>
<path fill-rule="evenodd" clip-rule="evenodd" d="M194.438 118.014C198.084 115.3 201.319 112.032 203.052 107.777C204.049 110.125 204.302 112.722 203.777 115.217C204.773 115.054 204.862 113.77 205.78 113.556L207.273 115.09C207.273 115.09 210.402 112.303 210.536 112.613C210.67 112.923 211.743 114.395 211.82 114.29C212.398 113.056 214.493 110.535 218.105 106.727C218.338 110.241 217.517 113.117 215.643 115.356C214.331 116.586 212.876 116.718 211.279 115.751L202.943 116.447C198.99 120.264 192.163 120.371 194.438 118.014Z" fill="#DCDFE6"/>
<path fill-rule="evenodd" clip-rule="evenodd" d="M177.867 85.25C189.451 92.3897 177.763 105.739 191.899 115.302C196.284 112.435 198.41 109.505 198.262 107.395C192.517 102.874 201.639 93.137 188.272 87.4298C193.192 92.6867 191.208 102.708 193.468 107.702C187.565 101.252 193.922 86.4231 177.867 85.25Z" fill="#303136"/>
<path fill-rule="evenodd" clip-rule="evenodd" d="M241.84 69.2812C240.254 69.5586 238.461 69.632 238.023 71.1233C238.854 72.0859 240.185 72.4041 242.102 72.205C243.021 71.0303 242.934 70.0557 241.84 69.2812Z" fill="#303136"/>
<path fill-rule="evenodd" clip-rule="evenodd" d="M241.92 75.1541C240.035 74.8278 238.029 74.2355 236.836 75.4478C237.285 76.6421 238.605 77.4252 240.807 77.9375C242.385 77.2001 242.756 76.2722 241.92 75.1541Z" fill="#303136"/>
<path fill-rule="evenodd" clip-rule="evenodd" d="M239.266 80.1159C237.825 79.4746 236.367 78.605 235.047 79.1973C235.068 80.1371 235.918 80.9838 237.559 81.842C239.059 81.6658 239.628 81.0904 239.266 80.1159Z" fill="#303136"/>
<path fill-rule="evenodd" clip-rule="evenodd" d="M227.799 108C231.121 117.739 243.527 130.516 256.994 138.417C243.365 135.24 229.573 132.808 215.68 131.132C224.244 122.121 228.284 114.41 227.799 108Z" fill="#DCDFE6"/>
<path fill-rule="evenodd" clip-rule="evenodd" d="M204.084 65.3284C199.598 64.4425 195.158 64.1553 191.949 66.0561C189.054 67.4919 186.676 69.3959 186.292 71.1025C186.015 72.3637 184.824 74.9237 185.173 77.8148C186.034 82.7731 196.321 85.5451 204.414 85.5908C207.814 85.3477 210.338 85.3396 214.233 83.1989C216.695 81.7093 217.603 79.0205 216.244 75.4131C207.147 73.0049 203.135 70.3194 204.084 65.3284Z" fill="#DCDFE6"/>
<path fill-rule="evenodd" clip-rule="evenodd" d="M199.006 66.3349L203.287 71.2834C188.01 63.9904 169.35 58.3076 155.539 57.451C166.384 56.4444 183.605 60.4776 199.006 66.3349Z" fill="#303136"/>
<path fill-rule="evenodd" clip-rule="evenodd" d="M194.378 70.4154L198.895 75.6364C182.444 67.7576 159.428 61.2493 144.375 60.0403C156.248 59.2425 177.762 64.018 194.378 70.4154Z" fill="#303136"/>
<path fill-rule="evenodd" clip-rule="evenodd" d="M189.986 74.3018L194.659 79.8622C177.365 71.3128 146.887 63.6999 130.914 62.207C143.555 61.5528 172.473 67.3122 189.986 74.3018Z" fill="#303136"/>
<path fill-rule="evenodd" clip-rule="evenodd" d="M184.797 133.776C190.426 134.468 199.421 133.928 201.458 128.319L202.511 132.234C211.202 128.89 211.954 127.036 215.377 120.324C210.571 117.942 203.843 119.109 195.193 123.827C193.702 126.694 190.669 131.877 184.797 133.776Z" fill="#DCDFE6"/>
<path fill-rule="evenodd" clip-rule="evenodd" d="M124.18 105.852L163.99 126.879H161.122C154.269 126.879 147.496 127.026 140.804 127.32L136.284 116.313L124.18 105.852Z" fill="#DCDFE6"/>
<path fill-rule="evenodd" clip-rule="evenodd" d="M177.867 85.25C189.451 92.3897 177.763 105.739 191.899 115.302C196.284 112.435 198.41 109.505 198.262 107.395C192.517 102.874 201.639 93.137 188.272 87.4298C193.192 92.6867 191.208 102.708 193.468 107.702C187.565 101.252 193.922 86.4231 177.867 85.25Z" fill="#DCDFE6"/>
<path fill-rule="evenodd" clip-rule="evenodd" d="M241.84 69.2812C240.254 69.5586 238.461 69.632 238.023 71.1233C238.854 72.0859 240.185 72.4041 242.102 72.205C243.021 71.0303 242.934 70.0557 241.84 69.2812Z" fill="#303136"/>
<path fill-rule="evenodd" clip-rule="evenodd" d="M241.92 75.1541C240.035 74.8278 238.029 74.2355 236.836 75.4478C237.285 76.6421 238.605 77.4252 240.807 77.9375C242.385 77.2001 242.756 76.2722 241.92 75.1541Z" fill="#303136"/>
<path fill-rule="evenodd" clip-rule="evenodd" d="M239.266 80.1159C237.825 79.4746 236.367 78.605 235.047 79.1973C235.068 80.1371 235.918 80.9838 237.559 81.842C239.059 81.6658 239.628 81.0904 239.266 80.1159Z" fill="#303136"/>
<path fill-rule="evenodd" clip-rule="evenodd" d="M204.359 88.5601C205.165 91.5394 206.219 96.9937 204.557 99.1539C207.781 95.9413 209.696 95.261 210.564 89.7838C211.063 91.0695 213.056 92.6798 213.369 94.2429C215.066 93.0029 216.286 91.144 217.03 88.6662L218.308 92.4449L220.652 89.7202L221.257 93.662L223.245 91.8934C223.018 94.0715 222.918 97.2123 221.718 101.03C224.035 99.1811 225.913 96.4906 227.35 92.9588C228.436 89.4363 225.689 87.5192 223.626 88.7168C222.55 87.4115 221.473 87.232 220.398 88.1783C219.735 84.9658 207.614 89.4852 204.359 88.5601Z" fill="#DCDFE6"/>
<path d="M227.156 54.2505C227.567 51.7215 230.7 48.9805 231.85 49.638C232.051 52.4443 230.487 53.9818 227.156 54.2505Z" fill="#DCDFE6"/>
<path d="M188.43 45.6161C190.079 44.2326 193.659 49.1322 195.804 51.927C191.396 55.058 185.033 49.0604 188.43 45.6161Z" fill="#DCDFE6"/>
<path d="M81.0586 190.37C135.025 176.898 189.542 176.774 244.608 189.998V205.975C252.933 209.739 254.234 211.227 262.162 216.009V239.046C252.264 233.632 237.454 228.427 217.73 223.432C225.188 222.17 233.648 221.43 243.11 221.213C189.439 205.83 135.096 205.829 80.083 221.213C91.8572 221.474 100.642 222.461 106.438 224.173C88.2644 227.568 73.9387 232.399 63.4609 238.667V214.521C68.1337 210.788 73.5439 208.014 80.5693 205.24L81.0586 190.37ZM220.555 210.832C222.441 211.162 224.326 211.502 226.211 211.854V198.966C228.803 203.777 231.382 208.592 233.948 213.413C235.594 213.758 237.236 214.118 238.874 214.493V192.692C237.003 192.273 235.128 191.863 233.25 191.465V203.821C230.914 199.23 228.567 194.643 226.211 190.062C224.327 189.706 222.442 189.365 220.555 189.039V210.832ZM100.814 189.477C97.2969 190.149 93.7849 190.853 90.2793 191.588C89.098 192.758 87.9215 193.932 86.75 195.11V203.607C90.7354 203.505 94.7232 203.451 98.7129 203.444V207.577C96.5995 207.989 94.4855 208.413 92.3721 208.848V206.41C90.4969 206.807 88.623 207.216 86.75 207.636V211.428C88.158 212.203 88.8664 212.594 90.2793 213.386C93.7849 212.648 97.2969 211.944 100.814 211.274C101.979 210.145 103.149 209.021 104.323 207.901V199.404C100.34 199.346 96.3562 199.333 92.3721 199.365V195.232C94.4822 194.801 96.5962 194.377 98.7129 193.962V196.399C100.58 196.046 102.45 195.706 104.323 195.38V191.588C102.919 190.736 102.217 190.315 100.814 189.477ZM198.023 207.667C199.931 207.878 201.835 208.099 203.734 208.332C204.211 206.763 204.449 205.981 204.927 204.417C206.97 204.689 209.014 204.969 211.057 205.257C211.533 206.955 211.77 207.802 212.246 209.499C214.139 209.785 216.031 210.082 217.922 210.39C215.567 202.755 213.203 195.122 210.828 187.489C208.933 187.218 207.037 186.959 205.139 186.711C202.763 193.695 200.391 200.681 198.023 207.667ZM119.56 186.5C117.663 186.752 115.767 187.017 113.872 187.293C111.503 194.931 109.142 202.57 106.789 210.21C108.678 209.897 110.569 209.595 112.462 209.305C112.938 207.606 113.175 206.757 113.651 205.062C115.692 204.77 117.734 204.484 119.779 204.207C120.256 205.777 120.496 206.558 120.973 208.123C122.87 207.886 124.77 207.659 126.671 207.441C124.305 200.461 121.935 193.48 119.56 186.5ZM147.903 183.906C145.994 184.01 144.086 184.125 142.177 184.252V196.607C139.806 192.67 137.426 188.737 135.039 184.809C133.136 184.979 131.232 185.162 129.328 185.356V207.157C131.229 206.965 133.133 206.782 135.039 206.609V193.712C137.661 197.805 140.277 201.902 142.888 206.004C144.559 205.891 146.232 205.792 147.903 205.707V183.906ZM177.734 203.303C178.931 204.279 180.128 205.261 181.324 206.249C184.889 206.486 188.451 206.758 192.011 207.064C193.432 206.099 194.137 205.619 195.553 204.666V185.608C193.665 185.426 191.777 185.247 189.89 185.074V202.78C187.748 202.618 185.605 202.464 183.461 202.318V184.58C181.554 184.458 179.645 184.343 177.734 184.234V203.303ZM168 201.563C165.852 201.518 163.704 201.482 161.556 201.456V199.019C159.645 199.008 157.733 199.008 155.82 199.019V202.81C157.261 203.895 157.98 204.441 159.421 205.541C162.991 205.566 166.562 205.625 170.134 205.719C171.555 204.668 172.266 204.146 173.688 203.108V184.049C171.794 183.975 169.898 183.912 168 183.859V201.563ZM209.867 200.995C208.368 200.781 207.618 200.678 206.117 200.482C206.734 198.444 207.352 196.406 207.971 194.366C208.604 196.576 209.236 198.786 209.867 200.995ZM118.582 200.275C117.089 200.478 116.338 200.582 114.834 200.799C115.451 198.59 116.069 196.381 116.687 194.172C117.318 196.207 117.95 198.242 118.582 200.275Z" fill="#DCDFE6"/>
<path d="M66.1184 153.569V167.878C64.4868 170.131 62.8552 172.386 61.2237 174.644C57.2862 175.784 53.3612 176.962 49.4487 178.177V189.761C46.8317 190.607 44.2212 191.465 41.6172 192.335V156.818C48.1173 154.657 54.6555 152.621 61.2318 150.711C62.859 151.661 64.4879 152.613 66.1184 153.569ZM58.2869 158.588C55.3337 159.466 52.3866 160.362 49.4454 161.277V169.781C52.3822 168.865 55.3294 167.969 58.2869 167.092V158.588Z" fill="#DCDFE6"/>
<path d="M97.2295 177.895C94.569 178.393 91.9112 178.904 89.2561 179.426C88.5904 178.161 88.2576 177.53 87.5903 176.269C84.7318 176.882 81.8765 177.51 79.0246 178.153C78.3589 179.706 78.0277 180.485 77.3636 182.041C74.7172 182.684 72.0752 183.337 69.4375 183.999C72.7224 171.346 76.0203 158.697 79.3313 146.054C81.9788 145.458 84.629 144.875 87.2819 144.305C90.6038 155.502 93.9196 166.698 97.2295 177.895ZM85.9244 168.532C85.0423 164.533 84.1585 160.534 83.2731 156.533C82.4106 160.917 81.5486 165.3 80.6871 169.684C82.4275 169.281 84.1732 168.897 85.9244 168.532Z" fill="#DCDFE6"/>
<path d="M129.753 137.938V173.458C127.407 173.676 125.064 173.913 122.724 174.17C119.074 168.642 115.409 163.124 111.729 157.617V175.553C109.06 175.945 106.395 176.35 103.734 176.769V141.248C106.399 140.829 109.064 140.424 111.729 140.032C115.074 145.725 118.407 151.426 121.729 157.133V138.76C124.404 138.473 127.078 138.199 129.753 137.938Z" fill="#DCDFE6"/>
<path d="M161.203 136.398V145.093C158.375 145.106 155.547 145.134 152.719 145.178V172.071C150.037 172.166 147.356 172.274 144.677 172.397V145.568C141.829 145.731 138.984 145.909 136.141 146.103V137.408C144.489 136.853 152.843 136.516 161.203 136.398Z" fill="#DCDFE6"/>
<path d="M175.702 144.681V150.49C180.046 150.662 184.388 150.88 188.727 151.142V159.166C184.387 158.902 180.045 158.684 175.702 158.514V164.02C180.712 164.219 185.715 164.485 190.712 164.818V172.909C183.031 172.4 175.343 172.073 167.648 171.93V136.414C175.346 136.554 183.034 136.881 190.712 137.393V145.484C185.714 145.148 180.711 144.88 175.702 144.681Z" fill="#DCDFE6"/>
<path d="M224.626 176.962C221.839 176.514 219.049 176.082 216.257 175.668C214.667 172.121 213.074 168.575 211.477 165.03C209.698 164.795 207.917 164.578 206.133 164.377V174.363C203.46 174.071 200.785 173.792 198.109 173.524V138C204.796 138.675 211.465 139.481 218.117 140.418C219.774 141.974 221.427 143.534 223.077 145.096V160.772C221.813 161.952 220.553 163.136 219.295 164.325C221.077 168.538 222.854 172.75 224.626 176.962ZM215.14 148.083C212.14 147.684 209.138 147.303 206.133 146.941V155.993C209.138 156.361 212.14 156.741 215.14 157.135V148.083Z" fill="#DCDFE6"/>
<path d="M256.296 183.64C253.656 182.987 251.013 182.343 248.366 181.706C247.702 180.151 247.369 179.376 246.705 177.825C243.851 177.193 240.994 176.576 238.135 175.975C237.467 177.239 237.135 177.871 236.467 179.138C233.811 178.626 231.153 178.126 228.492 177.639C231.802 166.428 235.12 155.22 238.445 144.016C241.099 144.576 243.75 145.148 246.399 145.732C249.712 158.366 253.011 171.002 256.296 183.64ZM245.038 169.359C244.156 164.975 243.273 160.591 242.388 156.207C241.526 160.214 240.662 164.221 239.797 168.228C241.551 168.589 243.299 168.966 245.041 169.359H245.038Z" fill="#DCDFE6"/>
<path d="M277.79 165.813V160.396C274.853 159.482 271.905 158.584 268.947 157.704V164.355C274.532 167.567 280.072 170.854 285.567 174.216V188.887C283.943 189.489 282.324 190.102 280.708 190.726C275.828 189.172 270.929 187.682 266.013 186.253C264.362 184.994 262.709 183.738 261.055 182.486V171.981C263.691 173.409 266.322 174.849 268.947 176.303V180.514C271.9 181.391 274.847 182.288 277.79 183.204V177.609C272.254 174.363 266.676 171.191 261.055 168.096V153.575C262.706 152.625 264.359 151.679 266.013 150.734C270.932 152.163 275.83 153.653 280.708 155.206C282.331 157.147 283.951 159.089 285.567 161.033V170.483C282.982 168.915 280.389 167.359 277.79 165.813Z" fill="#DCDFE6"/>
</svg>
