<svg width="255" height="127" viewBox="0 0 255 127" fill="none" xmlns="http://www.w3.org/2000/svg">
<path fill-rule="evenodd" clip-rule="evenodd" d="M45.1233 32.1873C59.1209 24.4206 72.5669 24.6443 83.3079 30.5955L83.842 45.285L87.2258 45.5145C82.3665 49.5357 89.8732 69.9583 88.7014 95.2117C60.6947 118.402 30.5399 94.804 26.9094 75.0311C22.1995 59.8595 28.7821 39.7128 45.1233 32.1873ZM67.5169 53.4969C67.3192 52.8918 66.6681 52.5606 66.0628 52.7576C65.4575 52.9551 65.1265 53.6063 65.3235 54.2117C67.1734 59.886 64.6628 63.7457 61.4944 65.036C59.8785 65.6939 58.052 65.7114 56.3987 64.9676C54.7557 64.2282 53.1904 62.693 52.1829 60.0799C51.9534 59.4861 51.2858 59.1897 50.6917 59.4188C50.0977 59.648 49.8018 60.3159 50.0305 60.91C51.2254 64.0091 53.1809 66.049 55.4524 67.0711C57.7139 68.0885 60.1982 68.0548 62.3645 67.1727C66.7607 65.3824 69.7047 60.208 67.5169 53.4969ZM40.7424 57.8299C40.2038 57.7808 39.6628 57.8927 39.1878 58.1512C38.7128 58.4097 38.3248 58.8032 38.0735 59.2821C37.8222 59.7611 37.7184 60.3046 37.7756 60.8426C37.8524 61.5628 38.2117 62.223 38.7747 62.6785C39.3379 63.1341 40.0591 63.3479 40.7795 63.2723C41.3175 63.2158 41.8266 63.001 42.2424 62.6551C42.6583 62.3092 42.9619 61.8476 43.1155 61.3289C43.269 60.8102 43.2653 60.2576 43.1047 59.741C42.9442 59.2245 42.6346 58.7668 42.2141 58.4266C41.7936 58.0864 41.2811 57.879 40.7424 57.8299ZM74.3147 46.2235C73.7776 46.174 73.2381 46.2856 72.7639 46.5428C72.2896 46.8001 71.9021 47.1923 71.6506 47.6698C71.3993 48.1471 71.2948 48.6879 71.3508 49.2244C71.3881 49.5809 71.4954 49.927 71.6663 50.242C71.8371 50.557 72.0685 50.8357 72.3469 51.0614C72.6252 51.2868 72.945 51.4556 73.2883 51.5574C73.6319 51.6593 73.9925 51.6925 74.3489 51.6551C74.8855 51.5988 75.3939 51.3839 75.8088 51.0389C76.2235 50.6939 76.5266 50.2338 76.6799 49.7166C76.8333 49.1993 76.83 48.6481 76.6702 48.1326C76.5104 47.6174 76.2015 47.1608 75.7825 46.8211C75.3633 46.4814 74.852 46.2731 74.3147 46.2235Z" fill="#DCDFE6"/>
<path fill-rule="evenodd" clip-rule="evenodd" d="M26.237 40.4341L10.9297 33.7415L17.3513 24.3203L30.8666 35.1892L26.237 40.4341Z" fill="#DCDFE6"/>
<path fill-rule="evenodd" clip-rule="evenodd" d="M20.4639 53.4076L6.60973 46.9219L5.65625 60.3127L19.7459 59.3246L20.4639 53.4076Z" fill="#DCDFE6"/>
<path fill-rule="evenodd" clip-rule="evenodd" d="M21.2465 70.7734L0 72.2613L7.05919 83.9574L17.7887 76.5813L21.281 76.7134L21.2465 70.7734Z" fill="#DCDFE6"/>
<path fill-rule="evenodd" clip-rule="evenodd" d="M26.5552 89.8672L19.7487 89.9648L12.1094 92.7682L19.8348 100.443L28.7034 93.4978L26.5552 89.8672Z" fill="#DCDFE6"/>
<path fill-rule="evenodd" clip-rule="evenodd" d="M35.9415 99.9688L24.7812 111.992L35.7233 118.501L40.8468 104.059L35.9415 99.9688Z" fill="#DCDFE6"/>
<path fill-rule="evenodd" clip-rule="evenodd" d="M28.7422 15.6863L36.3585 10.9929L40.0174 10.7344L43.1535 20.4371L44.1472 23.7747L40.4022 27.0607L29.0466 20.0177L28.7422 15.6863Z" fill="#DCDFE6"/>
<path fill-rule="evenodd" clip-rule="evenodd" d="M54.6044 15.2061L53.9841 19.8707L60.3655 20.7497L59.86 0L46.9766 0.90191L54.6044 15.2061Z" fill="#DCDFE6"/>
<path fill-rule="evenodd" clip-rule="evenodd" d="M69.0078 5.22656L79.9498 6.35251L75.0618 18.7724L70.0819 20.6337L69.0078 5.22656Z" fill="#DCDFE6"/>
<path fill-rule="evenodd" clip-rule="evenodd" d="M91.0495 1.5625L104.68 8.63417L93.8927 19.7673L93.6974 16.918L85.7422 17.4809L91.0495 1.5625Z" fill="#DCDFE6"/>
<path fill-rule="evenodd" clip-rule="evenodd" d="M51.9874 111.109L48.2597 116.808L46.3125 124.713L56.9961 122.599L56.1977 111.362L51.9874 111.109Z" fill="#DCDFE6"/>
<path fill-rule="evenodd" clip-rule="evenodd" d="M65.997 110.481L65.75 126.882L78.2314 124.395L72.3784 110.234L65.997 110.481Z" fill="#DCDFE6"/>
<path fill-rule="evenodd" clip-rule="evenodd" d="M80.2344 107.114L80.803 113.899L84.1344 121.327L91.2511 113.083L83.7094 104.719L80.2344 107.114Z" fill="#DCDFE6"/>
<path fill-rule="evenodd" clip-rule="evenodd" d="M125.259 108.442C120.815 102.318 115.756 96.6551 110.159 91.5397L110.056 91.5716V109.112C110.153 111.665 109.514 112.444 107.85 112.265C104.135 113.445 100.102 113.145 96.6074 111.429C95.0851 111.397 94.0273 110.389 94.2724 108.18C95.1948 83.3821 92.9824 72.1735 91.0473 52.7244C88.5124 43.5391 108.772 43.5391 110.075 49.7307C111.636 52.9648 111.905 58.0712 110.882 65.05C113.978 57.8563 116.584 53.5605 120.125 50.4711C122.705 47.0881 133.767 45.9456 138.185 46.6413C139.649 46.5966 139.933 47.42 139.037 49.1243C135.033 59.7815 130.104 70.0755 124.304 79.8906C127.6 86.5609 133.935 93.9908 141.223 104.631C142.397 106.342 142.275 108.155 140.372 108.423C137.405 110.061 133.75 110.699 129.407 110.338C127.717 110.899 126.678 110.197 125.259 108.442Z" fill="#DCDFE6"/>
<path fill-rule="evenodd" clip-rule="evenodd" d="M157.24 46.3871C154.307 44.2041 151.269 43.4572 148.125 44.1466C141.244 55.9064 135.248 68.1525 130.188 80.7853L140.675 96.4876L142.301 93.0025C148.852 94.6333 155.604 95.3318 162.355 95.077C162.707 99.5834 164.341 104.558 167.257 110.001C174.137 111.107 179.727 110.445 184.027 108.015C174.029 81.4874 165.1 60.9447 157.24 46.3871ZM144.72 85.962C148.311 80.1215 151.129 73.8488 153.105 67.2979C154.997 75.2725 157.083 81.3491 159.362 85.5279C154.515 84.5344 149.502 84.6743 144.72 85.9364V85.962Z" fill="#DCDFE6"/>
<path fill-rule="evenodd" clip-rule="evenodd" d="M208.547 85.4211L209.611 85.236C214.397 84.5147 220.667 82.5168 221.957 78.853C224.363 74.0784 223.718 66.7252 223.382 55.791C222.873 48.1314 206.341 44.9398 174.148 47.0207C172.414 54.831 172.099 62.8845 173.219 70.8039L189.99 110.028L195.601 110.258L191.957 89.0531C198.717 98.883 206.128 106.858 214.191 112.977C217.506 111.675 220.983 109.226 224.621 105.63C218.527 95.5787 213.169 88.8424 208.547 85.4211ZM207.321 67.3507C207.244 73.3465 201.783 76.4849 190.938 76.7657C189.648 71.3337 190.067 63.2911 189.648 59.0719C196.098 59.1996 200.828 59.8102 203.838 60.9038C206.62 61.6868 207.781 63.8358 207.321 67.3507Z" fill="#DCDFE6"/>
<path fill-rule="evenodd" clip-rule="evenodd" d="M90.3676 37.662L90.5744 20.4453L85.7266 21.037L86.5881 42.7633L97.2085 41.8901L97.1626 37.5471L90.3676 37.662Z" fill="#DCDFE6"/>
<path fill-rule="evenodd" clip-rule="evenodd" d="M110.989 21.9596C110.541 21.2541 109.857 20.7307 109.059 20.4832C108.029 20.2823 106.984 20.1651 105.934 20.1328C104.131 20.1328 102.942 20.5158 102.367 21.2817C101.954 21.8103 101.487 23.6696 100.966 26.8598C100.4 30.0739 100.093 33.3281 100.047 36.5912C100.047 39.0882 100.474 40.5819 101.328 41.0721C102.859 42.0525 105.203 42.627 108.358 42.7955C111.161 42.7419 112.814 41.7385 113.315 39.7853C113.607 38.1673 113.721 36.5221 113.654 34.8793C113.57 29.7858 112.681 25.4792 110.989 21.9596ZM109.605 36.2408C109.432 37.2174 108.779 37.7919 107.646 37.9642C106.168 38.1289 105.069 37.8512 104.349 37.1312C103.87 36.6755 103.905 34.0674 104.452 29.307C104.579 27.9684 104.825 26.6438 105.188 25.349C105.334 25.1118 105.546 24.9225 105.798 24.8041C106.05 24.6857 106.331 24.6435 106.606 24.6826C107.023 24.7108 107.436 24.7859 107.836 24.9066C108.195 25.0897 108.475 25.3983 108.622 25.7741C109.362 28.2372 109.732 30.7966 109.72 33.3685C109.749 34.3274 109.711 35.2873 109.605 36.2408Z" fill="#DCDFE6"/>
<path fill-rule="evenodd" clip-rule="evenodd" d="M122.697 28.0291C120.439 26.9732 119.423 25.9944 119.652 25.1046C119.882 23.9538 120.673 23.3606 122.025 23.325C122.504 23.3749 122.95 23.6025 123.279 23.9657C123.609 24.3289 123.8 24.803 123.817 25.3004C123.891 25.8105 123.943 26.4334 123.983 27.1749L127.194 26.9613C127.392 25.1538 127.342 23.3265 127.045 21.5336C126.52 19.5325 124.998 18.5558 122.478 18.6032C120.024 18.8721 118.128 19.5365 116.792 20.5964C116.053 21.1302 115.726 22.8821 115.81 25.852C115.925 28.3355 118.109 30.5402 122.364 32.4661C123.895 33.0158 124.562 34.0776 124.362 35.6516C124.328 35.8602 124.24 36.0555 124.107 36.2172C123.975 36.3789 123.803 36.5011 123.61 36.5711C123.019 36.8125 122.383 36.9119 121.749 36.8617C120.847 36.8617 120.279 36.6778 120.026 36.227C119.467 35.2304 119.545 34.0974 120.261 32.828L116.815 32.4424C116.289 33.632 116.021 34.9254 116.028 36.2329C116.031 37.7817 116.496 39.2919 117.361 40.5573C117.791 41.198 119.084 41.5479 121.226 41.6132C122.495 41.6298 123.76 41.4601 124.983 41.109C125.393 41.0109 125.776 40.8165 126.102 40.5407C126.427 40.265 126.687 39.9155 126.861 39.5192C129.208 33.7336 127.82 29.9036 122.697 28.0291Z" fill="#DCDFE6"/>
<path fill-rule="evenodd" clip-rule="evenodd" d="M234.443 19.3918L228.699 19.1562L228.125 41.9683C234.558 41.6274 238.158 40.3885 238.923 38.2515C239.578 36.5166 240.153 32.2291 240.647 25.3892C240.8 21.5977 238.732 19.5986 234.443 19.3918ZM236.66 27.3366C236.208 33.2345 235.588 36.2274 234.799 36.3155L232.714 36.9474L233.18 24.4528C234.504 24.3839 235.475 24.5639 236.092 24.9928C236.655 25.3107 236.844 26.092 236.66 27.3366Z" fill="#DCDFE6"/>
<path fill-rule="evenodd" clip-rule="evenodd" d="M254.048 25.7086L254.077 21.5724L242.974 20.4062L241.578 41.8798L253.807 41.8108L253.663 37.7436L246.311 37.1232L246.397 34.6185L251.791 34.4692L251.934 30.3502L246.564 29.9941L246.719 25.4558L254.048 25.7086Z" fill="#DCDFE6"/>
<path fill-rule="evenodd" clip-rule="evenodd" d="M153.215 36.9458L153.169 34.3148L158.787 33.8609L158.712 29.5237L153.089 29.4433L153.002 24.6637L158.172 24.612C158.101 23.0562 158.307 21.5 158.781 20.0163L152.262 19.7578C152.181 23.0208 151.825 25.5369 151.176 27.3063C151.028 27.9919 150.73 28.6361 150.303 29.1924C149.875 29.7487 149.33 30.2033 148.706 30.5233L148.562 42.2137L161.814 41.8058C161.003 40.415 160.515 38.8604 160.383 37.256L153.215 36.9458Z" fill="#DCDFE6"/>
<path fill-rule="evenodd" clip-rule="evenodd" d="M170.256 17.0332C166.77 17.332 164.202 18.05 162.571 19.1875C161.658 19.7619 161.25 21.4336 161.33 24.1911C161.507 27.7861 161.972 31.3612 162.72 34.8819C163.417 38.3823 164.003 40.4159 164.478 40.9827C165.136 41.8023 166.463 42.1852 168.458 42.1316L169.314 42.034L169.745 44.7397L173.507 43.8952L172.577 41.2929C173.153 40.9626 173.63 40.4822 173.955 39.9027C174.296 39.1278 174.597 38.3359 174.857 37.5301C174.562 31.3244 174.69 25.1057 175.242 18.9175C174.33 17.6192 172.669 16.9911 170.256 17.0332ZM171.198 35.7551C171.113 35.9876 170.983 36.2006 170.813 36.3812L170.584 35.7436L168.361 35.9331L168.533 37.0189C168.308 37.0106 168.088 36.9458 167.894 36.8303C167.701 36.7149 167.539 36.5525 167.424 36.3582C167.241 36.025 166.921 34.5736 166.465 32.0038C165.699 26.7877 165.562 23.9153 166.052 23.3868C166.818 22.5672 168.018 22.2187 169.653 22.3413C170.909 22.4906 171.652 23.1053 171.882 24.1853C172.035 25.2278 172.113 26.2798 172.117 27.3334C172.228 30.1706 171.918 33.0086 171.198 35.7551Z" fill="#DCDFE6"/>
<path fill-rule="evenodd" clip-rule="evenodd" d="M201.858 36.2427L201.812 33.6117L207.43 33.1578L207.355 28.8149L201.732 28.7402L201.646 23.9606L206.315 23.8687C206.225 22.363 206.374 20.8525 206.758 19.3936L198.234 18.8594V20.2841C200.106 32.8131 199.957 41.0854 197.619 41.1429L197.234 42.4124L207.901 40.8384C207.067 39.5159 206.614 37.9895 206.591 36.4265L201.858 36.2427Z" fill="#DCDFE6"/>
<path fill-rule="evenodd" clip-rule="evenodd" d="M216.988 26.7476C214.399 25.568 213.237 24.4861 213.501 23.5018C213.76 22.2208 214.65 21.5602 216.213 21.5142C217.392 21.675 218.077 22.4046 218.269 23.7029C218.349 24.2774 218.418 24.961 218.458 25.7825L222.14 25.547C222.364 23.5418 222.304 21.515 221.962 19.5266C221.365 17.3091 219.622 16.2253 216.735 16.2751C213.921 16.5681 211.755 17.3091 210.222 18.4868C209.375 19.0766 208.993 21.0202 209.073 24.3176C209.207 27.075 211.709 29.5203 216.58 31.6535C218.349 32.2701 219.115 33.4478 218.878 35.1865C218.844 35.4195 218.746 35.6386 218.595 35.8192C218.444 35.9998 218.245 36.1347 218.022 36.209C217.343 36.4761 216.613 36.586 215.885 36.5307C214.857 36.5594 214.202 36.3239 213.932 35.8299C213.3 34.7212 213.358 33.4631 214.208 32.0499L210.245 31.6248C209.64 32.9439 209.331 34.3789 209.337 35.8299C209.342 37.5486 209.878 39.224 210.871 40.6267C211.365 41.339 212.841 41.722 215.299 41.7756C216.751 41.7891 218.198 41.5957 219.596 41.2011C220.067 41.0945 220.507 40.8796 220.881 40.5735C221.255 40.2674 221.552 39.8785 221.75 39.4375C224.438 33.0533 222.851 28.8233 216.988 26.7476Z" fill="#DCDFE6"/>
<path fill-rule="evenodd" clip-rule="evenodd" d="M188.703 20.1928C190.074 27.6877 190.487 32.9326 189.944 35.9274C189.874 36.4033 189.649 36.8429 189.304 37.1783C188.96 37.5137 188.514 37.7262 188.037 37.7829C187.305 37.9577 186.54 37.9259 185.825 37.691C185.033 37.4498 184.527 36.7259 184.315 35.5311C183.932 32.877 184.098 27.3239 184.814 18.8716L178.772 18.6016C178.006 27.9309 177.973 34.5296 178.674 38.3976C179.107 40.4925 180.246 41.6951 182.092 42.0053C185.821 42.6793 188.693 42.8325 190.707 42.4648C194.104 41.7219 195.839 40.1995 195.911 37.8978C196.066 31.7346 195.643 25.5705 194.648 19.4862L188.703 20.1928Z" fill="#DCDFE6"/>
<path fill-rule="evenodd" clip-rule="evenodd" d="M150.337 12.2938C150.089 10.0227 146.592 8.79719 139.849 8.61719L130.992 8.75507L132.79 40.6092L139.108 41.4651L138.884 30.0447L145.806 27.7067C146.669 27.5136 147.458 27.078 148.082 26.4511C148.706 25.8241 149.138 25.032 149.327 24.168C150.253 21.6901 150.59 17.732 150.337 12.2938ZM144.496 18.6761C144.312 21.6097 143.546 23.2507 142.198 23.5992L138.867 24.616L138.654 15.011C140.826 15.0512 142.405 15.3097 143.399 15.798C144.326 16.1427 144.691 17.102 144.496 18.6761Z" fill="#DCDFE6"/>
<path d="M208.553 24.679C208.654 24.679 208.74 24.7132 208.811 24.7815C208.881 24.849 208.916 24.9325 208.916 25.0323C208.916 25.1302 208.881 25.2128 208.811 25.2802C208.74 25.3486 208.654 25.3827 208.553 25.3827C208.452 25.3827 208.365 25.3486 208.294 25.2802C208.224 25.2128 208.189 25.1302 208.189 25.0323C208.189 24.9325 208.224 24.849 208.294 24.7815C208.365 24.7132 208.452 24.679 208.553 24.679ZM208.553 25.3038C208.631 25.3038 208.697 25.2779 208.751 25.2262C208.804 25.1754 208.83 25.1108 208.83 25.0323C208.83 24.9538 208.804 24.8882 208.751 24.8356C208.697 24.7839 208.631 24.758 208.553 24.758C208.475 24.758 208.409 24.7839 208.355 24.8356C208.302 24.8882 208.275 24.9538 208.275 25.0323C208.275 25.1108 208.302 25.1754 208.355 25.2262C208.409 25.2779 208.475 25.3038 208.553 25.3038ZM208.703 25.114L208.706 25.1625C208.708 25.1837 208.713 25.1985 208.721 25.2068H208.621C208.615 25.1948 208.611 25.18 208.61 25.1625L208.607 25.1251C208.606 25.1075 208.603 25.096 208.596 25.0905C208.591 25.084 208.58 25.0808 208.564 25.0808H208.505V25.2068H208.411V24.8508H208.578C208.62 24.8508 208.652 24.86 208.675 24.8785C208.698 24.897 208.71 24.9228 208.71 24.9561C208.71 24.993 208.693 25.0198 208.66 25.0364C208.688 25.0494 208.702 25.0752 208.703 25.114ZM208.505 24.9298V25.0073H208.569C208.597 25.0073 208.611 24.9944 208.611 24.9686C208.611 24.9427 208.597 24.9298 208.567 24.9298H208.505Z" fill="#DCDFE6"/>
<path d="M248.985 66.1825C242.127 66.3936 238.196 66.5409 228.273 67.8034C229.678 85.0928 231.34 94.2862 232.311 111.027L249.863 107.785L248.985 66.1825Z" fill="#DCDFE6"/>
<path d="M248.985 48.8931L228.273 47.8125L230.38 62.9408H247.581L248.985 48.8931Z" fill="#DCDFE6"/>
</svg>
