<svg width="301" height="93" viewBox="0 0 301 93" fill="none" xmlns="http://www.w3.org/2000/svg">
<path d="M84.2461 61.033V14.3549H76.2969V12.4335H103.987C107.604 12.4335 110.568 12.7475 112.878 13.3754C115.214 14.0033 117.223 15.3093 118.906 17.2935C120.589 19.2525 121.43 21.5129 121.43 24.0748C121.43 27.2645 120.2 29.8515 117.738 31.8356C115.277 33.8198 111.108 35.3142 105.231 36.3188V36.5072C109.45 37.336 112.903 38.9435 115.591 41.3295C118.303 43.7155 119.66 47.7592 119.66 53.4605C119.66 56.7256 120.036 58.8228 120.79 59.7521C121.568 60.6562 122.636 61.1083 123.992 61.1083C124.871 61.1083 125.926 60.9325 127.157 60.5809V62.4269C124.972 63.1804 122.862 63.5571 120.828 63.5571C116.683 63.5571 113.757 62.4018 112.049 60.0911C110.342 57.7804 109.513 55.52 109.563 53.3098L109.714 46.9052C109.714 44.6699 108.998 42.4722 107.566 40.3123C106.16 38.1272 102.945 37.0346 97.9217 37.0346H93.2125V61.033H101.162V62.9543H76.2969V61.033H84.2461ZM93.2125 14.3549V35.264H99.9938C102.907 35.264 105.13 35.0756 106.662 34.6988C108.194 34.297 109.412 33.2798 110.316 31.6473C111.246 29.9896 111.71 27.365 111.71 23.7734C111.71 20.8348 111.246 18.6874 110.316 17.3311C109.387 15.9749 108.257 15.146 106.926 14.8447C105.62 14.5181 103.899 14.3549 101.764 14.3549H93.2125Z" fill="#DCDFE6"/>
<path d="M163.699 47.2066H147.65L142.489 61.033H151.832V62.9543H133.522V61.033H140.492L158.914 11.2656H160.082L177.751 61.033H184.533V62.9543H160.459V61.033H168.634L163.699 47.2066ZM148.366 45.2852H163.021L155.901 25.0543H155.75L148.366 45.2852Z" fill="#DCDFE6"/>
<path d="M200.58 61.033V14.3549H192.631V12.4335H220.322C223.938 12.4335 226.902 12.7475 229.213 13.3754C231.548 14.0033 233.558 15.3093 235.24 17.2935C236.923 19.2525 237.765 21.5129 237.765 24.0748C237.765 27.2645 236.534 29.8515 234.073 31.8356C231.611 33.8198 227.442 35.3142 221.565 36.3188V36.5072C225.784 37.336 229.238 38.9435 231.925 41.3295C234.638 43.7155 235.994 47.7592 235.994 53.4605C235.994 56.7256 236.371 58.8228 237.124 59.7521C237.903 60.6562 238.97 61.1083 240.326 61.1083C241.205 61.1083 242.26 60.9325 243.491 60.5809V62.4269C241.306 63.1804 239.196 63.5571 237.162 63.5571C233.018 63.5571 230.092 62.4018 228.384 60.0911C226.676 57.7804 225.847 55.52 225.897 53.3098L226.048 46.9052C226.048 44.6699 225.332 42.4722 223.901 40.3123C222.494 38.1272 219.279 37.0346 214.256 37.0346H209.547V61.033H217.496V62.9543H192.631V61.033H200.58ZM209.547 14.3549V35.264H216.328C219.242 35.264 221.464 35.0756 222.996 34.6988C224.528 34.297 225.747 33.2798 226.651 31.6473C227.58 29.9896 228.045 27.365 228.045 23.7734C228.045 20.8348 227.58 18.6874 226.651 17.3311C225.721 15.9749 224.591 15.146 223.26 14.8447C221.954 14.5181 220.234 14.3549 218.099 14.3549H209.547Z" fill="#DCDFE6"/>
<path d="M280.033 47.2066H263.984L258.823 61.033H268.166V62.9543H249.856V61.033H256.826L275.249 11.2656H276.417L294.086 61.033H300.867V62.9543H276.793V61.033H284.969L280.033 47.2066ZM264.7 45.2852H279.355L272.235 25.0543H272.084L264.7 45.2852Z" fill="#DCDFE6"/>
<path d="M91.1201 90.158L89.9021 86.803H83.1707L81.9526 90.158H79.8371L85.4145 75.1995H87.6583L93.2357 90.158H91.1201ZM83.8545 84.9439H89.2182L86.5257 77.5715L83.8545 84.9439Z" fill="#DCDFE6"/>
<path d="M110.6 82.401C111.284 82.7286 111.825 83.1987 112.224 83.8113C112.637 84.4239 112.844 85.1291 112.844 85.9269C112.844 87.1236 112.423 88.1279 111.583 88.94C110.742 89.752 109.717 90.158 108.506 90.158H102.052V75.1995H108.036C109.204 75.1995 110.194 75.5912 111.006 76.3748C111.818 77.1583 112.224 78.1271 112.224 79.281C112.224 80.6059 111.683 81.6459 110.6 82.401ZM108.036 77.0586H104.04V81.6317H108.036C108.662 81.6317 109.19 81.4108 109.617 80.9692C110.044 80.5276 110.258 79.9862 110.258 79.3451C110.258 78.7183 110.037 78.1841 109.596 77.7424C109.168 77.2865 108.648 77.0586 108.036 77.0586ZM108.506 88.2989C109.175 88.2989 109.738 88.0638 110.194 87.5937C110.65 87.1236 110.878 86.5466 110.878 85.8628C110.878 85.1932 110.643 84.6234 110.173 84.1532C109.717 83.6831 109.161 83.4481 108.506 83.4481H104.04V88.2989H108.506Z" fill="#DCDFE6"/>
<path d="M134.688 88.1707C133.192 89.6808 131.362 90.4358 129.196 90.4358C127.031 90.4358 125.2 89.6808 123.704 88.1707C122.209 86.6606 121.461 84.8299 121.461 82.6788C121.461 80.5133 122.209 78.6827 123.704 77.1868C125.2 75.6767 127.031 74.9217 129.196 74.9217C131.362 74.9217 133.192 75.6767 134.688 77.1868C136.198 78.6827 136.953 80.5133 136.953 82.6788C136.953 84.8299 136.198 86.6606 134.688 88.1707ZM125.072 86.8244C126.183 87.9356 127.558 88.4912 129.196 88.4912C130.835 88.4912 132.202 87.9356 133.299 86.8244C134.41 85.699 134.966 84.3171 134.966 82.6788C134.966 81.0262 134.41 79.6443 133.299 78.5331C132.202 77.4076 130.835 76.8449 129.196 76.8449C127.558 76.8449 126.183 77.4076 125.072 78.5331C123.975 79.6443 123.427 81.0262 123.427 82.6788C123.427 84.3171 123.975 85.699 125.072 86.8244Z" fill="#DCDFE6"/>
<path d="M160.819 82.7429V83.6404C160.819 85.5921 160.149 87.2162 158.81 88.5126C157.471 89.7948 155.697 90.4358 153.489 90.4358C151.21 90.4358 149.322 89.6879 147.826 88.1921C146.345 86.682 145.604 84.8442 145.604 82.6788C145.604 80.5133 146.345 78.6827 147.826 77.1868C149.322 75.6767 151.195 74.9217 153.446 74.9217C154.828 74.9217 156.096 75.2565 157.25 75.926C158.404 76.5814 159.294 77.4504 159.921 78.5331L158.212 79.5375C157.784 78.7254 157.136 78.0772 156.267 77.5928C155.412 77.0942 154.465 76.8449 153.425 76.8449C151.715 76.8449 150.312 77.4076 149.215 78.5331C148.118 79.6443 147.57 81.0262 147.57 82.6788C147.57 84.3313 148.118 85.7132 149.215 86.8244C150.326 87.9356 151.758 88.4912 153.51 88.4912C155.006 88.4912 156.217 88.1279 157.143 87.4014C158.069 86.6606 158.632 85.7061 158.831 84.5379H153.34V82.7429H160.819Z" fill="#DCDFE6"/>
<path d="M179.596 90.158L178.378 86.803H171.647L170.429 90.158H168.313L173.89 75.1995H176.134L181.712 90.158H179.596ZM172.33 84.9439H177.694L175.002 77.5715L172.33 84.9439Z" fill="#DCDFE6"/>
<path d="M196.362 75.1995C198.399 75.1995 200.087 75.926 201.426 77.3792C202.78 78.818 203.457 80.5846 203.457 82.6788C203.457 84.7729 202.78 86.5466 201.426 87.9997C200.087 89.4386 198.399 90.158 196.362 90.158H190.528V75.1995H196.362ZM196.362 88.2775C197.886 88.2775 199.133 87.7433 200.102 86.6748C201.07 85.6064 201.555 84.2743 201.555 82.6788C201.555 81.0832 201.07 79.7512 200.102 78.6827C199.133 77.6142 197.886 77.08 196.362 77.08H192.515V88.2775H196.362Z" fill="#DCDFE6"/>
<path d="M225.355 88.1707C223.859 89.6808 222.029 90.4358 219.863 90.4358C217.698 90.4358 215.867 89.6808 214.371 88.1707C212.876 86.6606 212.128 84.8299 212.128 82.6788C212.128 80.5133 212.876 78.6827 214.371 77.1868C215.867 75.6767 217.698 74.9217 219.863 74.9217C222.029 74.9217 223.859 75.6767 225.355 77.1868C226.865 78.6827 227.621 80.5133 227.621 82.6788C227.621 84.8299 226.865 86.6606 225.355 88.1707ZM215.739 86.8244C216.85 87.9356 218.225 88.4912 219.863 88.4912C221.502 88.4912 222.869 87.9356 223.966 86.8244C225.078 85.699 225.633 84.3171 225.633 82.6788C225.633 81.0262 225.078 79.6443 223.966 78.5331C222.869 77.4076 221.502 76.8449 219.863 76.8449C218.225 76.8449 216.85 77.4076 215.739 78.5331C214.642 79.6443 214.094 81.0262 214.094 82.6788C214.094 84.3171 214.642 85.699 215.739 86.8244Z" fill="#DCDFE6"/>
<path d="M241.348 90.4358C239.952 90.4358 238.756 90.1082 237.758 89.4528C236.775 88.7975 236.085 87.9 235.686 86.7603L237.395 85.7773C237.979 87.5866 239.311 88.4912 241.391 88.4912C242.417 88.4912 243.201 88.2846 243.742 87.8715C244.283 87.4441 244.554 86.8814 244.554 86.1833C244.554 85.471 244.283 84.9368 243.742 84.5806C243.201 84.2245 242.296 83.8469 241.028 83.4481C240.401 83.2486 239.924 83.0919 239.596 82.9779C239.269 82.8497 238.855 82.6645 238.357 82.4223C237.872 82.1659 237.509 81.9095 237.267 81.653C237.025 81.3823 236.804 81.0333 236.604 80.6059C236.419 80.1785 236.327 79.6942 236.327 79.1528C236.327 77.8564 236.783 76.8307 237.694 76.0756C238.606 75.3063 239.717 74.9217 241.028 74.9217C242.21 74.9217 243.236 75.2208 244.105 75.8192C244.988 76.4175 245.651 77.2082 246.092 78.1912L244.426 79.1528C243.785 77.6142 242.652 76.8449 241.028 76.8449C240.216 76.8449 239.561 77.0444 239.062 77.4433C238.563 77.8422 238.314 78.3835 238.314 79.0673C238.314 79.7227 238.549 80.2213 239.019 80.5632C239.489 80.9051 240.301 81.2613 241.455 81.6317C241.868 81.7599 242.161 81.8525 242.331 81.9095C242.502 81.9664 242.766 82.0662 243.122 82.2086C243.493 82.3511 243.763 82.4651 243.934 82.5505C244.105 82.636 244.333 82.7571 244.618 82.9138C244.917 83.0705 245.138 83.2201 245.28 83.3626C245.423 83.505 245.587 83.6831 245.772 83.8968C245.971 84.0963 246.114 84.3028 246.199 84.5165C246.285 84.7302 246.356 84.9795 246.413 85.2645C246.484 85.5351 246.52 85.8272 246.52 86.1406C246.52 87.4512 246.043 88.4984 245.088 89.2819C244.134 90.0512 242.887 90.4358 241.348 90.4358Z" fill="#DCDFE6"/>
<g clip-path="url(#clip0_2545_13005)">
<path fill-rule="evenodd" clip-rule="evenodd" d="M17.1814 87.7296H27.4591V91.2556H0V87.7296H12.7947L42.9915 0H45.8592L71.503 72.2371H54.7917L38.1817 25.3074H37.9068L17.1814 87.7296Z" fill="#DCDFE6"/>
<path d="M72.8521 75.0938C71.2699 80.0412 68.1565 84.3579 63.9613 87.4207C59.7661 90.4836 54.7062 92.1341 49.512 92.1341C44.3177 92.1341 39.2578 90.4836 35.0626 87.4207C30.8674 84.3579 27.7541 80.0412 26.1719 75.0938H72.8521Z" fill="#DCDFE6"/>
<path fill-rule="evenodd" clip-rule="evenodd" d="M39.1092 36.582L26.875 72.2757H30.1695L40.6172 40.9615L39.1092 36.582Z" fill="#DCDFE6"/>
</g>
<defs>
<clipPath id="clip0_2545_13005">
<rect width="72.8519" height="92.1344" fill="white"/>
</clipPath>
</defs>
</svg>
