<svg width="253" height="108" viewBox="0 0 253 108" fill="none" xmlns="http://www.w3.org/2000/svg">
<path d="M230.128 33.2682H227.135L229.031 22.4699H225.109L225.537 20.0352H236.391L235.963 22.4699H232.023L230.128 33.2682Z" fill="#DCDFE6"/>
<path d="M249.897 33.2682H247.053L248.912 22.7115L243.689 33.2682H241.18L239.675 22.7115L237.835 33.2682H234.991L237.314 20.0352H241.905L243.132 28.7147L247.406 20.0352H252.22L249.897 33.2682Z" fill="#DCDFE6"/>
<path d="M107.984 46.9451C107.852 47.7051 107.193 48.2602 106.422 48.2602H103.176C102.192 48.2602 101.445 47.3714 101.615 46.4013L106.08 20.9703C106.213 20.2123 106.872 19.6595 107.641 19.6595H125.873C126.858 19.6595 127.605 20.5484 127.434 21.5184L127.067 23.6109C126.934 24.3689 126.276 24.9217 125.506 24.9217H113.148C112.377 24.9217 111.717 25.4766 111.586 26.2363L111.05 29.333C110.882 30.302 111.628 31.1882 112.612 31.1882H122.561C123.552 31.1882 124.3 32.0876 124.119 33.0621L123.783 34.8734C123.644 35.6244 122.989 36.1692 122.225 36.1692H111.18C110.409 36.1692 109.749 36.7243 109.618 37.4842L107.984 46.9451Z" fill="#DCDFE6"/>
<path d="M144.691 46.9378C144.563 47.7011 143.902 48.2602 143.128 48.2602H126.593C125.608 48.2602 124.862 47.3714 125.032 46.4013L129.497 20.9703C129.63 20.2123 130.288 19.6595 131.058 19.6595H134.304C135.289 19.6595 136.036 20.5502 135.864 21.521L132.387 41.1365C132.215 42.1073 132.961 42.998 133.947 42.998H143.479C144.46 42.998 145.205 43.8787 145.042 44.8453L144.691 46.9378Z" fill="#DCDFE6"/>
<path d="M158.605 48.6619C150.732 48.6619 145.952 44.0424 145.952 37.0529C145.952 26.7293 152.258 19.2578 162.702 19.2578C170.495 19.2578 175.356 23.8773 175.356 30.8668C175.356 41.1904 169.371 48.6619 158.605 48.6619ZM159.047 43.3997C165.394 43.3997 168.888 37.8563 168.888 31.3488C168.888 27.0909 166.237 24.52 162.261 24.52C155.914 24.52 152.419 30.0634 152.419 36.5709C152.419 40.8288 155.07 43.3997 159.047 43.3997Z" fill="#DCDFE6"/>
<path d="M204.928 47.3301C204.671 47.8965 204.107 48.2602 203.485 48.2602H198.364C197.527 48.2602 196.834 47.6085 196.783 46.7726L196.092 35.5356C195.988 33.8565 193.685 33.4738 193.044 35.0293L187.999 47.2789C187.754 47.8727 187.176 48.2602 186.534 48.2602H181.112C180.299 48.2602 179.618 47.6455 179.535 46.837L176.928 21.406C176.832 20.4717 177.565 19.6595 178.505 19.6595H182.096C182.93 19.6595 183.621 20.3057 183.678 21.1377L184.53 33.7801C184.643 35.4503 186.931 35.8279 187.575 34.2824L193.254 20.6354C193.5 20.0445 194.077 19.6595 194.717 19.6595H198.801C199.637 19.6595 200.33 20.3092 200.383 21.1438L201.186 33.77C201.292 35.4411 203.58 35.827 204.228 34.2832L209.963 20.6306C210.21 20.0423 210.786 19.6595 211.424 19.6595H215.022C216.174 19.6595 216.941 20.8499 216.465 21.8991L204.928 47.3301Z" fill="#DCDFE6"/>
<path d="M112.737 87.4909C105.467 87.4909 101.651 84.5585 101.651 79.0955C101.651 78.3431 102.307 77.7699 103.059 77.7699H106.372C107.248 77.7699 107.924 78.4916 108.125 79.3433C108.67 81.6458 110.525 82.6705 113.46 82.6705C117.156 82.6705 119.566 81.0236 119.566 78.4929C119.566 76.7255 118.401 75.8417 114.826 75.3195L111.572 74.8375C106.752 74.1546 104.342 71.9453 104.342 67.848C104.342 61.6619 109.122 58.0868 116.835 58.0868C123.543 58.0868 127.239 61.3405 127.239 66.3617C127.239 66.9571 126.748 67.4061 126.153 67.4061H122.758C121.883 67.4061 121.211 66.6793 120.961 65.8405C120.411 63.9994 118.795 62.9072 116.112 62.9072C113.019 62.9072 110.809 64.3533 110.809 66.8839C110.809 68.6112 111.653 69.3343 114.786 69.7761L118.08 70.218C122.94 70.9411 126.033 73.3111 126.033 77.6494C126.033 83.7551 121.494 87.4909 112.737 87.4909Z" fill="#DCDFE6"/>
<path d="M139.331 85.7784C139.198 86.5364 138.54 87.0892 137.77 87.0892H134.521C133.536 87.0892 132.79 86.2004 132.96 85.2303L136.405 65.6096C136.575 64.6396 135.829 63.7507 134.844 63.7507H130.143C129.158 63.7507 128.411 62.8619 128.582 61.8918L128.949 59.7993C129.082 59.0413 129.74 58.4885 130.51 58.4885H150.751C151.736 58.4885 152.482 59.3774 152.312 60.3474L151.944 62.4399C151.811 63.1979 151.153 63.7507 150.383 63.7507H144.529C143.76 63.7507 143.101 64.3036 142.968 65.0615L139.331 85.7784Z" fill="#DCDFE6"/>
<path d="M176.567 65.2772C176.567 67.5082 176.146 69.1761 175.306 70.4502C174.402 71.8203 173.875 76.3501 173.949 77.9899C173.953 78.0893 173.955 78.19 173.955 78.2921C173.955 78.7339 173.915 79.216 173.835 79.7382L173.072 84.197C172.951 84.8799 172.911 85.5628 172.911 86.085C172.911 86.5915 172.487 87.0892 171.981 87.0892H167.907C167.225 87.0892 166.594 86.6542 166.518 85.9762C166.496 85.7827 166.484 85.5784 166.484 85.3619C166.484 85.0004 166.524 84.6389 166.604 84.197L167.368 79.9792C167.448 79.4972 167.488 79.0151 167.488 78.6134C167.488 76.605 166.243 75.9221 163.833 75.9221H159.343C158.572 75.9221 157.912 76.4773 157.781 77.2373L156.307 85.774C156.176 86.534 155.517 87.0892 154.745 87.0892H151.5C150.515 87.0892 149.769 86.2004 149.939 85.2303L154.404 59.7993C154.537 59.0413 155.195 58.4885 155.965 58.4885H167.528C173.393 58.4885 176.567 61.3807 176.567 65.2772ZM170.059 66.2814C170.059 64.0721 168.533 63.3088 165.279 63.3088H161.582C160.815 63.3088 160.159 63.8577 160.023 64.6123L159.188 69.2355C159.013 70.2077 159.76 71.1017 160.748 71.1017H164.917C168.533 71.1017 170.059 69.495 170.059 66.2814Z" fill="#DCDFE6"/>
<path d="M182.512 85.7784C182.379 86.5364 181.72 87.0892 180.951 87.0892H177.702C176.717 87.0892 175.971 86.2004 176.141 85.2303L180.606 59.7993C180.739 59.0413 181.397 58.4885 182.167 58.4885H185.416C186.401 58.4885 187.147 59.3774 186.977 60.3474L182.512 85.7784Z" fill="#DCDFE6"/>
<path d="M214.697 69.6958C214.697 80.2202 209.153 87.0892 197.986 87.0892H187.702C186.717 87.0892 185.971 86.2004 186.141 85.2303L190.606 59.7993C190.739 59.0413 191.397 58.4885 192.167 58.4885H201.963C210.118 58.4885 214.697 62.5055 214.697 69.6958ZM208.23 70.1778C208.23 65.9199 205.739 63.5499 201.883 63.5499H197.71C196.94 63.5499 196.282 64.1023 196.149 64.8599L193.453 80.1681C193.282 81.1384 194.029 82.0278 195.014 82.0278H198.75C204.976 82.0278 208.23 76.6853 208.23 70.1778Z" fill="#DCDFE6"/>
<path d="M236.082 85.7668C235.954 86.5301 235.293 87.0892 234.519 87.0892H216.297C215.312 87.0892 214.566 86.2004 214.736 85.2303L219.201 59.7993C219.334 59.0413 219.992 58.4885 220.762 58.4885H238.994C239.979 58.4885 240.725 59.3774 240.555 60.3474L240.188 62.4399C240.054 63.1979 239.396 63.7507 238.627 63.7507H226.268C225.497 63.7507 224.838 64.3056 224.707 65.0653L224.171 68.162C224.003 69.131 224.749 70.0172 225.732 70.0172H235.682C236.673 70.0172 237.421 70.9166 237.24 71.891L236.904 73.7024C236.765 74.4534 236.109 74.9982 235.346 74.9982H224.295C223.526 74.9982 222.868 75.5503 222.735 76.3076L222.089 79.9667C221.918 80.9372 222.664 81.827 223.65 81.827H234.871C235.851 81.827 236.596 82.7077 236.434 83.6743L236.082 85.7668Z" fill="#DCDFE6"/>
<path d="M20.4488 28.6686V49.857C20.4488 51.6343 19.518 53.2819 17.9957 54.1993L1.84576 63.931C0.700328 64.6212 0 65.8609 0 67.1982C0 68.561 0.727042 69.8203 1.90726 70.5017L63.3916 106C64.602 106.699 66.1308 106.497 67.1191 105.509C67.6982 104.93 68.0236 104.144 68.0236 103.325V82.5739C68.0236 80.7627 68.9899 79.089 70.5584 78.1834L83.7374 70.5745C87.1172 68.6231 87.1172 63.7448 83.7374 61.7934L70.5584 54.1846C68.9899 53.2789 67.0573 53.2789 65.4887 54.1846L47.24 64.7205C45.6714 65.6261 43.7388 65.6261 42.1702 64.7205L25.2036 54.9247C24.2472 54.3726 23.781 53.247 24.0668 52.1804C24.2343 51.5554 24.6432 51.0225 25.2036 50.699L65.8961 27.2051C67.4647 26.2995 68.431 24.6258 68.431 22.8146V3.19358C68.431 1.84665 67.5263 0.667652 66.2252 0.319041C65.4629 0.114762 64.6506 0.221704 63.967 0.616339L22.9837 24.2781C21.4151 25.1837 20.4488 26.8574 20.4488 28.6686Z" fill="#DCDFE6"/>
</svg>
