<svg width="247" height="83" viewBox="0 0 247 83" fill="none" xmlns="http://www.w3.org/2000/svg">
<path d="M88.7535 69.1499C82.1046 69.1499 78.3269 64.6468 78.3269 58.0886C78.3269 51.5305 82.3464 47.0274 89.237 47.0274C95.6743 47.0274 99.1196 50.7145 99.1196 54.5829H94.7072C94.1632 52.5882 92.3499 50.9865 89.237 50.9865C85.2175 50.9865 83.1926 53.5251 83.1926 58.0886C83.1926 62.6522 85.2175 65.1908 89.237 65.1908C92.8032 65.1908 94.4654 63.2868 94.7374 60.1437H89.8112V56.8495H99.3614V68.8477H95.8858L95.4325 65.6441C94.4352 67.941 92.3499 69.1499 88.7535 69.1499ZM106.001 68.8477H101.377V53.2531H105.759V56.6078C106.545 53.8878 107.905 53.0416 109.96 53.0416C110.383 53.0416 111.108 53.1322 111.411 53.2531V57.2727L109.779 57.2424C107.482 57.2424 106.001 58.8744 106.001 61.7153V68.8477ZM118.135 69.1499C114.568 69.1499 112.755 67.3366 112.755 63.5588V53.2531H117.379V62.6522C117.379 64.4655 118.044 65.4326 119.615 65.4326C121.368 65.4326 122.517 64.1935 122.517 61.9571V53.2531H127.141V68.8477H122.759V66.4903C121.943 68.0014 120.613 69.1499 118.135 69.1499ZM138.337 69.1499C136.1 69.1499 134.68 68.2734 133.834 66.7926V74.7712H129.21V53.2531H133.592V55.6709C134.408 54.0691 135.798 52.9509 138.337 52.9509C142.537 52.9509 145.227 55.9429 145.227 61.0504C145.227 66.1579 142.537 69.1499 138.337 69.1499ZM137.218 65.6744C139.243 65.6744 140.603 64.2539 140.603 61.0504C140.603 57.8469 139.243 56.4264 137.218 56.4264C135.193 56.4264 133.834 57.8469 133.834 61.0504C133.834 64.2539 135.193 65.6744 137.218 65.6744ZM154.223 69.1499C148.995 69.1499 146.063 65.9161 146.063 61.0504C146.063 56.1847 148.995 52.9509 154.223 52.9509C159.451 52.9509 162.383 56.1847 162.383 61.0504C162.383 65.9161 159.451 69.1499 154.223 69.1499ZM154.223 65.6744C156.49 65.6744 157.759 64.1935 157.759 61.0504C157.759 57.9073 156.49 56.4264 154.223 56.4264C151.956 56.4264 150.687 57.9073 150.687 61.0504C150.687 64.1935 151.956 65.6744 154.223 65.6744ZM178.579 69.1499C173.139 69.1499 170.479 66.1277 170.479 62.9846H175.012C175.284 64.3144 176.342 65.6744 178.579 65.6744C180.845 65.6744 182.296 64.2237 182.296 61.8362C182.296 59.4486 180.845 57.9678 178.579 57.9678C176.523 57.9678 175.496 59.1162 175.103 60.3855H170.6L172.413 47.3296H185.711V51.0469H176.161L175.466 55.9127C176.372 55.0967 177.732 54.7038 179.213 54.7038C184.049 54.7038 186.92 57.2727 186.92 61.6851C186.92 66.0672 184.018 69.1499 178.579 69.1499ZM196.819 69.1499C190.594 69.1499 187.753 64.949 187.753 58.0886C187.753 51.2283 190.594 47.0274 196.819 47.0274C203.045 47.0274 205.886 51.2283 205.886 58.0886C205.886 64.949 203.045 69.1499 196.819 69.1499ZM196.819 65.4326C199.751 65.4326 201.262 63.1962 201.262 58.0886C201.262 52.9811 199.751 50.7447 196.819 50.7447C193.888 50.7447 192.377 52.9811 192.377 58.0886C192.377 63.1962 193.888 65.4326 196.819 65.4326ZM215.812 69.1499C209.586 69.1499 206.745 64.949 206.745 58.0886C206.745 51.2283 209.586 47.0274 215.812 47.0274C222.038 47.0274 224.879 51.2283 224.879 58.0886C224.879 64.949 222.038 69.1499 215.812 69.1499ZM215.812 65.4326C218.743 65.4326 220.255 63.1962 220.255 58.0886C220.255 52.9811 218.743 50.7447 215.812 50.7447C212.88 50.7447 211.369 52.9811 211.369 58.0886C211.369 63.1962 212.88 65.4326 215.812 65.4326Z" fill="#DCDFE6"/>
<path d="M103.136 23.5422C103.136 29.4935 99.1549 32.8713 92.5602 32.8713H86.2068V42.8438H79.7328V14.2132H92.5602C99.1549 14.2132 103.136 17.591 103.136 23.5422ZM96.6618 23.5422C96.6618 20.4058 94.8925 19.0386 91.5952 19.0386H86.2068V28.0459H91.5952C94.8925 28.0459 96.6618 26.6787 96.6618 23.5422ZM111.226 42.8438H105.073V22.0946H110.904V26.5581C111.949 22.9391 113.759 21.8132 116.493 21.8132C117.056 21.8132 118.021 21.9338 118.423 22.0946V27.4428L116.252 27.4025C113.196 27.4025 111.226 29.574 111.226 33.3538V42.8438ZM129.676 43.2459C122.719 43.2459 118.819 38.9432 118.819 32.4692C118.819 26.0756 122.599 21.6925 129.435 21.6925C136.271 21.6925 140.051 26.1158 140.051 32.3083C140.051 32.8713 140.01 33.3136 139.93 33.8364H124.971C125.092 37.3348 126.821 39.1443 129.676 39.1443C131.847 39.1443 133.375 38.0184 133.938 36.1686H139.608C138.724 40.4713 135.466 43.2459 129.676 43.2459ZM129.435 25.7941C126.942 25.7941 125.414 27.2417 124.971 29.8957H133.898C133.456 27.2417 131.928 25.7941 129.435 25.7941ZM148.14 42.8438H141.988V22.0946H148.14V42.8438ZM145.044 19.4809C142.832 19.4809 141.586 18.1539 141.586 16.3846C141.586 14.6153 142.832 13.2883 145.044 13.2883C147.296 13.2883 148.542 14.6153 148.542 16.3846C148.542 18.1539 147.296 19.4809 145.044 19.4809ZM160.855 43.2459C153.979 43.2459 150.079 38.9432 150.079 32.4692C150.079 25.9951 153.979 21.6925 160.855 21.6925C167.772 21.6925 170.989 25.9147 170.989 30.2174H165.198C164.876 27.9253 163.59 26.3168 160.855 26.3168C157.92 26.3168 156.231 28.2872 156.231 32.4692C156.231 36.6512 157.92 38.6215 160.855 38.6215C163.188 38.6215 164.836 37.4554 165.198 34.5602H170.989C170.989 39.2649 167.53 43.2459 160.855 43.2459ZM180.383 42.8438H174.271V26.3973H171.134V22.0946H174.271V20.647C174.271 16.0227 176.201 13.9719 180.946 13.9719C181.911 13.9719 183.72 14.1328 184.645 14.2132V18.3148H182.474C181.026 18.3148 180.383 18.9984 180.383 20.446V22.0946H184.645V26.3973H180.383V42.8438ZM195.494 43.2459C188.537 43.2459 184.637 38.9432 184.637 32.4692C184.637 26.0756 188.417 21.6925 195.253 21.6925C202.089 21.6925 205.869 26.1158 205.869 32.3083C205.869 32.8713 205.828 33.3136 205.748 33.8364H190.789C190.91 37.3348 192.639 39.1443 195.494 39.1443C197.665 39.1443 199.193 38.0184 199.756 36.1686H205.426C204.542 40.4713 201.284 43.2459 195.494 43.2459ZM195.253 25.7941C192.76 25.7941 191.232 27.2417 190.789 29.8957H199.716C199.274 27.2417 197.746 25.7941 195.253 25.7941ZM216.853 43.2459C210.017 43.2459 207.001 40.3909 207.001 36.1686H212.993C213.234 38.1792 214.199 39.2649 216.934 39.2649C219.507 39.2649 220.553 38.2596 220.553 36.9729C220.553 35.8067 219.588 35.1634 217.939 34.9221L214.642 34.4798C209.414 33.7157 207.564 31.9867 207.564 28.3676C207.564 24.5475 210.379 21.6925 216.853 21.6925C223.327 21.6925 226.142 24.5475 226.142 28.448H220.151C219.949 26.92 219.346 25.6735 216.773 25.6735C214.561 25.6735 213.717 26.5581 213.717 27.8449C213.717 28.9708 214.32 29.4935 215.687 29.6946L218.944 30.1369C223.89 30.8607 226.705 32.3888 226.705 36.5708C226.705 40.3909 223.689 43.2459 216.853 43.2459Z" fill="#DCDFE6"/>
<path d="M35.5767 11.7094C27.5913 5.20129 17.8726 9.98159 16.9531 17.2143C9.1587 18.483 5.34105 27.8385 9.1587 32.9144C12.9764 37.9902 24.0191 36.6728 22.7248 28.7848" stroke="#DCDFE6" stroke-width="4.07683"/>
<path d="M7.7047 33.3359C1.45865 35.9672 1.15667 47.6846 7.70469 51.1032" stroke="#DCDFE6" stroke-width="4.07683"/>
<path d="M21.52 54.0722C15.1769 43.8858 8.04688 49.2611 8.04688 54.8517C8.04688 56.8711 8.77478 63.6356 16.398 65.6524C20.3106 76.621 36.3293 77.4665 36.8594 62.9712V56.3276C36.9171 54.5947 36.4366 53.0057 35.3272 51.3999L28.6463 43.3828" stroke="#DCDFE6" stroke-width="4.07683"/>
<path d="M44.4019 39.5987L38.6038 32.8342C37.4089 31.5022 36.359 29.9552 36.5449 26.8549V18.7757C37.5166 11.0912 48.3277 3.66246 56.9216 17.7736C64.1517 20.1509 67.8963 29.0292 63.3062 34.3442C60.1655 36.8204 57.3304 35.3877 55.5753 33.4986L50.6861 28.1289" stroke="#DCDFE6" stroke-width="4.07683"/>
<path d="M65.2734 32.918C72.8496 37.6064 72.9704 45.8204 65.2734 50.2882" stroke="#DCDFE6" stroke-width="4.07683"/>
<path d="M50.6938 55.5221L54.4797 51.1796C59.1464 45.9415 67.0585 49.5049 65.2465 57.719C64.6917 61.4051 60.5356 64.7854 57.3747 65.4321C55.2051 75.474 44.4935 76.5003 38.3359 72.4594" stroke="#DCDFE6" stroke-width="4.07683"/>
<circle cx="23.5669" cy="56.8325" r="4.74659" fill="#DCDFE6"/>
<circle cx="27.1919" cy="41.7114" r="4.74659" fill="#DCDFE6"/>
<circle cx="22.4497" cy="24.8247" r="4.74659" fill="#DCDFE6"/>
<circle cx="46.1763" cy="41.8208" r="4.74659" fill="#DCDFE6"/>
<circle cx="48.645" cy="25.8364" r="4.74659" fill="#DCDFE6"/>
<circle cx="48.9653" cy="57.2232" r="4.74659" fill="#DCDFE6"/>
</svg>
