<svg width="363" height="363" viewBox="0 0 363 363" fill="none" xmlns="http://www.w3.org/2000/svg">
<path d="M181.48 362.359C281.377 362.359 362.359 281.377 362.359 181.48C362.359 81.5838 281.377 0.601562 181.48 0.601562C81.5838 0.601562 0.601562 81.5838 0.601562 181.48C0.601562 281.377 81.5838 362.359 181.48 362.359Z" stroke="#DCDFE6" stroke-width="1.1956" stroke-miterlimit="3.86" stroke-dasharray="2.37 9.47"/>
<path d="M21.5544 190.477C21.7312 190.305 21.8497 190.082 21.8934 189.839C21.9371 189.596 21.9038 189.345 21.7982 189.122C21.6925 188.899 21.5198 188.715 21.3042 188.595C21.0885 188.475 20.8408 188.425 20.5955 188.453C20.4355 188.46 20.2785 188.499 20.134 188.568C19.9896 188.637 19.8606 188.735 19.755 188.855C19.6464 188.972 19.5624 189.109 19.5081 189.259C19.4539 189.409 19.4305 189.569 19.4393 189.728C19.4482 189.887 19.4891 190.043 19.5596 190.186C19.6301 190.329 19.7288 190.456 19.8497 190.56C19.9661 190.666 20.1024 190.748 20.2508 190.801C20.3992 190.854 20.5566 190.876 20.7139 190.868C20.873 190.862 21.0295 190.825 21.1739 190.758C21.3183 190.691 21.4478 190.595 21.5544 190.477Z" fill="#DCDFE6"/>
<path d="M322.052 126.838C321.828 127.146 321.691 127.509 321.658 127.889C321.625 128.268 321.695 128.65 321.863 128.992C321.988 129.352 322.204 129.673 322.491 129.924C322.777 130.175 323.124 130.347 323.496 130.424L322.81 130.709L323.52 132.378L329.984 129.631L329.273 127.962L325.639 129.513C325.272 129.693 324.853 129.739 324.455 129.643C324.278 129.589 324.115 129.496 323.978 129.371C323.841 129.246 323.733 129.093 323.662 128.921C323.592 128.775 323.555 128.615 323.555 128.453C323.555 128.292 323.592 128.132 323.662 127.986C323.829 127.674 324.108 127.437 324.443 127.323L328.314 125.678L327.604 124.008L323.97 125.559C323.604 125.742 323.185 125.793 322.786 125.701C322.612 125.646 322.453 125.551 322.321 125.423C322.19 125.296 322.09 125.14 322.029 124.967C321.965 124.82 321.932 124.661 321.932 124.5C321.932 124.339 321.965 124.18 322.029 124.032C322.198 123.722 322.477 123.486 322.81 123.369L326.681 121.724L325.971 120.055L321.993 121.747C321.268 122.011 320.674 122.546 320.336 123.239C320.187 123.566 320.109 123.921 320.109 124.281C320.109 124.64 320.187 124.995 320.336 125.322C320.47 125.7 320.699 126.036 320.999 126.301C321.299 126.566 321.661 126.751 322.052 126.838Z" fill="#DCDFE6"/>
<path d="M202.366 341.555C201.93 341.851 201.424 342.031 200.898 342.075C200.48 342.14 200.053 342.115 199.645 342.003C199.237 341.89 198.857 341.693 198.531 341.424C198.206 341.151 197.938 340.816 197.745 340.438C197.552 340.059 197.437 339.646 197.406 339.223C197.298 338.38 197.527 337.528 198.046 336.855C198.497 336.333 199.099 335.965 199.769 335.799C200.439 335.634 201.144 335.68 201.786 335.932C202.258 336.119 202.668 336.435 202.97 336.843L204.533 335.66C204.037 334.996 203.37 334.481 202.603 334.168C201.573 333.744 200.436 333.659 199.355 333.925C198.273 334.191 197.305 334.795 196.59 335.648C195.955 336.437 195.569 337.398 195.48 338.407C195.392 339.416 195.606 340.429 196.094 341.317C196.582 342.204 197.323 342.927 198.223 343.393C199.122 343.859 200.14 344.047 201.147 343.934C202 343.849 202.816 343.543 203.515 343.046C204.2 342.583 204.745 341.94 205.089 341.188L203.325 340.395C203.129 340.868 202.795 341.272 202.366 341.555Z" fill="#DCDFE6"/>
<path d="M213.994 333.098C213.165 332.517 212.182 332.195 211.17 332.173C210.158 332.151 209.162 332.43 208.308 332.975C207.455 333.519 206.782 334.305 206.376 335.232C205.969 336.16 205.847 337.187 206.025 338.184C206.203 339.18 206.672 340.102 207.374 340.831C208.076 341.561 208.979 342.066 209.968 342.282C210.957 342.498 211.988 342.415 212.931 342.045C213.873 341.674 214.684 341.033 215.261 340.201C216.025 339.088 216.321 337.719 216.084 336.39C215.847 335.06 215.096 333.878 213.994 333.098ZM213.686 339.183C213.449 339.525 213.143 339.815 212.789 340.035C212.435 340.255 212.039 340.4 211.627 340.461C211.211 340.544 210.783 340.542 210.369 340.454C209.954 340.365 209.562 340.194 209.216 339.949C208.871 339.704 208.578 339.391 208.358 339.029C208.137 338.667 207.993 338.264 207.933 337.845C207.85 337.426 207.851 336.994 207.936 336.575C208.021 336.157 208.189 335.759 208.431 335.406C208.67 335.062 208.977 334.77 209.334 334.548C209.69 334.326 210.087 334.179 210.502 334.116C210.917 334.037 211.345 334.042 211.758 334.133C212.171 334.223 212.561 334.396 212.906 334.642C213.25 334.888 213.54 335.201 213.76 335.562C213.98 335.923 214.124 336.325 214.184 336.744C214.273 337.163 214.275 337.596 214.189 338.015C214.104 338.435 213.933 338.832 213.686 339.183Z" fill="#DCDFE6"/>
<path d="M224.331 334.294C224.539 333.725 224.572 333.107 224.426 332.519C224.329 332.102 224.147 331.71 223.893 331.366C223.638 331.021 223.316 330.733 222.946 330.518C222.578 330.293 222.168 330.144 221.741 330.081C221.313 330.018 220.878 330.042 220.46 330.151L216.648 331.11L219.016 340.639L220.898 340.166L220.07 336.863L221.49 336.508L224.248 339.337L226.272 338.828L223.266 335.762C223.753 335.384 224.122 334.875 224.331 334.294ZM222.413 334.093C222.331 334.25 222.217 334.387 222.078 334.497C221.939 334.607 221.78 334.687 221.608 334.732L219.667 335.218L218.969 332.389L220.898 331.915C221.07 331.866 221.251 331.856 221.428 331.887C221.604 331.918 221.771 331.988 221.916 332.093C222.235 332.299 222.46 332.622 222.544 332.992C222.645 333.362 222.598 333.757 222.413 334.093Z" fill="#DCDFE6"/>
<path d="M232.973 331.555C233.151 330.977 233.151 330.358 232.973 329.779C232.842 329.372 232.631 328.994 232.353 328.669C232.075 328.343 231.735 328.076 231.353 327.882C230.972 327.688 230.555 327.572 230.128 327.54C229.701 327.508 229.272 327.561 228.866 327.696L225.125 328.88L228.155 338.22L230.002 337.628L228.96 334.42L230.357 333.958L233.293 336.598L235.282 335.947L232.074 333.094C232.512 332.676 232.824 332.142 232.973 331.555ZM231.044 331.484C230.978 331.65 230.876 331.799 230.745 331.92C230.614 332.041 230.457 332.131 230.286 332.182L228.392 332.798L227.493 330.04L229.387 329.424C229.553 329.365 229.731 329.343 229.908 329.362C230.084 329.38 230.254 329.438 230.405 329.531C230.735 329.718 230.984 330.023 231.102 330.384C231.22 330.745 231.199 331.137 231.044 331.484Z" fill="#DCDFE6"/>
<path d="M237.996 332.902L237.203 330.842L240.683 329.516L240.02 327.812L236.552 329.137L235.794 327.184L239.606 325.728L238.931 324L233.32 326.154L236.848 335.329L242.518 333.15L241.855 331.422L237.996 332.902Z" fill="#DCDFE6"/>
<path d="M248.41 321.175C247.287 320.758 246.054 320.744 244.921 321.135C243.789 321.526 242.827 322.299 242.201 323.32C241.574 324.342 241.322 325.549 241.487 326.736C241.651 327.922 242.223 329.015 243.104 329.828C243.985 330.64 245.12 331.121 246.316 331.189C247.513 331.257 248.695 330.908 249.663 330.201C250.63 329.494 251.322 328.473 251.621 327.313C251.919 326.152 251.805 324.924 251.299 323.838C251.025 323.22 250.628 322.665 250.131 322.207C249.634 321.749 249.049 321.397 248.41 321.175ZM249.689 327.094C249.481 327.7 249.093 328.229 248.578 328.611C248.063 328.993 247.444 329.21 246.803 329.233C246.162 329.256 245.529 329.085 244.987 328.741C244.446 328.397 244.022 327.897 243.77 327.307C243.495 326.737 243.395 326.097 243.484 325.471C243.572 324.844 243.845 324.257 244.267 323.785C244.689 323.314 245.242 322.978 245.855 322.821C246.469 322.664 247.115 322.692 247.712 322.903C248.114 323.052 248.482 323.281 248.793 323.576C249.105 323.871 249.353 324.226 249.523 324.62C249.723 325.004 249.841 325.425 249.87 325.857C249.898 326.289 249.837 326.722 249.689 327.129V327.094Z" fill="#DCDFE6"/>
<path d="M254.167 321.008C254.094 320.871 253.995 320.748 253.875 320.649C253.756 320.549 253.617 320.474 253.469 320.428C253.319 320.377 253.161 320.357 253.004 320.372C252.847 320.386 252.694 320.434 252.557 320.511C252.419 320.584 252.297 320.683 252.197 320.803C252.098 320.922 252.023 321.061 251.977 321.21C251.93 321.359 251.913 321.517 251.927 321.674C251.941 321.83 251.986 321.982 252.06 322.121C252.134 322.26 252.235 322.383 252.356 322.483C252.478 322.582 252.619 322.657 252.77 322.701C252.92 322.749 253.078 322.766 253.234 322.751C253.391 322.737 253.543 322.692 253.682 322.618C253.818 322.543 253.939 322.442 254.037 322.32C254.134 322.198 254.207 322.058 254.25 321.908C254.301 321.761 254.32 321.604 254.306 321.449C254.292 321.294 254.244 321.144 254.167 321.008Z" fill="#DCDFE6"/>
<path d="M255.824 324.855C255.673 324.81 255.515 324.795 255.358 324.811C255.202 324.827 255.05 324.875 254.912 324.95C254.774 325.023 254.652 325.122 254.552 325.241C254.453 325.361 254.378 325.5 254.332 325.649C254.286 325.799 254.271 325.957 254.288 326.114C254.304 326.27 254.351 326.422 254.427 326.56C254.499 326.698 254.598 326.82 254.718 326.92C254.838 327.019 254.976 327.094 255.125 327.14C255.352 327.217 255.597 327.223 255.828 327.157C256.058 327.091 256.263 326.957 256.416 326.772C256.569 326.588 256.662 326.361 256.683 326.122C256.704 325.884 256.652 325.644 256.534 325.435C256.46 325.296 256.359 325.173 256.237 325.074C256.115 324.974 255.975 324.9 255.824 324.855Z" fill="#DCDFE6"/>
<path d="M263.588 315.105C263.247 315.011 262.891 314.991 262.542 315.046C262.192 315.101 261.859 315.23 261.564 315.424C261.203 315.607 260.895 315.879 260.669 316.215C260.443 316.551 260.307 316.939 260.274 317.342L259.871 316.667L258.32 317.602L261.931 323.616L263.493 322.681L261.54 319.437C261.263 319.05 261.148 318.57 261.221 318.099C261.273 317.899 261.366 317.711 261.494 317.548C261.623 317.385 261.783 317.25 261.966 317.152C262.119 317.049 262.291 316.976 262.472 316.94C262.652 316.903 262.839 316.903 263.02 316.939C263.208 316.996 263.383 317.09 263.534 317.216C263.684 317.342 263.807 317.498 263.896 317.673L266.003 321.225L267.554 320.289L265.34 316.596C265.164 316.242 264.918 315.927 264.617 315.671C264.316 315.414 263.966 315.222 263.588 315.105Z" fill="#DCDFE6"/>
<path d="M269.884 310.194L270.357 310.881C269.939 310.757 269.497 310.736 269.069 310.818C268.64 310.901 268.238 311.084 267.895 311.354C267.52 311.612 267.204 311.947 266.969 312.337C266.734 312.727 266.586 313.163 266.534 313.615C266.423 314.578 266.669 315.548 267.226 316.342C267.782 317.136 268.609 317.699 269.552 317.924C269.995 318.03 270.455 318.04 270.902 317.954C271.349 317.869 271.773 317.689 272.145 317.427C272.512 317.193 272.82 316.876 273.044 316.502C273.268 316.128 273.402 315.707 273.435 315.272L273.908 315.947L275.388 314.905L271.363 309.164L269.884 310.194ZM271.896 313.07C272.055 313.281 272.168 313.523 272.229 313.779C272.29 314.036 272.298 314.302 272.251 314.562C272.21 314.816 272.115 315.059 271.975 315.275C271.834 315.491 271.65 315.676 271.434 315.817C271.228 315.971 270.992 316.08 270.742 316.139C270.492 316.198 270.232 316.205 269.978 316.16C269.458 316.043 269.001 315.735 268.698 315.296C268.396 314.857 268.269 314.32 268.345 313.793C268.384 313.537 268.478 313.294 268.618 313.077C268.759 312.861 268.944 312.677 269.162 312.538C269.37 312.379 269.608 312.266 269.863 312.205C270.117 312.144 270.381 312.137 270.638 312.184C270.896 312.23 271.14 312.33 271.357 312.477C271.574 312.623 271.757 312.813 271.896 313.035V313.07Z" fill="#DCDFE6"/>
<path d="M278.677 310.382C278.519 310.499 278.328 310.561 278.132 310.559C278.037 310.544 277.947 310.509 277.868 310.456C277.788 310.403 277.721 310.333 277.67 310.252L275.871 307.943L277.055 306.973L275.989 305.599L274.735 306.57L273.551 305.031L272.462 306.57L273.338 307.695L272.367 308.44L273.444 309.814L274.403 309.068L276.203 311.364C276.399 311.681 276.668 311.947 276.987 312.141C277.306 312.334 277.666 312.449 278.037 312.477C278.937 312.31 279.75 311.833 280.334 311.128L279.316 309.837C279.079 310.039 278.854 310.24 278.677 310.382Z" fill="#DCDFE6"/>
<path d="M280.845 301.629L283.331 304.494C283.667 304.825 283.858 305.276 283.863 305.749C283.849 305.955 283.793 306.156 283.697 306.34C283.601 306.523 283.468 306.685 283.307 306.814C283.173 306.943 283.016 307.043 282.843 307.11C282.67 307.177 282.486 307.209 282.301 307.205C282.105 307.182 281.916 307.12 281.745 307.022C281.574 306.925 281.425 306.793 281.306 306.636L278.631 303.559L277.258 304.742L280.087 307.998C280.324 308.305 280.62 308.561 280.957 308.752C281.295 308.943 281.667 309.065 282.052 309.11C282.404 309.143 282.759 309.101 283.094 308.986C283.428 308.872 283.735 308.688 283.993 308.447C284.316 308.205 284.571 307.884 284.735 307.515C284.898 307.147 284.965 306.742 284.929 306.34L285.449 306.932L286.811 305.749L282.23 300.445L280.845 301.629Z" fill="#DCDFE6"/>
<path d="M286.85 299.382C286.995 298.898 287.305 298.479 287.726 298.199L286.377 296.695C286.034 296.994 285.777 297.378 285.631 297.808C285.478 298.233 285.478 298.697 285.631 299.122L284.826 298.222L283.477 299.406L288.212 304.627L289.561 303.443L287.312 300.945C287.103 300.749 286.95 300.501 286.869 300.226C286.788 299.952 286.781 299.66 286.85 299.382Z" fill="#DCDFE6"/>
<path d="M291.135 292.029L291.727 292.609C291.289 292.56 290.846 292.616 290.434 292.772C290.022 292.929 289.654 293.181 289.359 293.508C289.034 293.827 288.781 294.212 288.618 294.636C288.454 295.061 288.384 295.516 288.412 295.971C288.471 296.939 288.884 297.852 289.571 298.537C290.258 299.222 291.173 299.632 292.141 299.688C292.594 299.715 293.048 299.646 293.473 299.484C293.897 299.323 294.283 299.074 294.603 298.752C294.929 298.457 295.18 298.088 295.335 297.676C295.489 297.265 295.543 296.822 295.491 296.385L296.083 296.965L297.362 295.687L292.402 290.727L291.135 292.029ZM294.236 295.911C294.236 296.169 294.183 296.423 294.082 296.659C293.98 296.895 293.831 297.108 293.645 297.285C293.47 297.474 293.257 297.624 293.021 297.726C292.784 297.828 292.529 297.879 292.271 297.876C292.009 297.874 291.75 297.818 291.51 297.712C291.27 297.606 291.054 297.453 290.875 297.261C290.682 297.082 290.528 296.866 290.42 296.626C290.312 296.386 290.254 296.127 290.247 295.864C290.262 295.346 290.476 294.853 290.843 294.487C291.211 294.121 291.705 293.911 292.224 293.899C292.487 293.901 292.746 293.956 292.986 294.062C293.227 294.168 293.443 294.322 293.621 294.515C293.815 294.692 293.97 294.908 294.076 295.148C294.182 295.389 294.236 295.649 294.236 295.911Z" fill="#DCDFE6"/>
<path d="M292.462 285.834L291.25 287.18L298.869 294.038L300.081 292.692L292.462 285.834Z" fill="#DCDFE6"/>
<path d="M303.16 285.791C303.224 286.083 303.216 286.386 303.138 286.675C303.06 286.963 302.913 287.229 302.71 287.449C302.485 287.825 302.128 288.106 301.709 288.237C301.29 288.368 300.837 288.34 300.437 288.159L303.776 284.051C303.609 283.859 303.427 283.681 303.231 283.518C302.489 282.887 301.528 282.572 300.556 282.642C300.079 282.675 299.615 282.809 299.194 283.036C298.774 283.262 298.406 283.576 298.117 283.956C297.793 284.328 297.55 284.763 297.403 285.234C297.256 285.705 297.209 286.201 297.265 286.691C297.321 287.177 297.475 287.646 297.717 288.072C297.959 288.497 298.284 288.869 298.673 289.165C299.044 289.488 299.477 289.73 299.945 289.877C300.414 290.023 300.908 290.071 301.396 290.017C301.905 289.954 302.396 289.787 302.838 289.527C303.28 289.266 303.664 288.917 303.965 288.502C304.36 288.056 304.637 287.517 304.769 286.936C304.902 286.354 304.886 285.749 304.723 285.176L303.16 285.791ZM298.91 286.146C298.929 285.71 299.096 285.292 299.384 284.963C299.63 284.651 299.97 284.426 300.354 284.323C300.758 284.245 301.176 284.307 301.538 284.501L299.289 287.283C299.033 286.96 298.899 286.558 298.91 286.146Z" fill="#DCDFE6"/>
<path d="M307.053 281.72L305.549 276.855L304.59 276.133L301.43 280.335L302.779 281.353L304.484 279.104L305.987 283.946L306.946 284.668L310.284 280.252L308.923 279.222L307.053 281.72Z" fill="#DCDFE6"/>
<path d="M308.597 270.355L309.283 270.817C308.85 270.854 308.432 270.994 308.064 271.224C307.696 271.455 307.387 271.77 307.164 272.142C306.905 272.516 306.73 272.941 306.651 273.388C306.571 273.836 306.589 274.295 306.702 274.735C306.941 275.677 307.518 276.499 308.324 277.042C309.13 277.586 310.107 277.814 311.071 277.682C311.522 277.625 311.956 277.471 312.343 277.23C312.729 276.988 313.058 276.666 313.308 276.286C313.568 275.935 313.742 275.529 313.816 275.099C313.89 274.67 313.862 274.228 313.734 273.812L314.421 274.273L315.439 272.782L309.615 268.852L308.597 270.355ZM311.509 272.32C311.733 272.458 311.926 272.64 312.077 272.856C312.228 273.072 312.332 273.317 312.385 273.575C312.431 273.828 312.427 274.089 312.372 274.341C312.318 274.593 312.213 274.831 312.065 275.043C311.925 275.26 311.743 275.446 311.53 275.59C311.316 275.735 311.075 275.834 310.822 275.883C310.565 275.928 310.301 275.921 310.047 275.862C309.793 275.803 309.553 275.694 309.342 275.54C309.117 275.403 308.923 275.221 308.772 275.005C308.621 274.789 308.517 274.544 308.466 274.285C308.414 274.034 308.415 273.775 308.468 273.525C308.521 273.274 308.625 273.037 308.774 272.829C308.915 272.612 309.097 272.425 309.311 272.279C309.524 272.133 309.764 272.03 310.017 271.977C310.276 271.928 310.542 271.934 310.799 271.993C311.055 272.052 311.297 272.163 311.509 272.32Z" fill="#DCDFE6"/>
<path d="M313.881 261.812L312.769 263.659L314.177 267.329L309.111 264.287L308.188 265.837L316.604 270.904L317.539 269.341L314.805 267.708L318.853 267.151L319.942 265.352L315.397 266.015L313.881 261.812Z" fill="#DCDFE6"/>
<path d="M320.882 256.174C320.456 255.934 319.984 255.785 319.497 255.737C319.01 255.688 318.519 255.74 318.053 255.89C317.584 256.031 317.148 256.265 316.772 256.578C316.395 256.891 316.086 257.277 315.863 257.713C315.523 258.363 315.382 259.098 315.457 259.827C315.533 260.557 315.822 261.247 316.288 261.813C316.754 262.379 317.377 262.795 318.078 263.009C318.78 263.223 319.528 263.226 320.231 263.016C320.7 262.879 321.135 262.646 321.51 262.332C321.885 262.018 322.191 261.631 322.409 261.193C322.645 260.765 322.794 260.294 322.845 259.807C322.896 259.321 322.849 258.829 322.706 258.361C322.564 257.893 322.329 257.458 322.016 257.083C321.702 256.707 321.317 256.398 320.882 256.174ZM320.882 260.365C320.773 260.59 320.618 260.79 320.426 260.951C320.234 261.112 320.01 261.231 319.769 261.3C319.524 261.375 319.267 261.399 319.012 261.371C318.758 261.342 318.512 261.262 318.29 261.134C318.053 261.015 317.844 260.848 317.675 260.644C317.506 260.441 317.381 260.204 317.307 259.95C317.176 259.467 317.236 258.952 317.474 258.511C317.712 258.071 318.11 257.738 318.586 257.583C319.085 257.446 319.617 257.505 320.074 257.747C320.531 257.989 320.88 258.396 321.048 258.885C321.112 259.125 321.127 259.375 321.092 259.621C321.058 259.867 320.974 260.104 320.847 260.317L320.882 260.365Z" fill="#DCDFE6"/>
<path d="M321.127 247.391L320.215 249.344L322.003 252.848L316.652 250.35L315.883 251.984L324.797 256.139L325.554 254.493L322.666 253.156L326.631 252.185L327.531 250.279L323.08 251.404L321.127 247.391Z" fill="#DCDFE6"/>
<path d="M328.022 243.386C328.169 243.648 328.252 243.942 328.262 244.242C328.272 244.543 328.21 244.842 328.081 245.114C327.972 245.538 327.713 245.907 327.351 246.153C326.989 246.4 326.55 246.506 326.116 246.451L328.093 241.539C327.882 241.406 327.66 241.291 327.43 241.196C326.534 240.811 325.524 240.789 324.613 241.136C324.168 241.307 323.765 241.571 323.43 241.91C323.095 242.248 322.837 242.655 322.671 243.101C322.471 243.554 322.367 244.044 322.367 244.54C322.367 245.035 322.471 245.525 322.671 245.978C322.87 246.424 323.156 246.827 323.512 247.162C323.867 247.497 324.286 247.759 324.743 247.931C325.193 248.128 325.678 248.23 326.169 248.23C326.661 248.23 327.146 248.128 327.596 247.931C328.057 247.721 328.471 247.42 328.813 247.046C329.155 246.671 329.417 246.232 329.585 245.753C329.831 245.211 329.938 244.616 329.894 244.023C329.851 243.429 329.659 242.856 329.336 242.356L328.022 243.386ZM324.068 244.924C323.964 244.506 324.002 244.065 324.175 243.67C324.317 243.299 324.58 242.986 324.921 242.782C325.277 242.57 325.698 242.499 326.104 242.581L324.85 245.954C324.474 245.716 324.196 245.351 324.068 244.924Z" fill="#DCDFE6"/>
<path d="M323.742 232.525L327.187 233.709C326.776 233.854 326.406 234.095 326.108 234.412C325.809 234.729 325.591 235.113 325.471 235.532C325.319 235.963 325.261 236.422 325.302 236.877C325.343 237.333 325.481 237.774 325.707 238.171C325.929 238.599 326.234 238.979 326.604 239.287C326.974 239.596 327.401 239.829 327.862 239.971C328.775 240.313 329.787 240.283 330.679 239.888C331.102 239.712 331.482 239.447 331.794 239.113C332.106 238.778 332.344 238.38 332.49 237.947C332.653 237.544 332.716 237.107 332.675 236.675C332.634 236.242 332.489 235.826 332.253 235.461L333.035 235.733L333.627 234.016L324.334 230.82L323.742 232.525ZM328.193 234.644C328.434 234.541 328.694 234.487 328.957 234.487C329.219 234.487 329.479 234.541 329.72 234.644C329.973 234.721 330.208 234.847 330.411 235.016C330.614 235.185 330.782 235.392 330.904 235.626C331.016 235.857 331.079 236.109 331.092 236.365C331.104 236.621 331.064 236.877 330.975 237.118C330.896 237.366 330.767 237.595 330.595 237.791C330.424 237.987 330.214 238.146 329.978 238.257C329.743 238.368 329.487 238.429 329.226 238.437C328.966 238.445 328.707 238.399 328.465 238.302C328.21 238.227 327.973 238.1 327.769 237.929C327.565 237.758 327.399 237.546 327.282 237.307C327.164 237.076 327.097 236.822 327.085 236.563C327.073 236.304 327.115 236.045 327.211 235.804C327.285 235.553 327.41 235.32 327.58 235.12C327.749 234.921 327.958 234.758 328.193 234.644Z" fill="#DCDFE6"/>
<path d="M328.957 224.721L329.762 224.934C329.363 225.109 329.012 225.376 328.736 225.714C328.46 226.051 328.268 226.449 328.176 226.875C328.056 227.314 328.031 227.773 328.102 228.222C328.174 228.671 328.34 229.1 328.59 229.479C329.127 230.288 329.94 230.873 330.878 231.124C331.815 231.375 332.812 231.274 333.681 230.841C334.087 230.638 334.446 230.35 334.732 229.997C335.018 229.644 335.224 229.233 335.338 228.793C335.47 228.378 335.502 227.938 335.433 227.508C335.363 227.078 335.192 226.671 334.935 226.319L335.74 226.532L336.214 224.78L329.431 222.969L328.957 224.721ZM329.928 226.993C329.989 226.739 330.102 226.5 330.259 226.291C330.416 226.082 330.615 225.908 330.843 225.779C331.07 225.65 331.322 225.57 331.582 225.542C331.842 225.515 332.105 225.542 332.355 225.62C332.603 225.686 332.835 225.8 333.038 225.957C333.242 226.113 333.412 226.309 333.539 226.532C333.779 226.988 333.838 227.519 333.704 228.017C333.57 228.515 333.253 228.944 332.816 229.219C332.347 229.46 331.806 229.518 331.296 229.382C330.787 229.246 330.346 228.927 330.058 228.485C329.937 228.258 329.863 228.009 329.841 227.753C329.818 227.496 329.848 227.238 329.928 226.993Z" fill="#DCDFE6"/>
<path d="M332.412 211.7C332.098 211.887 331.83 212.141 331.625 212.444C331.421 212.747 331.285 213.091 331.228 213.452C331.125 213.846 331.125 214.26 331.229 214.654C331.332 215.048 331.536 215.408 331.82 215.701C331.462 215.83 331.147 216.055 330.909 216.352C330.671 216.648 330.519 217.005 330.47 217.382C330.372 217.748 330.37 218.134 330.465 218.501C330.561 218.869 330.75 219.205 331.015 219.477L330.293 219.335L329.938 221.111L336.839 222.448L337.182 220.673L333.311 219.915C332.887 219.87 332.496 219.662 332.222 219.335C332.109 219.194 332.031 219.028 331.992 218.852C331.953 218.675 331.955 218.492 331.997 218.317C332.02 218.157 332.077 218.005 332.165 217.87C332.253 217.735 332.369 217.621 332.506 217.536C332.822 217.365 333.19 217.323 333.536 217.417L337.656 218.21L337.999 216.435L334.128 215.689C333.709 215.635 333.323 215.434 333.039 215.121C332.926 214.979 332.847 214.814 332.808 214.638C332.769 214.461 332.771 214.278 332.814 214.103C332.841 213.942 332.902 213.788 332.992 213.652C333.081 213.515 333.198 213.399 333.335 213.31C333.649 213.149 334.012 213.111 334.353 213.203L338.472 213.996L338.816 212.22L334.578 211.392C333.843 211.22 333.07 211.33 332.412 211.7Z" fill="#DCDFE6"/>
<path d="M332.769 203.662L333.597 203.757C333.23 203.991 332.923 204.31 332.705 204.687C332.487 205.064 332.362 205.488 332.343 205.923C332.288 206.376 332.333 206.835 332.474 207.268C332.615 207.702 332.849 208.099 333.159 208.433C333.813 209.15 334.707 209.601 335.672 209.702C336.637 209.802 337.605 209.544 338.392 208.978C338.762 208.712 339.071 208.371 339.3 207.977C339.528 207.584 339.671 207.146 339.718 206.693C339.779 206.265 339.74 205.828 339.604 205.418C339.469 205.007 339.24 204.633 338.936 204.325L339.753 204.408L339.942 202.609L332.958 201.875L332.769 203.662ZM334.095 205.77C334.113 205.511 334.185 205.258 334.305 205.028C334.425 204.798 334.591 204.595 334.793 204.432C334.999 204.271 335.234 204.152 335.486 204.083C335.738 204.014 336.002 203.996 336.261 204.029C336.523 204.048 336.779 204.119 337.013 204.239C337.247 204.359 337.454 204.525 337.622 204.728C337.934 205.142 338.077 205.659 338.025 206.174C337.972 206.69 337.727 207.167 337.338 207.51C337.13 207.669 336.891 207.786 336.637 207.853C336.383 207.92 336.119 207.936 335.858 207.9C335.596 207.882 335.34 207.811 335.106 207.691C334.872 207.571 334.665 207.404 334.497 207.202C334.334 207.004 334.214 206.775 334.145 206.528C334.076 206.281 334.059 206.023 334.095 205.77Z" fill="#DCDFE6"/>
<path d="M341.418 193.387C341.614 194.132 341.678 194.905 341.607 195.672C341.587 196.308 341.44 196.934 341.176 197.513C340.912 198.092 340.535 198.613 340.068 199.045C339.621 199.472 339.087 199.799 338.503 200.003C337.919 200.207 337.299 200.284 336.683 200.229C336.077 200.198 335.483 200.045 334.938 199.78C334.392 199.515 333.905 199.142 333.507 198.685C333.108 198.228 332.805 197.695 332.617 197.118C332.428 196.542 332.358 195.933 332.409 195.328C332.434 194.753 332.576 194.188 332.826 193.669C333.076 193.15 333.43 192.688 333.865 192.31C334.292 191.928 334.793 191.639 335.337 191.46C335.881 191.28 336.456 191.215 337.026 191.268C337.647 191.277 338.255 191.448 338.79 191.765C338.963 191.871 339.104 192.021 339.198 192.2C339.291 192.38 339.335 192.581 339.322 192.783C339.322 193.316 338.932 193.565 338.245 193.517L335.013 193.292L334.907 194.796H335.274C335.097 194.942 334.951 195.121 334.845 195.325C334.74 195.528 334.676 195.751 334.658 195.98C334.632 196.259 334.668 196.542 334.764 196.806C334.861 197.07 335.014 197.309 335.215 197.507C335.639 197.934 336.211 198.184 336.813 198.205C337.417 198.27 338.023 198.101 338.505 197.731C338.73 197.564 338.913 197.349 339.042 197.101C339.171 196.853 339.243 196.579 339.251 196.299C339.28 196.036 339.245 195.77 339.15 195.523C339.056 195.276 338.904 195.055 338.707 194.879C339.068 194.748 339.377 194.505 339.59 194.185C339.803 193.866 339.909 193.486 339.891 193.103C339.911 192.793 339.86 192.482 339.741 192.194C339.622 191.907 339.438 191.651 339.204 191.446C338.579 190.944 337.803 190.669 337.002 190.664C336.192 190.599 335.378 190.737 334.635 191.067C333.862 191.41 333.199 191.959 332.717 192.653C332.226 193.417 331.959 194.302 331.947 195.21C331.879 195.88 331.949 196.556 332.152 197.197C332.356 197.839 332.689 198.432 333.131 198.939C333.57 199.458 334.113 199.878 334.725 200.174C335.336 200.47 336.003 200.634 336.683 200.655C337.36 200.722 338.044 200.644 338.689 200.425C339.334 200.207 339.925 199.853 340.423 199.389C341.453 198.415 342.061 197.076 342.116 195.66C342.192 194.895 342.14 194.123 341.962 193.375L341.418 193.387ZM337.63 196.5C337.423 196.649 337.171 196.72 336.918 196.7C336.664 196.681 336.426 196.572 336.245 196.394C336.091 196.208 336.015 195.97 336.033 195.73C336.05 195.489 336.16 195.265 336.339 195.103C336.543 194.957 336.792 194.886 337.043 194.903C337.294 194.92 337.531 195.025 337.712 195.198C337.796 195.286 337.859 195.39 337.898 195.505C337.937 195.619 337.95 195.741 337.937 195.861C337.938 196.1 337.844 196.33 337.677 196.5H337.63Z" fill="#DCDFE6"/>
<path d="M342.807 182.595C342.503 182.237 342.117 181.956 341.683 181.777C341.248 181.598 340.777 181.525 340.309 181.565L333.621 181.684V183.448H334.485C334.142 183.712 333.87 184.056 333.693 184.45C333.515 184.845 333.438 185.277 333.467 185.708C333.465 186.174 333.56 186.635 333.748 187.062C333.936 187.488 334.211 187.87 334.556 188.183C335.258 188.814 336.173 189.156 337.117 189.141C338.062 189.125 338.965 188.753 339.646 188.1C339.979 187.774 340.241 187.383 340.414 186.951C340.587 186.519 340.668 186.055 340.652 185.59C340.663 185.156 340.567 184.727 340.373 184.339C340.179 183.951 339.893 183.616 339.54 183.365H340.297C340.534 183.349 340.77 183.383 340.993 183.465C341.215 183.546 341.418 183.673 341.588 183.838C341.774 184.076 341.911 184.349 341.988 184.642C342.065 184.934 342.083 185.239 342.038 185.538C341.994 185.837 341.889 186.124 341.73 186.381C341.571 186.639 341.362 186.861 341.114 187.034L342.026 188.561C342.572 188.25 343.01 187.779 343.28 187.212C343.568 186.586 343.702 185.9 343.671 185.211C343.706 184.264 343.399 183.335 342.807 182.595ZM338.498 186.738C338.322 186.925 338.108 187.072 337.872 187.172C337.636 187.272 337.381 187.322 337.125 187.318C336.87 187.332 336.614 187.291 336.376 187.199C336.137 187.108 335.92 186.967 335.74 186.786C335.556 186.604 335.411 186.386 335.315 186.146C335.219 185.905 335.174 185.648 335.183 185.389C335.169 185.13 335.206 184.871 335.293 184.627C335.381 184.383 335.517 184.159 335.692 183.968C336.063 183.612 336.557 183.413 337.072 183.413C337.586 183.413 338.08 183.612 338.451 183.968C338.632 184.153 338.774 184.371 338.87 184.611C338.965 184.851 339.012 185.107 339.007 185.365C339.018 185.616 338.978 185.867 338.891 186.103C338.803 186.339 338.67 186.555 338.498 186.738Z" fill="#DCDFE6"/>
<path d="M333.37 170.033C333.131 170.304 332.953 170.622 332.847 170.967C332.741 171.312 332.709 171.675 332.754 172.034C332.765 172.439 332.879 172.834 333.087 173.182C333.294 173.531 333.587 173.82 333.938 174.022C333.628 174.244 333.385 174.547 333.236 174.898C333.088 175.249 333.04 175.634 333.098 176.011C333.102 176.392 333.205 176.765 333.399 177.093C333.592 177.421 333.868 177.693 334.199 177.881H333.465L333.618 179.681L340.615 179.077L340.449 177.266L336.519 177.609C336.107 177.675 335.685 177.586 335.335 177.36C335.187 177.255 335.065 177.117 334.978 176.957C334.892 176.797 334.844 176.619 334.838 176.437C334.814 176.276 334.826 176.112 334.873 175.957C334.92 175.801 335.001 175.658 335.11 175.537C335.371 175.294 335.712 175.155 336.069 175.147L340.248 174.78L340.094 172.981L336.164 173.324C335.752 173.387 335.331 173.299 334.98 173.075C334.835 172.97 334.717 172.833 334.632 172.675C334.548 172.517 334.501 172.343 334.494 172.164C334.47 172.003 334.481 171.839 334.529 171.683C334.576 171.527 334.657 171.384 334.767 171.264C335.023 171.022 335.361 170.882 335.714 170.873L339.892 170.507L339.739 168.695L335.43 169.074C334.645 169.117 333.908 169.46 333.37 170.033Z" fill="#DCDFE6"/>
<path d="M331.667 162.272L332.484 162.141C332.198 162.458 331.99 162.837 331.877 163.248C331.764 163.659 331.749 164.091 331.833 164.509C331.899 164.959 332.062 165.389 332.309 165.771C332.556 166.153 332.882 166.477 333.265 166.723C334.073 167.271 335.063 167.479 336.023 167.303C336.503 167.241 336.965 167.084 337.383 166.842C337.802 166.601 338.168 166.278 338.462 165.894C338.753 165.545 338.966 165.136 339.084 164.697C339.203 164.257 339.225 163.798 339.148 163.349C339.104 162.915 338.956 162.499 338.717 162.134C338.478 161.769 338.155 161.467 337.775 161.254L338.604 161.123L338.32 159.336L331.383 160.437L331.667 162.272ZM333.81 162.485C334.144 162.06 334.629 161.779 335.165 161.702C335.7 161.625 336.245 161.757 336.686 162.07C336.895 162.222 337.071 162.415 337.203 162.637C337.336 162.858 337.421 163.105 337.456 163.361C337.503 163.613 337.497 163.873 337.44 164.123C337.383 164.373 337.276 164.61 337.124 164.817C336.967 165.029 336.769 165.206 336.541 165.339C336.313 165.471 336.06 165.555 335.798 165.586C335.541 165.635 335.276 165.632 335.02 165.577C334.764 165.522 334.521 165.417 334.307 165.267C334.098 165.115 333.922 164.922 333.789 164.7C333.657 164.479 333.571 164.232 333.537 163.976C333.48 163.722 333.474 163.459 333.521 163.203C333.568 162.946 333.666 162.702 333.81 162.485Z" fill="#DCDFE6"/>
<path d="M329.584 157.233C329.461 157.153 329.324 157.099 329.18 157.073C329.037 157.047 328.889 157.049 328.746 157.08C328.603 157.11 328.468 157.169 328.347 157.252C328.227 157.335 328.125 157.441 328.045 157.564C327.966 157.687 327.912 157.824 327.885 157.968C327.859 158.112 327.861 158.259 327.892 158.402C327.923 158.545 327.982 158.681 328.065 158.801C328.148 158.921 328.254 159.024 328.377 159.103C328.628 159.257 328.928 159.312 329.217 159.257C329.359 159.229 329.494 159.171 329.612 159.088C329.731 159.004 329.83 158.896 329.904 158.772C329.988 158.653 330.046 158.518 330.074 158.375C330.103 158.232 330.101 158.085 330.069 157.943C330.04 157.798 329.982 157.661 329.899 157.539C329.816 157.416 329.709 157.313 329.584 157.233Z" fill="#DCDFE6"/>
<path d="M337.507 155.455L330.641 156.914L331.017 158.686L337.883 157.226L337.507 155.455Z" fill="#DCDFE6"/>
<path d="M336.754 151.881L326.766 154.188L327.173 155.952L337.162 153.646L336.754 151.881Z" fill="#DCDFE6"/>
<path d="M334.1 148.655C334.019 148.789 333.966 148.938 333.943 149.093C333.919 149.248 333.927 149.406 333.966 149.558C334.005 149.71 334.073 149.853 334.167 149.978C334.261 150.104 334.379 150.209 334.515 150.288C334.648 150.37 334.796 150.425 334.95 150.449C335.105 150.474 335.262 150.467 335.414 150.43C335.567 150.393 335.71 150.325 335.836 150.232C335.962 150.138 336.068 150.021 336.148 149.886C336.23 149.75 336.283 149.6 336.306 149.443C336.328 149.287 336.319 149.127 336.279 148.974C336.243 148.823 336.177 148.68 336.083 148.555C335.989 148.431 335.87 148.328 335.734 148.252C335.603 148.166 335.455 148.108 335.3 148.084C335.144 148.059 334.986 148.068 334.834 148.11C334.682 148.148 334.539 148.215 334.413 148.309C334.287 148.402 334.181 148.52 334.1 148.655Z" fill="#DCDFE6"/>
<path d="M331.536 141.943C331.849 141.999 332.137 142.148 332.365 142.369C332.609 142.611 332.784 142.913 332.874 143.245C332.947 143.484 332.971 143.735 332.945 143.983C332.919 144.231 332.842 144.471 332.72 144.689C332.593 144.909 332.422 145.101 332.219 145.253C332.015 145.406 331.783 145.516 331.536 145.577C331.293 145.655 331.037 145.683 330.783 145.661C330.529 145.639 330.282 145.566 330.057 145.447C329.696 145.233 329.413 144.91 329.249 144.525C329.085 144.14 329.049 143.712 329.145 143.304C329.218 142.991 329.388 142.71 329.63 142.499L328.317 141.315C327.865 141.744 327.548 142.295 327.405 142.902C327.21 143.699 327.28 144.538 327.605 145.292C327.929 146.046 328.491 146.674 329.204 147.08C330.073 147.543 331.087 147.65 332.032 147.378C332.978 147.106 333.781 146.477 334.271 145.624C334.657 144.902 334.797 144.074 334.671 143.264C334.545 142.455 334.16 141.709 333.572 141.138C333.119 140.699 332.554 140.392 331.939 140.25L331.536 141.943Z" fill="#DCDFE6"/>
<path d="M327.311 132.603C326.847 132.759 326.421 133.009 326.058 133.337C325.696 133.664 325.405 134.064 325.204 134.509C324.823 135.298 324.728 136.195 324.936 137.046C325.143 137.897 325.64 138.649 326.341 139.174C327.042 139.699 327.904 139.964 328.779 139.923C329.654 139.883 330.488 139.539 331.137 138.952C331.787 138.364 332.212 137.569 332.34 136.703C332.468 135.836 332.291 134.952 331.838 134.202C331.386 133.452 330.687 132.882 329.861 132.59C329.035 132.299 328.134 132.303 327.311 132.603ZM330.4 135.433C330.503 135.662 330.557 135.91 330.557 136.161C330.557 136.412 330.503 136.66 330.4 136.889C330.289 137.12 330.132 137.327 329.939 137.495C329.746 137.664 329.52 137.792 329.276 137.871C329.041 137.974 328.787 138.027 328.53 138.027C328.273 138.027 328.019 137.974 327.784 137.871C327.557 137.765 327.354 137.614 327.187 137.427C327.02 137.239 326.893 137.02 326.814 136.782C326.711 136.551 326.658 136.301 326.658 136.048C326.658 135.795 326.711 135.545 326.814 135.314C326.922 135.082 327.077 134.874 327.268 134.703C327.459 134.532 327.683 134.402 327.926 134.32C328.162 134.217 328.415 134.164 328.672 134.164C328.929 134.164 329.183 134.217 329.418 134.32C329.651 134.425 329.86 134.578 330.029 134.77C330.199 134.962 330.325 135.188 330.4 135.433Z" fill="#DCDFE6"/>
<path d="M176.875 333.829C176.31 333.789 175.744 333.889 175.226 334.118C174.708 334.347 174.254 334.699 173.903 335.143C173.167 336.251 172.753 337.541 172.707 338.87C172.661 340.199 172.985 341.515 173.643 342.671C173.956 343.143 174.383 343.528 174.883 343.793C175.383 344.057 175.942 344.193 176.508 344.187C177.075 344.232 177.644 344.136 178.165 343.906C178.686 343.677 179.141 343.322 179.491 342.873C180.278 341.795 180.693 340.49 180.674 339.156C180.795 337.822 180.47 336.486 179.751 335.356C179.436 334.883 179.007 334.496 178.505 334.229C178.003 333.963 177.443 333.825 176.875 333.829ZM178.058 341.488C177.888 341.736 177.658 341.938 177.389 342.074C177.12 342.21 176.821 342.276 176.52 342.265C176.219 342.254 175.925 342.168 175.666 342.013C175.407 341.859 175.192 341.641 175.04 341.381C174.684 340.62 174.537 339.779 174.614 338.943C174.601 338.115 174.805 337.299 175.206 336.575C175.373 336.321 175.603 336.114 175.874 335.974C176.144 335.834 176.446 335.767 176.751 335.777C177.055 335.788 177.351 335.877 177.612 336.035C177.872 336.194 178.087 336.416 178.236 336.682C178.551 337.457 178.698 338.291 178.668 339.127C178.637 339.964 178.43 340.785 178.058 341.535V341.488Z" fill="#DCDFE6"/>
<path d="M42.5708 117.853L44.2281 118.741L47.6728 112.265L46.0037 111.39L44.7489 113.745L37.6108 109.945L36.6875 111.685L43.8256 115.485L42.5708 117.853Z" fill="#DCDFE6"/>
<path d="M35.5695 118.369L37.6175 119.281L36.0785 122.726L37.7713 123.471L39.3102 120.027L41.2398 120.891L39.5707 124.667L41.2871 125.425L43.7612 119.861L34.658 115.812L32.1484 121.435L33.8649 122.205L35.5695 118.369Z" fill="#DCDFE6"/>
<path d="M32.4571 125.775L40.0095 128.675L40.7079 126.841L31.4035 123.266L29.3438 128.652L31.0957 129.326L32.4571 125.775Z" fill="#DCDFE6"/>
<path d="M29.9256 132.7L32.0563 133.387L30.8844 136.974L32.6482 137.554L33.8083 133.967L35.8325 134.618L34.5541 138.548L36.3415 139.128L38.2237 133.328L28.7418 130.25L26.8359 136.11L28.6234 136.69L29.9256 132.7Z" fill="#DCDFE6"/>
<path d="M28.4374 144.606L30.2604 145.091L31.2547 141.362L33.5394 141.966L32.5095 145.813L34.3207 146.31L35.8596 140.557L26.2356 137.977L25.7266 139.871L29.4436 140.865L28.4374 144.606Z" fill="#DCDFE6"/>
<path d="M26.7973 156.254C27.4605 156.412 28.1484 156.436 28.8211 156.326C29.4938 156.215 30.1379 155.972 30.716 155.611C31.2941 155.25 31.7948 154.778 32.1889 154.221C32.583 153.665 32.8628 153.036 33.0121 152.371C33.1712 151.709 33.1966 151.021 33.0868 150.349C32.977 149.676 32.7343 149.032 32.3728 148.455C32.0113 147.877 31.5382 147.378 30.9813 146.985C30.4244 146.592 29.7948 146.315 29.1293 146.168C27.7919 145.854 26.3845 146.085 25.2168 146.808C24.0491 147.532 23.2167 148.69 22.9027 150.027C22.5888 151.365 22.819 152.772 23.5427 153.94C24.2664 155.108 25.4244 155.94 26.7618 156.254H26.7973ZM24.7849 150.465C24.8714 150.051 25.0408 149.657 25.2828 149.31C25.5249 148.962 25.8346 148.666 26.1936 148.441C26.5623 148.212 26.974 148.06 27.4035 147.994C27.8329 147.929 28.2711 147.952 28.6913 148.062C29.1168 148.149 29.5205 148.321 29.8783 148.567C30.2362 148.813 30.541 149.129 30.7747 149.495C31.0001 149.854 31.1499 150.256 31.215 150.675C31.2802 151.094 31.2592 151.522 31.1535 151.933C31.0696 152.351 30.9001 152.746 30.6556 153.094C30.411 153.443 30.0969 153.737 29.7331 153.958C29.1858 154.309 28.546 154.49 27.8957 154.476C27.2453 154.462 26.6139 154.254 26.0824 153.879C25.5509 153.503 25.1435 152.978 24.9123 152.37C24.6812 151.762 24.6368 151.099 24.7849 150.465Z" fill="#DCDFE6"/>
<path d="M30.7777 164.61L24.7641 163.77L31.3695 160.384L31.5826 158.905L21.71 157.508L21.4378 159.461L27.475 160.313L20.8459 163.687L20.6328 165.167L30.5054 166.552L30.7777 164.61Z" fill="#DCDFE6"/>
<path d="M24.5741 178.02C25.6 178.095 26.6252 177.864 27.5196 177.356C28.4141 176.847 29.1376 176.085 29.5984 175.166C30.0593 174.246 30.2368 173.21 30.1086 172.189C29.9803 171.169 29.552 170.209 28.8779 169.432C28.2038 168.655 27.3141 168.095 26.3218 167.824C25.3294 167.553 24.2789 167.583 23.3034 167.909C22.3278 168.236 21.4711 168.844 20.8417 169.658C20.2124 170.472 19.8387 171.454 19.768 172.48C19.7105 173.161 19.791 173.846 20.0046 174.495C20.2182 175.144 20.5604 175.743 21.0109 176.256C21.4534 176.778 21.9977 177.203 22.6104 177.506C23.2231 177.809 23.8913 177.984 24.5741 178.02ZM22.7629 170.349C23.4392 169.802 24.2982 169.531 25.1662 169.593C26.0343 169.654 26.8465 170.043 27.4388 170.681C27.9923 171.334 28.2688 172.177 28.209 173.031C28.1493 173.884 27.7582 174.681 27.1191 175.25C26.7962 175.53 26.4199 175.741 26.013 175.872C25.6061 176.002 25.177 176.048 24.7516 176.008C24.3237 175.992 23.9035 175.889 23.5165 175.706C23.1295 175.522 22.7838 175.262 22.5004 174.941C22.217 174.62 22.0018 174.245 21.8679 173.838C21.7339 173.431 21.684 173.002 21.7212 172.575C21.7374 172.153 21.838 171.739 22.0169 171.357C22.1958 170.975 22.4495 170.632 22.7629 170.349Z" fill="#DCDFE6"/>
<path d="M22.35 186.927C22.6142 186.93 22.8774 186.894 23.1313 186.82C23.3487 186.76 23.559 186.677 23.7586 186.572C23.9441 186.45 24.1115 186.302 24.2558 186.134C24.3926 185.972 24.5191 185.802 24.6347 185.625C24.7583 185.427 24.8614 185.216 24.9424 184.997C25.0529 184.737 25.1357 184.524 25.191 184.358L25.4041 183.672C25.5348 183.139 25.7507 182.632 26.0433 182.168C26.1274 182.046 26.2407 181.946 26.3729 181.877C26.5051 181.809 26.6522 181.775 26.8009 181.778C26.9409 181.775 27.0795 181.806 27.2052 181.867C27.3308 181.929 27.4398 182.02 27.523 182.133C27.7193 182.413 27.8153 182.75 27.7953 183.092C27.8035 183.502 27.6852 183.905 27.4565 184.246C27.2278 184.587 26.8997 184.849 26.5168 184.997L27.4757 186.643C28.1432 186.333 28.7094 185.84 29.1093 185.222C29.5135 184.586 29.7195 183.845 29.7012 183.092C29.7366 182.23 29.4495 181.386 28.8962 180.724C28.6348 180.41 28.3045 180.159 27.9309 179.993C27.5572 179.827 27.1504 179.749 26.7417 179.765C26.3336 179.759 25.9291 179.844 25.558 180.014C25.2188 180.165 24.9279 180.406 24.7175 180.712C24.505 180.998 24.3262 181.308 24.1848 181.636C24.021 182.019 23.8865 182.415 23.7823 182.819C23.6431 183.405 23.4282 183.97 23.1431 184.5C23.0626 184.645 22.9438 184.765 22.7997 184.846C22.6555 184.927 22.4917 184.968 22.3263 184.962C22.179 184.964 22.0333 184.93 21.9015 184.864C21.7697 184.799 21.6556 184.702 21.5687 184.583C21.3527 184.227 21.2496 183.815 21.2727 183.399C21.2362 182.901 21.3665 182.405 21.643 181.99C21.9195 181.574 22.3265 181.262 22.7998 181.103L21.8173 179.422C21.077 179.683 20.4442 180.183 20.0179 180.842C19.5581 181.593 19.3277 182.461 19.355 183.34C19.3164 184.279 19.6005 185.202 20.16 185.956C20.4257 186.276 20.7616 186.529 21.1414 186.698C21.5213 186.866 21.9348 186.945 22.35 186.927Z" fill="#DCDFE6"/>
<path d="M24.8494 188.584C24.7417 188.701 24.6589 188.84 24.606 188.99C24.5531 189.141 24.5312 189.3 24.5416 189.46C24.5412 189.622 24.5743 189.783 24.6389 189.933C24.7035 190.082 24.7982 190.216 24.9171 190.327C25.0359 190.438 25.1764 190.524 25.3297 190.578C25.483 190.633 25.6459 190.655 25.8082 190.643C25.9682 190.637 26.1252 190.597 26.2697 190.528C26.4142 190.459 26.5431 190.361 26.6487 190.241C26.7573 190.124 26.8413 189.987 26.8956 189.837C26.9498 189.687 26.9732 189.528 26.9644 189.368C26.9556 189.209 26.9146 189.053 26.8441 188.91C26.7736 188.767 26.6749 188.64 26.554 188.536C26.4377 188.43 26.3013 188.348 26.1529 188.295C26.0045 188.242 25.8471 188.22 25.6898 188.228C25.5332 188.229 25.3783 188.261 25.234 188.322C25.0897 188.383 24.959 188.472 24.8494 188.584Z" fill="#DCDFE6"/>
<path d="M25.6058 203.59C26.9426 203.545 28.2276 203.063 29.2636 202.217C29.6746 201.831 29.9926 201.357 30.1938 200.83C30.395 200.303 30.474 199.737 30.425 199.176C30.376 198.614 30.2003 198.07 29.9109 197.586C29.6216 197.102 29.2262 196.69 28.7546 196.381C27.5654 195.795 26.2381 195.545 24.9171 195.66C23.5961 195.775 22.3317 196.249 21.2614 197.032C20.8505 197.418 20.5324 197.893 20.3313 198.419C20.1301 198.946 20.051 199.512 20.1 200.074C20.149 200.635 20.3248 201.179 20.6142 201.663C20.9035 202.147 21.2988 202.559 21.7704 202.868C22.9337 203.527 24.2827 203.781 25.6058 203.59ZM22.7174 198.334C23.4506 197.931 24.2598 197.685 25.0934 197.611C25.927 197.538 26.7667 197.639 27.559 197.908C27.8286 198.046 28.0587 198.251 28.2276 198.502C28.3965 198.753 28.4988 199.044 28.5249 199.345C28.5509 199.647 28.4998 199.951 28.3764 200.227C28.2531 200.504 28.0614 200.745 27.8195 200.927C27.1083 201.373 26.2912 201.622 25.4519 201.649C24.6224 201.773 23.7746 201.667 23.0016 201.341C22.7243 201.214 22.4873 201.013 22.3161 200.761C22.145 200.508 22.0463 200.213 22.0309 199.909C21.9892 199.609 22.0313 199.303 22.1524 199.025C22.2736 198.747 22.4691 198.508 22.7174 198.334Z" fill="#DCDFE6"/>
<path d="M23.9556 213.17L25.7549 212.85L25.5655 211.797L27.8975 211.382L27.5542 209.441L25.2222 209.843L24.7724 207.298L31.6974 209.429L31.3304 207.358L24.4054 205.203L22.6061 205.523L23.4229 210.163L21.7656 210.459L22.1089 212.412L23.7662 212.116L23.9556 213.17Z" fill="#DCDFE6"/>
<path d="M24.8606 216.882L27.2282 218.385C27.7119 218.762 28.2655 219.038 28.8568 219.198C29.4481 219.359 30.0654 219.4 30.6729 219.321C31.0985 219.256 31.5036 219.094 31.8567 218.848C32.2097 218.601 32.5014 218.277 32.709 217.9C33.1244 217.159 33.2469 216.289 33.0523 215.462C32.9233 214.789 32.6026 214.168 32.129 213.674C31.6371 213.17 31.0067 212.824 30.3178 212.68L29.7141 214.491C30.0742 214.544 30.4092 214.706 30.6739 214.956C30.9385 215.206 31.12 215.531 31.1938 215.888C31.2409 216.053 31.2516 216.226 31.225 216.396C31.1985 216.566 31.1353 216.727 31.0399 216.87C30.9447 217.014 30.821 217.136 30.6764 217.23C30.5318 217.324 30.3694 217.387 30.1994 217.415C29.4089 217.455 28.6307 217.207 28.0095 216.716L23.8308 214.148L22.3984 214.443L23.7835 220.966L25.6419 220.575L24.8606 216.882Z" fill="#DCDFE6"/>
<path d="M31.5582 227.254L31.0374 225.348L28.7527 225.952L28.0898 223.454L35.1687 224.981L34.6242 222.945L27.5453 221.406L25.7815 221.88L27.0008 226.425L25.3672 226.863L25.8762 228.781L27.5098 228.343L27.7821 229.373L29.5459 228.899L29.2736 227.87L31.5582 227.254Z" fill="#DCDFE6"/>
<path d="M32.8527 233.405L31.1953 234.008L33.0213 239.025L34.6787 238.421L32.8527 233.405Z" fill="#DCDFE6"/>
<path d="M33.1883 243.828L35.7334 244.906C36.8287 245.475 38.103 245.594 39.2847 245.237C39.689 245.092 40.0564 244.86 40.3612 244.557C40.666 244.254 40.9006 243.888 41.0485 243.485C41.3185 242.677 41.2891 241.799 40.9657 241.011C40.7225 240.381 40.3134 239.829 39.7819 239.413C39.2107 239.004 38.531 238.773 37.8287 238.75L37.5446 240.644C37.9085 240.632 38.2673 240.733 38.5722 240.932C38.8771 241.131 39.1134 241.419 39.2492 241.757C39.3297 241.911 39.3751 242.082 39.3822 242.256C39.3892 242.43 39.3576 242.604 39.2898 242.764C39.2219 242.925 39.1195 243.069 38.9897 243.185C38.8599 243.301 38.706 243.388 38.539 243.438C37.7689 243.61 36.9626 243.501 36.2661 243.13L31.7441 241.283L30.3828 241.84L32.8805 248.007L34.6325 247.297L33.1883 243.828Z" fill="#DCDFE6"/>
<path d="M39.2528 254.401C39.6683 254.234 40.0413 253.976 40.3444 253.647C40.6475 253.317 40.8731 252.924 41.0047 252.496C41.2475 251.644 41.1631 250.732 40.768 249.939L40.33 249.015L42.011 248.364L43.6327 251.845L45.3018 251.063L42.9343 245.938L37.7494 247.914L39.016 250.649C39.2097 251.012 39.2604 251.434 39.1581 251.833C39.1082 252.009 39.0181 252.171 38.8949 252.307C38.7716 252.442 38.6186 252.548 38.4478 252.614C38.2791 252.692 38.0953 252.733 37.9092 252.733C37.7232 252.733 37.5393 252.692 37.3706 252.614C36.9931 252.42 36.6987 252.097 36.542 251.702C36.3363 251.365 36.2567 250.966 36.3174 250.576C36.3781 250.186 36.5751 249.83 36.8734 249.572L35.2753 248.459C34.7723 248.966 34.4588 249.63 34.3875 250.341C34.3297 251.087 34.4728 251.835 34.8018 252.507C35.1666 253.355 35.8271 254.041 36.6603 254.437C37.0675 254.626 37.5119 254.72 37.9606 254.714C38.4093 254.708 38.8509 254.601 39.2528 254.401Z" fill="#DCDFE6"/>
<path d="M48.8798 257.76L45.8493 252.078L44.1921 252.966L46.1926 256.718L37.5156 257.63L38.4982 259.465L47.4119 258.541L48.8798 257.76Z" fill="#DCDFE6"/>
<path d="M50.6429 269.091C50.7639 268.214 50.5528 267.323 50.051 266.593L49.4946 265.729L51.069 264.865L53.1525 268.073L54.6913 267.079L51.6135 262.344L46.7601 265.031L48.3937 267.564C48.5214 267.731 48.6144 267.922 48.6673 268.125C48.7201 268.328 48.7318 268.54 48.7015 268.748C48.6713 268.931 48.6016 269.105 48.4974 269.258C48.3931 269.412 48.2568 269.54 48.0978 269.636C47.9484 269.746 47.7752 269.819 47.5922 269.85C47.4092 269.881 47.2215 269.868 47.0442 269.813C46.7695 269.705 46.5224 269.537 46.321 269.322C46.1197 269.106 45.9692 268.848 45.8807 268.566C45.7921 268.285 45.7677 267.987 45.8093 267.695C45.8509 267.402 45.9573 267.123 46.1209 266.878L44.3808 266.002C43.9559 266.575 43.7426 267.278 43.777 267.99C43.8239 268.736 44.0691 269.455 44.4873 270.074C44.9647 270.861 45.7144 271.447 46.5944 271.719C47.0292 271.85 47.4884 271.878 47.936 271.802C48.3836 271.726 48.8076 271.548 49.175 271.281C49.57 271.052 49.9074 270.735 50.1618 270.356C50.4161 269.976 50.5806 269.544 50.6429 269.091Z" fill="#DCDFE6"/>
<path d="M54.9501 273.094L58.8684 272.987L57.5426 271.164L51.9316 271.413C51.2214 271.444 50.5369 271.687 49.9665 272.111C49.5808 272.371 49.2533 272.709 49.0047 273.102C48.7561 273.495 48.5918 273.936 48.5223 274.396C48.4407 275.35 48.7058 276.301 49.269 277.075C49.8321 277.849 50.6556 278.394 51.5883 278.61C52.5033 278.751 53.4374 278.53 54.1914 277.992C54.9455 277.455 55.4598 276.645 55.6249 275.733C55.6917 275.271 55.6665 274.799 55.5508 274.346C55.435 273.893 55.2308 273.468 54.9501 273.094ZM53.0561 276.373C52.8923 276.506 52.7023 276.604 52.4983 276.659C52.2943 276.714 52.081 276.725 51.8723 276.692C51.4418 276.602 51.0635 276.347 50.8188 275.982C50.5553 275.647 50.4323 275.222 50.4755 274.798C50.5069 274.58 50.5844 274.371 50.7027 274.186C50.8211 274 50.9777 273.842 51.1621 273.721C51.3261 273.588 51.5165 273.492 51.7207 273.439C51.9249 273.386 52.138 273.377 52.3458 273.413C52.7695 273.512 53.1432 273.76 53.3978 274.112C53.6524 274.465 53.7707 274.898 53.7309 275.331C53.6963 275.545 53.616 275.748 53.4955 275.928C53.3749 276.108 53.217 276.26 53.0324 276.373H53.0561Z" fill="#DCDFE6"/>
<path d="M64.3361 285.176C64.7001 284.891 65.0008 284.533 65.2189 284.125C65.437 283.718 65.5677 283.269 65.6027 282.808C65.6098 281.852 65.2749 280.924 64.6585 280.193C64.0421 279.461 63.1847 278.974 62.2408 278.819C61.3212 278.764 60.4151 279.061 59.707 279.651C58.9988 280.24 58.5419 281.077 58.4291 281.991C58.3663 282.928 58.677 283.852 59.2933 284.56L55.375 284.951L56.8192 286.667L62.4066 286.04C63.1225 285.954 63.7956 285.653 64.3361 285.176ZM61.8739 284.075C61.4432 284.009 61.051 283.789 60.7702 283.456C60.4894 283.123 60.3389 282.699 60.3468 282.264C60.3947 281.828 60.6082 281.428 60.9433 281.146C61.2783 280.864 61.709 280.722 62.1461 280.749C62.5748 280.806 62.9649 281.026 63.2352 281.364C63.5316 281.685 63.689 282.111 63.6732 282.548C63.6311 282.986 63.4191 283.389 63.0827 283.673C62.7463 283.956 62.3124 284.096 61.8739 284.063V284.075Z" fill="#DCDFE6"/>
<path d="M67.1536 288.725L66.4552 287.967L67.852 286.783L70.4563 289.577L71.8058 288.393L67.9468 284.25L63.626 287.742L65.6858 289.944C65.976 290.231 66.1526 290.614 66.1829 291.021C66.1908 291.206 66.1553 291.39 66.0793 291.559C66.0032 291.727 65.8887 291.876 65.745 291.992C65.6179 292.128 65.4605 292.232 65.2857 292.296C65.1109 292.359 64.9235 292.381 64.7387 292.359C64.3211 292.296 63.9415 292.081 63.6734 291.755C63.3712 291.5 63.1697 291.145 63.1046 290.755C63.0396 290.365 63.1153 289.964 63.3183 289.624L61.4597 289.068C61.1351 289.703 61.0429 290.432 61.1993 291.128C61.3759 291.854 61.7437 292.521 62.2647 293.057C62.8726 293.753 63.7155 294.199 64.6322 294.312C65.0824 294.367 65.5393 294.316 65.9667 294.164C66.394 294.012 66.7801 293.763 67.0945 293.436C67.4413 293.148 67.7191 292.786 67.9076 292.376C68.0961 291.966 68.1903 291.519 68.1835 291.068C68.1436 290.186 67.7764 289.351 67.1536 288.725Z" fill="#DCDFE6"/>
<path d="M80.4849 294.812L67.5938 300.293L68.1856 300.838L81.0887 295.357L80.4849 294.812Z" fill="#DCDFE6"/>
<path d="M86.7341 308.296C87.6184 307.309 88.1621 306.064 88.2848 304.745C88.2913 304.18 88.1701 303.622 87.9302 303.111C87.6903 302.601 87.3379 302.151 86.8995 301.795C86.4611 301.44 85.9481 301.189 85.3987 301.06C84.8494 300.931 84.278 300.928 83.7273 301.051C82.4466 301.442 81.3257 302.235 80.5312 303.312C79.6497 304.3 79.1101 305.545 78.9923 306.864C78.988 307.426 79.1104 307.981 79.3504 308.489C79.5904 308.998 79.9418 309.445 80.3786 309.799C80.8153 310.153 81.3262 310.403 81.8731 310.533C82.4201 310.662 82.9891 310.666 83.5379 310.545C84.8205 310.165 85.9432 309.375 86.7341 308.296ZM83.2894 308.627C83.0041 308.736 82.6946 308.764 82.3943 308.71C82.094 308.656 81.8142 308.521 81.5847 308.32C81.3399 308.139 81.1496 307.894 81.0348 307.612C80.92 307.33 80.885 307.022 80.9337 306.722C81.1069 305.901 81.495 305.141 82.0582 304.52C82.5519 303.835 83.2174 303.291 83.9878 302.945C84.2749 302.844 84.5831 302.818 84.8831 302.87C85.1832 302.921 85.4651 303.048 85.7023 303.239C85.9394 303.43 86.1238 303.678 86.2381 303.96C86.3524 304.242 86.3927 304.549 86.3553 304.851C86.1422 305.661 85.7598 306.416 85.2334 307.067C84.7069 307.718 84.0484 308.25 83.3012 308.627H83.2894Z" fill="#DCDFE6"/>
<path d="M92.4131 314.041L93.7745 312.1L92.1527 310.963L90.7914 312.905L88.6724 311.425L95.0766 308.028L93.3483 306.82L86.9323 310.206L85.8906 311.697L89.7497 314.396L88.779 315.781L90.4008 316.918L91.3714 315.533L92.2474 316.148L93.2891 314.657L92.4131 314.041Z" fill="#DCDFE6"/>
<path d="M98.4681 317.431C99.0749 317.347 99.6587 317.143 100.185 316.83C100.712 316.517 101.17 316.101 101.534 315.608C101.778 315.255 101.94 314.851 102.007 314.427C102.075 314.003 102.047 313.57 101.925 313.158C101.684 312.342 101.143 311.648 100.409 311.217C99.8302 310.855 99.1629 310.658 98.4799 310.648C97.7744 310.653 97.0862 310.867 96.503 311.264L97.3909 312.957C97.6767 312.729 98.0267 312.596 98.3918 312.577C98.7569 312.558 99.1189 312.653 99.4269 312.85C99.5751 312.936 99.7048 313.05 99.8084 313.186C99.9121 313.322 99.9876 313.478 100.031 313.643C100.101 313.987 100.033 314.344 99.8412 314.638C99.3142 315.226 98.5981 315.611 97.817 315.727L93.0819 316.911L92.3125 318.153L97.959 321.705L98.9652 320.107L95.7809 318.118L98.4681 317.431Z" fill="#DCDFE6"/>
<path d="M107.258 315.438L102.298 318.018C101.667 318.352 101.151 318.867 100.818 319.498C100.577 319.895 100.422 320.338 100.363 320.799C100.304 321.26 100.342 321.728 100.475 322.173C100.785 323.077 101.44 323.822 102.298 324.245C103.127 324.74 104.118 324.889 105.056 324.659C105.503 324.534 105.92 324.318 106.281 324.025C106.641 323.731 106.938 323.367 107.151 322.954C107.384 322.565 107.535 322.132 107.594 321.682C107.653 321.232 107.619 320.775 107.494 320.338C107.191 319.463 106.558 318.741 105.731 318.326L109.282 316.574L107.258 315.438ZM105.399 322.055C105.3 322.251 105.16 322.423 104.988 322.56C104.817 322.697 104.618 322.795 104.405 322.848C103.975 322.935 103.528 322.863 103.147 322.645C102.765 322.428 102.476 322.079 102.333 321.664C102.23 321.235 102.295 320.782 102.515 320.399C102.735 320.015 103.094 319.731 103.517 319.604C103.94 319.509 104.384 319.577 104.76 319.794C104.955 319.893 105.129 320.029 105.271 320.196C105.414 320.363 105.521 320.556 105.589 320.764C105.654 320.98 105.671 321.208 105.638 321.431C105.606 321.654 105.524 321.867 105.399 322.055Z" fill="#DCDFE6"/>
<path d="M136.017 327.346C135.568 327.186 135.091 327.118 134.615 327.147C134.139 327.175 133.674 327.299 133.247 327.512C132.431 327.952 131.82 328.693 131.543 329.578C131.267 330.463 131.347 331.42 131.767 332.247C132.224 333.065 132.986 333.669 133.886 333.928L130.82 336.39L132.975 337.041L137.307 333.49C137.874 333.043 138.288 332.43 138.491 331.738C138.643 331.299 138.701 330.833 138.662 330.37C138.623 329.908 138.488 329.458 138.266 329.05C138.025 328.63 137.701 328.262 137.315 327.969C136.929 327.676 136.487 327.464 136.017 327.346ZM136.597 331.134C136.541 331.345 136.441 331.543 136.305 331.714C136.168 331.885 135.998 332.026 135.804 332.128C135.403 332.318 134.944 332.344 134.525 332.199C134.107 332.089 133.749 331.816 133.531 331.442C133.425 331.248 133.361 331.034 133.343 330.814C133.324 330.594 133.352 330.372 133.425 330.163C133.479 329.954 133.578 329.759 133.715 329.591C133.852 329.424 134.023 329.288 134.218 329.193C134.616 329.014 135.065 328.985 135.482 329.111C135.9 329.238 136.258 329.51 136.491 329.879C136.602 330.066 136.673 330.275 136.697 330.491C136.722 330.708 136.7 330.927 136.633 331.134H136.597Z" fill="#DCDFE6"/>
<path d="M139.583 333.609L139.156 335.32L144.336 336.613L144.763 334.901L139.583 333.609Z" fill="#DCDFE6"/>
<path d="M152.925 335.769L150.984 335.402L150.534 337.711L147.989 337.225L152.464 331.52L150.392 331.117L145.906 336.811L145.562 338.61L150.191 339.51L149.86 341.167L151.813 341.546L152.132 339.877L153.174 340.09L153.529 338.303L152.476 338.09L152.925 335.769Z" fill="#DCDFE6"/>
<path d="M161.381 337.022L159.416 336.75L159.096 339.082L156.528 338.727L160.694 332.796L158.611 332.5L154.432 338.431L154.172 340.23L158.836 340.893L158.599 342.562L160.564 342.846L160.801 341.165L161.854 341.307L162.103 339.508L161.05 339.354L161.381 337.022Z" fill="#DCDFE6"/>
<path d="M166.953 334.406L167.308 336.122L169.226 335.732L168.681 343.592L170.635 343.734L171.333 333.79L169.628 333.672L166.953 334.406Z" fill="#DCDFE6"/>
<path d="M230.274 282.595V282.477L230.203 282.607L230.274 282.595Z" fill="#DCDFE6"/>
<path d="M235.812 265.288C238.973 264.625 241.329 264.104 240.725 263.879C238.357 263.879 236.866 263.453 236.156 262.506C236.551 258.496 236.507 254.455 236.025 250.455C237.564 249.887 239.837 249.094 240.003 249.082C238.466 249.126 236.95 248.714 235.647 247.898C234.321 239.993 231.313 232.464 226.827 225.821C227.343 225.323 227.749 224.722 228.018 224.057C228.287 223.393 228.414 222.679 228.39 221.962C228.118 222.497 227.706 222.947 227.196 223.264C226.687 223.581 226.101 223.753 225.502 223.761C225.374 223.226 225.386 222.668 225.538 222.139C225.689 221.61 225.974 221.129 226.366 220.743C226.13 220.648 225.877 220.602 225.623 220.607C225.369 220.612 225.119 220.668 224.887 220.772C224.655 220.876 224.446 221.025 224.273 221.211C224.1 221.398 223.967 221.617 223.88 221.856C222.968 220.672 222.01 219.63 221.003 218.565L221.287 218.411C221.964 218.637 222.682 218.708 223.389 218.618C224.096 218.527 224.774 218.279 225.371 217.89L222.294 217.014C222.299 216.345 222.162 215.683 221.893 215.071C221.623 214.459 221.228 213.911 220.731 213.463C220.758 214.093 220.586 214.715 220.24 215.242C219.893 215.768 219.39 216.173 218.802 216.398L218.328 215.96C219.299 213.771 219.334 212.03 218.458 210.764C217.962 210.713 217.462 210.825 217.035 211.083C216.607 211.342 216.276 211.732 216.091 212.196L215.392 208.467C214.756 208.724 214.178 209.107 213.694 209.593C213.21 210.08 212.829 210.659 212.575 211.296C200.968 203.202 186.737 199.778 172.718 201.708C171.345 200.063 169.454 198.932 167.355 198.5C167.048 199.172 166.958 199.923 167.098 200.649C167.238 201.375 167.601 202.039 168.137 202.548L167.379 202.726C165.011 202.572 163.52 201.803 162.869 200.358C162.519 200.922 162.29 201.551 162.194 202.206C162.098 202.862 162.139 203.531 162.312 204.17C160.243 204.889 158.216 205.723 156.24 206.668C153.872 204.525 152.108 202.975 152.298 203.59C153.584 205.334 154.129 206.755 153.931 207.852C150.332 209.781 146.957 212.104 143.869 214.777C143.052 213.971 142.549 212.901 142.449 211.758C141.59 212.668 140.919 213.739 140.476 214.909C140.033 216.079 139.827 217.326 139.868 218.577C139.572 218.884 139.288 219.204 139.004 219.512C138.395 219.057 137.811 218.571 137.252 218.056C137.004 217.783 137.513 219.417 137.951 220.707C137.548 221.169 137.157 221.631 136.767 222.104L133.807 222.021C133.753 222.497 133.844 222.977 134.068 223.4C134.292 223.822 134.638 224.167 135.062 224.389C132.166 228.4 129.817 232.779 128.078 237.41C126.718 237.896 125.498 238.709 124.527 239.778C124.767 240.17 125.091 240.504 125.476 240.755C125.861 241.007 126.297 241.171 126.752 241.234C126.515 242.015 126.291 242.82 126.089 243.601L125.971 244.098C125.328 244.488 124.575 244.655 123.828 244.572C124.237 245.295 124.794 245.925 125.462 246.419C124.979 248.892 124.663 251.396 124.515 253.912C122.147 254.646 120.62 255.179 121.153 255.309C122.251 255.162 123.368 255.222 124.444 255.486C124.293 259.988 124.691 264.492 125.628 268.898C124.444 269.455 123.26 269.976 123.13 269.999C124.066 269.914 125.009 269.982 125.924 270.2C127.962 278.653 131.933 286.519 137.524 293.177C137.138 294.084 136.98 295.072 137.063 296.054C137.357 295.342 137.883 294.75 138.554 294.373C138.98 294.846 139.407 295.32 139.845 295.782C139.726 296.26 139.499 296.706 139.182 297.084C139.46 297.174 139.757 297.195 140.045 297.146C140.334 297.096 140.606 296.977 140.839 296.8C141.537 297.498 142.259 298.173 142.993 298.836C142.068 298.956 141.186 299.302 140.425 299.842L143.562 300.457C143.614 301.126 143.808 301.775 144.131 302.363C144.453 302.951 144.897 303.463 145.432 303.867C145.363 303.014 145.621 302.168 146.154 301.499L147.279 302.34C147.061 303.018 147.006 303.738 147.119 304.442C147.232 305.145 147.51 305.812 147.93 306.388C148.436 306.394 148.932 306.238 149.343 305.942C149.754 305.646 150.06 305.225 150.214 304.743L151.232 308.4C152.179 307.949 152.94 307.183 153.387 306.234C157.624 308.559 162.144 310.325 166.834 311.49C169.265 312.095 171.733 312.542 174.221 312.828C175.194 314.608 176.718 316.025 178.565 316.864C178.979 316.346 179.232 315.718 179.293 315.057C179.354 314.397 179.221 313.733 178.909 313.147H180.661C181.312 313.365 181.9 313.74 182.371 314.24C182.842 314.74 183.182 315.349 183.36 316.012C184.152 315.181 184.648 314.112 184.768 312.97C187.092 312.793 189.401 312.464 191.682 311.987C193.28 314.272 194.44 315.823 194.392 315.243C193.817 314.106 193.528 312.846 193.552 311.573C200.96 309.766 207.924 306.472 214.019 301.89C214.57 302.299 215.012 302.836 215.307 303.455C215.602 304.074 215.741 304.756 215.712 305.441C216.786 304.473 217.632 303.278 218.189 301.944C218.745 300.609 218.999 299.167 218.932 297.723L219.216 297.451C219.831 298.007 221.169 299.25 221.453 299.617C221.737 299.984 221.039 297.107 220.743 295.924L221.157 295.486L225.206 295.959C225.306 295.328 225.17 294.683 224.822 294.147C224.475 293.612 223.941 293.224 223.324 293.059C225.999 289.851 228.306 286.353 230.201 282.63C224.502 285.68 218.637 288.411 212.634 290.81C212.113 292.81 211.521 294.716 210.894 296.516C213.135 297.1 215.396 297.656 217.677 298.185L215.783 299.439C213.948 298.978 212.137 298.492 210.35 298.007C209.474 300.355 208.426 302.634 207.213 304.825L203.661 306.305C205.272 303.403 206.68 300.393 207.875 297.297C205.307 296.575 202.773 295.829 200.299 295.059C196.606 296.113 192.996 296.953 189.444 297.593C187.427 302.192 186.18 307.09 185.751 312.094L183.135 311.869C183.601 307.109 184.799 302.449 186.686 298.054C180.134 299.065 173.484 299.275 166.882 298.682L165.568 300.801C169.153 304.912 173.369 308.428 178.056 311.218L173.558 311.336C170.336 308.639 167.258 305.775 164.337 302.754C163.287 304.53 162.257 306.341 161.247 308.187L158.797 307.584C159.973 305.264 161.2 302.991 162.478 300.765C161.531 299.723 160.608 298.682 159.72 297.628C155.752 296.845 151.861 295.708 148.095 294.231C146.628 295.332 145.148 296.397 143.633 297.439L141.798 294.965C142.792 294.255 143.787 293.544 144.757 292.822C141.306 291.248 137.985 289.404 134.825 287.306L133.464 284.074C137.698 286.865 142.189 289.243 146.876 291.177C148.64 289.839 150.427 288.454 152.073 287.057C148.738 281.698 146.093 275.939 144.201 269.916C140.817 274.428 137.759 279.175 135.05 284.121L132.967 282.594C135.954 277.209 139.32 272.042 143.041 267.135C139.113 264.091 135.425 260.751 132.008 257.144C130.374 259.511 128.776 261.879 127.214 264.246L126.658 261.287C127.924 259.322 129.203 257.392 130.517 255.51C129.246 254.113 128.062 252.693 126.965 251.248V249.307C128.445 250.929 129.972 252.503 131.535 254.042C134.376 250.025 137.323 246.19 140.377 242.536C137.072 240.165 133.95 237.55 131.037 234.711L132.221 232.711C134.927 235.766 137.933 238.542 141.194 240.997C141.606 236.471 142.346 231.981 143.408 227.561C140.945 227.112 138.452 226.673 135.926 226.247L137.406 224.377C139.596 224.768 141.762 225.158 143.905 225.561C144.973 221.485 146.261 217.47 147.764 213.534L150.854 212.066C148.373 216.378 146.475 220.999 145.207 225.809C148.309 226.401 151.363 226.993 154.369 227.668C157.85 224.432 161.44 221.398 165.142 218.565C160.997 216.16 157.127 213.31 153.6 210.065L155.66 209.071C159.192 212.116 163.014 214.808 167.071 217.109C171.433 213.885 175.979 210.917 180.684 208.219C177.988 206.449 175.194 204.833 172.315 203.377L176.79 202.951C179.003 204.206 181.099 205.52 183.087 206.869C185.51 205.543 187.984 204.285 190.51 203.093L194.428 203.862C191.303 205.247 188.225 206.763 185.206 208.384C190.658 212.338 195.551 217.009 199.755 222.27C201.775 217.456 203.63 212.488 205.319 207.366L207.059 208.242C205.228 213.688 203.255 218.955 201.14 224.046L201.246 224.188C207.244 221.829 213.36 219.786 219.571 218.068L221.737 219.547C215.092 221.583 208.779 223.852 202.797 226.354C203.136 226.835 203.468 227.332 203.791 227.845C211.434 228.462 219.114 228.462 226.756 227.845L228.295 230.39C220.59 230.793 212.866 230.679 205.176 230.047C208.037 234.891 210.314 240.057 211.959 245.436C213.404 246.052 214.824 246.62 216.233 247.307C221.562 244.218 227.051 241.413 232.675 238.902L233.468 240.973C228.373 243.162 223.405 245.636 218.588 248.384C223.324 250.562 227.849 252.854 232.166 255.261C233.09 254.764 234.013 254.255 234.96 253.758L235.848 256.291L234.877 256.765L236.132 257.499L235.611 259.606C234.688 259.014 233.741 258.422 232.782 257.842C227.935 260.36 223.221 263.125 218.66 266.128C224.37 266.176 230.052 265.317 235.493 263.583L235.173 266.022C228.839 267.595 222.318 268.289 215.795 268.082L215.463 268.306C215.529 274.95 214.834 281.578 213.392 288.063C219.641 285.358 225.711 282.254 231.563 278.771L230.379 282.464C230.545 282.121 230.734 281.789 230.9 281.446C232.829 281.217 234.638 280.389 236.073 279.079C235.748 278.483 235.254 277.997 234.654 277.682C234.054 277.366 233.374 277.234 232.699 277.303C232.865 276.877 233.019 276.439 233.184 275.989C233.648 275.39 234.259 274.922 234.959 274.631C235.659 274.34 236.422 274.237 237.174 274.332C236.931 273.737 236.573 273.196 236.12 272.741C235.667 272.285 235.128 271.925 234.534 271.68C234.629 271.325 234.711 270.982 234.806 270.638C235.201 268.863 235.536 267.079 235.812 265.288Z" fill="#DCDFE6"/>
<path d="M200.519 227.367L200.141 227.533L200.673 227.592L200.519 227.367Z" fill="#DCDFE6"/>
<path d="M150.289 292.555C152.657 293.372 154.941 294.082 157.297 294.662C156.054 293.052 154.87 291.419 153.746 289.773C152.621 290.72 151.461 291.644 150.289 292.555Z" fill="#DCDFE6"/>
<path d="M198.452 225.372L198.677 224.851C194.198 219.039 188.862 213.942 182.85 209.734C178.193 212.366 173.691 215.263 169.367 218.411C177.454 222.558 186.149 225.391 195.126 226.804C196.215 226.319 197.328 225.833 198.452 225.372Z" fill="#DCDFE6"/>
<path d="M144.734 227.844C143.878 231.589 143.363 235.405 143.195 239.243C146.242 235.771 149.398 232.484 152.665 229.383C150.045 228.846 147.402 228.333 144.734 227.844Z" fill="#DCDFE6"/>
<path d="M209.129 244.29C207.375 239.217 205.035 234.367 202.157 229.836C200.973 229.706 199.908 229.576 198.795 229.422C197.359 232.579 195.859 235.668 194.297 238.691C199.419 240.482 204.363 242.349 209.129 244.29Z" fill="#DCDFE6"/>
<path d="M196.739 229.125H196.597C192.296 231.098 188.18 233.205 184.25 235.446C186.961 236.287 189.636 237.139 192.264 238.027C193.842 235.115 195.334 232.148 196.739 229.125Z" fill="#DCDFE6"/>
<path d="M191.884 228.284C183.352 226.706 175.102 223.87 167.403 219.867C163.907 222.503 160.502 225.324 157.188 228.331C165.261 230.13 173.01 232.103 180.437 234.25C184.106 232.155 187.918 230.142 191.884 228.284Z" fill="#DCDFE6"/>
<path d="M156.351 252.257C151.792 249.953 147.38 247.367 143.141 244.516C143.335 250.914 144.264 257.27 145.911 263.456C149.158 259.512 152.645 255.772 156.351 252.257Z" fill="#DCDFE6"/>
<path d="M160.375 252.408C166.257 255.172 172.315 257.545 178.51 259.511C183.292 253.17 187.616 246.496 191.449 239.541C188.43 238.546 185.341 237.587 182.156 236.664C174.399 241.188 167.104 246.462 160.375 252.408Z" fill="#DCDFE6"/>
<path d="M143.305 242.564C147.841 245.767 152.623 248.609 157.604 251.064C163.977 245.203 170.921 239.996 178.332 235.521C171.088 233.508 163.448 231.65 155.415 229.945C151.156 233.933 147.114 238.145 143.305 242.564Z" fill="#DCDFE6"/>
<path d="M161.201 278.951C156.718 276.528 152.371 273.86 148.18 270.961C149.902 275.816 152.008 280.526 154.477 285.048C156.782 283.075 159.023 281.043 161.201 278.951Z" fill="#DCDFE6"/>
<path d="M208.419 295.832C208.88 294.554 209.318 293.251 209.721 291.938C207.424 292.79 205.163 293.559 202.914 294.305C204.725 294.79 206.56 295.311 208.419 295.832Z" fill="#DCDFE6"/>
<path d="M177.353 261.008C171.126 258.929 165.037 256.458 159.123 253.609C154.719 257.641 150.62 261.993 146.859 266.631L147.061 267.329C152.096 271.027 157.35 274.419 162.793 277.486C168.014 272.329 172.878 266.824 177.353 261.008Z" fill="#DCDFE6"/>
<path d="M140.95 245.391C138.251 248.65 135.627 252.051 133.078 255.595C136.093 258.499 139.249 261.261 142.548 263.881C141.245 257.808 140.709 251.597 140.95 245.391Z" fill="#DCDFE6"/>
<path d="M214.461 248.349L212.531 247.484C212.685 248.076 212.851 248.668 212.993 249.236L214.461 248.349Z" fill="#DCDFE6"/>
<path d="M181.148 260.319C185.232 261.503 189.34 262.58 193.4 263.433C198.94 258.706 204.811 254.382 210.967 250.494C210.624 249.097 210.233 247.712 209.784 246.327C204.662 244.165 199.236 242.121 193.507 240.195C189.845 247.174 185.716 253.897 181.148 260.319Z" fill="#DCDFE6"/>
<path d="M174.189 283.38C179.423 276.736 185.247 270.58 191.59 264.985C187.731 264.109 183.848 263.055 180.013 261.859C175.592 267.913 170.742 273.642 165.5 279C168.349 280.531 171.245 281.991 174.189 283.38Z" fill="#DCDFE6"/>
<path d="M164.045 280.445C161.48 283.002 158.824 285.453 156.078 287.797C157.645 290.444 159.348 293.008 161.18 295.479C162.514 295.724 163.863 295.937 165.229 296.118C167.667 292.172 170.279 288.404 173.065 284.813C169.94 283.417 166.933 281.961 164.045 280.445Z" fill="#DCDFE6"/>
<path d="M163.679 298.672L163.892 298.329L163.336 298.258L163.679 298.672Z" fill="#DCDFE6"/>
<path d="M213.137 266.048C212.975 261.566 212.425 257.106 211.491 252.719C206.223 256.145 201.189 259.917 196.422 264.012C201.94 265.073 207.525 265.753 213.137 266.048Z" fill="#DCDFE6"/>
<path d="M215.343 265.624C220.112 262.285 225.051 259.195 230.14 256.367C225.965 253.944 221.51 251.631 216.775 249.43C215.674 250.081 214.573 250.744 213.484 251.43C214.525 256.097 215.147 260.847 215.343 265.624Z" fill="#DCDFE6"/>
<path d="M212.14 267.953C206.235 267.596 200.363 266.805 194.573 265.586C188.091 271.365 182.13 277.703 176.758 284.526C181.232 286.554 185.877 288.44 190.691 290.184C195.56 282.443 202.71 275.032 212.14 267.953Z" fill="#DCDFE6"/>
<path d="M168.234 296.461C174.716 297.01 181.24 296.759 187.66 295.715C188.323 294.318 189.057 292.945 189.874 291.572C184.902 289.796 180.167 287.934 175.668 285.984C173.08 289.338 170.602 292.831 168.234 296.461Z" fill="#DCDFE6"/>
<path d="M190.539 295.22C192.544 294.826 194.56 294.372 196.588 293.859C195.061 293.362 193.569 292.865 192.09 292.344C191.533 293.303 191.084 294.25 190.539 295.22Z" fill="#DCDFE6"/>
<path d="M192.891 291.004C194.986 291.738 197.105 292.437 199.259 293.123C203.063 292.03 206.809 290.742 210.481 289.264C212.165 282.959 213.067 276.471 213.168 269.945C204.243 276.551 197.484 283.57 192.891 291.004Z" fill="#DCDFE6"/>
<path fill-rule="evenodd" clip-rule="evenodd" d="M184.265 170.745L178.666 185.033C172.475 160.896 175.268 147.153 175.718 121.37C178.441 113.96 180.323 110.492 183.01 107.556C190.902 105.086 197.349 92.4946 202.353 69.7821C182.43 81.821 173.812 90.7347 180.003 106.739L175.375 115.523C174.534 106.632 173.071 97.8108 170.995 89.1248C164.378 69.0008 143.697 54.8904 121.028 60.1936C136.5 63.8396 133.233 85.538 168.615 91.5042C171.776 97.5769 173.351 115.286 173.09 133.196C170.183 129.143 167.538 124.909 165.171 120.518C160.081 103.259 150.066 95.9433 132.523 97.5295C143.425 105.97 141.093 120.838 163.3 122.992C166.402 125.668 169.345 130.797 172.131 138.381C171.085 148.066 171.287 157.845 172.735 167.478C168.987 161.026 163.563 155.709 157.038 152.089C145.059 135.516 132.392 130.367 114.719 135.872C128.557 141.956 125.988 153.332 154.967 154.516C159.679 157.196 163.653 161.003 166.532 165.596L153.085 161.547C141.176 154.753 129.172 159.405 117.074 175.504C141.941 175.094 154.793 171.617 155.63 165.075C165.1 166.653 170.49 169.187 171.8 172.675C176.227 188.549 177.186 192.325 180.205 199.144C181.388 199.144 182.572 199.144 183.756 199.298C181.956 195.979 181.042 192.253 181.104 188.478C183.117 179.229 185.255 174.494 187.52 174.273C197.266 167.352 199.263 154.445 193.51 135.552C185.531 149.26 180.666 161.322 184.265 170.745ZM197.168 76.0442C194.8 85.3367 194.22 92.3801 184.466 103.496C183.649 99.0566 185.46 97.8491 187.733 91.5515C182.785 95.2448 182.158 97.6953 180.276 102.738C180.619 88.675 185.555 82.4957 197.168 76.1034V76.0442ZM163.123 87.5031C145.532 80.7556 139.104 70.6108 130.546 61.7444C143.034 62.0048 155.594 69.1902 165.561 83.573C160.034 78.7771 153.59 75.1527 146.621 72.9191C155.132 77.8554 160.862 82.7562 163.123 87.5622V87.5031ZM150.835 108.929C155.57 114.848 154.221 115.913 158.447 119.169C146.953 116.103 144.336 109.154 138.323 100.749C147.616 100.442 156.304 104.987 161.087 117.026C157.524 112.658 156.103 112.575 150.835 108.929ZM147.284 149.52C135.245 150.018 131.019 144.229 123.159 138.05C132.215 135.019 141.851 136.748 149.415 146.703C144.774 143.661 143.366 143.992 137.352 142.098C143.496 146.336 142.431 147.697 147.379 149.52H147.284ZM124.272 171.893C129.007 163.773 137.293 159.05 149.486 162.127C144.041 162.66 143.2 163.82 137.494 166.117C144.774 165.643 144.869 167.383 149.746 165.702C141.2 173.693 134.263 171.799 124.366 171.893H124.272ZM189.059 171.337C190.669 165.738 190.018 164.72 190.243 158.588C187.875 166.034 186.407 165.868 185.981 171.053C182.548 161.098 186.739 154.374 190.385 144.336C195.475 150.385 196.304 159.488 189.154 171.337H189.059Z" fill="#DCDFE6"/>
<path fill-rule="evenodd" clip-rule="evenodd" d="M275.651 110.167C255.527 98.471 231.615 105.952 219.422 123.188C214.891 130.883 210.912 138.89 207.513 147.147L205.655 137.405C216.309 123.91 210.615 112.854 195.084 95.5234C193.237 118.702 195.719 132.627 202.53 137.298C204.246 140.85 205.027 144.756 205.477 152.687C201.204 167.579 193.758 189.384 191.023 200.381C192.468 200.677 193.9 201.032 195.297 201.435C203.216 190.781 209.987 190.284 215.598 190.52C243.618 197.86 244.494 186.223 259.516 184.448C244.222 174.019 230.608 175.25 214.296 187.585C207.006 189.132 200.27 192.621 194.8 197.682C198.996 188.895 202.047 179.605 203.879 170.041C208.772 163.562 213.089 159.506 216.829 157.872C238.741 162.299 240.848 147.408 253.751 142.483C237.427 135.831 225.72 139.914 215.8 154.925C212.256 158.433 208.487 161.707 204.518 164.726C209.561 147.55 216.19 131.06 220.996 126.171C256.568 130.835 259.741 109.137 275.651 110.167ZM266.086 108.924C255.302 114.902 246.199 122.726 227.4 124.028C230.952 120.122 237.877 117.092 247.394 114.902C240.094 115.012 232.891 116.595 226.217 119.554C239.948 108.722 254.059 105.526 266.086 108.924ZM250.768 183.974C241.44 187.525 235.71 191.882 224.346 187.892C229.602 187.585 228.975 185.975 236.006 183.69C229.709 183.749 228.454 183.015 223.127 184.566C233.272 177.25 242.991 178.422 250.768 183.974ZM247.217 143.868C239.049 150.166 234.515 156.026 222.63 155.611C227.625 153.729 226.655 152.368 232.905 148.047C226.844 150 225.459 149.669 220.689 152.782C228.738 142.661 238.433 140.862 247.169 143.868H247.217ZM202.364 133.084C196.279 119.601 197.795 112.7 198.244 103.111C207.466 112.581 210.39 119.98 206.531 133.581C206.199 128.207 206.33 125.686 202.66 120.702C203.015 127.39 204.388 129.083 202.317 133.084H202.364Z" fill="#DCDFE6"/>
<path fill-rule="evenodd" clip-rule="evenodd" d="M163.77 170.438C155.294 174.723 152.808 180.926 155.412 190.266C155.187 192.633 154.69 195.45 154.524 196.906C152.541 195.082 150.338 193.511 147.966 192.231C146.108 183.269 139.68 181.577 127.203 181.731C135.979 190.664 142.517 194.574 146.818 193.462C151.447 195.19 154.513 200.434 156.774 205.157C157.365 204.921 159.662 203.867 160.325 203.654C159.525 202.409 158.639 201.223 157.673 200.103C156.781 197.158 156.781 194.015 157.673 191.07C169.487 185.341 165.415 178.025 163.77 170.438ZM140.094 187.531C142.262 188.331 144.024 189.957 144.995 192.053C137.36 189.757 135.087 186.702 131.358 183.139C138.461 182.749 143.788 185.128 145.8 190.242C143.527 188.466 143.433 187.803 140.177 187.531H140.094ZM156.205 187.531C153.755 182.796 156.785 174.9 162.669 172.272C165.711 178.191 164.184 186.477 157.768 189.082C158.774 186.383 158.159 184.962 158.608 180.89C157.283 184.039 156.667 184.489 156.229 187.531H156.205Z" fill="#DCDFE6"/>
<path d="M295.32 76.3615L297.191 78.516L299.558 77.5334L303.181 81.7003L301.902 83.9376L303.666 85.9618L310.638 73.5678L308.484 71.0938L295.32 76.3615ZM304.459 79.4156L301.973 76.5627L307.324 74.3491L304.459 79.4156Z" fill="#DCDFE6"/>
<path d="M57.473 69.77L63.6522 75.1442L53.6968 74.1262L52.3828 75.6414L62.5158 84.4486L64.2559 82.448L58.053 77.0619L68.0322 78.1036L69.3461 76.5884L59.2131 67.7812L57.473 69.77Z" fill="#DCDFE6"/>
<path d="M64.4219 62.3706L70.3407 75.2854L72.3886 73.3085L71.2877 71.012L75.2651 67.1767L77.5498 68.3604L79.4793 66.4901L66.7894 60.0859L64.4219 62.3706ZM72.945 66.0048L70.2342 68.6327L67.7364 63.4005L72.945 66.0048Z" fill="#DCDFE6"/>
<path d="M80.5728 51.3945L78.9392 49.4531L71.375 55.8099L72.9967 57.7513L75.7667 55.4311L82.7746 63.7767L84.7989 62.072L77.791 53.7265L80.5728 51.3945Z" fill="#DCDFE6"/>
<path d="M89.6938 41.8516L87.5157 43.3668L92.5822 50.5995C92.7702 50.8378 92.9079 51.1117 92.9873 51.4046C93.0666 51.6976 93.0859 52.0036 93.0438 52.3042C92.9624 52.6342 92.8158 52.9446 92.6124 53.2171C92.4091 53.4895 92.1533 53.7185 91.8601 53.8904C91.6002 54.1105 91.2983 54.2755 90.9727 54.3752C90.6471 54.4749 90.3046 54.5073 89.966 54.4704C89.6664 54.4098 89.3825 54.2882 89.132 54.113C88.8815 53.9379 88.6698 53.713 88.51 53.4524L83.4435 46.2315L81.2891 47.7349L86.4739 55.1334C86.8161 55.6715 87.2744 56.1262 87.8151 56.4642C88.3559 56.8021 88.9654 57.0148 89.5991 57.0866C90.9369 57.1713 92.2639 56.7993 93.3628 56.0316C94.4617 55.2638 95.2674 54.1459 95.6481 52.8605C95.7979 52.2395 95.8065 51.5927 95.6734 50.9679C95.5402 50.3431 95.2686 49.7561 94.8787 49.2501L89.6938 41.8516Z" fill="#DCDFE6"/>
<path d="M103.969 40.9646C104.025 40.1345 103.822 39.3073 103.389 38.5971C103.097 38.0895 102.704 37.6477 102.233 37.2994C101.763 36.9511 101.225 36.7037 100.654 36.5728C100.085 36.4225 99.4913 36.3902 98.9091 36.4777C98.3269 36.5652 97.7688 36.7709 97.2689 37.0819L92.6641 39.8519L99.5773 51.358L101.85 49.9967L99.4825 46.0074L101.199 44.9657L105.934 47.57L108.384 46.1021L103.223 43.2848C103.685 42.5969 103.944 41.7928 103.969 40.9646ZM101.388 41.4736C101.349 41.7178 101.256 41.9503 101.117 42.1548C100.978 42.3593 100.796 42.5309 100.583 42.6574L98.2159 44.0661L96.168 40.6568L98.5356 39.26C98.7444 39.1323 98.978 39.0505 99.2208 39.0199C99.4637 38.9893 99.7102 39.0106 99.9442 39.0824C100.445 39.2214 100.871 39.5535 101.128 40.0058C101.398 40.4441 101.492 40.969 101.388 41.4736Z" fill="#DCDFE6"/>
<path d="M107.234 31.596L108.903 45.7301L111.472 44.4753L111.129 41.9539L116.089 39.5864L117.912 41.3857L120.279 40.2019L110.135 30.2109L107.234 31.596ZM110.786 39.3496L110.04 33.6084L114.183 37.6923L110.786 39.3496Z" fill="#DCDFE6"/>
<path d="M123.331 36.2459L119.247 26.1484L116.797 27.1428L121.828 39.5841L129.025 36.6721L128.078 34.3282L123.331 36.2459Z" fill="#DCDFE6"/>
<path d="M132.33 32.9186L131.36 30.0657L136.166 28.4085L135.349 26.0528L130.543 27.71L129.608 25.0111L134.875 23.1999L134.047 20.7969L126.281 23.4722L130.661 36.1739L138.51 33.4631L137.693 31.0719L132.33 32.9186Z" fill="#DCDFE6"/>
<path d="M142.618 29.8194L145.731 19.8521L145.199 17.8516L136.688 20.1244L137.35 22.5748L142.606 21.1661L139.481 31.0979L140.026 33.1339L148.774 30.7901L148.123 28.3515L142.618 29.8194Z" fill="#DCDFE6"/>
<path d="M152.016 16.6307L149.648 30.6701L152.466 30.1848L152.833 27.6634L158.266 26.7045L159.533 28.93L162.173 28.4683L155.177 16.0625L152.016 16.6307ZM153.33 25.0709L154.182 19.3534L157.047 24.4199L153.33 25.0709Z" fill="#DCDFE6"/>
<path d="M177.066 24.5183C176.447 24.8932 175.742 25.105 175.018 25.1339C174.438 25.1906 173.852 25.1262 173.298 24.9449C172.744 24.7635 172.233 24.4691 171.798 24.0803C170.983 23.2429 170.5 22.1375 170.439 20.9702C170.378 19.8029 170.743 18.6532 171.467 17.7353C171.857 17.3012 172.333 16.9529 172.865 16.7125C173.397 16.472 173.973 16.3447 174.557 16.3385C175.278 16.2939 175.999 16.4323 176.652 16.741C177.267 17.0345 177.785 17.4988 178.143 18.0786L180.345 16.6345C179.72 15.6912 178.848 14.9378 177.824 14.4563C176.766 13.9366 175.591 13.7001 174.415 13.7697C173.492 13.7959 172.584 14.0092 171.746 14.3967C170.908 14.7842 170.157 15.3379 169.539 16.0241C168.922 16.7104 168.45 17.515 168.152 18.3891C167.855 19.2631 167.738 20.1885 167.809 21.1091C167.837 22.0287 168.049 22.9333 168.433 23.7692C168.817 24.6051 169.366 25.355 170.046 25.9743C170.73 26.6028 171.536 27.0829 172.414 27.3844C173.292 27.6859 174.223 27.8023 175.148 27.7263C176.327 27.6704 177.471 27.316 178.475 26.6964C179.44 26.1048 180.225 25.2618 180.748 24.2579L178.38 23.0741C178.093 23.6737 177.636 24.1758 177.066 24.5183Z" fill="#DCDFE6"/>
<path d="M190.169 13.8041C188.792 13.7417 187.427 14.0867 186.245 14.7961C185.063 15.5054 184.117 16.5475 183.524 17.7921C182.932 19.0366 182.719 20.4282 182.914 21.7929C183.108 23.1575 183.701 24.4345 184.617 25.4641C185.386 26.3278 186.356 26.9878 187.442 27.3854C188.528 27.7829 189.695 27.9056 190.84 27.7426C191.984 27.5796 193.071 27.1358 194.003 26.451C194.934 25.7661 195.682 24.8614 196.179 23.8174C196.676 22.7735 196.907 21.6228 196.851 20.4679C196.796 19.313 196.455 18.1898 195.86 17.1984C195.265 16.207 194.434 15.3782 193.441 14.786C192.448 14.1937 191.324 13.8564 190.169 13.8041ZM192.726 24.091C192.083 24.6795 191.279 25.0607 190.416 25.1848C189.554 25.3089 188.674 25.1702 187.892 24.7867C187.11 24.4032 186.461 23.7929 186.031 23.0352C185.601 22.2776 185.409 21.4079 185.481 20.5397C185.491 19.9538 185.621 19.3761 185.863 18.8425C186.105 18.309 186.455 17.831 186.89 17.4382C187.761 16.6861 188.889 16.2994 190.038 16.359C191.187 16.4185 192.269 16.9197 193.057 17.7578C193.447 18.195 193.744 18.7071 193.929 19.2627C194.114 19.8183 194.184 20.4059 194.135 20.9895C194.128 21.5759 193.999 22.1545 193.756 22.6885C193.514 23.2224 193.163 23.7 192.726 24.091Z" fill="#DCDFE6"/>
<path d="M207.195 24.0269L202.791 15.054L200.802 14.7344L198.695 28.0044L201.311 28.4069L202.602 20.2981L207.005 29.3183L208.994 29.6261L211.089 16.368L208.473 15.9536L207.195 24.0269Z" fill="#DCDFE6"/>
<path d="M229.778 20.4743L226.806 19.7404L220.911 24.357L222.343 18.6158L219.775 17.9766L216.531 31.0098L219.1 31.649L220.615 25.5526L223.752 32.8091L226.712 33.5549L223.373 25.6L229.778 20.4743Z" fill="#DCDFE6"/>
<path d="M242.978 26.9618C242.491 25.9191 241.756 25.0124 240.836 24.322C239.915 23.6315 238.839 23.1787 237.702 23.0035C236.565 22.8283 235.402 22.9362 234.317 23.3176C233.232 23.6991 232.257 24.3422 231.48 25.1902C230.702 26.0382 230.146 27.0649 229.86 28.1792C229.574 29.2935 229.568 30.4611 229.841 31.5786C230.114 32.6962 230.658 33.7291 231.426 34.586C232.193 35.4429 233.16 36.0972 234.241 36.4911C235.101 36.8197 236.018 36.9712 236.937 36.9366C237.857 36.9021 238.76 36.6821 239.592 36.2899C241.262 35.4846 242.551 34.0581 243.184 32.3152C243.817 30.5722 243.742 28.6509 242.978 26.9618ZM240.705 31.4128C240.415 32.2243 239.892 32.9319 239.201 33.4468C238.51 33.9616 237.682 34.2606 236.822 34.3062C235.961 34.3517 235.107 34.1418 234.365 33.7028C233.624 33.2638 233.029 32.6153 232.655 31.8389C232.405 31.312 232.268 30.739 232.252 30.1561C232.235 29.5733 232.34 28.9934 232.56 28.4534C232.741 27.8961 233.033 27.3817 233.42 26.9419C233.807 26.5021 234.28 26.1463 234.81 25.8964C235.865 25.4332 237.058 25.3949 238.141 25.7897C239.224 26.1844 240.112 26.9817 240.622 28.0154C240.867 28.5459 241.001 29.1211 241.015 29.7055C241.03 30.2899 240.924 30.8709 240.705 31.4128Z" fill="#DCDFE6"/>
<path d="M257.716 31.4639L254.922 30.221L248.317 33.7604L250.72 28.3506L248.305 27.2734L242.836 39.5372L245.263 40.6144L247.82 34.8732L249.643 42.5676L252.424 43.8106L250.519 35.4059L257.716 31.4639Z" fill="#DCDFE6"/>
<path d="M258.698 41.0628L263.185 43.454L264.356 41.2522L259.87 38.861L261.208 36.3396L266.12 38.9557L267.304 36.7184L260.059 32.8594L253.75 44.7207L261.089 48.6153L262.273 46.3898L257.278 43.7263L258.698 41.0628Z" fill="#DCDFE6"/>
<path d="M276.522 50.8525C277.044 50.1417 277.418 49.3332 277.621 48.475C277.825 47.6169 277.853 46.7266 277.706 45.8571C277.571 45.007 277.257 44.1951 276.786 43.4749C276.315 42.7547 275.696 42.1424 274.971 41.6784L270.544 38.6953L263.039 49.8227L267.455 52.8058C268.158 53.3055 268.96 53.6512 269.806 53.8205C270.653 53.9898 271.525 53.9788 272.367 53.7883C274.085 53.3964 275.579 52.3411 276.522 50.8525ZM274.427 49.4439C273.843 50.389 272.912 51.0687 271.834 51.3379C271.317 51.4513 270.782 51.454 270.264 51.3459C269.746 51.2378 269.256 51.0212 268.828 50.7105L266.602 49.2071L271.337 42.2703L273.563 43.7737C274.014 44.0525 274.399 44.4252 274.694 44.8664C274.988 45.3076 275.183 45.807 275.267 46.3306C275.34 46.8793 275.304 47.4371 275.16 47.9716C275.015 48.506 274.766 49.0065 274.427 49.4439Z" fill="#DCDFE6"/>
<path d="M285.499 49.2891L273.531 56.9717L275.78 58.7355L277.899 57.3268L282.256 60.7242L281.439 63.1509L283.546 64.8082L288.092 51.3133L285.499 49.2891ZM283.132 58.2383L280.16 55.8708L284.99 52.6865L283.132 58.2383Z" fill="#DCDFE6"/>
<path d="M301.575 63.6272L294.425 65.533L296.059 58.3003L294.094 56.4062L284.766 66.0658L286.672 67.9006L292.697 61.6622L291.099 68.7411L291.324 68.9541L298.379 67.0956L292.33 73.3696L294.224 75.1926L303.552 65.533L301.575 63.6272Z" fill="#DCDFE6"/>
<path d="M313.716 83.9375L310.875 85.6776C315.305 91.5223 319.327 97.6648 322.914 104.061L325.648 102.582C322.105 96.0994 318.118 89.8697 313.716 83.9375Z" fill="#DCDFE6"/>
<path d="M43.7188 101.504L45.956 102.972C48.9933 97.6525 52.3371 92.5142 55.9707 87.5829L53.6031 85.9375C50.0138 90.9333 46.7136 96.1307 43.7188 101.504Z" fill="#DCDFE6"/>
</svg>
