<svg width="353" height="111" viewBox="0 0 353 111" fill="none" xmlns="http://www.w3.org/2000/svg">
<path fill-rule="evenodd" clip-rule="evenodd" d="M0.730866 67.7656C0.741163 67.8272 8.28301 112.738 113.226 105.95C-16.227 126.299 0.730866 67.7656 0.730866 67.7656ZM52.1186 19.5488C1.3263 33.5119 11.6416 111.85 131.17 102.892C-11.1498 123.667 -19.9472 22.3673 52.1186 19.5488ZM230.358 83.8936C231.74 83.8937 232.671 84.423 233.152 85.4805L233.575 84.1963H236.69L233.816 93.9834C233.494 95.2636 232.752 96.3989 231.706 97.2051C230.639 97.9245 229.368 98.2803 228.082 98.2197C226.998 98.2576 225.928 97.9665 225.011 97.3857C224.602 97.1074 224.271 96.7297 224.048 96.2881C223.826 95.8465 223.719 95.3555 223.739 94.8613H226.959C227.043 95.5538 227.524 95.9004 228.405 95.9004C229.505 95.9004 230.24 95.256 230.611 93.9678L230.921 92.9082C230.193 93.6062 229.232 94.0119 228.224 94.0479C227.721 94.0707 227.218 93.9779 226.756 93.7754C226.295 93.5729 225.886 93.2667 225.562 92.8809C225.227 92.4591 224.984 91.9724 224.845 91.4521C224.707 90.932 224.677 90.3886 224.757 89.8564C224.901 88.3132 225.531 86.8551 226.557 85.6934C227.015 85.1276 227.595 84.6718 228.252 84.3604C228.91 84.0489 229.63 83.8892 230.358 83.8936ZM292.157 83.9121C293.489 83.9121 294.528 84.2381 295.293 84.8984C296.058 85.5587 296.396 86.5569 296.316 87.9014H293.167C293.175 86.8548 292.729 86.3311 291.819 86.3311C290.985 86.3311 290.313 86.7543 289.778 87.5957C289.254 88.4389 288.934 89.3931 288.844 90.3818C288.707 91.7802 289.227 92.4795 290.406 92.4795C291.452 92.4795 292.19 91.8758 292.624 90.668H295.736C295.4 91.9163 294.656 93.0162 293.622 93.792C292.603 94.5446 291.367 94.9483 290.1 94.9434C288.845 95.008 287.613 94.5922 286.654 93.7803C285.795 93.0099 285.442 91.8566 285.595 90.3213C285.741 88.6108 286.482 87.0055 287.688 85.7842C288.262 85.1786 288.956 84.6993 289.725 84.377C290.494 84.0546 291.323 83.8963 292.157 83.9121ZM244.963 83.8906C246.029 83.8427 247.082 84.1342 247.971 84.7236C248.356 85.0093 248.66 85.3909 248.852 85.8301C249.044 86.2694 249.117 86.7518 249.066 87.2285H246.075C246.081 87.0603 246.051 86.8924 245.986 86.7373C245.92 86.5821 245.822 86.4428 245.697 86.3301C245.391 86.0992 245.012 85.9857 244.629 86.0088C244.287 85.9991 243.947 86.0718 243.639 86.2217C243.512 86.2797 243.402 86.3699 243.32 86.4834C243.238 86.5971 243.187 86.7308 243.172 86.8701C243.153 87.0099 243.183 87.1521 243.256 87.2725C243.377 87.4176 243.536 87.5268 243.715 87.5869C243.915 87.6783 244.121 87.7562 244.331 87.8203L245.31 88.1064C246.126 88.3191 246.888 88.7003 247.548 89.2256C247.818 89.4788 248.021 89.7958 248.137 90.1475C248.253 90.4991 248.279 90.874 248.212 91.2383C248.181 91.7768 248.031 92.3019 247.775 92.7764C247.518 93.2508 247.16 93.6632 246.727 93.9844C245.705 94.6661 244.492 95.0018 243.265 94.9424C242.094 94.9884 240.939 94.6604 239.967 94.0049C239.538 93.6933 239.2 93.2722 238.988 92.7861C238.775 92.2999 238.696 91.7651 238.759 91.2383H241.856C241.82 92.2529 242.379 92.7646 243.535 92.7646C244.498 92.7619 245.012 92.4286 245.077 91.7656C245.088 91.6673 245.075 91.5676 245.038 91.4756C245.002 91.3835 244.943 91.3018 244.867 91.2383C244.702 91.0867 244.509 90.9693 244.299 90.8926C244.086 90.808 243.752 90.7033 243.305 90.5664L242.903 90.4453C242.101 90.2357 241.355 89.8539 240.716 89.3262C240.466 89.0725 240.281 88.7616 240.176 88.4209C240.072 88.0803 240.051 87.7194 240.117 87.3691C240.154 86.8544 240.31 86.3549 240.572 85.9102C240.834 85.4655 241.195 85.0873 241.626 84.8047C242.62 84.1675 243.784 83.8485 244.963 83.8906ZM163.977 83.9102C165.108 83.8457 166.222 84.1965 167.113 84.8965C167.874 85.5567 168.217 86.5549 168.136 87.8994H164.999C165.01 86.8529 164.561 86.3291 163.651 86.3291C163.229 86.3385 162.818 86.4613 162.459 86.6836C162.101 86.9059 161.809 87.2203 161.614 87.5938C161.082 88.4347 160.756 89.3893 160.663 90.3799C160.521 91.7781 161.04 92.4774 162.221 92.4775C163.268 92.4775 164.005 91.8738 164.444 90.6582H167.556C167.221 91.9064 166.477 93.0065 165.443 93.7822C164.423 94.5354 163.187 94.9391 161.919 94.9336C160.665 94.9973 159.432 94.5818 158.473 93.7705C157.614 93.0002 157.263 91.8468 157.418 90.3115C157.566 88.6051 158.304 87.0036 159.504 85.7822C160.079 85.1765 160.773 84.6964 161.543 84.374C162.313 84.0518 163.142 83.8942 163.977 83.9102ZM313.609 83.874C314.676 83.8255 315.73 84.117 316.621 84.707C317.005 84.993 317.308 85.3751 317.499 85.8145C317.691 86.2537 317.764 86.7357 317.711 87.2119H314.72C314.727 87.0438 314.697 86.8758 314.631 86.7207C314.566 86.5655 314.466 86.4262 314.341 86.3135C314.035 86.0828 313.657 85.9682 313.275 85.9912C312.934 85.9815 312.595 86.0552 312.288 86.2051C312.16 86.2647 312.049 86.3569 311.968 86.4727C311.887 86.5885 311.838 86.7242 311.826 86.8652C311.802 87.0051 311.832 87.1489 311.91 87.2676C311.999 87.3766 312.111 87.4656 312.236 87.5283L312.669 87.709C312.772 87.7479 312.876 87.7834 312.981 87.8154L313.963 88.1016C314.774 88.3175 315.53 88.7 316.185 89.2246C316.454 89.4787 316.656 89.7959 316.771 90.1475C316.886 90.499 316.912 90.8743 316.846 91.2383C316.815 91.7732 316.667 92.2951 316.413 92.7666C316.158 93.2382 315.803 93.6483 315.372 93.9678C314.351 94.6496 313.137 94.9853 311.91 94.9258C310.74 94.9718 309.586 94.6427 308.617 93.9873C308.186 93.6769 307.847 93.2569 307.634 92.7705C307.422 92.2839 307.344 91.7487 307.409 91.2217H310.5C310.468 92.2362 311.028 92.7479 312.179 92.748C313.145 92.748 313.658 92.4134 313.726 91.749C313.737 91.6505 313.722 91.5509 313.685 91.459C313.648 91.3669 313.589 91.2851 313.512 91.2217C313.348 91.0709 313.157 90.9528 312.949 90.875C312.731 90.7905 312.401 90.6866 311.954 90.5498L311.551 90.4287C310.749 90.2191 310.002 89.837 309.362 89.3096C309.112 89.0558 308.926 88.745 308.823 88.4043C308.719 88.0636 308.699 87.7025 308.765 87.3525C308.803 86.8383 308.959 86.3392 309.22 85.8945C309.481 85.4501 309.841 85.0716 310.271 84.7881C311.265 84.1519 312.429 83.8331 313.609 83.874ZM180.244 83.8896C181.199 83.8512 182.145 84.0917 182.965 84.582C184.476 85.6021 184.89 87.4944 184.208 90.2588H177.063C176.979 90.8394 177.073 91.4319 177.332 91.958C177.57 92.3565 178.033 92.5575 178.725 92.5576C179.11 92.5845 179.495 92.4986 179.831 92.3105C180.168 92.1225 180.443 91.8406 180.621 91.499H183.842C183.414 92.5268 182.68 93.3981 181.741 93.9951C180.725 94.6281 179.547 94.9498 178.351 94.9209C176.872 94.9182 175.716 94.5035 174.884 93.6768C174.052 92.8501 173.713 91.6639 173.866 90.1182C174.016 88.4572 174.75 86.9026 175.935 85.7295C176.487 85.1419 177.155 84.6751 177.897 84.3584C178.638 84.0418 179.437 83.8822 180.244 83.8896ZM256.115 83.8896C257.07 83.8507 258.016 84.0912 258.836 84.582C260.345 85.5993 260.759 87.4916 260.08 90.2588H252.922C252.838 90.8393 252.932 91.4319 253.192 91.958C253.429 92.3566 253.897 92.5576 254.585 92.5576C254.971 92.5855 255.357 92.5005 255.695 92.3125C256.033 92.1244 256.31 91.8417 256.49 91.499H259.71C259.282 92.5267 258.548 93.3981 257.609 93.9951C256.594 94.6288 255.414 94.9515 254.218 94.9219C252.74 94.9191 251.584 94.5042 250.752 93.6777C249.92 92.851 249.581 91.6642 249.734 90.1182C249.886 88.4575 250.619 86.9036 251.803 85.7295C252.356 85.1415 253.024 84.6741 253.766 84.3574C254.508 84.0408 255.308 83.8817 256.115 83.8896ZM303.164 83.8896C304.118 83.8508 305.063 84.0913 305.882 84.582C307.396 85.5993 307.811 87.4916 307.126 90.2588H299.976C299.889 90.8389 299.982 91.4322 300.242 91.958C300.479 92.3566 300.947 92.5576 301.639 92.5576C302.024 92.5844 302.408 92.4986 302.745 92.3105C303.081 92.1225 303.357 91.8407 303.536 91.499H306.756C306.328 92.5257 305.596 93.3967 304.659 93.9951C303.643 94.6277 302.464 94.9503 301.268 94.9219C299.787 94.9218 298.628 94.5028 297.798 93.6777C296.969 92.8524 296.627 91.6642 296.784 90.1182C296.935 88.458 297.666 86.904 298.849 85.7295C299.402 85.1412 300.071 84.6741 300.814 84.3574C301.557 84.0408 302.357 83.8814 303.164 83.8896ZM191.505 83.9092C192.89 83.9092 193.914 84.1868 194.577 84.7422C195.47 85.4642 195.688 86.6104 195.229 88.1807L193.8 92.9961C193.575 93.7448 193.546 94.2398 193.711 94.4814V94.627H190.579C190.481 94.2552 190.464 93.8661 190.531 93.4873C190.147 93.915 189.681 94.2601 189.16 94.501C188.638 94.7418 188.073 94.8739 187.499 94.8887C186.666 94.9293 185.85 94.6395 185.229 94.083C184.942 93.7967 184.728 93.4456 184.606 93.0596C184.483 92.6736 184.455 92.2634 184.524 91.8643C184.641 90.6848 185.124 89.8393 185.929 89.332C186.966 88.7604 188.124 88.4433 189.307 88.4062C190.092 88.3819 190.872 88.2652 191.63 88.0596C191.828 87.9938 192.001 87.8691 192.125 87.7021C192.25 87.5352 192.32 87.334 192.327 87.126C192.346 86.9926 192.333 86.8561 192.287 86.7295C192.24 86.603 192.162 86.4902 192.061 86.4014C191.792 86.1995 191.458 86.1016 191.122 86.127C190.684 86.0884 190.246 86.2041 189.883 86.4531C189.52 86.7021 189.256 87.0694 189.134 87.4922H186.102C186.382 86.4255 187.035 85.4942 187.942 84.8672C189.001 84.1854 190.247 83.8507 191.505 83.9092ZM204.505 83.9023C205.572 83.9023 206.337 84.2931 206.78 85.0742C207.223 85.8352 207.259 86.8857 206.88 88.1982L205 94.6123H201.744L203.563 88.4443C203.929 87.1963 203.587 86.5713 202.529 86.5713C202.252 86.5732 201.979 86.6329 201.726 86.7451C201.473 86.8573 201.246 87.0199 201.059 87.2236C200.603 87.6895 200.273 88.263 200.097 88.8906L198.418 94.6279H195.161L198.221 84.208H201.373L200.882 85.8555C201.993 84.555 203.177 83.9024 204.505 83.9023ZM221.365 83.9023C222.438 83.9023 223.196 84.2931 223.639 85.0742C224.086 85.8352 224.119 86.8857 223.752 88.1982L221.869 94.6123H218.615L220.411 88.46C220.781 87.212 220.436 86.588 219.376 86.5879C219.1 86.5912 218.827 86.6507 218.575 86.7627C218.322 86.8748 218.095 87.0375 217.907 87.2402C217.452 87.7065 217.123 88.2799 216.949 88.9072L215.278 94.6279H212.021L215.077 84.208H218.233L217.742 85.8555C218.853 84.5551 220.036 83.9024 221.365 83.9023ZM210.125 94.6162H206.869L209.928 84.1963H213.181L210.125 94.6162ZM273.859 88.8545V91.0332C274.241 90.3407 274.644 89.6357 275.046 88.915L277.716 84.1963H281.017L274.624 94.6162H271.101L270.457 84.1963H273.771L273.859 88.8545ZM282.737 94.6162H279.484L282.539 84.1963H285.796L282.737 94.6162ZM268.927 84.0303C269.171 84.0209 269.416 84.0476 269.652 84.1104L268.787 87.042C267.671 86.881 266.805 87.0377 266.137 87.5127C265.466 87.9851 264.947 88.8324 264.579 90.0537L263.246 94.6152H259.994L263.049 84.1953H266.181L265.666 85.9023C266.625 84.6745 267.691 84.0303 268.927 84.0303ZM170.988 94.6123H167.669L171.933 80.0615H175.25L170.988 94.6123ZM191.674 89.7266C191.092 89.9602 190.482 90.1169 189.859 90.1934C189.831 90.1934 189.726 90.21 189.537 90.2422L189.174 90.3066C189.066 90.3227 188.958 90.3455 188.852 90.375C188.734 90.4001 188.62 90.4424 188.514 90.5L188.236 90.6611C188.131 90.7112 188.041 90.7894 187.978 90.8867C187.921 90.9838 187.87 91.0848 187.826 91.1885C187.771 91.3164 187.737 91.4522 187.725 91.5908C187.628 92.3677 188.039 92.7704 188.932 92.7705C189.459 92.7837 189.976 92.6223 190.402 92.3115C190.83 91.9803 191.141 91.5202 191.288 90.999L191.674 89.7266ZM230.74 86.3535C230.375 86.3517 230.015 86.4376 229.69 86.6035C229.365 86.7695 229.084 87.0118 228.871 87.3086C228.367 87.961 228.063 88.7458 227.995 89.5674C227.918 90.0785 228.02 90.6005 228.284 91.0449C228.421 91.2415 228.608 91.3982 228.825 91.5C229.042 91.6017 229.281 91.6444 229.52 91.624C229.889 91.6238 230.252 91.5361 230.58 91.3682C230.909 91.2002 231.193 90.9571 231.409 90.6582C231.916 90.0251 232.226 89.2555 232.298 88.4473C232.366 87.9244 232.255 87.3937 231.984 86.9414C231.846 86.7434 231.658 86.5845 231.44 86.4814C231.222 86.3785 230.98 86.3342 230.74 86.3535ZM179.99 86.2285C179.466 86.2328 178.962 86.4294 178.573 86.7803C178.111 87.1895 177.758 87.707 177.545 88.2861H181.435V88.2979C181.55 87.7901 181.476 87.2575 181.226 86.8008C181.09 86.6041 180.902 86.4472 180.685 86.3467C180.468 86.2463 180.228 86.2052 179.99 86.2285ZM302.891 86.2285C302.366 86.2326 301.861 86.4291 301.47 86.7803C301.016 87.1955 300.671 87.7169 300.467 88.2979H304.372C304.476 87.785 304.386 87.2524 304.122 86.8008C303.987 86.6042 303.802 86.4472 303.585 86.3467C303.369 86.2461 303.129 86.2051 302.891 86.2285ZM255.829 86.2285C255.305 86.2329 254.8 86.4293 254.412 86.7803C253.95 87.1895 253.598 87.707 253.385 88.2861H257.294C257.401 87.7795 257.319 87.2517 257.065 86.8008C256.928 86.6041 256.742 86.4472 256.525 86.3467C256.308 86.2462 256.067 86.2052 255.829 86.2285ZM136.69 45.0732C141.387 45.076 144.943 46.6655 147.359 49.8408C149.774 53.0187 150.368 56.948 149.142 61.6289C148.17 65.3942 146.174 68.817 143.376 71.5176C142.696 72.1844 141.979 72.8121 141.227 73.3975C137.174 76.5648 132.8 78.1484 128.106 78.1484C123.412 78.1484 119.856 76.5598 117.441 73.3818C115.9 71.3688 115.053 68.9107 115.026 66.376C115.004 64.768 115.207 63.1649 115.629 61.6133C116.842 56.9457 119.482 53.0215 123.548 49.8408C127.612 46.6601 131.993 45.0706 136.69 45.0732ZM317.347 44.5625C320.028 44.5626 322.266 45.1949 324.062 46.459C324.954 47.0943 325.705 47.9092 326.265 48.8506C326.825 49.7918 327.182 50.8396 327.315 51.9268L318.675 56.3037C318.383 54.0732 317.227 52.958 315.208 52.958C314.54 52.9291 313.877 53.0936 313.3 53.4326C312.847 53.6993 312.516 54.1331 312.378 54.6406C312.283 54.9329 312.298 55.2499 312.419 55.5322C312.541 55.8145 312.761 56.0431 313.038 56.1748C314.232 56.7626 315.482 57.2321 316.767 57.5762C317.916 57.9351 319.042 58.3651 320.137 58.8643C321.069 59.3196 321.937 59.8963 322.717 60.5791C323.582 61.3071 324.165 62.3139 324.368 63.4258C324.583 64.7927 324.49 66.1906 324.094 67.5166C323.345 70.583 321.451 73.2466 318.8 74.9609C316.13 76.7244 312.895 77.6064 309.097 77.6064C305.664 77.6037 302.99 76.8879 301.074 75.46C300.148 74.7931 299.387 73.9233 298.85 72.917C298.313 71.9106 298.012 70.7945 297.973 69.6543L306.863 65.1816C307.22 67.8655 308.769 69.207 311.509 69.207C313.557 69.207 314.722 68.6703 315.003 67.5967C315.085 67.3346 315.085 67.0541 315.003 66.792C314.861 66.4998 314.612 66.2728 314.307 66.1592C313.983 66 313.651 65.8575 313.313 65.7324C313.023 65.6237 312.515 65.4712 311.787 65.2578C311.058 65.0444 310.514 64.8796 310.152 64.7588C304.352 62.8611 302.085 59.4715 303.352 54.5918C304.119 51.6805 305.894 49.1353 308.361 47.4092C310.966 45.5067 314.122 44.5068 317.347 44.5625ZM83.9301 56.1094L83.8373 63.1914L87.0336 57.418L93.476 45.7979H100.433L100.993 62.4629L101.016 63.1914L101.334 62.5713L109.833 45.7979L119.757 45.8066L109.371 64.9385L102.586 77.4199H93.6889L93.1088 60.5098L83.7484 77.4199H79.6498C75.6605 77.464 74.5772 74.7709 74.6576 71.208L74.1586 54.5635H65.1244L59.182 77.4238H50.1635L56.1176 54.5635H48.6615L50.2162 48.5928C50.6188 46.7608 52.1005 45.7455 54.6449 45.7979H84.0668L83.9301 56.1094ZM289.44 45.3008C293.393 45.486 296.377 46.9932 298.39 49.8223C300.54 52.8526 301.03 56.6156 299.863 61.1113C298.715 65.5699 296.139 69.5298 292.528 72.3848C288.802 75.4125 284.756 76.9268 280.389 76.9268H267.288L273.191 54.2188L275.51 45.3008H289.44ZM228.292 45.2402L243.342 45.2881L241.204 53.5098H229.681L228.791 56.9443H239.183L237.069 65.0771H226.678L225.76 68.6006H237.528L235.367 76.9141H214.583L216.299 70.2354L221.303 50.9453C221.562 49.301 222.418 47.8094 223.707 46.7568C224.997 45.7042 226.63 45.1645 228.292 45.2402ZM178.618 54.0488H168.001L166.93 58.1592H177.333L175.055 66.9248H164.663L163.121 72.7871L162.046 76.9092H153.012L154.22 72.2549L159.8 50.5664C160.38 47.5951 162.441 45.3154 166.334 45.2832H180.897L178.618 54.0488ZM212.794 70.7129L211.179 76.9092H202.145L203.482 71.7676L210.367 45.2832H219.405L212.794 70.7129ZM259.413 59.7412L263.172 45.2832H272.206L269.457 55.8643L263.986 76.9092H256.759L250.675 62.6807L250.575 62.4512L250.502 62.7334L246.819 76.9092H237.781L240.768 65.4268L246.001 45.2832H253.232L259.413 59.7412ZM195.996 45.25C199.458 45.2581 202.055 46.2752 203.787 48.3018C205.518 50.3283 205.948 53.0128 205.079 56.3545C204.597 58.2139 203.707 59.9427 202.474 61.415C201.223 62.9246 199.683 64.1693 197.945 65.0752L199.832 72.0967L201.113 76.8682H191.451L190.432 72.7168L189.015 66.9268H186.756L185.194 72.9307L184.171 76.8682H175.133L176.099 73.083L183.346 45.25H195.996ZM134.387 53.9307C132.159 53.9296 129.999 54.7041 128.279 56.1211C126.493 57.4966 125.218 59.4301 124.656 61.6133C124.081 63.8114 124.335 65.6405 125.416 67.1006C126.498 68.5608 128.155 69.291 130.385 69.291C132.612 69.2921 134.77 68.5175 136.489 67.1006C138.274 65.7263 139.549 63.795 140.112 61.6133C140.686 59.4123 140.433 57.5813 139.351 56.1211C138.269 54.6611 136.615 53.9308 134.387 53.9307ZM279.044 68.165H282.668C284.539 68.1478 286.339 67.4416 287.721 66.1807C289.262 64.8513 290.348 63.0731 290.829 61.0957C291.363 59.0343 291.206 57.3479 290.358 56.0381C289.51 54.7283 288.167 54.0732 286.331 54.0732H282.708L279.044 68.165ZM345.448 44.9609C346.826 44.9609 348.062 45.2812 349.156 45.9229C350.249 46.5408 351.105 47.4084 351.723 48.5254C352.341 49.6187 352.65 50.8549 352.65 52.2334C352.65 53.6117 352.341 54.8596 351.723 55.9766C351.105 57.0936 350.249 57.9735 349.156 58.6152C348.062 59.2332 346.826 59.542 345.448 59.542C344.046 59.5419 342.798 59.2331 341.704 58.6152C340.611 57.9735 339.756 57.0936 339.138 55.9766C338.52 54.8595 338.21 53.6119 338.21 52.2334C338.21 50.8549 338.52 49.6187 339.138 48.5254C339.756 47.4086 340.611 46.5407 341.704 45.9229C342.798 45.2812 344.046 44.961 345.448 44.9609ZM188.693 59.4258H192.127C193.012 59.4889 193.89 59.2319 194.6 58.7012C195.31 58.1704 195.805 57.4013 195.996 56.5352C196.24 55.6199 196.151 54.8942 195.73 54.3574C195.309 53.8206 194.616 53.5518 193.653 53.5518H190.218L188.693 59.4258ZM345.448 46.3516C343.713 46.3516 342.322 46.898 341.277 47.9912C340.255 49.0845 339.744 50.4985 339.744 52.2334C339.744 53.9684 340.255 55.3833 341.277 56.4766C342.322 57.5696 343.713 58.1161 345.448 58.1162C347.159 58.1162 348.538 57.5697 349.583 56.4766C350.653 55.3833 351.188 53.9684 351.188 52.2334C351.188 50.4985 350.653 49.0845 349.583 47.9912C348.538 46.8979 347.159 46.3516 345.448 46.3516ZM345.983 48.3477C346.791 48.3477 347.432 48.5616 347.908 48.9893C348.407 49.4171 348.657 49.9995 348.657 50.7363C348.657 51.3067 348.502 51.7942 348.193 52.1982C347.908 52.5783 347.504 52.8513 346.981 53.0176L348.978 55.9766L346.732 56.0127L345.02 53.1602H344.414V56.0127H342.56V48.3477H345.983ZM344.414 51.6279H345.875C346.137 51.6279 346.352 51.5567 346.518 51.4141C346.708 51.2715 346.803 51.069 346.803 50.8076C346.803 50.5464 346.708 50.3562 346.518 50.2373C346.352 50.0947 346.137 50.0234 345.875 50.0234H344.414V51.6279ZM39.4604 33.0127C39.7663 34.4017 40.2854 37.8123 43.4857 37.8408C42.0725 38.1106 39.3802 38.5333 39.2914 42.3252C38.9653 40.9401 38.6587 38.1021 35.265 37.4941C36.6782 37.2244 39.3436 36.4189 39.4604 33.0127ZM58.4125 17.9609C58.8272 19.7528 59.5039 24.1763 63.6459 24.2129C61.814 24.5632 58.3201 25.1117 58.2074 30.0273C57.8048 28.2357 57.4017 24.5515 52.9731 23.7744C54.8048 23.4282 58.2633 22.3813 58.4125 17.9609ZM13.4887 13.3125C13.8993 15.0518 14.5519 19.3483 18.5736 19.3848C16.794 19.723 13.4041 20.2547 13.2914 25.0215C12.8888 23.2782 12.4866 19.7023 8.21134 18.9492C9.99096 18.6109 13.3438 17.596 13.4887 13.3125ZM38.0336 0C38.3436 1.32862 38.8466 4.62981 41.9301 4.6543C40.5652 4.916 37.9649 5.32306 37.8803 8.98633C37.5663 7.64955 37.268 4.90787 33.9789 4.32812C35.3437 4.07045 37.9209 3.28942 38.0336 0Z" fill="#DCDFE6"/>
</svg>
