<svg width="328" height="74" viewBox="0 0 328 74" fill="none" xmlns="http://www.w3.org/2000/svg">
<path fill-rule="evenodd" clip-rule="evenodd" d="M78.2188 67.3144H105.88L106.9 61.2691H88.4643L88.9743 58.2389H107.425L108.355 52.7786H89.9044L90.4294 49.7485H108.865L109.885 43.7031H82.239L78.2188 67.3144Z" fill="#DCDFE6"/>
<path fill-rule="evenodd" clip-rule="evenodd" d="M121.032 59.835L123.778 43.6641H114.567L110.547 67.3204H126.208L131.983 59.835H121.032Z" fill="#DCDFE6"/>
<path fill-rule="evenodd" clip-rule="evenodd" d="M147.671 43.7031L130.945 67.3145H141.311L143.861 63.2792H155.697L156.867 67.3145H167.247L158.577 43.7031H147.671ZM147.551 57.5189L152.051 50.5435L154.107 57.5189H147.551Z" fill="#DCDFE6"/>
<path fill-rule="evenodd" clip-rule="evenodd" d="M181.199 43.6641H171.989L167.969 67.3204H186.615L187.89 59.835H178.454L181.199 43.6641Z" fill="#DCDFE6"/>
<path fill-rule="evenodd" clip-rule="evenodd" d="M221.774 57.2584C221.097 56.2325 220.084 55.4741 218.908 55.1133C219.829 54.5878 220.631 53.878 221.264 53.0282C221.902 52.1363 222.328 51.11 222.509 50.028C222.719 49.1899 222.7 48.3107 222.455 47.4823C222.209 46.6538 221.746 45.9063 221.114 45.3177C219.694 44.179 217.906 43.6024 216.088 43.6977H193.587L189.672 67.324H213.868C215.199 67.3355 216.519 67.0857 217.753 66.5889C218.934 66.1341 219.988 65.4038 220.829 64.4588C221.656 63.4818 222.192 62.2912 222.374 61.0236C222.656 59.7378 222.441 58.3929 221.774 57.2584ZM201.883 49.323H212.548C212.732 49.322 212.913 49.3667 213.076 49.4531C213.238 49.5395 213.376 49.6649 213.478 49.818C213.589 49.9725 213.667 50.1479 213.709 50.3335C213.75 50.5191 213.753 50.7111 213.718 50.8981C213.634 51.3155 213.425 51.6974 213.118 51.9931C212.824 52.2921 212.427 52.4689 212.008 52.4881H201.343L201.883 49.323ZM213.268 61.2186C212.981 61.5192 212.588 61.6967 212.173 61.7136H199.782L200.322 58.5335H212.713C212.897 58.5338 213.078 58.5791 213.24 58.6654C213.402 58.7517 213.54 58.8764 213.643 59.0285C213.862 59.3488 213.948 59.7412 213.883 60.1236C213.804 60.546 213.587 60.9307 213.268 61.2186Z" fill="#DCDFE6"/>
<path fill-rule="evenodd" clip-rule="evenodd" d="M237.861 43.7031L221.18 67.3145H231.56L234.11 63.2792H245.931L247.116 67.3145H257.482L248.826 43.7031H237.861ZM237.741 57.5189L242.241 50.5435L244.296 57.5189H237.741Z" fill="#DCDFE6"/>
<path fill-rule="evenodd" clip-rule="evenodd" d="M283.127 56.1897L274.891 43.6641H262.216L258.195 67.3204H267.406L269.866 52.8746L280.097 67.3204H290.462L294.482 43.6641H285.257L283.127 56.1897Z" fill="#DCDFE6"/>
<path fill-rule="evenodd" clip-rule="evenodd" d="M295.594 67.3204H304.804L308.824 43.6641H299.614L295.594 67.3204Z" fill="#DCDFE6"/>
<path fill-rule="evenodd" clip-rule="evenodd" d="M319.97 59.835L322.715 43.6641H313.505L309.484 67.3204H326.63L327.905 59.835H319.97Z" fill="#DCDFE6"/>
<path fill-rule="evenodd" clip-rule="evenodd" d="M90.6251 26.0796H102.326L103.181 21.6094H85.9748L83.3047 35.6951H88.81L89.515 31.9149H99.8506L100.631 27.8047H90.3101L90.6251 26.0796Z" fill="#DCDFE6"/>
<path fill-rule="evenodd" clip-rule="evenodd" d="M102.016 35.6951H118.517L119.207 32.095H108.196L108.541 30.2949H119.552L120.182 27.0247H109.171L109.516 25.2246H120.512L121.202 21.6094H104.701L102.016 35.6951Z" fill="#DCDFE6"/>
<path fill-rule="evenodd" clip-rule="evenodd" d="M141.896 26.9509C142.096 26.05 142.022 25.11 141.686 24.2507C141.393 23.4729 140.87 22.803 140.186 22.3306C139.428 21.8401 138.539 21.5893 137.636 21.6106H124.045L121.375 35.7114H126.865L127.525 32.2612H132.431L134.441 35.7114H140.171L137.846 31.7512C138.85 31.3238 139.739 30.666 140.441 29.8311C141.18 29.0219 141.683 28.0258 141.896 26.9509ZM135.896 27.791C135.648 28.023 135.32 28.1518 134.981 28.151H128.275L128.74 25.7359H135.446C135.594 25.7282 135.741 25.7554 135.877 25.8153C136.012 25.8753 136.132 25.9662 136.226 26.0809C136.318 26.2036 136.384 26.3448 136.417 26.4948C136.451 26.6449 136.452 26.8004 136.421 26.9509C136.338 27.2865 136.142 27.5833 135.866 27.791H135.896Z" fill="#DCDFE6"/>
<path fill-rule="evenodd" clip-rule="evenodd" d="M162.448 26.9506C162.645 26.0506 162.578 25.1128 162.253 24.2504C161.934 23.4663 161.385 22.797 160.678 22.3303C159.924 21.8427 159.041 21.592 158.143 21.6103H144.552L141.867 35.7111H147.372L148.018 32.2609H152.938L154.933 35.7111H160.783L158.473 31.7508C159.472 31.323 160.356 30.6651 161.053 29.8307C161.77 29.0147 162.253 28.0193 162.448 26.9506ZM156.448 27.7906C156.198 28.0189 155.872 28.1471 155.533 28.1507H148.828L149.278 25.7355H155.983C156.133 25.729 156.283 25.7567 156.42 25.8164C156.558 25.8762 156.68 25.9665 156.778 26.0805C156.868 26.2045 156.931 26.3462 156.962 26.4962C156.993 26.6462 156.991 26.8011 156.958 26.9506C156.883 27.282 156.698 27.5782 156.433 27.7906H156.448Z" fill="#DCDFE6"/>
<path fill-rule="evenodd" clip-rule="evenodd" d="M162.422 35.6951H178.938L179.613 32.095H168.602L168.947 30.2949H179.958L180.573 27.0247H169.577L169.922 25.2246H180.918L181.608 21.6094H165.107L162.422 35.6951Z" fill="#DCDFE6"/>
<path fill-rule="evenodd" clip-rule="evenodd" d="M201.856 21.6094H183.285L182.43 26.0796H188.97L187.14 35.6951H192.63L194.46 26.0796H201.001L201.856 21.6094Z" fill="#DCDFE6"/>
<path fill-rule="evenodd" clip-rule="evenodd" d="M200.93 35.6951H217.446L218.121 32.095H207.125L207.47 30.2949H218.466L219.096 27.0247H208.085L208.43 25.2246H219.441L220.116 21.6094H203.615L200.93 35.6951Z" fill="#DCDFE6"/>
<path fill-rule="evenodd" clip-rule="evenodd" d="M240.806 26.9509C241.005 26.05 240.932 25.11 240.596 24.2507C240.303 23.4729 239.779 22.803 239.095 22.3306C238.337 21.8401 237.448 21.5893 236.545 21.6106H223.045L220.359 35.7114H225.67L226.315 32.2612H231.235L233.23 35.7114H239.17L236.845 31.7512C237.851 31.3279 238.741 30.6694 239.44 29.8311C240.147 29.0116 240.618 28.0165 240.806 26.9509ZM234.805 27.791C234.557 28.023 234.23 28.1518 233.89 28.151H227.17L227.635 25.7359H234.34C234.488 25.7282 234.636 25.7554 234.771 25.8153C234.907 25.8753 235.026 25.9662 235.12 26.0809C235.216 26.2016 235.284 26.3427 235.318 26.4935C235.352 26.6442 235.351 26.8006 235.315 26.9509C235.236 27.2844 235.046 27.5808 234.775 27.791H234.805Z" fill="#DCDFE6"/>
<path fill-rule="evenodd" clip-rule="evenodd" d="M243.466 21.5938L240.781 35.6945H246.287L248.957 21.5938H243.466Z" fill="#DCDFE6"/>
<path fill-rule="evenodd" clip-rule="evenodd" d="M263.466 21.6094H256.941L246.695 35.7101H252.891L254.391 33.295H261.456L262.116 35.7101H268.296L263.466 21.6094ZM256.701 29.8598L259.431 25.6896L260.571 29.8598H256.701Z" fill="#DCDFE6"/>
<path d="M0 14.2031H13.4107L19.4411 47.475L19.6061 48.255" stroke="#DCDFE6" stroke-width="5.79032" stroke-miterlimit="3.86"/>
<path fill-rule="evenodd" clip-rule="evenodd" d="M10.9531 69.3903H17.3585L33.2894 52.1544L19.3836 45.9141L10.9531 69.3903Z" stroke="#DCDFE6" stroke-width="5.79032" stroke-miterlimit="3.86"/>
<path d="M54.0163 61.1705L19.1094 45.9297" stroke="#DCDFE6" stroke-width="5.79032" stroke-miterlimit="3.86"/>
<path d="M51.7608 63.2094C52.1628 61.2361 53.2358 59.463 54.7973 58.1914C56.3588 56.9198 58.3125 56.2281 60.3263 56.234C61.2392 56.1696 62.155 56.3098 63.0068 56.6443C63.8587 56.9787 64.6252 57.4991 65.2504 58.1675C65.8756 58.8358 66.3438 59.6352 66.6208 60.5074C66.8978 61.3797 66.9767 62.3028 66.8516 63.2094C66.4522 65.1839 65.38 66.9587 63.8179 68.2308C62.2558 69.5029 60.3007 70.1935 58.2862 70.1847C57.3733 70.2491 56.4575 70.109 55.6056 69.7745C54.7538 69.44 53.9873 68.9196 53.362 68.2513C52.7368 67.583 52.2687 66.7835 51.9917 65.9113C51.7146 65.039 51.6358 64.116 51.7608 63.2094Z" stroke="#DCDFE6" stroke-width="5.79032" stroke-miterlimit="3.86"/>
<path d="M26.6484 25.0212L41.9193 6.4652C45.5795 1.61994 51.7898 1.79995 54.1899 6.4652L64.0905 24.7662" stroke="#DCDFE6" stroke-width="5.79032" stroke-miterlimit="3.86"/>
<path fill-rule="evenodd" clip-rule="evenodd" d="M16.9844 26.3281H71.9324L71.5574 28.9233L40.3707 53.6446L19.1445 45.6642L16.9844 26.3281Z" stroke="#DCDFE6" stroke-width="5.79032" stroke-miterlimit="3.86"/>
<path fill-rule="evenodd" clip-rule="evenodd" d="M277.246 41.0982C277.171 39.6338 277.465 38.1742 278.101 36.8529C278.626 35.7872 279.442 34.8924 280.456 34.2728C281.403 33.7217 282.48 33.4318 283.576 33.4327C284.255 33.4098 284.932 33.5168 285.571 33.7478C286.12 33.9918 286.647 34.2829 287.146 34.6178L287.656 34.9478C287.794 35.0258 287.948 35.0719 288.106 35.0828C288.582 35.1147 289.05 34.9584 289.411 34.6478C289.561 34.5049 289.68 34.3325 289.76 34.1415C289.84 33.9504 289.88 33.7448 289.876 33.5377H295.532C295.595 34.9729 295.269 36.3985 294.587 37.663C294.02 38.697 293.187 39.5607 292.174 40.1647C291.161 40.7687 290.006 41.0909 288.826 41.0982C288.173 41.128 287.52 41.026 286.906 40.7981C286.438 40.5711 286.008 40.2725 285.631 39.9131C285.475 39.7698 285.304 39.644 285.121 39.5381C284.982 39.4507 284.821 39.404 284.656 39.4031C284.41 39.3877 284.164 39.4254 283.933 39.5133C283.703 39.6013 283.494 39.7376 283.321 39.9131C283.015 40.2309 282.848 40.6571 282.856 41.0982H277.246Z" fill="#DCDFE6"/>
</svg>
