<svg width="417" height="127" viewBox="0 0 417 127" fill="none" xmlns="http://www.w3.org/2000/svg">
<rect x="45.2891" y="14.7695" width="10.1294" height="20.8273" rx="1.68357" fill="#DCDFE6"/>
<rect x="45.2891" y="93.4766" width="10.1294" height="20.8273" rx="1.68357" fill="#DCDFE6"/>
<rect x="0.59375" y="69.5977" width="10.1294" height="20.8273" rx="1.68357" transform="rotate(-90 0.59375 69.5977)" fill="#DCDFE6"/>
<rect x="79.2969" y="69.5977" width="10.1294" height="20.8273" rx="1.68357" transform="rotate(-90 79.2969 69.5977)" fill="#DCDFE6"/>
<rect x="11.5781" y="32.9258" width="10.1294" height="31.4642" rx="1.68357" transform="rotate(-45 11.5781 32.9258)" fill="#DCDFE6"/>
<rect x="18.7422" y="103.309" width="10.1294" height="31.4642" rx="1.68357" transform="rotate(-135 18.7422 103.309)" fill="#DCDFE6"/>
<path d="M80.7676 26.9541C81.425 26.2967 82.491 26.2967 83.1484 26.9541L87.9307 31.7363C88.5877 32.3938 88.5879 33.4599 87.9307 34.1172L63.2666 58.7803C63.0078 59.0391 62.6852 59.194 62.3496 59.249L62.3975 59.3154C58.868 62.7786 59.978 67.1734 62.3975 69.46L63.3965 70.46C63.4819 70.5183 63.5638 70.5844 63.6396 70.6602L87.9336 94.9541C88.5909 95.6116 88.591 96.6776 87.9336 97.335L83.1514 102.116C82.4939 102.774 81.4279 102.774 80.7705 102.116L56.4775 77.8232C56.3405 77.6862 56.2332 77.5304 56.1533 77.3652L51.3643 72.542C47.5765 68.6982 46.6015 60.9274 51.5869 56.1924L55.8047 52.0215C55.8815 51.8762 55.9822 51.7405 56.1045 51.6182L80.7676 26.9541Z" fill="#DCDFE6"/>
<path d="M125.717 98.8929H123.613L125.737 86.7827L118.987 98.8929H117.101L114.619 86.7827L112.495 98.8929H110.391L112.872 84.7577H116.247L118.53 95.6172L124.665 84.7577H128.199L125.717 98.8929Z" fill="#DCDFE6"/>
<path d="M130.874 99.0914C128.849 99.0914 127.538 98.0591 127.538 96.3121C127.538 94.2672 128.809 93.2746 131.231 93.076L133.673 92.8577C134.685 92.7783 135.34 92.5003 135.34 91.5077C135.34 90.5349 134.566 89.9592 133.355 89.9592C131.906 89.9592 131.112 90.5746 130.893 91.8253H128.829C129.007 89.7011 130.496 88.4503 133.514 88.4503C135.837 88.4503 137.425 89.443 137.425 91.3489C137.425 91.5672 137.405 91.8253 137.365 92.0437L136.631 96.2723C136.472 97.126 136.393 97.7812 136.393 98.2378C136.393 98.5356 136.432 98.7539 136.492 98.8929H134.606C134.427 98.6547 134.368 98.337 134.368 98.0392C134.368 97.8407 134.388 97.6025 134.447 97.3444C133.653 98.476 132.581 99.0914 130.874 99.0914ZM131.529 97.6422C133.315 97.6422 134.527 96.3915 134.804 94.704L134.963 93.6716C134.725 93.9496 134.209 94.0885 133.435 94.1679L131.668 94.3069C130.278 94.426 129.643 95.0415 129.643 96.0937C129.643 97.0466 130.357 97.6422 131.529 97.6422ZM134.745 87.1996H133.117L135.36 84.2812H137.643L134.745 87.1996Z" fill="#DCDFE6"/>
<path d="M141.972 99.0914C139.232 99.0914 137.863 97.9201 137.863 96.2128C137.863 96.0341 137.882 95.8951 137.902 95.7165H139.848C139.848 97.0466 140.582 97.6819 142.151 97.6819C143.818 97.6819 144.712 96.987 144.712 95.8951C144.712 95.1606 144.215 94.8032 143.183 94.6444L141.595 94.4062C139.927 94.1679 138.895 93.4334 138.895 91.8055C138.895 89.582 140.781 88.4503 143.441 88.4503C145.506 88.4503 147.253 89.2047 147.253 91.2099C147.253 91.3489 147.233 91.5077 147.213 91.6665H145.268C145.268 90.5746 144.851 89.8599 143.263 89.8599C141.972 89.8599 140.999 90.3562 140.999 91.6069C140.999 92.3613 141.436 92.6194 142.21 92.7385L143.799 92.9768C145.704 93.2547 146.816 94.029 146.816 95.7562C146.816 97.7812 145.049 99.0914 141.972 99.0914Z" fill="#DCDFE6"/>
<path d="M156.739 99.0914C154.098 99.0914 152.431 97.4834 152.431 94.8827C152.431 91.0312 154.595 88.4503 158.208 88.4503C160.987 88.4503 162.397 90.1577 162.397 91.8849C162.397 92.0636 162.377 92.2224 162.337 92.4209H160.412C160.412 91.2496 159.697 90.0584 158.069 90.0584C155.806 90.0584 154.535 92.143 154.535 94.7635C154.535 96.5106 155.448 97.4834 156.878 97.4834C158.406 97.4834 159.558 96.6496 160.034 95.0415H161.96C161.563 97.3444 159.915 99.0914 156.739 99.0914Z" fill="#DCDFE6"/>
<path d="M167.185 97.4834C169.428 97.4834 170.818 95.4187 170.818 92.7783C170.818 91.0312 169.905 90.0584 168.376 90.0584C166.113 90.0584 164.743 92.143 164.743 94.7635C164.743 96.5106 165.656 97.4834 167.185 97.4834ZM167.046 99.0914C164.306 99.0914 162.639 97.4834 162.639 94.8827C162.639 91.0312 164.902 88.4503 168.515 88.4503C171.255 88.4503 172.922 90.0584 172.922 92.6591C172.922 96.5304 170.639 99.0914 167.046 99.0914Z" fill="#DCDFE6"/>
<path d="M181.882 98.8929H179.778L180.89 92.5003C180.929 92.2621 180.949 92.0238 180.949 91.8253C180.949 90.7334 180.354 90.1577 179.242 90.1577C177.773 90.1577 176.582 91.2099 176.244 93.1356L175.251 98.8929H173.147L174.934 88.6489H176.939L176.661 90.2172C177.435 89.0856 178.607 88.4503 179.957 88.4503C181.942 88.4503 183.153 89.4231 183.153 91.2694C183.153 91.5275 183.113 91.8253 183.073 92.1231L181.882 98.8929Z" fill="#DCDFE6"/>
<path d="M187.228 98.9922C185.422 98.9922 184.528 98.5356 184.528 97.1459C184.528 96.8878 184.548 96.59 184.608 96.2723L185.699 90.1577H184.012L184.27 88.6489H185.958L186.494 85.5518H188.598L188.062 88.6489H190.405L190.146 90.1577H187.804L186.712 96.3319C186.672 96.4709 186.672 96.6297 186.672 96.729C186.672 97.3047 187.03 97.4834 187.824 97.4834L188.856 97.4635L188.618 98.8929C188.181 98.9326 187.625 98.9922 187.228 98.9922Z" fill="#DCDFE6"/>
<path d="M191.829 98.8929H189.724L191.511 88.6489H193.516L193.139 90.793C193.913 89.1055 194.945 88.5298 196.276 88.5298C196.554 88.5298 197.149 88.5893 197.387 88.6489L197.07 90.4952L195.898 90.4555C194.27 90.4555 193.099 91.5871 192.702 93.8702L191.829 98.8929Z" fill="#DCDFE6"/>
<path d="M201.115 97.4834C203.358 97.4834 204.748 95.4187 204.748 92.7783C204.748 91.0312 203.835 90.0584 202.306 90.0584C200.043 90.0584 198.673 92.143 198.673 94.7635C198.673 96.5106 199.586 97.4834 201.115 97.4834ZM200.976 99.0914C198.236 99.0914 196.568 97.4834 196.568 94.8827C196.568 91.0312 198.832 88.4503 202.445 88.4503C205.185 88.4503 206.852 90.0584 206.852 92.6591C206.852 96.5304 204.569 99.0914 200.976 99.0914Z" fill="#DCDFE6"/>
<path d="M209.181 98.8929H207.077L209.558 84.7577H211.663L209.181 98.8929Z" fill="#DCDFE6"/>
<path d="M215.456 101.752L214.463 101.275C215.079 100.481 215.317 99.8459 215.535 98.615L215.892 96.4907H217.699L217.342 98.615C217.084 100.044 216.548 101.057 215.456 101.752Z" fill="#DCDFE6"/>
<path d="M237.335 98.8929H235.31L236.441 92.4408C236.481 92.2025 236.501 91.9643 236.501 91.7459C236.501 90.8128 236.104 90.1577 235.111 90.1577C233.86 90.1577 232.788 91.1503 232.491 92.9569L231.458 98.8929H229.433L230.565 92.4408C230.604 92.1827 230.624 91.9246 230.624 91.7459C230.624 90.8128 230.227 90.1577 229.254 90.1577C228.004 90.1577 226.952 91.1503 226.654 92.9569L225.621 98.8929H223.596L225.383 88.6489H227.388L227.11 90.2172C227.726 89.165 228.798 88.4503 229.969 88.4503C231.577 88.4503 232.411 89.2246 232.669 90.3761C233.384 89.1452 234.476 88.4503 235.826 88.4503C237.533 88.4503 238.605 89.5025 238.605 91.2496C238.605 91.5275 238.585 91.8055 238.526 92.1231L237.335 98.8929Z" fill="#DCDFE6"/>
<path d="M242.357 99.0914C240.332 99.0914 239.022 98.0591 239.022 96.3121C239.022 94.2672 240.292 93.2746 242.715 93.076L245.156 92.8577C246.169 92.7783 246.824 92.5003 246.824 91.5077C246.824 90.5349 246.05 89.9592 244.839 89.9592C243.39 89.9592 242.595 90.5746 242.377 91.8253H240.312C240.491 89.7011 241.98 88.4503 244.998 88.4503C247.32 88.4503 248.909 89.443 248.909 91.3489C248.909 91.5672 248.889 91.8253 248.849 92.0437L248.115 96.2723C247.956 97.126 247.876 97.7812 247.876 98.2378C247.876 98.5356 247.916 98.7539 247.976 98.8929H246.09C245.911 98.6547 245.851 98.337 245.851 98.0392C245.851 97.8407 245.871 97.6025 245.931 97.3444C245.137 98.476 244.065 99.0914 242.357 99.0914ZM243.012 97.6422C244.799 97.6422 246.01 96.3915 246.288 94.704L246.447 93.6716C246.209 93.9496 245.692 94.0885 244.918 94.1679L243.151 94.3069C241.762 94.426 241.126 95.0415 241.126 96.0937C241.126 97.0466 241.841 97.6422 243.012 97.6422ZM246.228 87.1996H244.601L246.844 84.2812H249.127L246.228 87.1996Z" fill="#DCDFE6"/>
<path d="M253.456 99.0914C250.716 99.0914 249.346 97.9201 249.346 96.2128C249.346 96.0341 249.366 95.8951 249.386 95.7165H251.331C251.331 97.0466 252.066 97.6819 253.634 97.6819C255.302 97.6819 256.195 96.987 256.195 95.8951C256.195 95.1606 255.699 94.8032 254.667 94.6444L253.078 94.4062C251.411 94.1679 250.378 93.4334 250.378 91.8055C250.378 89.582 252.265 88.4503 254.925 88.4503C256.989 88.4503 258.737 89.2047 258.737 91.2099C258.737 91.3489 258.717 91.5077 258.697 91.6665H256.751C256.751 90.5746 256.334 89.8599 254.746 89.8599C253.456 89.8599 252.483 90.3562 252.483 91.6069C252.483 92.3613 252.92 92.6194 253.694 92.7385L255.282 92.9768C257.188 93.2547 258.3 94.029 258.3 95.7562C258.3 97.7812 256.533 99.0914 253.456 99.0914Z" fill="#DCDFE6"/>
<path d="M268.222 99.0914C265.582 99.0914 263.914 97.4834 263.914 94.8827C263.914 91.0312 266.078 88.4503 269.692 88.4503C272.471 88.4503 273.88 90.1577 273.88 91.8849C273.88 92.0636 273.861 92.2224 273.821 92.4209H271.895C271.895 91.2496 271.181 90.0584 269.553 90.0584C267.289 90.0584 266.019 92.143 266.019 94.7635C266.019 96.5106 266.932 97.4834 268.361 97.4834C269.89 97.4834 271.042 96.6496 271.518 95.0415H273.444C273.047 97.3444 271.399 99.0914 268.222 99.0914Z" fill="#DCDFE6"/>
<path d="M275.81 98.8929H273.705L275.492 88.6489H277.497L277.12 90.793C277.894 89.1055 278.927 88.5298 280.257 88.5298C280.535 88.5298 281.13 88.5893 281.369 88.6489L281.051 90.4952L279.88 90.4555C278.252 90.4555 277.08 91.5871 276.683 93.8702L275.81 98.8929Z" fill="#DCDFE6"/>
<path d="M284.957 99.0914C282.138 99.0914 280.55 97.4437 280.55 94.8827C280.55 91.2099 282.674 88.4503 286.307 88.4503C289.245 88.4503 290.595 90.4952 290.595 92.6591C290.595 93.2547 290.496 93.7907 290.397 94.1679H282.654C282.614 94.4657 282.594 94.7238 282.594 94.9819C282.594 96.729 283.528 97.6422 285.076 97.6422C286.486 97.6422 287.538 96.9076 288.074 95.7165H290C289.344 97.7812 287.677 99.0914 284.957 99.0914ZM286.188 89.8996C284.6 89.8996 283.329 90.8525 282.872 92.7783H288.55V92.4805C288.55 90.8922 287.677 89.8996 286.188 89.8996Z" fill="#DCDFE6"/>
<path d="M295.531 99.0914C292.89 99.0914 291.223 97.4834 291.223 94.8827C291.223 91.0312 293.387 88.4503 297 88.4503C299.779 88.4503 301.189 90.1577 301.189 91.8849C301.189 92.0636 301.169 92.2224 301.129 92.4209H299.204C299.204 91.2496 298.489 90.0584 296.861 90.0584C294.598 90.0584 293.327 92.143 293.327 94.7635C293.327 96.5106 294.24 97.4834 295.67 97.4834C297.199 97.4834 298.35 96.6496 298.826 95.0415H300.752C300.355 97.3444 298.707 99.0914 295.531 99.0914Z" fill="#DCDFE6"/>
<path d="M303.118 98.8929H301.014L302.801 88.6489H304.905L303.118 98.8929ZM304.23 86.8621C303.515 86.8621 303.098 86.4452 303.098 85.9092C303.098 85.1746 303.595 84.6187 304.528 84.6187C305.243 84.6187 305.659 85.0357 305.659 85.5717C305.659 86.3261 305.143 86.8621 304.23 86.8621Z" fill="#DCDFE6"/>
<path d="M318.446 98.8929H316.421L317.552 92.4408C317.592 92.2025 317.612 91.9643 317.612 91.7459C317.612 90.8128 317.215 90.1577 316.222 90.1577C314.971 90.1577 313.899 91.1503 313.602 92.9569L312.569 98.8929H310.544L311.676 92.4408C311.716 92.1827 311.735 91.9246 311.735 91.7459C311.735 90.8128 311.338 90.1577 310.366 90.1577C309.115 90.1577 308.063 91.1503 307.765 92.9569L306.733 98.8929H304.708L306.494 88.6489H308.499L308.222 90.2172C308.837 89.165 309.909 88.4503 311.08 88.4503C312.688 88.4503 313.522 89.2246 313.78 90.3761C314.495 89.1452 315.587 88.4503 316.937 88.4503C318.644 88.4503 319.716 89.5025 319.716 91.2496C319.716 91.5275 319.696 91.8055 319.637 92.1231L318.446 98.8929Z" fill="#DCDFE6"/>
<path d="M322.138 98.8929H320.034L321.821 88.6489H323.925L322.138 98.8929ZM323.25 86.8621C322.535 86.8621 322.118 86.4452 322.118 85.9092C322.118 85.1746 322.615 84.6187 323.548 84.6187C324.262 84.6187 324.679 85.0357 324.679 85.5717C324.679 86.3261 324.163 86.8621 323.25 86.8621Z" fill="#DCDFE6"/>
<path d="M328.552 99.0914C325.733 99.0914 324.144 97.4437 324.144 94.8827C324.144 91.2099 326.269 88.4503 329.902 88.4503C332.84 88.4503 334.19 90.4952 334.19 92.6591C334.19 93.2547 334.091 93.7907 333.991 94.1679H326.249C326.209 94.4657 326.189 94.7238 326.189 94.9819C326.189 96.729 327.122 97.6422 328.671 97.6422C330.08 97.6422 331.133 96.9076 331.669 95.7165H333.594C332.939 97.7812 331.272 99.0914 328.552 99.0914ZM329.783 89.8996C328.194 89.8996 326.924 90.8525 326.467 92.7783H332.145V92.4805C332.145 90.8922 331.272 89.8996 329.783 89.8996Z" fill="#DCDFE6"/>
<path d="M343.136 98.8929H341.032L342.143 92.5003C342.183 92.2621 342.203 92.0238 342.203 91.8253C342.203 90.7334 341.607 90.1577 340.495 90.1577C339.026 90.1577 337.835 91.2099 337.498 93.1356L336.505 98.8929H334.401L336.187 88.6489H338.193L337.915 90.2172C338.689 89.0856 339.86 88.4503 341.21 88.4503C343.195 88.4503 344.406 89.4231 344.406 91.2694C344.406 91.5275 344.367 91.8253 344.327 92.1231L343.136 98.8929Z" fill="#DCDFE6"/>
<path d="M348.482 98.9922C346.675 98.9922 345.782 98.5356 345.782 97.1459C345.782 96.8878 345.802 96.59 345.861 96.2723L346.953 90.1577H345.266L345.524 88.6489H347.211L347.747 85.5518H349.852L349.316 88.6489H351.658L351.4 90.1577H349.057L347.966 96.3319C347.926 96.4709 347.926 96.6297 347.926 96.729C347.926 97.3047 348.283 97.4834 349.077 97.4834L350.11 97.4635L349.871 98.8929C349.435 98.9326 348.879 98.9922 348.482 98.9922Z" fill="#DCDFE6"/>
<path d="M355.418 97.4834C357.661 97.4834 359.051 95.4187 359.051 92.7783C359.051 91.0312 358.137 90.0584 356.609 90.0584C354.345 90.0584 352.976 92.143 352.976 94.7635C352.976 96.5106 353.889 97.4834 355.418 97.4834ZM355.279 99.0914C352.539 99.0914 350.871 97.4834 350.871 94.8827C350.871 91.0312 353.134 88.4503 356.748 88.4503C359.487 88.4503 361.155 90.0584 361.155 92.6591C361.155 96.5304 358.872 99.0914 355.279 99.0914Z" fill="#DCDFE6"/>
<path d="M221.297 78.264C211.727 78.264 206.422 72.5123 206.422 64.083C206.422 51.4392 213.711 41.9688 226.354 41.9688C234.337 41.9688 240.585 46.4313 240.585 53.7696C240.585 54.5061 239.929 55.0588 239.192 55.0588H236.929C236.073 55.0588 235.394 54.3594 235.258 53.514C234.603 49.4332 231.309 46.4809 226.007 46.4809C216.735 46.4809 211.926 54.4142 211.926 63.6864C211.926 69.9339 215.545 73.7518 221.644 73.7518C227.541 73.7518 231.469 70.7126 233.229 65.9863C233.47 65.3383 234.07 64.8764 234.762 64.8764H236.966C237.908 64.8764 238.639 65.7143 238.41 66.6287C236.641 73.7167 230.478 78.264 221.297 78.264Z" fill="#DCDFE6"/>
<path d="M269.598 76.4858C269.467 77.2273 268.823 77.7681 268.071 77.7681H265.713C264.75 77.7681 264.02 76.8996 264.186 75.951L266.279 63.9664C266.444 63.0178 265.714 62.1493 264.751 62.1493H249.454C248.701 62.1493 248.056 62.6909 247.927 63.433L245.648 76.4844C245.518 77.2265 244.874 77.7681 244.12 77.7681H241.766C240.803 77.7681 240.073 76.8986 240.239 75.9496L245.893 43.7469C246.023 43.0054 246.667 42.4646 247.42 42.4646H249.775C250.739 42.4646 251.469 43.3341 251.302 44.283L249.313 55.6204C249.146 56.5694 249.876 57.4388 250.84 57.4388H266.137C266.89 57.4388 267.534 56.898 267.664 56.1564L269.842 43.747C269.972 43.0055 270.616 42.4646 271.369 42.4646H273.724C274.688 42.4646 275.418 43.3341 275.251 44.2831L269.598 76.4858Z" fill="#DCDFE6"/>
<path d="M299.238 76.4699C299.114 77.2187 298.467 77.7681 297.708 77.7681H275.88C274.917 77.7681 274.186 76.8986 274.353 75.9496L280.007 43.7469C280.137 43.0054 280.781 42.4646 281.534 42.4646H303.375C304.339 42.4646 305.069 43.3344 304.902 44.2835L304.654 45.6948C304.524 46.4361 303.88 46.9767 303.127 46.9767H286.243C285.49 46.9767 284.847 47.5166 284.716 48.2573L283.38 55.8169C283.212 56.7664 283.942 57.6372 284.906 57.6372H299.092C300.062 57.6372 300.794 58.5176 300.616 59.4712L300.4 60.6345C300.263 61.3688 299.623 61.9014 298.876 61.9014H283.568C282.814 61.9014 282.17 62.4429 282.04 63.185L280.599 71.4388C280.433 72.3874 281.163 73.256 282.126 73.256H297.941C298.898 73.256 299.626 74.1144 299.471 75.0586L299.238 76.4699Z" fill="#DCDFE6"/>
<path d="M318.748 78.264C309.178 78.264 303.873 72.5123 303.873 64.083C303.873 51.4392 311.162 41.9688 323.806 41.9688C331.789 41.9688 338.036 46.4313 338.036 53.7696C338.036 54.5061 337.38 55.0588 336.643 55.0588H334.38C333.524 55.0588 332.845 54.3594 332.709 53.514C332.054 49.4332 328.76 46.4809 323.459 46.4809C314.186 46.4809 309.377 54.4142 309.377 63.6864C309.377 69.9339 312.996 73.7518 319.095 73.7518C324.992 73.7518 328.92 70.7126 330.68 65.9863C330.922 65.3383 331.521 64.8764 332.213 64.8764H334.417C335.359 64.8764 336.09 65.7143 335.862 66.6287C334.092 73.7167 327.929 78.264 318.748 78.264Z" fill="#DCDFE6"/>
<path d="M364.86 75.4865C365.412 76.5194 364.664 77.7681 363.493 77.7681H360.859C360.288 77.7681 359.763 77.4542 359.493 76.9511L351.825 62.6685C351.355 61.7925 350.193 61.5793 349.443 62.2311L344.926 66.1523C344.658 66.3854 344.477 66.7038 344.416 67.054L342.754 76.4868C342.623 77.2278 341.979 77.7681 341.227 77.7681H338.87C337.907 77.7681 337.177 76.8986 337.343 75.9496L342.997 43.7469C343.127 43.0054 343.771 42.4646 344.524 42.4646H346.875C347.84 42.4646 348.571 43.3365 348.402 44.2865L346.478 55.102C346.221 56.547 347.929 57.507 349.03 56.5364L364.55 42.8521C364.833 42.6024 365.197 42.4646 365.575 42.4646H367.648C369.08 42.4646 369.747 44.2411 368.667 45.1831L355.952 56.2805C355.408 56.7553 355.264 57.5429 355.605 58.1797L364.86 75.4865Z" fill="#DCDFE6"/>
<path d="M146.471 50.7145C146.471 54.3376 145.586 56.7737 143.814 58.4858C142.659 59.6016 142.448 63.4185 142.92 64.9533C143.111 65.5736 143.205 66.2573 143.205 66.9973C143.205 67.5501 143.155 68.1532 143.054 68.8065L142.099 74.3849C141.948 75.2392 141.898 76.0936 141.898 76.7469C141.898 77.3806 141.368 78.0033 140.734 78.0033H135.327C134.659 78.0033 134.047 77.5786 133.942 76.9197C133.889 76.5886 133.857 76.2311 133.857 75.8423C133.857 75.39 133.908 74.9377 134.008 74.3849L134.963 69.108C135.063 68.505 135.114 67.9019 135.114 67.3993C135.114 64.8866 133.556 64.0322 130.54 64.0322H124.559C123.805 64.0322 123.16 64.5754 123.031 65.3188L121.063 76.7166C120.935 77.4601 120.29 78.0033 119.535 78.0033H114.596C113.633 78.0033 112.903 77.1337 113.069 76.1848L118.807 43.5036C118.937 42.7621 119.581 42.2213 120.334 42.2213H135.164C142.501 42.2213 146.471 45.8397 146.471 50.7145ZM138.33 51.9709C138.33 49.2068 136.42 48.252 132.35 48.252H127.363C126.613 48.252 125.971 48.789 125.838 49.5271L124.638 56.1759C124.467 57.127 125.197 58.0016 126.164 58.0016H131.897C136.42 58.0016 138.33 55.9913 138.33 51.9709Z" fill="#DCDFE6"/>
<path d="M162.601 78.5058C152.751 78.5058 146.77 72.7264 146.77 63.982C146.77 51.0663 154.66 41.7188 167.727 41.7188C177.476 41.7188 183.557 47.4981 183.557 56.2426C183.557 69.1583 176.069 78.5058 162.601 78.5058ZM163.154 71.9223C171.094 71.9223 175.466 64.9871 175.466 56.8457C175.466 51.5186 172.149 48.3022 167.174 48.3022C159.234 48.3022 154.861 55.2375 154.861 63.3789C154.861 68.706 158.178 71.9223 163.154 71.9223Z" fill="#DCDFE6"/>
<path d="M191.347 76.7209C191.217 77.4624 190.573 78.0033 189.82 78.0033H184.878C183.914 78.0033 183.184 77.1337 183.35 76.1848L189.088 43.5036C189.218 42.7621 189.862 42.2213 190.615 42.2213H195.558C196.521 42.2213 197.252 43.0908 197.085 44.0398L191.347 76.7209Z" fill="#DCDFE6"/>
<path d="M381.765 42.9598C376.849 42.9598 373.672 39.7824 373.672 35.1361C373.672 30.4899 376.849 27.3125 381.765 27.3125C386.681 27.3125 389.829 30.4899 389.829 35.1361C389.829 39.7824 386.681 42.9598 381.765 42.9598ZM381.765 41.5509C385.752 41.5509 388.24 38.973 388.24 35.1361C388.24 31.2993 385.752 28.7214 381.765 28.7214C377.749 28.7214 375.261 31.2993 375.261 35.1361C375.261 38.973 377.749 41.5509 381.765 41.5509ZM385.033 33.4875C385.033 34.4467 384.553 35.1062 383.654 35.376C384.493 35.5858 384.913 36.1553 384.913 37.0246V38.2536C384.913 38.5833 384.973 38.8531 385.033 39.033H383.324C383.234 38.8232 383.174 38.5833 383.174 38.2536V37.1745C383.174 36.2153 382.575 35.9755 381.825 35.9755H380.596V39.033H378.828V31.2393H382.455C384.103 31.2393 385.033 32.1086 385.033 33.4875ZM383.264 33.6074C383.264 32.888 382.904 32.5882 382.005 32.5882H380.596V34.6565H382.005C382.904 34.6565 383.264 34.3568 383.264 33.6074Z" fill="#DCDFE6"/>
</svg>
