<svg width="274" height="88" viewBox="0 0 274 88" fill="none" xmlns="http://www.w3.org/2000/svg">
<g clip-path="url(#clip0_2549_13401)">
<path d="M73.8223 9.74219C80.6222 9.74221 83.6619 12.5222 85.8535 20.8447L87.4395 25.626C90.3405 33.2449 90.6232 36.8267 85.917 43.0498L74.5664 56.9326C73.2823 58.5076 71.7416 59.8549 70.0098 60.918C67.5789 62.5158 64.7453 63.3939 61.8369 63.4502H45.8037C38.4616 63.0984 36.8978 60.0124 34.5908 52.3877L32.9248 47.3291C30.3352 40.7368 29.8738 36.2038 34.5225 30.1133L45.8838 16.208C47.7543 13.9041 50.1746 12.107 52.9209 10.9824C54.7402 10.1848 56.7021 9.7627 58.6885 9.74219H73.8223ZM61.8955 18.2734C60.6843 18.2446 58.9308 20.0675 59.6748 21.7344L63.7119 33.6904C64.6058 35.6802 64.1039 37.5141 62.2988 39.498L52.5576 51.3906C51.0351 53.0458 51.917 54.8513 53.1338 54.8516H63.9541C64.9807 54.8515 66.8036 53.8654 67.5938 52.8965L78.5225 39.5273H78.5518C80.357 37.5433 80.8065 35.7552 79.9414 33.7539L79.5615 32.5547L75.4492 20.2285C75.2115 19.6928 74.8353 19.2301 74.3604 18.8867C73.8853 18.5433 73.3275 18.3312 72.7441 18.2734H61.8955Z" fill="#DCDFE6"/>
<path fill-rule="evenodd" clip-rule="evenodd" d="M27.1477 18.2579H16.3047C15.2723 18.2579 13.4497 19.2441 12.6596 20.2131L2.63555 32.5384L1.67236 33.738C-0.144425 35.774 -0.548157 37.5619 0.299674 39.5459L4.80991 52.9151C5.04869 53.4504 5.42458 53.9131 5.89957 54.2564C6.37455 54.5997 6.93179 54.8115 7.5149 54.8704H18.3637C19.5749 54.8704 21.3282 53.0651 20.5842 51.4098L16.5469 39.5171C15.6991 37.5331 16.0567 35.699 17.9196 33.7092L27.7244 21.753C29.2471 20.0689 28.3704 18.2463 27.1477 18.2579Z" fill="#DCDFE6"/>
<path fill-rule="evenodd" clip-rule="evenodd" d="M124.998 20.9846C125.151 20.391 124.813 19.7719 124.209 19.6714C123.968 19.6315 123.726 19.6029 123.483 19.5858C122.799 19.507 122.112 19.4628 121.424 19.4531C118.635 19.5838 117.16 20.3058 115.387 21.0895C115.332 21.1136 115.278 21.1426 115.228 21.1747C114.545 21.6093 114.07 21.8742 113.621 22.154C112.849 22.6354 111.726 21.9369 111.975 21.062C112.138 20.4927 111.71 19.9261 111.118 19.9261H103.134C102.608 19.9261 102.149 20.2816 102.017 20.7907L93.5763 53.4178C93.3874 54.1481 93.9387 54.8602 94.693 54.8602H102.92C103.447 54.8602 103.907 54.5031 104.037 53.9926L107.957 38.6764C108.81 35.4812 110.142 33.0492 111.953 31.3805C113.755 29.7101 116.135 28.8044 118.592 28.8543L122.044 28.909C122.577 28.9175 123.046 28.5597 123.179 28.0435L124.998 20.9846Z" fill="#DCDFE6"/>
<path fill-rule="evenodd" clip-rule="evenodd" d="M156.842 23.0739C154.151 20.5631 150.256 19.2885 145.157 19.25C138.697 19.3077 133.359 21.2456 129.141 25.0637C124.923 28.8818 122.485 34.2649 121.827 41.2129C121.523 45.7231 122.725 49.2317 125.432 51.7387C128.139 54.2456 132.034 55.5203 137.117 55.5626C143.577 55.5126 148.916 53.5766 153.134 49.7546C157.352 45.9327 159.789 40.5496 160.447 33.6055C160.747 29.0991 159.545 25.5886 156.842 23.0739ZM149.783 34.2803C149.556 37.7162 148.315 41.0078 146.218 43.7391C145.324 44.9553 144.165 45.9513 142.827 46.651C141.49 47.3507 140.01 47.7356 138.501 47.7764C136.465 47.7764 134.914 47.1592 133.841 45.9308C132.768 44.7023 132.318 42.9085 132.486 40.5323C132.714 37.0956 133.956 33.8038 136.056 31.0735C136.949 29.8577 138.108 28.8619 139.444 28.1622C140.781 27.4625 142.259 27.0774 143.767 27.0362C145.803 27.0362 147.36 27.6591 148.427 28.8818C149.494 30.1045 149.95 31.904 149.783 34.2803Z" fill="#DCDFE6"/>
<path fill-rule="evenodd" clip-rule="evenodd" d="M175.638 47.4952C175.58 47.4658 175.525 47.4307 175.476 47.3881C175.255 47.1959 175.085 46.9516 174.982 46.6767C174.867 46.3714 174.838 46.0402 174.9 45.7198C174.918 45.5452 174.947 45.3719 174.986 45.2007C175.027 45.0277 175.073 44.8373 175.125 44.6239L179.423 28.0128C179.554 27.5038 180.014 27.1482 180.539 27.1482H186.101C186.629 27.1482 187.09 26.7887 187.219 26.2759L188.456 21.3562C188.639 20.6278 188.088 19.9215 187.337 19.9215H183.02C182.266 19.9215 181.715 19.2108 181.902 18.481L183.879 10.7842C184.066 10.0544 183.515 9.34375 182.762 9.34375H174.596C174.072 9.34375 173.613 9.69771 173.48 10.2052L171.163 19.06C171.03 19.5675 170.571 19.9215 170.047 19.9215H166.414C165.886 19.9215 165.425 20.2803 165.296 20.7925L164.05 25.7238C163.866 26.4525 164.417 27.1598 165.169 27.1598H167.537C168.292 27.1598 168.843 27.8727 168.653 28.6033L164.593 44.2317C164.397 44.9354 164.241 45.5871 164.126 46.1869C164.012 46.749 163.932 47.317 163.884 47.8884C163.653 50.5799 164.358 52.4928 166 53.6271C167.642 54.7614 170.276 55.3055 173.902 55.2593C174.802 55.2593 175.782 55.2016 176.855 55.1094L178.928 54.9269C179.414 54.8842 179.821 54.5403 179.943 54.0681L181.163 49.3783C181.353 48.6477 180.801 47.9345 180.046 47.9345H177.864C177.095 47.9958 176.325 47.8435 175.638 47.4952Z" fill="#DCDFE6"/>
<path fill-rule="evenodd" clip-rule="evenodd" d="M219.825 21.805C217.287 20.0978 213.78 19.2462 209.305 19.25C203.572 19.2731 199.198 20.3035 196.184 22.3414C194.7 23.3391 193.445 24.6417 192.505 26.1623C191.795 27.3099 191.275 28.5618 190.964 29.8691C190.803 30.5462 191.345 31.16 192.041 31.16H200.358C200.893 31.16 201.347 30.7875 201.544 30.29C201.941 29.283 202.592 28.3894 203.439 27.6995C204.472 26.892 205.937 26.4883 207.823 26.4768C209.125 26.41 210.414 26.7727 211.491 27.5092C211.933 27.8559 212.277 28.3112 212.49 28.8308C212.704 29.3504 212.779 29.9165 212.708 30.4737C212.689 30.9578 212.555 31.4305 212.316 31.852C212.077 32.2735 211.741 32.6316 211.335 32.8961C210.383 33.4481 209.309 33.7553 208.209 33.79L199.777 34.4821C195.351 34.8282 191.873 35.9144 189.343 37.7408C186.813 39.5672 185.387 42.2953 185.064 45.925C184.848 48.9049 185.702 51.2446 187.625 52.9441C189.547 54.6436 192.389 55.5088 196.149 55.5395C198.517 55.6153 200.874 55.1948 203.07 54.3053C204.739 53.5426 206.244 52.4706 207.509 51.1485C207.661 50.9897 207.945 51.1309 207.903 51.3465C207.857 51.583 207.828 51.7848 207.811 51.9579C207.768 52.4598 207.801 52.9653 207.909 53.4574C207.972 53.7501 208.065 54.0348 208.186 54.3071C208.347 54.6675 208.725 54.8647 209.119 54.8647H216.598C217.365 54.8647 217.917 54.1207 217.913 53.3537C217.911 53.1113 217.926 52.8685 217.956 52.6269C218.223 50.3581 218.682 48.116 219.329 45.925L222.847 32.3827C223.107 31.4535 223.277 30.5013 223.355 29.5393C223.543 26.0788 222.366 23.5007 219.825 21.805ZM210.02 40.988C209.506 43.1146 208.318 45.0183 206.634 46.4152C204.868 47.8726 202.644 48.6608 200.354 48.6415C198.75 48.6415 197.562 48.2666 196.778 47.5688C196.387 47.2121 196.089 46.7661 195.908 46.2689C195.727 45.7717 195.669 45.2381 195.74 44.7138C195.772 44.0989 195.945 43.4996 196.245 42.9618C196.545 42.424 196.964 41.9619 197.47 41.6108C198.508 40.8649 200.023 40.4093 202.015 40.2439L206.629 39.9037C207.457 39.8282 208.28 39.6972 209.091 39.5115C209.582 39.4308 210.274 39.9133 210.16 40.3969L210.02 40.988Z" fill="#DCDFE6"/>
<path fill-rule="evenodd" clip-rule="evenodd" d="M254.809 19.9198C254.285 19.9218 253.828 20.2773 253.697 20.7851L248.993 39.0138C248.305 41.6669 247.202 43.6932 245.683 45.0928C244.225 46.4679 242.294 47.2281 240.29 47.2153C238.864 47.2153 237.822 46.8308 237.164 46.0618C236.501 45.312 236.23 44.2219 236.339 42.7916C236.339 42.5205 236.403 42.2148 236.455 41.9034C236.507 41.5919 236.564 41.2747 236.628 40.9633L241.747 21.3507C241.938 20.6198 241.386 19.9059 240.631 19.9059H232.386C231.861 19.9059 231.402 20.2605 231.27 20.7686L225.485 42.9761C225.375 43.4491 225.271 43.9336 225.179 44.4238C225.088 44.8851 225.023 45.3511 224.983 45.8195C224.756 48.9456 225.552 51.3353 227.371 52.9886C229.19 54.642 231.881 55.4764 235.445 55.4918C237.598 55.5121 239.726 55.0344 241.663 54.096C242.435 53.7099 243.168 53.2569 243.855 52.7434C244.563 52.2143 245.892 52.9445 245.675 53.8013C245.544 54.3166 245.934 54.8169 246.465 54.8169H254.589C255.115 54.8169 255.574 54.4614 255.706 53.9523L264.145 21.3309C264.334 20.5989 263.78 19.8856 263.024 19.8885L254.809 19.9198Z" fill="#DCDFE6"/>
<path d="M99.5513 64.9121C99.5513 66.754 98.7703 67.5497 97.2084 68.0065C98.1515 68.2127 98.5935 68.8169 98.5935 69.6863C98.5935 69.8483 98.5788 70.0252 98.5493 70.2167L98.2693 71.8523C98.2251 72.1028 98.2104 72.3533 98.2104 72.5449C98.2104 72.6922 98.2104 72.8101 98.2399 72.9132H95.9559C95.897 72.7364 95.8528 72.5301 95.8528 72.2796C95.8528 72.147 95.8675 72.0144 95.897 71.8523L96.177 70.3051C96.2064 70.1283 96.2212 69.9515 96.2212 69.8041C96.2212 69.0674 95.7644 68.8169 94.8803 68.8169H92.7437L92.0364 72.9132H89.6641L91.5059 62.4219H96.2359C98.3872 62.4219 99.5513 63.4828 99.5513 64.9121ZM97.1642 65.2805C97.1642 64.47 96.6043 64.1901 95.4107 64.1901H93.5688L93.0531 67.0487H95.2781C96.6043 67.0487 97.1642 66.4593 97.1642 65.2805Z" fill="#DCDFE6"/>
<path d="M102.895 73.0606C100.656 73.0606 99.4031 71.8376 99.4031 69.9367C99.4031 67.0045 101.245 65.1626 103.897 65.1626C106.063 65.1626 107.301 66.474 107.301 68.2864C107.301 68.7579 107.227 69.2 107.095 69.6126H101.613C101.599 69.7599 101.599 69.9073 101.599 70.0399C101.599 71.0271 102.114 71.5576 103.043 71.5576C103.824 71.5576 104.428 71.1745 104.752 70.4672H106.844C106.388 72.0291 105.106 73.0606 102.895 73.0606ZM103.75 66.6656C102.836 66.6656 102.159 67.1813 101.864 68.1685H105.106C105.106 67.2255 104.664 66.6656 103.75 66.6656Z" fill="#DCDFE6"/>
<path d="M110.722 73.0606C108.615 73.0606 107.377 72.1765 107.377 70.8356C107.377 70.7177 107.392 70.5998 107.407 70.4672H109.529C109.529 71.2482 110.059 71.6018 110.943 71.6018C111.886 71.6018 112.387 71.1892 112.387 70.6588C112.387 70.3051 112.137 70.0988 111.444 70.0104L110.339 69.8483C108.895 69.642 108.129 69.0379 108.129 67.7412C108.129 66.0467 109.705 65.1626 111.827 65.1626C113.33 65.1626 114.936 65.7078 114.936 67.2844C114.936 67.4023 114.936 67.5202 114.922 67.6381H112.8C112.8 66.9603 112.461 66.6214 111.606 66.6214C110.899 66.6214 110.369 66.9161 110.369 67.5202C110.369 67.8738 110.531 68.0212 111.046 68.0949L112.151 68.257C113.772 68.4927 114.642 69.0969 114.642 70.4967C114.642 72.1028 113.065 73.0606 110.722 73.0606Z" fill="#DCDFE6"/>
<path d="M118.725 73.0606C116.485 73.0606 115.232 71.8376 115.232 69.9367C115.232 67.0045 117.074 65.1626 119.727 65.1626C121.893 65.1626 123.13 66.474 123.13 68.2864C123.13 68.7579 123.057 69.2 122.924 69.6126H117.443C117.428 69.7599 117.428 69.9073 117.428 70.0399C117.428 71.0271 117.944 71.5576 118.872 71.5576C119.653 71.5576 120.257 71.1745 120.581 70.4672H122.674C122.217 72.0291 120.935 73.0606 118.725 73.0606ZM119.579 66.6656C118.666 66.6656 117.988 67.1813 117.693 68.1685H120.935C120.935 67.2255 120.493 66.6656 119.579 66.6656Z" fill="#DCDFE6"/>
<path d="M125.712 73.0606C124.12 73.0606 123.192 72.2502 123.192 70.9682C123.192 69.3768 124.267 68.6401 126.124 68.478L127.907 68.3306C128.437 68.2864 128.806 68.0949 128.806 67.6086C128.806 67.0487 128.349 66.7392 127.701 66.7392C126.89 66.7392 126.522 67.1076 126.389 67.756H124.15C124.297 66.0909 125.446 65.1626 127.892 65.1626C129.764 65.1626 131.046 65.8993 131.046 67.4023C131.046 67.5939 131.031 67.8002 130.987 68.0212L130.471 70.9682C130.353 71.6018 130.294 72.0881 130.294 72.427C130.294 72.648 130.324 72.8101 130.368 72.9132H128.32C128.187 72.7217 128.128 72.5006 128.128 72.2796C128.128 72.2059 128.143 72.1028 128.158 71.9702C127.568 72.7069 126.905 73.0606 125.712 73.0606ZM126.492 71.5576C127.524 71.5576 128.261 70.8209 128.408 69.8925L128.482 69.421C128.379 69.5536 128.069 69.6126 127.671 69.6568L126.699 69.7305C125.859 69.8041 125.446 70.1283 125.446 70.703C125.446 71.2187 125.815 71.5576 126.492 71.5576Z" fill="#DCDFE6"/>
<path d="M133.395 72.9132H131.141L132.467 65.3099H134.603L134.323 66.8424C134.854 65.6341 135.561 65.2068 136.534 65.2068C136.74 65.2068 137.226 65.251 137.359 65.3099L137.02 67.2697L136.092 67.255C134.987 67.255 134.25 68.0065 133.999 69.3916L133.395 72.9132Z" fill="#DCDFE6"/>
<path d="M140.245 73.0606C138.137 73.0606 136.782 71.8818 136.782 69.9367C136.782 66.9455 138.55 65.1626 141.335 65.1626C143.575 65.1626 144.695 66.4151 144.695 67.8149C144.695 67.9623 144.665 68.1243 144.636 68.2864H142.543C142.543 67.5791 142.145 66.8571 141.173 66.8571C139.788 66.8571 139.036 68.2127 139.036 69.7894C139.036 70.8209 139.581 71.366 140.407 71.366C141.202 71.366 141.969 70.9387 142.278 69.8778H144.385C144.061 71.7344 142.794 73.0606 140.245 73.0606Z" fill="#DCDFE6"/>
<path d="M151.408 72.9132H149.154L149.964 68.3306C149.979 68.198 149.993 68.0507 149.993 67.9328C149.993 67.3139 149.684 66.975 149.08 66.975C148.211 66.975 147.562 67.6086 147.371 68.7579L146.649 72.9132H144.394L146.236 62.4219H148.491L147.827 66.1793C148.299 65.5752 149.006 65.1626 149.964 65.1626C151.467 65.1626 152.351 65.9141 152.351 67.2697C152.351 67.4613 152.322 67.6823 152.292 67.8886L151.408 72.9132Z" fill="#DCDFE6"/>
<path d="M158.399 73.0606C156.808 73.0606 155.879 72.2502 155.879 70.9682C155.879 69.3768 156.955 68.6401 158.812 68.478L160.595 68.3306C161.125 68.2864 161.493 68.0949 161.493 67.6086C161.493 67.0487 161.037 66.7392 160.388 66.7392C159.578 66.7392 159.21 67.1076 159.077 67.756H156.837C156.985 66.0909 158.134 65.1626 160.58 65.1626C162.451 65.1626 163.733 65.8993 163.733 67.4023C163.733 67.5939 163.718 67.8002 163.674 68.0212L163.159 70.9682C163.041 71.6018 162.982 72.0881 162.982 72.427C162.982 72.648 163.011 72.8101 163.055 72.9132H161.007C160.875 72.7217 160.816 72.5006 160.816 72.2796C160.816 72.2059 160.83 72.1028 160.845 71.9702C160.256 72.7069 159.593 73.0606 158.399 73.0606ZM159.18 71.5576C160.212 71.5576 160.948 70.8209 161.096 69.8925L161.169 69.421C161.066 69.5536 160.757 69.6126 160.359 69.6568L159.386 69.7305C158.546 69.8041 158.134 70.1283 158.134 70.703C158.134 71.2187 158.502 71.5576 159.18 71.5576Z" fill="#DCDFE6"/>
<path d="M170.842 72.9132H168.588L169.398 68.3306C169.413 68.198 169.428 68.0507 169.428 67.9328C169.428 67.3139 169.118 66.975 168.514 66.975C167.645 66.975 166.996 67.6086 166.805 68.7579L166.083 72.9132H163.828L165.154 65.3099H167.291L167.114 66.3561C167.659 65.5752 168.44 65.1626 169.398 65.1626C170.901 65.1626 171.785 65.9141 171.785 67.2697C171.785 67.4613 171.756 67.6823 171.726 67.8886L170.842 72.9132Z" fill="#DCDFE6"/>
<path d="M175.063 73.0606C173.133 73.0606 172.16 71.6607 172.16 69.9367C172.16 67.2697 173.619 65.1626 176.124 65.1626C177.185 65.1626 177.922 65.6046 178.246 66.4151L178.953 62.4219H181.208L179.366 72.9132H177.229L177.421 71.8376C176.89 72.6185 176.08 73.0606 175.063 73.0606ZM175.741 71.366C177.023 71.366 177.833 70.0104 177.833 68.4338C177.833 67.4023 177.347 66.8571 176.507 66.8571C175.225 66.8571 174.415 68.2127 174.415 69.7894C174.415 70.8209 174.901 71.366 175.741 71.366Z" fill="#DCDFE6"/>
<path d="M188.776 72.9132H186.404L187.907 64.3522H184.798L185.137 62.4219H193.742L193.403 64.3522H190.279L188.776 72.9132Z" fill="#DCDFE6"/>
<path d="M195.302 73.0606C193.063 73.0606 191.81 71.8376 191.81 69.9367C191.81 67.0045 193.652 65.1626 196.304 65.1626C198.471 65.1626 199.708 66.474 199.708 68.2864C199.708 68.7579 199.635 69.2 199.502 69.6126H194.021C194.006 69.7599 194.006 69.9073 194.006 70.0399C194.006 71.0271 194.522 71.5576 195.45 71.5576C196.231 71.5576 196.835 71.1745 197.159 70.4672H199.251C198.795 72.0291 197.513 73.0606 195.302 73.0606ZM196.157 66.6656C195.244 66.6656 194.566 67.1813 194.271 68.1685H197.513C197.513 67.2255 197.071 66.6656 196.157 66.6656Z" fill="#DCDFE6"/>
<path d="M203.468 73.0606C201.361 73.0606 200.006 71.8818 200.006 69.9367C200.006 66.9455 201.774 65.1626 204.559 65.1626C206.798 65.1626 207.918 66.4151 207.918 67.8149C207.918 67.9623 207.889 68.1243 207.859 68.2864H205.767C205.767 67.5791 205.369 66.8571 204.397 66.8571C203.011 66.8571 202.26 68.2127 202.26 69.7894C202.26 70.8209 202.805 71.366 203.63 71.366C204.426 71.366 205.192 70.9387 205.502 69.8778H207.609C207.285 71.7344 206.017 73.0606 203.468 73.0606Z" fill="#DCDFE6"/>
<path d="M214.632 72.9132H212.377L213.188 68.3306C213.202 68.198 213.217 68.0507 213.217 67.9328C213.217 67.3139 212.908 66.975 212.304 66.975C211.434 66.975 210.786 67.6086 210.594 68.7579L209.872 72.9132H207.618L209.46 62.4219H211.714L211.051 66.1793C211.523 65.5752 212.23 65.1626 213.188 65.1626C214.691 65.1626 215.575 65.9141 215.575 67.2697C215.575 67.4613 215.545 67.6823 215.516 67.8886L214.632 72.9132Z" fill="#DCDFE6"/>
<path d="M222.654 72.9132H220.4L221.21 68.3306C221.225 68.198 221.24 68.0507 221.24 67.9328C221.24 67.3139 220.93 66.975 220.326 66.975C219.457 66.975 218.808 67.6086 218.617 68.7579L217.895 72.9132H215.64L216.967 65.3099H219.103L218.926 66.3561C219.472 65.5752 220.252 65.1626 221.21 65.1626C222.713 65.1626 223.597 65.9141 223.597 67.2697C223.597 67.4613 223.568 67.6823 223.538 67.8886L222.654 72.9132Z" fill="#DCDFE6"/>
<path d="M227.627 71.366C228.923 71.366 229.793 70.0104 229.793 68.4338C229.793 67.4023 229.248 66.8571 228.393 66.8571C227.096 66.8571 226.227 68.2127 226.227 69.7894C226.227 70.8209 226.772 71.366 227.627 71.366ZM227.465 73.0606C225.328 73.0606 223.972 71.8818 223.972 69.9367C223.972 66.9455 225.858 65.1626 228.555 65.1626C230.692 65.1626 232.047 66.3414 232.047 68.2864C232.047 71.2776 230.161 73.0606 227.465 73.0606Z" fill="#DCDFE6"/>
<path d="M234.285 72.9132H232.031L233.873 62.4219H236.127L234.285 72.9132Z" fill="#DCDFE6"/>
<path d="M239.254 71.366C240.551 71.366 241.42 70.0104 241.42 68.4338C241.42 67.4023 240.875 66.8571 240.02 66.8571C238.724 66.8571 237.854 68.2127 237.854 69.7894C237.854 70.8209 238.4 71.366 239.254 71.366ZM239.092 73.0606C236.955 73.0606 235.6 71.8818 235.6 69.9367C235.6 66.9455 237.486 65.1626 240.182 65.1626C242.319 65.1626 243.675 66.3414 243.675 68.2864C243.675 71.2776 241.789 73.0606 239.092 73.0606Z" fill="#DCDFE6"/>
<path d="M246.944 72.6185C245.102 72.6185 244.027 71.3366 244.027 69.7157C244.027 67.0487 245.456 65.1626 247.931 65.1626C249.066 65.1626 249.803 65.6488 250.142 66.5919L250.363 65.3099H252.499L251.276 72.2502C250.805 74.9614 249.287 75.9486 246.885 75.9486C245.132 75.9486 243.703 75.2708 243.703 73.5321C243.703 73.4142 243.703 73.2963 243.717 73.1785H245.765C245.765 74.0036 246.207 74.4899 247.136 74.4899C248.138 74.4899 248.742 73.9742 248.919 72.8838L249.14 71.6608C248.727 72.1765 247.961 72.6185 246.944 72.6185ZM247.578 71.0419C248.83 71.0419 249.641 69.6715 249.641 68.2127C249.641 67.3139 249.154 66.7392 248.329 66.7392C247.092 66.7392 246.281 68.1096 246.281 69.5684C246.281 70.4672 246.767 71.0419 247.578 71.0419Z" fill="#DCDFE6"/>
<path d="M251.758 75.8013L252.037 74.2246H252.877C253.85 74.2246 254.262 73.65 254.262 72.8396C254.262 72.6627 254.233 72.4712 254.204 72.2796L252.907 65.3099H255.161L255.869 71.204L258.654 65.3099H261.1L257.357 72.2796C255.913 74.9761 254.675 75.8013 252.597 75.8013H251.758Z" fill="#DCDFE6"/>
</g>
<defs>
<clipPath id="clip0_2549_13401">
<rect width="274" height="88" fill="white"/>
</clipPath>
</defs>
</svg>
