<svg width="290" height="98" viewBox="0 0 290 98" fill="none" xmlns="http://www.w3.org/2000/svg">
<path d="M245.295 69.7969L239.466 84.9731L232.863 69.7969H229.18L237.818 89.5223L237.431 90.259C236.307 93.1383 234.533 94.489 232.108 94.3109V97.5156C233.993 97.6802 235.87 97.1204 237.357 95.9501C238.997 94.6067 240.225 92.8292 240.903 90.8208L248.979 69.7969H245.295Z" fill="#DCDFE6"/>
<path d="M105.256 73.2048C104.466 71.9475 103.357 70.922 102.042 70.2328C100.726 69.5437 99.252 69.2155 97.7687 69.2818C96.4408 69.2639 95.1238 69.5242 93.9025 70.046C92.6813 70.5678 91.5828 71.3395 90.6779 72.3115C88.8068 74.3083 87.7656 76.9422 87.7656 79.6786C87.7656 82.4151 88.8068 85.049 90.6779 87.0458C91.5828 88.0177 92.6813 88.7895 93.9025 89.3113C95.1238 89.8331 96.4408 90.0934 97.7687 90.0755C99.252 90.1418 100.726 89.8136 102.042 89.1245C103.357 88.4353 104.466 87.4098 105.256 86.1525V89.5598H108.7V69.7607H105.256V73.2048ZM103.239 84.7435C101.898 86.0535 100.099 86.787 98.2245 86.787C96.3504 86.787 94.5506 86.0535 93.2103 84.7435C91.915 83.3753 91.1931 81.5628 91.1931 79.6786C91.1931 77.7945 91.915 75.982 93.2103 74.6138C94.5506 73.3038 96.3504 72.5703 98.2245 72.5703C100.099 72.5703 101.898 73.3038 103.239 74.6138C104.534 75.982 105.256 77.7945 105.256 79.6786C105.256 81.5628 104.534 83.3753 103.239 84.7435Z" fill="#DCDFE6"/>
<path d="M124.966 85.7768C123.879 86.3996 122.645 86.7177 121.392 86.6977C120.471 86.7209 119.555 86.5537 118.7 86.2067C117.846 85.8597 117.073 85.3403 116.429 84.681C115.145 83.329 114.429 81.5358 114.429 79.6713C114.429 77.8069 115.145 76.0137 116.429 74.6617C117.534 73.5762 118.966 72.8838 120.503 72.6908C122.04 72.4978 123.598 72.8149 124.938 73.5935C125.949 74.184 126.758 75.0669 127.259 76.1259L130.15 74.4591C129.392 72.8787 128.176 71.5631 126.66 70.6835C124.656 69.5358 122.333 69.0697 120.042 69.3553C117.75 69.641 115.613 70.6629 113.952 72.2674C112.172 74.074 111.108 76.4647 110.956 78.9961C110.805 81.5276 111.576 84.0282 113.128 86.0341C114.68 88.04 116.906 89.4152 119.394 89.9047C121.883 90.3942 124.464 89.9648 126.66 88.6961C128.211 87.8159 129.487 86.5213 130.344 84.9572L127.415 83.2536C126.859 84.3129 126.008 85.1891 124.966 85.7768Z" fill="#DCDFE6"/>
<path d="M148.357 73.2046C147.567 71.9479 146.457 70.9229 145.142 70.2339C143.827 69.5448 142.353 69.2163 140.87 69.2816C139.542 69.2636 138.225 69.524 137.004 70.0458C135.783 70.5676 134.684 71.3393 133.779 72.3113C131.908 74.3081 130.867 76.942 130.867 79.6784C130.867 82.4148 131.908 85.0487 133.779 87.0455C134.684 88.0175 135.783 88.7893 137.004 89.3111C138.225 89.8329 139.542 90.0932 140.87 90.0753C142.353 90.1406 143.827 89.812 145.142 89.1229C146.457 88.4339 147.567 87.4089 148.357 86.1523V89.5596H151.801V69.7604H148.357V73.2046ZM146.331 84.7433C144.992 86.0527 143.194 86.7859 141.321 86.7859C139.449 86.7859 137.651 86.0527 136.312 84.7433C135.017 83.3751 134.295 81.5626 134.295 79.6784C134.295 77.7943 135.017 75.9818 136.312 74.6135C137.651 73.3041 139.449 72.5709 141.321 72.5709C143.194 72.5709 144.992 73.3041 146.331 74.6135C147.641 75.9742 148.373 77.7896 148.373 79.6784C148.373 81.5672 147.641 83.3826 146.331 84.7433Z" fill="#DCDFE6"/>
<path d="M171.589 73.2075C170.799 71.9502 169.69 70.9247 168.375 70.2355C167.06 69.5464 165.586 69.2182 164.102 69.2845C162.776 69.2667 161.46 69.5271 160.24 70.049C159.021 70.5708 157.924 71.3425 157.021 72.3142C155.146 74.309 154.102 76.9436 154.102 79.6814C154.102 82.4191 155.146 85.0537 157.021 87.0485C157.924 88.0202 159.021 88.7919 160.24 89.3137C161.46 89.8356 162.776 90.096 164.102 90.0782C165.586 90.1445 167.06 89.8163 168.375 89.1272C169.69 88.438 170.799 87.4125 171.589 86.1552V89.5625H175.07V61.8438H171.626L171.589 73.2075ZM169.545 84.7462C168.206 86.0557 166.408 86.7888 164.535 86.7888C162.662 86.7888 160.864 86.0557 159.525 84.7462C158.23 83.378 157.508 81.5655 157.508 79.6814C157.508 77.7972 158.23 75.9847 159.525 74.6165C160.864 73.3071 162.662 72.5738 164.535 72.5738C166.408 72.5738 168.206 73.3071 169.545 74.6165C170.84 75.9847 171.562 77.7972 171.562 79.6814C171.562 81.5655 170.84 83.378 169.545 84.7462Z" fill="#DCDFE6"/>
<path d="M187.708 69.2808C186.322 69.2275 184.941 69.4637 183.652 69.9742C182.363 70.4848 181.194 71.2585 180.221 72.2461C178.351 74.2833 177.318 76.9508 177.328 79.7161C177.338 82.4814 178.391 85.1412 180.276 87.1645C181.286 88.1504 182.486 88.9202 183.804 89.4268C185.121 89.9335 186.528 90.1664 187.938 90.1113C191.824 90.1113 194.728 88.6195 196.65 85.6358L193.721 83.969C193.125 84.9248 192.279 85.6994 191.274 86.2091C190.269 86.7187 189.144 86.944 188.021 86.8606C186.324 86.9173 184.656 86.4016 183.288 85.3964C181.985 84.3822 181.116 82.9108 180.856 81.28H197.432C197.513 80.7682 197.553 80.2509 197.552 79.7329C197.605 77.0147 196.617 74.3791 194.789 72.3658C193.908 71.3636 192.816 70.5676 191.592 70.0345C190.368 69.5013 189.042 69.244 187.708 69.2808ZM180.856 78.2687C181.061 76.6233 181.882 75.1167 183.153 74.0522C184.425 72.9876 186.052 72.4443 187.708 72.5315C189.223 72.5073 190.696 73.0268 191.861 73.9958C193.111 75.0911 193.903 76.6163 194.08 78.2687H180.856Z" fill="#DCDFE6"/>
<path d="M221.117 69.2822C219.873 69.2207 218.636 69.5015 217.54 70.0941C216.444 70.6867 215.531 71.5684 214.901 72.6434C214.361 71.5797 213.523 70.6959 212.49 70.0992C211.457 69.5026 210.273 69.2187 209.081 69.2822C207.904 69.2327 206.735 69.5006 205.696 70.0579C204.658 70.6153 203.788 71.4414 203.178 72.45V69.7979H199.734V89.5969H203.178V78.5923C203.051 76.9541 203.57 75.3313 204.624 74.0708C205.088 73.58 205.65 73.1926 206.274 72.934C206.897 72.6753 207.568 72.5512 208.243 72.5697C208.817 72.5426 209.39 72.6415 209.921 72.8595C210.453 73.0775 210.93 73.4092 211.319 73.8313C212.122 74.8429 212.522 76.1155 212.443 77.4044V89.5969H215.887V78.5923C215.759 76.9678 216.231 75.3528 217.213 74.0524C217.659 73.561 218.208 73.1736 218.821 72.9174C219.433 72.6612 220.095 72.5426 220.758 72.5697C221.346 72.5433 221.932 72.6421 222.478 72.8596C223.024 73.0771 223.518 73.4084 223.926 73.8313C224.77 74.8235 225.196 76.1045 225.114 77.4044V89.5969H228.558V77.2847C228.672 75.1408 227.934 73.0387 226.505 71.437C225.809 70.7192 224.969 70.1563 224.041 69.785C223.113 69.4137 222.116 69.2423 221.117 69.2822Z" fill="#DCDFE6"/>
<path fill-rule="evenodd" clip-rule="evenodd" d="M10.1428 2.2002C12.0643 19.6081 21.2144 25.8835 32.2096 24.5034C34.3828 24.2517 36.7847 22.9784 36.8685 19.4709C37.204 9.99296 31.3404 1.93332 12.1863 0.0270685C10.1352 -0.117807 10.0208 0.278699 10.1428 2.2002Z" fill="#DCDFE6"/>
<path fill-rule="evenodd" clip-rule="evenodd" d="M52.4726 12.6286C43.3226 12.3618 39.2814 16.7919 39.1975 22.5412C39.1242 23.1382 39.279 23.7409 39.6311 24.2287C39.9831 24.7164 40.5064 25.0533 41.0961 25.1718C46.3269 26.2927 51.0849 23.5858 53.4486 13.8334C53.7079 12.7964 53.5096 12.7125 52.4726 12.6286Z" fill="#DCDFE6"/>
<path d="M30.8012 28.9575C33.0887 29.72 34.6137 30.3376 36.2531 30.2232H36.4895H36.7259C38.3424 30.391 39.875 29.8038 42.1854 29.0108C55.5063 24.5731 69.6964 31.611 72.571 47.1203C75.3237 64.4214 62.3002 83.2094 50.0239 89.0578C42.498 93.6862 40.8739 89.2256 37.2444 89.2179H36.7335C32.7913 89.1341 32.9743 93.6481 22.9627 89.0883C9.23767 83.1942 -2.3447 64.4214 0.407935 47.1507C3.29019 31.5576 17.4803 24.5197 30.8012 28.9575Z" fill="#DCDFE6"/>
<path fill-rule="evenodd" clip-rule="evenodd" d="M96.3766 50.9581C96.1137 50.7111 95.9126 50.4056 95.7894 50.0665C95.6662 49.7274 95.6245 49.3641 95.6676 49.0059V35.7635H101.101V29.5014H95.6676V21.0938H87.094V29.5014H82.8672V35.7635H87.094V49.9359C87.094 52.8275 87.8829 54.9057 89.4607 56.1704C91.0354 57.4412 93.5955 58.0674 97.1502 58.0674C98.4706 58.0848 99.7906 58.0109 101.101 57.8464V51.4738H98.909C98.033 51.5472 97.1542 51.3683 96.3766 50.9581Z" fill="#DCDFE6"/>
<path fill-rule="evenodd" clip-rule="evenodd" d="M115.716 28.8402C111.29 28.8402 107.757 30.197 105.117 32.9106C102.477 35.6241 101.138 39.2125 101.102 43.6757C101.102 48.1451 102.458 51.7335 105.172 54.4409C107.885 57.1483 111.437 58.5051 115.827 58.5112C119.007 58.5877 122.134 57.6878 124.787 55.9328C127.222 54.3008 128.964 51.8233 129.677 48.9801H121.545C120.514 51.1104 118.608 52.1725 115.827 52.1663C114.238 52.2256 112.686 51.6754 111.489 50.6284C110.277 49.4413 109.518 47.868 109.344 46.1806H130.331V44.4769C130.331 39.719 129.014 35.9096 126.38 33.0487C124.995 31.6418 123.33 30.5405 121.493 29.8157C119.657 29.0908 117.689 28.7586 115.716 28.8402ZM109.399 40.7657C110.013 37.0269 112.082 35.1606 115.606 35.1668C117.155 35.1024 118.671 35.6328 119.842 36.6494C120.994 37.7369 121.73 39.193 121.923 40.7657H109.399Z" fill="#DCDFE6"/>
<path fill-rule="evenodd" clip-rule="evenodd" d="M145.184 51.4728C141.274 51.4728 139.315 48.8728 139.309 43.6729C139.303 38.4729 141.261 35.8546 145.184 35.8177C148.254 35.8177 150.031 37.2635 150.516 40.1551H159.034C158.905 38.5552 158.455 36.9975 157.714 35.5741C156.972 34.1506 155.952 32.8901 154.715 31.8671C152.002 29.7485 148.624 28.6647 145.184 28.8097C140.758 28.8097 137.225 30.1481 134.585 32.8248C131.945 35.5016 130.625 39.1084 130.625 43.6453C130.625 48.1147 131.945 51.703 134.585 54.4105C137.225 57.1179 140.758 58.4746 145.184 58.4808C148.72 58.623 152.19 57.4925 154.964 55.2945C156.232 54.231 157.263 52.9138 157.991 51.4277C158.719 49.9416 159.128 48.3194 159.191 46.6658H150.682C150.314 49.8705 148.481 51.4728 145.184 51.4728Z" fill="#DCDFE6"/>
<path fill-rule="evenodd" clip-rule="evenodd" d="M177.131 28.8365C175.434 28.7951 173.753 29.1756 172.239 29.9439C170.725 30.7121 169.425 31.8441 168.456 33.2384V18.7344H159.883V57.8445H168.456V42.0236C168.407 41.2343 168.518 40.4432 168.782 39.6978C169.046 38.9525 169.459 38.2682 169.994 37.6863C170.497 37.1812 171.098 36.7842 171.76 36.5197C172.422 36.2553 173.131 36.1289 173.843 36.1484C176.913 36.1484 178.448 37.7599 178.448 40.983V57.8445H187.012V39.2794C187.012 35.9458 186.125 33.3735 184.351 31.5624C183.402 30.6321 182.271 29.9093 181.028 29.4401C179.785 28.9708 178.458 28.7653 177.131 28.8365Z" fill="#DCDFE6"/>
<path d="M201.394 19.3984H192.82V58.5178H201.394V19.3984Z" fill="#DCDFE6"/>
<path fill-rule="evenodd" clip-rule="evenodd" d="M217.597 29.5078C213.054 29.5078 209.444 30.8462 206.767 33.5229C204.09 36.1996 202.73 39.8064 202.688 44.3433C202.688 48.8066 204.041 52.395 206.749 55.1085C209.456 57.8221 213.066 59.1788 217.578 59.1788C222.084 59.1788 225.691 57.8221 228.399 55.1085C231.106 52.395 232.441 48.8066 232.405 44.3433C232.405 39.8003 231.069 36.1935 228.399 33.5229C225.728 30.8523 222.127 29.514 217.597 29.5078ZM222.155 50.2739C221.614 50.9533 220.917 51.4929 220.124 51.847C219.331 52.2012 218.464 52.3596 217.597 52.309C216.723 52.3587 215.85 52.2001 215.049 51.8463C214.249 51.4925 213.544 50.9535 212.992 50.2739C211.924 48.9202 211.399 46.9494 211.399 44.3433C211.399 41.7372 211.924 39.7389 212.992 38.4128C213.544 37.7332 214.249 37.1942 215.049 36.8404C215.85 36.4865 216.723 36.328 217.597 36.3777C218.464 36.3293 219.33 36.4888 220.122 36.8428C220.915 37.1968 221.612 37.7351 222.155 38.4128C223.217 39.7634 223.748 41.7403 223.748 44.3433C223.748 46.9494 223.214 48.9202 222.155 50.2739Z" fill="#DCDFE6"/>
<path fill-rule="evenodd" clip-rule="evenodd" d="M252.944 30.1406L251.452 34.4227C250.688 37.1394 249.933 39.7823 249.205 42.3608C248.478 44.9393 247.907 46.9653 247.502 48.411L246.728 51.1737C246.618 50.7685 246.369 49.8476 245.964 48.411L244.26 42.3608C243.523 39.7823 242.778 37.1394 242.004 34.4227L240.521 30.1406H231.312L241.442 58.4856H251.655L261.785 30.1406H252.944Z" fill="#DCDFE6"/>
<path fill-rule="evenodd" clip-rule="evenodd" d="M289.885 45.1677C289.885 40.4036 288.565 36.5942 285.925 33.7394C284.545 32.3273 282.883 31.2207 281.047 30.491C279.212 29.7613 277.244 29.4248 275.271 29.5033C270.844 29.5033 267.308 30.8601 264.662 33.5737C262.016 36.2872 260.681 39.8756 260.656 44.3389C260.656 48.8021 262.01 52.3905 264.717 55.1041C267.434 57.8207 270.979 59.1744 275.381 59.1744C278.556 59.26 281.68 58.3697 284.332 56.6235C286.787 55.004 288.545 52.5232 289.259 49.6708H281.128C280.102 51.795 278.199 52.8571 275.418 52.8571C273.826 52.915 272.273 52.3651 271.071 51.3192C269.862 50.1312 269.107 48.5578 268.935 46.8713H289.922L289.885 45.1677ZM268.999 41.4289C269.613 37.6901 271.682 35.8237 275.206 35.8299C276.753 35.7642 278.266 36.2949 279.433 37.3125C280.588 38.3991 281.328 39.8551 281.524 41.4289H268.999Z" fill="#DCDFE6"/>
</svg>
