<svg width="550" height="63" viewBox="0 0 550 63" fill="none" xmlns="http://www.w3.org/2000/svg">
<path d="M142.745 27.1218C142.341 27.1218 141.979 26.8694 141.84 26.4897L133.406 3.51813C133.175 2.88856 133.641 2.22109 134.311 2.22109H138.077C138.488 2.22109 138.854 2.48157 138.988 2.86997L145.037 20.3314C145.051 20.3717 145.088 20.3986 145.131 20.3986C145.174 20.3986 145.212 20.3717 145.225 20.3314L151.274 2.86997C151.408 2.48157 151.774 2.22109 152.185 2.22109H155.986C156.657 2.22109 157.123 2.88856 156.892 3.51813L148.458 26.4897C148.319 26.8694 147.957 27.1218 147.552 27.1218H142.745Z" fill="#DCDFE6"/>
<path d="M162.469 27.1218C161.937 27.1218 161.505 26.69 161.505 26.1572V3.18568C161.505 2.65295 161.937 2.22109 162.469 2.22109H166.089C166.622 2.22109 167.054 2.65295 167.054 3.18568V26.1572C167.054 26.69 166.622 27.1218 166.089 27.1218H162.469Z" fill="#DCDFE6"/>
<path d="M183.467 27.6554C176.681 27.6554 172.298 24.4189 171.869 18.554C171.831 18.0227 172.267 17.5884 172.799 17.5884H176.42C176.952 17.5884 177.376 18.0222 177.438 18.5513C177.792 21.5524 179.876 22.9599 183.396 22.9599C186.704 22.9599 188.163 21.7148 188.163 19.9718C188.163 18.4066 187.024 17.5173 184.712 17.0904L181.155 16.4857C175.499 15.4896 172.76 13.213 172.76 9.1933C172.76 4.49773 176.495 1.6875 182.471 1.6875C188.59 1.6875 192.509 4.70484 192.957 9.61685C193.006 10.1474 192.569 10.5806 192.036 10.5806H188.594C188.075 10.5806 187.662 10.1655 187.552 9.65833C187.063 7.39541 185.077 6.27635 182.364 6.27635C179.554 6.27635 178.309 7.45025 178.309 9.01544C178.309 10.5095 179.483 11.2565 181.831 11.6834L185.246 12.2881C191.115 13.3553 193.747 15.5608 193.747 19.7228C193.747 24.7741 189.906 27.6554 183.467 27.6554Z" fill="#DCDFE6"/>
<path d="M199.414 27.1218C198.881 27.1218 198.449 26.69 198.449 26.1572V3.18568C198.449 2.65295 198.881 2.22109 199.414 2.22109H203.034C203.567 2.22109 203.999 2.65295 203.999 3.18568V26.1572C203.999 26.69 203.567 27.1218 203.034 27.1218H199.414Z" fill="#DCDFE6"/>
<path d="M219.7 27.6554C212.906 27.6554 208.993 23.5646 208.993 16.7347V3.18568C208.993 2.65295 209.425 2.22109 209.958 2.22109H213.578C214.11 2.22109 214.542 2.65295 214.542 3.18568V16.9837C214.542 20.8611 216.285 22.8176 219.7 22.8176C223.08 22.8176 224.894 20.9322 224.894 16.9837V3.18568C224.894 2.65295 225.326 2.22109 225.859 2.22109H229.479C230.011 2.22109 230.443 2.65295 230.443 3.18568V16.7347C230.443 23.7069 226.424 27.6554 219.7 27.6554Z" fill="#DCDFE6"/>
<path d="M247.035 27.1218C246.607 27.1218 246.231 26.8406 246.11 26.4307L242.441 14.0201C242.125 12.9524 240.551 13.1802 240.551 14.2936V26.1572C240.551 26.69 240.119 27.1218 239.587 27.1218H236.394C235.861 27.1218 235.429 26.69 235.429 26.1572V3.18568C235.429 2.65295 235.861 2.22109 236.394 2.22109H242.882C243.313 2.22109 243.692 2.50742 243.81 2.92235L247.909 17.3665C248.174 18.3024 249.501 18.3012 249.765 17.3649L253.835 2.92401C253.952 2.50825 254.332 2.22109 254.764 2.22109H261.215C261.748 2.22109 262.179 2.65295 262.179 3.18568V26.1572C262.179 26.69 261.748 27.1218 261.215 27.1218H258.022C257.489 27.1218 257.057 26.69 257.057 26.1572V14.4287C257.057 13.3154 255.483 13.0875 255.167 14.1549L251.534 26.431C251.413 26.8407 251.037 27.1218 250.609 27.1218H247.035Z" fill="#DCDFE6"/>
<path d="M136.495 57.9434C135.962 57.9434 135.53 57.5115 135.53 56.9788V34.0072C135.53 33.4745 135.962 33.0426 136.495 33.0426H145.206C153.174 33.007 157.905 37.4892 157.905 45.4574C157.905 53.3901 153.245 58.0145 145.313 57.9434H136.495ZM145.313 53.1411C149.688 53.1411 152.214 50.2953 152.214 45.4574C152.214 40.6551 149.617 37.8449 145.206 37.8449H142.044C141.511 37.8449 141.08 38.2768 141.08 38.8095V52.1765C141.08 52.7092 141.511 53.1411 142.044 53.1411H145.313Z" fill="#DCDFE6"/>
<path d="M163.444 57.9434C162.911 57.9434 162.479 57.5115 162.479 56.9788V34.0072C162.479 33.4745 162.911 33.0426 163.444 33.0426H167.064C167.596 33.0426 168.028 33.4745 168.028 34.0072V56.9788C168.028 57.5115 167.596 57.9434 167.064 57.9434H163.444Z" fill="#DCDFE6"/>
<path d="M184.512 58.477C177.398 58.477 172.596 53.3901 172.596 45.5641C172.596 37.5603 177.576 32.509 185.224 32.509C191.391 32.509 195.611 35.7851 196.675 40.58C196.8 41.1443 196.348 41.6512 195.77 41.6512H191.846C191.372 41.6512 190.977 41.3018 190.839 40.8478C190.163 38.6335 188.24 37.3469 185.402 37.3469C180.955 37.3469 178.323 40.4417 178.323 45.493C178.323 50.402 180.777 53.6391 185.188 53.6391C188.115 53.6391 190.179 52.191 190.936 49.5659C191.099 49.003 190.642 48.4811 190.056 48.4811H185.939C185.407 48.4811 184.975 48.0492 184.975 47.5165V45.1414C184.975 44.6087 185.407 44.1768 185.939 44.1768H196.105C196.638 44.1768 197.07 44.6087 197.07 45.1414V56.9788C197.07 57.5115 196.638 57.9434 196.105 57.9434H193.101C192.699 57.9434 192.374 57.618 192.374 57.2166C192.374 56.4476 191.085 56.0633 190.502 56.5647C189.076 57.7913 187.114 58.477 184.512 58.477Z" fill="#DCDFE6"/>
<path d="M203.167 57.9434C202.635 57.9434 202.203 57.5115 202.203 56.9788V34.0072C202.203 33.4745 202.635 33.0426 203.167 33.0426H206.788C207.32 33.0426 207.752 33.4745 207.752 34.0072V56.9788C207.752 57.5115 207.32 57.9434 206.788 57.9434H203.167Z" fill="#DCDFE6"/>
<path d="M219.541 39.3034C219.541 38.3785 219.007 37.8805 218.082 37.8805H212.857C212.325 37.8805 211.893 37.4486 211.893 36.9159V34.0072C211.893 33.4745 212.325 33.0426 212.857 33.0426H231.774C232.306 33.0426 232.738 33.4745 232.738 34.0072V36.9159C232.738 37.4486 232.306 37.8805 231.774 37.8805H226.549C225.624 37.8805 225.09 38.3785 225.09 39.3034V56.9788C225.09 57.5115 224.658 57.9434 224.125 57.9434H220.505C219.973 57.9434 219.541 57.5115 219.541 56.9788V39.3034Z" fill="#DCDFE6"/>
<path d="M232.983 57.9434C232.307 57.9434 231.84 57.2655 232.082 56.6339L240.877 33.6623C241.02 33.2891 241.378 33.0426 241.778 33.0426H246.64C247.04 33.0426 247.398 33.2891 247.541 33.6623L256.336 56.6339C256.578 57.2655 256.111 57.9434 255.435 57.9434H251.64C251.236 57.9434 250.875 57.6918 250.735 57.313L249.138 52.9888C248.998 52.61 248.637 52.3585 248.233 52.3585H240.182C239.78 52.3585 239.42 52.6076 239.279 52.9837L237.65 57.3181C237.508 57.6942 237.149 57.9434 236.747 57.9434H232.983ZM241.455 46.5048C241.221 47.135 241.687 47.8052 242.359 47.8052H246.018C246.692 47.8052 247.158 47.1322 246.921 46.5015L244.27 39.441C244.255 39.401 244.216 39.3745 244.174 39.3745C244.131 39.3745 244.093 39.4012 244.078 39.4413L241.455 46.5048Z" fill="#DCDFE6"/>
<path d="M261.954 57.9434C261.421 57.9434 260.99 57.5115 260.99 56.9788V34.0072C260.99 33.4745 261.421 33.0426 261.954 33.0426H265.574C266.107 33.0426 266.539 33.4745 266.539 34.0072V51.6826C266.539 52.6075 267.072 53.1055 267.997 53.1055H277.811C278.344 53.1055 278.776 53.5374 278.776 54.0701V56.9788C278.776 57.5115 278.344 57.9434 277.811 57.9434H261.954Z" fill="#DCDFE6"/>
<path d="M39.1859 56.5481C36.6729 60.9006 30.3905 60.9006 27.8776 56.5481L0.885403 9.79623C-1.62755 5.44367 1.51364 0.00296592 6.53954 0.00296636L60.5239 0.00297108C65.5498 0.00297152 68.691 5.44367 66.1781 9.79623L39.1859 56.5481Z" fill="#DCDFE6"/>
<path d="M79.4062 2.49905C80.2677 0.956096 81.8966 0 83.6638 0H88.59C105.106 0 118.495 13.3888 118.495 29.9047C118.495 46.4207 105.106 59.8095 88.59 59.8095H57.3092C52.8716 59.8095 50.0707 55.0376 52.234 51.1631L79.4062 2.49905Z" fill="#DCDFE6"/>
<path d="M320.885 31.8125H305.603V10.2241H320.885V12.9833H308.969V19.5023H319.915V22.1099H308.969V29.0533H320.885V31.8125ZM328.914 32.1157C324.002 32.1157 322.122 29.9629 322.122 26.9612H325.215C325.366 28.7501 326.155 29.9629 328.944 29.9629C331.673 29.9629 332.492 28.7804 332.492 27.4463C332.492 26.2032 331.582 25.5664 330.096 25.3542L327.216 24.9297C323.941 24.4749 322.546 23.3227 322.546 20.7151C322.546 18.0166 324.244 15.8638 328.914 15.8638C333.583 15.8638 335.281 18.0166 335.281 20.7758H332.188C332.037 19.3204 331.552 18.0166 328.883 18.0166C326.609 18.0166 325.76 18.9565 325.76 20.4725C325.76 21.746 326.488 22.2008 327.701 22.3828L330.581 22.8072C333.765 23.2621 335.706 24.4142 335.706 27.2644C335.706 29.9629 333.826 32.1157 328.914 32.1157ZM344.493 32.1157C339.672 32.1157 336.913 28.9624 336.913 23.9898C336.913 19.0172 339.672 15.8638 344.493 15.8638C349.435 15.8638 351.588 19.0172 351.588 21.9279H348.617C348.313 19.9874 347.161 18.3198 344.493 18.3198C341.764 18.3198 340.127 20.23 340.127 23.9898C340.127 27.7798 341.764 29.6597 344.493 29.6597C346.828 29.6597 348.283 28.4166 348.617 25.9303H351.588C351.588 29.1443 349.253 32.1157 344.493 32.1157ZM358.416 32.1157C354.838 32.1157 353.109 30.2965 353.109 26.5064V16.167H356.323V25.9303C356.323 28.2953 357.172 29.5081 359.386 29.5081C361.721 29.5081 363.237 27.7495 363.237 24.8994V16.167H366.451V31.8125H363.388V29.114C362.509 30.9029 361.023 32.1157 358.416 32.1157ZM376.003 32.1157C371.03 32.1157 368.271 28.9624 368.271 23.9898C368.271 19.1688 370.879 15.8638 375.821 15.8638C380.763 15.8638 383.371 19.2294 383.371 23.7169C383.371 24.0201 383.34 24.293 383.31 24.5962H371.485C371.576 28.2953 373.335 29.9023 376.003 29.9023C378.216 29.9023 379.611 28.7501 380.096 26.9612H383.037C382.34 30.1449 380.066 32.1157 376.003 32.1157ZM375.821 18.0772C373.395 18.0772 371.819 19.5326 371.485 22.4737H380.157C379.823 19.5326 378.247 18.0772 375.821 18.0772ZM388.392 31.8125H385.178V10.2241H388.392V31.8125ZM395.823 32.1157C392.184 32.1157 390.213 30.2965 390.213 27.3857C390.213 25.051 391.638 23.2014 395.519 22.8679L398.551 22.6253C400.401 22.4434 400.947 22.0189 400.947 21.0183C400.947 19.2294 399.916 18.1682 397.642 18.1682C395.519 18.1682 394.367 19.0778 394.216 21.0183H391.062C391.062 17.865 393.003 15.8638 397.612 15.8638C402.19 15.8638 404.161 17.865 404.161 21.0183V27.8102C404.161 29.9326 404.343 31.297 404.646 31.8125H401.765C401.28 31.2061 401.098 30.5694 401.098 29.114C400.249 31.1151 398.521 32.1157 395.823 32.1157ZM396.702 29.9023C399.461 29.9023 400.947 27.7495 400.947 25.1723V23.8381C400.613 24.2626 399.764 24.5052 398.551 24.5962L396.55 24.7781C394.307 24.96 393.427 25.9 393.427 27.1734C393.427 28.7804 394.398 29.9023 396.702 29.9023ZM419.777 32.1157C415.563 32.1157 412.955 29.114 412.955 23.9898C412.955 18.8656 415.563 15.8638 419.777 15.8638C422.294 15.8638 424.022 16.8947 424.901 18.8352V10.2241H428.115V31.8125H425.053V28.932C424.174 30.9332 422.506 32.1157 419.777 32.1157ZM420.535 29.6597C423.112 29.6597 424.901 27.9314 424.901 23.9898C424.901 20.0784 423.112 18.3198 420.535 18.3198C417.928 18.3198 416.169 20.0784 416.169 23.9898C416.169 27.9314 417.928 29.6597 420.535 29.6597ZM437.669 32.1157C432.696 32.1157 429.937 28.9624 429.937 23.9898C429.937 19.1688 432.545 15.8638 437.487 15.8638C442.429 15.8638 445.037 19.2294 445.037 23.7169C445.037 24.0201 445.006 24.293 444.976 24.5962H433.151C433.242 28.2953 435.001 29.9023 437.669 29.9023C439.882 29.9023 441.277 28.7501 441.762 26.9612H444.703C444.006 30.1449 441.732 32.1157 437.669 32.1157ZM437.487 18.0772C435.061 18.0772 433.484 19.5326 433.151 22.4737H441.823C441.489 19.5326 439.912 18.0772 437.487 18.0772ZM460.034 32.1157C455.819 32.1157 453.212 29.114 453.212 23.9898C453.212 18.8656 455.819 15.8638 460.034 15.8638C462.55 15.8638 464.279 16.8947 465.158 18.8352V10.2241H468.372V31.8125H465.31V28.932C464.43 30.9332 462.763 32.1157 460.034 32.1157ZM460.792 29.6597C463.369 29.6597 465.158 27.9314 465.158 23.9898C465.158 20.0784 463.369 18.3198 460.792 18.3198C458.184 18.3198 456.426 20.0784 456.426 23.9898C456.426 27.9314 458.184 29.6597 460.792 29.6597ZM474.014 31.8125H470.8V16.167H474.014V31.8125ZM472.407 13.4381C471.164 13.4381 470.497 12.7104 470.497 11.7402C470.497 10.7699 471.164 10.0119 472.407 10.0119C473.62 10.0119 474.317 10.7699 474.317 11.7402C474.317 12.7104 473.62 13.4381 472.407 13.4381ZM482.627 32.1157C477.715 32.1157 475.835 29.9629 475.835 26.9612H478.928C479.079 28.7501 479.868 29.9629 482.657 29.9629C485.386 29.9629 486.205 28.7804 486.205 27.4463C486.205 26.2032 485.295 25.5664 483.809 25.3542L480.929 24.9297C477.654 24.4749 476.259 23.3227 476.259 20.7151C476.259 18.0166 477.957 15.8638 482.627 15.8638C487.296 15.8638 488.994 18.0166 488.994 20.7758H485.901C485.75 19.3204 485.265 18.0166 482.596 18.0166C480.322 18.0166 479.473 18.9565 479.473 20.4725C479.473 21.746 480.201 22.2008 481.414 22.3828L484.294 22.8072C487.478 23.2621 489.419 24.4142 489.419 27.2644C489.419 29.9629 487.539 32.1157 482.627 32.1157ZM498.358 32.1157C493.385 32.1157 490.626 28.9624 490.626 23.9898C490.626 19.1688 493.233 15.8638 498.176 15.8638C503.118 15.8638 505.726 19.2294 505.726 23.7169C505.726 24.0201 505.695 24.293 505.665 24.5962H493.84C493.931 28.2953 495.689 29.9023 498.358 29.9023C500.571 29.9023 501.966 28.7501 502.451 26.9612H505.392C504.695 30.1449 502.421 32.1157 498.358 32.1157ZM498.176 18.0772C495.75 18.0772 494.173 19.5326 493.84 22.4737H502.512C502.178 19.5326 500.601 18.0772 498.176 18.0772ZM520.874 31.8125H517.66V22.0492C517.66 19.6842 516.811 18.4714 514.598 18.4714C512.263 18.4714 510.747 20.23 510.747 23.0801V31.8125H507.533V16.167H510.596V18.8959C511.445 17.0766 512.961 15.8638 515.568 15.8638C519.146 15.8638 520.874 17.683 520.874 21.4731V31.8125ZM516.084 13.6504C514.325 13.6504 513.476 11.8311 512.445 11.8311C511.748 11.8311 511.323 12.4982 511.323 13.6504H509.656C509.656 11.0428 510.565 9.82997 512.324 9.82997C514.082 9.82997 514.931 11.6492 515.932 11.6492C516.629 11.6492 517.054 10.9518 517.054 9.82997H518.752C518.752 12.4072 517.812 13.6504 516.084 13.6504ZM530.426 32.1157C525.454 32.1157 522.695 28.9624 522.695 23.9898C522.695 19.0172 525.454 15.8638 530.426 15.8638C535.399 15.8638 538.158 19.0172 538.158 23.9898C538.158 28.9624 535.399 32.1157 530.426 32.1157ZM530.426 29.6597C533.307 29.6597 534.944 27.7798 534.944 23.9898C534.944 20.23 533.307 18.3198 530.426 18.3198C527.546 18.3198 525.909 20.23 525.909 23.9898C525.909 27.7798 527.546 29.6597 530.426 29.6597ZM312.516 60.1157C307.544 60.1157 304.785 56.9624 304.785 51.9898C304.785 47.1688 307.392 43.8638 312.334 43.8638C317.277 43.8638 319.884 47.2294 319.884 51.7169C319.884 52.0201 319.854 52.293 319.824 52.5962H307.999C308.09 56.2953 309.848 57.9023 312.516 57.9023C314.73 57.9023 316.125 56.7501 316.61 54.9612H319.551C318.853 58.1449 316.579 60.1157 312.516 60.1157ZM312.334 46.0772C309.909 46.0772 308.332 47.5326 307.999 50.4737H316.67C316.337 47.5326 314.76 46.0772 312.334 46.0772ZM331.88 59.8125H328.666V44.167H331.88V59.8125ZM330.273 41.4381C329.03 41.4381 328.363 40.7104 328.363 39.7402C328.363 38.7699 329.03 38.0119 330.273 38.0119C331.486 38.0119 332.183 38.7699 332.183 39.7402C332.183 40.7104 331.486 41.4381 330.273 41.4381ZM347.648 59.8125H344.434V50.0492C344.434 47.6842 343.585 46.4714 341.372 46.4714C339.037 46.4714 337.521 48.23 337.521 51.0801V59.8125H334.307V44.167H337.369V46.8959C338.218 45.0766 339.734 43.8638 342.342 43.8638C345.92 43.8638 347.648 45.683 347.648 49.4731V59.8125ZM363.416 59.8125H360.202V50.0492C360.202 47.6842 359.353 46.4714 357.14 46.4714C354.805 46.4714 353.289 48.23 353.289 51.0801V59.8125H350.075V44.167H353.137V46.8959C353.986 45.0766 355.502 43.8638 358.11 43.8638C361.688 43.8638 363.416 45.683 363.416 49.4731V59.8125ZM372.968 60.1157C367.996 60.1157 365.237 56.9624 365.237 51.9898C365.237 47.0172 367.996 43.8638 372.968 43.8638C377.941 43.8638 380.7 47.0172 380.7 51.9898C380.7 56.9624 377.941 60.1157 372.968 60.1157ZM372.968 57.6597C375.849 57.6597 377.486 55.7798 377.486 51.9898C377.486 48.23 375.849 46.3198 372.968 46.3198C370.088 46.3198 368.451 48.23 368.451 51.9898C368.451 55.7798 370.088 57.6597 372.968 57.6597ZM390.222 59.8125H386.341L380.398 44.167H383.733L388.282 56.9624L392.799 44.167H396.165L390.222 59.8125ZM401.345 60.1157C397.707 60.1157 395.736 58.2965 395.736 55.3857C395.736 53.051 397.161 51.2014 401.042 50.8679L404.074 50.6253C405.924 50.4434 406.47 50.0189 406.47 49.0183C406.47 47.2294 405.439 46.1682 403.165 46.1682C401.042 46.1682 399.89 47.0778 399.738 49.0183H396.585C396.585 45.865 398.526 43.8638 403.134 43.8638C407.713 43.8638 409.684 45.865 409.684 49.0183V55.8102C409.684 57.9326 409.866 59.297 410.169 59.8125H407.288C406.803 59.2061 406.621 58.5694 406.621 57.114C405.772 59.1151 404.044 60.1157 401.345 60.1157ZM402.225 57.9023C404.984 57.9023 406.47 55.7495 406.47 53.1723V51.8381C406.136 52.2626 405.287 52.5052 404.074 52.5962L402.073 52.7781C399.829 52.96 398.95 53.9 398.95 55.1734C398.95 56.7804 399.92 57.9023 402.225 57.9023ZM419.084 60.1157C414.263 60.1157 411.504 56.9624 411.504 51.9898C411.504 47.0172 414.263 43.8638 419.084 43.8638C424.027 43.8638 426.179 47.0172 426.179 49.9279H423.208C422.905 47.9874 421.753 46.3198 419.084 46.3198C416.355 46.3198 414.718 48.23 414.718 51.9898C414.718 55.7798 416.355 57.6597 419.084 57.6597C421.419 57.6597 422.874 56.4166 423.208 53.9303H426.179C426.179 57.1443 423.845 60.1157 419.084 60.1157ZM430.915 59.8125H427.701V44.167H430.915V59.8125ZM429.308 41.4381C428.065 41.4381 427.398 40.7104 427.398 39.7402C427.398 38.7699 428.065 38.0119 429.308 38.0119C430.521 38.0119 431.218 38.7699 431.218 39.7402C431.218 40.7104 430.521 41.4381 429.308 41.4381ZM440.467 60.1157C435.495 60.1157 432.736 56.9624 432.736 51.9898C432.736 47.0172 435.495 43.8638 440.467 43.8638C445.44 43.8638 448.199 47.0172 448.199 51.9898C448.199 56.9624 445.44 60.1157 440.467 60.1157ZM440.467 57.6597C443.348 57.6597 444.985 55.7798 444.985 51.9898C444.985 48.23 443.348 46.3198 440.467 46.3198C437.587 46.3198 435.95 48.23 435.95 51.9898C435.95 55.7798 437.587 57.6597 440.467 57.6597ZM441.68 41.9536H439.224L441.893 37.4964H445.288L441.68 41.9536ZM463.369 59.8125H460.155V50.0492C460.155 47.6842 459.306 46.4714 457.093 46.4714C454.758 46.4714 453.242 48.23 453.242 51.0801V59.8125H450.028V44.167H453.09V46.8959C453.939 45.0766 455.455 43.8638 458.063 43.8638C461.641 43.8638 463.369 45.683 463.369 49.4731V59.8125Z" fill="#DCDFE6"/>
</svg>
