<svg width="224" height="56" viewBox="0 0 224 56" fill="none" xmlns="http://www.w3.org/2000/svg">
<path d="M21.2113 14.9439C21.2113 14.9439 21.2113 14.8339 21.3199 14.8339H21.2113H8.50149C8.17559 14.8339 7.95831 14.5038 8.06694 14.1737L11.869 1.30078C11.9776 0.970708 12.4122 0.640625 12.7381 0.640625H25.4479C25.7738 0.640625 25.9911 0.970708 25.8824 1.30078L22.0803 14.1737C22.0803 14.1737 22.0803 14.2838 21.9717 14.2838H22.0803H34.7901C35.116 14.2838 35.3333 14.6138 35.2247 14.9439L31.4226 27.8169C31.3139 28.147 30.8794 28.477 30.5535 28.477H17.8437H17.7351V28.5871L13.933 41.4601C13.933 41.4601 13.933 41.5701 13.8244 41.5701H13.933H26.7515C27.0774 41.5701 27.2946 41.9001 27.186 42.2302L23.3839 55.1032C23.2753 55.4333 22.8408 55.7634 22.5149 55.7634H9.80504C9.47914 55.7634 9.26189 55.4333 9.37052 55.1032L13.1726 42.2302C13.1726 42.2302 13.1726 42.1202 13.2812 42.1202H13.1726H0.462775C0.136883 42.1202 -0.0803722 41.7901 0.0282587 41.4601L3.83034 28.5871C3.93897 28.257 4.37351 27.9269 4.69941 27.9269H17.4092H17.5178V27.8169L21.2113 14.9439Z" fill="#DCDFE6"/>
<path fill-rule="evenodd" clip-rule="evenodd" d="M91.6502 9.33054C91.6502 8.23283 91.4325 7.24487 91.1059 6.25693C90.4527 4.39082 89.3641 2.96379 87.84 1.75631C86.3159 0.548829 84.4652 0 82.288 0H45.2743C42.4439 9.33054 37.0007 27.8818 28.8359 55.7637H69.8775C72.3814 55.7637 74.6675 54.9953 76.6271 53.4585C78.5866 51.9217 79.8929 50.0556 80.7639 47.5309L84.4652 35.3463C84.5741 34.6876 84.683 34.029 84.683 33.3704C85.3361 31.5043 84.5741 29.1991 78.8043 28.3209L78.6955 28.2111C84.4652 28.3209 87.1868 25.5767 88.2755 22.5031L91.3236 12.1846C91.4325 11.1966 91.5414 10.2087 91.6502 9.33054ZM52.8948 44.3475L51.915 30.8456H67.918L52.8948 44.3475ZM54.6366 22.6128L68.0268 8.23283L70.5307 22.6128H54.6366Z" fill="#DCDFE6"/>
<path fill-rule="evenodd" clip-rule="evenodd" d="M115.672 17.1963C116.276 16.7797 116.708 16.1964 116.966 15.4465L118.088 11.7802C118.174 11.6136 118.174 11.3636 118.174 11.197C118.174 10.6137 117.915 10.1137 117.398 9.69709C118.347 9.44711 119.037 8.94716 119.382 7.94726L120.331 4.86424C120.418 4.61427 120.504 4.28097 120.504 4.03099C120.504 3.69769 120.418 3.44771 120.331 3.11441C120.159 2.53114 119.814 2.11451 119.296 1.78121C118.778 1.44791 118.261 1.28125 117.57 1.28125H103.247C102.384 4.03098 100.659 9.61376 98.0703 17.9463H113.601C114.378 17.8629 115.068 17.6963 115.672 17.1963ZM110.15 14.4466H106.267L107.216 11.3636H111.099L110.15 14.4466ZM112.134 8.03059H108.338L109.373 4.69758H113.17L112.134 8.03059Z" fill="#DCDFE6"/>
<path fill-rule="evenodd" clip-rule="evenodd" d="M136.904 17.9463L138.748 11.8938C138.832 11.728 138.832 11.4792 138.832 11.3134C138.832 10.733 138.581 10.2356 137.994 9.73812C138.916 9.48938 139.587 8.90901 139.922 7.99699C140.089 7.49953 140.257 7.00207 140.425 6.42169C140.592 5.92423 140.76 5.42677 140.844 4.8464C140.928 4.59766 141.011 4.26602 141.011 4.01729C141.011 3.68565 140.928 3.43691 140.844 3.10527C140.676 2.52489 140.341 2.11034 139.838 1.77869C139.335 1.44705 138.832 1.28125 138.162 1.28125H124.248L119.219 17.8634H126.176L128.103 11.3963H131.791C131.54 12.1425 130.953 14.2982 129.864 17.8634H136.904V17.9463ZM129.193 8.0799L130.199 4.76348H133.887L132.881 8.0799H129.193Z" fill="#DCDFE6"/>
<path fill-rule="evenodd" clip-rule="evenodd" d="M146.275 17.9463L148.167 11.4143H152.278L150.387 17.9463H157.213L161.078 4.96597C161.16 4.631 161.16 4.37977 161.16 4.12853C161.16 3.54233 160.995 2.95612 160.584 2.45366C160.009 1.69996 159.268 1.28125 158.282 1.28125H147.344C146.933 1.28125 146.44 1.365 146.028 1.44875C145.617 1.61624 145.288 1.78371 144.877 2.03494C144.137 2.5374 143.726 3.2911 143.397 4.12853L139.367 17.9463H146.275ZM150.222 4.631H154.334L153.347 7.98075H149.236L150.222 4.631Z" fill="#DCDFE6"/>
<path fill-rule="evenodd" clip-rule="evenodd" d="M171.072 17.8629C171.576 17.8629 172.079 17.7796 172.499 17.5296C172.918 17.2797 173.338 16.9464 173.589 16.5298L183.239 1.28125H177.113L168.555 13.0301L172.163 1.28125H165.199L160.164 17.9463H171.072V17.8629Z" fill="#DCDFE6"/>
<path fill-rule="evenodd" clip-rule="evenodd" d="M191.41 17.9463H198.236L202.101 4.96597C202.183 4.631 202.183 4.37977 202.183 4.12853C202.183 3.54233 202.019 2.95612 201.608 2.45366C201.032 1.69996 200.292 1.28125 199.305 1.28125H188.368C187.956 1.28125 187.463 1.365 187.052 1.44875C186.641 1.61624 186.312 1.78371 185.9 2.03494C185.16 2.5374 184.749 3.2911 184.42 4.12853L180.391 17.9463H187.216L189.108 11.4143H193.22L191.41 17.9463ZM190.177 7.98075L191.164 4.631H195.275L194.289 7.98075H190.177Z" fill="#DCDFE6"/>
<path fill-rule="evenodd" clip-rule="evenodd" d="M202.927 12.4726L201.668 16.4814C201.668 16.6484 201.578 16.8155 201.578 16.899C201.578 17.1495 201.668 17.4001 201.848 17.5671C202.118 17.9012 202.477 18.0682 202.927 18.0682H215.963C216.952 18.0682 217.761 17.6507 218.48 16.8155C218.75 16.4814 218.84 16.3144 218.93 16.1473L221.177 9.13188C221.267 8.96484 221.267 8.88132 221.267 8.71429C221.267 8.38022 221.177 8.12966 220.998 7.79559C220.728 7.37801 220.278 7.21099 219.739 7.21099H212.187L212.906 4.78896H215.154L214.794 5.8747H222.256L222.976 3.61973C223.065 3.45269 223.065 3.28567 223.065 3.03512C223.065 2.70105 222.976 2.36697 222.706 2.0329C222.346 1.5318 221.897 1.36477 221.177 1.28125H209.49C208.681 1.28125 207.871 1.53179 207.242 1.94938C206.523 2.36697 206.073 3.03511 205.804 3.78677C205.534 4.45491 205.264 5.29008 204.995 6.20877C204.635 7.37801 204.455 8.04614 204.455 8.21318C204.455 8.2967 204.455 8.38022 204.455 8.38022C204.455 8.46374 204.455 8.46375 204.455 8.46375C204.455 8.7143 204.545 9.04835 204.725 9.38242C205.174 10.1341 205.894 10.5517 206.883 10.5517H213.356L212.097 14.5605H209.939L210.659 12.389H202.927V12.4726Z" fill="#DCDFE6"/>
<path fill-rule="evenodd" clip-rule="evenodd" d="M89.4907 52.6383C90.0501 52.9203 90.7493 53.2023 91.4486 53.2023H109.908C110.188 53.2023 110.328 53.0613 110.607 52.9203C110.887 52.7793 111.027 52.4973 111.027 52.3563L112.565 47.4209H101.098L105.853 30.7815C111.586 30.7815 115.502 30.7815 117.46 30.7815C118.159 28.2433 118.579 26.8332 118.579 26.6922C118.579 26.2691 118.439 25.9871 118.299 25.7051C118.019 25.282 117.46 25 116.901 25H98.0213C96.9025 25 96.0634 25.282 95.2243 25.9871C94.3853 26.5511 93.8259 27.3972 93.5462 28.5253C91.5884 35.2939 89.7704 41.7804 88.0922 48.1259C87.9524 48.549 87.8125 49.113 87.8125 49.677C87.8125 50.1001 87.9523 50.6641 88.232 51.2282C88.5117 51.7922 88.9313 52.2153 89.4907 52.6383Z" fill="#DCDFE6"/>
<path fill-rule="evenodd" clip-rule="evenodd" d="M126.956 53.2023L130.127 42.1482H137.02L133.849 53.2023H145.292L151.772 31.2357C151.91 30.6688 151.91 30.2436 151.91 29.8185C151.91 28.8264 151.634 27.8344 150.945 26.9841C149.98 25.7086 148.739 25 147.084 25H128.748C128.059 25 127.232 25.1417 126.542 25.2835C125.853 25.5669 125.301 25.8503 124.612 26.2755C123.371 27.1258 122.682 28.4013 122.131 29.8185L115.375 53.2023H126.956ZM133.574 30.6688H140.467L138.812 36.3376H131.919L133.574 30.6688Z" fill="#DCDFE6"/>
<path fill-rule="evenodd" clip-rule="evenodd" d="M185.602 31.0635C185.74 30.6405 185.878 30.0764 185.878 29.6534C185.878 29.0894 185.74 28.6663 185.602 28.1023C185.326 27.1152 184.774 26.4101 183.945 25.8461C183.117 25.282 182.289 25 181.184 25H158.268L149.984 53.2023H161.443L164.618 42.2034H170.692C170.278 43.4725 169.312 47.1388 167.517 53.2023H178.976L182.013 42.9085C182.151 42.6265 182.151 42.2034 182.151 41.9214C182.151 40.9343 181.737 40.0883 180.77 39.2422C182.289 38.8192 183.393 37.8321 183.945 36.2809C184.222 35.4349 184.498 34.5888 184.774 33.6017C185.05 32.7556 185.326 31.9096 185.602 31.0635ZM172.487 36.422H166.413L168.069 30.7815H174.144L172.487 36.422Z" fill="#DCDFE6"/>
<path fill-rule="evenodd" clip-rule="evenodd" d="M216.966 26.2691C216.419 25.423 215.735 25.141 214.641 25H196.86C195.629 25 194.398 25.423 193.441 26.1281C192.347 26.8331 191.663 27.9612 191.252 29.2303C190.842 30.3584 190.432 31.7686 190.021 33.3197C189.474 35.2938 189.201 36.4219 189.201 36.7039C189.201 36.845 189.201 36.986 189.201 36.986C189.201 37.127 189.201 37.127 189.201 37.127C189.201 37.55 189.338 38.1141 189.611 38.6781C190.295 39.9472 191.389 40.6523 192.894 40.6523H202.742L200.827 47.4208H197.544L198.638 43.7545H187.286L185.371 50.5231C185.371 50.8051 185.234 51.0871 185.234 51.2281C185.234 51.6512 185.371 52.0742 185.645 52.3563C186.055 52.9203 186.602 53.2023 187.286 53.2023H207.118C208.623 53.2023 209.854 52.4973 210.948 51.0872C211.358 50.5231 211.495 50.2411 211.632 49.959L215.051 38.1141C215.188 37.832 215.188 37.691 215.188 37.409C215.188 36.845 215.051 36.4219 214.778 35.8579C214.367 35.1528 213.683 34.8708 212.863 34.8708H201.374L202.468 30.7814H205.887L205.34 32.6146H216.693L217.787 28.8073C217.923 28.5253 217.923 28.2433 217.923 27.8202C217.513 27.3972 217.24 26.8331 216.966 26.2691Z" fill="#DCDFE6"/>
</svg>
