<svg width="252" height="69" viewBox="0 0 252 69" fill="none" xmlns="http://www.w3.org/2000/svg">
<path d="M20.749 0C26.5078 -0.00139947 30.9647 1.37482 34.1191 4.12891C37.2722 6.88448 38.8486 10.7845 38.8486 15.8281C38.85 21.1672 37.2736 25.319 34.1191 28.2832C30.9647 31.2474 26.508 32.7295 20.749 32.7295H14.6318V44.208H0V0H20.749ZM63.6787 32.0371H82.0957V44.208H49.0488V0H63.6787V32.0371ZM143.943 44.208H128.365L118.021 18.3516L107.301 44.208H92.291L110.96 0H125.97L143.943 44.208ZM170.099 22.1992L189.396 44.208H171.927L154.142 22.6406L171.612 0H188.45L170.099 22.1992ZM251.247 44.208H235.67L225.327 18.3516L214.604 44.208H199.595L218.263 0H233.272L251.247 44.208ZM14.6318 21.6309H19.9912C21.5879 21.6309 22.8182 21.1579 23.6816 20.2119C24.5381 19.2673 24.9668 17.953 24.9668 16.2695C24.9724 14.6307 24.5437 13.3592 23.6816 12.4551C22.8195 11.551 21.5894 11.0986 19.9912 11.0986H14.6318V21.6309Z" fill="#DCDFE6"/>
<path d="M62.0771 56.6287H58.5089V58.7442H61.9752V60.4264H58.5089V63.8672H56.7502V54.9466H62.0771V56.6287ZM72.8909 62.185H76.6503V63.8672H71.1322V54.9466H76.5865V56.6287H72.8909V58.5276H76.268V60.1842H72.8909V62.185ZM90.5572 63.8672L88.7603 60.7705H87.4222V63.8672H85.6636V54.9466H89.2318C90.0559 54.9466 90.7568 55.2354 91.3345 55.8131C91.9123 56.3909 92.2011 57.0875 92.2011 57.9031C92.2011 58.4553 92.0439 58.9693 91.7296 59.4451C91.4152 59.9124 90.999 60.265 90.4807 60.5028L92.456 63.8672H90.5572ZM87.4222 56.5905V59.2285H89.2318C89.5632 59.2285 89.8478 59.101 90.0857 58.8462C90.3235 58.5828 90.4425 58.2684 90.4425 57.9031C90.4425 57.5378 90.3235 57.2277 90.0857 56.9728C89.8478 56.7179 89.5632 56.5905 89.2318 56.5905H87.4222ZM106.159 63.8672L104.362 60.7705H103.024V63.8672H101.265V54.9466H104.833C105.658 54.9466 106.358 55.2354 106.936 55.8131C107.514 56.3909 107.803 57.0875 107.803 57.9031C107.803 58.4553 107.646 58.9693 107.331 59.4451C107.017 59.9124 106.601 60.265 106.082 60.5028L108.058 63.8672H106.159ZM103.024 56.5905V59.2285H104.833C105.165 59.2285 105.449 59.101 105.687 58.8462C105.925 58.5828 106.044 58.2684 106.044 57.9031C106.044 57.5378 105.925 57.2277 105.687 56.9728C105.449 56.7179 105.165 56.5905 104.833 56.5905H103.024ZM118.625 62.185H122.385V63.8672H116.867V54.9466H122.321V56.6287H118.625V58.5276H122.003V60.1842H118.625V62.185ZM137.299 54.9466V56.6287H134.89V63.8672H133.131V56.6287H130.735V54.9466H137.299ZM147.813 62.185H151.572V63.8672H146.054V54.9466H151.508V56.6287H147.813V58.5276H151.19V60.1842H147.813V62.185ZM165.479 63.8672L163.682 60.7705H162.344V63.8672H160.585V54.9466H164.154C164.978 54.9466 165.679 55.2354 166.256 55.8131C166.834 56.3909 167.123 57.0875 167.123 57.9031C167.123 58.4553 166.966 58.9693 166.651 59.4451C166.337 59.9124 165.921 60.265 165.402 60.5028L167.378 63.8672H165.479ZM162.344 56.5905V59.2285H164.154C164.485 59.2285 164.77 59.101 165.007 58.8462C165.245 58.5828 165.364 58.2684 165.364 57.9031C165.364 57.5378 165.245 57.2277 165.007 56.9728C164.77 56.7179 164.485 56.5905 164.154 56.5905H162.344ZM176.187 54.9466H177.946V63.8672H176.187V54.9466ZM193.105 63.8672L192.57 62.2615H189.015L188.479 63.8672H186.58L189.703 54.9466H191.882L195.017 63.8672H193.105ZM189.575 60.6175H192.022L190.799 56.9728L189.575 60.6175Z" fill="#DCDFE6"/>
</svg>
