<svg width="261" height="54" viewBox="0 0 261 54" fill="none" xmlns="http://www.w3.org/2000/svg">
<path d="M72.1318 9.45508C79.7107 9.45508 86.2603 15.6308 86.2607 23.958V51.6641C86.2607 52.6728 85.4424 53.4902 84.4336 53.4902H78.917C77.9083 53.4901 77.0908 52.6727 77.0908 51.6641V23.7705C77.0902 20.9641 74.939 18.8127 72.4131 18.8125C69.8869 18.8125 67.7338 20.8707 67.7334 23.958V37.1582C67.7333 47.4505 63.0552 53.4385 53.3242 53.4385C45.3712 53.4382 38.5422 46.982 38.542 38.374V25.2734L38.5508 25.2646V23.7979C38.5504 20.9911 36.3972 18.8389 33.8711 18.8389C31.3452 18.8393 29.1936 20.8982 29.1934 23.9854V37.1846C29.1933 47.477 24.5151 53.4657 14.7842 53.4658C6.83084 53.4658 -3.76282e-07 47.0087 0 38.4004V11.3086C0 10.2999 0.817572 9.48261 1.82617 9.48242H7.34277C8.35154 9.48242 9.16992 10.2998 9.16992 11.3086V38.8525C9.17004 42.2207 11.6024 44.4666 14.4092 44.4668C17.2162 44.4668 19.5557 42.4077 19.5557 39.1328V25.2959C19.5557 16.1263 23.9543 9.48244 33.5918 9.48242C41.1704 9.48278 47.7204 15.6582 47.7207 23.9854V34.0918L47.71 34.1025V38.8252C47.71 42.1937 50.1441 44.4395 52.9512 44.4395C55.7579 44.4391 58.0967 42.3811 58.0967 39.1064V25.2695C58.0967 16.0999 62.4944 9.45519 72.1318 9.45508ZM117.129 9.54102C129.96 9.54122 139.418 19.1647 139.418 31.502C139.418 43.8389 129.959 53.4627 117.129 53.4629C104.216 53.4628 94.7571 43.839 94.7568 31.502C94.7568 19.2469 104.216 9.54115 117.129 9.54102ZM184.195 10.5283C185.204 10.5283 186.022 11.3459 186.022 12.3545V34.626C186.022 40.959 190.876 45.4011 196.633 45.4014C202.308 45.4011 207.242 40.959 207.242 34.626V12.3545C207.242 11.3459 208.061 10.5283 209.069 10.5283H214.876C215.884 10.5285 216.702 11.346 216.702 12.3545V34.71C216.702 45.4841 208.805 53.4627 196.633 53.4629C184.461 53.4627 176.565 45.484 176.564 34.71V12.3545C176.565 11.3459 177.382 10.5283 178.391 10.5283H184.195ZM154.824 0C155.833 0.000197863 156.65 0.817694 156.65 1.82617V8.70215C156.651 9.71066 157.468 10.5281 158.477 10.5283H167.901C168.91 10.5283 169.727 11.3459 169.728 12.3545V16.7617C169.727 17.7703 168.91 18.5879 167.901 18.5879H158.477C157.468 18.5881 156.651 19.4055 156.65 20.4141V40.1377C156.651 42.6869 158.296 44.4137 160.845 44.4141H167.819C168.828 44.4141 169.646 45.2324 169.646 46.2412V50.6484C169.646 51.6572 168.828 52.4756 167.819 52.4756H159.201C151.716 52.4756 147.274 47.9503 147.274 40.5479V1.82617C147.275 0.817573 148.092 0 149.101 0H154.824ZM254.599 10.5283C255.607 10.5283 256.426 11.3459 256.426 12.3545V16.7617C256.426 17.7703 255.607 18.5879 254.599 18.5879H237.838C235.37 18.5879 233.478 20.4805 233.478 22.7012C233.478 24.9217 235.289 26.8135 238.003 26.8135H245.98C255.028 26.8135 260.292 30.9257 260.292 39.4795C260.292 46.4707 254.616 52.4756 247.049 52.4756H227.655C226.647 52.4755 225.829 51.6572 225.829 50.6484V46.2412C225.829 45.2325 226.647 44.4141 227.655 44.4141H246.062C249.023 44.4139 250.997 42.275 250.997 39.8076C250.997 37.3406 249.187 35.2852 246.309 35.2852H238.084C230.024 35.285 224.185 31.4187 224.185 22.9473C224.185 16.2854 229.613 10.5286 236.933 10.5283H254.599ZM117.129 17.6006C109.315 17.6007 104.298 23.6884 104.298 31.502C104.298 39.3153 109.316 45.4012 117.129 45.4014C124.86 45.4012 129.877 39.3152 129.877 31.502C129.877 23.6884 124.86 17.6008 117.129 17.6006Z" fill="#DCDFE6"/>
</svg>
