<svg width="1186" height="208" viewBox="0 0 1186 208" fill="none" xmlns="http://www.w3.org/2000/svg">
<g clip-path="url(#clip0_2723_11124)">
<g clip-path="url(#clip1_2723_11124)">
<g clip-path="url(#clip2_2723_11124)">
<path d="M294.288 36.6571C323.671 36.6571 349.062 60.6001 349.063 92.8847V200.299C349.063 204.209 345.893 207.38 341.982 207.38H320.594C316.683 207.38 313.513 204.209 313.513 200.299V92.1587C313.511 81.2773 305.171 72.9342 295.377 72.9339C285.583 72.9339 277.237 80.915 277.236 92.8847V144.058C277.236 183.962 259.098 207.178 221.371 207.178C190.537 207.177 164.06 182.146 164.06 148.773V97.985L164.095 97.95V92.2626C164.093 81.3809 155.747 73.0378 145.954 73.0378C136.161 73.0389 127.819 81.0193 127.818 92.9883V144.162C127.818 184.066 109.68 207.282 71.9534 207.282C41.1189 207.282 14.6367 182.25 14.6367 148.876V43.8422C14.6367 39.9313 17.8071 36.761 21.7179 36.761H43.1059C47.0168 36.761 50.1874 39.9313 50.1874 43.8422V150.628C50.1874 163.687 59.6185 172.394 70.5013 172.394C81.3841 172.394 90.4521 164.414 90.4521 151.717V98.0712C90.4521 62.5209 107.506 36.761 144.87 36.761C174.252 36.7624 199.644 60.7047 199.645 92.9883V132.173L199.605 132.213V150.524C199.605 163.584 209.042 172.29 219.925 172.29C230.807 172.289 239.876 164.309 239.876 151.613V97.9673C239.876 62.4169 256.924 36.6575 294.288 36.6571ZM468.739 36.9911C518.483 36.9922 555.153 74.3004 555.153 122.131C555.153 169.961 518.483 207.27 468.739 207.271C418.676 207.271 382.003 169.961 382.003 122.131C382.003 74.6189 418.676 36.9915 468.739 36.9911ZM728.751 40.8182C732.664 40.8182 735.835 43.9885 735.835 47.8994V134.244C735.835 158.797 754.647 176.018 776.969 176.019C798.969 176.019 818.103 158.798 818.103 134.244V47.8994C818.103 43.9885 821.273 40.8182 825.183 40.8182H847.696C851.608 40.8182 854.779 43.9885 854.779 47.8994V134.567C854.776 176.339 824.161 207.271 776.969 207.271C729.776 207.269 699.165 176.338 699.165 134.567V47.8994C699.165 43.9885 702.336 40.8182 706.245 40.8182H728.751ZM614.879 0C618.789 2.23479e-05 621.959 3.17038 621.959 7.08123V33.7365C621.959 37.6472 625.13 40.8179 629.043 40.8182H665.582C669.491 40.8182 672.662 43.9885 672.662 47.8994V64.9825C672.662 68.8933 669.491 72.0636 665.582 72.0636H629.043C625.13 72.0636 621.959 75.2343 621.959 79.1451V155.613C621.963 165.496 628.34 172.191 638.223 172.192H665.264C669.173 172.192 672.344 175.363 672.344 179.274V196.363C672.344 200.274 669.173 203.444 665.264 203.444H631.85C602.833 203.444 585.608 185.902 585.608 157.203V7.08123C585.608 3.17038 588.779 1.12322e-05 592.692 0H614.879ZM1001.7 40.8182C1005.61 40.8182 1008.78 43.9885 1008.78 47.8994V64.9825C1008.78 68.8933 1005.61 72.0636 1001.7 72.0636H936.718C927.153 72.064 919.815 79.4 919.815 88.0092C919.815 96.6188 926.835 103.955 937.358 103.955H968.287C1003.36 103.955 1023.77 119.897 1023.77 153.06C1023.77 180.164 1001.77 203.444 972.43 203.444H897.242C893.333 203.444 890.162 200.274 890.162 196.363V179.274C890.162 175.363 893.333 172.192 897.242 172.192H968.605C980.082 172.192 987.739 163.9 987.739 154.333C987.735 144.768 980.722 136.797 969.559 136.797H937.676C906.425 136.797 883.789 121.81 883.789 88.9661C883.789 63.138 904.831 40.8193 933.208 40.8182H1001.7ZM468.739 68.2372C438.446 68.2372 418.994 91.8381 418.994 122.131C418.994 152.423 438.446 176.019 468.739 176.019C498.713 176.018 518.162 152.423 518.162 122.131C518.162 91.8384 498.713 68.238 468.739 68.2372ZM1114.63 40.7083C1122.35 40.7083 1129.58 42.1505 1136.33 45.0341C1143.08 47.9181 1149 51.9187 1154.12 57.0353C1159.24 62.1522 1163.24 68.0831 1166.13 74.8274C1169.01 81.5728 1170.45 88.8052 1170.45 96.5269C1170.45 104.249 1169.01 111.482 1166.13 118.226C1163.24 124.971 1159.24 130.902 1154.12 136.019C1149 141.135 1143.08 145.136 1136.33 148.02C1129.58 150.904 1122.35 152.345 1114.63 152.345C1106.91 152.345 1099.67 150.904 1092.93 148.02C1086.18 145.136 1080.26 141.135 1075.14 136.019C1070.02 130.902 1066.02 124.971 1063.14 118.226C1060.25 111.482 1058.81 104.249 1058.81 96.5269C1058.81 88.8056 1060.25 81.5728 1063.14 74.8274C1066.02 68.0831 1070.02 62.1522 1075.14 57.0353C1080.26 51.9187 1086.18 47.9181 1092.93 45.0341C1099.67 42.1505 1106.91 40.7083 1114.63 40.7083ZM1114.63 54.5235C1106.91 54.5235 1099.86 56.4308 1093.49 60.2452C1087.12 64.0129 1082.04 69.0831 1078.28 75.4556C1074.51 81.7817 1072.63 88.8052 1072.63 96.5269C1072.63 104.249 1074.51 111.296 1078.28 117.668C1082.04 123.994 1087.12 129.065 1093.49 132.879C1099.86 136.646 1106.91 138.53 1114.63 138.53C1122.35 138.53 1129.38 136.646 1135.7 132.879C1142.08 129.065 1147.14 123.994 1150.91 117.668C1154.68 111.296 1156.56 104.249 1156.56 96.5269C1156.56 88.8052 1154.68 81.7817 1150.91 75.4556C1147.14 69.0831 1142.08 64.0129 1135.7 60.2452C1129.38 56.4308 1122.35 54.5235 1114.63 54.5235ZM1120.63 70.1527C1123.14 70.1527 1125.65 70.7805 1128.17 72.0364C1130.72 73.246 1132.84 75.107 1134.52 77.6185C1136.24 80.0836 1137.1 83.1542 1137.1 86.8283C1137.1 90.55 1136.22 93.7132 1134.44 96.318C1132.89 98.6103 1130.99 100.416 1128.75 101.736L1139.05 121.645H1125.86L1117.23 104.272H1106.89V121.645H1094.89V70.1527H1120.63ZM1106.89 95.4106H1116.65C1118.33 95.4106 1119.98 94.6895 1121.61 93.2477C1123.28 91.8059 1124.12 89.6663 1124.12 86.8283C1124.12 83.852 1123.28 81.805 1121.61 80.688C1119.98 79.5721 1118.4 79.014 1116.86 79.014H1106.89V95.4106Z" fill="#31D8C5"/>
</g>
</g>
</g>
<defs>
<clipPath id="clip0_2723_11124">
<rect width="1185.16" height="207.49" fill="white"/>
</clipPath>
<clipPath id="clip1_2723_11124">
<rect width="1185.16" height="207.49" fill="white"/>
</clipPath>
<clipPath id="clip2_2723_11124">
<rect width="1155.86" height="207.49" fill="white" transform="translate(14.6367)"/>
</clipPath>
</defs>
</svg>
