<svg width="1396" height="449" viewBox="0 0 1396 449" fill="none" xmlns="http://www.w3.org/2000/svg">
<rect width="1396" height="449" fill="#030712"/>
<path d="M785.071 191.179H782.08L783.975 180.383H780.055L780.482 177.949H791.333L790.906 180.383H786.967L785.071 191.179Z" fill="white"/>
<path d="M804.835 191.179H801.993L803.851 180.625L798.629 191.179H796.121L794.616 180.625L792.777 191.179H789.934L792.256 177.949H796.846L798.072 186.626L802.346 177.949H807.158L804.835 191.179Z" fill="white"/>
<path d="M662.958 204.855C662.827 205.615 662.168 206.17 661.397 206.17H658.152C657.168 206.17 656.422 205.282 656.592 204.312L661.055 178.888C661.188 178.13 661.847 177.577 662.616 177.577H680.843C681.828 177.577 682.574 178.466 682.404 179.436L682.036 181.528C681.903 182.285 681.245 182.838 680.476 182.838H668.121C667.35 182.838 666.691 183.393 666.56 184.152L666.024 187.248C665.856 188.217 666.602 189.103 667.585 189.103H677.532C678.523 189.103 679.27 190.002 679.09 190.976L678.754 192.787C678.614 193.538 677.959 194.082 677.196 194.082H666.154C665.383 194.082 664.723 194.637 664.592 195.397L662.958 204.855Z" fill="white"/>
<path d="M699.656 204.848C699.528 205.611 698.867 206.17 698.093 206.17H681.563C680.578 206.17 679.832 205.282 680.002 204.312L684.465 178.888C684.598 178.13 685.257 177.577 686.026 177.577H689.271C690.257 177.577 691.003 178.468 690.831 179.438L687.355 199.048C687.183 200.019 687.929 200.909 688.915 200.909H698.444C699.424 200.909 700.169 201.79 700.007 202.756L699.656 204.848Z" fill="white"/>
<path d="M713.566 206.572C705.695 206.572 700.916 201.954 700.916 194.966C700.916 184.645 707.221 177.176 717.662 177.176C725.453 177.176 730.312 181.794 730.312 188.782C730.312 199.102 724.328 206.572 713.566 206.572ZM714.008 201.311C720.353 201.311 723.846 195.769 723.846 189.263C723.846 185.007 721.196 182.437 717.22 182.437C710.875 182.437 707.381 187.978 707.381 194.484C707.381 198.741 710.032 201.311 714.008 201.311Z" fill="white"/>
<path d="M759.876 205.24C759.619 205.807 759.055 206.17 758.433 206.17H753.314C752.477 206.17 751.784 205.519 751.733 204.683L751.042 193.449C750.939 191.77 748.636 191.388 747.996 192.943L742.952 205.189C742.707 205.783 742.129 206.17 741.487 206.17H736.067C735.254 206.17 734.573 205.556 734.49 204.747L731.884 179.323C731.788 178.389 732.521 177.577 733.46 177.577H737.051C737.884 177.577 738.575 178.223 738.631 179.055L739.484 191.694C739.596 193.364 741.884 193.741 742.527 192.196L748.205 178.553C748.451 177.962 749.028 177.577 749.668 177.577H753.751C754.587 177.577 755.279 178.227 755.332 179.061L756.135 191.684C756.241 193.355 758.528 193.74 759.177 192.197L764.91 178.548C765.157 177.96 765.732 177.577 766.37 177.577H769.967C771.119 177.577 771.886 178.767 771.41 179.816L759.876 205.24Z" fill="white"/>
<path d="M667.711 245.39C660.442 245.39 656.627 242.458 656.627 236.997C656.627 236.245 657.283 235.672 658.036 235.672H661.348C662.223 235.672 662.898 236.393 663.1 237.245C663.645 239.547 665.499 240.571 668.434 240.571C672.128 240.571 674.538 238.925 674.538 236.395C674.538 234.628 673.373 233.744 669.799 233.222L666.546 232.74C661.727 232.057 659.318 229.849 659.318 225.753C659.318 219.568 664.097 215.994 671.807 215.994C678.513 215.994 682.208 219.247 682.208 224.267C682.208 224.862 681.718 225.311 681.122 225.311H677.728C676.853 225.311 676.182 224.584 675.932 223.746C675.382 221.905 673.767 220.813 671.084 220.813C667.992 220.813 665.783 222.259 665.783 224.789C665.783 226.516 666.627 227.238 669.759 227.68L673.052 228.122C677.911 228.845 681.003 231.214 681.003 235.551C681.003 241.655 676.465 245.39 667.711 245.39Z" fill="white"/>
<path d="M694.297 243.678C694.164 244.436 693.506 244.988 692.737 244.988H689.488C688.504 244.988 687.758 244.1 687.928 243.13L691.372 223.515C691.542 222.545 690.796 221.656 689.811 221.656H685.111C684.127 221.656 683.38 220.768 683.551 219.798L683.918 217.706C684.051 216.948 684.709 216.396 685.478 216.396H705.714C706.698 216.396 707.445 217.284 707.274 218.254L706.907 220.346C706.774 221.104 706.116 221.656 705.346 221.656H699.494C698.724 221.656 698.066 222.209 697.933 222.967L694.297 243.678Z" fill="white"/>
<path d="M731.522 223.182C731.522 225.413 731.102 227.08 730.262 228.354C729.358 229.724 728.831 234.252 728.905 235.892C728.91 235.991 728.912 236.092 728.912 236.194C728.912 236.636 728.872 237.117 728.792 237.639L728.029 242.097C727.908 242.78 727.868 243.462 727.868 243.984C727.868 244.491 727.444 244.988 726.938 244.988H722.866C722.184 244.988 721.552 244.554 721.476 243.876C721.455 243.682 721.443 243.478 721.443 243.262C721.443 242.9 721.483 242.539 721.563 242.097L722.326 237.88C722.406 237.399 722.447 236.917 722.447 236.515C722.447 234.507 721.202 233.824 718.792 233.824H714.303C713.532 233.824 712.873 234.379 712.742 235.139L711.269 243.674C711.137 244.433 710.478 244.988 709.707 244.988H706.463C705.478 244.988 704.732 244.1 704.902 243.13L709.366 217.706C709.499 216.948 710.157 216.396 710.926 216.396H722.487C728.35 216.396 731.522 219.287 731.522 223.182ZM725.017 224.186C725.017 221.978 723.491 221.215 720.238 221.215H716.542C715.776 221.215 715.119 221.763 714.983 222.518L714.149 227.14C713.974 228.112 714.721 229.005 715.708 229.005H719.876C723.491 229.005 725.017 227.399 725.017 224.186Z" fill="white"/>
<path d="M737.466 243.678C737.333 244.436 736.675 244.988 735.906 244.988H732.657C731.673 244.988 730.927 244.1 731.097 243.13L735.56 217.706C735.693 216.948 736.351 216.396 737.121 216.396H740.369C741.354 216.396 742.1 217.284 741.93 218.254L737.466 243.678Z" fill="white"/>
<path d="M769.642 227.6C769.642 238.121 764.1 244.988 752.936 244.988H742.655C741.67 244.988 740.924 244.1 741.095 243.13L745.558 217.706C745.691 216.948 746.349 216.396 747.119 216.396H756.912C765.064 216.396 769.642 220.412 769.642 227.6ZM763.177 228.082C763.177 223.825 760.687 221.456 756.832 221.456H752.66C751.891 221.456 751.233 222.008 751.099 222.765L748.404 238.069C748.234 239.039 748.98 239.928 749.965 239.928H753.699C759.924 239.928 763.177 234.587 763.177 228.082Z" fill="white"/>
<path d="M791.022 243.666C790.893 244.43 790.233 244.988 789.459 244.988H771.242C770.257 244.988 769.511 244.1 769.681 243.13L774.145 217.706C774.278 216.948 774.936 216.396 775.705 216.396H793.933C794.917 216.396 795.663 217.284 795.493 218.254L795.126 220.346C794.993 221.104 794.335 221.656 793.565 221.656H781.21C780.439 221.656 779.781 222.211 779.649 222.971L779.113 226.066C778.946 227.035 779.691 227.921 780.674 227.921H790.621C791.612 227.921 792.36 228.82 792.179 229.795L791.843 231.605C791.704 232.356 791.049 232.901 790.285 232.901H779.238C778.469 232.901 777.811 233.453 777.678 234.21L777.032 237.868C776.861 238.838 777.607 239.728 778.593 239.728H789.81C790.79 239.728 791.535 240.608 791.373 241.575L791.022 243.666Z" fill="white"/>
<path d="M575.447 186.583V207.765C575.447 209.542 574.517 211.189 572.995 212.106L556.849 221.835C555.704 222.525 555.004 223.765 555.004 225.102C555.004 226.464 555.731 227.723 556.911 228.404L618.378 263.892C619.588 264.591 621.117 264.39 622.105 263.402C622.683 262.823 623.009 262.038 623.009 261.219V240.473C623.009 238.662 623.975 236.989 625.543 236.084L638.718 228.477C642.097 226.526 642.097 221.649 638.718 219.698L625.543 212.091C623.975 211.186 622.043 211.186 620.475 212.091L602.231 222.624C600.663 223.53 598.731 223.53 597.163 222.624L580.201 212.831C579.244 212.28 578.778 211.154 579.064 210.088C579.232 209.463 579.64 208.93 580.201 208.607L620.882 185.119C622.45 184.214 623.416 182.541 623.416 180.73V161.115C623.416 159.768 622.512 158.589 621.211 158.241C620.449 158.037 619.637 158.144 618.953 158.538L577.981 182.193C576.413 183.099 575.447 184.772 575.447 186.583Z" fill="#D4E613"/>
</svg>
