<svg width="253" height="108" viewBox="0 0 253 108" fill="none" xmlns="http://www.w3.org/2000/svg">
<path d="M230.064 33.2567H227.072L228.967 22.4614H225.047L225.474 20.0273H236.325L235.898 22.4614H231.959L230.064 33.2567Z" fill="#2B2B2B"/>
<path d="M249.828 33.2567H246.985L248.843 22.703L243.622 33.2567H241.113L239.608 22.703L237.769 33.2567H234.926L237.248 20.0273H241.838L243.064 28.7045L247.338 20.0273H252.15L249.828 33.2567Z" fill="#2B2B2B"/>
<path d="M107.95 46.9336C107.819 47.6933 107.16 48.2483 106.389 48.2483H103.145C102.16 48.2483 101.414 47.3597 101.584 46.3899L106.048 20.9659C106.181 20.2082 106.839 19.6555 107.608 19.6555H125.835C126.82 19.6555 127.566 20.5441 127.396 21.5139L127.029 23.6058C126.896 24.3636 126.237 24.9162 125.468 24.9162H113.113C112.342 24.9162 111.683 25.471 111.552 26.2305L111.016 29.3263C110.848 30.295 111.594 31.181 112.577 31.181H122.524C123.515 31.181 124.262 32.0801 124.082 33.0543L123.746 34.8651C123.607 35.6159 122.952 36.1606 122.188 36.1606H111.146C110.375 36.1606 109.716 36.7156 109.584 37.4753L107.95 46.9336Z" fill="#2B2B2B"/>
<path d="M144.648 46.9263C144.52 47.6894 143.859 48.2483 143.085 48.2483H126.555C125.57 48.2483 124.824 47.3597 124.994 46.3899L129.458 20.9659C129.591 20.2082 130.249 19.6555 131.018 19.6555H134.263C135.249 19.6555 135.995 20.5459 135.823 21.5165L132.347 41.1265C132.175 42.0971 132.921 42.9875 133.907 42.9875H143.437C144.416 42.9875 145.161 43.868 144.999 44.8344L144.648 46.9263Z" fill="#2B2B2B"/>
<path d="M158.558 48.6499C150.687 48.6499 145.908 44.0317 145.908 37.0441C145.908 26.7234 152.213 19.2539 162.654 19.2539C170.445 19.2539 175.304 23.8721 175.304 30.8597C175.304 41.1804 169.32 48.6499 158.558 48.6499ZM159 43.3891C165.345 43.3891 168.839 37.8473 168.839 31.3416C168.839 27.0848 166.188 24.5147 162.212 24.5147C155.867 24.5147 152.374 30.0565 152.374 36.5622C152.374 40.819 155.024 43.3891 159 43.3891Z" fill="#2B2B2B"/>
<path d="M204.868 47.3184C204.611 47.8847 204.047 48.2483 203.425 48.2483H198.306C197.469 48.2483 196.776 47.5968 196.725 46.7611L196.034 35.5272C195.931 33.8485 193.628 33.4659 192.988 35.021L187.944 47.2673C187.699 47.8609 187.121 48.2483 186.479 48.2483H181.059C180.246 48.2483 179.566 47.6337 179.483 46.8255L176.876 21.4015C176.78 20.4675 177.513 19.6555 178.452 19.6555H182.043C182.876 19.6555 183.567 20.3015 183.624 21.1333L184.476 33.7722C184.589 35.442 186.876 35.8195 187.52 34.2744L193.198 20.6311C193.444 20.0404 194.021 19.6555 194.66 19.6555H198.743C199.579 19.6555 200.271 20.305 200.324 21.1394L201.127 33.7621C201.233 35.4328 203.52 35.8185 204.169 34.2751L209.902 20.6263C210.149 20.0381 210.725 19.6555 211.363 19.6555H214.959C216.111 19.6555 216.878 20.8455 216.402 21.8945L204.868 47.3184Z" fill="#2B2B2B"/>
<path d="M112.703 87.4682C105.434 87.4682 101.619 84.5366 101.619 79.0751C101.619 78.3229 102.276 77.7498 103.028 77.7498H106.34C107.215 77.7498 107.891 78.4713 108.092 79.3229C108.637 81.6247 110.491 82.6492 113.426 82.6492C117.12 82.6492 119.53 81.0027 119.53 78.4727C119.53 76.7057 118.365 75.8222 114.791 75.3002L111.538 74.8183C106.719 74.1356 104.31 71.9269 104.31 67.8307C104.31 61.6463 109.089 58.0722 116.799 58.0722C123.506 58.0722 127.2 61.325 127.2 66.3448C127.2 66.94 126.71 67.389 126.115 67.389H122.721C121.846 67.389 121.174 66.6623 120.924 65.8238C120.375 63.9832 118.759 62.8912 116.076 62.8912C112.984 62.8912 110.775 64.3369 110.775 66.8669C110.775 68.5937 111.619 69.3166 114.751 69.7583L118.044 70.2C122.903 70.9229 125.995 73.2922 125.995 77.6294C125.995 83.7334 121.458 87.4682 112.703 87.4682Z" fill="#2B2B2B"/>
<path d="M139.289 85.7561C139.156 86.5139 138.498 87.0666 137.729 87.0666H134.481C133.496 87.0666 132.75 86.178 132.92 85.2082L136.364 65.5929C136.534 64.6231 135.788 63.7345 134.803 63.7345H130.103C129.119 63.7345 128.373 62.8459 128.543 61.8761L128.91 59.7842C129.043 59.0265 129.701 58.4738 130.471 58.4738H150.706C151.691 58.4738 152.437 59.3624 152.266 60.3322L151.899 62.4241C151.766 63.1819 151.108 63.7345 150.339 63.7345H144.486C143.717 63.7345 143.058 64.2872 142.925 65.045L139.289 85.7561Z" fill="#2B2B2B"/>
<path d="M176.515 65.2606C176.515 67.4909 176.094 69.1584 175.254 70.4321C174.35 71.8019 173.824 76.3304 173.897 77.9698C173.902 78.0691 173.904 78.1698 173.904 78.2719C173.904 78.7136 173.864 79.1955 173.784 79.7176L173.021 84.1752C172.9 84.8579 172.86 85.5406 172.86 86.0626C172.86 86.569 172.436 87.0666 171.93 87.0666H167.858C167.176 87.0666 166.544 86.6317 166.468 85.9539C166.447 85.7605 166.435 85.5562 166.435 85.3398C166.435 84.9784 166.475 84.6169 166.555 84.1752L167.318 79.9585C167.399 79.4766 167.439 78.9947 167.439 78.5932C167.439 76.5852 166.194 75.9025 163.784 75.9025H159.296C158.525 75.9025 157.865 76.4576 157.734 77.2174L156.261 85.7518C156.13 86.5115 155.47 87.0666 154.699 87.0666H151.455C150.47 87.0666 149.724 86.178 149.894 85.2082L154.358 59.7842C154.491 59.0265 155.149 58.4738 155.918 58.4738H167.479C173.342 58.4738 176.515 61.3652 176.515 65.2606ZM170.009 66.2645C170.009 64.0558 168.483 63.2928 165.23 63.2928H161.534C160.768 63.2928 160.111 63.8415 159.975 64.5959L159.141 69.2178C158.966 70.1898 159.713 71.0835 160.7 71.0835H164.869C168.483 71.0835 170.009 69.4772 170.009 66.2645Z" fill="#2B2B2B"/>
<path d="M182.458 85.7561C182.325 86.5139 181.667 87.0666 180.898 87.0666H177.65C176.665 87.0666 175.919 86.178 176.089 85.2082L180.552 59.7842C180.685 59.0265 181.344 58.4738 182.113 58.4738H185.361C186.346 58.4738 187.092 59.3624 186.922 60.3322L182.458 85.7561Z" fill="#2B2B2B"/>
<path d="M214.634 69.678C214.634 80.1995 209.093 87.0666 197.928 87.0666H187.647C186.663 87.0666 185.916 86.178 186.087 85.2082L190.55 59.7842C190.683 59.0265 191.341 58.4738 192.111 58.4738H201.904C210.056 58.4738 214.634 62.4896 214.634 69.678ZM208.169 70.1599C208.169 65.9031 205.679 63.5337 201.824 63.5337H197.652C196.883 63.5337 196.225 64.086 196.092 64.8434L193.397 80.1474C193.226 81.1175 193.972 82.0066 194.957 82.0066H198.691C204.916 82.0066 208.169 76.6656 208.169 70.1599Z" fill="#2B2B2B"/>
<path d="M236.014 85.7446C235.886 86.5077 235.225 87.0666 234.451 87.0666H216.234C215.249 87.0666 214.503 86.178 214.673 85.2082L219.137 59.7842C219.27 59.0265 219.928 58.4738 220.697 58.4738H238.925C239.909 58.4738 240.656 59.3624 240.485 60.3322L240.118 62.4241C239.985 63.1819 239.327 63.7345 238.557 63.7345H226.202C225.432 63.7345 224.773 64.2892 224.641 65.0487L224.105 68.1446C223.938 69.1133 224.684 69.9993 225.667 69.9993H235.613C236.604 69.9993 237.352 70.8984 237.171 71.8726L236.835 73.6834C236.696 74.4342 236.041 74.9789 235.277 74.9789H224.23C223.461 74.9789 222.804 75.5308 222.67 76.288L222.024 79.9461C221.853 80.9163 222.599 81.8058 223.585 81.8058H234.803C235.782 81.8058 236.527 82.6863 236.365 83.6527L236.014 85.7446Z" fill="#2B2B2B"/>
<path d="M20.4432 28.6607V49.8432C20.4432 51.6201 19.5127 53.2672 17.9907 54.1843L1.84525 63.9134C0.700135 64.6034 0 65.8427 0 67.1797C0 68.5421 0.72685 69.801 1.90675 70.4823L63.3741 105.97C64.5841 106.669 66.1126 106.468 67.1006 105.48C67.6796 104.901 68.0048 104.116 68.0048 103.297V82.5511C68.0048 80.7404 68.9708 79.0672 70.539 78.1618L83.7143 70.555C87.0932 68.6042 87.0932 63.7272 83.7143 61.7764L70.539 54.1696C68.9708 53.2642 67.0388 53.2642 65.4706 54.1696L47.227 64.7026C45.6588 65.608 43.7268 65.608 42.1586 64.7026L25.1966 54.9096C24.2406 54.3576 23.7745 53.2323 24.0602 52.166C24.2276 51.5412 24.6364 51.0084 25.1966 50.685L65.8779 27.1976C67.4461 26.2922 68.4121 24.619 68.4121 22.8083V3.1927C68.4121 1.84614 67.5077 0.667468 66.207 0.318953C65.4448 0.114731 64.6327 0.221643 63.9494 0.616169L22.9773 24.2714C21.4092 25.1768 20.4432 26.85 20.4432 28.6607Z" fill="#2B2B2B"/>
</svg>
