<svg width="863" height="898" viewBox="0 0 863 898" fill="none" xmlns="http://www.w3.org/2000/svg">
<rect width="862.158" height="897.333" transform="translate(0.0693359 0.333984)" fill="#FFC107"/>
<path fill-rule="evenodd" clip-rule="evenodd" d="M481.876 454.817C483.017 456.202 482.032 458.289 480.238 458.289H467.205C466.548 458.289 465.929 457.985 465.527 457.466L448.232 435.137C447.655 434.392 447.638 433.355 448.191 432.592L465.194 409.133C465.593 408.582 466.232 408.256 466.913 408.256H479.394C481.159 408.256 482.153 410.286 481.07 411.68L465.262 432.04C464.653 432.824 464.669 433.925 465.3 434.691L481.876 454.817Z" fill="black"/>
<path fill-rule="evenodd" clip-rule="evenodd" d="M331.268 412.929C327.914 409.812 323.177 408.254 317.055 408.256H297.12C295.947 408.256 294.997 409.206 294.997 410.379V456.166C294.997 457.339 295.947 458.289 297.12 458.289H308.429C309.601 458.289 310.552 457.339 310.552 456.166V447.421C310.552 446.248 311.502 445.298 312.674 445.298H317.055C323.177 445.298 327.914 443.621 331.268 440.266C334.621 436.911 336.297 432.212 336.296 426.17C336.296 420.461 334.62 416.048 331.268 412.929ZM320.172 431.131C319.254 432.201 317.946 432.737 316.249 432.737H312.674C311.502 432.737 310.552 431.786 310.552 430.614V422.94C310.552 421.767 311.502 420.817 312.674 420.817H316.249C317.948 420.817 319.256 421.329 320.172 422.352C321.089 423.375 321.544 424.814 321.538 426.669C321.538 428.574 321.083 430.061 320.172 431.131Z" fill="black"/>
<path fill-rule="evenodd" clip-rule="evenodd" d="M358.823 410.379C358.823 409.206 357.872 408.256 356.7 408.256H345.393C344.221 408.256 343.271 409.206 343.271 410.379V456.166C343.271 457.339 344.221 458.289 345.393 458.289H376.278C377.451 458.289 378.401 457.339 378.401 456.166V446.637C378.401 445.464 377.451 444.514 376.278 444.514H360.945C359.773 444.514 358.823 443.563 358.823 442.391V410.379Z" fill="black"/>
<path fill-rule="evenodd" clip-rule="evenodd" d="M421.698 409.621C421.384 408.799 420.595 408.256 419.715 408.256H406.662C405.791 408.256 405.009 408.787 404.688 409.596L386.526 455.384C385.974 456.777 387 458.289 388.5 458.289H399.879C400.754 458.289 401.539 457.752 401.857 456.937L410.714 434.196C411.42 432.381 413.994 432.396 414.679 434.219L423.205 456.913C423.516 457.741 424.308 458.289 425.192 458.289H437.201C438.688 458.289 439.714 456.799 439.184 455.409L421.698 409.621Z" fill="black"/>
<path fill-rule="evenodd" clip-rule="evenodd" d="M508.193 456.937C507.875 457.752 507.09 458.289 506.215 458.289H494.836C493.336 458.289 492.31 456.777 492.862 455.384L511.024 409.596C511.345 408.787 512.127 408.256 512.997 408.256H526.05C526.931 408.256 527.719 408.799 528.033 409.621L545.519 455.409C546.05 456.799 545.024 458.289 543.536 458.289H531.531C530.646 458.289 529.855 457.741 529.544 456.913L521.017 434.219C520.332 432.396 517.758 432.38 517.052 434.195L508.193 456.937Z" fill="black"/>
<path d="M336.855 489.316C336.855 489.552 336.664 489.743 336.428 489.743H334.028C333.793 489.743 333.602 489.552 333.602 489.316V475.781C333.602 475.545 333.793 475.354 334.028 475.354H343.967C344.202 475.354 344.393 475.545 344.393 475.781V477.575C344.393 477.81 344.202 478.002 343.967 478.002H337.282C337.046 478.002 336.855 478.193 336.855 478.428V480.727C336.855 480.963 337.046 481.154 337.282 481.154H343.32C343.556 481.154 343.747 481.345 343.747 481.581V483.233C343.747 483.469 343.556 483.66 343.32 483.66H337.282C337.046 483.66 336.855 483.851 336.855 484.087V489.316Z" fill="black"/>
<path d="M362.372 489.316C362.372 489.552 362.181 489.743 361.945 489.743H352.007C351.771 489.743 351.58 489.552 351.58 489.316V475.781C351.58 475.545 351.771 475.354 352.007 475.354H361.945C362.181 475.354 362.372 475.545 362.372 475.781V477.575C362.372 477.81 362.181 478.002 361.945 478.002H355.261C355.025 478.002 354.834 478.193 354.834 478.428V480.727C354.834 480.963 355.025 481.154 355.261 481.154H361.298C361.534 481.154 361.725 481.345 361.725 481.581V483.233C361.725 483.469 361.534 483.66 361.298 483.66H355.261C355.025 483.66 354.834 483.851 354.834 484.087V486.669C354.834 486.905 355.025 487.096 355.261 487.096H361.945C362.181 487.096 362.372 487.287 362.372 487.523V489.316Z" fill="black"/>
<path d="M381.616 479.517C381.616 480.661 381.249 481.567 380.55 482.201C380.22 482.5 380.246 483.464 380.567 483.774C381.133 484.321 381.414 485.104 381.414 486.045V488.288C381.414 488.609 381.437 488.902 381.476 489.157C381.521 489.448 381.308 489.743 381.013 489.743H378.754C378.589 489.743 378.437 489.649 378.377 489.495C378.249 489.167 378.161 488.785 378.161 488.288V486.166C378.161 484.448 377.17 484.125 375.877 484.125H373.535C373.299 484.125 373.108 484.316 373.108 484.552V489.316C373.108 489.552 372.917 489.743 372.681 489.743H370.281C370.046 489.743 369.855 489.552 369.855 489.316V475.781C369.855 475.545 370.046 475.354 370.281 475.354H376.706C379.858 475.354 381.616 476.971 381.616 479.517ZM378.363 479.74C378.363 478.527 377.716 477.779 376.322 477.779H373.535C373.299 477.779 373.108 477.97 373.108 478.206V481.273C373.108 481.509 373.299 481.7 373.535 481.7H376.322C377.716 481.7 378.363 480.932 378.363 479.74Z" fill="black"/>
<path d="M400.996 479.517C400.996 480.661 400.629 481.567 399.93 482.201C399.599 482.5 399.626 483.464 399.947 483.774C400.513 484.321 400.794 485.104 400.794 486.045V488.288C400.794 488.609 400.817 488.902 400.856 489.157C400.901 489.448 400.687 489.743 400.393 489.743H398.134C397.969 489.743 397.816 489.649 397.757 489.495C397.629 489.167 397.54 488.785 397.54 488.288V486.166C397.54 484.448 396.55 484.125 395.257 484.125H392.915C392.679 484.125 392.488 484.316 392.488 484.552V489.316C392.488 489.552 392.297 489.743 392.061 489.743H389.661C389.425 489.743 389.234 489.552 389.234 489.316V475.781C389.234 475.545 389.425 475.354 389.661 475.354H396.085C399.238 475.354 400.996 476.971 400.996 479.517ZM397.742 479.74C397.742 478.527 397.096 477.779 395.701 477.779H392.915C392.679 477.779 392.488 477.97 392.488 478.206V481.273C392.488 481.509 392.679 481.7 392.915 481.7H395.701C397.096 481.7 397.742 480.932 397.742 479.74Z" fill="black"/>
<path d="M419.406 489.316C419.406 489.552 419.215 489.743 418.979 489.743H409.041C408.805 489.743 408.614 489.552 408.614 489.316V475.781C408.614 475.545 408.805 475.354 409.041 475.354H418.979C419.215 475.354 419.406 475.545 419.406 475.781V477.575C419.406 477.81 419.215 478.002 418.979 478.002H412.294C412.059 478.002 411.868 478.193 411.868 478.428V480.727C411.868 480.963 412.059 481.154 412.294 481.154H418.332C418.568 481.154 418.759 481.345 418.759 481.581V483.233C418.759 483.469 418.568 483.66 418.332 483.66H412.294C412.059 483.66 411.868 483.851 411.868 484.087V486.669C411.868 486.905 412.059 487.096 412.294 487.096H418.979C419.215 487.096 419.406 487.287 419.406 487.523V489.316Z" fill="black"/>
<path d="M433.598 489.316C433.598 489.552 433.407 489.743 433.171 489.743H430.771C430.535 489.743 430.344 489.552 430.344 489.316V478.428C430.344 478.193 430.153 478.002 429.917 478.002H426.507C426.271 478.002 426.08 477.81 426.08 477.575V475.781C426.08 475.545 426.271 475.354 426.507 475.354H437.456C437.691 475.354 437.882 475.545 437.882 475.781V477.575C437.882 477.81 437.691 478.002 437.456 478.002H434.025C433.789 478.002 433.598 478.193 433.598 478.428V489.316Z" fill="black"/>
<path d="M455.876 489.316C455.876 489.552 455.685 489.743 455.449 489.743H445.511C445.275 489.743 445.084 489.552 445.084 489.316V475.781C445.084 475.545 445.275 475.354 445.511 475.354H455.449C455.685 475.354 455.876 475.545 455.876 475.781V477.575C455.876 477.81 455.685 478.002 455.449 478.002H448.765C448.529 478.002 448.338 478.193 448.338 478.428V480.727C448.338 480.963 448.529 481.154 448.765 481.154H454.802C455.038 481.154 455.229 481.345 455.229 481.581V483.233C455.229 483.469 455.038 483.66 454.802 483.66H448.765C448.529 483.66 448.338 483.851 448.338 484.087V486.669C448.338 486.905 448.529 487.096 448.765 487.096H455.449C455.685 487.096 455.876 487.287 455.876 487.523V489.316Z" fill="black"/>
<path d="M475.12 479.517C475.12 480.661 474.753 481.567 474.054 482.201C473.724 482.5 473.75 483.464 474.071 483.774C474.637 484.321 474.918 485.104 474.918 486.045V488.288C474.918 488.609 474.941 488.902 474.98 489.157C475.025 489.448 474.812 489.743 474.517 489.743H472.258C472.093 489.743 471.941 489.649 471.881 489.495C471.753 489.167 471.665 488.785 471.665 488.288V486.166C471.665 484.448 470.674 484.125 469.381 484.125H467.039C466.803 484.125 466.612 484.316 466.612 484.552V489.316C466.612 489.552 466.421 489.743 466.185 489.743H463.785C463.55 489.743 463.359 489.552 463.359 489.316V475.781C463.359 475.545 463.55 475.354 463.785 475.354H470.21C473.362 475.354 475.12 476.971 475.12 479.517ZM471.867 479.74C471.867 478.527 471.22 477.779 469.826 477.779H467.039C466.803 477.779 466.612 477.97 466.612 478.206V481.273C466.612 481.509 466.803 481.7 467.039 481.7H469.826C471.22 481.7 471.867 480.932 471.867 479.74Z" fill="black"/>
<path d="M485.992 489.316C485.992 489.552 485.801 489.743 485.565 489.743H483.165C482.929 489.743 482.738 489.552 482.738 489.316V475.781C482.738 475.545 482.929 475.354 483.165 475.354H485.565C485.801 475.354 485.992 475.545 485.992 475.781V489.316ZM485.655 474.038C485.574 474.13 485.457 474.182 485.335 474.182H483.942C483.609 474.182 483.405 473.818 483.578 473.533L484.978 471.234C485.055 471.107 485.194 471.029 485.343 471.029H487.369C487.736 471.029 487.932 471.463 487.688 471.739L485.655 474.038Z" fill="black"/>
<path d="M507.238 489.171C507.34 489.449 507.134 489.743 506.837 489.743H504.415C504.234 489.743 504.072 489.628 504.012 489.457L503.282 487.362C503.223 487.19 503.061 487.076 502.879 487.076H497.544C497.363 487.076 497.201 487.19 497.141 487.362L496.411 489.457C496.351 489.628 496.19 489.743 496.008 489.743H493.586C493.29 489.743 493.084 489.449 493.185 489.171L498.109 475.635C498.17 475.466 498.331 475.354 498.51 475.354H501.914C502.093 475.354 502.253 475.466 502.315 475.635L507.238 489.171ZM501.796 484.59C502.089 484.59 502.295 484.301 502.199 484.024L500.615 479.434C500.483 479.05 499.941 479.05 499.808 479.434L498.224 484.024C498.129 484.301 498.335 484.59 498.628 484.59H501.796Z" fill="black"/>
<path d="M561.505 409.041C563.762 409.041 565.786 409.566 567.576 410.617C569.366 411.629 570.767 413.049 571.779 414.879C572.791 416.669 573.297 418.693 573.297 420.95C573.297 423.207 572.791 425.25 571.779 427.08C570.767 428.909 569.366 430.349 567.576 431.4C565.786 432.412 563.762 432.917 561.505 432.917C559.208 432.917 557.165 432.412 555.375 431.4C553.585 430.349 552.184 428.909 551.172 427.08C550.16 425.25 549.654 423.207 549.654 420.95C549.654 418.693 550.16 416.669 551.172 414.879C552.184 413.049 553.585 411.629 555.375 410.617C557.165 409.566 559.208 409.041 561.505 409.041ZM561.505 430.582C564.307 430.582 566.564 429.687 568.277 427.897C570.028 426.107 570.904 423.791 570.904 420.95C570.904 418.109 570.028 415.793 568.277 414.003C566.564 412.213 564.307 411.317 561.505 411.317C558.664 411.317 556.387 412.213 554.674 414.003C553.001 415.793 552.164 418.109 552.164 420.95C552.164 423.791 553.001 426.107 554.674 427.897C556.387 429.687 558.664 430.582 561.505 430.582ZM566.759 418.498C566.759 419.432 566.506 420.23 566 420.892C565.533 421.514 564.871 421.962 564.015 422.234L567.284 427.08L563.606 427.138L560.804 422.468H559.812V427.138H556.776V414.587H562.38C563.704 414.587 564.754 414.937 565.533 415.637C566.35 416.338 566.759 417.292 566.759 418.498ZM559.812 419.957H562.205C562.633 419.957 562.984 419.841 563.256 419.607C563.567 419.374 563.723 419.043 563.723 418.615C563.723 418.187 563.567 417.875 563.256 417.681C562.984 417.447 562.633 417.33 562.205 417.33H559.812V419.957Z" fill="black"/>
</svg>
