<svg width="96" height="97" viewBox="0 0 96 97" fill="none" xmlns="http://www.w3.org/2000/svg">
<path d="M48.0169 0.501953C38.5267 0.50194 29.2497 3.31609 21.3589 8.58854C13.4681 13.861 7.31797 21.3549 3.68623 30.1227C0.0544901 38.8905 -0.895745 48.5383 0.955688 57.8461C2.80712 67.1539 7.37706 75.7037 14.0876 82.4143C20.7982 89.1248 29.348 93.6948 38.6558 95.5462C47.9636 97.3977 57.6114 96.4475 66.3792 92.8157C75.147 89.184 82.6409 83.0339 87.9134 75.1431C93.1858 67.2523 96 57.9753 96 48.4851C95.9999 35.7592 90.9446 23.5545 81.946 14.556C72.9474 5.55741 60.7428 0.502035 48.0169 0.501953ZM93.6949 44.6416C93.6877 44.6357 93.6845 44.6268 93.677 44.621C93.0636 44.1564 92.413 43.743 91.732 43.3848C91.6085 43.3183 91.4731 43.2767 91.3336 43.2626C91.1941 43.2485 91.0531 43.262 90.9188 43.3024C90.7845 43.3428 90.6595 43.4093 90.551 43.4981C90.4424 43.5869 90.3525 43.6963 90.2862 43.8199C90.22 43.9435 90.1788 44.0789 90.165 44.2185C90.1512 44.3581 90.1651 44.499 90.2058 44.6332C90.2465 44.7674 90.3133 44.8922 90.4024 45.0006C90.4914 45.1089 90.601 45.1986 90.7248 45.2645C91.3023 45.5674 91.8542 45.917 92.3748 46.3098C92.5873 46.472 92.8533 46.5476 93.1193 46.5217C93.3853 46.4957 93.6317 46.37 93.8088 46.1699C93.847 46.9368 93.8665 47.7086 93.8675 48.4851C93.8297 49.032 93.5871 49.5446 93.1882 49.9206C91.6316 51.339 89.7807 52.3959 87.7679 53.0155C82.4038 54.8279 76.8597 56.0558 71.232 56.678C67.5531 57.1589 63.5443 57.5247 59.3124 57.764C59.2234 57.6256 59.1031 57.51 58.9612 57.4268C58.8192 57.3436 58.6596 57.295 58.4954 57.285C58.2921 57.2758 58.0905 57.3252 57.9144 57.4273C57.7384 57.5294 57.5954 57.6799 57.5024 57.8609C54.4397 58.0047 51.2685 58.0818 48.0169 58.0817C44.8033 58.082 41.6656 58.0079 38.6356 57.8673C38.4949 54.8369 38.4202 51.6997 38.4202 48.4851C38.4191 35.5968 39.6112 23.9254 41.5169 15.5463C42.1931 12.1577 43.2983 8.86911 44.8058 5.75992C45.2574 4.85138 45.8575 4.02465 46.5815 3.31385C46.9574 2.91484 47.47 2.67226 48.0169 2.63454C48.484 2.6589 48.9281 2.8451 49.2729 3.16118C49.4014 3.26588 49.5528 3.33891 49.7147 3.37438C49.8767 3.40984 50.0447 3.40675 50.2052 3.36534C50.3657 3.32394 50.5143 3.24539 50.6388 3.13602C50.7634 3.02665 50.8605 2.88954 50.9224 2.73573C61.8938 3.42629 72.2511 8.03927 80.1035 15.7326C87.956 23.426 92.78 33.6867 93.6949 44.6416ZM15.5956 16.064C23.2519 8.39414 33.3851 3.69524 44.1858 2.80621C43.0353 4.39002 42.1265 6.13605 41.4893 7.98707C39.6188 13.5028 38.3514 19.205 37.7095 24.9939C36.735 32.7859 36.2601 40.6324 36.2877 48.4851C36.288 51.6586 36.3603 54.7569 36.4961 57.7553C29.294 57.4073 22.1315 56.4809 15.0779 54.9851C11.6894 54.309 8.40081 53.2038 5.29166 51.6963C4.38313 51.2447 3.5564 50.6446 2.84559 49.9206C2.44667 49.5446 2.20411 49.0321 2.16628 48.4853C2.19068 48.0181 2.3769 47.5739 2.69294 47.229C2.86977 47.0083 2.9517 46.7264 2.9207 46.4454C2.88971 46.1643 2.74833 45.907 2.52766 45.7302C2.44743 45.673 2.35944 45.6276 2.26636 45.5954C2.95306 34.4539 7.69443 23.9492 15.5956 16.064ZM2.3391 52.3313C3.92507 53.4739 5.67023 54.3774 7.51872 55.0129C13.0345 56.8834 18.7366 58.1507 24.5254 58.7926C28.2627 59.2809 32.3236 59.6513 36.6053 59.8933C36.9535 67.2922 37.9006 74.6508 39.4375 81.8967C40.1542 85.4729 41.3271 88.9422 42.9273 92.2197C43.2897 92.9013 43.7083 93.5515 44.1788 94.1635C33.3845 93.2637 23.2584 88.5677 15.5985 80.9092C7.93866 73.2507 3.24079 63.1254 2.3391 52.3313ZM80.4382 80.9062C72.7849 88.5731 62.6566 93.2714 51.8604 94.1631C51.8662 94.1559 51.875 94.1528 51.8807 94.1454C52.3452 93.5319 52.7587 92.8814 53.1169 92.2003C53.1843 92.0768 53.2266 91.9412 53.2413 91.8012C53.2561 91.6613 53.243 91.5198 53.2028 91.385C53.1626 91.2501 53.0961 91.1245 53.0071 91.0155C52.9182 90.9065 52.8085 90.8161 52.6845 90.7497C52.5605 90.6832 52.4245 90.642 52.2845 90.6283C52.1444 90.6146 52.0031 90.6288 51.8685 90.67C51.734 90.7113 51.6089 90.7787 51.5006 90.8685C51.3922 90.9583 51.3027 91.0686 51.2372 91.1931C50.9343 91.7707 50.5846 92.3225 50.1918 92.8431C50.0297 93.0556 49.954 93.3216 49.98 93.5875C50.0059 93.8535 50.1315 94.0999 50.3316 94.2771C49.5648 94.3152 48.7932 94.3347 48.0169 94.3356C47.47 94.2979 46.9575 94.0553 46.5815 93.6563C45.1631 92.0997 44.1063 90.2488 43.4867 88.2361C41.6742 82.872 40.4463 77.3279 39.8241 71.7002C39.3517 68.0865 38.9897 64.1556 38.7502 60.0068C41.7475 60.1424 44.8452 60.2142 48.0169 60.2143C51.19 60.214 54.2879 60.1418 57.286 60.006C57.2781 60.1421 57.2719 60.2809 57.2637 60.4165C57.254 60.557 57.2722 60.6981 57.3173 60.8316C57.3623 60.965 57.4334 61.0882 57.5264 61.1941C57.6194 61.2999 57.7324 61.3863 57.859 61.4482C57.9855 61.5101 58.1231 61.5463 58.2637 61.5547C58.4043 61.5631 58.5452 61.5436 58.6782 61.4973C58.8113 61.4509 58.9338 61.3787 59.0387 61.2847C59.1437 61.1907 59.229 61.0769 59.2897 60.9498C59.3504 60.8226 59.3853 60.6848 59.3924 60.5441C59.4052 60.3301 59.4154 60.1117 59.4276 59.8966C66.8257 59.5484 74.1834 58.6013 81.4286 57.0647C85.0047 56.348 88.4741 55.1752 91.7515 53.5749C92.434 53.2118 93.0844 52.7915 93.6957 52.3184C92.8061 63.1182 88.1074 73.2504 80.4382 80.9062Z" fill="black"/>
<path d="M32.387 39.4968C33.0843 39.4405 33.7893 39.3879 34.5017 39.339C34.7836 39.3192 35.046 39.1884 35.2315 38.9752C35.417 38.7621 35.5103 38.4841 35.4909 38.2022C35.4715 37.9204 35.3411 37.6577 35.1283 37.4719C34.9154 37.2862 34.6375 37.1925 34.3557 37.2114C33.6349 37.2609 32.9214 37.3141 32.2153 37.3712C31.9335 37.3939 31.6722 37.5277 31.4889 37.7432C31.3057 37.9586 31.2156 38.238 31.2383 38.5198C31.2611 38.8017 31.3949 39.063 31.6103 39.2462C31.8257 39.4295 32.1052 39.5196 32.387 39.4968Z" fill="black"/>
<path d="M23.9616 40.4039C24.6499 40.3095 25.3498 40.2191 26.0613 40.1326C26.3421 40.0985 26.5977 39.9543 26.7721 39.7317C26.9465 39.509 27.0253 39.2262 26.9912 38.9455C26.9571 38.6648 26.8129 38.4091 26.5903 38.2347C26.3676 38.0603 26.0848 37.9815 25.8041 38.0156C25.0822 38.1033 24.3715 38.1951 23.672 38.291C23.5333 38.31 23.3996 38.3562 23.2787 38.4269C23.1578 38.4975 23.052 38.5913 22.9674 38.7028C22.8827 38.8144 22.8209 38.9415 22.7854 39.077C22.7498 39.2124 22.7414 39.3535 22.7604 39.4923C22.7794 39.631 22.8255 39.7646 22.8962 39.8855C22.9669 40.0064 23.0606 40.1122 23.1722 40.1969C23.2837 40.2815 23.4109 40.3434 23.5463 40.3789C23.6818 40.4144 23.8229 40.4229 23.9616 40.4039Z" fill="black"/>
<path d="M15.6409 41.859C16.3093 41.7121 16.9975 41.5698 17.7054 41.4318C17.9814 41.3762 18.2242 41.2136 18.3808 40.9796C18.5374 40.7456 18.595 40.4591 18.5412 40.1828C18.4874 39.9064 18.3264 39.6625 18.0935 39.5044C17.8605 39.3463 17.5745 39.2867 17.2978 39.3386C16.5743 39.4795 15.8695 39.6253 15.1834 39.7761C15.0466 39.806 14.917 39.8627 14.802 39.9427C14.6871 40.0228 14.589 40.1247 14.5135 40.2427C14.438 40.3607 14.3864 40.4924 14.3618 40.6303C14.3372 40.7682 14.34 40.9096 14.37 41.0464C14.4001 41.1832 14.4568 41.3128 14.537 41.4277C14.6171 41.5426 14.7191 41.6406 14.8371 41.716C14.9551 41.7915 15.0869 41.8429 15.2248 41.8675C15.3627 41.892 15.5041 41.8891 15.6409 41.859Z" fill="black"/>
<path d="M7.62526 44.202C8.22987 43.961 8.87882 43.725 9.5721 43.494C9.84041 43.4046 10.0622 43.2123 10.1888 42.9594C10.3153 42.7065 10.3362 42.4137 10.2468 42.1454C10.1574 41.8771 9.96516 41.6552 9.71225 41.5287C9.45933 41.4022 9.16651 41.3813 8.89821 41.4707C8.171 41.7129 7.48343 41.963 6.83552 42.221C6.70544 42.2728 6.58686 42.3498 6.48652 42.4475C6.38619 42.5452 6.30609 42.6616 6.25077 42.7903C6.19546 42.9189 6.16603 43.0572 6.16416 43.1972C6.16229 43.3372 6.18801 43.4763 6.23986 43.6063C6.29171 43.7364 6.36868 43.855 6.46636 43.9553C6.56404 44.0557 6.68053 44.1358 6.80917 44.1911C6.93782 44.2464 7.07609 44.2758 7.21611 44.2777C7.35613 44.2796 7.49518 44.2538 7.62526 44.202Z" fill="black"/>
<path d="M42.9261 36.8168C42.2066 36.8344 41.492 36.8556 40.7824 36.8804C40.4998 36.8903 40.2327 37.012 40.0398 37.2189C39.847 37.4257 39.7442 37.7007 39.7541 37.9833C39.764 38.266 39.8857 38.5331 40.0926 38.7259C40.2994 38.9188 40.5744 39.0216 40.857 39.0117C41.559 38.9871 42.266 38.9662 42.9781 38.9488C43.1184 38.9459 43.2569 38.9154 43.3854 38.8589C43.5139 38.8025 43.6301 38.7212 43.7271 38.6197C43.8241 38.5182 43.9002 38.3986 43.9509 38.2677C44.0016 38.1367 44.0259 37.9971 44.0225 37.8567C44.019 37.7164 43.9879 37.5781 43.9309 37.4498C43.8739 37.3215 43.7922 37.2057 43.6903 37.1091C43.5884 37.0124 43.4685 36.9369 43.3374 36.8867C43.2062 36.8366 43.0665 36.8128 42.9261 36.8168Z" fill="black"/>
<path d="M51.5029 36.7844C50.7924 36.7726 50.0777 36.7644 49.3587 36.7598C49.0759 36.758 48.804 36.8686 48.6028 37.0673C48.4015 37.266 48.2875 37.5365 48.2857 37.8193C48.2839 38.1021 48.3945 38.374 48.5932 38.5753C48.7919 38.7765 49.0624 38.8906 49.3452 38.8924C50.0567 38.8969 50.7642 38.905 51.4675 38.9166C51.7492 38.9197 52.0206 38.8111 52.2226 38.6146C52.4245 38.4182 52.5404 38.1498 52.5451 37.8681C52.5498 37.5864 52.4428 37.3144 52.2475 37.1113C52.0522 36.9082 51.7845 36.7907 51.5029 36.7844Z" fill="black"/>
<path d="M82.9529 42.468C83.6549 42.6489 84.3281 42.8349 84.9726 43.026C85.2437 43.1064 85.5357 43.0758 85.7842 42.9409C86.0328 42.8061 86.2176 42.578 86.298 42.3068C86.3784 42.0357 86.3478 41.7437 86.213 41.4951C86.0781 41.2466 85.85 41.0617 85.5789 40.9813C84.9085 40.7827 84.2106 40.5898 83.4853 40.4029C83.2115 40.3323 82.9208 40.3734 82.6772 40.5171C82.4337 40.6608 82.2572 40.8954 82.1866 41.1693C82.116 41.4431 82.1571 41.7338 82.3008 41.9774C82.4445 42.2209 82.6791 42.3974 82.9529 42.468Z" fill="black"/>
<path d="M74.6906 40.7913C75.4003 40.904 76.095 41.021 76.7745 41.1422C77.0529 41.1919 77.3397 41.1289 77.5716 40.9672C77.8036 40.8054 77.9618 40.5581 78.0115 40.2797C78.0611 40.0013 77.9982 39.7146 77.8364 39.4826C77.6747 39.2506 77.4274 39.0924 77.149 39.0428C76.456 38.9191 75.748 38.7998 75.0251 38.6851C74.7458 38.6407 74.4603 38.7091 74.2314 38.8753C74.0026 39.0414 73.8491 39.2916 73.8047 39.5709C73.7603 39.8502 73.8288 40.1357 73.9949 40.3646C74.161 40.5935 74.4113 40.7469 74.6906 40.7913Z" fill="black"/>
<path d="M66.2892 39.7312C67.0012 39.8001 67.7038 39.8729 68.397 39.9495C68.6774 39.9793 68.9581 39.8968 69.1778 39.72C69.3976 39.5433 69.5383 39.2867 69.5693 39.0064C69.6003 38.7261 69.519 38.445 69.3432 38.2245C69.1675 38.004 68.9115 37.8621 68.6314 37.8299C67.9286 37.7522 67.2164 37.6784 66.4948 37.6085C66.3554 37.595 66.2148 37.6091 66.0808 37.6499C65.9469 37.6908 65.8223 37.7576 65.7142 37.8466C65.6061 37.9356 65.5166 38.0451 65.4508 38.1687C65.385 38.2923 65.3442 38.4276 65.3307 38.567C65.3171 38.7064 65.3312 38.8471 65.3721 38.981C65.413 39.1149 65.4798 39.2395 65.5688 39.3476C65.6578 39.4557 65.7672 39.5452 65.8908 39.611C66.0144 39.6768 66.1498 39.7177 66.2892 39.7312Z" fill="black"/>
<path d="M52.2999 8.09344C52.5409 8.69805 52.7769 9.347 53.0079 10.0403C53.0988 10.3066 53.2913 10.5262 53.5435 10.6512C53.7956 10.7762 54.087 10.7964 54.354 10.7075C54.621 10.6185 54.842 10.4277 54.9688 10.1764C55.0957 9.92522 55.1181 9.63405 55.0311 9.36639C54.7889 8.63918 54.5389 7.95164 54.2809 7.30377C54.2297 7.1727 54.1532 7.05305 54.0556 6.9517C53.958 6.85036 53.8413 6.76933 53.7123 6.71328C53.5832 6.65723 53.4444 6.62727 53.3037 6.62512C53.163 6.62298 53.0233 6.6487 52.8927 6.70079C52.762 6.75289 52.6429 6.83033 52.5423 6.92865C52.4416 7.02698 52.3615 7.14425 52.3064 7.2737C52.2513 7.40315 52.2223 7.54222 52.2212 7.6829C52.2201 7.82359 52.2468 7.96314 52.2999 8.09344Z" fill="black"/>
<path d="M54.6419 16.1097C54.7888 16.7782 54.9311 17.4663 55.069 18.1741C55.123 18.4517 55.2851 18.6964 55.5196 18.8545C55.7542 19.0125 56.0419 19.071 56.3194 19.0169C56.597 18.9628 56.8418 18.8007 56.9998 18.5662C57.1579 18.3317 57.2163 18.044 57.1622 17.7664C57.0213 17.043 56.8755 16.3382 56.7248 15.6521C56.6954 15.5146 56.6391 15.3843 56.5592 15.2687C56.4794 15.1531 56.3774 15.0544 56.2592 14.9783C56.141 14.9022 56.009 14.8503 55.8707 14.8254C55.7323 14.8005 55.5905 14.8033 55.4532 14.8334C55.3159 14.8636 55.186 14.9206 55.0708 15.0012C54.9556 15.0817 54.8575 15.1843 54.7821 15.3029C54.7067 15.4215 54.6555 15.5538 54.6315 15.6923C54.6074 15.8308 54.6109 15.9726 54.6419 16.1097Z" fill="black"/>
<path d="M56.0968 24.4298C56.1911 25.118 56.2815 25.8179 56.368 26.5294C56.4021 26.8102 56.5464 27.0659 56.769 27.2403C56.9916 27.4147 57.2744 27.4935 57.5551 27.4594C57.8359 27.4253 58.0916 27.2811 58.266 27.0584C58.4404 26.8358 58.5192 26.553 58.4851 26.2723C58.3974 25.5503 58.3056 24.8396 58.2096 24.1401C58.1911 24.001 58.1452 23.8669 58.0747 23.7455C58.0042 23.6242 57.9105 23.5179 57.7988 23.4329C57.6872 23.3478 57.5598 23.2857 57.4241 23.25C57.2884 23.2142 57.1469 23.2057 57.0079 23.2247C56.8688 23.2438 56.7349 23.2901 56.6138 23.3611C56.4927 23.432 56.3868 23.5261 56.3022 23.6381C56.2175 23.75 56.1558 23.8776 56.1206 24.0135C56.0853 24.1493 56.0773 24.2908 56.0968 24.4298Z" fill="black"/>
<path d="M58.6443 44.4873C58.927 44.4804 59.1954 44.3615 59.3904 44.1567C59.5855 43.9519 59.6912 43.678 59.6843 43.3953C59.6668 42.6758 59.6456 41.9613 59.6207 41.2517C59.6158 41.1117 59.5834 40.9741 59.5253 40.8467C59.4672 40.7193 59.3846 40.6046 59.2822 40.5091C59.1798 40.4136 59.0596 40.3392 58.9284 40.2902C58.7972 40.2411 58.6577 40.2184 58.5178 40.2233C58.3778 40.2282 58.2402 40.2606 58.1128 40.3187C57.9854 40.3768 57.8707 40.4594 57.7752 40.5618C57.6797 40.6642 57.6053 40.7844 57.5563 40.9156C57.5072 41.0468 57.4845 41.1863 57.4894 41.3262C57.514 42.0281 57.5349 42.7352 57.5523 43.4473C57.5557 43.5873 57.5867 43.7252 57.6434 43.8533C57.7001 43.9813 57.7815 44.0969 57.8829 44.1935C57.9843 44.29 58.1037 44.3657 58.2344 44.4161C58.365 44.4665 58.5043 44.4907 58.6443 44.4873Z" fill="black"/>
<path d="M57.004 32.8554C57.0602 33.5526 57.113 34.2575 57.1619 34.97C57.1704 35.1105 57.2067 35.2479 57.2686 35.3742C57.3305 35.5006 57.4168 35.6135 57.5225 35.7064C57.6283 35.7993 57.7513 35.8703 57.8846 35.9154C58.018 35.9605 58.1589 35.9787 58.2993 35.9691C58.4397 35.9595 58.5768 35.9221 58.7027 35.8592C58.8286 35.7964 58.9408 35.7092 59.0329 35.6027C59.1249 35.4963 59.195 35.3726 59.239 35.239C59.283 35.1053 59.3002 34.9642 59.2894 34.8239C59.24 34.1031 59.1868 33.3896 59.1296 32.6836C59.1069 32.4017 58.9731 32.1404 58.7576 31.9572C58.5422 31.7739 58.2628 31.6838 57.9809 31.7066C57.699 31.7294 57.4377 31.8632 57.2545 32.0786C57.0713 32.294 56.9812 32.5735 57.004 32.8554Z" fill="black"/>
<path d="M56.9301 74.273C56.6508 74.2286 56.3654 74.297 56.1365 74.4632C55.9077 74.6293 55.7542 74.8795 55.7098 75.1588C55.5971 75.8686 55.4801 76.5632 55.3589 77.2427C55.3092 77.5212 55.3722 77.8079 55.5339 78.0399C55.6957 78.2719 55.9429 78.4301 56.2214 78.4798C56.4998 78.5295 56.7865 78.4665 57.0185 78.3047C57.2505 78.143 57.4087 77.8957 57.4584 77.6173C57.582 76.9242 57.7012 76.2162 57.816 75.4933C57.838 75.355 57.8325 75.2137 57.7999 75.0776C57.7672 74.9414 57.7081 74.813 57.6258 74.6996C57.5436 74.5863 57.4398 74.4903 57.3204 74.4171C57.201 74.3439 57.0684 74.2949 56.9301 74.273Z" fill="black"/>
<path d="M58.682 48.7539C58.542 48.753 58.4031 48.7797 58.2734 48.8325C58.1437 48.8853 58.0257 48.9631 57.926 49.0614C57.8264 49.1598 57.7471 49.2769 57.6927 49.4059C57.6383 49.5349 57.6098 49.6734 57.6089 49.8135C57.6044 50.525 57.5963 51.2324 57.5846 51.9358C57.5799 52.2185 57.6878 52.4916 57.8844 52.6948C58.081 52.8981 58.3503 53.0149 58.6331 53.0196C58.9158 53.0243 59.1889 52.9165 59.3922 52.7199C59.5954 52.5232 59.7122 52.2539 59.7169 51.9712C59.7287 51.2607 59.7369 50.5459 59.7415 49.827C59.7432 49.5442 59.6326 49.2723 59.4339 49.0711C59.2352 48.8698 58.9648 48.7558 58.682 48.7539Z" fill="black"/>
<path d="M57.9334 65.7999C57.794 65.7864 57.6534 65.8005 57.5194 65.8413C57.3855 65.8822 57.2609 65.949 57.1528 66.038C57.0447 66.127 56.9552 66.2365 56.8894 66.3601C56.8236 66.4837 56.7828 66.619 56.7693 66.7584C56.7004 67.4704 56.6276 68.173 56.5509 68.8661C56.5355 69.0053 56.5477 69.1462 56.5867 69.2806C56.6258 69.4151 56.6909 69.5406 56.7785 69.6499C56.866 69.7592 56.9742 69.8502 57.0969 69.9176C57.2196 69.9851 57.3544 70.0278 57.4936 70.0432C57.6327 70.0586 57.7736 70.0464 57.9081 70.0073C58.0425 69.9683 58.168 69.9031 58.2773 69.8156C58.3866 69.7281 58.4776 69.6199 58.5451 69.4972C58.6126 69.3745 58.6552 69.2397 58.6706 69.1005C58.7482 68.3977 58.822 67.6856 58.892 66.964C58.9055 66.8246 58.8914 66.6839 58.8505 66.55C58.8097 66.4161 58.7428 66.2915 58.6538 66.1834C58.5648 66.0753 58.4554 65.9858 58.3318 65.92C58.2081 65.8542 58.0728 65.8134 57.9334 65.7999Z" fill="black"/>
<path d="M55.3321 82.6548C55.0583 82.5843 54.7676 82.6254 54.5241 82.7691C54.2806 82.9128 54.1041 83.1474 54.0335 83.4212C53.8526 84.1231 53.6665 84.7963 53.4754 85.4408C53.3958 85.7117 53.4268 86.0031 53.5618 86.2512C53.6968 86.4992 53.9246 86.6836 54.1953 86.7638C54.466 86.8441 54.7575 86.8137 55.0059 86.6793C55.2542 86.545 55.4391 86.3176 55.52 86.047C55.7188 85.3767 55.9116 84.6788 56.0985 83.9535C56.1691 83.6796 56.128 83.389 55.9843 83.1454C55.8406 82.9019 55.606 82.7254 55.3321 82.6548Z" fill="black"/>
</svg>
