<svg width="97" height="97" viewBox="0 0 97 97" fill="none" xmlns="http://www.w3.org/2000/svg">
<path d="M48.6463 0.414063C39.1561 0.41405 29.8791 3.2282 21.9883 8.50065C14.0975 13.7731 7.94736 21.267 4.31562 30.0348C0.683885 38.8026 -0.26635 48.4504 1.58508 57.7582C3.43651 67.066 8.00646 75.6158 14.717 82.3264C21.4276 89.0369 29.9774 93.6069 39.2852 95.4583C48.593 97.3098 58.2408 96.3596 67.0086 92.7278C75.7764 89.0961 83.2703 82.946 88.5428 75.0552C93.8152 67.1644 96.6294 57.8874 96.6294 48.3972C96.6293 35.6713 91.574 23.4667 82.5754 14.4681C73.5768 5.46952 61.3722 0.414145 48.6463 0.414063ZM94.3243 44.5538C94.317 44.5478 94.3139 44.5389 94.3064 44.5331C93.693 44.0686 93.0424 43.6551 92.3614 43.2969C92.2379 43.2304 92.1025 43.1889 91.963 43.1747C91.8235 43.1606 91.6825 43.1741 91.5482 43.2145C91.4139 43.2549 91.2889 43.3214 91.1804 43.4102C91.0718 43.499 90.9819 43.6084 90.9156 43.732C90.8494 43.8556 90.8082 43.9911 90.7944 44.1306C90.7806 44.2702 90.7945 44.4111 90.8352 44.5453C90.8759 44.6795 90.9427 44.8043 91.0318 44.9127C91.1208 45.021 91.2304 45.1107 91.3542 45.1767C91.9317 45.4795 92.4836 45.8291 93.0042 46.222C93.2167 46.3841 93.4827 46.4598 93.7487 46.4338C94.0147 46.4078 94.2611 46.2821 94.4382 46.082C94.4764 46.8489 94.4959 47.6207 94.4969 48.3972C94.459 48.9441 94.2165 49.4567 93.8176 49.8327C92.261 51.2512 90.4101 52.308 88.3973 52.9276C83.0332 54.74 77.4891 55.9679 71.8614 56.5901C68.1825 57.071 64.1737 57.4368 59.9418 57.6761C59.8528 57.5377 59.7325 57.4221 59.5905 57.3389C59.4486 57.2557 59.289 57.2071 59.1248 57.1971C58.9215 57.1879 58.7199 57.2373 58.5438 57.3394C58.3678 57.4415 58.2248 57.592 58.1318 57.773C55.0691 57.9168 51.8979 57.9939 48.6463 57.9938C45.4327 57.9941 42.295 57.92 39.265 57.7794C39.1243 54.749 39.0496 51.6118 39.0496 48.3972C39.0485 35.5089 40.2406 23.8375 42.1463 15.4584C42.8225 12.0698 43.9277 8.78121 45.4352 5.67203C45.8868 4.76349 46.4869 3.93676 47.2109 3.22596C47.5868 2.82695 48.0994 2.58437 48.6463 2.54665C49.1134 2.57101 49.5575 2.75721 49.9023 3.07329C50.0308 3.17799 50.1822 3.25102 50.3441 3.28649C50.5061 3.32195 50.6741 3.31886 50.8346 3.27745C50.9951 3.23605 51.1437 3.1575 51.2682 3.04813C51.3928 2.93876 51.4899 2.80165 51.5518 2.64784C62.5232 3.3384 72.8805 7.95138 80.7329 15.6447C88.5854 23.3381 93.4094 33.5988 94.3243 44.5538ZM16.225 15.9761C23.8813 8.30625 34.0145 3.60735 44.8152 2.71832C43.6646 4.30213 42.7559 6.04816 42.1186 7.89918C40.2481 13.4149 38.9808 19.1172 38.3389 24.906C37.3644 32.698 36.8895 40.5445 36.9171 48.3972C36.9174 51.5707 36.9897 54.669 37.1255 57.6674C29.9234 57.3194 22.7609 56.393 15.7073 54.8972C12.3188 54.2211 9.03021 53.1159 5.92106 51.6084C5.01252 51.1568 4.18579 50.5567 3.47498 49.8327C3.07606 49.4567 2.8335 48.9442 2.79567 48.3974C2.82008 47.9303 3.00629 47.486 3.32233 47.1411C3.49916 46.9204 3.58109 46.6385 3.5501 46.3575C3.5191 46.0764 3.37772 45.8191 3.15706 45.6423C3.07683 45.5851 2.98883 45.5397 2.89575 45.5075C3.58245 34.366 8.32383 23.8613 16.225 15.9761ZM2.96849 52.2434C4.55447 53.386 6.29962 54.2895 8.14811 54.925C13.6639 56.7955 19.366 58.0628 25.1548 58.7047C28.8921 59.193 32.953 59.5635 37.2347 59.8054C37.5829 67.2043 38.53 74.5629 40.0668 81.8088C40.7836 85.385 41.9564 88.8543 43.5567 92.1318C43.9191 92.8134 44.3377 93.4636 44.8081 94.0756C34.0139 93.1759 23.8878 88.4798 16.2279 80.8213C8.56806 73.1628 3.87018 63.0375 2.96849 52.2434ZM81.0676 80.8184C73.4143 88.4852 63.286 93.1836 52.4897 94.0752C52.4956 94.068 52.5044 94.0649 52.5101 94.0575C52.9746 93.444 53.3881 92.7935 53.7463 92.1124C53.8137 91.9889 53.856 91.8533 53.8707 91.7133C53.8855 91.5734 53.8724 91.4319 53.8322 91.2971C53.792 91.1622 53.7255 91.0367 53.6365 90.9276C53.5476 90.8186 53.4379 90.7282 53.3139 90.6618C53.1899 90.5953 53.0539 90.5541 52.9139 90.5404C52.7738 90.5267 52.6324 90.5409 52.4979 90.5821C52.3634 90.6234 52.2383 90.6908 52.13 90.7806C52.0216 90.8704 51.9321 90.9807 51.8666 91.1052C51.5637 91.6828 51.214 92.2346 50.8212 92.7552C50.6591 92.9677 50.5834 93.2337 50.6094 93.4997C50.6353 93.7657 50.7609 94.012 50.961 94.1892C50.1942 94.2273 49.4226 94.2468 48.6463 94.2477C48.0994 94.21 47.5869 93.9674 47.2109 93.5684C45.7925 92.0118 44.7357 90.1609 44.1161 88.1482C42.3036 82.7841 41.0756 77.24 40.4535 71.6123C39.9811 67.9986 39.6191 64.0677 39.3796 59.9189C42.3769 60.0546 45.4746 60.1263 48.6463 60.1264C51.8194 60.1262 54.9173 60.0539 57.9154 59.9181C57.9075 60.0542 57.9013 60.193 57.8931 60.3286C57.8834 60.4691 57.9016 60.6102 57.9467 60.7437C57.9917 60.8771 58.0628 61.0004 58.1558 61.1062C58.2488 61.212 58.3618 61.2984 58.4884 61.3603C58.6149 61.4222 58.7525 61.4584 58.8931 61.4668C59.0337 61.4752 59.1746 61.4557 59.3076 61.4094C59.4407 61.363 59.5632 61.2908 59.6681 61.1968C59.7731 61.1028 59.8584 60.989 59.9191 60.8619C59.9798 60.7348 60.0147 60.5969 60.0218 60.4562C60.0346 60.2422 60.0448 60.0238 60.057 59.8087C67.4551 59.4605 74.8128 58.5134 82.0579 56.9768C85.6341 56.2601 89.1035 55.0873 92.3809 53.487C93.0634 53.124 93.7138 52.7036 94.3251 52.2305C93.4355 63.0303 88.7368 73.1625 81.0676 80.8184Z" fill="#00E9B1"/>
<path d="M33.0164 39.4089C33.7137 39.3526 34.4187 39.3 35.1311 39.2511C35.413 39.2313 35.6754 39.1005 35.8609 38.8874C36.0464 38.6742 36.1396 38.3962 36.1203 38.1143C36.1009 37.8325 35.9705 37.5698 35.7577 37.384C35.5448 37.1983 35.2669 37.1046 34.9851 37.1235C34.2643 37.173 33.5508 37.2262 32.8447 37.2833C32.5628 37.306 32.3015 37.4398 32.1183 37.6553C31.9351 37.8707 31.845 38.1501 31.8677 38.4319C31.8905 38.7138 32.0243 38.9751 32.2397 39.1583C32.4551 39.3416 32.7346 39.4317 33.0164 39.4089Z" fill="#00E9B1"/>
<path d="M24.591 40.316C25.2793 40.2216 25.9792 40.1312 26.6907 40.0447C26.9715 40.0106 27.2271 39.8664 27.4015 39.6438C27.5759 39.4211 27.6547 39.1384 27.6206 38.8576C27.5865 38.5769 27.4423 38.3212 27.2197 38.1468C26.997 37.9724 26.7142 37.8936 26.4335 37.9277C25.7116 38.0154 25.0009 38.1072 24.3014 38.2031C24.1626 38.2222 24.029 38.2683 23.9081 38.339C23.7872 38.4096 23.6814 38.5034 23.5968 38.6149C23.5121 38.7265 23.4503 38.8536 23.4148 38.9891C23.3792 39.1245 23.3707 39.2656 23.3898 39.4044C23.4088 39.5431 23.4549 39.6767 23.5256 39.7976C23.5963 39.9185 23.69 40.0243 23.8016 40.109C23.9131 40.1936 24.0402 40.2555 24.1757 40.291C24.3111 40.3265 24.4523 40.335 24.591 40.316Z" fill="#00E9B1"/>
<path d="M16.2703 41.7711C16.9387 41.6243 17.6269 41.4819 18.3348 41.344C18.6108 41.2883 18.8536 41.1257 19.0102 40.8917C19.1668 40.6577 19.2244 40.3712 19.1706 40.0949C19.1168 39.8185 18.9558 39.5746 18.7229 39.4165C18.4899 39.2584 18.2039 39.1988 17.9272 39.2507C17.2037 39.3916 16.4989 39.5374 15.8128 39.6882C15.676 39.7181 15.5464 39.7748 15.4314 39.8548C15.3165 39.9349 15.2184 40.0368 15.1429 40.1548C15.0674 40.2728 15.0158 40.4045 14.9912 40.5424C14.9666 40.6803 14.9694 40.8217 14.9994 40.9585C15.0295 41.0954 15.0862 41.2249 15.1664 41.3398C15.2465 41.4547 15.3485 41.5527 15.4665 41.6281C15.5845 41.7036 15.7163 41.7551 15.8542 41.7796C15.9921 41.8041 16.1335 41.8012 16.2703 41.7711Z" fill="#00E9B1"/>
<path d="M8.25465 44.1141C8.85926 43.8731 9.50821 43.6371 10.2015 43.4061C10.4698 43.3167 10.6916 43.1244 10.8182 42.8715C10.9447 42.6186 10.9656 42.3258 10.8762 42.0575C10.7868 41.7892 10.5946 41.5673 10.3416 41.4408C10.0887 41.3143 9.79591 41.2934 9.5276 41.3828C8.80039 41.625 8.11283 41.8751 7.46491 42.1331C7.33484 42.1849 7.21625 42.2619 7.11592 42.3596C7.01559 42.4573 6.93548 42.5738 6.88017 42.7024C6.82486 42.831 6.79542 42.9693 6.79355 43.1093C6.79168 43.2493 6.8174 43.3884 6.86926 43.5184C6.92111 43.6485 6.99807 43.7671 7.09576 43.8674C7.19344 43.9678 7.30993 44.0479 7.43857 44.1032C7.56721 44.1585 7.70549 44.1879 7.8455 44.1898C7.98552 44.1917 8.12458 44.1659 8.25465 44.1141Z" fill="#00E9B1"/>
<path d="M43.5555 36.7289C42.836 36.7465 42.1214 36.7677 41.4118 36.7925C41.1292 36.8024 40.8621 36.9242 40.6692 37.131C40.4764 37.3378 40.3736 37.6128 40.3835 37.8954C40.3934 38.1781 40.5151 38.4452 40.722 38.638C40.9288 38.8309 41.2038 38.9337 41.4864 38.9238C42.1884 38.8993 42.8954 38.8783 43.6075 38.8609C43.7478 38.858 43.8863 38.8275 44.0148 38.771C44.1433 38.7146 44.2594 38.6333 44.3565 38.5318C44.4535 38.4303 44.5296 38.3107 44.5803 38.1798C44.6309 38.0488 44.6553 37.9092 44.6519 37.7688C44.6484 37.6285 44.6173 37.4902 44.5603 37.3619C44.5033 37.2336 44.4216 37.1178 44.3197 37.0212C44.2178 36.9246 44.0979 36.849 43.9668 36.7989C43.8356 36.7487 43.6959 36.7249 43.5555 36.7289Z" fill="#00E9B1"/>
<path d="M52.1323 36.6965C51.4218 36.6847 50.7071 36.6765 49.9881 36.6719C49.7053 36.6701 49.4334 36.7807 49.2322 36.9794C49.0309 37.1781 48.9169 37.4486 48.9151 37.7314C48.9133 38.0142 49.0239 38.2862 49.2226 38.4874C49.4213 38.6886 49.6918 38.8027 49.9746 38.8045C50.6861 38.809 51.3935 38.8171 52.0969 38.8288C52.3786 38.8318 52.65 38.7232 52.8519 38.5267C53.0539 38.3303 53.1698 38.0619 53.1745 37.7802C53.1792 37.4985 53.0722 37.2265 52.8769 37.0234C52.6816 36.8204 52.4139 36.7028 52.1323 36.6965Z" fill="#00E9B1"/>
<path d="M83.5823 42.3801C84.2843 42.561 84.9575 42.747 85.6019 42.9381C85.8731 43.0185 86.1651 42.9879 86.4136 42.853C86.6622 42.7182 86.847 42.4901 86.9274 42.2189C87.0078 41.9478 86.9772 41.6558 86.8423 41.4072C86.7075 41.1587 86.4794 40.9739 86.2082 40.8935C85.5378 40.6948 84.84 40.5019 84.1147 40.315C83.8409 40.2444 83.5502 40.2855 83.3066 40.4292C83.0631 40.5729 82.8866 40.8075 82.816 41.0814C82.7454 41.3552 82.7865 41.6459 82.9302 41.8895C83.0739 42.133 83.3085 42.3095 83.5823 42.3801Z" fill="#00E9B1"/>
<path d="M75.32 40.7034C76.0297 40.8161 76.7244 40.9331 77.4039 41.0543C77.6823 41.104 77.9691 41.041 78.201 40.8793C78.433 40.7175 78.5912 40.4703 78.6409 40.1918C78.6905 39.9134 78.6276 39.6267 78.4658 39.3947C78.3041 39.1628 78.0568 39.0045 77.7784 38.9549C77.0854 38.8312 76.3774 38.712 75.6545 38.5972C75.3752 38.5528 75.0897 38.6212 74.8608 38.7874C74.632 38.9535 74.4785 39.2037 74.4341 39.483C74.3897 39.7623 74.4582 40.0478 74.6243 40.2767C74.7904 40.5056 75.0407 40.6591 75.32 40.7034Z" fill="#00E9B1"/>
<path d="M66.9186 39.6433C67.6305 39.7122 68.3332 39.785 69.0263 39.8616C69.3067 39.8914 69.5875 39.8089 69.8072 39.6321C70.0269 39.4554 70.1677 39.1988 70.1987 38.9185C70.2297 38.6382 70.1484 38.3571 69.9726 38.1366C69.7969 37.9161 69.5409 37.7742 69.2608 37.742C68.558 37.6643 67.8458 37.5905 67.1242 37.5206C66.9848 37.5071 66.8442 37.5212 66.7102 37.562C66.5763 37.6029 66.4517 37.6697 66.3436 37.7587C66.2355 37.8477 66.146 37.9572 66.0802 38.0808C66.0144 38.2044 65.9736 38.3397 65.96 38.4791C65.9465 38.6185 65.9606 38.7592 66.0015 38.8931C66.0424 39.027 66.1092 39.1516 66.1982 39.2597C66.2872 39.3678 66.3966 39.4573 66.5202 39.5231C66.6438 39.589 66.7792 39.6298 66.9186 39.6433Z" fill="#00E9B1"/>
<path d="M52.9293 8.00555C53.1703 8.61016 53.4063 9.25911 53.6373 9.9524C53.7282 10.2187 53.9207 10.4383 54.1729 10.5633C54.425 10.6883 54.7163 10.7085 54.9833 10.6196C55.2504 10.5306 55.4714 10.3398 55.5982 10.0885C55.7251 9.83733 55.7475 9.54616 55.6605 9.2785C55.4183 8.55129 55.1683 7.86375 54.9103 7.21588C54.8591 7.08481 54.7826 6.96516 54.685 6.86381C54.5874 6.76247 54.4707 6.68143 54.3417 6.62538C54.2126 6.56933 54.0738 6.53938 53.9331 6.53723C53.7924 6.53509 53.6527 6.56081 53.5221 6.6129C53.3914 6.665 53.2723 6.74244 53.1717 6.84076C53.071 6.93909 52.9909 7.05635 52.9358 7.1858C52.8807 7.31525 52.8517 7.45433 52.8506 7.59501C52.8495 7.7357 52.8762 7.87525 52.9293 8.00555Z" fill="#00E9B1"/>
<path d="M55.2713 16.0218C55.4182 16.6903 55.5605 17.3784 55.6984 18.0862C55.7524 18.3638 55.9145 18.6085 56.149 18.7666C56.3836 18.9246 56.6712 18.9831 56.9488 18.929C57.2264 18.8749 57.4712 18.7128 57.6292 18.4783C57.7873 18.2438 57.8457 17.9561 57.7916 17.6785C57.6507 16.9551 57.5049 16.2503 57.3542 15.5642C57.3248 15.4267 57.2685 15.2965 57.1886 15.1808C57.1087 15.0652 57.0068 14.9665 56.8886 14.8904C56.7704 14.8144 56.6384 14.7624 56.5001 14.7375C56.3617 14.7127 56.2199 14.7154 56.0826 14.7455C55.9453 14.7757 55.8154 14.8327 55.7002 14.9133C55.585 14.9938 55.4869 15.0964 55.4115 15.215C55.3361 15.3336 55.2849 15.4659 55.2609 15.6044C55.2368 15.7429 55.2403 15.8847 55.2713 16.0218Z" fill="#00E9B1"/>
<path d="M56.7262 24.3419C56.8205 25.0301 56.9109 25.73 56.9974 26.4415C57.0315 26.7223 57.1758 26.978 57.3984 27.1524C57.621 27.3268 57.9038 27.4056 58.1845 27.3715C58.4653 27.3374 58.721 27.1932 58.8954 26.9706C59.0698 26.7479 59.1486 26.4651 59.1145 26.1844C59.0268 25.4624 58.935 24.7517 58.839 24.0522C58.8205 23.9131 58.7746 23.779 58.7041 23.6576C58.6336 23.5363 58.5399 23.43 58.4282 23.345C58.3166 23.2599 58.1892 23.1978 58.0535 23.1621C57.9178 23.1263 57.7763 23.1178 57.6373 23.1368C57.4982 23.1559 57.3643 23.2022 57.2432 23.2732C57.1221 23.3441 57.0162 23.4382 56.9315 23.5502C56.8469 23.6621 56.7852 23.7897 56.75 23.9256C56.7147 24.0614 56.7067 24.2029 56.7262 24.3419Z" fill="#00E9B1"/>
<path d="M59.2737 44.3994C59.5564 44.3925 59.8248 44.2736 60.0198 44.0688C60.2149 43.864 60.3206 43.5901 60.3137 43.3074C60.2962 42.5879 60.275 41.8734 60.2501 41.1638C60.2452 41.0238 60.2128 40.8862 60.1547 40.7588C60.0966 40.6314 60.014 40.5167 59.9116 40.4212C59.8092 40.3257 59.689 40.2513 59.5578 40.2023C59.4266 40.1532 59.2871 40.1305 59.1472 40.1354C59.0072 40.1403 58.8696 40.1727 58.7422 40.2308C58.6148 40.2889 58.5001 40.3715 58.4046 40.4739C58.3091 40.5763 58.2347 40.6965 58.1857 40.8277C58.1366 40.9589 58.1139 41.0984 58.1188 41.2384C58.1433 41.9403 58.1643 42.6473 58.1817 43.3594C58.1851 43.4994 58.2161 43.6374 58.2728 43.7654C58.3295 43.8934 58.4109 44.009 58.5123 44.1056C58.6137 44.2021 58.7331 44.2778 58.8638 44.3282C58.9944 44.3786 59.1337 44.4028 59.2737 44.3994Z" fill="#00E9B1"/>
<path d="M57.6333 32.7675C57.6896 33.4648 57.7423 34.1696 57.7913 34.8821C57.7998 35.0226 57.8361 35.16 57.898 35.2864C57.9599 35.4128 58.0462 35.5256 58.1519 35.6185C58.2576 35.7114 58.3807 35.7824 58.514 35.8275C58.6474 35.8726 58.7883 35.8909 58.9287 35.8812C59.0691 35.8716 59.2062 35.8342 59.3321 35.7714C59.458 35.7085 59.5702 35.6213 59.6623 35.5148C59.7543 35.4084 59.8244 35.2847 59.8684 35.1511C59.9124 35.0174 59.9296 34.8763 59.9188 34.736C59.8694 34.0152 59.8162 33.3018 59.759 32.5957C59.7363 32.3138 59.6024 32.0525 59.387 31.8693C59.1716 31.6861 58.8922 31.5959 58.6103 31.6187C58.3284 31.6415 58.0671 31.7753 57.8839 31.9907C57.7007 32.2062 57.6106 32.4856 57.6333 32.7675Z" fill="#00E9B1"/>
<path d="M57.5595 74.1851C57.2802 74.1407 56.9948 74.2091 56.7659 74.3753C56.5371 74.5414 56.3836 74.7916 56.3392 75.0709C56.2265 75.7807 56.1095 76.4753 55.9883 77.1549C55.9386 77.4333 56.0016 77.72 56.1633 77.952C56.3251 78.184 56.5723 78.3422 56.8508 78.3919C57.1292 78.4416 57.4159 78.3786 57.6479 78.2168C57.8799 78.0551 58.0381 77.8078 58.0878 77.5294C58.2114 76.8363 58.3306 76.1283 58.4454 75.4054C58.4674 75.2671 58.4619 75.1258 58.4292 74.9897C58.3966 74.8535 58.3375 74.7251 58.2552 74.6118C58.1729 74.4984 58.0692 74.4024 57.9498 74.3292C57.8304 74.256 57.6978 74.207 57.5595 74.1851Z" fill="#00E9B1"/>
<path d="M59.3114 48.666C59.1714 48.6651 59.0325 48.6918 58.9028 48.7446C58.7731 48.7974 58.6551 48.8752 58.5554 48.9736C58.4558 49.0719 58.3765 49.189 58.3221 49.318C58.2677 49.4471 58.2392 49.5855 58.2383 49.7256C58.2338 50.4371 58.2257 51.1445 58.214 51.8479C58.2093 52.1306 58.3171 52.4037 58.5138 52.6069C58.7104 52.8102 58.9797 52.927 59.2625 52.9317C59.5452 52.9364 59.8183 52.8286 60.0215 52.632C60.2248 52.4353 60.3416 52.166 60.3463 51.8833C60.3581 51.1728 60.3663 50.4581 60.3709 49.7391C60.3726 49.4563 60.262 49.1844 60.0633 48.9832C59.8646 48.7819 59.5942 48.6679 59.3114 48.666Z" fill="#00E9B1"/>
<path d="M58.5628 65.712C58.4234 65.6985 58.2828 65.7126 58.1488 65.7534C58.0149 65.7943 57.8903 65.8611 57.7822 65.9502C57.6741 66.0392 57.5846 66.1486 57.5188 66.2722C57.453 66.3958 57.4122 66.5311 57.3987 66.6705C57.3298 67.3825 57.2569 68.0851 57.1803 68.7782C57.1649 68.9174 57.1771 69.0583 57.2161 69.1928C57.2552 69.3272 57.3203 69.4527 57.4079 69.562C57.4954 69.6713 57.6036 69.7623 57.7263 69.8298C57.849 69.8972 57.9838 69.9399 58.123 69.9553C58.2621 69.9707 58.403 69.9585 58.5375 69.9194C58.6719 69.8804 58.7974 69.8152 58.9067 69.7277C59.016 69.6402 59.107 69.532 59.1745 69.4093C59.242 69.2866 59.2846 69.1518 59.3 69.0126C59.3776 68.3099 59.4514 67.5977 59.5214 66.8761C59.5349 66.7367 59.5208 66.5961 59.4799 66.4621C59.4391 66.3282 59.3722 66.2036 59.2832 66.0955C59.1942 65.9874 59.0848 65.8979 58.9611 65.8321C58.8375 65.7663 58.7022 65.7255 58.5628 65.712Z" fill="#00E9B1"/>
<path d="M55.9615 82.5669C55.6877 82.4964 55.397 82.5375 55.1535 82.6812C54.91 82.8249 54.7335 83.0595 54.6629 83.3333C54.482 84.0352 54.2959 84.7084 54.1048 85.3529C54.0252 85.6238 54.0562 85.9152 54.1912 86.1633C54.3261 86.4113 54.554 86.5957 54.8247 86.676C55.0954 86.7562 55.3869 86.7258 55.6353 86.5915C55.8836 86.4571 56.0685 86.2297 56.1494 85.9591C56.3482 85.2888 56.541 84.5909 56.7279 83.8656C56.7985 83.5918 56.7574 83.3011 56.6137 83.0575C56.4699 82.814 56.2354 82.6375 55.9615 82.5669Z" fill="#00E9B1"/>
</svg>
