<svg width="114" height="113" viewBox="0 0 114 113" fill="none" xmlns="http://www.w3.org/2000/svg">
<rect opacity="0.8" x="24.3867" y="66.6523" width="39.9879" height="14.5617" rx="7.28084" transform="rotate(-29.4386 24.3867 66.6523)" fill="#8C75BD"/>
<rect opacity="0.8" x="49.8691" y="52.7168" width="39.9879" height="14.5617" rx="7.28084" transform="rotate(-29.4386 49.8691 52.7168)" fill="#5AD0E3"/>
<rect opacity="0.8" x="49.8701" y="92.6973" width="43.0078" height="14.5617" rx="7.28084" transform="rotate(-90 49.8701 92.6973)" fill="#85CFA2"/>
<rect opacity="0.8" x="50.0859" y="62.2422" width="43.0078" height="14.5617" rx="7.28084" transform="rotate(-90 50.0859 62.2422)" fill="#41BCBA"/>
<rect opacity="0.8" x="84.5698" y="80.9707" width="43.2285" height="14.5617" rx="7.28084" transform="rotate(-150 84.5698 80.9707)" fill="#225565"/>
<rect opacity="0.8" x="36.1616" y="53.5371" width="35.7006" height="14.5617" rx="7.28084" transform="rotate(-150 36.1616 53.5371)" fill="#C8DE5F"/>
<rect opacity="0.8" x="101.495" y="44.2734" width="14.7287" height="14.5617" rx="7.28084" transform="rotate(-150 101.495 44.2734)" fill="#81CBD8"/>
<rect opacity="0.8" x="59.8882" y="66.7207" width="14.7287" height="14.5617" rx="7.28084" transform="rotate(-150 59.8882 66.7207)" fill="#093349" fill-opacity="0.73"/>
</svg>
