<svg width="500" height="143" viewBox="0 0 500 143" fill="none" xmlns="http://www.w3.org/2000/svg">
<g clip-path="url(#clip0_2613_6673)">
<mask id="mask0_2613_6673" style="mask-type:luminance" maskUnits="userSpaceOnUse" x="0" y="0" width="500" height="143">
<path d="M500 0H0V142.8H500V0Z" fill="white"/>
</mask>
<g mask="url(#mask0_2613_6673)">
<path d="M107.4 27.0964C107.3 26.3964 106.7 25.9964 106.2 25.9964C105.7 25.9964 95.8 25.7964 95.8 25.7964C95.8 25.7964 87.5 17.7964 86.7 16.8964C85.9 16.0964 84.3 16.2964 83.7 16.4964C83.7 16.4964 82.1 16.9964 79.5 17.7964C79.1 16.3964 78.4 14.6964 77.5 12.8964C74.6 7.2964 70.2 4.2964 65 4.2964C64.6 4.2964 64.3 4.2964 63.9 4.3964C63.7 4.1964 63.6 3.9964 63.4 3.8964C61.1 1.4964 58.2 0.2964 54.7 0.3964C48 0.5964 41.3 5.4964 35.8 14.0964C32 20.1964 29.1 27.7964 28.2 33.6964C20.5 36.0964 15.1 37.7964 14.9 37.7964C11 38.9964 10.9 39.0964 10.4 42.7964C10.2 45.5964 0 124.496 0 124.496L85.6 139.296L122.7 130.096C122.6 130.096 107.5 27.7964 107.4 27.0964ZM75.2 19.1964C73.2 19.7964 71 20.4964 68.6 21.2964C68.6 17.8964 68.1 13.0964 66.6 9.0964C71.7 9.8964 74.2 15.6964 75.2 19.1964ZM64.1 22.5964C59.6 23.9964 54.7 25.4964 49.8 26.9964C51.2 21.6964 53.8 16.4964 57 12.9964C58.2 11.6964 59.9 10.2964 61.8 9.4964C63.8 13.3964 64.2 18.8964 64.1 22.5964ZM54.9 4.8964C56.5 4.8964 57.8 5.1964 58.9 5.9964C57.1 6.8964 55.3 8.2964 53.7 10.0964C49.4 14.6964 46.1 21.7964 44.8 28.6964C40.7 29.9964 36.7 31.1964 33.1 32.2964C35.5 21.3964 44.6 5.1964 54.9 4.8964Z" fill="#95BF47"/>
<path d="M106.201 25.9984C105.701 25.9984 95.8016 25.7984 95.8016 25.7984C95.8016 25.7984 87.5016 17.7984 86.7016 16.8984C86.4016 16.5984 86.0016 16.3984 85.6016 16.3984V139.298L122.701 130.098C122.701 130.098 107.601 27.7984 107.501 27.0984C107.301 26.3984 106.701 25.9984 106.201 25.9984Z" fill="#5E8E3E"/>
<path d="M64.9969 45.0932L60.6969 61.1932C60.6969 61.1932 55.8969 58.9932 50.1969 59.3932C41.7969 59.8932 41.7969 65.1932 41.7969 66.4932C42.2969 73.6932 61.1969 75.2932 62.2969 92.1932C63.0969 105.493 55.2969 114.593 43.8969 115.293C30.2969 115.993 22.7969 107.993 22.7969 107.993L25.6969 95.6932C25.6969 95.6932 33.2969 101.393 39.2969 100.993C43.1969 100.793 44.6969 97.4932 44.4969 95.2932C43.8969 85.8932 28.4969 86.4932 27.4969 70.9932C26.6969 57.9932 35.1969 44.8932 53.9969 43.6932C61.2969 43.1932 64.9969 45.0932 64.9969 45.0932Z" fill="white"/>
<path d="M172.903 79.3969C168.603 77.0969 166.403 75.0969 166.403 72.3969C166.403 68.9969 169.503 66.7969 174.303 66.7969C179.903 66.7969 184.903 69.0969 184.903 69.0969L188.803 57.0969C188.803 57.0969 185.203 54.2969 174.603 54.2969C159.803 54.2969 149.503 62.7969 149.503 74.6969C149.503 81.4969 154.303 86.5969 160.703 90.2969C165.903 93.1969 167.703 95.2969 167.703 98.3969C167.703 101.597 165.103 104.197 160.303 104.197C153.203 104.197 146.403 100.497 146.403 100.497L142.203 112.497C142.203 112.497 148.403 116.697 158.903 116.697C174.103 116.697 185.103 109.197 185.103 95.6969C185.003 88.3969 179.503 83.1969 172.903 79.3969ZM233.503 54.0969C226.003 54.0969 220.103 57.6969 215.603 63.0969L215.403 62.9969L221.903 28.9969H205.003L188.503 115.597H205.403L211.003 85.9969C213.203 74.7969 219.003 67.8969 224.403 67.8969C228.203 67.8969 229.703 70.4969 229.703 74.1969C229.703 76.4969 229.503 79.3969 229.003 81.6969L222.603 115.597H239.503L246.103 80.5969C246.803 76.8969 247.303 72.4969 247.303 69.4969C247.403 59.8969 242.403 54.0969 233.503 54.0969ZM285.703 54.0969C265.303 54.0969 251.803 72.4969 251.803 92.9969C251.803 106.097 259.903 116.697 275.103 116.697C295.103 116.697 308.603 98.7969 308.603 77.7969C308.703 65.6969 301.603 54.0969 285.703 54.0969ZM277.403 103.797C271.603 103.797 269.203 98.8969 269.203 92.6969C269.203 82.9969 274.203 67.1969 283.403 67.1969C289.403 67.1969 291.403 72.3969 291.403 77.3969C291.403 87.7969 286.303 103.797 277.403 103.797ZM352.003 54.0969C340.603 54.0969 334.103 64.1969 334.103 64.1969H333.903L334.903 55.0969H319.903C319.203 61.1969 317.803 70.5969 316.503 77.5969L304.703 139.597H321.603L326.303 114.497H326.703C326.703 114.497 330.203 116.697 336.603 116.697C356.503 116.697 369.503 96.2969 369.503 75.6969C369.503 64.2969 364.403 54.0969 352.003 54.0969ZM335.803 103.997C331.403 103.997 328.803 101.497 328.803 101.497L331.603 85.6969C333.603 75.0969 339.103 68.0969 345.003 68.0969C350.203 68.0969 351.803 72.8969 351.803 77.3969C351.803 88.3969 345.303 103.997 335.803 103.997ZM393.703 29.7969C388.303 29.7969 384.003 34.0969 384.003 39.5969C384.003 44.5969 387.203 48.0969 392.003 48.0969H392.203C397.503 48.0969 402.003 44.4969 402.103 38.2969C402.103 33.3969 398.803 29.7969 393.703 29.7969ZM370.003 115.497H386.903L398.403 55.4969H381.403L370.003 115.497ZM441.503 55.3969H429.703L430.303 52.5969C431.303 46.7969 434.703 41.6969 440.403 41.6969C443.403 41.6969 445.803 42.5969 445.803 42.5969L449.103 29.2969C449.103 29.2969 446.203 27.7969 439.903 27.7969C433.903 27.7969 427.903 29.4969 423.303 33.3969C417.503 38.2969 414.803 45.3969 413.503 52.5969L413.003 55.3969H405.103L402.603 68.1969H410.503L401.503 115.597H418.403L427.403 68.1969H439.103L441.503 55.3969ZM482.303 55.4969C482.303 55.4969 471.703 82.1969 467.003 96.7969H466.803C466.503 92.0969 462.603 55.4969 462.603 55.4969H444.803L455.003 110.597C455.203 111.797 455.103 112.597 454.603 113.397C452.603 117.197 449.303 120.897 445.403 123.597C442.203 125.897 438.603 127.397 435.803 128.397L440.503 142.797C443.903 142.097 451.103 139.197 457.103 133.597C464.803 126.397 472.003 115.197 479.303 99.9971L500.003 55.4969H482.303Z" fill="white"/>
</g>
</g>
<defs>
<clipPath id="clip0_2613_6673">
<rect width="500" height="143" fill="white"/>
</clipPath>
</defs>
</svg>
