<svg width="107" height="108" viewBox="0 0 107 108" fill="none" xmlns="http://www.w3.org/2000/svg">
<path d="M100.989 53.3432L54.0717 6.42637C53.8696 6.22819 53.5978 6.11719 53.3147 6.11719C53.0316 6.11719 52.7598 6.22819 52.5576 6.42637L5.64075 53.3432C5.63964 53.3513 5.63591 53.3588 5.63014 53.3645C5.43866 53.5616 5.33154 53.8255 5.33154 54.1003C5.33154 54.375 5.43866 54.639 5.63014 54.836C5.63591 54.8418 5.63964 54.8493 5.64075 54.8573L52.5576 101.774C52.7597 101.972 53.0316 102.083 53.3147 102.083C53.5978 102.083 53.8696 101.972 54.0717 101.774L100.989 54.8573C101.187 54.6552 101.298 54.3834 101.298 54.1003C101.298 53.8172 101.187 53.5454 100.989 53.3432ZM52.2484 98.4474L10.2365 56.4355L52.2484 69.8068V98.4474ZM52.2484 67.5782L8.38112 53.6204L52.2484 9.7532V67.5782ZM54.381 98.4474V69.8068L96.3715 56.4461L54.381 98.4474ZM54.381 67.5782V9.7532L98.2375 53.6204L54.381 67.5782Z" fill="#00E9B1"/>
<path d="M45.2326 43.1208L47.2648 42.4379C47.5402 42.3366 47.7659 42.1331 47.8949 41.8696C48.0239 41.6061 48.0464 41.303 47.9576 41.0234C47.9205 40.8857 47.8559 40.7569 47.7676 40.6449C47.6794 40.5328 47.5694 40.4398 47.4442 40.3715C47.319 40.3031 47.1813 40.2608 47.0394 40.2471C46.8974 40.2334 46.7542 40.2486 46.6182 40.2917L44.586 40.9746C44.3107 41.0759 44.085 41.2795 43.956 41.5429C43.8269 41.8064 43.8045 42.1095 43.8932 42.3891C43.9304 42.5268 43.995 42.6556 44.0832 42.7676C44.1715 42.8797 44.2815 42.9727 44.4067 43.0411C44.5318 43.1094 44.6695 43.1517 44.8115 43.1654C44.9534 43.1791 45.0967 43.164 45.2326 43.1208ZM37.1039 45.8523L39.1361 45.1694C39.4114 45.0682 39.6371 44.8646 39.7661 44.6011C39.8952 44.3376 39.9176 44.0345 39.8289 43.7549C39.7917 43.6172 39.7271 43.4884 39.6388 43.3764C39.5506 43.2644 39.4406 43.1714 39.3154 43.103C39.1903 43.0346 39.0526 42.9923 38.9106 42.9786C38.7686 42.9649 38.6254 42.9801 38.4895 43.0232L36.4573 43.7061C36.1819 43.8074 35.9562 44.011 35.8272 44.2745C35.6982 44.5379 35.6757 44.841 35.7645 45.1207C35.8016 45.2584 35.8662 45.3871 35.9545 45.4991C36.0427 45.6112 36.1527 45.7042 36.2779 45.7726C36.4031 45.8409 36.5408 45.8833 36.6827 45.897C36.8247 45.9107 36.9679 45.8955 37.1039 45.8523ZM28.9751 48.5838L31.0073 47.901C31.2826 47.7997 31.5083 47.5961 31.6374 47.3326C31.7664 47.0691 31.7889 46.766 31.7001 46.4864C31.663 46.3487 31.5983 46.22 31.5101 46.1079C31.4218 45.9959 31.3118 45.9029 31.1867 45.8345C31.0615 45.7661 30.9238 45.7238 30.7818 45.7101C30.6399 45.6964 30.4966 45.7116 30.3607 45.7548L28.3285 46.4376C28.0531 46.5389 27.8275 46.7425 27.6984 47.006C27.5694 47.2695 27.5469 47.5726 27.6357 47.8522C27.6728 47.9899 27.7375 48.1186 27.8257 48.2307C27.9139 48.3427 28.024 48.4357 28.1491 48.5041C28.2743 48.5725 28.412 48.6148 28.554 48.6285C28.6959 48.6422 28.8392 48.627 28.9751 48.5838ZM20.8463 51.3154L22.8785 50.6325C23.1539 50.5312 23.3795 50.3276 23.5086 50.0641C23.6376 49.8007 23.6601 49.4976 23.5713 49.2179C23.5342 49.0802 23.4695 48.9515 23.3813 48.8394C23.2931 48.7274 23.183 48.6344 23.0579 48.566C22.9327 48.4977 22.795 48.4553 22.653 48.4416C22.5111 48.4279 22.3678 48.4431 22.2319 48.4863L20.1997 49.1692C19.9244 49.2705 19.6987 49.474 19.5696 49.7375C19.4406 50.001 19.4181 50.3041 19.5069 50.5837C19.544 50.7214 19.6087 50.8502 19.6969 50.9622C19.7852 51.0742 19.8952 51.1673 20.0203 51.2356C20.1455 51.304 20.2832 51.3463 20.4252 51.36C20.5671 51.3737 20.7104 51.3585 20.8463 51.3154ZM12.7176 54.0469L14.7497 53.364C15.0251 53.2627 15.2508 53.0591 15.3798 52.7957C15.5089 52.5322 15.5313 52.2291 15.4425 51.9495C15.4054 51.8118 15.3408 51.683 15.2525 51.571C15.1643 51.4589 15.0543 51.3659 14.9291 51.2976C14.8039 51.2292 14.6662 51.1869 14.5243 51.1732C14.3823 51.1595 14.2391 51.1746 14.1031 51.2178L12.0709 51.9007C11.7956 52.002 11.5699 52.2056 11.4409 52.469C11.3118 52.7325 11.2894 53.0356 11.3781 53.3152C11.4153 53.4529 11.4799 53.5817 11.5682 53.6937C11.6564 53.8058 11.7664 53.8988 11.8916 53.9671C12.0167 54.0355 12.1544 54.0778 12.2964 54.0915C12.4384 54.1052 12.5816 54.0901 12.7176 54.0469Z" fill="#00E9B1"/>
<path d="M62.0437 40.9746L60.0115 40.2917C59.8756 40.2486 59.7323 40.2334 59.5903 40.2471C59.4484 40.2608 59.3107 40.3031 59.1855 40.3715C59.0604 40.4398 58.9503 40.5328 58.8621 40.6449C58.7739 40.7569 58.7092 40.8857 58.6721 41.0234C58.5833 41.303 58.6058 41.6061 58.7348 41.8696C58.8639 42.1331 59.0895 42.3366 59.3649 42.4379L61.3971 43.1208C61.533 43.164 61.6763 43.1791 61.8182 43.1654C61.9602 43.1517 62.0979 43.1094 62.2231 43.041C62.3482 42.9727 62.4582 42.8797 62.5465 42.7676C62.6347 42.6556 62.6993 42.5268 62.7365 42.3891C62.8253 42.1095 62.8028 41.8064 62.6737 41.5429C62.5447 41.2795 62.319 41.0759 62.0437 40.9746ZM70.1725 43.7061L68.1403 43.0232C68.0043 42.9801 67.8611 42.9649 67.7191 42.9786C67.5772 42.9923 67.4394 43.0346 67.3143 43.103C67.1891 43.1714 67.0791 43.2644 66.9909 43.3764C66.9026 43.4884 66.838 43.6172 66.8009 43.7549C66.7121 44.0345 66.7345 44.3376 66.8636 44.6011C66.9926 44.8646 67.2183 45.0682 67.4937 45.1694L69.5258 45.8523C69.6618 45.8955 69.805 45.9107 69.947 45.897C70.089 45.8833 70.2267 45.8409 70.3518 45.7726C70.477 45.7042 70.587 45.6112 70.6752 45.4992C70.7635 45.3871 70.8281 45.2584 70.8652 45.1207C70.954 44.841 70.9316 44.5379 70.8025 44.2745C70.6735 44.011 70.4478 43.8074 70.1725 43.7061ZM78.3012 46.4376L76.269 45.7548C76.1331 45.7116 75.9898 45.6964 75.8479 45.7101C75.7059 45.7238 75.5682 45.7661 75.4431 45.8345C75.3179 45.9029 75.2079 45.9959 75.1196 46.1079C75.0314 46.22 74.9668 46.3487 74.9296 46.4864C74.8409 46.766 74.8633 47.0691 74.9924 47.3326C75.1214 47.5961 75.3471 47.7997 75.6224 47.901L77.6546 48.5838C77.7905 48.627 77.9338 48.6422 78.0758 48.6285C78.2177 48.6148 78.3554 48.5725 78.4806 48.5041C78.6058 48.4357 78.7158 48.3427 78.804 48.2307C78.8923 48.1186 78.9569 47.9899 78.994 47.8522C79.0828 47.5726 79.0603 47.2695 78.9313 47.006C78.8023 46.7425 78.5766 46.5389 78.3012 46.4376ZM86.43 49.1692L84.3978 48.4863C84.2619 48.4431 84.1186 48.4279 83.9767 48.4416C83.8347 48.4553 83.697 48.4977 83.5718 48.566C83.4467 48.6344 83.3367 48.7274 83.2484 48.8394C83.1602 48.9515 83.0955 49.0802 83.0584 49.2179C82.9696 49.4976 82.9921 49.8007 83.1211 50.0641C83.2502 50.3276 83.4759 50.5312 83.7512 50.6325L85.7834 51.3154C85.9193 51.3585 86.0626 51.3737 86.2046 51.36C86.3465 51.3463 86.4842 51.304 86.6094 51.2356C86.7346 51.1673 86.8446 51.0742 86.9328 50.9622C87.0211 50.8502 87.0857 50.7214 87.1228 50.5837C87.2116 50.3041 87.1891 50.001 87.0601 49.7375C86.931 49.474 86.7053 49.2705 86.43 49.1692ZM94.5588 51.9007L92.5266 51.2178C92.3907 51.1746 92.2474 51.1595 92.1054 51.1732C91.9635 51.1869 91.8258 51.2292 91.7006 51.2976C91.5754 51.3659 91.4654 51.4589 91.3772 51.571C91.289 51.683 91.2243 51.8118 91.1872 51.9495C91.0984 52.2291 91.1209 52.5322 91.2499 52.7957C91.379 53.0591 91.6046 53.2627 91.88 53.364L93.9122 54.0469C94.0481 54.0901 94.1914 54.1052 94.3333 54.0915C94.4753 54.0778 94.613 54.0355 94.7381 53.9671C94.8633 53.8988 94.9733 53.8058 95.0616 53.6937C95.1498 53.5817 95.2144 53.4529 95.2516 53.3152C95.3404 53.0356 95.3179 52.7325 95.1888 52.469C95.0598 52.2056 94.8341 52.002 94.5588 51.9007Z" fill="#00E9B1"/>
</svg>
