<svg width="107" height="108" viewBox="0 0 107 108" fill="none" xmlns="http://www.w3.org/2000/svg">
<path d="M101.279 17.9313C101.275 17.8749 101.267 17.819 101.254 17.764C101.219 17.6294 101.158 17.5028 101.074 17.3912C101.058 17.3689 101.053 17.3418 101.034 17.3205C101.026 17.3112 101.014 17.3079 101.006 17.2989C100.977 17.2712 100.946 17.2452 100.915 17.221C100.869 17.1828 100.821 17.1486 100.77 17.1188C100.738 17.096 100.704 17.0751 100.67 17.056C100.632 17.0423 100.593 17.0308 100.554 17.0216C100.523 17.0116 100.5 16.9901 100.468 16.9828L53.5509 6.31991C53.3954 6.28399 53.2338 6.28399 53.0783 6.31991L6.16143 16.9828C6.12944 16.9901 6.10598 17.0116 6.07526 17.0216C6.03603 17.0308 5.99735 17.0423 5.95942 17.056C5.92479 17.0751 5.89124 17.0961 5.85893 17.1189C5.80801 17.1487 5.75976 17.1828 5.71472 17.2209C5.68287 17.2451 5.65245 17.2711 5.6236 17.2988C5.61513 17.3078 5.60342 17.3111 5.59522 17.3205C5.57648 17.3418 5.57127 17.3689 5.55461 17.3913C5.49712 17.4725 5.44764 17.559 5.40688 17.6498C5.37699 17.7412 5.35789 17.8358 5.34999 17.9317C5.34713 17.9632 5.33164 17.9904 5.33164 18.0226L5.33154 90.5305C5.33165 90.7113 5.3777 90.8892 5.46536 91.0473C5.55302 91.2055 5.67942 91.3388 5.8327 91.4347L22.8934 102.098C22.9256 102.114 22.9587 102.129 22.9925 102.142C23.0249 102.158 23.0581 102.173 23.0921 102.186C23.2089 102.232 23.333 102.257 23.4585 102.26H83.1709C83.2963 102.257 83.4203 102.232 83.5371 102.186C83.5711 102.173 83.6044 102.158 83.6368 102.141C83.6706 102.129 83.7036 102.114 83.7359 102.098L100.797 91.4347C100.95 91.3387 101.076 91.2054 101.164 91.0472C101.252 90.8891 101.298 90.7113 101.298 90.5304V18.0226C101.298 17.9902 101.282 17.9629 101.279 17.9313ZM52.2484 8.69551V9.4923C52.2484 9.7751 52.3607 10.0463 52.5607 10.2463C52.7607 10.4463 53.0319 10.5586 53.3147 10.5586C53.5975 10.5586 53.8687 10.4463 54.0687 10.2463C54.2686 10.0463 54.381 9.7751 54.381 9.4923V8.69564L97.9541 18.5984L82.7701 31.8844H23.859L8.67516 18.5984L52.2484 8.69551ZM7.464 89.9395V20.3723L22.3922 33.4346V84.3222L20.751 84.8445C20.6166 84.8861 20.4918 84.9539 20.3837 85.0441C20.2757 85.1342 20.1865 85.2448 20.1214 85.3695C20.0563 85.4942 20.0165 85.6306 20.0043 85.7708C19.9922 85.911 20.0078 86.0522 20.0505 86.1862C20.0932 86.3203 20.1619 86.4446 20.2529 86.552C20.3438 86.6594 20.4551 86.7477 20.5803 86.8119C20.7055 86.8761 20.8422 86.9148 20.9824 86.9259C21.1227 86.937 21.2638 86.9203 21.3975 86.8766L22.3922 86.5601V99.2697L7.464 89.9395ZM82.1046 100.127H24.5248V34.017H52.2484V35.0833C52.2484 35.3661 52.3607 35.6373 52.5607 35.8373C52.7607 36.0373 53.0319 36.1496 53.3147 36.1496C53.5975 36.1496 53.8687 36.0373 54.0687 35.8373C54.2686 35.6373 54.381 35.3661 54.381 35.0833V34.017H82.1046V100.127ZM99.1652 89.9395L84.2371 99.2695V86.5603L85.2316 86.8766C85.3653 86.9203 85.5064 86.937 85.6467 86.9259C85.7869 86.9148 85.9236 86.8761 86.0488 86.8119C86.1741 86.7477 86.2853 86.6594 86.3762 86.552C86.4672 86.4446 86.5359 86.3203 86.5786 86.1862C86.6213 86.0522 86.637 85.911 86.6248 85.7708C86.6126 85.6306 86.5728 85.4942 86.5077 85.3695C86.4426 85.2448 86.3535 85.1342 86.2454 85.0441C86.1373 84.9539 86.0125 84.8861 85.8781 84.8445L84.2371 84.3223V33.4345L99.1652 20.3724V89.9395Z" fill="#00E9B1"/>
<path d="M30.5086 81.7396L28.5571 82.3606C28.4227 82.4023 28.2979 82.4701 28.1899 82.5602C28.0819 82.6503 27.9927 82.7609 27.9276 82.8857C27.8626 83.0104 27.8228 83.1467 27.8106 83.2869C27.7985 83.4271 27.8142 83.5682 27.8568 83.7023C27.8995 83.8364 27.9682 83.9607 28.0591 84.068C28.15 84.1754 28.2613 84.2637 28.3865 84.3279C28.5117 84.3921 28.6483 84.4308 28.7886 84.442C28.9288 84.4531 29.0699 84.4364 29.2036 84.3927L31.1552 83.7719C31.2886 83.7294 31.4124 83.6611 31.5194 83.5708C31.6264 83.4805 31.7146 83.37 31.779 83.2457C31.8433 83.1213 31.8825 82.9855 31.8944 82.8459C31.9062 82.7064 31.8905 82.5659 31.848 82.4325C31.8056 82.299 31.7372 82.1753 31.647 82.0682C31.5567 81.9612 31.4462 81.873 31.3218 81.8087C31.1974 81.7443 31.0616 81.7051 30.9221 81.6933C30.7826 81.6814 30.6421 81.6972 30.5086 81.7396Z" fill="#00E9B1"/>
<path d="M46.1209 76.7728L44.1694 77.3938C44.035 77.4355 43.9102 77.5033 43.8022 77.5934C43.6942 77.6835 43.605 77.7941 43.54 77.9189C43.4749 78.0436 43.4351 78.1799 43.4229 78.3201C43.4108 78.4603 43.4265 78.6014 43.4691 78.7355C43.5118 78.8696 43.5805 78.9939 43.6714 79.1012C43.7624 79.2086 43.8736 79.2969 43.9988 79.3611C44.124 79.4253 44.2606 79.464 44.4009 79.4752C44.5411 79.4863 44.6822 79.4696 44.8159 79.4259L46.7675 78.8051C46.9009 78.7626 47.0247 78.6943 47.1317 78.604C47.2387 78.5137 47.3269 78.4032 47.3913 78.2789C47.4556 78.1545 47.4948 78.0187 47.5067 77.8791C47.5185 77.7396 47.5028 77.5991 47.4603 77.4657C47.4179 77.3322 47.3495 77.2085 47.2593 77.1014C47.169 76.9944 47.0585 76.9062 46.9341 76.8419C46.8097 76.7775 46.6739 76.7383 46.5344 76.7265C46.3949 76.7146 46.2544 76.7304 46.1209 76.7728Z" fill="#00E9B1"/>
<path d="M38.3148 79.2572L36.3633 79.8782C36.2289 79.9198 36.1041 79.9877 35.9961 80.0778C35.888 80.1679 35.7989 80.2785 35.7338 80.4032C35.6687 80.528 35.6289 80.6643 35.6168 80.8045C35.6046 80.9446 35.6203 81.0858 35.663 81.2199C35.7056 81.3539 35.7744 81.4782 35.8653 81.5856C35.9562 81.693 36.0675 81.7813 36.1926 81.8455C36.3178 81.9096 36.4545 81.9484 36.5947 81.9596C36.735 81.9707 36.876 81.9539 37.0098 81.9103L38.9613 81.2894C39.0947 81.247 39.2185 81.1787 39.3256 81.0884C39.4326 80.9981 39.5208 80.8876 39.5851 80.7633C39.6495 80.6389 39.6887 80.5031 39.7005 80.3635C39.7124 80.224 39.6966 80.0835 39.6542 79.9501C39.6117 79.8166 39.5434 79.6929 39.4531 79.5858C39.3628 79.4788 39.2523 79.3906 39.128 79.3263C39.0036 79.2619 38.8678 79.2227 38.7283 79.2109C38.5887 79.199 38.4482 79.2148 38.3148 79.2572Z" fill="#00E9B1"/>
<path d="M14.8966 86.7084L12.9452 87.3293C12.6757 87.4151 12.4513 87.6043 12.3214 87.8555C12.1914 88.1067 12.1666 88.3992 12.2523 88.6687C12.3381 88.9382 12.5273 89.1626 12.7785 89.2925C13.0297 89.4225 13.3222 89.4473 13.5917 89.3616L15.5431 88.7406C15.6765 88.6982 15.8003 88.6298 15.9073 88.5396C16.0144 88.4493 16.1026 88.3388 16.1669 88.2144C16.2313 88.09 16.2705 87.9542 16.2823 87.8147C16.2942 87.6752 16.2784 87.5347 16.2359 87.4012C16.1935 87.2678 16.1252 87.144 16.0349 87.037C15.9446 86.93 15.8341 86.8418 15.7098 86.7774C15.5854 86.7131 15.4496 86.6739 15.31 86.662C15.1705 86.6502 15.03 86.6659 14.8966 86.7084Z" fill="#00E9B1"/>
<path d="M67.6683 81.2894L69.6199 81.9103C69.7536 81.954 69.8947 81.9707 70.035 81.9596C70.1752 81.9485 70.3119 81.9098 70.4371 81.8456C70.5623 81.7814 70.6736 81.6931 70.7645 81.5857C70.8554 81.4783 70.9242 81.354 70.9669 81.2199C71.0095 81.0858 71.0252 80.9447 71.0131 80.8045C71.0009 80.6643 70.9611 80.5279 70.896 80.4032C70.8309 80.2785 70.7417 80.1679 70.6337 80.0777C70.5256 79.9876 70.4008 79.9198 70.2664 79.8782L68.3148 79.2572C68.1814 79.2148 68.0409 79.199 67.9014 79.2109C67.7619 79.2227 67.626 79.2619 67.5017 79.3263C67.3773 79.3906 67.2668 79.4788 67.1765 79.5858C67.0862 79.6929 67.0179 79.8166 66.9755 79.9501C66.933 80.0835 66.9173 80.224 66.9291 80.3635C66.941 80.5031 66.9802 80.6389 67.0445 80.7633C67.1088 80.8876 67.197 80.9981 67.3041 81.0884C67.4111 81.1787 67.5349 81.247 67.6683 81.2894Z" fill="#00E9B1"/>
<path d="M75.474 83.7719L77.4255 84.3927C77.5593 84.4364 77.7004 84.4532 77.8406 84.442C77.9809 84.4309 78.1176 84.3922 78.2428 84.328C78.368 84.2638 78.4793 84.1755 78.5702 84.0681C78.6611 83.9607 78.7299 83.8364 78.7725 83.7024C78.8152 83.5683 78.8309 83.4271 78.8187 83.2869C78.8065 83.1467 78.7668 83.0103 78.7016 82.8856C78.6365 82.7609 78.5474 82.6503 78.4393 82.5602C78.3313 82.4701 78.2064 82.4022 78.072 82.3606L76.1205 81.7396C75.9871 81.6972 75.8466 81.6814 75.707 81.6933C75.5675 81.7051 75.4317 81.7443 75.3073 81.8087C75.183 81.873 75.0725 81.9612 74.9822 82.0682C74.8919 82.1753 74.8236 82.299 74.7811 82.4325C74.7387 82.5659 74.7229 82.7064 74.7348 82.8459C74.7466 82.9855 74.7858 83.1213 74.8502 83.2457C74.9145 83.37 75.0027 83.4805 75.1097 83.5708C75.2168 83.6611 75.3406 83.7294 75.474 83.7719Z" fill="#00E9B1"/>
<path d="M59.8622 78.8051L61.8137 79.4259C61.9475 79.4696 62.0885 79.4864 62.2288 79.4753C62.3691 79.4641 62.5057 79.4254 62.631 79.3612C62.7562 79.297 62.8674 79.2087 62.9584 79.1013C63.0493 78.994 63.1181 78.8696 63.1607 78.7356C63.2034 78.6015 63.2191 78.4603 63.2069 78.3201C63.1947 78.1799 63.155 78.0436 63.0898 77.9188C63.0247 77.7941 62.9356 77.6835 62.8275 77.5934C62.7194 77.5033 62.5946 77.4354 62.4602 77.3938L60.5087 76.7728C60.3753 76.7304 60.2348 76.7146 60.0952 76.7265C59.9557 76.7383 59.8199 76.7775 59.6955 76.8419C59.5711 76.9062 59.4607 76.9944 59.3704 77.1015C59.2801 77.2085 59.2118 77.3323 59.1693 77.4657C59.1269 77.5991 59.1111 77.7396 59.123 77.8791C59.1348 78.0187 59.174 78.1545 59.2384 78.2789C59.3027 78.4033 59.3909 78.5137 59.4979 78.604C59.605 78.6943 59.7287 78.7626 59.8622 78.8051Z" fill="#00E9B1"/>
<path d="M91.0863 88.7406L93.0378 89.3615C93.3073 89.4473 93.5998 89.4224 93.851 89.2925C94.1022 89.1626 94.2915 88.9382 94.3772 88.6687C94.4629 88.3992 94.4381 88.1067 94.3082 87.8555C94.1782 87.6043 93.9538 87.4151 93.6843 87.3293L91.7328 86.7084C91.5994 86.6659 91.4589 86.6502 91.3194 86.662C91.1798 86.6739 91.044 86.7131 90.9196 86.7774C90.7953 86.8418 90.6848 86.93 90.5945 87.037C90.5042 87.144 90.4359 87.2678 90.3934 87.4012C90.351 87.5347 90.3352 87.6752 90.3471 87.8147C90.3589 87.9542 90.3981 88.09 90.4625 88.2144C90.5268 88.3388 90.615 88.4493 90.7221 88.5396C90.8291 88.6298 90.9529 88.6982 91.0863 88.7406Z" fill="#00E9B1"/>
<path d="M53.3148 19.0894C53.5976 19.0894 53.8688 18.977 54.0688 18.7771C54.2688 18.5771 54.3811 18.3059 54.3811 18.0231V15.8905C54.3811 15.6077 54.2688 15.3365 54.0688 15.1365C53.8688 14.9366 53.5976 14.8242 53.3148 14.8242C53.032 14.8242 52.7608 14.9366 52.5608 15.1365C52.3609 15.3365 52.2485 15.6077 52.2485 15.8905V18.0231C52.2485 18.3059 52.3609 18.5771 52.5608 18.7771C52.7608 18.977 53.032 19.0894 53.3148 19.0894Z" fill="#00E9B1"/>
<path d="M53.3148 27.6206C53.5976 27.6206 53.8688 27.5083 54.0688 27.3083C54.2688 27.1084 54.3811 26.8371 54.3811 26.5543V24.4218C54.3811 24.139 54.2688 23.8677 54.0688 23.6678C53.8688 23.4678 53.5976 23.3555 53.3148 23.3555C53.032 23.3555 52.7608 23.4678 52.5608 23.6678C52.3609 23.8677 52.2485 24.139 52.2485 24.4218V26.5543C52.2485 26.8371 52.3609 27.1084 52.5608 27.3083C52.7608 27.5083 53.032 27.6206 53.3148 27.6206Z" fill="#00E9B1"/>
<path d="M53.3148 40.416C53.1748 40.416 53.0361 40.4436 52.9068 40.4972C52.7774 40.5507 52.6598 40.6293 52.5608 40.7283C52.4618 40.8273 52.3833 40.9449 52.3297 41.0742C52.2761 41.2036 52.2485 41.3423 52.2485 41.4823V43.6149C52.2485 43.8977 52.3609 44.1689 52.5608 44.3689C52.7608 44.5688 53.032 44.6812 53.3148 44.6812C53.5976 44.6812 53.8688 44.5688 54.0688 44.3689C54.2688 44.1689 54.3811 43.8977 54.3811 43.6149V41.4823C54.3811 41.1995 54.2688 40.9283 54.0688 40.7283C53.8688 40.5284 53.5976 40.416 53.3148 40.416Z" fill="#00E9B1"/>
<path d="M53.3148 48.9453C53.1748 48.9453 53.0361 48.9729 52.9068 49.0265C52.7774 49.08 52.6598 49.1586 52.5608 49.2576C52.4618 49.3566 52.3833 49.4742 52.3297 49.6035C52.2761 49.7329 52.2485 49.8716 52.2485 50.0116V52.1442C52.2485 52.427 52.3609 52.6982 52.5608 52.8982C52.7608 53.0981 53.032 53.2105 53.3148 53.2105C53.5976 53.2105 53.8688 53.0981 54.0688 52.8982C54.2688 52.6982 54.3811 52.427 54.3811 52.1442V50.0116C54.3811 49.7288 54.2688 49.4576 54.0688 49.2576C53.8688 49.0577 53.5976 48.9453 53.3148 48.9453Z" fill="#00E9B1"/>
<path d="M53.3148 66.0059C53.1748 66.0058 53.0361 66.0334 52.9068 66.087C52.7774 66.1406 52.6598 66.2191 52.5608 66.3181C52.4618 66.4172 52.3833 66.5347 52.3297 66.6641C52.2761 66.7935 52.2485 66.9321 52.2485 67.0722V69.2047C52.2485 69.4875 52.3609 69.7587 52.5608 69.9587C52.7608 70.1587 53.032 70.271 53.3148 70.271C53.5976 70.271 53.8688 70.1587 54.0688 69.9587C54.2688 69.7587 54.3811 69.4875 54.3811 69.2047V67.0722C54.3811 66.7894 54.2688 66.5181 54.0688 66.3182C53.8688 66.1182 53.5976 66.0059 53.3148 66.0059Z" fill="#00E9B1"/>
<path d="M53.3148 57.4766C53.1748 57.4766 53.0361 57.5041 52.9068 57.5577C52.7774 57.6113 52.6598 57.6898 52.5608 57.7889C52.4618 57.8879 52.3833 58.0054 52.3297 58.1348C52.2761 58.2642 52.2485 58.4028 52.2485 58.5429V60.6754C52.2485 60.9582 52.3609 61.2295 52.5608 61.4294C52.7608 61.6294 53.032 61.7417 53.3148 61.7417C53.5976 61.7417 53.8688 61.6294 54.0688 61.4294C54.2688 61.2295 54.3811 60.9582 54.3811 60.6754V58.5429C54.3811 58.2601 54.2688 57.9888 54.0688 57.7889C53.8688 57.5889 53.5976 57.4766 53.3148 57.4766Z" fill="#00E9B1"/>
<path d="M53.3148 76.6697C53.9037 76.6697 54.3811 76.1923 54.3811 75.6034C54.3811 75.0145 53.9037 74.5371 53.3148 74.5371C52.7259 74.5371 52.2485 75.0145 52.2485 75.6034C52.2485 76.1923 52.7259 76.6697 53.3148 76.6697Z" fill="#00E9B1"/>
</svg>
