<svg width="107" height="108" viewBox="0 0 107 108" fill="none" xmlns="http://www.w3.org/2000/svg">
<path d="M5.41289 101.423C5.49361 101.618 5.63021 101.785 5.80547 101.902C5.98074 102.02 6.18684 102.083 6.39783 102.083H74.6405C74.9232 102.083 75.1941 101.97 75.3946 101.771L100.986 76.1801C101.185 75.9794 101.297 75.7085 101.298 75.4258V7.18348C101.298 6.90068 101.185 6.62947 100.986 6.4295C100.786 6.22953 100.514 6.11719 100.232 6.11719H31.9888L31.9776 6.11947C31.699 6.12138 31.4322 6.23273 31.2349 6.42952L5.64387 32.0205C5.44529 32.2214 5.33319 32.492 5.33154 32.7745V101.017C5.33187 101.157 5.35951 101.295 5.41289 101.423ZM75.6326 98.5171C75.5473 98.2822 75.3817 98.0849 75.1652 97.96C74.9486 97.8352 74.6949 97.7908 74.4488 97.8348C74.2027 97.8787 73.9801 98.0081 73.82 98.2002C73.66 98.3922 73.573 98.6346 73.5742 98.8846V99.9509H8.97213L32.4306 76.4925H97.6573L75.6326 98.5171ZM97.779 8.24977C97.701 8.44357 97.6817 8.65602 97.7235 8.8607C97.7653 9.06538 97.8663 9.25327 98.014 9.40099C98.1617 9.54872 98.3496 9.64976 98.5543 9.69156C98.759 9.73335 98.9714 9.71406 99.1652 9.63607V74.3599H75.7068V73.2936C75.7068 73.0108 75.5945 72.7396 75.3945 72.5396C75.1945 72.3396 74.9233 72.2273 74.6405 72.2273C74.3577 72.2273 74.0865 72.3396 73.8865 72.5396C73.6866 72.7396 73.5742 73.0108 73.5742 73.2936V74.3599H33.0551V33.8408H34.1214C34.4042 33.8408 34.6754 33.7284 34.8754 33.5285C35.0754 33.3285 35.1877 33.0573 35.1877 32.7745C35.1877 32.4917 35.0754 32.2205 34.8754 32.0205C34.6754 31.8205 34.4042 31.7082 34.1214 31.7082H33.0551V8.24977H97.779ZM30.9225 74.9845L7.46419 98.4429L7.46413 33.8408H8.53042C8.78038 33.842 9.02275 33.7549 9.21481 33.5949C9.40686 33.4349 9.53626 33.2123 9.58019 32.9662C9.62413 32.7201 9.57978 32.4664 9.45497 32.2499C9.33015 32.0333 9.13288 31.8677 8.89794 31.7824L30.9225 9.75778V74.9845Z" fill="#00E9B1"/>
<path d="M74.6405 42.3706C74.9233 42.3706 75.1945 42.2583 75.3945 42.0583C75.5945 41.8584 75.7068 41.5871 75.7068 41.3043V39.1718C75.7068 38.889 75.5945 38.6177 75.3945 38.4178C75.1945 38.2178 74.9233 38.1055 74.6405 38.1055C74.3577 38.1055 74.0865 38.2178 73.8865 38.4178C73.6866 38.6177 73.5742 38.889 73.5742 39.1718V41.3043C73.5742 41.5871 73.6866 41.8584 73.8865 42.0583C74.0865 42.2583 74.3577 42.3706 74.6405 42.3706Z" fill="#00E9B1"/>
<path d="M74.6405 50.8999C74.9233 50.8999 75.1945 50.7876 75.3945 50.5876C75.5945 50.3877 75.7068 50.1164 75.7068 49.8336V47.7011C75.7068 47.4183 75.5945 47.147 75.3945 46.9471C75.1945 46.7471 74.9233 46.6348 74.6405 46.6348C74.3577 46.6348 74.0865 46.7471 73.8865 46.9471C73.6866 47.147 73.5742 47.4183 73.5742 47.7011V49.8336C73.5742 50.1164 73.6866 50.3877 73.8865 50.5876C74.0865 50.7876 74.3577 50.8999 74.6405 50.8999Z" fill="#00E9B1"/>
<path d="M74.6405 89.2871C74.3577 89.2871 74.0865 89.3994 73.8865 89.5994C73.6866 89.7994 73.5742 90.0706 73.5742 90.3534V92.486C73.5742 92.7688 73.6866 93.04 73.8865 93.24C74.0865 93.4399 74.3577 93.5523 74.6405 93.5523C74.9233 93.5523 75.1945 93.4399 75.3945 93.24C75.5945 93.04 75.7068 92.7688 75.7068 92.486V90.3534C75.7068 90.0706 75.5945 89.7994 75.3945 89.5994C75.1945 89.3994 74.9233 89.2871 74.6405 89.2871Z" fill="#00E9B1"/>
<path d="M74.6405 59.4312C74.9233 59.4312 75.1945 59.3188 75.3945 59.1189C75.5945 58.9189 75.7068 58.6477 75.7068 58.3649V56.2323C75.7068 55.9495 75.5945 55.6783 75.3945 55.4783C75.1945 55.2784 74.9233 55.166 74.6405 55.166C74.3577 55.166 74.0865 55.2784 73.8865 55.4783C73.6866 55.6783 73.5742 55.9495 73.5742 56.2323V58.3649C73.5742 58.6477 73.6866 58.9189 73.8865 59.1189C74.0865 59.3188 74.3577 59.4312 74.6405 59.4312Z" fill="#00E9B1"/>
<path d="M73.5742 81.8222V83.9547C73.5742 84.2375 73.6866 84.5087 73.8865 84.7087C74.0865 84.9087 74.3577 85.021 74.6405 85.021C74.9233 85.021 75.1945 84.9087 75.3945 84.7087C75.5945 84.5087 75.7068 84.2375 75.7068 83.9547V81.8222C75.7068 81.5394 75.5945 81.2681 75.3945 81.0682C75.1945 80.8682 74.9233 80.7559 74.6405 80.7559C74.3577 80.7559 74.0865 80.8682 73.8865 81.0682C73.6866 81.2681 73.5742 81.5394 73.5742 81.8222Z" fill="#00E9B1"/>
<path d="M74.6405 67.9605C74.9233 67.9605 75.1945 67.8481 75.3945 67.6482C75.5945 67.4482 75.7068 67.177 75.7068 66.8942V64.7616C75.7068 64.4788 75.5945 64.2076 75.3945 64.0076C75.1945 63.8077 74.9233 63.6953 74.6405 63.6953C74.3577 63.6953 74.0865 63.8077 73.8865 64.0076C73.6866 64.2076 73.5742 64.4788 73.5742 64.7616V66.8942C73.5742 67.177 73.6866 67.4482 73.8865 67.6482C74.0865 67.8481 74.3577 67.9605 74.6405 67.9605Z" fill="#00E9B1"/>
<path d="M49.0492 33.8396H51.1818C51.4646 33.8396 51.7358 33.7273 51.9358 33.5273C52.1357 33.3273 52.2481 33.0561 52.2481 32.7733C52.2481 32.4905 52.1357 32.2193 51.9358 32.0193C51.7358 31.8194 51.4646 31.707 51.1818 31.707H49.0492C48.7664 31.707 48.4952 31.8194 48.2952 32.0193C48.0953 32.2193 47.9829 32.4905 47.9829 32.7733C47.9829 33.0561 48.0953 33.3273 48.2952 33.5273C48.4952 33.7273 48.7664 33.8396 49.0492 33.8396Z" fill="#00E9B1"/>
<path d="M40.5189 33.8396H42.6515C42.9343 33.8396 43.2055 33.7273 43.4055 33.5273C43.6055 33.3273 43.7178 33.0561 43.7178 32.7733C43.7178 32.4905 43.6055 32.2193 43.4055 32.0193C43.2055 31.8194 42.9343 31.707 42.6515 31.707H40.5189C40.2361 31.707 39.9649 31.8194 39.7649 32.0193C39.565 32.2193 39.4526 32.4905 39.4526 32.7733C39.4526 33.0561 39.565 33.3273 39.7649 33.5273C39.9649 33.7273 40.2361 33.8396 40.5189 33.8396Z" fill="#00E9B1"/>
<path d="M23.4584 33.8396H25.591C25.8738 33.8396 26.145 33.7273 26.3449 33.5273C26.5449 33.3273 26.6573 33.0561 26.6573 32.7733C26.6573 32.4905 26.5449 32.2193 26.3449 32.0193C26.145 31.8194 25.8738 31.707 25.591 31.707H23.4584C23.1756 31.707 22.9044 31.8194 22.7044 32.0193C22.5044 32.2193 22.3921 32.4905 22.3921 32.7733C22.3921 33.0561 22.5044 33.3273 22.7044 33.5273C22.9044 33.7273 23.1756 33.8396 23.4584 33.8396Z" fill="#00E9B1"/>
<path d="M14.9281 33.8396H17.0607C17.3435 33.8396 17.6147 33.7273 17.8147 33.5273C18.0146 33.3273 18.127 33.0561 18.127 32.7733C18.127 32.4905 18.0146 32.2193 17.8147 32.0193C17.6147 31.8194 17.3435 31.707 17.0607 31.707H14.9281C14.6453 31.707 14.3741 31.8194 14.1741 32.0193C13.9742 32.2193 13.8618 32.4905 13.8618 32.7733C13.8618 33.0561 13.9742 33.3273 14.1741 33.5273C14.3741 33.7273 14.6453 33.8396 14.9281 33.8396Z" fill="#00E9B1"/>
<path d="M57.58 33.8396H59.7125C59.9953 33.8396 60.2666 33.7273 60.4665 33.5273C60.6665 33.3273 60.7788 33.0561 60.7788 32.7733C60.7788 32.4905 60.6665 32.2193 60.4665 32.0193C60.2666 31.8194 59.9953 31.707 59.7125 31.707H57.58C57.2972 31.707 57.0259 31.8194 56.826 32.0193C56.626 32.2193 56.5137 32.4905 56.5137 32.7733C56.5137 33.0561 56.626 33.3273 56.826 33.5273C57.0259 33.7273 57.2972 33.8396 57.58 33.8396Z" fill="#00E9B1"/>
<path d="M66.1102 33.8396H68.2428C68.5256 33.8396 68.7968 33.7273 68.9968 33.5273C69.1968 33.3273 69.3091 33.0561 69.3091 32.7733C69.3091 32.4905 69.1968 32.2193 68.9968 32.0193C68.7968 31.8194 68.5256 31.707 68.2428 31.707H66.1102C65.8274 31.707 65.5562 31.8194 65.3563 32.0193C65.1563 32.2193 65.0439 32.4905 65.0439 32.7733C65.0439 33.0561 65.1563 33.3273 65.3563 33.5273C65.5562 33.7273 65.8274 33.8396 66.1102 33.8396Z" fill="#00E9B1"/>
<path d="M73.6563 33.181C73.7232 33.3424 73.8288 33.4848 73.9637 33.5958C74.0987 33.7068 74.2589 33.7829 74.4301 33.8174C74.6014 33.8519 74.7786 33.8438 74.946 33.7937C75.1134 33.7436 75.2659 33.6531 75.3901 33.5302L75.3943 33.5274L76.9023 32.0195C77.0013 31.9205 77.0799 31.8029 77.1335 31.6736C77.187 31.5442 77.2146 31.4055 77.2146 31.2655C77.2146 31.1255 77.187 30.9868 77.1334 30.8574C77.0799 30.7281 77.0013 30.6105 76.9023 30.5115C76.8033 30.4125 76.6857 30.334 76.5564 30.2804C76.427 30.2268 76.2883 30.1992 76.1483 30.1992C76.0083 30.1992 75.8696 30.2268 75.7403 30.2804C75.6109 30.334 75.4933 30.4125 75.3943 30.5115L73.8863 32.0195C73.738 32.169 73.637 32.3589 73.5961 32.5655C73.5552 32.7721 73.5761 32.9862 73.6563 33.181Z" fill="#00E9B1"/>
<path d="M81.4263 27.4962L82.9343 25.9882C83.1342 25.7883 83.2466 25.517 83.2466 25.2342C83.2466 24.9514 83.1342 24.6802 82.9342 24.4803C82.7343 24.2803 82.463 24.168 82.1802 24.168C81.8974 24.168 81.6262 24.2803 81.4263 24.4803L79.9183 25.9882C79.7183 26.1882 79.606 26.4594 79.606 26.7422C79.606 27.025 79.7183 27.2963 79.9183 27.4962C80.1182 27.6962 80.3895 27.8085 80.6723 27.8085C80.9551 27.8085 81.2263 27.6962 81.4263 27.4962Z" fill="#00E9B1"/>
<path d="M87.458 21.463L88.966 19.955C89.166 19.7551 89.2783 19.4838 89.2783 19.201C89.2783 18.9182 89.166 18.647 88.966 18.4471C88.766 18.2471 88.4948 18.1348 88.212 18.1348C87.9292 18.1348 87.658 18.2471 87.458 18.4471L85.95 19.955C85.75 20.155 85.6377 20.4262 85.6377 20.709C85.6377 20.9918 85.75 21.2631 85.95 21.463C86.15 21.663 86.4212 21.7753 86.704 21.7753C86.9868 21.7753 87.258 21.663 87.458 21.463Z" fill="#00E9B1"/>
<path d="M93.4899 15.4318L94.998 13.9238C95.097 13.8248 95.1755 13.7072 95.2291 13.5778C95.2827 13.4485 95.3103 13.3098 95.3103 13.1698C95.3102 13.0298 95.2827 12.8911 95.2291 12.7617C95.1755 12.6324 95.0969 12.5148 94.9979 12.4158C94.8989 12.3168 94.7814 12.2383 94.652 12.1847C94.5226 12.1311 94.384 12.1035 94.2439 12.1035C94.1039 12.1035 93.9652 12.1311 93.8359 12.1847C93.7065 12.2383 93.589 12.3168 93.49 12.4158L91.982 13.9238C91.8826 14.0228 91.8037 14.1403 91.7498 14.2698C91.6959 14.3993 91.6681 14.5381 91.668 14.6783C91.6678 14.8186 91.6953 14.9574 91.7489 15.087C91.8025 15.2166 91.8811 15.3343 91.9803 15.4335C92.0795 15.5327 92.1972 15.6113 92.3268 15.6649C92.4564 15.7185 92.5953 15.746 92.7355 15.7458C92.8757 15.7456 93.0145 15.7178 93.144 15.6639C93.2735 15.61 93.391 15.5312 93.4899 15.4318Z" fill="#00E9B1"/>
</svg>
