<svg width="427" height="120" viewBox="0 0 427 120" fill="none" xmlns="http://www.w3.org/2000/svg">
<g clip-path="url(#clip0_2613_6647)">
<mask id="mask0_2613_6647" style="mask-type:luminance" maskUnits="userSpaceOnUse" x="0" y="0" width="427" height="120">
<path d="M426.504 0H0V119.72H426.504V0Z" fill="white"/>
</mask>
<g mask="url(#mask0_2613_6647)">
<path d="M90.0694 26.9949C83.1867 23.7746 75.8273 21.4342 68.1333 20.1016C67.1883 21.81 66.0844 24.1078 65.3233 25.9357C57.1443 24.7057 49.0406 24.7057 41.0121 25.9357C40.2511 24.1078 39.1221 21.81 38.1687 20.1016C30.4664 21.4342 23.0985 23.7832 16.2158 27.0119C2.33319 47.9903 -1.43015 68.4477 0.451521 88.6146C9.65919 95.4906 18.5825 99.6676 27.3553 102.401C29.5213 99.4198 31.4531 96.2509 33.1173 92.9111C29.9478 91.7067 26.912 90.2205 24.0436 88.4951C24.8046 87.9313 25.549 87.3418 26.2681 86.7354C43.7635 94.9184 62.7726 94.9184 80.0589 86.7354C80.7865 87.3418 81.5308 87.9313 82.2834 88.4951C79.4065 90.2289 76.3625 91.7152 73.1929 92.9197C74.8571 96.2509 76.7807 99.4284 78.955 102.409C87.7362 99.6761 96.6678 95.4992 105.875 88.6146C108.083 65.236 102.104 44.9665 90.0694 26.9949ZM35.5008 76.2121C30.2489 76.2121 25.9419 71.3091 25.9419 65.3385C25.9419 59.3678 30.1569 54.4564 35.5008 54.4564C40.8449 54.4564 45.1518 59.3592 45.0598 65.3385C45.0681 71.3091 40.8449 76.2121 35.5008 76.2121ZM70.8262 76.2121C65.5743 76.2121 61.2673 71.3091 61.2673 65.3385C61.2673 59.3678 65.4822 54.4564 70.8262 54.4564C76.1701 54.4564 80.4771 59.3592 80.3851 65.3385C80.3851 71.3091 76.1701 76.2121 70.8262 76.2121Z" fill="white"/>
<path d="M142.883 41.1016H165.713C171.217 41.1016 175.866 41.9813 179.681 43.7324C183.485 45.4834 186.337 47.9263 188.228 51.0526C190.116 54.1789 191.07 57.7578 191.07 61.7895C191.07 65.7358 190.083 69.3147 188.109 72.5178C186.136 75.7295 183.133 78.2665 179.095 80.1371C175.056 82.0077 170.054 82.9472 164.075 82.9472H142.883V41.1016ZM163.84 72.3129C167.545 72.3129 170.398 71.3648 172.387 69.477C174.378 67.5807 175.374 65.0012 175.374 61.7298C175.374 58.6974 174.486 56.28 172.714 54.4692C170.941 52.6583 168.256 51.7445 164.668 51.7445H157.526V72.3129H163.84Z" fill="white"/>
<path d="M225.25 82.8949C222.089 82.0579 219.236 80.8449 216.703 79.2476V69.3222C218.618 70.834 221.185 72.0812 224.405 73.0634C227.624 74.0372 230.736 74.524 233.746 74.524C235.151 74.524 236.213 74.3361 236.932 73.9602C237.652 73.5845 238.012 73.1318 238.012 72.6107C238.012 72.0128 237.82 71.5174 237.426 71.1159C237.033 70.7145 236.272 70.3813 235.144 70.0994L228.118 68.485C224.096 67.5284 221.243 66.2044 219.547 64.5046C217.849 62.8133 217.003 60.5925 217.003 57.8421C217.003 55.5273 217.739 53.5201 219.229 51.8031C220.708 50.0863 222.816 48.7623 225.55 47.8312C228.286 46.8917 231.479 46.4219 235.151 46.4219C238.429 46.4219 241.431 46.7806 244.167 47.4981C246.902 48.2157 249.159 49.1296 250.958 50.2485V59.6359C249.117 58.517 247.009 57.6372 244.602 56.9708C242.201 56.3132 239.735 55.9886 237.191 55.9886C233.52 55.9886 231.689 56.6292 231.689 57.9019C231.689 58.4999 231.974 58.944 232.542 59.2429C233.11 59.5419 234.155 59.8494 235.67 60.174L241.523 61.2503C245.346 61.9251 248.197 63.1124 250.07 64.8036C251.945 66.4949 252.88 68.9976 252.88 72.3118C252.88 75.9419 251.334 78.8205 248.231 80.956C245.128 83.0914 240.729 84.159 235.026 84.159C231.672 84.1506 228.411 83.732 225.25 82.8949Z" fill="white"/>
<path d="M266.696 81.6386C263.343 79.9643 260.809 77.6923 259.119 74.8223C257.43 71.9522 256.578 68.7235 256.578 65.1359C256.578 61.5485 257.455 58.3368 259.211 55.5095C260.968 52.6822 263.543 50.4614 266.939 48.847C270.334 47.2326 274.39 46.4297 279.115 46.4297C284.969 46.4297 289.828 47.6853 293.692 50.1965V61.1385C292.329 60.1818 290.739 59.4045 288.925 58.8066C287.11 58.2087 285.17 57.9096 283.096 57.9096C279.467 57.9096 276.632 58.5845 274.582 59.9426C272.533 61.3007 271.506 63.0689 271.506 65.2641C271.506 67.4166 272.5 69.1762 274.491 70.56C276.482 71.9352 279.366 72.6271 283.154 72.6271C285.103 72.6271 287.027 72.3366 288.925 71.7644C290.815 71.1835 292.446 70.4746 293.809 69.6374V80.2205C289.519 82.8514 284.543 84.1668 278.881 84.1668C274.115 84.1498 270.049 83.3127 266.696 81.6386Z" fill="white"/>
<path d="M308.293 81.6401C304.915 79.966 302.339 77.6768 300.566 74.764C298.793 71.8513 297.898 68.6055 297.898 65.0179C297.898 61.4305 298.784 58.2273 300.566 55.4172C302.347 52.6069 304.906 50.4031 308.269 48.8058C311.621 47.2085 315.628 46.4141 320.268 46.4141C324.911 46.4141 328.916 47.2085 332.27 48.8058C335.624 50.4031 338.183 52.5898 339.939 55.3829C341.696 58.1761 342.573 61.3792 342.573 65.0095C342.573 68.5969 341.696 71.8428 339.939 74.7554C338.183 77.6682 335.615 79.9574 332.236 81.6316C328.858 83.3058 324.868 84.1428 320.261 84.1428C315.652 84.1428 311.663 83.3142 308.293 81.6401ZM326.081 71.0313C327.504 69.5793 328.222 67.6574 328.222 65.2657C328.222 62.8741 327.511 60.9692 326.081 59.5598C324.66 58.1419 322.719 57.4329 320.261 57.4329C317.76 57.4329 315.803 58.1419 314.373 59.5598C312.952 60.9778 312.24 62.8741 312.24 65.2657C312.24 67.6574 312.952 69.5793 314.373 71.0313C315.795 72.4834 317.76 73.218 320.261 73.218C322.719 73.2094 324.66 72.4834 326.081 71.0313Z" fill="white"/>
<path d="M377.747 48.6302V61.5452C376.259 60.5458 374.335 60.0504 371.952 60.0504C368.832 60.0504 366.424 61.0157 364.751 62.9461C363.07 64.8766 362.233 67.8832 362.233 71.949V82.9507H347.891V47.9726H361.942V59.0938C362.719 55.0279 363.982 52.0299 365.721 50.0908C367.453 48.1604 369.693 47.1953 372.42 47.1953C374.485 47.1953 376.259 47.6736 377.747 48.6302Z" fill="white"/>
<path d="M425.4 39.9062V82.9565H411.056V75.1237C409.844 78.0706 408.004 80.3171 405.529 81.8545C403.053 83.3836 399.992 84.1524 396.363 84.1524C393.118 84.1524 390.292 83.3493 387.874 81.735C385.458 80.1206 383.593 77.9084 382.28 75.0982C380.976 72.2879 380.314 69.1105 380.314 65.5572C380.273 61.8928 380.967 58.6041 382.397 55.6913C383.819 52.7786 385.834 50.5066 388.427 48.875C391.02 47.2436 393.98 46.4236 397.3 46.4236C404.133 46.4236 408.715 49.4558 411.056 55.5119V39.9062H425.4ZM408.917 70.7932C410.38 69.3411 411.107 67.4533 411.107 65.1471C411.107 62.9176 410.396 61.0982 408.975 59.7059C407.552 58.3137 405.604 57.6133 403.154 57.6133C400.737 57.6133 398.806 58.3222 397.358 59.74C395.911 61.1581 395.192 62.9944 395.192 65.2666C395.192 67.5387 395.911 69.3923 397.358 70.8272C398.806 72.2622 400.712 72.9798 403.095 72.9798C405.512 72.9713 407.452 72.2452 408.917 70.7932Z" fill="white"/>
<path d="M203.151 51.698C207.1 51.698 210.302 48.761 210.302 45.138C210.302 41.515 207.1 38.5781 203.151 38.5781C199.201 38.5781 196 41.515 196 45.138C196 48.761 199.201 51.698 203.151 51.698Z" fill="white"/>
<path d="M196 56.2188C200.381 58.1492 205.818 58.2345 210.3 56.2188V83.1422H196V56.2188Z" fill="white"/>
</g>
</g>
<defs>
<clipPath id="clip0_2613_6647">
<rect width="427" height="120" fill="white"/>
</clipPath>
</defs>
</svg>
