<svg width="166" height="66" viewBox="0 0 166 66" fill="none" xmlns="http://www.w3.org/2000/svg">
<rect x="0.5" y="0.5" width="165" height="65" rx="14.5" fill="white"/>
<rect x="0.5" y="0.5" width="165" height="65" rx="14.5" stroke="#F5F5F5"/>
<path opacity="0.7" d="M81.12 25V24.184H77.124V21.064H81.12V20.248H77.124V17.416H81.12V16.6H76.236V25H81.12ZM86.2929 25H87.3129L85.2369 22.024L87.2409 19.144H86.2329L84.7329 21.388L83.1969 19.144H82.1769L84.1449 22L82.1049 25H83.1129L84.6729 22.648L86.2929 25ZM88.549 19.144V28H89.365V24.424C89.869 24.892 90.577 25.144 91.237 25.144C92.953 25.144 94.249 23.716 94.249 22.048C94.249 20.38 92.965 19 91.249 19C90.529 19 89.809 19.312 89.365 19.9V19.144H88.549ZM89.365 20.848C89.701 20.164 90.505 19.744 91.225 19.744C92.509 19.744 93.409 20.836 93.409 22.096C93.409 23.344 92.497 24.4 91.225 24.4C90.553 24.4 89.797 24.04 89.365 23.476V20.848ZM100.793 22.276C100.805 22.168 100.829 21.928 100.829 21.736C100.829 20.284 99.7367 19 98.2247 19C96.6287 19 95.3567 20.308 95.3567 22.036C95.3567 23.752 96.4007 25.144 98.3207 25.144C99.2087 25.144 100.229 24.688 100.697 23.812L100.121 23.44C99.7007 24.232 99.0407 24.448 98.2607 24.448C96.9887 24.448 96.2447 23.404 96.1727 22.276H100.793ZM100.025 21.58H96.1967C96.3647 20.488 97.0967 19.696 98.2247 19.696C99.2207 19.696 99.9767 20.596 100.025 21.58ZM102.471 19.144V25H103.287V21.112C103.671 20.368 104.379 19.744 105.255 19.744C106.563 19.744 106.767 20.86 106.767 21.964V25H107.583V21.832C107.583 20.068 107.043 19 105.375 19C104.475 19 103.755 19.396 103.287 20.176V19.144H102.471ZM112.858 19.564C112.402 19.192 111.862 19 111.25 19C110.266 19 109.426 19.564 109.426 20.572C109.426 21.64 110.254 21.988 111.022 22.3C111.682 22.564 112.306 22.804 112.306 23.476C112.306 24.148 111.646 24.448 111.082 24.448C110.53 24.448 110.086 24.208 109.738 23.836L109.246 24.352C109.726 24.88 110.398 25.144 111.058 25.144C112.042 25.144 113.122 24.52 113.122 23.488C113.122 22.444 112.414 22.036 111.694 21.736C110.95 21.424 110.194 21.196 110.194 20.5C110.194 19.948 110.77 19.696 111.226 19.696C111.658 19.696 112.09 19.864 112.414 20.116L112.858 19.564ZM119.836 22.276C119.848 22.168 119.872 21.928 119.872 21.736C119.872 20.284 118.78 19 117.268 19C115.672 19 114.4 20.308 114.4 22.036C114.4 23.752 115.444 25.144 117.364 25.144C118.252 25.144 119.272 24.688 119.74 23.812L119.164 23.44C118.744 24.232 118.084 24.448 117.304 24.448C116.032 24.448 115.288 23.404 115.216 22.276H119.836ZM119.068 21.58H115.24C115.408 20.488 116.14 19.696 117.268 19.696C118.264 19.696 119.02 20.596 119.068 21.58ZM124.694 19.564C124.238 19.192 123.698 19 123.086 19C122.102 19 121.262 19.564 121.262 20.572C121.262 21.64 122.09 21.988 122.858 22.3C123.518 22.564 124.142 22.804 124.142 23.476C124.142 24.148 123.482 24.448 122.918 24.448C122.366 24.448 121.922 24.208 121.574 23.836L121.082 24.352C121.562 24.88 122.234 25.144 122.894 25.144C123.878 25.144 124.958 24.52 124.958 23.488C124.958 22.444 124.25 22.036 123.53 21.736C122.786 21.424 122.03 21.196 122.03 20.5C122.03 19.948 122.606 19.696 123.062 19.696C123.494 19.696 123.926 19.864 124.25 20.116L124.694 19.564Z" fill="#304761"/>
<path d="M75.144 43.384C76.232 44.44 77.352 45.064 78.792 45.16V46.696H80.104V45.096C81.816 44.824 83.304 43.752 83.304 41.784C83.304 39.896 81.864 39.16 80.52 38.648C79.272 38.184 78.072 37.912 78.072 37.16C78.072 36.408 78.776 36.04 79.416 36.04C80.328 36.04 81.064 36.456 81.72 36.984L82.984 35.432C82.088 34.792 81.208 34.392 80.216 34.248V32.68H78.888V34.216C77.176 34.36 75.88 35.4 75.88 37.256C75.88 39.032 77.208 39.704 78.504 40.168C79.752 40.632 80.984 40.936 80.984 41.928C80.984 42.824 80.312 43.304 79.112 43.304C78.056 43.304 77.24 42.616 76.584 41.992L75.144 43.384ZM91.7969 43.096H87.7009C88.5649 42.168 89.4929 41.16 90.2609 40.088C90.8849 39.208 91.3489 38.184 91.3489 37.128C91.3489 35.24 89.6689 34.184 87.9089 34.184C86.1329 34.184 84.5489 35.368 84.4049 37.208L86.6609 37.576C86.6609 36.664 87.1249 36.072 87.8769 36.072C88.5489 36.072 89.0449 36.504 89.0449 37.16C89.0449 37.784 88.6609 38.472 88.2769 39.032C87.3329 40.392 85.8929 42.04 84.6609 43.32V45H91.7969V43.096ZM99.2755 45V42.392H100.764V40.52H99.2755V34.376H97.0035C95.6115 36.344 93.8835 38.744 92.5395 40.488V42.392H97.0355V45H99.2755ZM94.9395 40.52C95.4355 39.864 96.4115 38.248 97.0355 37.304V40.52H94.9395ZM105.684 34.184C103.14 34.184 101.715 36.264 101.715 39.688C101.715 43.112 103.14 45.192 105.684 45.192C108.228 45.192 109.652 43.112 109.652 39.688C109.652 36.264 108.228 34.184 105.684 34.184ZM105.684 36.12C106.74 36.12 107.348 37.288 107.348 39.688C107.348 42.088 106.74 43.256 105.684 43.256C104.628 43.256 104.02 42.088 104.02 39.688C104.02 37.288 104.628 36.12 105.684 36.12ZM113.388 45V42.616H110.94V45H113.388ZM118.668 34.184C116.124 34.184 114.7 36.264 114.7 39.688C114.7 43.112 116.124 45.192 118.668 45.192C121.212 45.192 122.636 43.112 122.636 39.688C122.636 36.264 121.212 34.184 118.668 34.184ZM118.668 36.12C119.724 36.12 120.332 37.288 120.332 39.688C120.332 42.088 119.724 43.256 118.668 43.256C117.612 43.256 117.004 42.088 117.004 39.688C117.004 37.288 117.612 36.12 118.668 36.12ZM127.965 34.184C125.421 34.184 123.997 36.264 123.997 39.688C123.997 43.112 125.421 45.192 127.965 45.192C130.509 45.192 131.933 43.112 131.933 39.688C131.933 36.264 130.509 34.184 127.965 34.184ZM127.965 36.12C129.021 36.12 129.629 37.288 129.629 39.688C129.629 42.088 129.021 43.256 127.965 43.256C126.909 43.256 126.301 42.088 126.301 39.688C126.301 37.288 126.909 36.12 127.965 36.12Z" fill="#141731"/>
<rect x="17" y="13" width="40" height="40" rx="20" fill="#FF8049" fill-opacity="0.2"/>
<path d="M42.0781 33.5391L37.5089 37.9514C37.2285 38.2221 36.7739 38.2221 36.4935 37.9514L31.9243 33.5391" stroke="#FF8049" stroke-width="1.84615" stroke-linecap="round"/>
<path d="M37.0052 38.2995V29.1693" stroke="#FF8049" stroke-width="1.84615" stroke-linecap="round"/>
</svg>
