<svg width="288" height="250" viewBox="0 0 288 250" fill="none" xmlns="http://www.w3.org/2000/svg">
<path d="M27.0319 136.1C17.0744 136.1 12.0871 124.062 19.1273 117.02L116.67 19.4556C123.711 12.4129 135.752 17.3996 135.752 27.3584V124.923C135.752 131.096 130.748 136.1 124.574 136.1H27.0319Z" fill="#236CF6"/>
<path d="M235.47 163.617C264.482 163.617 288.001 140.098 288.001 111.086C288.001 82.0737 264.482 58.5547 235.47 58.5547C206.457 58.5547 182.938 82.0737 182.938 111.086C182.938 140.098 206.457 163.617 235.47 163.617Z" fill="#FFC107"/>
<path d="M235.47 132.331C247.204 132.331 256.715 122.819 256.715 111.085C256.715 99.3517 247.204 89.8398 235.47 89.8398C223.737 89.8398 214.225 99.3517 214.225 111.085C214.225 122.819 223.737 132.331 235.47 132.331Z" fill="#2058C2"/>
<rect x="2.27295" y="167.422" width="158.663" height="60.4197" rx="30.2099" fill="#236CF6"/>
<rect x="115.68" y="44.6816" width="53.2484" height="17.7495" rx="8.87473" fill="#F586DD"/>
<rect x="122.642" y="51.6406" width="9.04875" height="4.52437" rx="1.91416" fill="white"/>
<rect x="134.824" y="51.6406" width="27.4943" height="4.52437" rx="1.91416" fill="white"/>
<rect x="82.6245" y="87.3828" width="177.565" height="106.09" rx="6.72325" fill="#11182F"/>
<rect x="92.6006" y="96.6777" width="67.5708" height="4.98845" rx="1.84889" fill="#D9D9D9"/>
<rect x="107.111" y="114.361" width="20.8608" height="4.98845" rx="1.84889" fill="#4CC937"/>
<rect x="107.111" y="135.221" width="20.8608" height="4.98845" rx="1.84889" fill="#D146DD"/>
<rect x="107.111" y="145.197" width="40.3611" height="4.98845" rx="1.84889" fill="#4CC937"/>
<rect x="107.111" y="156.082" width="36.2796" height="4.98845" rx="1.84889" fill="#4CC937"/>
<rect x="107.111" y="167.422" width="11.7909" height="4.98845" rx="1.84889" fill="#D146DD"/>
<rect x="124.345" y="167.422" width="18.1398" height="4.98845" rx="1.84889" fill="#4CC937"/>
<rect x="107.111" y="178.307" width="18.1398" height="4.98845" rx="1.84889" fill="#D146DD"/>
<rect x="107.111" y="125.246" width="36.2796" height="4.98845" rx="1.84889" fill="#D9D9D9"/>
<rect x="132.962" y="114.361" width="8.61641" height="4.98845" rx="1.84889" fill="#D9D9D9"/>
<rect x="147.473" y="125.246" width="10.4304" height="4.98845" rx="1.84889" fill="#F72A4F"/>
<rect x="147.473" y="156.082" width="9.0699" height="4.98845" rx="1.84889" fill="#D9D9D9"/>
<rect x="92.6006" y="114.361" width="9.0699" height="4.98845" rx="1.84889" fill="#D9D9D9"/>
<rect x="92.6006" y="156.992" width="9.0699" height="4.98845" rx="1.84889" fill="#D9D9D9" fill-opacity="0.35"/>
<rect x="92.6006" y="125.246" width="9.0699" height="4.98845" rx="1.84889" fill="#D9D9D9" fill-opacity="0.35"/>
<rect x="92.6006" y="167.422" width="9.0699" height="4.98845" rx="1.84889" fill="#D9D9D9" fill-opacity="0.35"/>
<rect x="92.6006" y="135.221" width="9.0699" height="4.98845" rx="1.84889" fill="#D9D9D9" fill-opacity="0.35"/>
<rect x="92.6006" y="178.307" width="9.0699" height="4.98845" rx="1.84889" fill="#D9D9D9" fill-opacity="0.35"/>
<rect x="92.6006" y="145.197" width="9.0699" height="4.98845" rx="1.84889" fill="#D9D9D9" fill-opacity="0.35"/>
<path d="M204.441 249.925H131.483C127.557 249.925 124.345 246.713 124.345 242.787V212.34C124.345 208.413 127.557 205.201 131.483 205.201H204.477C208.403 205.201 211.616 208.413 211.616 212.34V242.787C211.58 246.713 208.403 249.925 204.441 249.925Z" fill="white"/>
<path d="M193.34 217.859H170.758C169.834 217.859 169.085 218.608 169.085 219.532C169.085 220.456 169.834 221.205 170.758 221.205H193.34C194.264 221.205 195.013 220.456 195.013 219.532C195.013 218.608 194.264 217.859 193.34 217.859Z" fill="#DFE2EE"/>
<path d="M186.345 225.9H170.854C169.948 225.9 169.213 226.635 169.213 227.542C169.213 228.449 169.948 229.184 170.854 229.184H186.345C187.252 229.184 187.987 228.449 187.987 227.542C187.987 226.635 187.252 225.9 186.345 225.9Z" fill="#DFE2EE"/>
<path d="M197.911 234.072H170.854C169.948 234.072 169.213 234.807 169.213 235.714C169.213 236.621 169.948 237.356 170.854 237.356H197.911C198.817 237.356 199.552 236.621 199.552 235.714C199.552 234.807 198.817 234.072 197.911 234.072Z" fill="#DFE2EE"/>
<rect x="133.578" y="214.432" width="28.069" height="27.3304" rx="3.6933" fill="#88AEF7" fill-opacity="0.69"/>
</svg>
