<svg width="5347" height="1336" viewBox="0 0 5347 1336" fill="none" xmlns="http://www.w3.org/2000/svg">
<rect width="5345" height="1333" transform="translate(1 2)" fill="#2058C2"/>
<path d="M3345.9 0.660156H1V1335H3345.9V0.660156Z" fill="#184CAE"/>
<path d="M0.730286 668.67L666.82 668.67L666.82 1.99994L0.730286 1.99994L0.730286 668.67Z" fill="#2058C2"/>
<path d="M2000.44 2H1334.35V668.66H2000.44V2Z" fill="#2058C2"/>
<path d="M1667.1 2H1334.06V668.66H1667.1V2Z" fill="#236CF6"/>
<path d="M2667.98 668.67L3345.9 668.67V1.99994L2667.98 1.99994V668.67Z" fill="#2058C2"/>
<path d="M1333.63 668.66H667.54V1335.33H1333.63V668.66Z" fill="#F62A4F"/>
<path d="M2667.97 1113.1H3346.22V890.87L2667.97 890.87V1113.1Z" fill="#2058C2"/>
<path d="M667.54 2L0.730469 668.67H667.54V2Z" fill="#236CF6"/>
<path d="M1334.28 2.07L667.54 2L1000.95 335.4L1334.28 2.07Z" fill="#F62A4F"/>
<path d="M2668.52 334.84L3001.04 2.25977V334.84H2668.52Z" fill="#F62A4F"/>
<path d="M667.54 668.67L1334.28 668.74L1000.87 335.33L667.54 668.67Z" fill="#2058C2"/>
<path d="M333.781 470.14C408.234 470.14 468.591 409.783 468.591 335.33C468.591 260.876 408.234 200.52 333.781 200.52C259.327 200.52 198.971 260.876 198.971 335.33C198.971 409.783 259.327 470.14 333.781 470.14Z" fill="#FFC107"/>
<path d="M1667.11 668.66V2.07031H1674.11C1854.97 5.78031 2000.45 153.57 2000.45 335.33C2000.44 519.42 1851.2 668.66 1667.11 668.66Z" fill="#F62A4F"/>
<path d="M2334.21 668.66C2518.3 668.66 2667.54 519.423 2667.54 335.33C2667.54 151.237 2518.3 2 2334.21 2C2150.12 2 2000.88 151.237 2000.88 335.33C2000.88 519.423 2150.12 668.66 2334.21 668.66Z" fill="#FFC107"/>
<path d="M2334.21 470.14C2408.66 470.14 2469.02 409.783 2469.02 335.33C2469.02 260.876 2408.66 200.52 2334.21 200.52C2259.76 200.52 2199.4 260.876 2199.4 335.33C2199.4 409.783 2259.76 470.14 2334.21 470.14Z" fill="#2058C2"/>
<path d="M333.901 668.67H0.800781V1335.34H333.901V668.67Z" fill="#F62A4F"/>
<path d="M667.541 668.67H333.721V1335.34H667.541V668.67Z" fill="#2058C2"/>
<path d="M2667.97 668.75L2000.91 1335.45V668.75H2667.97Z" fill="#F62A4F"/>
<path d="M2667.86 1335.3L2334.46 1002.08L2667.97 668.75L2667.86 1335.3Z" fill="#2058C2"/>
<path d="M2001.01 1335.11L2334.4 1001.89L2667.91 1335.23L2001.01 1335.11Z" fill="#FFC107"/>
<path d="M1333.63 668.66V1335.33H667.631V1334.49C667.631 981.82 941.141 693.03 1287.63 668.66H1333.63Z" fill="#184CAE"/>
<path d="M1333.63 1012.13V1335.33H1012.73C1012.73 1335.05 1012.73 1334.77 1012.73 1334.49C1012.73 1156.94 1156.27 1012.92 1333.63 1012.13Z" fill="#FFC107"/>
<path d="M1334.38 668.66V1335.33H2000.38V1334.49C2000.38 981.82 1726.87 693.03 1380.38 668.66H1334.38Z" fill="#2058C2"/>
<path d="M1334.38 1012.13V1335.33H1655.28C1655.28 1335.05 1655.28 1334.77 1655.28 1334.49C1655.29 1156.94 1511.73 1012.92 1334.38 1012.13Z" fill="#236CF6"/>
<path d="M4679.81 667.33L5345.9 667.33V0.660156L4679.81 0.660156V667.33Z" fill="#236CF6"/>
<path d="M4013.25 1334H4679.34V667.33L4013.25 667.33V1334Z" fill="#2058C2"/>
<path d="M4679.57 1335V668.42H4686.57C4867.43 672.13 5012.91 819.92 5012.91 1001.68C5012.89 1185.77 4863.65 1335 4679.57 1335Z" fill="#F62A4F"/>
<path d="M4679.34 1335V668.42H4672.34C4491.48 672.13 4346 819.92 4346 1001.68C4346.01 1185.77 4495.25 1335 4679.34 1335Z" fill="#236CF6"/>
<path d="M5346.15 1335V668.42H5339.15C5158.29 672.13 5012.81 819.92 5012.81 1001.68C5012.82 1185.77 5162.06 1335 5346.15 1335Z" fill="#FFC107"/>
<path d="M4679.81 0.75L4012.75 667.45V0.75H4679.81Z" fill="#F62A4F"/>
<path d="M4013.42 666.75L4013.6 1333.53L4346.9 1000.23L4013.42 666.75Z" fill="#F62A4F"/>
<path d="M4679.7 667.3L4346.3 334.08L4679.81 0.75L4679.7 667.3Z" fill="#2058C2"/>
<path d="M4012.85 667.111L4346.24 333.891L4679.75 667.231L4012.85 667.111Z" fill="#FFC107"/>
<path d="M3346.22 0.660156V667.33H4012.22V666.49C4012.22 313.82 3738.71 25.0302 3392.22 0.660156H3346.22Z" fill="#2058C2"/>
<path d="M3346.22 2V667.331H4006.56C4006.56 666.754 4006.56 666.178 4006.56 665.602C4006.58 300.102 3711.17 3.62627 3346.22 2Z" fill="#236CF6"/>
<path d="M4012.57 667.33H3345.9V1334H4012.57V667.33Z" fill="#F62A4F"/>
<path d="M3679.23 1334H3345.9V667.33H3679.24L4012.57 1000.66L3679.23 1334Z" fill="#FFC107"/>
<path d="M3345.9 1333.98V667.35L3679.22 1000.66L3345.9 1333.98Z" fill="#236CF6"/>
<path d="M3346.22 343.551V666.751H3025.32C3025.32 666.471 3025.32 666.191 3025.32 665.911C3025.32 488.361 3168.86 344.341 3346.22 343.551Z" fill="#FFC107"/>
<path d="M4679.81 445.1L5345.9 445.1V222.87L4679.81 222.87V445.1Z" fill="#2058C2"/>
</svg>
