<svg width="862" height="520" viewBox="0 0 862 520" fill="none" xmlns="http://www.w3.org/2000/svg">
<rect x="217.57" y="0.607422" width="609.979" height="519.297" rx="30" fill="#B7B7B7" fill-opacity="0.57"/>
<rect x="144.26" y="44.7988" width="263.615" height="333.808" rx="15.5985" fill="#11182F"/>
<rect x="161.417" y="57.2852" width="116.209" height="8.57918" rx="4.28959" fill="#D9D9D9"/>
<rect x="186.373" y="87.6973" width="35.8766" height="8.57918" rx="4.28959" fill="#4CC937"/>
<rect x="186.373" y="123.572" width="35.8766" height="8.57918" rx="4.28959" fill="#D146DD"/>
<rect x="186.373" y="140.73" width="69.4134" height="8.57918" rx="4.28959" fill="#4CC937"/>
<rect x="186.373" y="159.449" width="62.394" height="8.57918" rx="4.28959" fill="#4CC937"/>
<rect x="186.373" y="178.949" width="20.2781" height="8.57918" rx="4.28959" fill="#D146DD"/>
<rect x="216.011" y="178.949" width="31.197" height="8.57918" rx="4.28959" fill="#4CC937"/>
<rect x="186.373" y="197.668" width="31.197" height="8.57918" rx="4.28959" fill="#D146DD"/>
<rect x="186.373" y="233.545" width="62.394" height="8.57918" rx="4.28959" fill="#1C85E8"/>
<rect x="186.373" y="254.604" width="29.6372" height="8.57918" rx="4.28959" fill="#D9D9D9"/>
<rect x="186.373" y="273.32" width="46.7955" height="8.57918" rx="4.28959" fill="#D9D9D9"/>
<rect x="186.373" y="292.82" width="62.394" height="8.57918" rx="4.28959" fill="#1C85E8"/>
<rect x="185.591" y="311.535" width="50.6951" height="8.57918" rx="4.28959" fill="#D9D9D9"/>
<rect x="185.591" y="345.076" width="28.0773" height="8.57918" rx="4.28959" fill="#D9D9D9"/>
<rect x="236.284" y="273.32" width="22.6178" height="8.57918" rx="4.28959" fill="#D9D9D9"/>
<rect x="186.373" y="106.416" width="62.394" height="8.57918" rx="4.28959" fill="#D9D9D9"/>
<rect x="230.83" y="87.6973" width="14.8186" height="8.57918" rx="4.28959" fill="#D9D9D9"/>
<rect x="370.436" y="57.2852" width="8.57918" height="8.57918" rx="4.28959" fill="#F72A4F"/>
<rect x="383.699" y="57.2852" width="8.57918" height="8.57918" rx="4.28959" fill="#F3BA2F"/>
<rect x="255.785" y="106.416" width="17.9383" height="8.57918" rx="4.28959" fill="#F72A4F"/>
<rect x="255.785" y="159.449" width="15.5985" height="8.57918" rx="4.28959" fill="#D9D9D9"/>
<rect x="161.417" y="87.6973" width="15.5985" height="8.57918" rx="4.28959" fill="#D9D9D9"/>
<rect x="161.417" y="161.014" width="15.5985" height="8.57918" rx="4.28959" fill="#D9D9D9" fill-opacity="0.35"/>
<rect x="161.417" y="235.885" width="15.5985" height="8.57918" rx="4.28959" fill="#D9D9D9"/>
<rect x="161.417" y="106.416" width="15.5985" height="8.57918" rx="4.28959" fill="#D9D9D9" fill-opacity="0.35"/>
<rect x="161.417" y="178.949" width="15.5985" height="8.57918" rx="4.28959" fill="#D9D9D9" fill-opacity="0.35"/>
<rect x="161.417" y="254.604" width="15.5985" height="8.57918" rx="4.28959" fill="#D9D9D9" fill-opacity="0.36"/>
<rect x="161.417" y="310.756" width="15.5985" height="8.57918" rx="4.28959" fill="#D9D9D9" fill-opacity="0.36"/>
<rect x="161.417" y="123.572" width="15.5985" height="8.57918" rx="4.28959" fill="#D9D9D9" fill-opacity="0.35"/>
<rect x="161.417" y="197.668" width="15.5985" height="8.57918" rx="4.28959" fill="#D9D9D9" fill-opacity="0.35"/>
<rect x="161.417" y="271.76" width="15.5985" height="8.57918" rx="4.28959" fill="#D9D9D9" fill-opacity="0.36"/>
<rect x="161.417" y="327.916" width="15.5985" height="8.57918" rx="4.28959" fill="#D9D9D9" fill-opacity="0.36"/>
<rect x="161.417" y="140.73" width="15.5985" height="8.57918" rx="4.28959" fill="#D9D9D9" fill-opacity="0.35"/>
<rect x="161.417" y="214.045" width="15.5985" height="8.57918" rx="4.28959" fill="#D9D9D9" fill-opacity="0.35"/>
<rect x="161.417" y="292.82" width="15.5985" height="8.57918" rx="4.28959" fill="#D9D9D9" fill-opacity="0.36"/>
<rect x="161.417" y="345.076" width="15.5985" height="8.57918" rx="4.28959" fill="#D9D9D9"/>
<rect x="293.223" y="111.096" width="304.171" height="341.39" rx="13.2587" fill="white"/>
<rect x="311.166" y="136.826" width="41.336" height="7.79925" rx="3.89963" fill="#D9D9D9"/>
<rect x="438.29" y="136.826" width="24.1777" height="7.79925" rx="3.89963" fill="#D9D9D9"/>
<rect x="405.531" y="136.826" width="24.1777" height="7.79925" rx="3.89963" fill="#D9D9D9"/>
<rect x="471.045" y="136.826" width="24.1777" height="7.79925" rx="3.89963" fill="#D9D9D9"/>
<path d="M311.166 163.349C311.166 159.473 314.309 156.33 318.185 156.33H567.761C571.638 156.33 574.781 159.473 574.781 163.349V266.3C574.781 270.176 571.638 273.319 567.761 273.319H358.741C332.466 273.319 311.166 252.019 311.166 225.743V163.349Z" fill="#D2E7FA"/>
<rect x="336.897" y="192.986" width="67.8535" height="17.1584" rx="8.57918" fill="white"/>
<rect x="443.752" y="194.541" width="67.8535" height="17.1584" rx="8.57918" fill="white"/>
<rect x="407.872" y="192.986" width="31.197" height="17.1584" rx="8.57918" fill="white"/>
<rect x="336.897" y="217.947" width="46.7955" height="17.1584" rx="8.57918" fill="#61CE6C"/>
<rect x="336.897" y="317.775" width="78.7725" height="8.57918" rx="4.28959" fill="#273A50"/>
<rect x="336.897" y="334.156" width="88.9115" height="8.57918" rx="4.28959" fill="#D9D9D9"/>
<rect x="336.897" y="351.314" width="78.7725" height="8.57918" rx="4.28959" fill="#D9D9D9"/>
<rect x="336.897" y="373.932" width="38.9963" height="14.8186" rx="7.40929" fill="#236CF6"/>
<rect x="461.688" y="306.852" width="70.9732" height="95.9308" rx="8.57918" fill="#D2E7FA"/>
<rect x="467.145" y="313.098" width="60.0542" height="35.0966" rx="4.67955" fill="white"/>
<rect x="467.145" y="357.551" width="56.1546" height="6.2394" rx="3.1197" fill="white"/>
<rect x="467.145" y="370.027" width="34.3167" height="6.2394" rx="3.1197" fill="white"/>
<rect x="467.145" y="385.631" width="56.1546" height="7.79925" rx="3.89963" fill="#FEFEFE"/>
<rect x="551.381" y="305.299" width="70.9732" height="95.9308" rx="8.57918" fill="#1AD6D6"/>
<path fill-rule="evenodd" clip-rule="evenodd" d="M337.681 301.398C336.819 301.398 336.121 302.097 336.121 302.958V303.738C336.121 304.6 336.819 305.298 337.681 305.298H428.932C429.794 305.298 430.492 304.6 430.492 303.738V302.958C430.492 302.097 429.794 301.398 428.932 301.398H337.681ZM337.681 402.79C336.819 402.79 336.121 403.488 336.121 404.35V405.13C336.121 405.991 336.819 406.689 337.681 406.689H428.932C429.794 406.689 430.492 405.991 430.492 405.13V404.35C430.492 403.488 429.794 402.79 428.932 402.79H337.681ZM324.419 312.318C325.28 312.318 325.979 313.016 325.979 313.878L325.979 392.65C325.979 393.511 325.28 394.21 324.419 394.21H323.639C322.777 394.21 322.079 393.511 322.079 392.65L322.079 313.878C322.079 313.016 322.777 312.318 323.639 312.318H324.419ZM442.971 313.878C442.971 313.016 442.273 312.318 441.411 312.318H440.631C439.77 312.318 439.071 313.016 439.071 313.878L439.071 392.65C439.071 393.511 439.77 394.21 440.631 394.21H441.411C442.273 394.21 442.971 393.511 442.971 392.65V313.878Z" fill="#D9D9D9"/>
<rect x="316.62" y="293.6" width="14.8186" height="14.8186" rx="2.33978" fill="#D9D9D9"/>
<rect x="316.62" y="397.328" width="14.8186" height="14.8186" rx="2.33978" fill="#D9D9D9"/>
<rect x="432.828" y="293.6" width="14.8186" height="14.8186" rx="2.33978" fill="#D9D9D9"/>
<rect x="432.828" y="397.328" width="14.8186" height="14.8186" rx="2.33978" fill="#D9D9D9"/>
<rect x="584.238" y="342.734" width="5.79095" height="21.058" rx="2.89547" fill="white"/>
<rect x="597.397" y="350.371" width="5.79095" height="21.058" rx="2.89547" transform="rotate(90 597.397 350.371)" fill="white"/>
<rect x="473.844" y="55.4863" width="89.9722" height="29.9907" rx="14.9954" fill="#7581E9"/>
<rect x="485.878" y="67.5664" width="15.1504" height="6.19791" rx="3.09895" fill="white"/>
<rect x="505.855" y="67.5664" width="46.8286" height="6.19791" rx="3.09895" fill="white"/>
<path d="M468.03 92.1109C466.997 92.3879 466.051 91.442 466.328 90.4082L468.696 81.5697C468.973 80.536 470.265 80.1898 471.022 80.9465C472.766 84.3335 474.212 85.7182 477.492 87.4167C478.249 88.1735 477.903 89.4656 476.869 89.7426L468.03 92.1109Z" fill="#1C274C"/>
<rect x="160.488" y="416.768" width="87.4148" height="29.1383" rx="14.5691" fill="#F586DD"/>
<rect x="171.908" y="428.195" width="14.8548" height="7.4274" rx="3.14236" fill="white"/>
<rect x="191.907" y="428.195" width="45.1357" height="7.4274" rx="3.14236" fill="white"/>
<path d="M254.274 409.94C255.416 409.634 256.461 410.679 256.155 411.821L253.538 421.585C253.232 422.727 251.805 423.11 250.969 422.274C249.042 418.532 247.445 417.002 243.821 415.126C242.985 414.29 243.368 412.862 244.51 412.556L254.274 409.94Z" fill="#1C274C"/>
<path d="M778.576 165.625H652.141C645.337 165.625 639.771 159.753 639.771 152.577V96.924C639.771 89.7469 645.337 83.875 652.141 83.875H778.637C785.442 83.875 791.009 89.7469 791.009 96.924V152.577C790.947 159.753 785.441 165.625 778.576 165.625Z" fill="white"/>
<mask id="mask0_3011_4316" style="mask-type:luminance" maskUnits="userSpaceOnUse" x="656" y="100" width="112" height="53">
<path d="M767.99 100.111H656.82V152.499H767.99V100.111Z" fill="white"/>
</mask>
<g mask="url(#mask0_3011_4316)">
<path d="M666.489 104.942C666.489 102.274 664.325 100.111 661.655 100.111C658.985 100.111 656.82 102.274 656.82 104.942V147.346C656.82 150.014 658.985 152.177 661.655 152.177C664.325 152.177 666.489 150.014 666.489 147.346V104.942Z" fill="#82E5C9"/>
<path d="M683.558 117.61C683.558 114.942 681.393 112.779 678.723 112.779C676.053 112.779 673.889 114.942 673.889 117.61V147.668C673.889 150.336 676.053 152.499 678.723 152.499C681.393 152.499 683.558 150.336 683.558 147.668V117.61Z" fill="#B279FF"/>
<path d="M708.457 134.292C708.457 131.693 706.348 129.586 703.747 129.586C701.146 129.586 699.037 131.693 699.037 134.292V147.739C699.037 150.338 701.146 152.445 703.747 152.445C706.348 152.445 708.457 150.338 708.457 147.739V134.292Z" fill="#82E5C9"/>
<path d="M725.775 117.61C725.775 114.942 723.61 112.779 720.94 112.779C718.27 112.779 716.105 114.942 716.105 117.61V147.668C716.105 150.336 718.27 152.499 720.94 152.499C723.61 152.499 725.775 150.336 725.775 147.668V117.61Z" fill="#B279FF"/>
<path d="M750.669 109.415C750.669 106.816 748.56 104.709 745.959 104.709C743.358 104.709 741.249 106.816 741.249 109.415V147.738C741.249 150.337 743.358 152.444 745.959 152.444C748.56 152.444 750.669 150.337 750.669 147.738V109.415Z" fill="#82E5C9"/>
<path d="M767.991 117.61C767.991 114.942 765.827 112.779 763.157 112.779C760.487 112.779 758.322 114.942 758.322 117.61V147.668C758.322 150.336 760.487 152.499 763.157 152.499C765.827 152.499 767.991 150.336 767.991 147.668V117.61Z" fill="#B279FF"/>
</g>
<g filter="url(#filter0_d_3011_4316)">
<path d="M106.637 307.727H21.6578C13.9509 307.727 7.64746 301.393 7.64746 293.652V154.801C7.64746 147.06 13.9509 140.727 21.6578 140.727H106.637C114.343 140.727 120.647 147.06 120.647 154.801V293.652C120.647 301.393 114.343 307.727 106.637 307.727Z" fill="white"/>
</g>
<path d="M83.3237 249.727H30.9713C29.1362 249.727 27.6475 251.07 27.6475 252.727C27.6475 254.383 29.1362 255.727 30.9713 255.727H83.3237C85.1602 255.727 86.6475 254.383 86.6475 252.727C86.6475 251.07 85.1602 249.727 83.3237 249.727Z" fill="#DFE2EE"/>
<path d="M60.2988 264.727H30.9962C29.1473 264.727 27.6475 266.294 27.6475 268.227C27.6475 270.16 29.1473 271.727 30.9962 271.727H60.2988C62.149 271.727 63.6475 270.16 63.6475 268.227C63.6475 266.294 62.149 264.727 60.2988 264.727Z" fill="#DFE2EE"/>
<path d="M99.3895 281.727H30.9055C29.1069 281.727 27.6475 283.069 27.6475 284.727C27.6475 286.383 29.1069 287.727 30.9055 287.727H99.3895C101.189 287.727 102.647 286.383 102.647 284.727C102.647 283.069 101.189 281.727 99.3895 281.727Z" fill="#DFE2EE"/>
<g opacity="0.4" filter="url(#filter1_f_3011_4316)">
<path d="M63.1778 230.613C77.7239 230.613 89.5157 218.83 89.5157 204.296C89.5157 189.761 77.7239 177.979 63.1778 177.979C48.6318 177.979 36.8398 189.761 36.8398 204.296C36.8398 218.83 48.6318 230.613 63.1778 230.613Z" stroke="#6F74AB" stroke-width="1.49744"/>
</g>
<path fill-rule="evenodd" clip-rule="evenodd" d="M48.6244 209.352C52.2128 213.131 57.3426 215.498 63.0378 215.498C71.2 215.498 78.1993 210.64 81.1636 203.727L93.6475 208.816C88.4763 220.817 76.3858 228.727 63.0378 228.727C53.813 228.727 44.9374 224.976 38.6475 218.362L48.6244 209.352Z" fill="#6045E2"/>
<path fill-rule="evenodd" clip-rule="evenodd" d="M48.6475 209.843C45.0609 206.212 42.8319 201.126 42.8319 195.493C42.8319 191.637 43.877 188.037 45.6872 184.985L34.4724 177.727C31.3461 183.057 29.6475 189.24 29.6475 195.493C29.6475 204.589 33.1809 213.401 39.5008 219.727L48.6475 209.843Z" fill="#FFD585"/>
<path fill-rule="evenodd" clip-rule="evenodd" d="M60.6475 176.356L59.3214 162.727C54.0078 163.29 48.8311 165.193 44.3445 168.225C39.8592 171.256 36.2009 175.414 33.6475 180.278L45.4586 186.727C48.4413 181.042 54.0604 177.016 60.6475 176.356Z" fill="#FF6B8F"/>
<path fill-rule="evenodd" clip-rule="evenodd" d="M53.3148 178.556C56.1728 177.013 59.4611 176.135 62.9592 176.135C73.9662 176.135 82.8893 184.829 82.8893 195.555C82.8893 199.036 81.9488 202.303 80.3019 205.129L92.2495 211.727C95.1576 206.82 96.6475 201.222 96.6475 195.555C96.6475 177.517 81.4698 162.727 62.9592 162.727C57.2851 162.727 51.6111 164.109 46.6475 166.804L53.3148 178.556Z" fill="#82E5C9"/>
<path d="M848.165 189.449H652.349C645.105 189.449 639.232 195.323 639.232 202.568V283.155C639.232 290.4 645.105 296.273 652.349 296.273H848.165C855.409 296.273 861.282 290.4 861.282 283.155V202.568C861.282 195.323 855.409 189.449 848.165 189.449Z" fill="white"/>
<path d="M821.928 214.75H743.227C740.122 214.75 737.605 217.267 737.605 220.372C737.605 223.477 740.122 225.995 743.227 225.995H821.928C825.033 225.995 827.55 223.477 827.55 220.372C827.55 217.267 825.033 214.75 821.928 214.75Z" fill="#B6BDDA"/>
<path d="M785.388 238.176H743.227C740.122 238.176 737.605 240.693 737.605 243.798C737.605 246.903 740.122 249.42 743.227 249.42H785.388C788.492 249.42 791.009 246.903 791.009 243.798C791.009 240.693 788.492 238.176 785.388 238.176Z" fill="#DFE2EE"/>
<path d="M751.659 262.539H743.227C740.122 262.539 737.605 265.056 737.605 268.161C737.605 271.266 740.122 273.784 743.227 273.784H751.659C754.764 273.784 757.281 271.266 757.281 268.161C757.281 265.056 754.764 262.539 751.659 262.539Z" fill="#FFA1C0"/>
<path d="M801.317 262.539H773.209C770.105 262.539 767.588 265.056 767.588 268.161C767.588 271.266 770.105 273.784 773.209 273.784H801.317C804.421 273.784 806.938 271.266 806.938 268.161C806.938 265.056 804.421 262.539 801.317 262.539Z" fill="#82E5C9"/>
<path d="M830.355 262.539H822.861C819.755 262.539 817.239 265.056 817.239 268.161C817.239 271.266 819.755 273.784 822.861 273.784H830.355C833.46 273.784 835.977 271.266 835.977 268.161C835.977 265.056 833.46 262.539 830.355 262.539Z" fill="#D8AEFF"/>
<path d="M711.907 232.708L685.771 262.291H676.185C675.52 262.291 674.987 261.601 675.12 260.91L681.511 218.925C681.644 217.958 682.443 217.268 683.375 217.268H699.618C710.802 217.682 713.864 223.621 711.867 232.736L711.907 232.708Z" fill="#002C8A"/>
<path d="M712.601 229.352C716.66 231.54 717.606 235.643 716.254 241.113C714.495 249.182 709.22 252.602 701.509 252.738L699.345 252.875C698.533 252.875 697.992 253.422 697.857 254.243L696.098 265.047C695.963 266.004 695.152 266.688 694.205 266.688H686.088C685.412 266.688 684.871 266.004 685.006 265.321L687.982 245.763C688.117 245.079 712.601 229.352 712.601 229.352Z" fill="#009BE1"/>
<path d="M688.277 246.916L690.918 229.736C691.004 229.329 691.219 228.963 691.53 228.694C691.84 228.425 692.228 228.268 692.634 228.248H705.307C708.344 228.248 710.588 228.789 712.436 229.736C711.776 235.688 709.004 245.293 695.538 245.564H689.73C689.069 245.564 688.409 246.105 688.277 246.916Z" fill="#001F6B"/>
<defs>
<filter id="filter0_d_3011_4316" x="0.0265217" y="139.202" width="122.145" height="176.145" filterUnits="userSpaceOnUse" color-interpolation-filters="sRGB">
<feFlood flood-opacity="0" result="BackgroundImageFix"/>
<feColorMatrix in="SourceAlpha" type="matrix" values="0 0 0 0 0 0 0 0 0 0 0 0 0 0 0 0 0 0 127 0" result="hardAlpha"/>
<feOffset dx="-3.04838" dy="3.04838"/>
<feGaussianBlur stdDeviation="2.28628"/>
<feComposite in2="hardAlpha" operator="out"/>
<feColorMatrix type="matrix" values="0 0 0 0 0.295208 0 0 0 0 0.298188 0 0 0 0 0.325 0 0 0 0.11 0"/>
<feBlend mode="normal" in2="BackgroundImageFix" result="effect1_dropShadow_3011_4316"/>
<feBlend mode="normal" in="SourceGraphic" in2="effect1_dropShadow_3011_4316" result="shape"/>
</filter>
<filter id="filter1_f_3011_4316" x="34.219" y="175.359" width="57.9174" height="57.8744" filterUnits="userSpaceOnUse" color-interpolation-filters="sRGB">
<feFlood flood-opacity="0" result="BackgroundImageFix"/>
<feBlend mode="normal" in="SourceGraphic" in2="BackgroundImageFix" result="shape"/>
<feGaussianBlur stdDeviation="0.935897" result="effect1_foregroundBlur_3011_4316"/>
</filter>
</defs>
</svg>
