<svg width="1870" height="385" viewBox="0 0 1870 385" fill="none" xmlns="http://www.w3.org/2000/svg">
<path d="M445.219 206.523H454.234C474.148 206.523 490.292 190.379 490.292 170.465C490.292 150.55 474.148 134.406 454.234 134.406H445.219" stroke="#2684FC" stroke-width="11.6496"/>
<path d="M445.22 206.523H319.016" stroke="#FFC107" stroke-width="11.6496"/>
<path d="M490.292 278.641L310 278.641" stroke="#2684FC" stroke-width="11.6496" stroke-linecap="round"/>
<path d="M319.015 152.435C319.015 135.437 319.015 126.938 324.295 121.658C329.576 116.377 338.075 116.377 355.073 116.377H409.161C426.159 116.377 434.658 116.377 439.938 121.658C445.219 126.938 445.219 135.437 445.219 152.435V197.508C445.219 223.005 445.219 235.754 437.298 243.675C429.377 251.596 416.629 251.596 391.131 251.596H373.102C347.605 251.596 334.857 251.596 326.936 243.675C319.015 235.754 319.015 223.005 319.015 197.508V152.435Z" stroke="#F72A4F" stroke-width="11.6496"/>
<path d="M1468.51 155.973L1444.22 236.92" stroke="#F72A4F" stroke-width="12.1422" stroke-linecap="round" stroke-linejoin="round"/>
<path d="M1508.98 155.973L1484.7 236.92" stroke="#F72A4F" stroke-width="12.1422" stroke-linecap="round" stroke-linejoin="round"/>
<path d="M1525.17 180.256H1436.13" stroke="#2684FC" stroke-width="12.1422" stroke-linecap="round" stroke-linejoin="round"/>
<path d="M1517.07 212.635H1428.03" stroke="#2684FC" stroke-width="12.1422" stroke-linecap="round" stroke-linejoin="round"/>
<path d="M1395.65 196.446C1395.65 158.287 1395.65 139.207 1407.51 127.353C1419.36 115.498 1438.44 115.498 1476.6 115.498C1514.76 115.498 1533.84 115.498 1545.69 127.353C1557.55 139.207 1557.55 158.287 1557.55 196.446C1557.55 234.605 1557.55 253.684 1545.69 265.539C1533.84 277.393 1514.76 277.393 1476.6 277.393C1438.44 277.393 1419.36 277.393 1407.51 265.539C1395.65 253.684 1395.65 234.605 1395.65 196.446Z" stroke="#FFC329" stroke-width="12.1422"/>
<path d="M1132.81 272.351L1137.97 275.405L1137.97 275.405L1132.81 272.351ZM1137.14 265.03L1131.98 261.976L1131.98 261.976L1137.14 265.03ZM1111.1 265.03L1105.94 268.083L1105.94 268.083L1111.1 265.03ZM1115.43 272.351L1120.59 269.297L1120.59 269.297L1115.43 272.351ZM1047.22 228.59L1052.76 226.296L1052.76 226.296L1047.22 228.59ZM1090.46 253.196L1090.36 259.19L1090.36 259.19L1090.46 253.196ZM1068.86 250.222L1066.56 255.761L1066.56 255.761L1068.86 250.222ZM1201.02 228.59L1206.55 230.885L1206.55 230.885L1201.02 228.59ZM1157.78 253.196L1157.67 247.201L1157.67 247.201L1157.78 253.196ZM1179.38 250.222L1181.68 255.761L1181.68 255.761L1179.38 250.222ZM1184.97 123.259L1181.84 128.371L1181.84 128.371L1184.97 123.259ZM1198.17 136.454L1203.28 133.322L1203.28 133.322L1198.17 136.454ZM1063.27 123.259L1060.13 118.147L1060.13 118.147L1063.27 123.259ZM1050.07 136.454L1044.96 133.322L1044.96 133.322L1050.07 136.454ZM1103.36 254.941L1106.37 249.759L1106.37 249.759L1103.36 254.941ZM1137.97 275.405L1142.3 268.083L1131.98 261.976L1127.65 269.297L1137.97 275.405ZM1105.94 268.083L1110.27 275.405L1120.59 269.297L1116.26 261.976L1105.94 268.083ZM1127.65 269.297C1126.11 271.9 1122.13 271.9 1120.59 269.297L1110.27 275.405C1116.46 285.852 1131.78 285.852 1137.97 275.405L1127.65 269.297ZM1112.13 123.365H1136.11V111.374H1112.13V123.365ZM1198.06 185.317V193.31H1210.05V185.317H1198.06ZM1050.18 193.31V185.317H1038.19V193.31H1050.18ZM1038.19 193.31C1038.19 202.54 1038.18 209.762 1038.58 215.588C1038.98 221.467 1039.81 226.36 1041.69 230.885L1052.76 226.296C1051.59 223.476 1050.9 220.04 1050.54 214.772C1050.18 209.449 1050.18 202.704 1050.18 193.31H1038.19ZM1090.57 247.201C1080.53 247.028 1075.27 246.39 1071.15 244.683L1066.56 255.761C1073 258.426 1080.32 259.017 1090.36 259.19L1090.57 247.201ZM1041.69 230.885C1046.35 242.147 1055.3 251.095 1066.56 255.761L1071.15 244.683C1062.83 241.234 1056.21 234.621 1052.76 226.296L1041.69 230.885ZM1198.06 193.31C1198.06 202.704 1198.06 209.449 1197.7 214.772C1197.34 220.04 1196.64 223.476 1195.48 226.296L1206.55 230.885C1208.43 226.36 1209.26 221.467 1209.66 215.588C1210.06 209.762 1210.05 202.54 1210.05 193.31H1198.06ZM1157.88 259.19C1167.91 259.017 1175.24 258.426 1181.68 255.761L1177.09 244.683C1172.97 246.39 1167.71 247.028 1157.67 247.201L1157.88 259.19ZM1195.48 226.296C1192.03 234.621 1185.41 241.234 1177.09 244.683L1181.68 255.761C1192.94 251.095 1201.89 242.147 1206.55 230.885L1195.48 226.296ZM1136.11 123.365C1149.31 123.365 1158.79 123.371 1166.18 124.074C1173.49 124.768 1178.13 126.1 1181.84 128.371L1188.11 118.147C1182.2 114.528 1175.5 112.915 1167.32 112.137C1159.22 111.367 1149.08 111.374 1136.11 111.374V123.365ZM1210.05 185.317C1210.05 172.349 1210.06 162.202 1209.29 154.11C1208.51 145.928 1206.9 139.228 1203.28 133.322L1193.06 139.587C1195.33 143.292 1196.66 147.94 1197.35 155.245C1198.06 162.638 1198.06 172.117 1198.06 185.317H1210.05ZM1181.84 128.371C1186.41 131.172 1190.25 135.016 1193.06 139.587L1203.28 133.322C1199.49 127.137 1194.29 121.937 1188.11 118.147L1181.84 128.371ZM1112.13 111.374C1099.16 111.374 1089.01 111.367 1080.92 112.137C1072.74 112.915 1066.04 114.528 1060.13 118.147L1066.4 128.371C1070.1 126.1 1074.75 124.768 1082.06 124.074C1089.45 123.371 1098.93 123.365 1112.13 123.365V111.374ZM1050.18 185.317C1050.18 172.117 1050.18 162.638 1050.89 155.245C1051.58 147.94 1052.91 143.292 1055.18 139.587L1044.96 133.322C1041.34 139.228 1039.73 145.928 1038.95 154.11C1038.18 162.202 1038.19 172.349 1038.19 185.317H1050.18ZM1060.13 118.147C1053.95 121.937 1048.75 127.137 1044.96 133.322L1055.18 139.587C1057.98 135.016 1061.83 131.172 1066.4 128.371L1060.13 118.147ZM1116.26 261.976C1114.64 259.234 1113.21 256.814 1111.83 254.914C1110.37 252.912 1108.69 251.109 1106.37 249.759L1100.34 260.124C1100.72 260.344 1101.24 260.746 1102.14 261.976C1103.11 263.307 1104.2 265.147 1105.94 268.083L1116.26 261.976ZM1090.36 259.19C1093.87 259.251 1096.09 259.295 1097.79 259.483C1099.37 259.658 1099.98 259.915 1100.34 260.124L1106.37 249.759C1104.03 248.398 1101.6 247.841 1099.11 247.565C1096.73 247.301 1093.85 247.258 1090.57 247.201L1090.36 259.19ZM1142.3 268.083C1144.04 265.147 1145.13 263.307 1146.1 261.976C1147 260.746 1147.52 260.344 1147.9 260.124L1141.87 249.759C1139.55 251.109 1137.87 252.912 1136.41 254.914C1135.03 256.814 1133.6 259.234 1131.98 261.976L1142.3 268.083ZM1157.67 247.201C1154.39 247.258 1151.51 247.301 1149.13 247.565C1146.64 247.841 1144.21 248.398 1141.87 249.759L1147.9 260.124C1148.25 259.915 1148.87 259.658 1150.45 259.483C1152.15 259.295 1154.37 259.251 1157.88 259.19L1157.67 247.201Z" fill="#2684FC"/>
<path d="M1116.05 215.766L1119.6 210.94L1119.6 210.94L1116.05 215.766ZM1124.12 166.188L1119.84 170.383C1120.97 171.534 1122.51 172.183 1124.12 172.183C1125.73 172.183 1127.28 171.534 1128.4 170.383L1124.12 166.188ZM1132.19 215.766L1128.64 210.94L1128.64 210.94L1132.19 215.766ZM1124.12 219.78L1124.12 213.785L1124.12 213.785L1124.12 219.78ZM1119.6 210.94C1114.46 207.149 1107.87 201.766 1102.63 195.78C1097.2 189.581 1094.14 183.776 1094.14 179.047H1082.15C1082.15 188.328 1087.74 196.974 1093.61 203.679C1099.67 210.596 1107.03 216.568 1112.49 220.593L1119.6 210.94ZM1094.14 179.047C1094.14 170.192 1098.1 165.529 1102.16 164.008C1106.3 162.463 1112.89 163.288 1119.84 170.383L1128.4 161.994C1119.16 152.557 1107.77 149.111 1097.97 152.777C1088.09 156.469 1082.15 166.501 1082.15 179.047H1094.14ZM1135.75 220.593C1141.21 216.568 1148.58 210.596 1154.63 203.679C1160.5 196.974 1166.09 188.328 1166.09 179.047H1154.1C1154.1 183.776 1151.04 189.581 1145.61 195.78C1140.37 201.766 1133.78 207.149 1128.64 210.94L1135.75 220.593ZM1166.09 179.047C1166.09 166.501 1160.15 156.469 1150.28 152.777C1140.47 149.111 1129.08 152.557 1119.84 161.994L1128.4 170.383C1135.35 163.288 1141.94 162.463 1146.08 164.008C1150.14 165.529 1154.1 170.192 1154.1 179.047H1166.09ZM1112.49 220.593C1115.62 222.9 1119.13 225.775 1124.12 225.775L1124.12 213.785C1124 213.785 1123.87 213.803 1123.31 213.504C1122.53 213.079 1121.55 212.372 1119.6 210.94L1112.49 220.593ZM1128.64 210.94C1126.7 212.372 1125.71 213.079 1124.93 213.504C1124.38 213.803 1124.24 213.785 1124.12 213.785L1124.12 225.775C1129.12 225.775 1132.62 222.9 1135.75 220.593L1128.64 210.94Z" fill="#F72A4F"/>
<path d="M790.839 257.267H750.869M790.839 257.267C790.839 251.563 790.839 248.711 791.143 246.819C792.125 240.716 792.296 240.332 796.188 235.53C797.395 234.04 801.874 230.029 810.833 222.007C823.093 211.03 830.808 195.08 830.808 177.329C830.808 144.217 803.965 117.375 770.854 117.375C737.743 117.375 710.9 144.217 710.9 177.329C710.9 195.08 718.615 211.03 730.875 222.007C739.834 230.029 744.313 234.04 745.52 235.53C749.412 240.332 749.583 240.716 750.565 246.819C750.869 248.711 750.869 251.563 750.869 257.267M790.839 257.267C790.839 264.738 790.839 268.473 789.232 271.256C788.18 273.079 786.666 274.592 784.843 275.645C782.061 277.251 778.325 277.251 770.854 277.251C763.383 277.251 759.647 277.251 756.865 275.645C755.042 274.592 753.528 273.079 752.476 271.256C750.869 268.473 750.869 264.738 750.869 257.267" stroke="#FFC107" stroke-width="11.9907"/>
<path d="M777.134 169.336L760.004 193.317H783.986L766.856 217.299" stroke="#F72A4F" stroke-width="11.9907" stroke-linecap="round" stroke-linejoin="round"/>
<rect x="589.422" y="179.762" width="8.70845" height="34.8338" rx="4.35422" fill="#D9D9D9"/>
<rect x="576.36" y="201.527" width="8.70845" height="34.8338" rx="4.35422" transform="rotate(-90 576.36 201.527)" fill="#D9D9D9"/>
<rect x="943.565" y="179.762" width="8.70845" height="34.8338" rx="4.35422" fill="#D9D9D9"/>
<rect x="930.504" y="201.527" width="8.70845" height="34.8338" rx="4.35422" transform="rotate(-90 930.504 201.527)" fill="#D9D9D9"/>
<rect x="1297.71" y="179.762" width="8.70845" height="34.8338" rx="4.35422" fill="#D9D9D9"/>
<rect x="1284.65" y="201.527" width="8.70845" height="34.8338" rx="4.35422" transform="rotate(-90 1284.65 201.527)" fill="#D9D9D9"/>
</svg>
