<svg width="583" height="425" viewBox="0 0 583 425" fill="none" xmlns="http://www.w3.org/2000/svg">
<rect x="0.610352" width="582.007" height="424.855" fill="#236CF6"/>
<rect x="111.876" y="52.1875" width="240.736" height="304.837" rx="14.2447" fill="#11182F"/>
<rect x="127.545" y="63.5898" width="106.123" height="7.8346" rx="3.9173" fill="#D9D9D9"/>
<rect x="150.335" y="91.3613" width="32.7629" height="7.8346" rx="3.9173" fill="#4CC937"/>
<rect x="150.335" y="124.125" width="32.7629" height="7.8346" rx="3.9173" fill="#D146DD"/>
<rect x="150.335" y="139.793" width="63.389" height="7.8346" rx="3.9173" fill="#4CC937"/>
<rect x="150.335" y="156.889" width="56.9789" height="7.8346" rx="3.9173" fill="#4CC937"/>
<rect x="150.335" y="174.695" width="18.5181" height="7.8346" rx="3.9173" fill="#D146DD"/>
<rect x="177.4" y="174.695" width="28.4894" height="7.8346" rx="3.9173" fill="#4CC937"/>
<rect x="150.335" y="191.791" width="28.4894" height="7.8346" rx="3.9173" fill="#D146DD"/>
<rect x="150.335" y="224.553" width="56.9789" height="7.8346" rx="3.9173" fill="#1C85E8"/>
<rect x="150.335" y="243.783" width="27.065" height="7.8346" rx="3.9173" fill="#D9D9D9"/>
<rect x="150.335" y="260.877" width="42.7342" height="7.8346" rx="3.9173" fill="#D9D9D9"/>
<rect x="150.335" y="278.684" width="56.9789" height="7.8346" rx="3.9173" fill="#1C85E8"/>
<rect x="149.619" y="295.773" width="46.2954" height="7.8346" rx="3.9173" fill="#D9D9D9"/>
<rect x="149.619" y="326.404" width="25.6405" height="7.8346" rx="3.9173" fill="#D9D9D9"/>
<rect x="195.914" y="260.877" width="20.6549" height="7.8346" rx="3.9173" fill="#D9D9D9"/>
<rect x="150.335" y="108.457" width="56.9789" height="7.8346" rx="3.9173" fill="#D9D9D9"/>
<rect x="190.933" y="91.3613" width="13.5325" height="7.8346" rx="3.9173" fill="#D9D9D9"/>
<rect x="318.422" y="63.5898" width="7.8346" height="7.8346" rx="3.9173" fill="#F72A4F"/>
<rect x="330.535" y="63.5898" width="7.8346" height="7.8346" rx="3.9173" fill="#F3BA2F"/>
<rect x="213.723" y="108.457" width="16.3814" height="7.8346" rx="3.9173" fill="#F72A4F"/>
<rect x="213.723" y="156.889" width="14.2447" height="7.8346" rx="3.9173" fill="#D9D9D9"/>
<rect x="127.545" y="91.3613" width="14.2447" height="7.8346" rx="3.9173" fill="#D9D9D9"/>
<rect x="127.545" y="158.314" width="14.2447" height="7.8346" rx="3.9173" fill="#D9D9D9" fill-opacity="0.35"/>
<rect x="127.545" y="226.689" width="14.2447" height="7.8346" rx="3.9173" fill="#D9D9D9"/>
<rect x="127.545" y="108.457" width="14.2447" height="7.8346" rx="3.9173" fill="#D9D9D9" fill-opacity="0.35"/>
<rect x="127.545" y="174.695" width="14.2447" height="7.8346" rx="3.9173" fill="#D9D9D9" fill-opacity="0.35"/>
<rect x="127.545" y="243.783" width="14.2447" height="7.8346" rx="3.9173" fill="#D9D9D9" fill-opacity="0.36"/>
<rect x="127.545" y="295.064" width="14.2447" height="7.8346" rx="3.9173" fill="#D9D9D9" fill-opacity="0.36"/>
<rect x="127.545" y="124.125" width="14.2447" height="7.8346" rx="3.9173" fill="#D9D9D9" fill-opacity="0.35"/>
<rect x="127.545" y="191.791" width="14.2447" height="7.8346" rx="3.9173" fill="#D9D9D9" fill-opacity="0.35"/>
<rect x="127.545" y="259.451" width="14.2447" height="7.8346" rx="3.9173" fill="#D9D9D9" fill-opacity="0.36"/>
<rect x="127.545" y="310.732" width="14.2447" height="7.8346" rx="3.9173" fill="#D9D9D9" fill-opacity="0.36"/>
<rect x="127.545" y="139.793" width="14.2447" height="7.8346" rx="3.9173" fill="#D9D9D9" fill-opacity="0.35"/>
<rect x="127.545" y="206.746" width="14.2447" height="7.8346" rx="3.9173" fill="#D9D9D9" fill-opacity="0.35"/>
<rect x="127.545" y="278.684" width="14.2447" height="7.8346" rx="3.9173" fill="#D9D9D9" fill-opacity="0.36"/>
<rect x="127.545" y="326.404" width="14.2447" height="7.8346" rx="3.9173" fill="#D9D9D9"/>
<rect x="251.231" y="149.08" width="199.213" height="223.589" rx="8.68365" fill="white"/>
<rect x="262.982" y="165.932" width="27.0725" height="5.10803" rx="2.55401" fill="#D9D9D9"/>
<rect x="346.241" y="165.932" width="15.8349" height="5.10803" rx="2.55401" fill="#D9D9D9"/>
<rect x="324.785" y="165.932" width="15.8349" height="5.10803" rx="2.55401" fill="#D9D9D9"/>
<rect x="367.693" y="165.932" width="15.8349" height="5.10803" rx="2.55401" fill="#D9D9D9"/>
<path d="M262.982 183.304C262.982 180.765 265.041 178.707 267.58 178.707H431.037C433.576 178.707 435.634 180.765 435.634 183.304V250.73C435.634 253.269 433.576 255.327 431.037 255.327H294.141C276.933 255.327 262.982 241.377 262.982 224.168V183.304Z" fill="#D2E7FA"/>
<rect x="279.835" y="202.715" width="44.4398" height="11.2377" rx="5.61883" fill="white"/>
<rect x="349.818" y="203.732" width="44.4398" height="11.2377" rx="5.61883" fill="white"/>
<rect x="326.319" y="202.715" width="20.4321" height="11.2377" rx="5.61883" fill="white"/>
<rect x="279.835" y="219.059" width="30.6482" height="11.2377" rx="5.61883" fill="#61CE6C"/>
<rect x="279.835" y="284.441" width="51.5911" height="5.61883" rx="2.80942" fill="#273A50"/>
<rect x="279.835" y="295.17" width="58.2315" height="5.61883" rx="2.80942" fill="#D9D9D9"/>
<rect x="279.835" y="306.408" width="51.5911" height="5.61883" rx="2.80942" fill="#D9D9D9"/>
<rect x="279.835" y="321.223" width="25.5401" height="9.70525" rx="4.85263" fill="#236CF6"/>
<rect x="361.565" y="277.289" width="46.4831" height="62.8287" rx="5.61883" fill="#D2E7FA"/>
<rect x="365.139" y="281.377" width="39.3318" height="22.9861" rx="3.06482" fill="white"/>
<rect x="365.139" y="310.492" width="36.7778" height="4.08642" rx="2.04321" fill="white"/>
<rect x="365.139" y="318.666" width="22.4753" height="4.08642" rx="2.04321" fill="white"/>
<rect x="365.139" y="328.883" width="36.7778" height="5.10803" rx="2.55401" fill="#FEFEFE"/>
<rect x="420.309" y="276.273" width="46.4831" height="62.8287" rx="5.61883" fill="#1AD6D6"/>
<path fill-rule="evenodd" clip-rule="evenodd" d="M280.346 273.717C279.782 273.717 279.325 274.174 279.325 274.738V275.249C279.325 275.813 279.782 276.271 280.346 276.271H340.11C340.674 276.271 341.132 275.813 341.132 275.249V274.738C341.132 274.174 340.674 273.717 340.11 273.717H280.346ZM280.346 340.121C279.782 340.121 279.325 340.578 279.325 341.142V341.653C279.325 342.217 279.782 342.675 280.346 342.675H340.11C340.674 342.675 341.132 342.217 341.132 341.653V341.142C341.132 340.578 340.674 340.121 340.11 340.121H280.346ZM271.661 280.869C272.226 280.869 272.683 281.326 272.683 281.891L272.683 333.482C272.683 334.046 272.226 334.503 271.661 334.503H271.151C270.586 334.503 270.129 334.046 270.129 333.482L270.129 281.891C270.129 281.326 270.586 280.869 271.151 280.869H271.661ZM349.306 281.891C349.306 281.326 348.848 280.869 348.284 280.869H347.773C347.209 280.869 346.752 281.326 346.752 281.891L346.751 333.482C346.751 334.046 347.209 334.503 347.773 334.503H348.284C348.848 334.503 349.306 334.046 349.306 333.482V281.891Z" fill="#D9D9D9"/>
<rect x="266.555" y="268.609" width="9.70525" height="9.70525" rx="1.53241" fill="#D9D9D9"/>
<rect x="266.555" y="336.543" width="9.70525" height="9.70525" rx="1.53241" fill="#D9D9D9"/>
<rect x="342.665" y="268.609" width="9.70525" height="9.70525" rx="1.53241" fill="#D9D9D9"/>
<rect x="342.665" y="336.543" width="9.70525" height="9.70525" rx="1.53241" fill="#D9D9D9"/>
<rect x="441.828" y="300.789" width="3.79271" height="13.7917" rx="1.89636" fill="white"/>
<rect x="450.446" y="305.791" width="3.79271" height="13.7917" rx="1.89636" transform="rotate(90 450.446 305.791)" fill="white"/>
<rect x="389.188" y="89.6523" width="82.1636" height="27.3879" rx="13.6939" fill="#7581E9"/>
<rect x="400.178" y="100.686" width="13.8355" height="5.65999" rx="2.83" fill="white"/>
<rect x="418.422" y="100.686" width="42.7644" height="5.65999" rx="2.83" fill="white"/>
<path d="M383.879 123.1C382.935 123.353 382.071 122.489 382.324 121.545L384.487 113.474C384.74 112.53 385.92 112.214 386.611 112.905C388.203 115.998 389.524 117.262 392.519 118.813C393.21 119.504 392.894 120.685 391.95 120.937L383.879 123.1Z" fill="#1C274C"/>
</svg>
