<svg width="558" height="290" viewBox="0 0 558 290" fill="none" xmlns="http://www.w3.org/2000/svg">
<rect width="558" height="290" fill="#D8F69E"/>
<path d="M41.3368 61.9336L48.2194 41.3714H51.7607L58.6433 61.9336H56.0016L49.5617 42.8565H50.3613L43.9785 61.9336H41.3368ZM44.6496 57.1215V54.7368H55.3305V57.1215H44.6496ZM60.6283 61.9336V40.9431H63.17V61.9336H60.6283ZM75.842 62.362C74.6901 62.362 73.7239 62.1525 72.9433 61.7337C72.1722 61.3053 71.5868 60.7437 71.1869 60.0487C70.7966 59.3538 70.6015 58.5922 70.6015 57.764C70.6015 56.9549 70.7538 56.2552 71.0584 55.665C71.3726 55.0653 71.8105 54.5702 72.3721 54.1799C72.9338 53.7801 73.6049 53.466 74.3855 53.2375C75.1185 53.0376 75.9372 52.8663 76.8415 52.7235C77.7554 52.5712 78.6788 52.4331 79.6117 52.3094C80.5446 52.1856 81.4157 52.0666 82.2248 51.9524L81.3109 52.4807C81.3395 51.1099 81.0634 50.0961 80.4827 49.4392C79.9116 48.7824 78.9215 48.454 77.5127 48.454C76.5797 48.454 75.7611 48.6682 75.0566 49.0965C74.3617 49.5154 73.8714 50.2008 73.5859 51.1527L71.1727 50.4245C71.5439 49.0727 72.2626 48.0113 73.3288 47.2402C74.395 46.4691 75.7991 46.0836 77.5412 46.0836C78.9406 46.0836 80.14 46.3359 81.1396 46.8404C82.1487 47.3354 82.8721 48.0875 83.31 49.0965C83.529 49.5725 83.667 50.0913 83.7241 50.653C83.7813 51.2051 83.8098 51.7858 83.8098 52.395V61.9336H81.5537V58.2353L82.082 58.578C81.5013 59.825 80.6874 60.7675 79.6403 61.4053C78.6026 62.0431 77.3365 62.362 75.842 62.362ZM76.2275 60.2344C77.1414 60.2344 77.9315 60.0725 78.5979 59.7489C79.2738 59.4157 79.8164 58.9825 80.2257 58.4495C80.6351 57.9068 80.9016 57.3166 81.0254 56.6788C81.1682 56.2028 81.2443 55.6745 81.2538 55.0938C81.2729 54.5036 81.2824 54.0514 81.2824 53.7373L82.1677 54.1228C81.3395 54.2371 80.5256 54.3465 79.7259 54.4513C78.9263 54.556 78.1695 54.6702 77.4555 54.794C76.7416 54.9082 76.099 55.0462 75.5278 55.2081C75.109 55.3413 74.7139 55.5127 74.3427 55.7221C73.9809 55.9315 73.6858 56.2028 73.4573 56.536C73.2384 56.8597 73.1289 57.2643 73.1289 57.7498C73.1289 58.1686 73.2336 58.5684 73.4431 58.9492C73.662 59.33 73.9952 59.6394 74.4426 59.8774C74.8996 60.1154 75.4945 60.2344 76.2275 60.2344ZM86.9513 43.7846V41.1573H89.493V43.7846H86.9513ZM86.9513 61.9336V46.512H89.493V61.9336H86.9513ZM92.9207 61.9336V46.512H95.1911V50.2389L94.8198 49.7534C95.0007 49.2774 95.2339 48.8395 95.5195 48.4397C95.8146 48.0399 96.143 47.7114 96.5048 47.4544C96.9046 47.1307 97.3568 46.8832 97.8613 46.7119C98.3658 46.5405 98.8799 46.4406 99.4034 46.412C99.927 46.3739 100.417 46.4073 100.874 46.512V48.8966C100.341 48.7538 99.7557 48.7157 99.1179 48.7824C98.4801 48.849 97.8898 49.0823 97.3472 49.4821C96.8522 49.8343 96.4667 50.2627 96.1906 50.7672C95.9241 51.2717 95.7384 51.8191 95.6337 52.4093C95.529 52.99 95.4766 53.585 95.4766 54.1942V61.9336H92.9207ZM109.121 62.362C107.608 62.362 106.285 62.0288 105.152 61.3624C104.028 60.6865 103.153 59.7489 102.524 58.5494C101.896 57.3404 101.582 55.9315 101.582 54.3227C101.582 52.6378 101.891 51.1813 102.51 49.9533C103.129 48.7157 103.99 47.7638 105.095 47.0974C106.208 46.4215 107.513 46.0836 109.007 46.0836C110.559 46.0836 111.877 46.4406 112.963 47.1545C114.057 47.8685 114.876 48.8871 115.419 50.2103C115.971 51.5335 116.209 53.109 116.133 54.9368H113.562V54.0229C113.534 52.1285 113.148 50.7148 112.406 49.7819C111.663 48.8395 110.559 48.3683 109.093 48.3683C107.522 48.3683 106.327 48.8728 105.509 49.8819C104.69 50.891 104.281 52.3379 104.281 54.2228C104.281 56.041 104.69 57.4499 105.509 58.4495C106.327 59.449 107.494 59.9488 109.007 59.9488C110.026 59.9488 110.911 59.7155 111.663 59.2491C112.415 58.7826 113.005 58.1115 113.434 57.2357L115.875 58.0782C115.276 59.4395 114.371 60.4961 113.162 61.2482C111.963 61.9907 110.616 62.362 109.121 62.362ZM103.424 54.9368V52.8948H114.819V54.9368H103.424ZM129.812 62.362C128.251 62.362 126.923 62.0145 125.829 61.3196C124.743 60.6151 123.915 59.6489 123.344 58.4209C122.773 57.1929 122.478 55.7935 122.459 54.2228C122.478 52.614 122.778 51.2003 123.358 49.9818C123.948 48.7538 124.791 47.7971 125.886 47.1117C126.98 46.4263 128.299 46.0836 129.841 46.0836C131.469 46.0836 132.868 46.4834 134.039 47.2831C135.22 48.0827 136.01 49.1774 136.41 50.5673L133.896 51.3241C133.573 50.4293 133.044 49.7343 132.311 49.2393C131.588 48.7443 130.755 48.4968 129.812 48.4968C128.756 48.4968 127.885 48.7443 127.199 49.2393C126.514 49.7248 126.005 50.4007 125.672 51.267C125.338 52.1237 125.167 53.109 125.157 54.2228C125.176 55.9363 125.572 57.3214 126.343 58.3781C127.123 59.4252 128.28 59.9488 129.812 59.9488C130.822 59.9488 131.659 59.7203 132.326 59.2634C132.992 58.7969 133.497 58.1258 133.839 57.25L136.41 57.9211C135.876 59.3586 135.043 60.4581 133.911 61.2196C132.778 61.9812 131.412 62.362 129.812 62.362ZM144.617 62.362C143.085 62.362 141.761 62.0145 140.648 61.3196C139.543 60.6247 138.691 59.6632 138.092 58.4352C137.492 57.2072 137.192 55.7983 137.192 54.2085C137.192 52.5902 137.497 51.1718 138.106 49.9533C138.715 48.7348 139.577 47.7876 140.69 47.1117C141.804 46.4263 143.113 46.0836 144.617 46.0836C146.159 46.0836 147.487 46.4311 148.601 47.126C149.715 47.8114 150.567 48.7681 151.157 49.9961C151.757 51.2146 152.057 52.6187 152.057 54.2085C152.057 55.8173 151.757 57.2357 151.157 58.4637C150.557 59.6822 149.701 60.6389 148.587 61.3339C147.473 62.0193 146.15 62.362 144.617 62.362ZM144.617 59.9488C146.216 59.9488 147.406 59.4157 148.187 58.3495C148.968 57.2833 149.358 55.903 149.358 54.2085C149.358 52.4664 148.963 51.0813 148.173 50.0532C147.383 49.0156 146.197 48.4968 144.617 48.4968C143.541 48.4968 142.656 48.7395 141.961 49.225C141.266 49.7105 140.748 50.3817 140.405 51.2384C140.062 52.0952 139.891 53.0852 139.891 54.2085C139.891 55.9411 140.291 57.3309 141.09 58.3781C141.89 59.4252 143.066 59.9488 144.617 59.9488ZM165.325 61.9336V54.2085C165.325 53.4755 165.258 52.7711 165.125 52.0952C165.001 51.4193 164.777 50.8148 164.454 50.2817C164.139 49.7391 163.711 49.3107 163.168 48.9966C162.635 48.6824 161.959 48.5254 161.141 48.5254C160.503 48.5254 159.922 48.6348 159.399 48.8538C158.885 49.0632 158.442 49.3869 158.071 49.8248C157.699 50.2627 157.409 50.8148 157.2 51.4812C157 52.138 156.9 52.9139 156.9 53.8087L155.229 53.2946C155.229 51.8001 155.496 50.5197 156.029 49.4535C156.571 48.3778 157.328 47.5544 158.299 46.9832C159.28 46.4025 160.432 46.1122 161.755 46.1122C162.754 46.1122 163.606 46.2692 164.311 46.5834C165.015 46.8975 165.601 47.3164 166.067 47.84C166.534 48.354 166.9 48.9347 167.167 49.582C167.433 50.2198 167.619 50.8719 167.724 51.5383C167.838 52.1951 167.895 52.8187 167.895 53.4089V61.9336H165.325ZM154.33 61.9336V46.512H156.614V50.6387H156.9V61.9336H154.33ZM57.0783 113.619C54.5042 113.619 52.2271 113.094 50.2471 112.043C48.2822 110.976 46.7439 109.491 45.632 107.587C44.5201 105.668 43.9642 103.414 43.9642 100.825V80.057L48.8077 80.0342V100.573C48.8077 101.975 49.0438 103.208 49.516 104.275C49.9881 105.341 50.6202 106.232 51.4122 106.948C52.2043 107.664 53.0877 108.204 54.0625 108.57C55.0525 108.935 56.0578 109.118 57.0783 109.118C58.114 109.118 59.1192 108.935 60.094 108.57C61.0841 108.189 61.9751 107.641 62.7671 106.925C63.5592 106.209 64.1836 105.318 64.6406 104.252C65.1127 103.186 65.3488 101.959 65.3488 100.573V80.0342H70.1923V100.825C70.1923 103.399 69.6364 105.645 68.5245 107.565C67.4126 109.484 65.8667 110.976 63.8866 112.043C61.9218 113.094 59.6523 113.619 57.0783 113.619ZM92.5305 112.934V100.802C92.5305 99.8424 92.4467 98.8599 92.2792 97.8547C92.1269 96.8342 91.8222 95.8899 91.3653 95.0217C90.9236 94.1535 90.2915 93.4529 89.469 92.9198C88.6618 92.3867 87.6032 92.1201 86.2933 92.1201C85.4403 92.1201 84.6331 92.2648 83.8715 92.5542C83.11 92.8284 82.4398 93.2777 81.861 93.9022C81.2975 94.5267 80.8481 95.3491 80.513 96.3696C80.1932 97.3901 80.0333 98.6315 80.0333 100.094L77.0632 98.9742C77.0632 96.7352 77.482 94.7627 78.3198 93.0568C79.1575 91.3357 80.3607 89.9954 81.9296 89.0358C83.4984 88.0762 85.3947 87.5965 87.6184 87.5965C89.3243 87.5965 90.756 87.8706 91.9136 88.4189C93.0712 88.9673 94.0079 89.6907 94.7238 90.5894C95.4549 91.4728 96.0108 92.44 96.3916 93.4909C96.7724 94.5419 97.0313 95.57 97.1684 96.5753C97.3055 97.5805 97.374 98.4639 97.374 99.2255V112.934H92.5305ZM75.1897 112.934V88.259H79.4621V95.3872H80.0333V112.934H75.1897ZM123.462 113.619C120.172 113.619 117.369 112.903 115.054 111.471C112.739 110.024 110.965 108.014 109.731 105.44C108.512 102.866 107.903 99.8804 107.903 96.4839C107.903 93.0873 108.512 90.102 109.731 87.5279C110.965 84.9538 112.739 82.9509 115.054 81.5192C117.369 80.0722 120.172 79.3487 123.462 79.3487C127.254 79.3487 130.392 80.3083 132.875 82.2274C135.373 84.1466 137.109 86.7283 138.084 89.9725L133.24 91.2748C132.601 88.9749 131.458 87.17 129.813 85.8601C128.184 84.5502 126.066 83.8953 123.462 83.8953C121.131 83.8953 119.19 84.4207 117.636 85.4717C116.082 86.5227 114.91 87.9925 114.118 89.8811C113.341 91.7698 112.952 93.9707 112.952 96.4839C112.937 98.997 113.318 101.198 114.095 103.087C114.887 104.975 116.06 106.445 117.613 107.496C119.182 108.547 121.131 109.072 123.462 109.072C126.066 109.072 128.184 108.418 129.813 107.108C131.458 105.783 132.601 103.978 133.24 101.693L138.084 102.995C137.109 106.239 135.373 108.821 132.875 110.74C130.392 112.659 127.254 113.619 123.462 113.619ZM148.706 113.619C146.878 113.619 145.348 113.284 144.114 112.614C142.88 111.928 141.944 111.03 141.304 109.918C140.679 108.791 140.367 107.557 140.367 106.217C140.367 104.968 140.588 103.871 141.03 102.927C141.471 101.982 142.126 101.183 142.994 100.528C143.863 99.8576 144.929 99.3169 146.193 98.9056C147.29 98.5858 148.531 98.304 149.917 98.0603C151.303 97.8166 152.758 97.5881 154.281 97.3749C155.819 97.1617 157.342 96.9484 158.85 96.7352L157.114 97.6948C157.144 95.7604 156.733 94.3287 155.88 93.3996C155.042 92.4552 153.595 91.983 151.539 91.983C150.245 91.983 149.057 92.2877 147.975 92.8969C146.894 93.4909 146.14 94.481 145.713 95.867L141.258 94.4962C141.867 92.3791 143.025 90.696 144.731 89.4471C146.452 88.1981 148.737 87.5736 151.585 87.5736C153.793 87.5736 155.713 87.9544 157.342 88.716C158.987 89.4623 160.191 90.6503 160.952 92.2801C161.348 93.0873 161.592 93.9403 161.683 94.8389C161.775 95.7375 161.82 96.7047 161.82 97.7404V112.934H157.594V107.29L158.416 108.022C157.396 109.91 156.093 111.319 154.509 112.248C152.94 113.162 151.006 113.619 148.706 113.619ZM149.552 109.712C150.907 109.712 152.072 109.476 153.047 109.004C154.022 108.517 154.806 107.9 155.4 107.153C155.994 106.407 156.383 105.63 156.566 104.823C156.824 104.092 156.969 103.269 157 102.356C157.045 101.442 157.068 100.711 157.068 100.162L158.622 100.733C157.114 100.962 155.743 101.167 154.509 101.35C153.276 101.533 152.156 101.716 151.151 101.899C150.161 102.066 149.277 102.272 148.501 102.515C147.846 102.744 147.259 103.018 146.741 103.338C146.239 103.658 145.835 104.046 145.53 104.503C145.241 104.96 145.096 105.516 145.096 106.171C145.096 106.811 145.256 107.405 145.576 107.953C145.896 108.486 146.383 108.913 147.038 109.232C147.693 109.552 148.531 109.712 149.552 109.712ZM168.644 112.934V87.3908C168.644 86.7664 168.667 86.1038 168.713 85.4032C168.758 84.6873 168.888 83.9867 169.101 83.3013C169.329 82.6006 169.703 81.9609 170.22 81.3821C170.845 80.6967 171.53 80.2093 172.277 79.9199C173.023 79.6305 173.762 79.463 174.493 79.4173C175.239 79.3716 175.925 79.3487 176.549 79.3487H179.656V83.2784H176.777C175.65 83.2784 174.805 83.5602 174.241 84.1237C173.693 84.6721 173.419 85.4565 173.419 86.477V112.934H168.644ZM164.554 92.0973V88.259H179.656V92.0973H164.554ZM194.992 84.6035H191.245L194.512 76.6071H198.259L194.992 84.6035ZM192.867 113.619C190.415 113.619 188.26 113.086 186.401 112.02C184.558 110.938 183.119 109.438 182.083 107.519C181.063 105.585 180.553 103.346 180.553 100.802C180.553 98.106 181.055 95.768 182.06 93.7879C183.081 91.8079 184.497 90.2772 186.31 89.1957C188.122 88.1143 190.232 87.5736 192.639 87.5736C195.152 87.5736 197.292 88.16 199.058 89.3328C200.825 90.4904 202.143 92.143 203.011 94.2906C203.894 96.4382 204.245 98.9894 204.062 101.944H199.287V100.208C199.256 97.3444 198.708 95.2273 197.642 93.8565C196.591 92.4857 194.984 91.8003 192.821 91.8003C190.43 91.8003 188.633 92.5542 187.429 94.0621C186.226 95.57 185.625 97.7481 185.625 100.596C185.625 103.307 186.226 105.409 187.429 106.902C188.633 108.379 190.369 109.118 192.639 109.118C194.131 109.118 195.418 108.783 196.5 108.113C197.596 107.428 198.449 106.453 199.058 105.189L203.742 106.674C202.783 108.882 201.328 110.596 199.378 111.814C197.429 113.017 195.258 113.619 192.867 113.619ZM184.071 101.944V98.2202H201.686V101.944H184.071ZM226.149 113.619C223.621 113.619 221.473 113.055 219.706 111.928C217.939 110.801 216.584 109.255 215.64 107.29C214.71 105.326 214.238 103.094 214.223 100.596C214.238 98.0527 214.726 95.8061 215.685 93.8565C216.645 91.8917 218.016 90.3533 219.798 89.2414C221.58 88.1295 223.72 87.5736 226.218 87.5736C228.914 87.5736 231.213 88.2438 233.117 89.5841C235.037 90.9245 236.301 92.7598 236.91 95.0902L232.158 96.461C231.686 95.075 230.909 94.0012 229.827 93.2396C228.761 92.4628 227.535 92.0744 226.149 92.0744C224.58 92.0744 223.293 92.4476 222.288 93.1939C221.283 93.925 220.536 94.9303 220.049 96.2097C219.562 97.4891 219.31 98.9513 219.295 100.596C219.31 103.14 219.889 105.196 221.031 106.765C222.189 108.334 223.895 109.118 226.149 109.118C227.687 109.118 228.929 108.768 229.873 108.067C230.833 107.351 231.564 106.331 232.066 105.006L236.91 106.148C236.103 108.555 234.77 110.405 232.912 111.7C231.054 112.979 228.799 113.619 226.149 113.619ZM250.239 113.619C247.772 113.619 245.632 113.063 243.819 111.951C242.007 110.839 240.606 109.309 239.616 107.359C238.641 105.394 238.153 103.132 238.153 100.573C238.153 97.9994 238.656 95.7375 239.661 93.7879C240.666 91.8231 242.075 90.3 243.888 89.2186C245.7 88.1219 247.818 87.5736 250.239 87.5736C252.707 87.5736 254.847 88.1295 256.659 89.2414C258.472 90.3533 259.873 91.884 260.863 93.8336C261.853 95.7832 262.348 98.0298 262.348 100.573C262.348 103.148 261.845 105.417 260.84 107.382C259.85 109.331 258.449 110.862 256.636 111.974C254.824 113.071 252.692 113.619 250.239 113.619ZM250.239 109.118C252.6 109.118 254.359 108.326 255.517 106.742C256.69 105.143 257.276 103.087 257.276 100.573C257.276 97.9994 256.682 95.9432 255.494 94.4048C254.321 92.8512 252.57 92.0744 250.239 92.0744C248.64 92.0744 247.323 92.44 246.287 93.1711C245.251 93.887 244.482 94.8846 243.979 96.164C243.477 97.4282 243.225 98.898 243.225 100.573C243.225 103.163 243.819 105.234 245.007 106.788C246.195 108.341 247.939 109.118 250.239 109.118ZM283.316 112.934V100.802C283.316 99.8424 283.232 98.8599 283.064 97.8547C282.912 96.8342 282.608 95.8899 282.151 95.0217C281.709 94.1535 281.077 93.4529 280.254 92.9198C279.447 92.3867 278.389 92.1201 277.079 92.1201C276.226 92.1201 275.418 92.2648 274.657 92.5542C273.895 92.8284 273.225 93.2777 272.646 93.9022C272.083 94.5267 271.633 95.3491 271.298 96.3696C270.979 97.3901 270.819 98.6315 270.819 100.094L267.848 98.9742C267.848 96.7352 268.267 94.7627 269.105 93.0568C269.943 91.3357 271.146 89.9954 272.715 89.0358C274.284 88.0762 276.18 87.5965 278.404 87.5965C280.11 87.5965 281.541 87.8706 282.699 88.4189C283.857 88.9673 284.793 89.6907 285.509 90.5894C286.24 91.4728 286.796 92.44 287.177 93.4909C287.558 94.5419 287.817 95.57 287.954 96.5753C288.091 97.5805 288.159 98.4639 288.159 99.2255V112.934H283.316ZM265.975 112.934V88.259H270.247V95.3872H270.819V112.934H265.975ZM300.973 112.934V80.0342H305.748V108.433H320.644V112.934H300.973ZM334.096 113.619C331.644 113.619 329.489 113.086 327.63 112.02C325.787 110.938 324.348 109.438 323.312 107.519C322.292 105.585 321.782 103.346 321.782 100.802C321.782 98.106 322.284 95.768 323.29 93.7879C324.31 91.8079 325.727 90.2772 327.539 89.1957C329.352 88.1143 331.461 87.5736 333.868 87.5736C336.381 87.5736 338.521 88.16 340.288 89.3328C342.054 90.4904 343.372 92.143 344.24 94.2906C345.124 96.4382 345.474 98.9894 345.291 101.944H340.516V100.208C340.486 97.3444 339.937 95.2273 338.871 93.8565C337.82 92.4857 336.213 91.8003 334.05 91.8003C331.659 91.8003 329.862 92.5542 328.659 94.0621C327.455 95.57 326.854 97.7481 326.854 100.596C326.854 103.307 327.455 105.409 328.659 106.902C329.862 108.379 331.598 109.118 333.868 109.118C335.36 109.118 336.647 108.783 337.729 108.113C338.825 107.428 339.678 106.453 340.288 105.189L344.971 106.674C344.012 108.882 342.557 110.596 340.607 111.814C338.658 113.017 336.487 113.619 334.096 113.619ZM325.3 101.944V98.2202H342.915V101.944H325.3ZM363.165 112.934C361.612 113.238 360.089 113.368 358.596 113.322C357.103 113.276 355.771 112.987 354.598 112.454C353.425 111.921 352.542 111.083 351.948 109.941C351.415 108.92 351.125 107.884 351.08 106.833C351.049 105.767 351.034 104.564 351.034 103.224V81.405H355.832V102.995C355.832 103.985 355.839 104.846 355.855 105.577C355.885 106.308 356.045 106.925 356.334 107.428C356.883 108.372 357.751 108.913 358.939 109.05C360.142 109.171 361.551 109.118 363.165 108.89V112.934ZM346.305 92.0973V88.259H363.165V92.0973H346.305ZM366.997 112.934V88.259H371.246V94.2449L370.652 93.4681C370.957 92.6761 371.353 91.9526 371.84 91.2976C372.328 90.6275 372.891 90.0791 373.531 89.6527C374.156 89.1957 374.849 88.8454 375.61 88.6017C376.387 88.3428 377.179 88.1905 377.986 88.1448C378.794 88.0839 379.57 88.1219 380.317 88.259V92.737C379.509 92.5238 378.611 92.4628 377.621 92.5542C376.646 92.6456 375.747 92.9578 374.925 93.4909C374.148 93.9936 373.531 94.6028 373.074 95.3187C372.633 96.0346 372.313 96.8342 372.115 97.7176C371.917 98.5858 371.818 99.5073 371.818 100.482V112.934H366.997ZM389.551 113.619C387.723 113.619 386.193 113.284 384.959 112.614C383.725 111.928 382.788 111.03 382.149 109.918C381.524 108.791 381.212 107.557 381.212 106.217C381.212 104.968 381.433 103.871 381.875 102.927C382.316 101.982 382.971 101.183 383.839 100.528C384.708 99.8576 385.774 99.3169 387.038 98.9056C388.135 98.5858 389.376 98.304 390.762 98.0603C392.148 97.8166 393.603 97.5881 395.126 97.3749C396.664 97.1617 398.187 96.9484 399.695 96.7352L397.959 97.6948C397.989 95.7604 397.578 94.3287 396.725 93.3996C395.887 92.4552 394.44 91.983 392.384 91.983C391.089 91.983 389.901 92.2877 388.82 92.8969C387.739 93.4909 386.985 94.481 386.558 95.867L382.103 94.4962C382.712 92.3791 383.87 90.696 385.576 89.4471C387.297 88.1981 389.582 87.5736 392.43 87.5736C394.638 87.5736 396.557 87.9544 398.187 88.716C399.832 89.4623 401.035 90.6503 401.797 92.2801C402.193 93.0873 402.437 93.9403 402.528 94.8389C402.619 95.7375 402.665 96.7047 402.665 97.7404V112.934H398.439V107.29L399.261 108.022C398.241 109.91 396.938 111.319 395.354 112.248C393.785 113.162 391.851 113.619 389.551 113.619ZM390.396 109.712C391.752 109.712 392.917 109.476 393.892 109.004C394.867 108.517 395.651 107.9 396.245 107.153C396.839 106.407 397.228 105.63 397.41 104.823C397.669 104.092 397.814 103.269 397.844 102.356C397.89 101.442 397.913 100.711 397.913 100.162L399.467 100.733C397.959 100.962 396.588 101.167 395.354 101.35C394.12 101.533 393.001 101.716 391.996 101.899C391.006 102.066 390.122 102.272 389.345 102.515C388.691 102.744 388.104 103.018 387.586 103.338C387.084 103.658 386.68 104.046 386.375 104.503C386.086 104.96 385.941 105.516 385.941 106.171C385.941 106.811 386.101 107.405 386.421 107.953C386.741 108.486 387.228 108.913 387.883 109.232C388.538 109.552 389.376 109.712 390.396 109.712ZM416.663 113.596C413.662 113.596 411.218 112.934 409.329 111.608C407.44 110.283 406.283 108.418 405.856 106.011L410.745 105.257C411.05 106.536 411.751 107.549 412.847 108.296C413.959 109.027 415.338 109.392 416.983 109.392C418.475 109.392 419.64 109.088 420.478 108.478C421.331 107.869 421.758 107.031 421.758 105.965C421.758 105.341 421.605 104.838 421.301 104.457C421.011 104.061 420.394 103.688 419.45 103.338C418.506 102.988 417.066 102.554 415.132 102.036C413.015 101.487 411.332 100.901 410.083 100.276C408.849 99.6367 407.966 98.898 407.433 98.0603C406.915 97.2074 406.656 96.1792 406.656 94.976C406.656 93.4833 407.052 92.1811 407.844 91.0692C408.636 89.9573 409.748 89.0967 411.18 88.4875C412.626 87.8782 414.317 87.5736 416.252 87.5736C418.14 87.5736 419.823 87.8706 421.301 88.4646C422.778 89.0587 423.974 89.904 424.888 91.0006C425.802 92.0821 426.35 93.3539 426.533 94.8161L421.643 95.7071C421.476 94.519 420.92 93.5823 419.976 92.8969C419.031 92.2115 417.805 91.8384 416.297 91.7774C414.85 91.7165 413.677 91.9602 412.779 92.5085C411.88 93.0416 411.431 93.7803 411.431 94.7247C411.431 95.273 411.598 95.7375 411.933 96.1183C412.284 96.4991 412.954 96.8647 413.944 97.215C414.934 97.5653 416.396 97.9841 418.331 98.4715C420.402 99.0046 422.047 99.5987 423.266 100.254C424.484 100.893 425.352 101.662 425.87 102.561C426.403 103.445 426.67 104.518 426.67 105.783C426.67 108.22 425.779 110.131 423.997 111.517C422.23 112.903 419.785 113.596 416.663 113.596Z" fill="#030303"/>
<path d="M51.2811 155.984C49.222 155.984 47.4742 155.529 46.0377 154.619C44.6012 153.709 43.5046 152.445 42.748 150.827C42.001 149.208 41.6275 147.336 41.6275 145.21C41.6275 143.084 42.001 141.211 42.748 139.593C43.5046 137.974 44.6012 136.71 46.0377 135.8C47.4742 134.891 49.222 134.436 51.2811 134.436C53.6753 134.436 55.6434 135.044 57.1852 136.26C58.7367 137.476 59.8045 139.114 60.3887 141.173L57.7886 141.863C57.3672 140.321 56.6154 139.104 55.5332 138.214C54.451 137.323 53.0336 136.878 51.2811 136.878C49.7392 136.878 48.4559 137.227 47.4312 137.926C46.4064 138.626 45.6355 139.602 45.1183 140.857C44.6012 142.102 44.3378 143.553 44.3282 145.21C44.3187 146.857 44.5724 148.308 45.0896 149.562C45.6068 150.807 46.3825 151.784 47.4168 152.493C48.4511 153.192 49.7392 153.542 51.2811 153.542C53.0336 153.542 54.451 153.096 55.5332 152.206C56.6154 151.305 57.3672 150.089 57.7886 148.557L60.3887 149.246C59.8045 151.296 58.7367 152.933 57.1852 154.159C55.6434 155.376 53.6753 155.984 51.2811 155.984ZM68.5671 155.955C67.5711 155.955 66.714 155.797 65.9957 155.481C65.287 155.165 64.698 154.743 64.2287 154.217C63.7595 153.69 63.3908 153.106 63.1226 152.464C62.8545 151.823 62.6629 151.167 62.548 150.496C62.4427 149.826 62.39 149.198 62.39 148.614V140.038H64.9757V147.81C64.9757 148.538 65.0428 149.242 65.1769 149.922C65.3109 150.601 65.536 151.214 65.852 151.76C66.1776 152.306 66.6086 152.737 67.1449 153.053C67.6908 153.369 68.3708 153.527 69.1848 153.527C69.8264 153.527 70.4106 153.417 70.9374 153.197C71.4641 152.977 71.9142 152.651 72.2877 152.22C72.6612 151.779 72.9485 151.224 73.1496 150.554C73.3508 149.883 73.4513 149.103 73.4513 148.212L75.1321 148.729C75.1321 150.223 74.8591 151.511 74.3132 152.593C73.7769 153.676 73.0156 154.509 72.0291 155.093C71.0523 155.668 69.8983 155.955 68.5671 155.955ZM73.7386 155.553V151.401H73.4513V140.038H76.0227V155.553H73.7386ZM79.4702 137.294V134.651H82.0272V137.294H79.4702ZM79.4702 155.553V140.038H82.0272V155.553H79.4702ZM91.5665 155.984C90.1204 155.984 88.8802 155.625 87.8458 154.906C86.8115 154.178 86.0119 153.197 85.4468 151.961C84.8914 150.726 84.6136 149.333 84.6136 147.781C84.6136 146.23 84.8914 144.836 85.4468 143.601C86.0119 142.365 86.8115 141.393 87.8458 140.685C88.8802 139.966 90.1156 139.607 91.5521 139.607C93.0174 139.607 94.248 139.962 95.244 140.67C96.24 141.379 96.9918 142.351 97.4994 143.586C98.0165 144.822 98.2751 146.22 98.2751 147.781C98.2751 149.323 98.0165 150.716 97.4994 151.961C96.9918 153.197 96.24 154.178 95.244 154.906C94.248 155.625 93.0222 155.984 91.5665 155.984ZM91.8825 153.642C92.9264 153.642 93.7835 153.393 94.4539 152.895C95.1243 152.388 95.6175 151.693 95.9335 150.812C96.2592 149.922 96.422 148.911 96.422 147.781C96.422 146.632 96.2592 145.621 95.9335 144.75C95.6175 143.869 95.1291 143.184 94.4683 142.696C93.8075 142.198 92.9695 141.949 91.9543 141.949C90.9009 141.949 90.0294 142.207 89.3398 142.724C88.6599 143.242 88.1523 143.941 87.8171 144.822C87.4915 145.703 87.3287 146.689 87.3287 147.781C87.3287 148.882 87.4963 149.878 87.8315 150.769C88.1667 151.65 88.6695 152.349 89.3398 152.866C90.0198 153.384 90.8674 153.642 91.8825 153.642ZM96.422 155.553V144.132H96.1347V134.867H98.7061V155.553H96.422ZM106.279 155.984C105.12 155.984 104.148 155.773 103.363 155.352C102.587 154.921 101.998 154.356 101.596 153.657C101.203 152.957 101.007 152.191 101.007 151.358C101.007 150.544 101.16 149.84 101.467 149.246C101.783 148.643 102.223 148.145 102.788 147.752C103.353 147.35 104.029 147.034 104.814 146.804C105.551 146.603 106.375 146.431 107.285 146.287C108.204 146.134 109.133 145.995 110.072 145.87C111.01 145.746 111.886 145.626 112.7 145.511L111.781 146.043C111.81 144.664 111.532 143.644 110.948 142.983C110.373 142.322 109.377 141.992 107.96 141.992C107.021 141.992 106.198 142.207 105.489 142.638C104.79 143.06 104.297 143.749 104.009 144.707L101.582 143.974C101.955 142.614 102.678 141.547 103.751 140.771C104.823 139.995 106.236 139.607 107.989 139.607C109.396 139.607 110.603 139.861 111.609 140.369C112.624 140.867 113.352 141.623 113.792 142.638C114.012 143.117 114.151 143.639 114.209 144.204C114.266 144.76 114.295 145.344 114.295 145.957V155.553H112.025V151.832L112.557 152.177C111.973 153.431 111.154 154.38 110.1 155.021C109.056 155.663 107.783 155.984 106.279 155.984ZM106.667 153.843C107.586 153.843 108.381 153.68 109.052 153.355C109.732 153.02 110.277 152.584 110.689 152.048C111.101 151.502 111.369 150.908 111.494 150.266C111.637 149.787 111.714 149.256 111.724 148.672C111.743 148.078 111.752 147.623 111.752 147.307L112.643 147.695C111.81 147.81 110.991 147.92 110.186 148.025C109.382 148.131 108.621 148.246 107.902 148.37C107.184 148.485 106.538 148.624 105.963 148.787C105.542 148.921 105.144 149.093 104.771 149.304C104.407 149.514 104.11 149.787 103.88 150.123C103.66 150.448 103.55 150.855 103.55 151.344C103.55 151.765 103.655 152.167 103.866 152.55C104.086 152.933 104.421 153.245 104.871 153.484C105.331 153.724 105.93 153.843 106.667 153.843ZM123.259 155.984C121.813 155.984 120.573 155.625 119.538 154.906C118.504 154.178 117.704 153.197 117.139 151.961C116.584 150.726 116.306 149.333 116.306 147.781C116.306 146.23 116.584 144.836 117.139 143.601C117.704 142.365 118.504 141.393 119.538 140.685C120.573 139.966 121.808 139.607 123.245 139.607C124.71 139.607 125.94 139.962 126.936 140.67C127.932 141.379 128.684 142.351 129.192 143.586C129.709 144.822 129.968 146.22 129.968 147.781C129.968 149.323 129.709 150.716 129.192 151.961C128.684 153.197 127.932 154.178 126.936 154.906C125.94 155.625 124.715 155.984 123.259 155.984ZM123.575 153.642C124.619 153.642 125.476 153.393 126.146 152.895C126.817 152.388 127.31 151.693 127.626 150.812C127.952 149.922 128.114 148.911 128.114 147.781C128.114 146.632 127.952 145.621 127.626 144.75C127.31 143.869 126.822 143.184 126.161 142.696C125.5 142.198 124.662 141.949 123.647 141.949C122.593 141.949 121.722 142.207 121.032 142.724C120.352 143.242 119.845 143.941 119.51 144.822C119.184 145.703 119.021 146.689 119.021 147.781C119.021 148.882 119.189 149.878 119.524 150.769C119.859 151.65 120.362 152.349 121.032 152.866C121.712 153.384 122.56 153.642 123.575 153.642ZM128.114 155.553V144.132H127.827V134.867H130.399V155.553H128.114ZM142.043 155.553V138.645L138.164 141.015V137.194L142.043 134.867H145.576V155.553H142.043ZM157.628 155.984C156.163 155.984 154.87 155.672 153.75 155.05C152.629 154.418 151.753 153.542 151.121 152.421C150.498 151.301 150.187 150.008 150.187 148.542V141.877C150.187 140.412 150.498 139.119 151.121 137.998C151.753 136.878 152.629 136.006 153.75 135.384C154.87 134.752 156.163 134.436 157.628 134.436C159.094 134.436 160.382 134.752 161.493 135.384C162.613 136.006 163.489 136.878 164.121 137.998C164.753 139.119 165.07 140.412 165.07 141.877V148.542C165.07 150.008 164.753 151.301 164.121 152.421C163.489 153.542 162.613 154.418 161.493 155.05C160.382 155.672 159.094 155.984 157.628 155.984ZM157.628 152.694C158.356 152.694 159.017 152.522 159.611 152.177C160.204 151.823 160.674 151.353 161.019 150.769C161.363 150.175 161.536 149.514 161.536 148.787V141.618C161.536 140.881 161.363 140.22 161.019 139.636C160.674 139.042 160.204 138.573 159.611 138.228C159.017 137.874 158.356 137.697 157.628 137.697C156.9 137.697 156.24 137.874 155.646 138.228C155.052 138.573 154.583 139.042 154.238 139.636C153.893 140.22 153.721 140.881 153.721 141.618V148.787C153.721 149.514 153.893 150.175 154.238 150.769C154.583 151.353 155.052 151.823 155.646 152.177C156.24 152.522 156.9 152.694 157.628 152.694ZM175.39 155.984C174.039 155.984 172.823 155.668 171.741 155.036C170.668 154.394 169.816 153.508 169.184 152.378C168.552 151.248 168.236 149.95 168.236 148.485V142.193C168.236 140.622 168.547 139.258 169.17 138.099C169.802 136.94 170.683 136.045 171.813 135.412C172.952 134.78 174.274 134.464 175.778 134.464C176.821 134.464 177.813 134.642 178.751 134.996C179.69 135.341 180.523 135.896 181.251 136.662L178.751 139.09C178.387 138.659 177.942 138.319 177.415 138.07C176.898 137.821 176.352 137.697 175.778 137.697C174.973 137.697 174.269 137.888 173.666 138.271C173.063 138.645 172.593 139.138 172.258 139.751C171.932 140.364 171.77 141.02 171.77 141.719V145.152L171.138 144.463C171.731 143.773 172.445 143.237 173.278 142.854C174.111 142.461 174.983 142.265 175.892 142.265C177.195 142.265 178.344 142.562 179.34 143.155C180.336 143.74 181.121 144.544 181.696 145.569C182.271 146.584 182.558 147.743 182.558 149.045C182.558 150.338 182.228 151.511 181.567 152.565C180.916 153.609 180.049 154.442 178.967 155.064C177.884 155.677 176.692 155.984 175.39 155.984ZM175.39 152.665C176.06 152.665 176.673 152.507 177.228 152.191C177.784 151.866 178.224 151.43 178.55 150.884C178.885 150.329 179.053 149.716 179.053 149.045C179.053 148.375 178.89 147.762 178.564 147.206C178.239 146.651 177.798 146.21 177.243 145.885C176.697 145.55 176.089 145.382 175.418 145.382C174.748 145.382 174.135 145.55 173.58 145.885C173.024 146.21 172.584 146.651 172.258 147.206C171.932 147.762 171.77 148.375 171.77 149.045C171.77 149.696 171.928 150.3 172.244 150.855C172.569 151.401 173.005 151.842 173.551 152.177C174.106 152.502 174.719 152.665 175.39 152.665ZM185.793 155.553V152.004H189.341V155.553H185.793ZM193.223 155.553V138.645L189.344 141.015V137.194L193.223 134.867H196.756V155.553H193.223ZM206.257 155.553V134.867H218.324V137.424H208.814V143.931H216.6V146.488H208.814V155.553H206.257ZM220.041 155.553V134.867H222.368L230.183 151.344L237.954 134.867H240.31V155.538H237.883V140.483L230.858 155.553H229.493L222.469 140.483V155.553H220.041Z" fill="#030303"/>
<path d="M128.495 205.311V203.294C129.697 202.339 130.847 201.375 131.944 200.402C133.04 199.43 134.013 198.474 134.862 197.537C135.729 196.582 136.41 195.653 136.905 194.751C137.4 193.832 137.648 192.947 137.648 192.098C137.648 191.532 137.551 191.002 137.356 190.506C137.161 189.993 136.843 189.587 136.401 189.286C135.959 188.968 135.366 188.808 134.623 188.808C133.509 188.808 132.669 189.162 132.103 189.87C131.555 190.577 131.289 191.426 131.307 192.417H128.574C128.592 191.108 128.866 190.011 129.397 189.127C129.945 188.242 130.67 187.57 131.572 187.11C132.492 186.651 133.527 186.421 134.676 186.421C136.427 186.421 137.825 186.916 138.868 187.906C139.929 188.879 140.46 190.241 140.46 191.992C140.46 193.036 140.204 194.07 139.691 195.096C139.195 196.122 138.541 197.113 137.727 198.068C136.931 199.005 136.074 199.889 135.154 200.721C134.234 201.552 133.359 202.304 132.527 202.976H141.017V205.311H128.495ZM150.053 205.629C148.815 205.629 147.692 205.408 146.683 204.966C145.693 204.506 144.897 203.869 144.296 203.055C143.712 202.242 143.42 201.287 143.42 200.19C143.42 199.076 143.73 198.076 144.349 197.192C144.985 196.308 145.826 195.706 146.869 195.388C145.932 195.017 145.206 194.477 144.694 193.77C144.181 193.044 143.924 192.249 143.924 191.382C143.924 190.48 144.163 189.657 144.64 188.915C145.118 188.154 145.808 187.553 146.71 187.11C147.63 186.651 148.744 186.421 150.053 186.421C151.362 186.421 152.467 186.651 153.369 187.11C154.289 187.553 154.987 188.154 155.465 188.915C155.943 189.657 156.181 190.48 156.181 191.382C156.181 192.231 155.916 193.027 155.385 193.77C154.873 194.495 154.147 195.034 153.21 195.388C154.253 195.724 155.085 196.334 155.704 197.219C156.341 198.085 156.659 199.076 156.659 200.19C156.659 201.287 156.367 202.242 155.783 203.055C155.2 203.869 154.404 204.506 153.396 204.966C152.405 205.408 151.291 205.629 150.053 205.629ZM150.053 194.486C151.079 194.486 151.883 194.221 152.467 193.69C153.068 193.159 153.369 192.479 153.369 191.647C153.369 190.71 153.077 189.993 152.494 189.498C151.91 189.003 151.096 188.755 150.053 188.755C149.009 188.755 148.196 189.003 147.612 189.498C147.028 189.993 146.736 190.71 146.736 191.647C146.736 192.479 147.028 193.159 147.612 193.69C148.196 194.221 149.009 194.486 150.053 194.486ZM150.053 203.241C151.326 203.241 152.281 202.94 152.918 202.339C153.555 201.72 153.873 200.933 153.873 199.978C153.873 198.917 153.528 198.103 152.838 197.537C152.166 196.953 151.238 196.662 150.053 196.662C148.868 196.662 147.93 196.953 147.241 197.537C146.551 198.103 146.206 198.917 146.206 199.978C146.206 200.933 146.524 201.72 147.161 202.339C147.815 202.94 148.779 203.241 150.053 203.241ZM172.738 205.629C171.465 205.629 170.342 205.328 169.369 204.727C168.396 204.126 167.636 203.303 167.087 202.26C166.539 201.216 166.265 200.031 166.265 198.704C166.265 197.378 166.539 196.202 167.087 195.176C167.636 194.132 168.396 193.319 169.369 192.735C170.359 192.134 171.491 191.833 172.765 191.833C173.808 191.833 174.719 192.036 175.498 192.443C176.294 192.85 176.913 193.425 177.355 194.168V186.208H180.167V205.311H177.647L177.355 203.268C176.93 203.887 176.347 204.435 175.604 204.913C174.861 205.39 173.906 205.629 172.738 205.629ZM173.243 203.188C174.445 203.188 175.427 202.772 176.187 201.941C176.966 201.11 177.355 200.04 177.355 198.731C177.355 197.404 176.966 196.334 176.187 195.521C175.427 194.689 174.445 194.274 173.243 194.274C172.04 194.274 171.049 194.689 170.271 195.521C169.493 196.334 169.104 197.404 169.104 198.731C169.104 199.598 169.281 200.367 169.634 201.039C169.988 201.711 170.474 202.242 171.094 202.631C171.73 203.002 172.447 203.188 173.243 203.188ZM189.868 205.629C188.577 205.629 187.427 205.346 186.419 204.78C185.428 204.196 184.65 203.391 184.084 202.366C183.518 201.34 183.235 200.146 183.235 198.784C183.235 197.404 183.509 196.193 184.058 195.149C184.624 194.106 185.402 193.292 186.392 192.708C187.401 192.125 188.568 191.833 189.894 191.833C191.186 191.833 192.309 192.125 193.264 192.708C194.219 193.274 194.962 194.035 195.492 194.99C196.023 195.945 196.288 196.998 196.288 198.147C196.288 198.324 196.28 198.519 196.262 198.731C196.262 198.925 196.253 199.147 196.235 199.394H185.994C186.083 200.668 186.499 201.64 187.241 202.313C188.002 202.967 188.877 203.294 189.868 203.294C190.664 203.294 191.327 203.117 191.858 202.764C192.406 202.392 192.813 201.897 193.078 201.278H195.89C195.537 202.516 194.829 203.551 193.768 204.382C192.724 205.213 191.424 205.629 189.868 205.629ZM189.868 194.141C188.931 194.141 188.099 194.424 187.374 194.99C186.649 195.538 186.207 196.37 186.048 197.484H193.476C193.423 196.458 193.06 195.645 192.388 195.043C191.716 194.442 190.876 194.141 189.868 194.141ZM204.803 205.311L211.648 186.739H214.726L221.517 205.311H218.546L216.954 200.774H209.366L207.775 205.311H204.803ZM210.162 198.545H216.158L213.16 190.082L210.162 198.545ZM229.387 201.278C228.697 201.278 228.06 201.198 227.477 201.039L226.336 202.153C226.53 202.277 226.769 202.383 227.052 202.472C227.335 202.56 227.733 202.64 228.246 202.711C228.759 202.781 229.458 202.852 230.342 202.923C232.093 203.082 233.358 203.506 234.136 204.196C234.914 204.868 235.303 205.77 235.303 206.902C235.303 207.681 235.091 208.415 234.667 209.104C234.26 209.812 233.614 210.378 232.73 210.802C231.863 211.245 230.749 211.466 229.387 211.466C227.547 211.466 226.053 211.112 224.903 210.404C223.771 209.715 223.205 208.662 223.205 207.247C223.205 206.699 223.347 206.151 223.63 205.602C223.93 205.072 224.399 204.568 225.036 204.09C224.664 203.931 224.337 203.763 224.054 203.586C223.789 203.391 223.55 203.197 223.338 203.002V202.366L225.62 200.031C224.594 199.147 224.081 197.988 224.081 196.555C224.081 195.689 224.284 194.902 224.691 194.194C225.115 193.469 225.726 192.894 226.522 192.47C227.318 192.045 228.273 191.833 229.387 191.833C230.13 191.833 230.82 191.939 231.456 192.151H236.365V194.008L234.03 194.141C234.454 194.866 234.667 195.671 234.667 196.555C234.667 197.44 234.454 198.236 234.03 198.943C233.623 199.651 233.022 200.217 232.226 200.641C231.447 201.066 230.501 201.278 229.387 201.278ZM229.387 199.076C230.201 199.076 230.855 198.864 231.35 198.439C231.863 197.997 232.12 197.378 232.12 196.582C232.12 195.768 231.863 195.149 231.35 194.725C230.855 194.3 230.201 194.088 229.387 194.088C228.556 194.088 227.884 194.3 227.371 194.725C226.875 195.149 226.628 195.768 226.628 196.582C226.628 197.378 226.875 197.997 227.371 198.439C227.884 198.864 228.556 199.076 229.387 199.076ZM225.858 206.982C225.858 207.743 226.194 208.309 226.867 208.68C227.539 209.069 228.379 209.264 229.387 209.264C230.36 209.264 231.147 209.051 231.748 208.627C232.35 208.22 232.65 207.672 232.65 206.982C232.65 206.469 232.447 206.027 232.04 205.655C231.633 205.302 230.864 205.081 229.732 204.992C228.883 204.939 228.131 204.86 227.477 204.753C226.858 205.089 226.433 205.452 226.203 205.841C225.973 206.23 225.858 206.611 225.858 206.982ZM244.51 205.629C243.254 205.629 242.122 205.346 241.114 204.78C240.123 204.196 239.336 203.391 238.753 202.366C238.169 201.322 237.877 200.111 237.877 198.731C237.877 197.351 238.169 196.149 238.753 195.123C239.354 194.079 240.159 193.274 241.167 192.708C242.175 192.125 243.298 191.833 244.536 191.833C245.792 191.833 246.915 192.125 247.906 192.708C248.914 193.274 249.71 194.079 250.294 195.123C250.895 196.149 251.196 197.351 251.196 198.731C251.196 200.111 250.895 201.322 250.294 202.366C249.71 203.391 248.914 204.196 247.906 204.78C246.898 205.346 245.766 205.629 244.51 205.629ZM244.51 203.215C245.182 203.215 245.801 203.047 246.367 202.711C246.951 202.374 247.419 201.879 247.773 201.225C248.127 200.553 248.304 199.721 248.304 198.731C248.304 197.74 248.127 196.918 247.773 196.264C247.437 195.591 246.977 195.087 246.394 194.751C245.828 194.415 245.209 194.247 244.536 194.247C243.864 194.247 243.236 194.415 242.653 194.751C242.087 195.087 241.627 195.591 241.273 196.264C240.919 196.918 240.743 197.74 240.743 198.731C240.743 199.721 240.919 200.553 241.273 201.225C241.627 201.879 242.087 202.374 242.653 202.711C243.219 203.047 243.838 203.215 244.51 203.215ZM259.49 205.629C257.827 205.629 256.457 205.222 255.378 204.409C254.299 203.595 253.68 202.516 253.521 201.172H256.359C256.501 201.773 256.837 202.295 257.368 202.737C257.898 203.162 258.597 203.374 259.463 203.374C260.312 203.374 260.932 203.197 261.321 202.843C261.71 202.489 261.904 202.083 261.904 201.623C261.904 200.951 261.63 200.5 261.082 200.27C260.551 200.022 259.808 199.801 258.853 199.606C258.11 199.447 257.368 199.235 256.625 198.97C255.9 198.704 255.289 198.333 254.794 197.855C254.317 197.36 254.078 196.697 254.078 195.866C254.078 194.716 254.52 193.761 255.404 193C256.289 192.222 257.527 191.833 259.119 191.833C260.587 191.833 261.772 192.187 262.674 192.894C263.593 193.602 264.133 194.601 264.292 195.892H261.586C261.497 195.326 261.232 194.884 260.79 194.566C260.366 194.247 259.791 194.088 259.066 194.088C258.358 194.088 257.81 194.238 257.421 194.539C257.031 194.822 256.837 195.193 256.837 195.653C256.837 196.113 257.102 196.476 257.633 196.741C258.181 197.006 258.897 197.245 259.782 197.457C260.666 197.652 261.48 197.882 262.223 198.147C262.983 198.395 263.593 198.766 264.053 199.262C264.513 199.757 264.743 200.482 264.743 201.437C264.761 202.64 264.292 203.639 263.337 204.435C262.4 205.231 261.117 205.629 259.49 205.629ZM272.839 205.311C271.548 205.311 270.522 205.001 269.762 204.382C269.001 203.745 268.621 202.622 268.621 201.013V194.513H266.366V192.151H268.621L268.966 188.808H271.433V192.151H275.147V194.513H271.433V201.013C271.433 201.738 271.584 202.242 271.884 202.525C272.203 202.79 272.742 202.923 273.503 202.923H275.015V205.311H272.839ZM283.866 205.629C282.61 205.629 281.478 205.346 280.47 204.78C279.479 204.196 278.692 203.391 278.108 202.366C277.525 201.322 277.233 200.111 277.233 198.731C277.233 197.351 277.525 196.149 278.108 195.123C278.71 194.079 279.514 193.274 280.523 192.708C281.531 192.125 282.654 191.833 283.892 191.833C285.148 191.833 286.271 192.125 287.261 192.708C288.27 193.274 289.066 194.079 289.649 195.123C290.251 196.149 290.551 197.351 290.551 198.731C290.551 200.111 290.251 201.322 289.649 202.366C289.066 203.391 288.27 204.196 287.261 204.78C286.253 205.346 285.121 205.629 283.866 205.629ZM283.866 203.215C284.538 203.215 285.157 203.047 285.723 202.711C286.306 202.374 286.775 201.879 287.129 201.225C287.483 200.553 287.659 199.721 287.659 198.731C287.659 197.74 287.483 196.918 287.129 196.264C286.793 195.591 286.333 195.087 285.749 194.751C285.183 194.415 284.564 194.247 283.892 194.247C283.22 194.247 282.592 194.415 282.008 194.751C281.442 195.087 280.983 195.591 280.629 196.264C280.275 196.918 280.098 197.74 280.098 198.731C280.098 199.721 280.275 200.553 280.629 201.225C280.983 201.879 281.442 202.374 282.008 202.711C282.574 203.047 283.193 203.215 283.866 203.215ZM134.809 237.629C133.606 237.629 132.51 237.417 131.519 236.992C130.546 236.55 129.768 235.887 129.184 235.002C128.601 234.118 128.291 233.013 128.256 231.686H131.042C131.077 232.677 131.413 233.517 132.05 234.206C132.704 234.879 133.624 235.215 134.809 235.215C135.941 235.215 136.808 234.905 137.409 234.286C138.01 233.649 138.311 232.862 138.311 231.925C138.311 230.793 137.904 229.953 137.091 229.404C136.295 228.856 135.313 228.582 134.146 228.582H132.766V226.247H134.172C135.216 226.247 136.056 226 136.693 225.504C137.347 225.009 137.674 224.31 137.674 223.408C137.674 222.648 137.418 222.029 136.905 221.551C136.41 221.074 135.702 220.835 134.782 220.835C133.827 220.835 133.076 221.118 132.527 221.684C131.979 222.232 131.678 222.922 131.625 223.753H128.84C128.875 222.674 129.14 221.737 129.635 220.941C130.148 220.145 130.847 219.526 131.731 219.084C132.616 218.642 133.633 218.421 134.782 218.421C136.021 218.421 137.055 218.642 137.887 219.084C138.736 219.508 139.372 220.092 139.797 220.835C140.239 221.56 140.46 222.356 140.46 223.223C140.46 224.213 140.186 225.08 139.638 225.823C139.089 226.566 138.355 227.061 137.436 227.308C138.497 227.538 139.372 228.06 140.062 228.874C140.752 229.67 141.097 230.704 141.097 231.978C141.097 233.004 140.858 233.95 140.38 234.817C139.903 235.666 139.195 236.347 138.258 236.86C137.321 237.372 136.171 237.629 134.809 237.629ZM145.575 237.47C145.044 237.47 144.602 237.302 144.249 236.966C143.912 236.612 143.744 236.196 143.744 235.719C143.744 235.223 143.912 234.808 144.249 234.472C144.602 234.118 145.044 233.941 145.575 233.941C146.106 233.941 146.539 234.118 146.875 234.472C147.211 234.808 147.379 235.223 147.379 235.719C147.379 236.196 147.211 236.612 146.875 236.966C146.539 237.302 146.106 237.47 145.575 237.47ZM145.575 227.362C145.044 227.362 144.602 227.193 144.249 226.857C143.912 226.504 143.744 226.088 143.744 225.61C143.744 225.115 143.912 224.7 144.249 224.364C144.602 224.01 145.044 223.833 145.575 223.833C146.106 223.833 146.539 224.01 146.875 224.364C147.211 224.7 147.379 225.115 147.379 225.61C147.379 226.088 147.211 226.504 146.875 226.857C146.539 227.193 146.106 227.362 145.575 227.362ZM157.825 237.629C156.145 237.629 154.694 237.231 153.474 236.435C152.271 235.621 151.343 234.498 150.688 233.066C150.052 231.615 149.733 229.935 149.733 228.025C149.733 226.115 150.052 224.443 150.688 223.01C151.343 221.56 152.271 220.437 153.474 219.641C154.694 218.827 156.145 218.421 157.825 218.421C159.505 218.421 160.947 218.827 162.15 219.641C163.352 220.437 164.272 221.56 164.909 223.01C165.563 224.443 165.89 226.115 165.89 228.025C165.89 229.935 165.563 231.615 164.909 233.066C164.272 234.498 163.352 235.621 162.15 236.435C160.947 237.231 159.505 237.629 157.825 237.629ZM157.825 235.108C158.833 235.108 159.726 234.826 160.505 234.26C161.301 233.694 161.92 232.88 162.362 231.819C162.804 230.757 163.025 229.493 163.025 228.025C163.025 226.557 162.804 225.292 162.362 224.231C161.92 223.17 161.301 222.356 160.505 221.79C159.726 221.224 158.833 220.941 157.825 220.941C156.799 220.941 155.897 221.224 155.119 221.79C154.341 222.356 153.73 223.17 153.288 224.231C152.846 225.292 152.625 226.557 152.625 228.025C152.625 229.493 152.846 230.757 153.288 231.819C153.73 232.88 154.341 233.694 155.119 234.26C155.897 234.826 156.799 235.108 157.825 235.108ZM176.454 237.629C174.773 237.629 173.323 237.231 172.103 236.435C170.9 235.621 169.971 234.498 169.317 233.066C168.68 231.615 168.362 229.935 168.362 228.025C168.362 226.115 168.68 224.443 169.317 223.01C169.971 221.56 170.9 220.437 172.103 219.641C173.323 218.827 174.773 218.421 176.454 218.421C178.134 218.421 179.575 218.827 180.778 219.641C181.981 220.437 182.901 221.56 183.537 223.01C184.192 224.443 184.519 226.115 184.519 228.025C184.519 229.935 184.192 231.615 183.537 233.066C182.901 234.498 181.981 235.621 180.778 236.435C179.575 237.231 178.134 237.629 176.454 237.629ZM176.454 235.108C177.462 235.108 178.355 234.826 179.133 234.26C179.929 233.694 180.548 232.88 180.99 231.819C181.432 230.757 181.654 229.493 181.654 228.025C181.654 226.557 181.432 225.292 180.99 224.231C180.548 223.17 179.929 222.356 179.133 221.79C178.355 221.224 177.462 220.941 176.454 220.941C175.428 220.941 174.526 221.224 173.747 221.79C172.969 222.356 172.359 223.17 171.917 224.231C171.475 225.292 171.254 226.557 171.254 228.025C171.254 229.493 171.475 230.757 171.917 231.819C172.359 232.88 172.969 233.694 173.747 234.26C174.526 234.826 175.428 235.108 176.454 235.108ZM194.232 243.147V224.151H196.752L197.044 226.194C197.469 225.575 198.052 225.027 198.795 224.549C199.538 224.072 200.493 223.833 201.66 223.833C202.934 223.833 204.057 224.134 205.03 224.735C206.003 225.336 206.763 226.159 207.312 227.202C207.877 228.246 208.16 229.431 208.16 230.757C208.16 232.084 207.877 233.269 207.312 234.313C206.763 235.338 206.003 236.152 205.03 236.753C204.057 237.337 202.925 237.629 201.634 237.629C200.608 237.629 199.697 237.426 198.901 237.019C198.123 236.612 197.504 236.037 197.044 235.294V243.147H194.232ZM201.156 235.188C202.359 235.188 203.35 234.781 204.128 233.968C204.906 233.136 205.295 232.057 205.295 230.731C205.295 229.864 205.118 229.095 204.765 228.423C204.411 227.751 203.924 227.229 203.305 226.857C202.686 226.468 201.97 226.274 201.156 226.274C199.954 226.274 198.963 226.689 198.185 227.521C197.424 228.352 197.044 229.422 197.044 230.731C197.044 232.057 197.424 233.136 198.185 233.968C198.963 234.781 199.954 235.188 201.156 235.188ZM211.202 237.311V224.151H213.696L213.935 226.008C214.359 225.336 214.916 224.806 215.606 224.417C216.314 224.027 217.127 223.833 218.047 223.833C220.134 223.833 221.585 224.655 222.398 226.3C222.876 225.54 223.512 224.938 224.308 224.496C225.122 224.054 225.998 223.833 226.935 223.833C228.58 223.833 229.871 224.328 230.808 225.319C231.746 226.309 232.215 227.786 232.215 229.749V237.311H229.402V230.041C229.402 227.494 228.429 226.221 226.484 226.221C225.493 226.221 224.68 226.592 224.043 227.335C223.424 228.078 223.114 229.139 223.114 230.519V237.311H220.302V230.041C220.302 227.494 219.321 226.221 217.357 226.221C216.385 226.221 215.58 226.592 214.943 227.335C214.324 228.078 214.014 229.139 214.014 230.519V237.311H211.202ZM242.189 237.311V218.208H245.002V226.274C245.444 225.513 246.054 224.921 246.832 224.496C247.628 224.054 248.504 223.833 249.459 223.833C251.033 223.833 252.271 224.328 253.173 225.319C254.075 226.309 254.526 227.786 254.526 229.749V237.311H251.74V230.041C251.74 227.494 250.723 226.221 248.689 226.221C247.628 226.221 246.744 226.592 246.036 227.335C245.346 228.078 245.002 229.139 245.002 230.519V237.311H242.189ZM263.993 237.629C262.738 237.629 261.606 237.346 260.597 236.78C259.607 236.196 258.82 235.391 258.236 234.366C257.653 233.322 257.361 232.111 257.361 230.731C257.361 229.351 257.653 228.149 258.236 227.123C258.838 226.079 259.642 225.274 260.651 224.708C261.659 224.125 262.782 223.833 264.02 223.833C265.276 223.833 266.399 224.125 267.389 224.708C268.397 225.274 269.193 226.079 269.777 227.123C270.378 228.149 270.679 229.351 270.679 230.731C270.679 232.111 270.378 233.322 269.777 234.366C269.193 235.391 268.397 236.196 267.389 236.78C266.381 237.346 265.249 237.629 263.993 237.629ZM263.993 235.215C264.666 235.215 265.285 235.047 265.851 234.711C266.434 234.374 266.903 233.879 267.257 233.225C267.61 232.553 267.787 231.721 267.787 230.731C267.787 229.74 267.61 228.918 267.257 228.264C266.921 227.591 266.461 227.087 265.877 226.751C265.311 226.415 264.692 226.247 264.02 226.247C263.348 226.247 262.72 226.415 262.136 226.751C261.57 227.087 261.11 227.591 260.757 228.264C260.403 228.918 260.226 229.74 260.226 230.731C260.226 231.721 260.403 232.553 260.757 233.225C261.11 233.879 261.57 234.374 262.136 234.711C262.702 235.047 263.321 235.215 263.993 235.215ZM273.72 237.311V224.151H276.241L276.48 226.645C276.939 225.779 277.576 225.098 278.39 224.602C279.221 224.089 280.22 223.833 281.388 223.833V226.778H280.618C279.84 226.778 279.142 226.91 278.522 227.176C277.921 227.423 277.435 227.857 277.063 228.476C276.71 229.077 276.533 229.917 276.533 230.996V237.311H273.72ZM288.256 237.629C287.142 237.629 286.222 237.443 285.497 237.072C284.772 236.7 284.232 236.214 283.879 235.613C283.525 234.994 283.348 234.321 283.348 233.596C283.348 232.323 283.843 231.315 284.834 230.572C285.824 229.829 287.239 229.457 289.079 229.457H292.528V229.219C292.528 228.193 292.245 227.423 291.679 226.91C291.13 226.398 290.414 226.141 289.53 226.141C288.751 226.141 288.07 226.336 287.487 226.725C286.921 227.096 286.576 227.653 286.452 228.396H283.64C283.728 227.441 284.047 226.628 284.595 225.955C285.161 225.266 285.868 224.744 286.717 224.39C287.584 224.019 288.53 223.833 289.556 223.833C291.396 223.833 292.819 224.319 293.828 225.292C294.836 226.247 295.34 227.556 295.34 229.219V237.311H292.899L292.66 235.055C292.289 235.781 291.749 236.391 291.042 236.886C290.334 237.381 289.406 237.629 288.256 237.629ZM288.813 235.347C289.574 235.347 290.211 235.17 290.724 234.817C291.254 234.445 291.661 233.959 291.944 233.357C292.245 232.756 292.43 232.093 292.501 231.368H289.37C288.256 231.368 287.46 231.562 286.983 231.951C286.523 232.34 286.293 232.827 286.293 233.411C286.293 234.012 286.514 234.489 286.956 234.843C287.416 235.179 288.035 235.347 288.813 235.347ZM308.991 237.311L304.056 224.151H307.001L310.663 234.631L314.324 224.151H317.242L312.334 237.311H308.991ZM325.035 237.629C323.744 237.629 322.594 237.346 321.586 236.78C320.595 236.196 319.817 235.391 319.251 234.366C318.685 233.34 318.402 232.146 318.402 230.784C318.402 229.404 318.676 228.193 319.225 227.149C319.791 226.106 320.569 225.292 321.559 224.708C322.567 224.125 323.735 223.833 325.061 223.833C326.353 223.833 327.476 224.125 328.431 224.708C329.386 225.274 330.129 226.035 330.659 226.99C331.19 227.945 331.455 228.998 331.455 230.147C331.455 230.324 331.446 230.519 331.429 230.731C331.429 230.925 331.42 231.147 331.402 231.394H321.161C321.25 232.668 321.665 233.64 322.408 234.313C323.169 234.967 324.044 235.294 325.035 235.294C325.831 235.294 326.494 235.117 327.025 234.764C327.573 234.392 327.98 233.897 328.245 233.278H331.057C330.704 234.516 329.996 235.551 328.935 236.382C327.891 237.213 326.591 237.629 325.035 237.629ZM325.035 226.141C324.097 226.141 323.266 226.424 322.541 226.99C321.816 227.538 321.374 228.37 321.214 229.484H328.643C328.59 228.458 328.227 227.645 327.555 227.043C326.883 226.442 326.043 226.141 325.035 226.141Z" fill="black"/>
<g clip-path="url(#clip0_4219_72)">
<rect x="40.7656" y="170.233" width="83.919" height="40.1465" fill="black"/>
<path d="M60.1596 234.898V232.348L66.0777 226.256C67.3984 224.87 68.0587 223.714 68.0587 222.79C68.0587 222.113 67.8441 221.568 67.4149 221.156C67.0022 220.743 66.4656 220.536 65.8053 220.536C64.5012 220.536 63.5355 221.213 62.9082 222.567L60.0358 220.883C60.5805 219.695 61.3647 218.787 62.3882 218.159C63.4117 217.532 64.5342 217.218 65.7558 217.218C67.3241 217.218 68.6695 217.714 69.792 218.704C70.9146 219.678 71.4758 220.999 71.4758 222.666C71.4758 224.465 70.5266 226.314 68.6282 228.213L65.2358 231.605H71.7482V234.898H60.1596ZM83.3707 225.885C84.972 226.843 85.7726 228.237 85.7726 230.07C85.7726 231.671 85.2113 232.934 84.0888 233.858C82.9828 234.783 81.4723 235.245 79.5573 235.245C77.6259 235.245 76.1072 234.783 75.0011 233.858C73.8951 232.934 73.3421 231.671 73.3421 230.07C73.3421 228.237 74.1345 226.843 75.7192 225.885C74.5141 225.01 73.9116 223.813 73.9116 222.295C73.9116 220.693 74.4481 219.447 75.5211 218.555C76.6107 217.664 77.9561 217.218 79.5573 217.218C81.1586 217.218 82.4958 217.664 83.5688 218.555C84.6418 219.447 85.1783 220.693 85.1783 222.295C85.1783 223.83 84.5758 225.027 83.3707 225.885ZM81.1669 220.982C80.7542 220.619 80.2177 220.437 79.5573 220.437C78.897 220.437 78.3605 220.619 77.9478 220.982C77.5351 221.345 77.3288 221.841 77.3288 222.468C77.3288 223.095 77.5351 223.599 77.9478 223.978C78.3605 224.342 78.897 224.523 79.5573 224.523C80.2177 224.523 80.7542 224.342 81.1669 223.978C81.5796 223.599 81.7859 223.095 81.7859 222.468C81.7859 221.841 81.5796 221.345 81.1669 220.982ZM77.5021 231.407C78.0304 231.82 78.7154 232.026 79.5573 232.026C80.3993 232.026 81.0761 231.82 81.5878 231.407C82.1161 230.978 82.3802 230.383 82.3802 229.624C82.3802 228.881 82.1161 228.303 81.5878 227.891C81.0761 227.462 80.3993 227.247 79.5573 227.247C78.7154 227.247 78.0304 227.462 77.5021 227.891C76.9903 228.303 76.7345 228.881 76.7345 229.624C76.7345 230.383 76.9903 230.978 77.5021 231.407Z" fill="black"/>
<path d="M61.6406 201.428L60.8977 199.199H55.963L55.2201 201.428H52.5848L56.9181 189.047H59.9426L64.2937 201.428H61.6406ZM56.7412 196.918H60.1372L58.4392 191.859L56.7412 196.918ZM77.1978 194.777V195.732C77.1978 197.501 76.6318 198.934 75.4999 200.03C74.3679 201.127 72.9057 201.675 71.1134 201.675C69.2032 201.675 67.6173 201.056 66.3556 199.818C65.1057 198.568 64.4808 197.047 64.4808 195.255C64.4808 193.451 65.0998 191.924 66.3379 190.674C67.5878 189.424 69.1325 188.799 70.9719 188.799C72.1275 188.799 73.1828 189.064 74.1379 189.595C75.093 190.114 75.8359 190.81 76.3665 191.682L74.2794 192.885C73.9847 192.378 73.5366 191.965 72.9352 191.647C72.3456 191.328 71.6853 191.169 70.9543 191.169C69.7751 191.169 68.8023 191.558 68.0359 192.337C67.2812 193.103 66.9039 194.076 66.9039 195.255C66.9039 196.422 67.2871 197.389 68.0536 198.156C68.8318 198.91 69.8576 199.288 71.1311 199.288C72.0744 199.288 72.8527 199.081 73.4658 198.669C74.0908 198.244 74.5153 197.666 74.7393 196.935H70.9896V194.777H77.1978ZM89.3517 199.818C88.1018 201.056 86.5807 201.675 84.7884 201.675C82.9961 201.675 81.475 201.056 80.2251 199.818C78.987 198.568 78.3679 197.041 78.3679 195.237C78.3679 193.433 78.987 191.912 80.2251 190.674C81.475 189.424 82.9961 188.799 84.7884 188.799C86.5807 188.799 88.1018 189.424 89.3517 190.674C90.6016 191.912 91.2265 193.433 91.2265 195.237C91.2265 197.041 90.6016 198.568 89.3517 199.818ZM81.9407 198.156C82.7072 198.91 83.6564 199.288 84.7884 199.288C85.9204 199.288 86.8696 198.91 87.636 198.156C88.4025 197.389 88.7857 196.416 88.7857 195.237C88.7857 194.058 88.4025 193.085 87.636 192.319C86.8696 191.552 85.9204 191.169 84.7884 191.169C83.6564 191.169 82.7072 191.552 81.9407 192.319C81.1743 193.085 80.7911 194.058 80.7911 195.237C80.7911 196.416 81.1743 197.389 81.9407 198.156Z" fill="#D8F69E"/>
</g>
<rect x="42.5343" y="179.427" width="64.5581" height="65.4425" rx="12.381" stroke="black" stroke-width="3.53743"/>
<defs>
<clipPath id="clip0_4219_72">
<rect x="40.7656" y="177.658" width="68.0956" height="68.9799" rx="14.1497" fill="white"/>
</clipPath>
</defs>
</svg>
