<svg width="558" height="290" viewBox="0 0 558 290" fill="none" xmlns="http://www.w3.org/2000/svg">
<rect width="558" height="290" fill="#C0D4FA"/>
<path d="M29.4576 144.132V119.579H33.0212V140.773H44.1381V144.132H29.4576ZM51.2104 144.644C49.8464 144.644 48.704 144.394 47.7832 143.894C46.8625 143.382 46.1634 142.711 45.686 141.882C45.22 141.04 44.9869 140.12 44.9869 139.119C44.9869 138.187 45.1518 137.369 45.4814 136.664C45.8111 135.959 46.2998 135.363 46.9478 134.874C47.5957 134.374 48.3914 133.97 49.3348 133.663C50.1533 133.425 51.0797 133.214 52.1141 133.032C53.1485 132.851 54.234 132.68 55.3707 132.521C56.5188 132.362 57.6555 132.203 58.7809 132.043L57.485 132.76C57.5078 131.316 57.2008 130.247 56.5643 129.554C55.9391 128.849 54.8592 128.497 53.3247 128.497C52.3585 128.497 51.4718 128.724 50.6648 129.179C49.8577 129.622 49.2951 130.361 48.9768 131.396L45.6519 130.373C46.1066 128.792 46.9705 127.536 48.2436 126.604C49.5281 125.672 51.2331 125.206 53.3588 125.206C55.007 125.206 56.4392 125.49 57.6555 126.059C58.8832 126.616 59.7812 127.502 60.3495 128.719C60.6451 129.321 60.8269 129.958 60.8951 130.628C60.9633 131.299 60.9974 132.021 60.9974 132.794V144.132H57.8431V139.921L58.4569 140.466C57.6953 141.876 56.7234 142.927 55.5413 143.621C54.3704 144.303 52.9268 144.644 51.2104 144.644ZM51.8413 141.728C52.8529 141.728 53.7225 141.552 54.45 141.2C55.1775 140.836 55.7629 140.376 56.2062 139.819C56.6495 139.262 56.9394 138.682 57.0758 138.079C57.269 137.534 57.377 136.92 57.3998 136.238C57.4339 135.556 57.4509 135.01 57.4509 134.601L58.6104 135.027C57.485 135.198 56.462 135.351 55.5413 135.488C54.6205 135.624 53.785 135.76 53.0348 135.897C52.296 136.022 51.6367 136.175 51.0569 136.357C50.5682 136.528 50.1305 136.732 49.7441 136.971C49.3689 137.21 49.0677 137.5 48.8404 137.841C48.6244 138.182 48.5164 138.597 48.5164 139.085C48.5164 139.563 48.6358 140.006 48.8745 140.415C49.1132 140.813 49.4769 141.131 49.9657 141.37C50.4545 141.609 51.0797 141.728 51.8413 141.728ZM70.2058 144.132V119.579H84.75V123.143H73.7694V130.066H82.7039V133.646H73.7694V144.132H70.2058ZM94.2967 144.644C92.4552 144.644 90.8582 144.229 89.5055 143.399C88.1528 142.569 87.107 141.427 86.3682 139.972C85.6407 138.506 85.2769 136.818 85.2769 134.908C85.2769 132.987 85.6521 131.299 86.4023 129.844C87.1525 128.378 88.204 127.241 89.5566 126.434C90.9093 125.615 92.4893 125.206 94.2967 125.206C96.1382 125.206 97.7352 125.621 99.0879 126.451C100.441 127.281 101.486 128.423 102.225 129.878C102.964 131.333 103.334 133.01 103.334 134.908C103.334 136.829 102.958 138.523 102.208 139.989C101.469 141.444 100.424 142.586 99.0709 143.416C97.7182 144.235 96.1268 144.644 94.2967 144.644ZM94.2967 141.285C96.0586 141.285 97.3715 140.694 98.2354 139.512C99.1106 138.318 99.5483 136.784 99.5483 134.908C99.5483 132.987 99.105 131.452 98.2183 130.304C97.3431 129.145 96.0359 128.565 94.2967 128.565C93.1032 128.565 92.1199 128.838 91.3469 129.384C90.574 129.918 90 130.662 89.6248 131.617C89.2497 132.561 89.0622 133.658 89.0622 134.908C89.0622 136.84 89.5055 138.386 90.3921 139.546C91.2787 140.705 92.5803 141.285 94.2967 141.285ZM106.057 144.132V125.718H109.229V130.185L108.785 129.605C109.013 129.014 109.308 128.474 109.672 127.985C110.036 127.485 110.456 127.076 110.934 126.758C111.4 126.417 111.917 126.155 112.485 125.973C113.065 125.78 113.656 125.667 114.259 125.632C114.861 125.587 115.441 125.615 115.998 125.718V129.06C115.395 128.9 114.725 128.855 113.986 128.923C113.258 128.991 112.588 129.224 111.974 129.622C111.394 129.997 110.934 130.452 110.593 130.986C110.263 131.521 110.024 132.117 109.877 132.777C109.729 133.425 109.655 134.112 109.655 134.84V144.132H106.057ZM140.285 144.132L140.302 132.657C140.302 131.327 139.961 130.293 139.279 129.554C138.597 128.804 137.699 128.429 136.585 128.429C135.903 128.429 135.278 128.588 134.71 128.906C134.153 129.213 133.698 129.679 133.346 130.304C133.005 130.918 132.834 131.691 132.834 132.623L131.112 131.754C131.089 130.458 131.362 129.321 131.931 128.343C132.51 127.366 133.295 126.61 134.284 126.076C135.272 125.53 136.381 125.257 137.608 125.257C139.598 125.257 141.138 125.854 142.229 127.048C143.32 128.241 143.866 129.827 143.866 131.805L143.849 144.132H140.285ZM118.205 144.132V125.718H121.376V131.037H121.785V144.132H118.205ZM129.254 144.132L129.271 132.725C129.271 131.384 128.93 130.333 128.248 129.571C127.577 128.81 126.673 128.429 125.537 128.429C124.411 128.429 123.502 128.815 122.808 129.588C122.126 130.361 121.785 131.373 121.785 132.623L120.08 131.532C120.08 130.327 120.37 129.253 120.95 128.309C121.53 127.366 122.314 126.621 123.303 126.076C124.292 125.53 125.412 125.257 126.662 125.257C127.969 125.257 129.083 125.536 130.004 126.093C130.925 126.638 131.624 127.406 132.101 128.395C132.59 129.384 132.834 130.532 132.834 131.839L132.817 144.132H129.254ZM152.471 144.644C151.107 144.644 149.964 144.394 149.044 143.894C148.123 143.382 147.424 142.711 146.947 141.882C146.48 141.04 146.247 140.12 146.247 139.119C146.247 138.187 146.412 137.369 146.742 136.664C147.072 135.959 147.56 135.363 148.208 134.874C148.856 134.374 149.652 133.97 150.595 133.663C151.414 133.425 152.34 133.214 153.375 133.032C154.409 132.851 155.495 132.68 156.631 132.521C157.779 132.362 158.916 132.203 160.041 132.043L158.746 132.76C158.768 131.316 158.461 130.247 157.825 129.554C157.2 128.849 156.12 128.497 154.585 128.497C153.619 128.497 152.732 128.724 151.925 129.179C151.118 129.622 150.556 130.361 150.237 131.396L146.912 130.373C147.367 128.792 148.231 127.536 149.504 126.604C150.789 125.672 152.494 125.206 154.619 125.206C156.267 125.206 157.7 125.49 158.916 126.059C160.144 126.616 161.042 127.502 161.61 128.719C161.906 129.321 162.087 129.958 162.156 130.628C162.224 131.299 162.258 132.021 162.258 132.794V144.132H159.104V139.921L159.717 140.466C158.956 141.876 157.984 142.927 156.802 143.621C155.631 144.303 154.187 144.644 152.471 144.644ZM153.102 141.728C154.113 141.728 154.983 141.552 155.711 141.2C156.438 140.836 157.023 140.376 157.467 139.819C157.91 139.262 158.2 138.682 158.336 138.079C158.53 137.534 158.638 136.92 158.66 136.238C158.694 135.556 158.711 135.01 158.711 134.601L159.871 135.027C158.746 135.198 157.722 135.351 156.802 135.488C155.881 135.624 155.046 135.76 154.295 135.897C153.556 136.022 152.897 136.175 152.317 136.357C151.829 136.528 151.391 136.732 151.005 136.971C150.629 137.21 150.328 137.5 150.101 137.841C149.885 138.182 149.777 138.597 149.777 139.085C149.777 139.563 149.896 140.006 150.135 140.415C150.374 140.813 150.737 141.131 151.226 141.37C151.715 141.609 152.34 141.728 153.102 141.728ZM179.344 144.644C177.457 144.644 175.854 144.223 174.535 143.382C173.217 142.541 172.205 141.387 171.5 139.921C170.807 138.454 170.455 136.789 170.443 134.925C170.455 133.027 170.818 131.35 171.535 129.895C172.251 128.429 173.274 127.281 174.604 126.451C175.934 125.621 177.531 125.206 179.395 125.206C181.407 125.206 183.123 125.706 184.544 126.707C185.976 127.707 186.92 129.077 187.375 130.816L183.828 131.839C183.476 130.804 182.896 130.003 182.089 129.435C181.293 128.855 180.378 128.565 179.344 128.565C178.173 128.565 177.212 128.844 176.462 129.401C175.712 129.946 175.155 130.696 174.791 131.651C174.427 132.606 174.24 133.697 174.229 134.925C174.24 136.823 174.672 138.358 175.524 139.529C176.388 140.699 177.661 141.285 179.344 141.285C180.492 141.285 181.418 141.023 182.123 140.501C182.839 139.966 183.385 139.205 183.76 138.216L187.375 139.068C186.772 140.864 185.777 142.245 184.391 143.212C183.004 144.166 181.322 144.644 179.344 144.644ZM197.322 144.644C195.481 144.644 193.884 144.229 192.531 143.399C191.178 142.569 190.133 141.427 189.394 139.972C188.666 138.506 188.302 136.818 188.302 134.908C188.302 132.987 188.678 131.299 189.428 129.844C190.178 128.378 191.229 127.241 192.582 126.434C193.935 125.615 195.515 125.206 197.322 125.206C199.164 125.206 200.761 125.621 202.113 126.451C203.466 127.281 204.512 128.423 205.251 129.878C205.99 131.333 206.359 133.01 206.359 134.908C206.359 136.829 205.984 138.523 205.234 139.989C204.495 141.444 203.449 142.586 202.096 143.416C200.744 144.235 199.152 144.644 197.322 144.644ZM197.322 141.285C199.084 141.285 200.397 140.694 201.261 139.512C202.136 138.318 202.574 136.784 202.574 134.908C202.574 132.987 202.13 131.452 201.244 130.304C200.369 129.145 199.061 128.565 197.322 128.565C196.129 128.565 195.145 128.838 194.372 129.384C193.599 129.918 193.025 130.662 192.65 131.617C192.275 132.561 192.088 133.658 192.088 134.908C192.088 136.84 192.531 138.386 193.418 139.546C194.304 140.705 195.606 141.285 197.322 141.285ZM209.083 144.132V125.718H212.254V130.185L211.811 129.605C212.038 129.014 212.334 128.474 212.698 127.985C213.061 127.485 213.482 127.076 213.959 126.758C214.425 126.417 214.943 126.155 215.511 125.973C216.091 125.78 216.682 125.667 217.284 125.632C217.887 125.587 218.466 125.615 219.023 125.718V129.06C218.421 128.9 217.75 128.855 217.011 128.923C216.284 128.991 215.613 129.224 214.999 129.622C214.42 129.997 213.959 130.452 213.618 130.986C213.289 131.521 213.05 132.117 212.902 132.777C212.754 133.425 212.681 134.112 212.681 134.84V144.132H209.083ZM221.247 144.132V125.718H224.419V130.185L223.975 129.605C224.203 129.014 224.498 128.474 224.862 127.985C225.226 127.485 225.646 127.076 226.124 126.758C226.59 126.417 227.107 126.155 227.675 125.973C228.255 125.78 228.846 125.667 229.449 125.632C230.051 125.587 230.631 125.615 231.188 125.718V129.06C230.585 128.9 229.915 128.855 229.176 128.923C228.448 128.991 227.778 129.224 227.164 129.622C226.584 129.997 226.124 130.452 225.783 130.986C225.453 131.521 225.214 132.117 225.067 132.777C224.919 133.425 224.845 134.112 224.845 134.84V144.132H221.247ZM241.246 144.644C239.416 144.644 237.808 144.246 236.421 143.45C235.045 142.643 233.971 141.524 233.198 140.091C232.437 138.648 232.056 136.977 232.056 135.078C232.056 133.066 232.431 131.322 233.181 129.844C233.943 128.366 235 127.224 236.353 126.417C237.705 125.61 239.28 125.206 241.076 125.206C242.951 125.206 244.548 125.644 245.867 126.519C247.185 127.383 248.169 128.616 248.817 130.219C249.476 131.822 249.737 133.726 249.601 135.931H246.037V134.635C246.015 132.498 245.605 130.918 244.81 129.895C244.025 128.872 242.826 128.361 241.212 128.361C239.427 128.361 238.086 128.923 237.188 130.049C236.29 131.174 235.841 132.799 235.841 134.925C235.841 136.948 236.29 138.517 237.188 139.631C238.086 140.734 239.382 141.285 241.076 141.285C242.19 141.285 243.15 141.035 243.957 140.535C244.776 140.023 245.412 139.296 245.867 138.352L249.362 139.46C248.646 141.109 247.561 142.387 246.106 143.297C244.651 144.195 243.031 144.644 241.246 144.644ZM234.682 135.931V133.152H247.828V135.931H234.682ZM260.281 144.644C258.394 144.644 256.791 144.223 255.472 143.382C254.154 142.541 253.142 141.387 252.437 139.921C251.744 138.454 251.392 136.789 251.38 134.925C251.392 133.027 251.755 131.35 252.472 129.895C253.188 128.429 254.211 127.281 255.541 126.451C256.871 125.621 258.468 125.206 260.332 125.206C262.344 125.206 264.06 125.706 265.481 126.707C266.913 127.707 267.857 129.077 268.311 130.816L264.765 131.839C264.413 130.804 263.833 130.003 263.026 129.435C262.23 128.855 261.315 128.565 260.281 128.565C259.11 128.565 258.149 128.844 257.399 129.401C256.649 129.946 256.092 130.696 255.728 131.651C255.364 132.606 255.177 133.697 255.165 134.925C255.177 136.823 255.609 138.358 256.461 139.529C257.325 140.699 258.598 141.285 260.281 141.285C261.429 141.285 262.355 141.023 263.06 140.501C263.776 139.966 264.322 139.205 264.697 138.216L268.311 139.068C267.709 140.864 266.714 142.245 265.328 143.212C263.941 144.166 262.259 144.644 260.281 144.644ZM281.299 144.132C280.14 144.36 279.003 144.456 277.889 144.422C276.775 144.388 275.781 144.172 274.905 143.774C274.03 143.376 273.371 142.751 272.927 141.899C272.53 141.137 272.314 140.364 272.279 139.58C272.257 138.784 272.245 137.886 272.245 136.886V120.603H275.826V136.715C275.826 137.454 275.832 138.096 275.843 138.642C275.866 139.188 275.985 139.648 276.201 140.023C276.61 140.728 277.258 141.131 278.145 141.234C279.043 141.325 280.094 141.285 281.299 141.114V144.132ZM268.716 128.582V125.718H281.299V128.582H268.716ZM289.359 144.644C287.995 144.644 286.853 144.394 285.932 143.894C285.011 143.382 284.312 142.711 283.835 141.882C283.369 141.04 283.136 140.12 283.136 139.119C283.136 138.187 283.3 137.369 283.63 136.664C283.96 135.959 284.449 135.363 285.096 134.874C285.744 134.374 286.54 133.97 287.484 133.663C288.302 133.425 289.228 133.214 290.263 133.032C291.297 132.851 292.383 132.68 293.519 132.521C294.668 132.362 295.804 132.203 296.93 132.043L295.634 132.76C295.656 131.316 295.35 130.247 294.713 129.554C294.088 128.849 293.008 128.497 291.473 128.497C290.507 128.497 289.621 128.724 288.813 129.179C288.006 129.622 287.444 130.361 287.125 131.396L283.801 130.373C284.255 128.792 285.119 127.536 286.392 126.604C287.677 125.672 289.382 125.206 291.507 125.206C293.156 125.206 294.588 125.49 295.804 126.059C297.032 126.616 297.93 127.502 298.498 128.719C298.794 129.321 298.976 129.958 299.044 130.628C299.112 131.299 299.146 132.021 299.146 132.794V144.132H295.992V139.921L296.606 140.466C295.844 141.876 294.872 142.927 293.69 143.621C292.519 144.303 291.076 144.644 289.359 144.644ZM289.99 141.728C291.002 141.728 291.871 141.552 292.599 141.2C293.326 140.836 293.912 140.376 294.355 139.819C294.798 139.262 295.088 138.682 295.225 138.079C295.418 137.534 295.526 136.92 295.548 136.238C295.583 135.556 295.6 135.01 295.6 134.601L296.759 135.027C295.634 135.198 294.611 135.351 293.69 135.488C292.769 135.624 291.934 135.76 291.184 135.897C290.445 136.022 289.785 136.175 289.206 136.357C288.717 136.528 288.279 136.732 287.893 136.971C287.518 137.21 287.216 137.5 286.989 137.841C286.773 138.182 286.665 138.597 286.665 139.085C286.665 139.563 286.784 140.006 287.023 140.415C287.262 140.813 287.626 141.131 288.114 141.37C288.603 141.609 289.228 141.728 289.99 141.728ZM315.669 144.644C313.953 144.644 312.469 144.218 311.219 143.365C309.98 142.513 309.02 141.353 308.337 139.887C307.667 138.409 307.332 136.749 307.332 134.908C307.332 133.055 307.673 131.401 308.355 129.946C309.037 128.48 310.003 127.326 311.253 126.485C312.515 125.632 314.01 125.206 315.737 125.206C317.477 125.206 318.937 125.632 320.119 126.485C321.313 127.326 322.211 128.48 322.813 129.946C323.427 131.413 323.734 133.066 323.734 134.908C323.734 136.749 323.427 138.403 322.813 139.87C322.2 141.336 321.296 142.501 320.102 143.365C318.909 144.218 317.431 144.644 315.669 144.644ZM316.164 141.421C317.335 141.421 318.289 141.143 319.028 140.586C319.767 140.029 320.307 139.262 320.648 138.284C320.989 137.306 321.16 136.181 321.16 134.908C321.16 133.635 320.983 132.51 320.631 131.532C320.29 130.554 319.756 129.793 319.028 129.247C318.312 128.702 317.397 128.429 316.283 128.429C315.101 128.429 314.129 128.719 313.367 129.298C312.606 129.878 312.037 130.657 311.662 131.634C311.299 132.612 311.117 133.703 311.117 134.908C311.117 136.124 311.299 137.227 311.662 138.216C312.037 139.193 312.594 139.972 313.333 140.552C314.084 141.131 315.027 141.421 316.164 141.421ZM321.16 144.132V130.884H320.75V119.579H324.331V144.132H321.16ZM336.246 144.644C334.416 144.644 332.807 144.246 331.421 143.45C330.045 142.643 328.971 141.524 328.198 140.091C327.436 138.648 327.056 136.977 327.056 135.078C327.056 133.066 327.431 131.322 328.181 129.844C328.943 128.366 330 127.224 331.352 126.417C332.705 125.61 334.279 125.206 336.075 125.206C337.951 125.206 339.548 125.644 340.867 126.519C342.185 127.383 343.168 128.616 343.816 130.219C344.476 131.822 344.737 133.726 344.601 135.931H341.037V134.635C341.014 132.498 340.605 130.918 339.809 129.895C339.025 128.872 337.826 128.361 336.212 128.361C334.427 128.361 333.086 128.923 332.188 130.049C331.29 131.174 330.841 132.799 330.841 134.925C330.841 136.948 331.29 138.517 332.188 139.631C333.086 140.734 334.382 141.285 336.075 141.285C337.189 141.285 338.15 141.035 338.957 140.535C339.775 140.023 340.412 139.296 340.867 138.352L344.362 139.46C343.646 141.109 342.56 142.387 341.105 143.297C339.65 144.195 338.03 144.644 336.246 144.644ZM329.681 135.931V133.152H342.827V135.931H329.681ZM360.522 144.644C358.805 144.644 357.322 144.218 356.071 143.365C354.832 142.513 353.872 141.353 353.19 139.887C352.519 138.409 352.184 136.749 352.184 134.908C352.184 133.055 352.525 131.401 353.207 129.946C353.889 128.48 354.855 127.326 356.106 126.485C357.367 125.632 358.862 125.206 360.59 125.206C362.329 125.206 363.79 125.632 364.972 126.485C366.165 127.326 367.063 128.48 367.666 129.946C368.28 131.413 368.587 133.066 368.587 134.908C368.587 136.749 368.28 138.403 367.666 139.87C367.052 141.336 366.148 142.501 364.955 143.365C363.761 144.218 362.284 144.644 360.522 144.644ZM361.016 141.421C362.187 141.421 363.142 141.143 363.881 140.586C364.619 140.029 365.159 139.262 365.5 138.284C365.841 137.306 366.012 136.181 366.012 134.908C366.012 133.635 365.836 132.51 365.483 131.532C365.142 130.554 364.608 129.793 363.881 129.247C363.164 128.702 362.249 128.429 361.135 128.429C359.953 128.429 358.981 128.719 358.22 129.298C357.458 129.878 356.89 130.657 356.515 131.634C356.151 132.612 355.969 133.703 355.969 134.908C355.969 136.124 356.151 137.227 356.515 138.216C356.89 139.193 357.447 139.972 358.186 140.552C358.936 141.131 359.879 141.421 361.016 141.421ZM366.012 144.132V130.884H365.603V119.579H369.183V144.132H366.012ZM373.272 122.7V119.238H376.836V122.7H373.272ZM373.272 144.132V125.718H376.836V144.132H373.272ZM387.975 144.627C385.735 144.627 383.911 144.132 382.501 143.143C381.092 142.154 380.228 140.762 379.91 138.966L383.559 138.403C383.786 139.358 384.309 140.114 385.127 140.671C385.957 141.217 386.986 141.489 388.213 141.489C389.327 141.489 390.197 141.262 390.822 140.807C391.459 140.353 391.777 139.728 391.777 138.932C391.777 138.466 391.663 138.091 391.436 137.807C391.22 137.511 390.76 137.233 390.055 136.971C389.35 136.71 388.276 136.386 386.832 135.999C385.252 135.59 383.996 135.152 383.064 134.686C382.143 134.209 381.484 133.658 381.086 133.032C380.7 132.396 380.506 131.629 380.506 130.731C380.506 129.617 380.802 128.645 381.393 127.815C381.984 126.985 382.814 126.343 383.882 125.888C384.962 125.434 386.224 125.206 387.668 125.206C389.077 125.206 390.333 125.428 391.436 125.871C392.539 126.314 393.431 126.945 394.113 127.764C394.795 128.571 395.204 129.52 395.34 130.611L391.692 131.276C391.567 130.39 391.152 129.69 390.447 129.179C389.742 128.667 388.827 128.389 387.702 128.343C386.622 128.298 385.747 128.48 385.076 128.889C384.405 129.287 384.07 129.838 384.07 130.543C384.07 130.952 384.195 131.299 384.445 131.583C384.707 131.867 385.207 132.14 385.946 132.402C386.684 132.663 387.776 132.976 389.219 133.339C390.765 133.737 391.993 134.18 392.902 134.669C393.812 135.147 394.46 135.721 394.846 136.391C395.244 137.051 395.443 137.852 395.443 138.795C395.443 140.614 394.778 142.041 393.448 143.075C392.129 144.11 390.305 144.627 387.975 144.627ZM406.36 144.644C404.53 144.644 402.921 144.246 401.534 143.45C400.159 142.643 399.085 141.524 398.312 140.091C397.55 138.648 397.169 136.977 397.169 135.078C397.169 133.066 397.545 131.322 398.295 129.844C399.056 128.366 400.114 127.224 401.466 126.417C402.819 125.61 404.393 125.206 406.189 125.206C408.065 125.206 409.662 125.644 410.98 126.519C412.299 127.383 413.282 128.616 413.93 130.219C414.589 131.822 414.851 133.726 414.714 135.931H411.151V134.635C411.128 132.498 410.719 130.918 409.923 129.895C409.139 128.872 407.94 128.361 406.326 128.361C404.541 128.361 403.2 128.923 402.302 130.049C401.404 131.174 400.955 132.799 400.955 134.925C400.955 136.948 401.404 138.517 402.302 139.631C403.2 140.734 404.496 141.285 406.189 141.285C407.303 141.285 408.264 141.035 409.071 140.535C409.889 140.023 410.526 139.296 410.98 138.352L414.476 139.46C413.76 141.109 412.674 142.387 411.219 143.297C409.764 144.195 408.144 144.644 406.36 144.644ZM399.795 135.931V133.152H412.941V135.931H399.795ZM428.378 122.921C427.867 122.921 427.366 122.808 426.878 122.58C426.4 122.353 425.94 122.097 425.497 121.813C425.053 121.518 424.638 121.256 424.252 121.029C423.865 120.801 423.502 120.688 423.161 120.688C422.774 120.688 422.518 120.875 422.393 121.25C422.268 121.614 422.274 122.04 422.41 122.529H420.092C419.785 121.267 419.87 120.205 420.347 119.341C420.825 118.466 421.672 118.028 422.888 118.028C423.411 118.028 423.911 118.142 424.388 118.369C424.866 118.596 425.326 118.858 425.769 119.153C426.213 119.437 426.628 119.693 427.014 119.92C427.412 120.148 427.776 120.262 428.105 120.262C428.48 120.262 428.736 120.085 428.873 119.733C429.02 119.369 429.02 118.926 428.873 118.403H431.191C431.498 119.642 431.413 120.705 430.936 121.591C430.458 122.478 429.606 122.921 428.378 122.921ZM430.441 144.132V135.078C430.441 134.362 430.379 133.629 430.254 132.879C430.14 132.117 429.913 131.413 429.572 130.765C429.242 130.117 428.77 129.594 428.156 129.196C427.554 128.798 426.764 128.599 425.786 128.599C425.15 128.599 424.547 128.707 423.979 128.923C423.411 129.128 422.911 129.463 422.479 129.929C422.058 130.395 421.723 131.009 421.473 131.771C421.234 132.532 421.115 133.459 421.115 134.55L418.898 133.714C418.898 132.043 419.211 130.571 419.836 129.298C420.461 128.014 421.359 127.014 422.53 126.297C423.701 125.581 425.116 125.223 426.775 125.223C428.048 125.223 429.117 125.428 429.981 125.837C430.845 126.246 431.544 126.786 432.078 127.457C432.624 128.116 433.039 128.838 433.323 129.622C433.607 130.407 433.8 131.174 433.903 131.924C434.005 132.674 434.056 133.334 434.056 133.902V144.132H430.441ZM417.5 144.132V125.718H420.688V131.037H421.115V144.132H417.5ZM442.675 144.644C441.31 144.644 440.168 144.394 439.247 143.894C438.327 143.382 437.628 142.711 437.15 141.882C436.684 141.04 436.451 140.12 436.451 139.119C436.451 138.187 436.616 137.369 436.946 136.664C437.275 135.959 437.764 135.363 438.412 134.874C439.06 134.374 439.855 133.97 440.799 133.663C441.617 133.425 442.544 133.214 443.578 133.032C444.613 132.851 445.698 132.68 446.835 132.521C447.983 132.362 449.12 132.203 450.245 132.043L448.949 132.76C448.972 131.316 448.665 130.247 448.028 129.554C447.403 128.849 446.323 128.497 444.789 128.497C443.823 128.497 442.936 128.724 442.129 129.179C441.322 129.622 440.759 130.361 440.441 131.396L437.116 130.373C437.571 128.792 438.435 127.536 439.708 126.604C440.992 125.672 442.697 125.206 444.823 125.206C446.471 125.206 447.903 125.49 449.12 126.059C450.347 126.616 451.245 127.502 451.814 128.719C452.109 129.321 452.291 129.958 452.359 130.628C452.427 131.299 452.462 132.021 452.462 132.794V144.132H449.307V139.921L449.921 140.466C449.159 141.876 448.188 142.927 447.005 143.621C445.835 144.303 444.391 144.644 442.675 144.644ZM443.305 141.728C444.317 141.728 445.187 141.552 445.914 141.2C446.642 140.836 447.227 140.376 447.67 139.819C448.114 139.262 448.404 138.682 448.54 138.079C448.733 137.534 448.841 136.92 448.864 136.238C448.898 135.556 448.915 135.01 448.915 134.601L450.074 135.027C448.949 135.198 447.926 135.351 447.005 135.488C446.085 135.624 445.249 135.76 444.499 135.897C443.76 136.022 443.101 136.175 442.521 136.357C442.032 136.528 441.595 136.732 441.208 136.971C440.833 137.21 440.532 137.5 440.304 137.841C440.089 138.182 439.981 138.597 439.981 139.085C439.981 139.563 440.1 140.006 440.339 140.415C440.577 140.813 440.941 141.131 441.43 141.37C441.919 141.609 442.544 141.728 443.305 141.728ZM455.866 144.132V125.718H459.037V130.185L458.594 129.605C458.822 129.014 459.117 128.474 459.481 127.985C459.845 127.485 460.265 127.076 460.743 126.758C461.209 126.417 461.726 126.155 462.294 125.973C462.874 125.78 463.465 125.667 464.067 125.632C464.67 125.587 465.25 125.615 465.807 125.718V129.06C465.204 128.9 464.533 128.855 463.795 128.923C463.067 128.991 462.396 129.224 461.783 129.622C461.203 129.997 460.743 130.452 460.402 130.986C460.072 131.521 459.833 132.117 459.685 132.777C459.538 133.425 459.464 134.112 459.464 134.84V144.132H455.866ZM480.774 144.627C479.501 144.627 478.432 144.422 477.569 144.013C476.705 143.604 476 143.07 475.454 142.41C474.92 141.74 474.511 141.012 474.227 140.228C473.942 139.443 473.749 138.676 473.647 137.926C473.545 137.176 473.493 136.516 473.493 135.948V125.718H477.108V134.772C477.108 135.488 477.165 136.227 477.279 136.988C477.404 137.738 477.631 138.437 477.961 139.085C478.302 139.733 478.773 140.256 479.376 140.654C479.99 141.052 480.785 141.251 481.763 141.251C482.4 141.251 483.002 141.148 483.57 140.944C484.139 140.728 484.633 140.387 485.054 139.921C485.486 139.455 485.821 138.841 486.06 138.079C486.31 137.318 486.435 136.391 486.435 135.3L488.651 136.136C488.651 137.807 488.339 139.284 487.714 140.569C487.088 141.842 486.19 142.836 485.02 143.553C483.849 144.269 482.434 144.627 480.774 144.627ZM486.861 144.132V138.813H486.435V125.718H490.033V144.132H486.861ZM506.716 144.132V135.078C506.716 134.362 506.653 133.629 506.528 132.879C506.415 132.117 506.187 131.413 505.846 130.765C505.517 130.117 505.045 129.594 504.431 129.196C503.829 128.798 503.039 128.599 502.061 128.599C501.425 128.599 500.822 128.707 500.254 128.923C499.685 129.128 499.185 129.463 498.753 129.929C498.333 130.395 497.997 131.009 497.747 131.771C497.509 132.532 497.389 133.459 497.389 134.55L495.173 133.714C495.173 132.043 495.485 130.571 496.111 129.298C496.736 128.014 497.634 127.014 498.804 126.297C499.975 125.581 501.391 125.223 503.05 125.223C504.323 125.223 505.392 125.428 506.256 125.837C507.119 126.246 507.819 126.786 508.353 127.457C508.898 128.116 509.313 128.838 509.598 129.622C509.882 130.407 510.075 131.174 510.177 131.924C510.28 132.674 510.331 133.334 510.331 133.902V144.132H506.716ZM493.775 144.132V125.718H496.963V131.037H497.389V144.132H493.775ZM36.4313 184.644C34.7148 184.644 33.2314 184.218 31.9811 183.365C30.7421 182.513 29.7815 181.353 29.0995 179.887C28.4289 178.409 28.0935 176.749 28.0935 174.908C28.0935 173.055 28.4346 171.401 29.1166 169.946C29.7986 168.48 30.7648 167.326 32.0152 166.485C33.2769 165.632 34.7717 165.206 36.4995 165.206C38.2386 165.206 39.6993 165.632 40.8815 166.485C42.075 167.326 42.973 168.48 43.5755 169.946C44.1893 171.413 44.4962 173.066 44.4962 174.908C44.4962 176.749 44.1893 178.403 43.5755 179.87C42.9616 181.336 42.058 182.501 40.8644 183.365C39.6709 184.218 38.1932 184.644 36.4313 184.644ZM36.9257 181.421C38.0965 181.421 39.0514 181.143 39.7902 180.586C40.5291 180.029 41.069 179.262 41.41 178.284C41.7511 177.306 41.9216 176.181 41.9216 174.908C41.9216 173.635 41.7454 172.51 41.393 171.532C41.052 170.554 40.5177 169.793 39.7902 169.247C39.0741 168.702 38.1591 168.429 37.0451 168.429C35.8629 168.429 34.891 168.719 34.1294 169.298C33.3679 169.878 32.7995 170.657 32.4244 171.634C32.0606 172.612 31.8788 173.703 31.8788 174.908C31.8788 176.124 32.0606 177.227 32.4244 178.216C32.7995 179.193 33.3565 179.972 34.0953 180.552C34.8456 181.131 35.789 181.421 36.9257 181.421ZM41.9216 184.132V170.884H41.5123V159.579H45.093V184.132H41.9216ZM49.1816 162.7V159.238H52.7452V162.7H49.1816ZM49.1816 184.132V165.718H52.7452V184.132H49.1816ZM65.8451 162.99H63.0488L65.47 157.022H68.2663L65.8451 162.99ZM62.0429 184.644C60.6788 184.644 59.5364 184.394 58.6157 183.894C57.695 183.382 56.9959 182.711 56.5185 181.882C56.0524 181.04 55.8194 180.12 55.8194 179.119C55.8194 178.187 55.9842 177.369 56.3139 176.664C56.6435 175.959 57.1323 175.363 57.7802 174.874C58.4281 174.374 59.2238 173.97 60.1673 173.663C60.9857 173.425 61.9121 173.214 62.9465 173.032C63.9809 172.851 65.0665 172.68 66.2032 172.521C67.3513 172.362 68.488 172.203 69.6133 172.043L68.3175 172.76C68.3402 171.316 68.0333 170.247 67.3967 169.554C66.7715 168.849 65.6917 168.497 64.1571 168.497C63.1909 168.497 62.3043 168.724 61.4972 169.179C60.6902 169.622 60.1275 170.361 59.8092 171.396L56.4844 170.373C56.939 168.792 57.8029 167.536 59.0761 166.604C60.3605 165.672 62.0656 165.206 64.1912 165.206C65.8394 165.206 67.2717 165.49 68.488 166.059C69.7156 166.616 70.6136 167.502 71.182 168.719C71.4775 169.321 71.6594 169.958 71.7276 170.628C71.7958 171.299 71.8299 172.021 71.8299 172.794V184.132H68.6755V179.921L69.2894 180.466C68.5278 181.876 67.5559 182.927 66.3737 183.621C65.2029 184.303 63.7593 184.644 62.0429 184.644ZM62.6737 181.728C63.6854 181.728 64.555 181.552 65.2825 181.2C66.01 180.836 66.5954 180.376 67.0387 179.819C67.482 179.262 67.7718 178.682 67.9083 178.079C68.1015 177.534 68.2095 176.92 68.2322 176.238C68.2663 175.556 68.2834 175.01 68.2834 174.601L69.4428 175.027C68.3175 175.198 67.2944 175.351 66.3737 175.488C65.453 175.624 64.6175 175.76 63.8673 175.897C63.1284 176.022 62.4691 176.175 61.8894 176.357C61.4006 176.528 60.963 176.732 60.5765 176.971C60.2014 177.21 59.9002 177.5 59.6728 177.841C59.4568 178.182 59.3489 178.597 59.3489 179.085C59.3489 179.563 59.4682 180.006 59.7069 180.415C59.9456 180.813 60.3094 181.131 60.7982 181.37C61.2869 181.609 61.9121 181.728 62.6737 181.728ZM75.5754 184.132V159.068H79.139V184.132H75.5754ZM91.2329 184.644C89.3915 184.644 87.7944 184.229 86.4417 183.399C85.089 182.569 84.0433 181.427 83.3044 179.972C82.5769 178.506 82.2132 176.818 82.2132 174.908C82.2132 172.987 82.5883 171.299 83.3385 169.844C84.0887 168.378 85.1402 167.241 86.4929 166.434C87.8455 165.615 89.4256 165.206 91.2329 165.206C93.0744 165.206 94.6715 165.621 96.0241 166.451C97.3768 167.281 98.4226 168.423 99.1614 169.878C99.9003 171.333 100.27 173.01 100.27 174.908C100.27 176.829 99.8946 178.523 99.1444 179.989C98.4055 181.444 97.3598 182.586 96.0071 183.416C94.6544 184.235 93.063 184.644 91.2329 184.644ZM91.2329 181.285C92.9948 181.285 94.3077 180.694 95.1716 179.512C96.0469 178.318 96.4845 176.784 96.4845 174.908C96.4845 172.987 96.0412 171.452 95.1546 170.304C94.2793 169.145 92.9721 168.565 91.2329 168.565C90.0394 168.565 89.0561 168.838 88.2832 169.384C87.5102 169.918 86.9362 170.662 86.5611 171.617C86.1859 172.561 85.9984 173.658 85.9984 174.908C85.9984 176.84 86.4417 178.386 87.3283 179.546C88.215 180.705 89.5165 181.285 91.2329 181.285ZM110.581 192.828C109.592 192.828 108.632 192.675 107.7 192.368C106.779 192.061 105.938 191.606 105.176 191.004C104.414 190.413 103.784 189.679 103.283 188.804L106.574 187.133C106.972 187.918 107.54 188.492 108.279 188.855C109.018 189.219 109.797 189.401 110.615 189.401C111.627 189.401 112.491 189.219 113.207 188.855C113.923 188.503 114.463 187.969 114.827 187.253C115.202 186.536 115.384 185.65 115.372 184.593V179.443H115.799V165.718H118.953V184.627C118.953 185.116 118.936 185.582 118.902 186.025C118.868 186.468 118.805 186.912 118.714 187.355C118.453 188.594 117.953 189.617 117.214 190.424C116.486 191.231 115.554 191.834 114.417 192.231C113.292 192.629 112.013 192.828 110.581 192.828ZM110.308 184.644C108.592 184.644 107.108 184.218 105.858 183.365C104.619 182.513 103.659 181.353 102.977 179.887C102.306 178.409 101.971 176.749 101.971 174.908C101.971 173.055 102.312 171.401 102.994 169.946C103.676 168.48 104.642 167.326 105.892 166.485C107.154 165.632 108.649 165.206 110.376 165.206C112.116 165.206 113.576 165.632 114.758 166.485C115.952 167.326 116.85 168.48 117.452 169.946C118.066 171.413 118.373 173.066 118.373 174.908C118.373 176.749 118.066 178.403 117.452 179.87C116.839 181.336 115.935 182.501 114.741 183.365C113.548 184.218 112.07 184.644 110.308 184.644ZM110.803 181.421C111.974 181.421 112.928 181.143 113.667 180.586C114.406 180.029 114.946 179.262 115.287 178.284C115.628 177.306 115.799 176.181 115.799 174.908C115.799 173.635 115.622 172.51 115.27 171.532C114.929 170.554 114.395 169.793 113.667 169.247C112.951 168.702 112.036 168.429 110.922 168.429C109.74 168.429 108.768 168.719 108.006 169.298C107.245 169.878 106.676 170.657 106.301 171.634C105.938 172.612 105.756 173.703 105.756 174.908C105.756 176.124 105.938 177.227 106.301 178.216C106.676 179.193 107.233 179.972 107.972 180.552C108.723 181.131 109.666 181.421 110.803 181.421ZM130.714 184.644C128.873 184.644 127.276 184.229 125.923 183.399C124.57 182.569 123.525 181.427 122.786 179.972C122.058 178.506 121.695 176.818 121.695 174.908C121.695 172.987 122.07 171.299 122.82 169.844C123.57 168.378 124.622 167.241 125.974 166.434C127.327 165.615 128.907 165.206 130.714 165.206C132.556 165.206 134.153 165.621 135.506 166.451C136.858 167.281 137.904 168.423 138.643 169.878C139.382 171.333 139.751 173.01 139.751 174.908C139.751 176.829 139.376 178.523 138.626 179.989C137.887 181.444 136.841 182.586 135.489 183.416C134.136 184.235 132.544 184.644 130.714 184.644ZM130.714 181.285C132.476 181.285 133.789 180.694 134.653 179.512C135.528 178.318 135.966 176.784 135.966 174.908C135.966 172.987 135.523 171.452 134.636 170.304C133.761 169.145 132.454 168.565 130.714 168.565C129.521 168.565 128.538 168.838 127.765 169.384C126.992 169.918 126.418 170.662 126.042 171.617C125.667 172.561 125.48 173.658 125.48 174.908C125.48 176.84 125.923 178.386 126.81 179.546C127.696 180.705 128.998 181.285 130.714 181.285ZM155.594 184.644C153.877 184.644 152.394 184.218 151.143 183.365C149.904 182.513 148.944 181.353 148.262 179.887C147.591 178.409 147.256 176.749 147.256 174.908C147.256 173.055 147.597 171.401 148.279 169.946C148.961 168.48 149.927 167.326 151.177 166.485C152.439 165.632 153.934 165.206 155.662 165.206C157.401 165.206 158.862 165.632 160.044 166.485C161.237 167.326 162.135 168.48 162.738 169.946C163.352 171.413 163.658 173.066 163.658 174.908C163.658 176.749 163.352 178.403 162.738 179.87C162.124 181.336 161.22 182.501 160.027 183.365C158.833 184.218 157.355 184.644 155.594 184.644ZM156.088 181.421C157.259 181.421 158.214 181.143 158.953 180.586C159.691 180.029 160.231 179.262 160.572 178.284C160.913 177.306 161.084 176.181 161.084 174.908C161.084 173.635 160.908 172.51 160.555 171.532C160.214 170.554 159.68 169.793 158.953 169.247C158.236 168.702 157.321 168.429 156.207 168.429C155.025 168.429 154.053 168.719 153.292 169.298C152.53 169.878 151.962 170.657 151.587 171.634C151.223 172.612 151.041 173.703 151.041 174.908C151.041 176.124 151.223 177.227 151.587 178.216C151.962 179.193 152.519 179.972 153.258 180.552C154.008 181.131 154.951 181.421 156.088 181.421ZM161.084 184.132V170.884H160.675V159.579H164.255V184.132H161.084ZM176.17 184.644C174.34 184.644 172.732 184.246 171.345 183.45C169.969 182.643 168.895 181.524 168.122 180.091C167.361 178.648 166.98 176.977 166.98 175.078C166.98 173.066 167.355 171.322 168.105 169.844C168.867 168.366 169.924 167.224 171.277 166.417C172.629 165.61 174.204 165.206 176 165.206C177.875 165.206 179.472 165.644 180.791 166.519C182.109 167.383 183.093 168.616 183.741 170.219C184.4 171.822 184.661 173.726 184.525 175.931H180.961V174.635C180.939 172.498 180.529 170.918 179.734 169.895C178.949 168.872 177.75 168.361 176.136 168.361C174.351 168.361 173.01 168.923 172.112 170.049C171.214 171.174 170.765 172.799 170.765 174.925C170.765 176.948 171.214 178.517 172.112 179.631C173.01 180.734 174.306 181.285 176 181.285C177.114 181.285 178.074 181.035 178.881 180.535C179.7 180.023 180.336 179.296 180.791 178.352L184.286 179.46C183.57 181.109 182.485 182.387 181.03 183.297C179.575 184.195 177.955 184.644 176.17 184.644ZM169.606 175.931V173.152H182.752V175.931H169.606ZM201.009 184.644C199.122 184.644 197.519 184.223 196.2 183.382C194.882 182.541 193.87 181.387 193.165 179.921C192.472 178.454 192.12 176.789 192.108 174.925C192.12 173.027 192.483 171.35 193.199 169.895C193.916 168.429 194.939 167.281 196.269 166.451C197.598 165.621 199.196 165.206 201.06 165.206C203.072 165.206 204.788 165.706 206.209 166.707C207.641 167.707 208.585 169.077 209.039 170.816L205.493 171.839C205.141 170.804 204.561 170.003 203.754 169.435C202.958 168.855 202.043 168.565 201.009 168.565C199.838 168.565 198.877 168.844 198.127 169.401C197.377 169.946 196.82 170.696 196.456 171.651C196.092 172.606 195.905 173.697 195.893 174.925C195.905 176.823 196.337 178.358 197.189 179.529C198.053 180.699 199.326 181.285 201.009 181.285C202.157 181.285 203.083 181.023 203.788 180.501C204.504 179.966 205.05 179.205 205.425 178.216L209.039 179.068C208.437 180.864 207.442 182.245 206.056 183.212C204.669 184.166 202.986 184.644 201.009 184.644ZM218.987 184.644C217.146 184.644 215.549 184.229 214.196 183.399C212.843 182.569 211.797 181.427 211.059 179.972C210.331 178.506 209.967 176.818 209.967 174.908C209.967 172.987 210.342 171.299 211.093 169.844C211.843 168.378 212.894 167.241 214.247 166.434C215.6 165.615 217.18 165.206 218.987 165.206C220.829 165.206 222.426 165.621 223.778 166.451C225.131 167.281 226.177 168.423 226.916 169.878C227.654 171.333 228.024 173.01 228.024 174.908C228.024 176.829 227.649 178.523 226.899 179.989C226.16 181.444 225.114 182.586 223.761 183.416C222.409 184.235 220.817 184.644 218.987 184.644ZM218.987 181.285C220.749 181.285 222.062 180.694 222.926 179.512C223.801 178.318 224.239 176.784 224.239 174.908C224.239 172.987 223.795 171.452 222.909 170.304C222.033 169.145 220.726 168.565 218.987 168.565C217.794 168.565 216.81 168.838 216.037 169.384C215.264 169.918 214.69 170.662 214.315 171.617C213.94 172.561 213.753 173.658 213.753 174.908C213.753 176.84 214.196 178.386 215.083 179.546C215.969 180.705 217.271 181.285 218.987 181.285ZM243.672 184.132V175.078C243.672 174.362 243.61 173.629 243.485 172.879C243.371 172.117 243.144 171.413 242.803 170.765C242.473 170.117 242.001 169.594 241.387 169.196C240.785 168.798 239.995 168.599 239.017 168.599C238.381 168.599 237.778 168.707 237.21 168.923C236.642 169.128 236.141 169.463 235.709 169.929C235.289 170.395 234.954 171.009 234.703 171.771C234.465 172.532 234.345 173.459 234.345 174.55L232.129 173.714C232.129 172.043 232.441 170.571 233.067 169.298C233.692 168.014 234.59 167.014 235.761 166.297C236.931 165.581 238.347 165.223 240.006 165.223C241.279 165.223 242.348 165.428 243.212 165.837C244.076 166.246 244.775 166.786 245.309 167.457C245.855 168.116 246.269 168.838 246.554 169.622C246.838 170.407 247.031 171.174 247.133 171.924C247.236 172.674 247.287 173.334 247.287 173.902V184.132H243.672ZM230.731 184.132V165.718H233.919V171.037H234.345V184.132H230.731ZM252.393 184.132V165.07C252.393 164.604 252.41 164.109 252.444 163.586C252.478 163.052 252.575 162.529 252.734 162.018C252.904 161.495 253.183 161.017 253.569 160.585C254.035 160.074 254.547 159.71 255.104 159.494C255.661 159.278 256.212 159.153 256.758 159.119C257.315 159.085 257.826 159.068 258.292 159.068H260.611V162.001H258.463C257.622 162.001 256.991 162.211 256.57 162.632C256.161 163.041 255.956 163.626 255.956 164.388V184.132H252.393ZM249.341 168.582V165.718H260.611V168.582H249.341ZM264.192 162.7V159.238H267.755V162.7H264.192ZM264.192 184.132V165.718H267.755V184.132H264.192ZM271.861 184.132V165.718H275.032V170.185L274.589 169.605C274.816 169.014 275.112 168.474 275.476 167.985C275.839 167.485 276.26 167.076 276.737 166.758C277.203 166.417 277.721 166.155 278.289 165.973C278.869 165.78 279.46 165.667 280.062 165.632C280.665 165.587 281.244 165.615 281.801 165.718V169.06C281.199 168.9 280.528 168.855 279.789 168.923C279.062 168.991 278.391 169.224 277.778 169.622C277.198 169.997 276.737 170.452 276.396 170.986C276.067 171.521 275.828 172.117 275.68 172.777C275.533 173.425 275.459 174.112 275.459 174.84V184.132H271.861ZM306.089 184.132L306.106 172.657C306.106 171.327 305.765 170.293 305.083 169.554C304.401 168.804 303.503 168.429 302.389 168.429C301.707 168.429 301.082 168.588 300.513 168.906C299.956 169.213 299.502 169.679 299.149 170.304C298.808 170.918 298.638 171.691 298.638 172.623L296.916 171.754C296.893 170.458 297.166 169.321 297.734 168.343C298.314 167.366 299.098 166.61 300.087 166.076C301.076 165.53 302.184 165.257 303.412 165.257C305.401 165.257 306.941 165.854 308.033 167.048C309.124 168.241 309.67 169.827 309.67 171.805L309.653 184.132H306.089ZM284.008 184.132V165.718H287.18V171.037H287.589V184.132H284.008ZM295.057 184.132L295.074 172.725C295.074 171.384 294.733 170.333 294.051 169.571C293.381 168.81 292.477 168.429 291.34 168.429C290.215 168.429 289.305 168.815 288.612 169.588C287.93 170.361 287.589 171.373 287.589 172.623L285.884 171.532C285.884 170.327 286.174 169.253 286.754 168.309C287.333 167.366 288.118 166.621 289.107 166.076C290.095 165.53 291.215 165.257 292.466 165.257C293.773 165.257 294.887 165.536 295.807 166.093C296.728 166.638 297.427 167.406 297.905 168.395C298.393 169.384 298.638 170.532 298.638 171.839L298.621 184.132H295.057ZM318.275 184.644C316.91 184.644 315.768 184.394 314.847 183.894C313.927 183.382 313.228 182.711 312.75 181.882C312.284 181.04 312.051 180.12 312.051 179.119C312.051 178.187 312.216 177.369 312.546 176.664C312.875 175.959 313.364 175.363 314.012 174.874C314.66 174.374 315.455 173.97 316.399 173.663C317.217 173.425 318.144 173.214 319.178 173.032C320.213 172.851 321.298 172.68 322.435 172.521C323.583 172.362 324.72 172.203 325.845 172.043L324.549 172.76C324.572 171.316 324.265 170.247 323.628 169.554C323.003 168.849 321.923 168.497 320.389 168.497C319.423 168.497 318.536 168.724 317.729 169.179C316.922 169.622 316.359 170.361 316.041 171.396L312.716 170.373C313.171 168.792 314.035 167.536 315.308 166.604C316.592 165.672 318.297 165.206 320.423 165.206C322.071 165.206 323.503 165.49 324.72 166.059C325.947 166.616 326.845 167.502 327.414 168.719C327.709 169.321 327.891 169.958 327.959 170.628C328.027 171.299 328.062 172.021 328.062 172.794V184.132H324.907V179.921L325.521 180.466C324.759 181.876 323.788 182.927 322.605 183.621C321.435 184.303 319.991 184.644 318.275 184.644ZM318.905 181.728C319.917 181.728 320.787 181.552 321.514 181.2C322.242 180.836 322.827 180.376 323.27 179.819C323.714 179.262 324.004 178.682 324.14 178.079C324.333 177.534 324.441 176.92 324.464 176.238C324.498 175.556 324.515 175.01 324.515 174.601L325.674 175.027C324.549 175.198 323.526 175.351 322.605 175.488C321.685 175.624 320.849 175.76 320.099 175.897C319.36 176.022 318.701 176.175 318.121 176.357C317.632 176.528 317.195 176.732 316.808 176.971C316.433 177.21 316.132 177.5 315.904 177.841C315.689 178.182 315.581 178.597 315.581 179.085C315.581 179.563 315.7 180.006 315.939 180.415C316.177 180.813 316.541 181.131 317.03 181.37C317.519 181.609 318.144 181.728 318.905 181.728ZM339.343 184.644C337.457 184.644 335.854 184.223 334.535 183.382C333.217 182.541 332.205 181.387 331.5 179.921C330.807 178.454 330.454 176.789 330.443 174.925C330.454 173.027 330.818 171.35 331.534 169.895C332.25 168.429 333.273 167.281 334.603 166.451C335.933 165.621 337.53 165.206 339.395 165.206C341.407 165.206 343.123 165.706 344.544 166.707C345.976 167.707 346.92 169.077 347.374 170.816L343.828 171.839C343.475 170.804 342.896 170.003 342.089 169.435C341.293 168.855 340.378 168.565 339.343 168.565C338.173 168.565 337.212 168.844 336.462 169.401C335.712 169.946 335.155 170.696 334.791 171.651C334.427 172.606 334.24 173.697 334.228 174.925C334.24 176.823 334.672 178.358 335.524 179.529C336.388 180.699 337.661 181.285 339.343 181.285C340.492 181.285 341.418 181.023 342.123 180.501C342.839 179.966 343.384 179.205 343.76 178.216L347.374 179.068C346.772 180.864 345.777 182.245 344.39 183.212C343.004 184.166 341.321 184.644 339.343 184.644ZM349.666 162.7V159.238H353.23V162.7H349.666ZM349.666 184.132V165.718H353.23V184.132H349.666ZM366.739 162.99H363.943L366.381 157.022H369.177L366.739 162.99ZM365.324 184.644C363.482 184.644 361.885 184.229 360.533 183.399C359.18 182.569 358.134 181.427 357.395 179.972C356.668 178.506 356.304 176.818 356.304 174.908C356.304 172.987 356.679 171.299 357.429 169.844C358.18 168.378 359.231 167.241 360.584 166.434C361.936 165.615 363.516 165.206 365.324 165.206C367.165 165.206 368.762 165.621 370.115 166.451C371.468 167.281 372.513 168.423 373.252 169.878C373.991 171.333 374.361 173.01 374.361 174.908C374.361 176.829 373.985 178.523 373.235 179.989C372.496 181.444 371.451 182.586 370.098 183.416C368.745 184.235 367.154 184.644 365.324 184.644ZM365.324 181.285C367.086 181.285 368.399 180.694 369.262 179.512C370.138 178.318 370.575 176.784 370.575 174.908C370.575 172.987 370.132 171.452 369.245 170.304C368.37 169.145 367.063 168.565 365.324 168.565C364.13 168.565 363.147 168.838 362.374 169.384C361.601 169.918 361.027 170.662 360.652 171.617C360.277 172.561 360.089 173.658 360.089 174.908C360.089 176.84 360.533 178.386 361.419 179.546C362.306 180.705 363.607 181.285 365.324 181.285ZM390.009 184.132V175.078C390.009 174.362 389.946 173.629 389.821 172.879C389.707 172.117 389.48 171.413 389.139 170.765C388.809 170.117 388.338 169.594 387.724 169.196C387.121 168.798 386.331 168.599 385.354 168.599C384.717 168.599 384.115 168.707 383.547 168.923C382.978 169.128 382.478 169.463 382.046 169.929C381.626 170.395 381.29 171.009 381.04 171.771C380.801 172.532 380.682 173.459 380.682 174.55L378.465 173.714C378.465 172.043 378.778 170.571 379.403 169.298C380.028 168.014 380.926 167.014 382.097 166.297C383.268 165.581 384.683 165.223 386.343 165.223C387.616 165.223 388.684 165.428 389.548 165.837C390.412 166.246 391.111 166.786 391.646 167.457C392.191 168.116 392.606 168.838 392.89 169.622C393.174 170.407 393.368 171.174 393.47 171.924C393.572 172.674 393.623 173.334 393.623 173.902V184.132H390.009ZM377.067 184.132V165.718H380.256V171.037H380.682V184.132H377.067ZM424.909 184.132L424.926 172.657C424.926 171.327 424.585 170.293 423.903 169.554C423.221 168.804 422.323 168.429 421.209 168.429C420.527 168.429 419.902 168.588 419.333 168.906C418.776 169.213 418.322 169.679 417.969 170.304C417.628 170.918 417.458 171.691 417.458 172.623L415.736 171.754C415.713 170.458 415.986 169.321 416.554 168.343C417.134 167.366 417.918 166.61 418.907 166.076C419.896 165.53 421.004 165.257 422.232 165.257C424.221 165.257 425.761 165.854 426.853 167.048C427.944 168.241 428.49 169.827 428.49 171.805L428.472 184.132H424.909ZM402.828 184.132V165.718H406V171.037H406.409V184.132H402.828ZM413.877 184.132L413.894 172.725C413.894 171.384 413.553 170.333 412.871 169.571C412.201 168.81 411.297 168.429 410.16 168.429C409.035 168.429 408.125 168.815 407.432 169.588C406.75 170.361 406.409 171.373 406.409 172.623L404.704 171.532C404.704 170.327 404.994 169.253 405.574 168.309C406.153 167.366 406.938 166.621 407.927 166.076C408.915 165.53 410.035 165.257 411.285 165.257C412.593 165.257 413.707 165.536 414.627 166.093C415.548 166.638 416.247 167.406 416.725 168.395C417.213 169.384 417.458 170.532 417.458 171.839L417.441 184.132H413.877ZM439.658 184.644C437.816 184.644 436.219 184.229 434.866 183.399C433.514 182.569 432.468 181.427 431.729 179.972C431.002 178.506 430.638 176.818 430.638 174.908C430.638 172.987 431.013 171.299 431.763 169.844C432.513 168.378 433.565 167.241 434.918 166.434C436.27 165.615 437.85 165.206 439.658 165.206C441.499 165.206 443.096 165.621 444.449 166.451C445.802 167.281 446.847 168.423 447.586 169.878C448.325 171.333 448.694 173.01 448.694 174.908C448.694 176.829 448.319 178.523 447.569 179.989C446.83 181.444 445.784 182.586 444.432 183.416C443.079 184.235 441.488 184.644 439.658 184.644ZM439.658 181.285C441.42 181.285 442.732 180.694 443.596 179.512C444.472 178.318 444.909 176.784 444.909 174.908C444.909 172.987 444.466 171.452 443.579 170.304C442.704 169.145 441.397 168.565 439.658 168.565C438.464 168.565 437.481 168.838 436.708 169.384C435.935 169.918 435.361 170.662 434.986 171.617C434.611 172.561 434.423 173.658 434.423 174.908C434.423 176.84 434.866 178.386 435.753 179.546C436.64 180.705 437.941 181.285 439.658 181.285ZM458.733 184.644C457.017 184.644 455.533 184.218 454.283 183.365C453.044 182.513 452.083 181.353 451.401 179.887C450.731 178.409 450.395 176.749 450.395 174.908C450.395 173.055 450.736 171.401 451.418 169.946C452.1 168.48 453.066 167.326 454.317 166.485C455.579 165.632 457.073 165.206 458.801 165.206C460.54 165.206 462.001 165.632 463.183 166.485C464.377 167.326 465.275 168.48 465.877 169.946C466.491 171.413 466.798 173.066 466.798 174.908C466.798 176.749 466.491 178.403 465.877 179.87C465.263 181.336 464.36 182.501 463.166 183.365C461.973 184.218 460.495 184.644 458.733 184.644ZM459.227 181.421C460.398 181.421 461.353 181.143 462.092 180.586C462.831 180.029 463.371 179.262 463.712 178.284C464.053 177.306 464.223 176.181 464.223 174.908C464.223 173.635 464.047 172.51 463.695 171.532C463.354 170.554 462.819 169.793 462.092 169.247C461.376 168.702 460.461 168.429 459.347 168.429C458.165 168.429 457.193 168.719 456.431 169.298C455.67 169.878 455.101 170.657 454.726 171.634C454.362 172.612 454.18 173.703 454.18 174.908C454.18 176.124 454.362 177.227 454.726 178.216C455.101 179.193 455.658 179.972 456.397 180.552C457.147 181.131 458.091 181.421 459.227 181.421ZM464.223 184.132V170.884H463.814V159.579H467.395V184.132H464.223ZM476.343 184.644C474.979 184.644 473.836 184.394 472.916 183.894C471.995 183.382 471.296 182.711 470.818 181.882C470.352 181.04 470.119 180.12 470.119 179.119C470.119 178.187 470.284 177.369 470.614 176.664C470.943 175.959 471.432 175.363 472.08 174.874C472.728 174.374 473.524 173.97 474.467 173.663C475.286 173.425 476.212 173.214 477.246 173.032C478.281 172.851 479.366 172.68 480.503 172.521C481.651 172.362 482.788 172.203 483.913 172.043L482.617 172.76C482.64 171.316 482.333 170.247 481.697 169.554C481.071 168.849 479.992 168.497 478.457 168.497C477.491 168.497 476.604 168.724 475.797 169.179C474.99 169.622 474.427 170.361 474.109 171.396L470.784 170.373C471.239 168.792 472.103 167.536 473.376 166.604C474.66 165.672 476.365 165.206 478.491 165.206C480.139 165.206 481.572 165.49 482.788 166.059C484.016 166.616 484.914 167.502 485.482 168.719C485.777 169.321 485.959 169.958 486.027 170.628C486.096 171.299 486.13 172.021 486.13 172.794V184.132H482.975V179.921L483.589 180.466C482.828 181.876 481.856 182.927 480.674 183.621C479.503 184.303 478.059 184.644 476.343 184.644ZM476.974 181.728C477.985 181.728 478.855 181.552 479.582 181.2C480.31 180.836 480.895 180.376 481.339 179.819C481.782 179.262 482.072 178.682 482.208 178.079C482.401 177.534 482.509 176.92 482.532 176.238C482.566 175.556 482.583 175.01 482.583 174.601L483.743 175.027C482.617 175.198 481.594 175.351 480.674 175.488C479.753 175.624 478.917 175.76 478.167 175.897C477.428 176.022 476.769 176.175 476.189 176.357C475.701 176.528 475.263 176.732 474.876 176.971C474.501 177.21 474.2 177.5 473.973 177.841C473.757 178.182 473.649 178.597 473.649 179.085C473.649 179.563 473.768 180.006 474.007 180.415C474.246 180.813 474.609 181.131 475.098 181.37C475.587 181.609 476.212 181.728 476.974 181.728ZM489.875 184.132V159.068H493.439V184.132H489.875Z" fill="#030303"/>
<path d="M28.7406 237.668V216.982H41.8131V219.41H31.2977V225.888H40.0893V228.316H31.2977V235.24H41.8131V237.668H28.7406ZM44.6918 237.668V216.551H47.2488V237.668H44.6918ZM50.9845 219.41V216.766H53.5415V219.41H50.9845ZM50.9845 237.668V222.153H53.5415V237.668H50.9845ZM75.5356 237.668L75.5499 227.742C75.5499 226.583 75.2387 225.678 74.6162 225.026C74.0033 224.366 73.2036 224.035 72.2172 224.035C71.6426 224.035 71.0967 224.169 70.5795 224.437C70.0624 224.696 69.641 225.108 69.3154 225.673C68.9898 226.228 68.827 226.942 68.827 227.813L67.4766 227.267C67.4575 226.166 67.6825 225.204 68.1518 224.38C68.6306 223.547 69.2819 222.9 70.1055 222.441C70.9291 221.981 71.858 221.751 72.8924 221.751C74.5109 221.751 75.7846 222.244 76.7135 223.231C77.6425 224.208 78.107 225.524 78.107 227.181L78.0926 237.668H75.5356ZM56.9755 237.668V222.153H59.2596V226.305H59.5469V237.668H56.9755ZM66.2699 237.668L66.2843 227.842C66.2843 226.655 65.9778 225.726 65.3649 225.055C64.752 224.375 63.9379 224.035 62.9228 224.035C61.9172 224.035 61.1032 224.38 60.4807 225.07C59.8582 225.759 59.5469 226.674 59.5469 227.813L58.1966 227.009C58.1966 226.003 58.436 225.103 58.9149 224.308C59.3937 223.513 60.0449 222.891 60.8685 222.441C61.6922 221.981 62.6259 221.751 63.6698 221.751C64.7137 221.751 65.6235 221.971 66.3992 222.412C67.1749 222.852 67.7735 223.485 68.1949 224.308C68.6163 225.122 68.827 226.094 68.827 227.224L68.8126 237.668H66.2699ZM81.2741 219.41V216.766H83.8311V219.41H81.2741ZM81.2741 237.668V222.153H83.8311V237.668H81.2741ZM98.3264 237.668V229.896C98.3264 229.159 98.2594 228.45 98.1253 227.77C98.0008 227.09 97.7758 226.482 97.4502 225.946C97.1341 225.4 96.7032 224.969 96.1573 224.653C95.621 224.337 94.941 224.179 94.1174 224.179C93.4757 224.179 92.8916 224.289 92.3648 224.509C91.8477 224.72 91.4023 225.046 91.0288 225.486C90.6553 225.927 90.3632 226.482 90.1526 227.153C89.9514 227.813 89.8509 228.594 89.8509 229.494L88.1701 228.977C88.1701 227.473 88.4383 226.185 88.9746 225.113C89.5205 224.03 90.2818 223.202 91.2587 222.627C92.2451 222.043 93.4039 221.751 94.7351 221.751C95.7407 221.751 96.5978 221.909 97.3065 222.225C98.0152 222.541 98.6042 222.963 99.0734 223.489C99.5427 224.007 99.9114 224.591 100.18 225.242C100.448 225.884 100.634 226.54 100.74 227.21C100.855 227.871 100.912 228.498 100.912 229.092V237.668H98.3264ZM87.2651 237.668V222.153H89.5636V226.305H89.8509V237.668H87.2651ZM108.195 238.099C107.036 238.099 106.064 237.888 105.279 237.467C104.503 237.036 103.914 236.471 103.512 235.772C103.119 235.073 102.923 234.306 102.923 233.473C102.923 232.659 103.076 231.955 103.383 231.362C103.699 230.758 104.139 230.26 104.704 229.868C105.269 229.465 105.945 229.149 106.73 228.919C107.467 228.718 108.291 228.546 109.201 228.402C110.12 228.249 111.049 228.11 111.988 227.986C112.926 227.861 113.803 227.742 114.617 227.627L113.697 228.158C113.726 226.779 113.448 225.759 112.864 225.098C112.289 224.437 111.293 224.107 109.876 224.107C108.937 224.107 108.114 224.323 107.405 224.754C106.706 225.175 106.213 225.864 105.925 226.822L103.498 226.089C103.871 224.73 104.594 223.662 105.667 222.886C106.74 222.11 108.152 221.722 109.905 221.722C111.313 221.722 112.519 221.976 113.525 222.484C114.54 222.982 115.268 223.738 115.708 224.754C115.929 225.232 116.067 225.754 116.125 226.319C116.182 226.875 116.211 227.459 116.211 228.072V237.668H113.941V233.947L114.473 234.292C113.889 235.547 113.07 236.495 112.016 237.136C110.973 237.778 109.699 238.099 108.195 238.099ZM108.583 235.958C109.502 235.958 110.297 235.796 110.968 235.47C111.648 235.135 112.194 234.699 112.605 234.163C113.017 233.617 113.285 233.023 113.41 232.382C113.554 231.903 113.63 231.371 113.64 230.787C113.659 230.193 113.668 229.738 113.668 229.422L114.559 229.81C113.726 229.925 112.907 230.035 112.103 230.141C111.298 230.246 110.537 230.361 109.819 230.485C109.1 230.6 108.454 230.739 107.879 230.902C107.458 231.036 107.06 231.208 106.687 231.419C106.323 231.63 106.026 231.903 105.796 232.238C105.576 232.563 105.466 232.97 105.466 233.459C105.466 233.88 105.571 234.283 105.782 234.666C106.002 235.049 106.337 235.36 106.787 235.599C107.247 235.839 107.846 235.958 108.583 235.958ZM119.084 237.668V222.153H121.368V225.903L120.995 225.414C121.177 224.935 121.411 224.495 121.699 224.093C121.996 223.69 122.326 223.36 122.69 223.101C123.092 222.776 123.547 222.527 124.055 222.354C124.562 222.182 125.079 222.082 125.606 222.053C126.133 222.015 126.626 222.048 127.086 222.153V224.552C126.549 224.409 125.96 224.37 125.319 224.437C124.677 224.505 124.083 224.739 123.537 225.141C123.039 225.496 122.652 225.927 122.374 226.434C122.106 226.942 121.919 227.493 121.814 228.086C121.708 228.67 121.656 229.269 121.656 229.882V237.668H119.084ZM134.117 237.668V216.551H136.674V237.668H134.117ZM144.533 238.099C143.374 238.099 142.402 237.888 141.617 237.467C140.841 237.036 140.252 236.471 139.85 235.772C139.457 235.073 139.261 234.306 139.261 233.473C139.261 232.659 139.414 231.955 139.72 231.362C140.036 230.758 140.477 230.26 141.042 229.868C141.607 229.465 142.282 229.149 143.068 228.919C143.805 228.718 144.629 228.546 145.538 228.402C146.458 228.249 147.387 228.11 148.325 227.986C149.264 227.861 150.14 227.742 150.954 227.627L150.035 228.158C150.064 226.779 149.786 225.759 149.202 225.098C148.627 224.437 147.631 224.107 146.214 224.107C145.275 224.107 144.451 224.323 143.743 224.754C143.044 225.175 142.55 225.864 142.263 226.822L139.835 226.089C140.209 224.73 140.932 223.662 142.005 222.886C143.077 222.11 144.49 221.722 146.242 221.722C147.65 221.722 148.857 221.976 149.862 222.484C150.878 222.982 151.605 223.738 152.046 224.754C152.266 225.232 152.405 225.754 152.463 226.319C152.52 226.875 152.549 227.459 152.549 228.072V237.668H150.279V233.947L150.811 234.292C150.226 235.547 149.407 236.495 148.354 237.136C147.31 237.778 146.036 238.099 144.533 238.099ZM144.921 235.958C145.84 235.958 146.635 235.796 147.305 235.47C147.985 235.135 148.531 234.699 148.943 234.163C149.355 233.617 149.623 233.023 149.747 232.382C149.891 231.903 149.968 231.371 149.977 230.787C149.996 230.193 150.006 229.738 150.006 229.422L150.897 229.81C150.064 229.925 149.245 230.035 148.44 230.141C147.636 230.246 146.874 230.361 146.156 230.485C145.438 230.6 144.791 230.739 144.217 230.902C143.795 231.036 143.398 231.208 143.024 231.419C142.661 231.63 142.364 231.903 142.134 232.238C141.914 232.563 141.803 232.97 141.803 233.459C141.803 233.88 141.909 234.283 142.119 234.666C142.34 235.049 142.675 235.36 143.125 235.599C143.585 235.839 144.183 235.958 144.921 235.958ZM167.437 238.099C165.981 238.099 164.755 237.74 163.759 237.022C162.763 236.294 162.007 235.312 161.49 234.077C160.982 232.832 160.728 231.438 160.728 229.896C160.728 228.335 160.982 226.937 161.49 225.702C162.007 224.466 162.763 223.494 163.759 222.785C164.765 222.077 165.996 221.722 167.451 221.722C168.888 221.722 170.123 222.082 171.157 222.8C172.201 223.509 173.001 224.481 173.556 225.716C174.112 226.951 174.39 228.345 174.39 229.896C174.39 231.448 174.112 232.841 173.556 234.077C173.001 235.312 172.201 236.294 171.157 237.022C170.123 237.74 168.883 238.099 167.437 238.099ZM160.297 244.563V222.153H162.581V233.574H162.869V244.563H160.297ZM167.121 235.757C168.146 235.757 168.993 235.499 169.663 234.982C170.334 234.464 170.837 233.765 171.172 232.884C171.507 231.994 171.675 230.998 171.675 229.896C171.675 228.805 171.507 227.818 171.172 226.937C170.846 226.056 170.339 225.357 169.649 224.84C168.969 224.323 168.102 224.064 167.049 224.064C166.043 224.064 165.21 224.313 164.549 224.811C163.889 225.299 163.395 225.984 163.07 226.865C162.744 227.737 162.581 228.747 162.581 229.896C162.581 231.026 162.739 232.037 163.055 232.927C163.381 233.808 163.879 234.503 164.549 235.01C165.22 235.508 166.077 235.757 167.121 235.757ZM176.677 237.668V222.153H178.961V225.903L178.588 225.414C178.769 224.935 179.004 224.495 179.291 224.093C179.588 223.69 179.919 223.36 180.283 223.101C180.685 222.776 181.14 222.527 181.647 222.354C182.155 222.182 182.672 222.082 183.199 222.053C183.726 222.015 184.219 222.048 184.678 222.153V224.552C184.142 224.409 183.553 224.37 182.911 224.437C182.27 224.505 181.676 224.739 181.13 225.141C180.632 225.496 180.244 225.927 179.967 226.434C179.698 226.942 179.512 227.493 179.406 228.086C179.301 228.67 179.248 229.269 179.248 229.882V237.668H176.677ZM192.975 238.099C191.453 238.099 190.121 237.764 188.982 237.093C187.852 236.413 186.971 235.47 186.339 234.263C185.706 233.047 185.39 231.63 185.39 230.011C185.39 228.316 185.702 226.851 186.324 225.615C186.947 224.37 187.813 223.413 188.924 222.742C190.045 222.062 191.357 221.722 192.86 221.722C194.421 221.722 195.748 222.082 196.84 222.8C197.941 223.518 198.765 224.543 199.31 225.874C199.866 227.205 200.105 228.79 200.029 230.629H197.443V229.71C197.414 227.804 197.026 226.382 196.279 225.443C195.532 224.495 194.421 224.021 192.947 224.021C191.366 224.021 190.164 224.528 189.341 225.544C188.517 226.559 188.105 228.014 188.105 229.911C188.105 231.74 188.517 233.157 189.341 234.163C190.164 235.168 191.338 235.671 192.86 235.671C193.885 235.671 194.776 235.437 195.532 234.967C196.289 234.498 196.883 233.823 197.314 232.942L199.77 233.789C199.167 235.159 198.257 236.222 197.041 236.978C195.834 237.725 194.479 238.099 192.975 238.099ZM187.244 230.629V228.575H198.707V230.629H187.244ZM208.643 244.994C207.829 244.994 207.034 244.87 206.258 244.621C205.482 244.372 204.769 243.994 204.118 243.486C203.476 242.988 202.94 242.356 202.509 241.59L204.85 240.354C205.233 241.111 205.774 241.662 206.474 242.006C207.182 242.351 207.91 242.523 208.657 242.523C209.644 242.523 210.462 242.341 211.114 241.978C211.765 241.623 212.244 241.092 212.55 240.383C212.866 239.674 213.019 238.793 213.01 237.74V233.502H213.311V222.153H215.581V237.769C215.581 238.19 215.567 238.597 215.538 238.99C215.519 239.382 215.471 239.77 215.394 240.153C215.193 241.255 214.796 242.16 214.202 242.868C213.608 243.586 212.842 244.118 211.904 244.463C210.965 244.817 209.878 244.994 208.643 244.994ZM208.456 238.099C207.01 238.099 205.77 237.74 204.735 237.022C203.701 236.294 202.901 235.312 202.336 234.077C201.781 232.841 201.503 231.448 201.503 229.896C201.503 228.345 201.781 226.951 202.336 225.716C202.901 224.481 203.701 223.509 204.735 222.8C205.77 222.082 207.005 221.722 208.442 221.722C209.907 221.722 211.138 222.077 212.134 222.785C213.13 223.494 213.881 224.466 214.389 225.702C214.906 226.937 215.165 228.335 215.165 229.896C215.165 231.438 214.906 232.832 214.389 234.077C213.881 235.312 213.13 236.294 212.134 237.022C211.138 237.74 209.912 238.099 208.456 238.099ZM208.772 235.757C209.816 235.757 210.673 235.508 211.343 235.01C212.014 234.503 212.507 233.808 212.823 232.927C213.149 232.037 213.311 231.026 213.311 229.896C213.311 228.747 213.149 227.737 212.823 226.865C212.507 225.984 212.019 225.299 211.358 224.811C210.697 224.313 209.859 224.064 208.844 224.064C207.79 224.064 206.919 224.323 206.229 224.84C205.549 225.357 205.042 226.056 204.707 226.937C204.381 227.818 204.218 228.805 204.218 229.896C204.218 230.998 204.386 231.994 204.721 232.884C205.056 233.765 205.559 234.464 206.229 234.982C206.909 235.499 207.757 235.757 208.772 235.757ZM224.62 238.07C223.624 238.07 222.767 237.912 222.049 237.596C221.34 237.28 220.751 236.859 220.282 236.332C219.813 235.805 219.444 235.221 219.176 234.579C218.908 233.938 218.716 233.282 218.601 232.611C218.496 231.941 218.443 231.314 218.443 230.729V222.153H221.029V229.925C221.029 230.653 221.096 231.357 221.23 232.037C221.364 232.717 221.589 233.33 221.905 233.876C222.231 234.421 222.662 234.852 223.198 235.168C223.744 235.484 224.424 235.642 225.238 235.642C225.88 235.642 226.464 235.532 226.99 235.312C227.517 235.092 227.967 234.766 228.341 234.335C228.714 233.895 229.002 233.339 229.203 232.669C229.404 231.998 229.504 231.218 229.504 230.327L231.185 230.844C231.185 232.338 230.912 233.627 230.366 234.709C229.83 235.791 229.069 236.624 228.082 237.208C227.105 237.783 225.951 238.07 224.62 238.07ZM229.792 237.668V233.516H229.504V222.153H232.076V237.668H229.792ZM246.283 237.668V229.896C246.283 229.159 246.216 228.45 246.082 227.77C245.957 227.09 245.732 226.482 245.407 225.946C245.091 225.4 244.66 224.969 244.114 224.653C243.577 224.337 242.897 224.179 242.074 224.179C241.432 224.179 240.848 224.289 240.321 224.509C239.804 224.72 239.359 225.046 238.985 225.486C238.612 225.927 238.32 226.482 238.109 227.153C237.908 227.813 237.807 228.594 237.807 229.494L236.127 228.977C236.127 227.473 236.395 226.185 236.931 225.113C237.477 224.03 238.238 223.202 239.215 222.627C240.202 222.043 241.36 221.751 242.692 221.751C243.697 221.751 244.554 221.909 245.263 222.225C245.972 222.541 246.561 222.963 247.03 223.489C247.499 224.007 247.868 224.591 248.136 225.242C248.404 225.884 248.591 226.54 248.696 227.21C248.811 227.871 248.869 228.498 248.869 229.092V237.668H246.283ZM235.222 237.668V222.153H237.52V226.305H237.807V237.668H235.222ZM260.404 237.668C259.484 237.85 258.575 237.922 257.674 237.883C256.784 237.855 255.989 237.678 255.29 237.352C254.591 237.017 254.059 236.5 253.695 235.8C253.389 235.188 253.221 234.57 253.192 233.947C253.173 233.315 253.164 232.602 253.164 231.807V217.844H255.721V231.692C255.721 232.324 255.726 232.865 255.735 233.315C255.754 233.765 255.855 234.153 256.037 234.479C256.382 235.092 256.927 235.451 257.674 235.556C258.431 235.662 259.341 235.633 260.404 235.47V237.668ZM250.018 224.265V222.153H260.404V224.265H250.018ZM267.102 238.099C265.943 238.099 264.971 237.888 264.186 237.467C263.41 237.036 262.821 236.471 262.419 235.772C262.026 235.073 261.83 234.306 261.83 233.473C261.83 232.659 261.983 231.955 262.29 231.362C262.606 230.758 263.046 230.26 263.611 229.868C264.176 229.465 264.851 229.149 265.637 228.919C266.374 228.718 267.198 228.546 268.107 228.402C269.027 228.249 269.956 228.11 270.894 227.986C271.833 227.861 272.709 227.742 273.523 227.627L272.604 228.158C272.633 226.779 272.355 225.759 271.771 225.098C271.196 224.437 270.2 224.107 268.783 224.107C267.844 224.107 267.021 224.323 266.312 224.754C265.613 225.175 265.119 225.864 264.832 226.822L262.404 226.089C262.778 224.73 263.501 223.662 264.574 222.886C265.646 222.11 267.059 221.722 268.811 221.722C270.219 221.722 271.426 221.976 272.431 222.484C273.447 222.982 274.174 223.738 274.615 224.754C274.835 225.232 274.974 225.754 275.032 226.319C275.089 226.875 275.118 227.459 275.118 228.072V237.668H272.848V233.947L273.38 234.292C272.795 235.547 271.977 236.495 270.923 237.136C269.879 237.778 268.605 238.099 267.102 238.099ZM267.49 235.958C268.409 235.958 269.204 235.796 269.874 235.47C270.554 235.135 271.1 234.699 271.512 234.163C271.924 233.617 272.192 233.023 272.317 232.382C272.46 231.903 272.537 231.371 272.546 230.787C272.566 230.193 272.575 229.738 272.575 229.422L273.466 229.81C272.633 229.925 271.814 230.035 271.009 230.141C270.205 230.246 269.443 230.361 268.725 230.485C268.007 230.6 267.36 230.739 266.786 230.902C266.364 231.036 265.967 231.208 265.594 231.419C265.23 231.63 264.933 231.903 264.703 232.238C264.483 232.563 264.373 232.97 264.373 233.459C264.373 233.88 264.478 234.283 264.689 234.666C264.909 235.049 265.244 235.36 265.694 235.599C266.154 235.839 266.752 235.958 267.49 235.958ZM289.604 238.099C288.081 238.099 286.75 237.764 285.61 237.093C284.48 236.413 283.599 235.47 282.967 234.263C282.335 233.047 282.019 231.63 282.019 230.011C282.019 228.316 282.33 226.851 282.953 225.615C283.575 224.37 284.442 223.413 285.553 222.742C286.673 222.062 287.985 221.722 289.489 221.722C291.05 221.722 292.376 222.082 293.468 222.8C294.569 223.518 295.393 224.543 295.939 225.874C296.494 227.205 296.734 228.79 296.657 230.629H294.071V229.71C294.043 227.804 293.655 226.382 292.908 225.443C292.161 224.495 291.05 224.021 289.575 224.021C287.995 224.021 286.793 224.528 285.969 225.544C285.146 226.559 284.734 228.014 284.734 229.911C284.734 231.74 285.146 233.157 285.969 234.163C286.793 235.168 287.966 235.671 289.489 235.671C290.513 235.671 291.404 235.437 292.161 234.967C292.917 234.498 293.511 233.823 293.942 232.942L296.399 233.789C295.795 235.159 294.885 236.222 293.669 236.978C292.462 237.725 291.107 238.099 289.604 238.099ZM283.872 230.629V228.575H295.335V230.629H283.872ZM309.62 237.668V229.896C309.62 229.159 309.553 228.45 309.418 227.77C309.294 227.09 309.069 226.482 308.743 225.946C308.427 225.4 307.996 224.969 307.45 224.653C306.914 224.337 306.234 224.179 305.411 224.179C304.769 224.179 304.185 224.289 303.658 224.509C303.141 224.72 302.695 225.046 302.322 225.486C301.948 225.927 301.656 226.482 301.446 227.153C301.245 227.813 301.144 228.594 301.144 229.494L299.463 228.977C299.463 227.473 299.731 226.185 300.268 225.113C300.814 224.03 301.575 223.202 302.552 222.627C303.538 222.043 304.697 221.751 306.028 221.751C307.034 221.751 307.891 221.909 308.6 222.225C309.308 222.541 309.897 222.963 310.367 223.489C310.836 224.007 311.205 224.591 311.473 225.242C311.741 225.884 311.928 226.54 312.033 227.21C312.148 227.871 312.205 228.498 312.205 229.092V237.668H309.62ZM298.558 237.668V222.153H300.857V226.305H301.144V237.668H298.558ZM320.255 237.668V216.551H322.812V237.668H320.255ZM330.671 238.099C329.512 238.099 328.54 237.888 327.755 237.467C326.979 237.036 326.39 236.471 325.988 235.772C325.595 235.073 325.399 234.306 325.399 233.473C325.399 232.659 325.552 231.955 325.858 231.362C326.175 230.758 326.615 230.26 327.18 229.868C327.745 229.465 328.42 229.149 329.206 228.919C329.943 228.718 330.767 228.546 331.676 228.402C332.596 228.249 333.525 228.11 334.463 227.986C335.402 227.861 336.278 227.742 337.092 227.627L336.173 228.158C336.202 226.779 335.924 225.759 335.34 225.098C334.765 224.437 333.769 224.107 332.352 224.107C331.413 224.107 330.589 224.323 329.881 224.754C329.182 225.175 328.688 225.864 328.401 226.822L325.973 226.089C326.347 224.73 327.07 223.662 328.143 222.886C329.215 222.11 330.628 221.722 332.38 221.722C333.788 221.722 334.995 221.976 336 222.484C337.016 222.982 337.743 223.738 338.184 224.754C338.404 225.232 338.543 225.754 338.601 226.319C338.658 226.875 338.687 227.459 338.687 228.072V237.668H336.417V233.947L336.949 234.292C336.364 235.547 335.546 236.495 334.492 237.136C333.448 237.778 332.174 238.099 330.671 238.099ZM331.059 235.958C331.978 235.958 332.773 235.796 333.443 235.47C334.123 235.135 334.669 234.699 335.081 234.163C335.493 233.617 335.761 233.023 335.886 232.382C336.029 231.903 336.106 231.371 336.115 230.787C336.135 230.193 336.144 229.738 336.144 229.422L337.035 229.81C336.202 229.925 335.383 230.035 334.578 230.141C333.774 230.246 333.012 230.361 332.294 230.485C331.576 230.6 330.929 230.739 330.355 230.902C329.933 231.036 329.536 231.208 329.163 231.419C328.799 231.63 328.502 231.903 328.272 232.238C328.052 232.563 327.941 232.97 327.941 233.459C327.941 233.88 328.047 234.283 328.258 234.666C328.478 235.049 328.813 235.36 329.263 235.599C329.723 235.839 330.321 235.958 331.059 235.958ZM352.986 238.099C351.415 238.099 350.079 237.749 348.978 237.05C347.886 236.342 347.053 235.37 346.478 234.134C345.904 232.899 345.607 231.491 345.588 229.911C345.607 228.292 345.909 226.87 346.493 225.644C347.087 224.409 347.934 223.446 349.035 222.757C350.137 222.067 351.463 221.722 353.015 221.722C354.652 221.722 356.06 222.125 357.238 222.929C358.426 223.734 359.22 224.835 359.623 226.233L357.094 226.995C356.769 226.094 356.237 225.395 355.5 224.897C354.772 224.399 353.934 224.15 352.986 224.15C351.923 224.15 351.047 224.399 350.357 224.897C349.667 225.386 349.155 226.066 348.82 226.937C348.485 227.799 348.312 228.79 348.303 229.911C348.322 231.635 348.719 233.028 349.495 234.091C350.28 235.144 351.444 235.671 352.986 235.671C354.001 235.671 354.844 235.441 355.514 234.982C356.185 234.512 356.692 233.837 357.037 232.956L359.623 233.631C359.086 235.077 358.248 236.184 357.109 236.95C355.969 237.716 354.595 238.099 352.986 238.099ZM367.88 238.099C366.338 238.099 365.007 237.749 363.886 237.05C362.775 236.351 361.918 235.384 361.315 234.148C360.712 232.913 360.41 231.496 360.41 229.896C360.41 228.268 360.716 226.841 361.329 225.615C361.942 224.39 362.809 223.437 363.929 222.757C365.05 222.067 366.367 221.722 367.88 221.722C369.431 221.722 370.767 222.072 371.888 222.771C373.008 223.461 373.865 224.423 374.459 225.659C375.063 226.884 375.364 228.297 375.364 229.896C375.364 231.515 375.063 232.942 374.459 234.177C373.856 235.403 372.994 236.366 371.873 237.065C370.753 237.754 369.422 238.099 367.88 238.099ZM367.88 235.671C369.489 235.671 370.686 235.135 371.471 234.062C372.257 232.99 372.649 231.601 372.649 229.896C372.649 228.144 372.252 226.75 371.457 225.716C370.662 224.672 369.47 224.15 367.88 224.15C366.798 224.15 365.907 224.394 365.208 224.883C364.509 225.371 363.987 226.046 363.642 226.908C363.297 227.77 363.125 228.766 363.125 229.896C363.125 231.639 363.527 233.038 364.332 234.091C365.136 235.144 366.319 235.671 367.88 235.671ZM388.712 237.668V229.896C388.712 229.159 388.645 228.45 388.511 227.77C388.386 227.09 388.161 226.482 387.836 225.946C387.52 225.4 387.089 224.969 386.543 224.653C386.007 224.337 385.327 224.179 384.503 224.179C383.861 224.179 383.277 224.289 382.75 224.509C382.233 224.72 381.788 225.046 381.415 225.486C381.041 225.927 380.749 226.482 380.538 227.153C380.337 227.813 380.237 228.594 380.237 229.494L378.556 228.977C378.556 227.473 378.824 226.185 379.36 225.113C379.906 224.03 380.668 223.202 381.644 222.627C382.631 222.043 383.79 221.751 385.121 221.751C386.126 221.751 386.983 221.909 387.692 222.225C388.401 222.541 388.99 222.963 389.459 223.489C389.928 224.007 390.297 224.591 390.565 225.242C390.833 225.884 391.02 226.54 391.125 227.21C391.24 227.871 391.298 228.498 391.298 229.092V237.668H388.712ZM377.651 237.668V222.153H379.949V226.305H380.237V237.668H377.651ZM395.65 237.668V221.306C395.65 220.904 395.67 220.497 395.708 220.085C395.746 219.663 395.832 219.256 395.966 218.864C396.1 218.461 396.321 218.093 396.627 217.758C396.982 217.365 397.369 217.087 397.791 216.924C398.212 216.752 398.638 216.647 399.069 216.608C399.51 216.57 399.926 216.551 400.319 216.551H402.287V218.677H400.463C399.706 218.677 399.141 218.864 398.768 219.237C398.394 219.601 398.207 220.157 398.207 220.904V237.668H395.65ZM393.021 224.265V222.153H402.287V224.265H393.021ZM405.304 219.41V216.766H407.861V219.41H405.304ZM405.304 237.668V222.153H407.861V237.668H405.304ZM411.322 237.668V222.153H413.606V225.903L413.232 225.414C413.414 224.935 413.649 224.495 413.936 224.093C414.233 223.69 414.563 223.36 414.927 223.101C415.33 222.776 415.784 222.527 416.292 222.354C416.8 222.182 417.317 222.082 417.843 222.053C418.37 222.015 418.863 222.048 419.323 222.153V224.552C418.787 224.409 418.198 224.37 417.556 224.437C416.915 224.505 416.321 224.739 415.775 225.141C415.277 225.496 414.889 225.927 414.611 226.434C414.343 226.942 414.156 227.493 414.051 228.086C413.946 228.67 413.893 229.269 413.893 229.882V237.668H411.322ZM439.723 237.668L439.738 227.742C439.738 226.583 439.426 225.678 438.804 225.026C438.191 224.366 437.391 224.035 436.405 224.035C435.83 224.035 435.284 224.169 434.767 224.437C434.25 224.696 433.829 225.108 433.503 225.673C433.177 226.228 433.015 226.942 433.015 227.813L431.664 227.267C431.645 226.166 431.87 225.204 432.339 224.38C432.818 223.547 433.47 222.9 434.293 222.441C435.117 221.981 436.046 221.751 437.08 221.751C438.699 221.751 439.972 222.244 440.901 223.231C441.83 224.208 442.295 225.524 442.295 227.181L442.28 237.668H439.723ZM421.163 237.668V222.153H423.447V226.305H423.735V237.668H421.163ZM430.458 237.668L430.472 227.842C430.472 226.655 430.166 225.726 429.553 225.055C428.94 224.375 428.126 224.035 427.11 224.035C426.105 224.035 425.291 224.38 424.668 225.07C424.046 225.759 423.735 226.674 423.735 227.813L422.384 227.009C422.384 226.003 422.624 225.103 423.103 224.308C423.581 223.513 424.233 222.891 425.056 222.441C425.88 221.981 426.814 221.751 427.857 221.751C428.901 221.751 429.811 221.971 430.587 222.412C431.363 222.852 431.961 223.485 432.383 224.308C432.804 225.122 433.015 226.094 433.015 227.224L433 237.668H430.458ZM449.585 238.099C448.426 238.099 447.454 237.888 446.668 237.467C445.893 237.036 445.304 236.471 444.902 235.772C444.509 235.073 444.313 234.306 444.313 233.473C444.313 232.659 444.466 231.955 444.772 231.362C445.088 230.758 445.529 230.26 446.094 229.868C446.659 229.465 447.334 229.149 448.119 228.919C448.857 228.718 449.68 228.546 450.59 228.402C451.51 228.249 452.439 228.11 453.377 227.986C454.316 227.861 455.192 227.742 456.006 227.627L455.087 228.158C455.115 226.779 454.838 225.759 454.253 225.098C453.679 224.437 452.683 224.107 451.265 224.107C450.327 224.107 449.503 224.323 448.795 224.754C448.095 225.175 447.602 225.864 447.315 226.822L444.887 226.089C445.261 224.73 445.984 223.662 447.056 222.886C448.129 222.11 449.542 221.722 451.294 221.722C452.702 221.722 453.909 221.976 454.914 222.484C455.929 222.982 456.657 223.738 457.098 224.754C457.318 225.232 457.457 225.754 457.514 226.319C457.572 226.875 457.601 227.459 457.601 228.072V237.668H455.331V233.947L455.862 234.292C455.278 235.547 454.459 236.495 453.406 237.136C452.362 237.778 451.088 238.099 449.585 238.099ZM449.973 235.958C450.892 235.958 451.687 235.796 452.357 235.47C453.037 235.135 453.583 234.699 453.995 234.163C454.407 233.617 454.675 233.023 454.799 232.382C454.943 231.903 455.02 231.371 455.029 230.787C455.048 230.193 455.058 229.738 455.058 229.422L455.949 229.81C455.115 229.925 454.296 230.035 453.492 230.141C452.688 230.246 451.926 230.361 451.208 230.485C450.49 230.6 449.843 230.739 449.269 230.902C448.847 231.036 448.45 231.208 448.076 231.419C447.712 231.63 447.415 231.903 447.186 232.238C446.965 232.563 446.855 232.97 446.855 233.459C446.855 233.88 446.961 234.283 447.171 234.666C447.392 235.049 447.727 235.36 448.177 235.599C448.637 235.839 449.235 235.958 449.973 235.958ZM467.01 238.099C465.439 238.099 464.103 237.749 463.002 237.05C461.91 236.342 461.077 235.37 460.502 234.134C459.928 232.899 459.631 231.491 459.612 229.911C459.631 228.292 459.932 226.87 460.517 225.644C461.11 224.409 461.958 223.446 463.059 222.757C464.161 222.067 465.487 221.722 467.039 221.722C468.676 221.722 470.084 222.125 471.262 222.929C472.45 223.734 473.244 224.835 473.647 226.233L471.118 226.995C470.793 226.094 470.261 225.395 469.524 224.897C468.796 224.399 467.958 224.15 467.01 224.15C465.947 224.15 465.07 224.399 464.381 224.897C463.691 225.386 463.179 226.066 462.844 226.937C462.509 227.799 462.336 228.79 462.327 229.911C462.346 231.635 462.743 233.028 463.519 234.091C464.304 235.144 465.468 235.671 467.01 235.671C468.025 235.671 468.868 235.441 469.538 234.982C470.209 234.512 470.716 233.837 471.061 232.956L473.647 233.631C473.11 235.077 472.272 236.184 471.133 236.95C469.993 237.716 468.619 238.099 467.01 238.099ZM475.583 219.41V216.766H478.14V219.41H475.583ZM475.583 237.668V222.153H478.14V237.668H475.583ZM489.245 219.783H487.162L489.044 215.043H491.127L489.245 219.783ZM488.196 238.099C486.655 238.099 485.323 237.749 484.203 237.05C483.092 236.351 482.235 235.384 481.632 234.148C481.028 232.913 480.726 231.496 480.726 229.896C480.726 228.268 481.033 226.841 481.646 225.615C482.259 224.39 483.126 223.437 484.246 222.757C485.367 222.067 486.683 221.722 488.196 221.722C489.748 221.722 491.084 222.072 492.204 222.771C493.325 223.461 494.182 224.423 494.776 225.659C495.379 226.884 495.681 228.297 495.681 229.896C495.681 231.515 495.379 232.942 494.776 234.177C494.172 235.403 493.311 236.366 492.19 237.065C491.07 237.754 489.738 238.099 488.196 238.099ZM488.196 235.671C489.805 235.671 491.003 235.135 491.788 234.062C492.573 232.99 492.966 231.601 492.966 229.896C492.966 228.144 492.568 226.75 491.773 225.716C490.979 224.672 489.786 224.15 488.196 224.15C487.114 224.15 486.224 224.394 485.525 224.883C484.825 225.371 484.303 226.046 483.959 226.908C483.614 227.77 483.442 228.766 483.442 229.896C483.442 231.639 483.844 233.038 484.648 234.091C485.453 235.144 486.635 235.671 488.196 235.671ZM509.029 237.668V229.896C509.029 229.159 508.962 228.45 508.828 227.77C508.703 227.09 508.478 226.482 508.152 225.946C507.836 225.4 507.405 224.969 506.86 224.653C506.323 224.337 505.643 224.179 504.82 224.179C504.178 224.179 503.594 224.289 503.067 224.509C502.55 224.72 502.105 225.046 501.731 225.486C501.358 225.927 501.066 226.482 500.855 227.153C500.654 227.813 500.553 228.594 500.553 229.494L498.872 228.977C498.872 227.473 499.141 226.185 499.677 225.113C500.223 224.03 500.984 223.202 501.961 222.627C502.947 222.043 504.106 221.751 505.437 221.751C506.443 221.751 507.3 221.909 508.009 222.225C508.717 222.541 509.306 222.963 509.776 223.489C510.245 224.007 510.614 224.591 510.882 225.242C511.15 225.884 511.337 226.54 511.442 227.21C511.557 227.871 511.614 228.498 511.614 229.092V237.668H509.029ZM497.967 237.668V222.153H500.266V226.305H500.553V237.668H497.967Z" fill="#030303"/>
<path d="M45.9089 54.585L39.5156 75.896" stroke="black" stroke-width="3.00862" stroke-linecap="round" stroke-linejoin="round"/>
<path d="M56.5632 54.585L50.1699 75.896" stroke="black" stroke-width="3.00862" stroke-linecap="round" stroke-linejoin="round"/>
<path d="M60.8259 60.9785H37.3838" stroke="black" stroke-width="3.00862" stroke-linecap="round" stroke-linejoin="round"/>
<path d="M58.6951 69.5029H35.2529" stroke="black" stroke-width="3.00862" stroke-linecap="round" stroke-linejoin="round"/>
<path d="M26.7295 65.2402C26.7295 55.1941 26.7295 50.1711 29.8504 47.0501C32.9713 43.9292 37.9944 43.9292 48.0405 43.9292C58.0866 43.9292 63.1097 43.9292 66.2306 47.0501C69.3516 50.1711 69.3516 55.1941 69.3516 65.2402C69.3516 75.2864 69.3516 80.3094 66.2306 83.4303C63.1097 86.5513 58.0866 86.5513 48.0405 86.5513C37.9944 86.5513 32.9713 86.5513 29.8504 83.4303C26.7295 80.3094 26.7295 75.2864 26.7295 65.2402Z" stroke="black" stroke-width="3.00862"/>
<path d="M85.6624 77.9858V52.9958H89.2154V77.9858H85.6624ZM99.1654 78.4958C97.8054 78.4958 96.6664 78.2465 95.7484 77.7478C94.8304 77.2378 94.1334 76.5692 93.6574 75.7418C93.1928 74.9032 92.9604 73.9852 92.9604 72.9878C92.9604 72.0585 93.1248 71.2425 93.4534 70.5398C93.7821 69.8372 94.2694 69.2422 94.9154 68.7548C95.5614 68.2562 96.3548 67.8538 97.2954 67.5478C98.1114 67.3098 99.0351 67.1002 100.066 66.9188C101.098 66.7375 102.18 66.5675 103.313 66.4088C104.458 66.2502 105.591 66.0915 106.713 65.9328L105.421 66.6468C105.444 65.2075 105.138 64.1422 104.503 63.4508C103.88 62.7482 102.803 62.3968 101.273 62.3968C100.31 62.3968 99.4261 62.6235 98.6214 63.0768C97.8168 63.5188 97.2558 64.2555 96.9384 65.2868L93.6234 64.2668C94.0768 62.6915 94.9381 61.4392 96.2074 60.5098C97.4881 59.5805 99.1881 59.1158 101.307 59.1158C102.951 59.1158 104.379 59.3992 105.591 59.9658C106.815 60.5212 107.711 61.4052 108.277 62.6178C108.572 63.2185 108.753 63.8532 108.821 64.5218C108.889 65.1905 108.923 65.9102 108.923 66.6808V77.9858H105.778V73.7868L106.39 74.3308C105.631 75.7362 104.662 76.7845 103.483 77.4758C102.316 78.1558 100.877 78.4958 99.1654 78.4958ZM99.7944 75.5888C100.803 75.5888 101.67 75.4132 102.395 75.0618C103.121 74.6992 103.704 74.2402 104.146 73.6848C104.588 73.1295 104.877 72.5515 105.013 71.9508C105.206 71.4068 105.314 70.7948 105.336 70.1148C105.37 69.4348 105.387 68.8908 105.387 68.4828L106.543 68.9078C105.421 69.0778 104.401 69.2308 103.483 69.3668C102.565 69.5028 101.732 69.6388 100.984 69.7748C100.248 69.8995 99.5904 70.0525 99.0124 70.2338C98.5251 70.4038 98.0888 70.6078 97.7034 70.8458C97.3294 71.0838 97.0291 71.3728 96.8024 71.7128C96.5871 72.0528 96.4794 72.4665 96.4794 72.9538C96.4794 73.4298 96.5984 73.8718 96.8364 74.2798C97.0744 74.6765 97.4371 74.9938 97.9244 75.2318C98.4118 75.4698 99.0351 75.5888 99.7944 75.5888ZM121.617 78.4958C119.86 78.4958 118.387 78.0708 117.197 77.2208C116.007 76.3595 115.106 75.1978 114.494 73.7358C113.882 72.2738 113.576 70.6248 113.576 68.7888C113.576 66.9528 113.876 65.3038 114.477 63.8418C115.089 62.3798 115.984 61.2295 117.163 60.3908C118.353 59.5408 119.815 59.1158 121.549 59.1158C123.272 59.1158 124.756 59.5408 126.003 60.3908C127.261 61.2295 128.23 62.3798 128.91 63.8418C129.59 65.2925 129.93 66.9415 129.93 68.7888C129.93 70.6248 129.59 72.2795 128.91 73.7528C128.241 75.2148 127.284 76.3708 126.037 77.2208C124.802 78.0708 123.328 78.4958 121.617 78.4958ZM112.981 77.9858V53.5058H116.551V64.7768H116.143V77.9858H112.981ZM121.124 75.2828C122.257 75.2828 123.192 74.9938 123.929 74.4158C124.677 73.8378 125.232 73.0615 125.595 72.0868C125.969 71.1008 126.156 70.0015 126.156 68.7888C126.156 67.5875 125.969 66.4995 125.595 65.5248C125.232 64.5502 124.671 63.7738 123.912 63.1958C123.153 62.6178 122.184 62.3288 121.005 62.3288C119.894 62.3288 118.976 62.6008 118.251 63.1448C117.537 63.6888 117.004 64.4482 116.653 65.4228C116.313 66.3975 116.143 67.5195 116.143 68.7888C116.143 70.0582 116.313 71.1802 116.653 72.1548C116.993 73.1295 117.531 73.8945 118.268 74.4498C119.005 75.0052 119.957 75.2828 121.124 75.2828ZM133.683 56.6168V53.1658H137.236V56.6168H133.683ZM133.683 77.9858V59.6258H137.236V77.9858H133.683ZM150.62 78.4958C148.864 78.4958 147.39 78.0708 146.2 77.2208C145.01 76.3595 144.109 75.1978 143.497 73.7358C142.885 72.2738 142.579 70.6248 142.579 68.7888C142.579 66.9528 142.88 65.3038 143.48 63.8418C144.092 62.3798 144.988 61.2295 146.166 60.3908C147.356 59.5408 148.818 59.1158 150.552 59.1158C152.275 59.1158 153.76 59.5408 155.006 60.3908C156.264 61.2295 157.233 62.3798 157.913 63.8418C158.593 65.2925 158.933 66.9415 158.933 68.7888C158.933 70.6248 158.593 72.2795 157.913 73.7528C157.245 75.2148 156.287 76.3708 155.04 77.2208C153.805 78.0708 152.332 78.4958 150.62 78.4958ZM141.984 77.9858V53.5058H145.554V64.7768H145.146V77.9858H141.984ZM150.127 75.2828C151.261 75.2828 152.196 74.9938 152.932 74.4158C153.68 73.8378 154.236 73.0615 154.598 72.0868C154.972 71.1008 155.159 70.0015 155.159 68.7888C155.159 67.5875 154.972 66.4995 154.598 65.5248C154.236 64.5502 153.675 63.7738 152.915 63.1958C152.156 62.6178 151.187 62.3288 150.008 62.3288C148.898 62.3288 147.98 62.6008 147.254 63.1448C146.54 63.6888 146.008 64.4482 145.656 65.4228C145.316 66.3975 145.146 67.5195 145.146 68.7888C145.146 70.0582 145.316 71.1802 145.656 72.1548C145.996 73.1295 146.535 73.8945 147.271 74.4498C148.008 75.0052 148.96 75.2828 150.127 75.2828ZM162.687 77.9858V52.9958H166.24V77.9858H162.687ZM171.345 56.6168V53.1658H174.898V56.6168H171.345ZM171.345 77.9858V59.6258H174.898V77.9858H171.345ZM187.636 78.4958C185.8 78.4958 184.208 78.0822 182.859 77.2548C181.51 76.4275 180.468 75.2885 179.731 73.8378C179.006 72.3758 178.643 70.6928 178.643 68.7888C178.643 66.8735 179.017 65.1905 179.765 63.7398C180.513 62.2778 181.561 61.1445 182.91 60.3398C184.259 59.5238 185.834 59.1158 187.636 59.1158C189.472 59.1158 191.064 59.5295 192.413 60.3568C193.762 61.1842 194.804 62.3232 195.541 63.7738C196.278 65.2245 196.646 66.8962 196.646 68.7888C196.646 70.7042 196.272 72.3928 195.524 73.8548C194.787 75.3055 193.745 76.4445 192.396 77.2718C191.047 78.0878 189.461 78.4958 187.636 78.4958ZM187.636 75.1468C189.393 75.1468 190.702 74.5575 191.563 73.3788C192.436 72.1888 192.872 70.6588 192.872 68.7888C192.872 66.8735 192.43 65.3435 191.546 64.1988C190.673 63.0428 189.37 62.4648 187.636 62.4648C186.446 62.4648 185.466 62.7368 184.695 63.2808C183.924 63.8135 183.352 64.5558 182.978 65.5078C182.604 66.4485 182.417 67.5422 182.417 68.7888C182.417 70.7155 182.859 72.2568 183.743 73.4128C184.627 74.5688 185.925 75.1468 187.636 75.1468ZM210.548 77.9858C209.392 78.2125 208.259 78.3088 207.148 78.2748C206.037 78.2408 205.046 78.0255 204.173 77.6288C203.3 77.2322 202.643 76.6088 202.201 75.7588C201.804 74.9995 201.589 74.2288 201.555 73.4468C201.532 72.6535 201.521 71.7582 201.521 70.7608V54.5258H205.091V70.5908C205.091 71.3275 205.097 71.9678 205.108 72.5118C205.131 73.0558 205.25 73.5148 205.465 73.8888C205.873 74.5915 206.519 74.9938 207.403 75.0958C208.298 75.1865 209.347 75.1468 210.548 74.9768V77.9858ZM198.002 62.4818V59.6258H210.548V62.4818H198.002ZM221.392 78.4958C219.567 78.4958 217.963 78.0992 216.581 77.3058C215.209 76.5012 214.138 75.3848 213.368 73.9568C212.608 72.5175 212.229 70.8515 212.229 68.9588C212.229 66.9528 212.603 65.2132 213.351 63.7398C214.11 62.2665 215.164 61.1275 216.513 60.3228C217.861 59.5182 219.431 59.1158 221.222 59.1158C223.092 59.1158 224.684 59.5522 225.999 60.4248C227.313 61.2862 228.294 62.5158 228.94 64.1138C229.597 65.7118 229.858 67.6102 229.722 69.8088H226.169V68.5168C226.146 66.3862 225.738 64.8108 224.945 63.7908C224.163 62.7708 222.967 62.2608 221.358 62.2608C219.578 62.2608 218.241 62.8218 217.346 63.9438C216.45 65.0658 216.003 66.6865 216.003 68.8058C216.003 70.8232 216.45 72.3872 217.346 73.4978C218.241 74.5972 219.533 75.1468 221.222 75.1468C222.332 75.1468 223.29 74.8975 224.095 74.3988C224.911 73.8888 225.545 73.1635 225.999 72.2228L229.484 73.3278C228.77 74.9712 227.687 76.2462 226.237 77.1528C224.786 78.0482 223.171 78.4958 221.392 78.4958ZM214.847 69.8088V67.0378H227.954V69.8088H214.847ZM241.05 78.4958C239.168 78.4958 237.57 78.0765 236.256 77.2378C234.941 76.3992 233.932 75.2488 233.23 73.7868C232.538 72.3248 232.187 70.6645 232.176 68.8058C232.187 66.9132 232.55 65.2415 233.264 63.7908C233.978 62.3288 234.998 61.1842 236.324 60.3568C237.65 59.5295 239.242 59.1158 241.101 59.1158C243.107 59.1158 244.818 59.6145 246.235 60.6118C247.663 61.6092 248.603 62.9748 249.057 64.7088L245.521 65.7288C245.169 64.6975 244.591 63.8985 243.787 63.3318C242.993 62.7538 242.081 62.4648 241.05 62.4648C239.882 62.4648 238.925 62.7425 238.177 63.2978C237.429 63.8418 236.873 64.5898 236.511 65.5418C236.148 66.4938 235.961 67.5818 235.95 68.8058C235.961 70.6985 236.392 72.2285 237.242 73.3958C238.103 74.5632 239.372 75.1468 241.05 75.1468C242.194 75.1468 243.118 74.8862 243.821 74.3648C244.535 73.8322 245.079 73.0728 245.453 72.0868L249.057 72.9368C248.456 74.7275 247.464 76.1045 246.082 77.0678C244.699 78.0198 243.022 78.4958 241.05 78.4958ZM257.133 78.4958C255.773 78.4958 254.634 78.2465 253.716 77.7478C252.798 77.2378 252.101 76.5692 251.625 75.7418C251.16 74.9032 250.928 73.9852 250.928 72.9878C250.928 72.0585 251.092 71.2425 251.421 70.5398C251.749 69.8372 252.237 69.2422 252.883 68.7548C253.529 68.2562 254.322 67.8538 255.263 67.5478C256.079 67.3098 257.002 67.1002 258.034 66.9188C259.065 66.7375 260.147 66.5675 261.281 66.4088C262.425 66.2502 263.559 66.0915 264.681 65.9328L263.389 66.6468C263.411 65.2075 263.105 64.1422 262.471 63.4508C261.847 62.7482 260.771 62.3968 259.241 62.3968C258.277 62.3968 257.393 62.6235 256.589 63.0768C255.784 63.5188 255.223 64.2555 254.906 65.2868L251.591 64.2668C252.044 62.6915 252.905 61.4392 254.175 60.5098C255.455 59.5805 257.155 59.1158 259.275 59.1158C260.918 59.1158 262.346 59.3992 263.559 59.9658C264.783 60.5212 265.678 61.4052 266.245 62.6178C266.539 63.2185 266.721 63.8532 266.789 64.5218C266.857 65.1905 266.891 65.9102 266.891 66.6808V77.9858H263.746V73.7868L264.358 74.3308C263.598 75.7362 262.629 76.7845 261.451 77.4758C260.283 78.1558 258.844 78.4958 257.133 78.4958ZM257.762 75.5888C258.77 75.5888 259.637 75.4132 260.363 75.0618C261.088 74.6992 261.672 74.2402 262.114 73.6848C262.556 73.1295 262.845 72.5515 262.981 71.9508C263.173 71.4068 263.281 70.7948 263.304 70.1148C263.338 69.4348 263.355 68.8908 263.355 68.4828L264.511 68.9078C263.389 69.0778 262.369 69.2308 261.451 69.3668C260.533 69.5028 259.7 69.6388 258.952 69.7748C258.215 69.8995 257.558 70.0525 256.98 70.2338C256.492 70.4038 256.056 70.6078 255.671 70.8458C255.297 71.0838 254.996 71.3728 254.77 71.7128C254.554 72.0528 254.447 72.4665 254.447 72.9538C254.447 73.4298 254.566 73.8718 254.804 74.2798C255.042 74.6765 255.404 74.9938 255.892 75.2318C256.379 75.4698 257.002 75.5888 257.762 75.5888Z" fill="black"/>
</svg>
