<svg width="137" height="141" viewBox="0 0 137 141" fill="none" xmlns="http://www.w3.org/2000/svg">
<path d="M85.2209 99.2364L84.3042 100.153L84.3042 100.153L85.2209 99.2364ZM85.2209 88.6027L86.1375 89.5193L86.1375 89.5193L85.2209 88.6027ZM98.6508 112.666L99.5674 113.583L100.484 112.666L99.5674 111.75L98.6508 112.666ZM85.2224 126.095L86.1391 127.011L86.1391 127.011L85.2224 126.095ZM85.2224 136.677L84.3058 137.594L84.3058 137.594L85.2224 136.677ZM95.8047 136.677L96.7213 137.594L96.7213 137.594L95.8047 136.677ZM109.233 123.249L110.15 122.332L109.233 121.415L108.316 122.332L109.233 123.249ZM122.665 136.681L121.749 137.597L121.749 137.597L122.665 136.681ZM133.299 126.047L134.216 125.13L134.216 125.13L133.299 126.047ZM119.867 112.615L118.95 111.698L118.033 112.615L118.95 113.531L119.867 112.615ZM133.301 99.181L134.217 100.098L134.217 100.098L133.301 99.181ZM133.301 88.5988L134.217 87.6822L134.217 87.6822L133.301 88.5988ZM122.718 88.5988L123.635 89.5154L123.635 89.5154L122.718 88.5988ZM109.284 102.033L108.368 102.949L109.284 103.866L110.201 102.949L109.284 102.033ZM95.8545 88.6027L96.7712 87.6861L96.7712 87.6861L95.8545 88.6027ZM86.1375 98.3197C83.7073 95.8896 83.7073 91.9495 86.1375 89.5193L84.3042 87.6861C80.8616 91.1287 80.8616 96.7104 84.3042 100.153L86.1375 98.3197ZM99.5674 111.75L86.1375 98.3197L84.3042 100.153L97.7341 113.583L99.5674 111.75ZM86.1391 127.011L99.5674 113.583L97.7341 111.75L84.3058 125.178L86.1391 127.011ZM86.1391 135.76C83.7231 133.344 83.7231 129.427 86.1391 127.011L84.3058 125.178C80.8773 128.606 80.8773 134.165 84.3058 137.594L86.1391 135.76ZM94.888 135.76C92.4721 138.176 88.555 138.176 86.1391 135.76L84.3058 137.594C87.7342 141.022 93.2929 141.022 96.7213 137.594L94.888 135.76ZM108.316 122.332L94.888 135.76L96.7213 137.594L110.15 124.165L108.316 122.332ZM123.582 135.764L110.15 122.332L108.316 124.165L121.749 137.597L123.582 135.764ZM132.382 135.764C129.952 138.194 126.012 138.194 123.582 135.764L121.749 137.597C125.191 141.04 130.773 141.04 134.216 137.597L132.382 135.764ZM132.382 126.964C134.812 129.394 134.812 133.334 132.382 135.764L134.216 137.597C137.658 134.155 137.658 128.573 134.216 125.13L132.382 126.964ZM118.95 113.531L132.382 126.964L134.216 125.13L120.783 111.698L118.95 113.531ZM132.384 98.2644L118.95 111.698L120.783 113.531L134.217 100.098L132.384 98.2644ZM132.384 89.5154C134.8 91.9314 134.8 95.8484 132.384 98.2644L134.217 100.098C137.646 96.6692 137.646 91.1106 134.217 87.6822L132.384 89.5154ZM123.635 89.5154C126.051 87.0995 129.968 87.0995 132.384 89.5154L134.217 87.6822C130.789 84.2537 125.23 84.2537 121.802 87.6822L123.635 89.5154ZM110.201 102.949L123.635 89.5154L121.802 87.6822L108.368 101.116L110.201 102.949ZM94.9379 89.5193L108.368 102.949L110.201 101.116L96.7712 87.6861L94.9379 89.5193ZM86.1375 89.5193C88.5677 87.0892 92.5077 87.0892 94.9379 89.5193L96.7712 87.6861C93.3285 84.2434 87.7469 84.2434 84.3042 87.6861L86.1375 89.5193Z" fill="#755FFF"/>
<path d="M29.9593 94.5629C29.9593 100.87 24.846 105.984 18.5384 105.984C12.2309 105.984 7.1176 100.87 7.1176 94.5629C7.1176 88.2553 12.2309 83.142 18.5384 83.142C24.846 83.142 29.9593 88.2553 29.9593 94.5629Z" stroke="#2058C2" stroke-width="2.59263"/>
<path d="M62.264 127.842C62.264 134.15 57.1507 139.263 50.8431 139.263C44.5356 139.263 39.4223 134.15 39.4223 127.842C39.4223 121.535 44.5356 116.421 50.8431 116.421C57.1507 116.421 62.264 121.535 62.264 127.842Z" stroke="#2058C2" stroke-width="2.59263"/>
<rect x="4.50293" y="130.994" width="69.5053" height="13.5258" rx="6.76289" transform="rotate(-45 4.50293 130.994)" stroke="#00E9B1" stroke-width="2.59263"/>
<path d="M27.6233 29.4502V30.7465H28.9196V29.4502H27.6233ZM27.6233 43.9763H28.9196V42.68H27.6233V43.9763ZM42.0792 43.9763V42.68H40.7828V43.9763H42.0792ZM42.0792 29.4502H40.7828V30.7465H42.0792V29.4502ZM28.9196 11.1029C28.9196 7.82699 31.5753 5.17131 34.8512 5.17131V2.57869C30.1434 2.57869 26.327 6.39512 26.327 11.1029H28.9196ZM28.9196 29.4502V11.1029H26.327V29.4502H28.9196ZM9.27574 30.7465H27.6233V28.1539H9.27574V30.7465ZM3.30901 36.7133C3.30901 33.4179 5.98041 30.7465 9.27574 30.7465V28.1539C4.54854 28.1539 0.716382 31.9861 0.716382 36.7133H3.30901ZM9.27574 42.68C5.98041 42.68 3.30901 40.0086 3.30901 36.7133H0.716382C0.716382 41.4405 4.54854 45.2726 9.27574 45.2726V42.68ZM27.6233 42.68H9.27574V45.2726H27.6233V42.68ZM28.9196 62.3239V43.9763H26.327V62.3239H28.9196ZM34.8512 68.2556C31.5753 68.2556 28.9196 65.5999 28.9196 62.3239H26.327C26.327 67.0317 30.1434 70.8482 34.8512 70.8482V68.2556ZM40.7828 62.3239C40.7828 65.5999 38.1272 68.2556 34.8512 68.2556V70.8482C39.559 70.8482 43.3755 67.0317 43.3755 62.3239H40.7828ZM40.7828 43.9763V62.3239H43.3755V43.9763H40.7828ZM60.4265 42.68H42.0792V45.2726H60.4265V42.68ZM66.3932 36.7133C66.3932 40.0086 63.7218 42.68 60.4265 42.68V45.2726C65.1537 45.2726 68.9859 41.4405 68.9859 36.7133H66.3932ZM60.4265 30.7465C63.7218 30.7465 66.3932 33.4179 66.3932 36.7133H68.9859C68.9859 31.9861 65.1537 28.1539 60.4265 28.1539V30.7465ZM42.0792 30.7465H60.4265V28.1539H42.0792V30.7465ZM40.7828 11.1029V29.4502H43.3755V11.1029H40.7828ZM34.8512 5.17131C38.1272 5.17131 40.7828 7.82698 40.7828 11.1029H43.3755C43.3755 6.39512 39.559 2.57869 34.8512 2.57869V5.17131Z" fill="#FF2A77"/>
<path d="M134.925 49.5901C134.925 54.2663 133.46 57.9919 130.531 60.7668C127.653 63.4903 123.414 65.0576 117.813 65.4687V71.0302C117.813 75.0116 112.109 74.5944 112.109 71.0302V65.5457H105.557V71.0302C105.557 75.1159 99.853 74.9073 99.853 71.0302V65.5457H88.2139V10.6645H99.853V5.17998C99.853 1.39047 105.557 1.18196 105.557 5.17998V10.6645H112.109V5.17998C112.109 1.07853 117.813 1.28722 117.813 5.17998V10.8186C122.746 11.3839 126.446 12.9255 128.912 15.4435C131.43 17.91 132.689 20.9933 132.689 24.6931C132.689 30.1401 130.248 34.0198 125.367 36.3323C128.347 37.4114 130.685 39.1842 132.381 41.6508C134.077 44.066 134.925 46.7124 134.925 49.5901ZM119.74 26.7743C119.74 25.0271 119.175 23.6397 118.044 22.6119C116.965 21.5842 115.423 21.0703 113.419 21.0703H101.24V32.7866H113.419C115.423 32.7866 116.965 32.247 118.044 31.1679C119.175 30.0887 119.74 28.6242 119.74 26.7743ZM101.24 55.1399H114.267C116.579 55.1399 118.352 54.6003 119.586 53.5212C120.87 52.4421 121.513 50.9005 121.513 48.8964C121.513 44.734 119.097 42.6528 114.267 42.6528H101.24V55.1399Z" stroke="#FFC107" stroke-width="2.59263" stroke-linejoin="round"/>
</svg>
