<svg width="118" height="110" viewBox="0 0 118 110" fill="none" xmlns="http://www.w3.org/2000/svg">
<path d="M68.0207 60.1601C68.0207 61.4603 67.6517 62.5848 66.9138 63.5336C66.1934 64.4824 65.1743 65.1149 63.8566 65.4312V69.4636H60.9575V65.6684H58.7173V69.4636H55.8182V65.6684H53.6307V46.9034H55.8182V43.3455H58.7173V46.9034H60.9575V43.3455H63.8566V47.1406C64.9811 47.4217 65.8596 47.9401 66.4921 48.6956C67.1246 49.4511 67.4409 50.3823 67.4409 51.4892C67.4409 52.4907 67.1773 53.3341 66.6502 54.0194C66.1231 54.7046 65.3676 55.1878 64.3837 55.4689C66.8084 56.0839 68.0207 57.6476 68.0207 60.1601ZM61.142 50.0661H57.2677V54.1511H60.9838C61.8623 54.1511 62.5212 53.9666 62.9605 53.5977C63.3997 53.2287 63.6194 52.7192 63.6194 52.0691C63.6194 50.7337 62.7936 50.0661 61.142 50.0661ZM57.2677 62.374H61.1947C62.1786 62.374 62.9253 62.1456 63.4349 61.6887C63.9444 61.2319 64.1992 60.5994 64.1992 59.7912C64.1992 59.0005 63.9532 58.3943 63.4612 57.9726C62.9693 57.5334 62.2752 57.3138 61.3792 57.3138H57.2677V62.374Z" fill="black"/>
<path d="M8.55473 54.6513C-4.89705 42.7257 2.89084 21.3642 18.4549 21.3642H30.4621V13.3442L46.5688 29.4509L30.4621 45.5577V36.7078H17.2827" stroke="black" stroke-width="2.93052" stroke-linecap="round" stroke-linejoin="round"/>
<path d="M109.339 55.7093C122.791 67.6349 115.003 88.9964 99.4386 88.9964L87.4314 88.9964L87.4314 97.0164L71.3247 80.9097L87.4314 64.803L87.4314 73.6528L100.611 73.6528" stroke="black" stroke-width="2.93052" stroke-linecap="round" stroke-linejoin="round"/>
<path d="M21.7496 44.2657C17.8078 57.098 20.598 71.6233 30.3505 82.2076C41.7518 94.5813 59.2983 97.9111 73.9883 91.8289" stroke="black" stroke-width="3.51662" stroke-linecap="round"/>
<path d="M98.7559 63.6164C102.17 50.6337 98.7886 36.2346 88.6117 26.0577C76.7143 14.1603 59.0464 11.5503 44.6172 18.2277" stroke="black" stroke-width="3.51662" stroke-linecap="round"/>
<path d="M42.722 53.644C42.722 47.5361 42.722 44.4822 43.4431 43.4548C44.1642 42.4274 47.0357 41.4445 52.7788 39.4786L53.8729 39.1041C56.8666 38.0793 58.3635 37.567 59.9133 37.567C61.4632 37.567 62.96 38.0793 65.9537 39.1041L67.0479 39.4786C72.7909 41.4445 75.6624 42.4274 76.3835 43.4548C77.1046 44.4822 77.1046 47.5361 77.1046 53.644C77.1046 54.5666 77.1046 55.5671 77.1046 56.6519C77.1046 67.4215 69.0076 72.6477 63.9274 74.8669C62.5493 75.4689 61.8603 75.7699 59.9133 75.7699C57.9664 75.7699 57.2774 75.4689 55.8993 74.8669C50.8191 72.6477 42.722 67.4215 42.722 56.6519C42.722 55.5671 42.722 54.5666 42.722 53.644Z" stroke="black" stroke-width="3.30889"/>
</svg>
