<svg width="175" height="175" viewBox="0 0 175 175" fill="none" xmlns="http://www.w3.org/2000/svg">
<circle cx="87.3058" cy="87.6473" r="85.3855" stroke="#121212" stroke-width="3.30972"/>
<circle cx="87.3058" cy="87.6473" r="62.4317" fill="#121212"/>
<path d="M87.0293 133.615C106.533 133.615 122.344 118.346 122.344 99.5112V55.8241C122.344 53.5713 121.16 52.2976 118.854 52.2976H55.6228C53.1276 52.2976 52.0738 54.0663 52.0738 55.8241L51.7146 99.5112C51.7146 118.346 67.5256 133.615 87.0293 133.615Z" fill="#F4F4F4"/>
<path d="M59.5314 94.7381C58.197 94.7381 57.1118 95.8203 57.0877 97.1545C57.0217 100.82 56.9377 104.107 58.1019 107.416C59.5159 111.436 61.5884 115.088 64.2012 118.164C66.814 121.241 69.9158 123.681 73.3296 125.346C76.1099 126.702 81.7062 127.522 85.6835 127.779C87.0151 127.866 88.0972 126.786 88.0972 125.452L88.0972 111.303L88.0972 97.1543C88.0972 95.8199 87.0154 94.7382 85.681 94.7382L59.5314 94.7381Z" fill="#121212"/>
<rect x="57.1152" y="57.9565" width="30.2705" height="30.0902" rx="2.41616" fill="#121212"/>
<path fill-rule="evenodd" clip-rule="evenodd" d="M68.8856 104.112C68.2666 104.731 68.2666 105.735 68.8856 106.354L71.7166 109.185L68.8861 112.015C68.2701 112.631 68.2701 113.63 68.8861 114.246C69.5021 114.862 70.5008 114.862 71.1168 114.246L73.9472 111.416L76.7787 114.247C77.3977 114.866 78.4012 114.866 79.0202 114.247C79.6392 113.628 79.6392 112.624 79.0202 112.005L76.1888 109.174L79.0207 106.342C79.6367 105.726 79.6367 104.727 79.0207 104.111C78.4047 103.495 77.406 103.495 76.79 104.111L73.9581 106.943L71.1271 104.112C70.5082 103.493 69.5046 103.493 68.8856 104.112Z" fill="#F4F4F4"/>
<path fill-rule="evenodd" clip-rule="evenodd" d="M72.9575 66.0678C72.1324 66.0678 71.4635 66.7367 71.4635 67.5618L71.4635 71.3352L67.6907 71.3352C66.8696 71.3352 66.2039 72.0008 66.2039 72.822C66.2039 73.6431 66.8696 74.3088 67.6907 74.3088L71.4635 74.3088L71.4635 78.0837C71.4635 78.9088 72.1324 79.5777 72.9575 79.5777C73.7826 79.5777 74.4515 78.9088 74.4515 78.0837L74.4515 74.3088H78.227C79.0481 74.3088 79.7138 73.6431 79.7138 72.822C79.7138 72.0008 79.0481 71.3352 78.227 71.3352L74.4515 71.3352L74.4515 67.5618C74.4515 66.7367 73.7826 66.0678 72.9575 66.0678Z" fill="#F4F4F4"/>
<path fill-rule="evenodd" clip-rule="evenodd" d="M104.573 64.4496C103.912 64.3864 103.244 64.7042 102.89 65.3167L96.7301 75.9865C96.7031 76.0333 96.6785 76.0808 96.6563 76.129C96.4393 76.4193 96.3108 76.7797 96.3108 77.1701C96.3108 78.1316 97.0902 78.911 98.0518 78.911H110.818C111.779 78.911 112.559 78.1316 112.559 77.1701C112.559 76.8002 112.444 76.4573 112.247 76.1754C112.221 76.1168 112.192 76.0591 112.159 76.0024L105.991 65.3179C105.685 64.7878 105.142 64.4796 104.573 64.4496ZM104.45 69.6132L101.092 75.4291L107.808 75.4291L104.45 69.6132Z" fill="#121212"/>
<path d="M99.866 108.259C101.515 108.259 102.852 106.922 102.852 105.273C102.852 103.624 101.515 102.288 99.866 102.288C98.2171 102.288 96.8804 103.624 96.8804 105.273C96.8804 106.922 98.2171 108.259 99.866 108.259Z" fill="#121212"/>
<path d="M107.45 116.072C109.099 116.072 110.436 114.735 110.436 113.086C110.436 111.438 109.099 110.101 107.45 110.101C105.802 110.101 104.465 111.438 104.465 113.086C104.465 114.735 105.802 116.072 107.45 116.072Z" fill="#121212"/>
<rect x="96.5715" y="113.826" width="16.318" height="3.17548" rx="1.58774" transform="rotate(-45 96.5715 113.826)" fill="#121212"/>
<rect x="89.4133" y="90.083" width="28.1199" height="3.21252" rx="1.60626" fill="#121212"/>
<path fill-rule="evenodd" clip-rule="evenodd" d="M47.2416 146.769L45.9878 145.898C45.6742 145.667 45.317 145.503 44.938 145.415C44.559 145.326 44.1659 145.315 43.7826 145.383C43.0208 145.519 42.3439 145.951 41.8999 146.585C41.4558 147.218 41.2806 148.001 41.4125 148.762C41.4806 149.145 41.6256 149.51 41.8388 149.834C42.0519 150.159 42.3287 150.438 42.6525 150.653L45.3008 152.499L50.2643 145.417L48.8663 144.439L47.2416 146.769ZM44.8371 150.221L43.5834 149.349C43.4428 149.257 43.3231 149.136 43.232 148.995C43.1409 148.854 43.0804 148.695 43.0544 148.529C43.014 148.186 43.1012 147.84 43.2994 147.558C43.4977 147.275 43.7931 147.075 44.1295 146.995C44.2944 146.961 44.4649 146.961 44.6296 146.997C44.7943 147.033 44.9493 147.104 45.0844 147.205L46.3313 148.076L44.8371 150.221Z" fill="#1D1D1B"/>
<path fill-rule="evenodd" clip-rule="evenodd" d="M42.8139 139.887L40.801 142.117L39.8427 141.252L40.5537 137.852L39.1797 136.624L38.4309 140.326C37.9143 140.162 37.3615 140.147 36.8371 140.285C36.321 140.41 35.8551 140.689 35.5009 141.084C35.2486 141.365 35.0541 141.693 34.9287 142.048C34.8033 142.404 34.7495 142.781 34.7702 143.158C34.7909 143.535 34.8859 143.904 35.0496 144.244C35.2133 144.584 35.4425 144.888 35.7242 145.14L38.297 147.452L44.0882 141.026L42.8139 139.887ZM38.0874 145.129L36.7822 143.956C36.6657 143.851 36.5727 143.723 36.5094 143.58C36.446 143.437 36.4137 143.282 36.4146 143.126C36.419 142.793 36.5444 142.473 36.7675 142.225C36.9906 141.978 37.2961 141.82 37.6271 141.781C37.7832 141.761 37.9418 141.775 38.0918 141.823C38.2418 141.87 38.3798 141.949 38.4962 142.055L39.8049 143.235L38.0874 145.129Z" fill="#1D1D1B"/>
<path fill-rule="evenodd" clip-rule="evenodd" d="M36.7789 135.88C36.8457 134.824 36.5433 133.778 35.9234 132.921C35.3035 132.063 34.4047 131.447 33.3805 131.178C32.3563 130.91 31.2705 131.005 30.3087 131.447C29.3468 131.889 28.5687 132.652 28.1074 133.604C27.6461 134.556 27.5302 135.638 27.7796 136.666C28.029 137.694 28.6282 138.604 29.4747 139.239C30.3211 139.875 31.3623 140.197 32.4202 140.15C33.4781 140.104 34.487 139.692 35.2744 138.985C35.7249 138.598 36.091 138.123 36.3498 137.588C36.6087 137.054 36.7547 136.473 36.7789 135.88ZM35.1164 135.77C35.052 136.523 34.7031 137.224 34.1405 137.73C33.5778 138.236 32.8437 138.509 32.0868 138.494C31.3467 138.441 30.6559 138.104 30.1595 137.553C29.6631 137.002 29.3997 136.281 29.4247 135.54C29.4891 134.787 29.8375 134.087 30.3994 133.581C30.9613 133.075 31.6946 132.802 32.4509 132.816C33.1907 132.87 33.8808 133.208 34.3774 133.758C34.874 134.309 35.1387 135.029 35.1164 135.77Z" fill="#1D1D1B"/>
<path fill-rule="evenodd" clip-rule="evenodd" d="M30.187 127.882C30.3108 127.282 30.3114 126.663 30.1885 126.062C30.0657 125.462 29.8221 124.893 29.4725 124.389C29.1847 123.907 28.8034 123.487 28.351 123.153C27.8987 122.82 27.3843 122.58 26.8379 122.447C26.2944 122.328 25.732 122.324 25.1866 122.434C24.6412 122.545 24.125 122.768 23.671 123.089L23.1111 123.453L25.4777 127.086L26.7418 126.266L25.3128 124.07C25.8053 123.921 26.335 123.951 26.807 124.156C27.332 124.398 27.7714 124.792 28.0676 125.288C28.2963 125.608 28.4583 125.97 28.5438 126.353C28.6294 126.736 28.6368 127.132 28.5657 127.518C28.4909 127.885 28.3409 128.233 28.1251 128.54C27.9094 128.846 27.6325 129.105 27.312 129.299C27.0021 129.514 26.6518 129.664 26.2822 129.74C25.9126 129.816 25.5315 129.817 25.1617 129.742C24.7925 129.667 24.4431 129.515 24.1356 129.298C23.8281 129.081 23.5692 128.802 23.3756 128.479C23.1056 128.078 22.9414 127.615 22.8981 127.134C22.8499 126.704 22.925 126.268 23.1145 125.878L21.5997 125.117C21.2883 125.77 21.1567 126.495 21.2184 127.216C21.2798 127.986 21.5363 128.728 21.9638 129.371C22.2806 129.876 22.6956 130.313 23.1843 130.655C23.6729 130.997 24.2252 131.238 24.8087 131.364C25.3921 131.489 25.9948 131.496 26.5811 131.385C27.1674 131.274 27.7254 131.046 28.2222 130.716C28.7279 130.405 29.1635 129.992 29.5017 129.505C29.8398 129.017 30.0732 128.464 30.187 127.882Z" fill="#1D1D1B"/>
<path fill-rule="evenodd" clip-rule="evenodd" d="M25.5841 117.977L22.8602 119.246L22.314 118.076L24.2994 115.222L23.5197 113.554L21.3694 116.666C20.9597 116.314 20.4582 116.086 19.9234 116.008C19.3984 115.922 18.8597 115.996 18.3776 116.22C17.6887 116.546 17.1571 117.131 16.8996 117.848C16.642 118.564 16.6794 119.353 17.0037 120.042L18.467 123.175L26.3123 119.521L25.5841 117.977ZM19.1952 120.958L18.4532 119.366C18.3878 119.224 18.354 119.07 18.354 118.914C18.354 118.757 18.3878 118.603 18.4532 118.461C18.5825 118.15 18.8295 117.904 19.1402 117.774C19.4425 117.625 19.7912 117.599 20.1123 117.702C20.2626 117.746 20.4018 117.821 20.5204 117.922C20.6389 118.024 20.7341 118.151 20.7993 118.293L21.5412 119.885L19.1952 120.958Z" fill="#1D1D1B"/>
<path fill-rule="evenodd" clip-rule="evenodd" d="M22.6816 111.328H21.0397L19.9406 107.948L21.2527 106.946L20.7168 105.303L13.428 110.875L14.0806 112.885L23.2484 113.091L22.6816 111.328ZM15.6194 111.245L18.5975 108.967L19.3498 111.28L15.6194 111.245Z" fill="#1D1D1B"/>
<path fill-rule="evenodd" clip-rule="evenodd" d="M20.0988 102.507L14.6098 103.571L18.0756 100.428L18.031 100.232L13.6206 98.606L19.1336 97.5356L18.8107 95.875L10.3127 97.5253L10.6494 99.251L15.1319 100.894L11.594 104.106L11.9306 105.828L20.4251 104.178L20.0988 102.507Z" fill="#1D1D1B"/>
<path fill-rule="evenodd" clip-rule="evenodd" d="M18.6665 92.8008L17.0899 92.3342L16.9662 88.7866L18.5051 88.1827L18.4432 86.4673L9.90063 89.8159L9.97276 91.9259L18.7318 94.6501L18.6665 92.8008ZM11.9032 90.7731L15.393 89.4007L15.4789 91.8333L11.9032 90.7731Z" fill="#1D1D1B"/>
<path fill-rule="evenodd" clip-rule="evenodd" d="M19.0991 78.6722C19.1889 78.1244 19.1622 77.5639 19.0208 77.0272C18.8793 76.4904 18.6263 75.9895 18.2781 75.5569C17.5512 74.6801 16.5225 74.1063 15.3938 73.9483C14.2651 73.7902 13.118 74.0592 12.1777 74.7026C11.7232 75.0213 11.3413 75.4324 11.0571 75.909C10.7729 76.3856 10.593 76.9169 10.529 77.4679L10.0481 80.868L18.6354 82.0722L19.0991 78.6722ZM17.4847 78.4457L17.2408 80.1612L11.9029 79.4201L12.1434 77.7047C12.1776 77.3644 12.2841 77.0353 12.4559 76.7394C12.6277 76.4436 12.8608 76.1878 13.1395 75.9892C13.7447 75.6154 14.4617 75.465 15.1663 75.564C15.8708 75.6631 16.5185 76.0052 16.9969 76.5313C17.2083 76.7981 17.3604 77.1068 17.4434 77.4369C17.5263 77.7669 17.538 78.1108 17.4778 78.4457H17.4847Z" fill="#1D1D1B"/>
<path fill-rule="evenodd" clip-rule="evenodd" d="M21.3388 67.9369L19.7553 67.5423L18.8725 71.0796L16.9902 70.6096L17.7802 67.4325L16.2208 67.0448L15.4273 70.2219L13.6412 69.7758L14.5068 66.3003L12.9233 65.9058L11.6455 71.035L20.0439 73.1279L21.3388 67.9369Z" fill="#1D1D1B"/>
<path fill-rule="evenodd" clip-rule="evenodd" d="M23.5336 61.895L18.6973 59.7473L25.0416 58.5121L25.5705 57.325L17.6599 53.8118L16.9661 55.366L21.7853 57.5103L15.4582 58.7523L14.9292 59.936L22.8398 63.4527L23.5336 61.895Z" fill="#1D1D1B"/>
<path fill-rule="evenodd" clip-rule="evenodd" d="M29.174 51.0152L27.776 50.1746L25.8971 53.3002L24.2311 52.3018L25.9177 49.4953L24.5403 48.6684L22.8537 51.4715L21.2737 50.5245L23.1217 47.4539L21.7237 46.6133L18.9963 51.1455L26.4157 55.5989L29.174 51.0152Z" fill="#1D1D1B"/>
<path fill-rule="evenodd" clip-rule="evenodd" d="M26.1443 47.4301C26.6113 47.7947 27.1483 48.0595 27.722 48.2082C28.2958 48.357 28.894 48.3864 29.4795 48.2947C30.0865 48.2057 30.6689 47.9944 31.1915 47.6735C31.7141 47.3527 32.1659 46.929 32.5194 46.4283C32.8759 45.994 33.1417 45.4927 33.301 44.9541C33.4603 44.4155 33.5099 43.8505 33.4469 43.2924C33.3719 42.743 33.1832 42.2153 32.8929 41.7427C32.6025 41.2702 32.2168 40.8632 31.7603 40.5477L31.2176 40.136L28.6071 43.5978L29.8093 44.507L31.3893 42.4141C31.6962 42.8258 31.8482 43.3323 31.8187 43.8448C31.7706 44.4207 31.5491 44.9685 31.1833 45.4162C30.961 45.7399 30.676 46.0158 30.3449 46.2274C30.0139 46.439 29.6437 46.582 29.2563 46.6479C28.8855 46.7025 28.5074 46.6801 28.1457 46.5821C27.784 46.4841 27.4464 46.3126 27.1541 46.0783C26.8452 45.8616 26.5835 45.5844 26.3851 45.2635C26.1867 44.9427 26.0557 44.5849 26 44.2119C25.9446 43.8395 25.9672 43.4596 26.0666 43.0963C26.1659 42.7331 26.3397 42.3945 26.577 42.1019C26.863 41.7118 27.242 41.3993 27.6797 41.1927C28.0682 41.002 28.5028 40.9247 28.9334 40.9697L29.1395 39.2988C28.4166 39.2301 27.6884 39.3557 27.0305 39.6625C26.3274 39.981 25.7182 40.4749 25.2615 41.0966C24.8946 41.5666 24.6257 42.1052 24.4707 42.6807C24.3157 43.2562 24.2777 43.8569 24.3591 44.4473C24.4404 45.0377 24.6394 45.6059 24.9442 46.1182C25.2491 46.6305 25.6536 47.0766 26.1339 47.4301H26.1443Z" fill="#1D1D1B"/>
<path fill-rule="evenodd" clip-rule="evenodd" d="M35.9268 40.3077C36.9844 40.3361 38.0191 39.9966 38.8539 39.3474C39.6888 38.6981 40.2719 37.7793 40.5036 36.7482C40.7353 35.717 40.6011 34.6375 40.1242 33.6941C39.6472 32.7508 38.857 32.0022 37.8886 31.5764C36.9203 31.1506 35.8339 31.074 34.8152 31.3597C33.7966 31.6454 32.9089 32.2757 32.304 33.1428C31.6991 34.0098 31.4145 35.0598 31.4989 36.1133C31.5833 37.1668 32.0314 38.1582 32.7667 38.9182C33.1695 39.3543 33.658 39.7028 34.2017 39.9419C34.7455 40.181 35.3327 40.3055 35.9268 40.3077ZM34.0204 33.7581C34.2795 33.4958 34.5896 33.2892 34.9317 33.1512C35.2737 33.0131 35.6404 32.9464 36.0092 32.9552C36.3865 32.9618 36.7584 33.0459 37.1018 33.2023C37.4451 33.3587 37.7526 33.5841 38.0049 33.8644C38.2778 34.1241 38.4953 34.4363 38.6444 34.7822C38.7935 35.128 38.871 35.5004 38.8722 35.8769C38.8735 36.2534 38.7986 36.6263 38.6519 36.9732C38.5052 37.3201 38.2898 37.6337 38.0186 37.8953C37.7475 38.1568 37.4262 38.361 37.074 38.4953C36.7219 38.6297 36.3462 38.6916 35.9695 38.6772C35.5928 38.6628 35.2229 38.5725 34.882 38.4117C34.5412 38.2509 34.2364 38.0229 33.986 37.7414C33.7154 37.4788 33.5012 37.1639 33.3565 36.8159C33.2118 36.4678 33.1396 36.094 33.1445 35.7171C33.1498 35.3493 33.2303 34.9865 33.3809 34.6508C33.5315 34.3151 33.7491 34.0137 34.0204 33.7649V33.7581Z" fill="#1D1D1B"/>
<path fill-rule="evenodd" clip-rule="evenodd" d="M43.4561 33.343C44.4267 33.4782 45.4153 33.3022 46.2795 32.8404C47.1436 32.3786 47.8388 31.6548 48.2649 30.7733C48.5792 30.1169 48.7086 29.3875 48.6393 28.6632L46.9494 28.8382C47.0044 29.2683 46.9315 29.705 46.7398 30.0939C46.4647 30.637 46.0292 31.0825 45.4923 31.3703C44.9553 31.6581 44.3429 31.7743 43.7377 31.703C43.0022 31.5392 42.352 31.1126 41.9092 30.5036C41.4664 29.8945 41.2616 29.1449 41.3333 28.3956C41.4504 27.7991 41.7486 27.2532 42.1875 26.832C42.6263 26.4109 43.1844 26.135 43.7858 26.042C44.2209 25.9841 44.6635 26.0532 45.0602 26.241L45.7471 24.6868C45.0771 24.3978 44.341 24.2958 43.6175 24.3917C42.8643 24.4872 42.1478 24.773 41.5359 25.222C41.0414 25.5585 40.6217 25.9933 40.3032 26.4993C39.9846 27.0052 39.774 27.5714 39.6845 28.1623C39.5336 29.3444 39.8408 30.5393 40.5433 31.5025C41.2457 32.4656 42.2903 33.1241 43.4629 33.343H43.4561Z" fill="#1D1D1B"/>
<path d="M47.9501 21.2043L46.4868 22.0825L50.945 29.4935L52.4083 28.6153L47.9501 21.2043Z" fill="#1D1D1B"/>
<path fill-rule="evenodd" clip-rule="evenodd" d="M57.4018 17.6909C56.4132 17.3227 55.3272 17.3089 54.3295 17.6516C53.3317 17.9944 52.4841 18.6725 51.9313 19.5702C51.3785 20.4679 51.1548 21.5294 51.2986 22.5735C51.4423 23.6176 51.9445 24.5794 52.7194 25.2947C53.4942 26.01 54.4937 26.4345 55.547 26.4955C56.6004 26.5565 57.6423 26.2504 58.4948 25.6293C59.3472 25.0083 59.9574 24.1109 60.221 23.0904C60.4847 22.07 60.3854 20.9897 59.9402 20.0342C59.6993 19.4915 59.3498 19.0037 58.9133 18.6007C58.4768 18.1978 57.9624 17.8881 57.4018 17.6909ZM58.525 22.9333C58.2269 23.5936 57.6881 24.1155 57.0182 24.3929C56.3484 24.6703 55.598 24.6824 54.9195 24.4267C54.2411 24.1709 53.6858 23.6666 53.3665 23.0163C53.0472 22.366 52.988 21.6186 53.2009 20.9263C53.4668 20.2338 53.9914 19.6715 54.6643 19.3579C55.3371 19.0443 56.1055 19.0039 56.8076 19.2451C57.1622 19.375 57.4865 19.5759 57.7606 19.8355C58.0346 20.0951 58.2527 20.4079 58.4014 20.7547C58.57 21.0901 58.668 21.4565 58.6893 21.8312C58.7106 22.206 58.6547 22.5811 58.525 22.9333Z" fill="#1D1D1B"/>
<path fill-rule="evenodd" clip-rule="evenodd" d="M68.0088 21.3549C68.2065 21.0541 68.3315 20.7116 68.3738 20.3543C68.4161 19.997 68.3746 19.6348 68.2527 19.2963C68.182 19.0749 68.0802 18.8647 67.9504 18.6719C67.8429 18.5096 67.716 18.361 67.5726 18.2293C67.4265 18.1041 67.2605 18.0044 67.0813 17.9342C66.9115 17.8622 66.7371 17.8015 66.5593 17.7524C66.3626 17.7079 66.1628 17.6792 65.9616 17.6666C65.7074 17.6495 65.5082 17.6426 65.3673 17.6392H64.7353C64.2625 17.6707 63.7876 17.6302 63.327 17.5191C63.2025 17.4827 63.089 17.416 62.9966 17.325C62.9043 17.234 62.8361 17.1215 62.798 16.9976C62.7586 16.8838 62.7468 16.7622 62.7635 16.6429C62.7802 16.5236 62.825 16.41 62.8942 16.3114C63.0706 16.0724 63.3242 15.9016 63.6121 15.8276C63.9492 15.7074 64.3154 15.6953 64.6597 15.7931C65.0039 15.8909 65.309 16.0937 65.5322 16.3731L66.6417 15.1414C66.2019 14.6722 65.6389 14.3357 65.017 14.1705C64.3838 14.0101 63.7174 14.0387 63.1003 14.2528C62.3981 14.4618 61.7953 14.9176 61.4035 15.536C61.2136 15.8365 61.0956 16.1767 61.0587 16.5301C61.0217 16.8836 61.0668 17.2408 61.1905 17.574C61.2935 17.9166 61.4719 18.2319 61.7126 18.4969C61.9336 18.7326 62.2116 18.9075 62.5198 19.0047C62.8141 19.1019 63.1182 19.1663 63.4266 19.1968C63.7693 19.2259 64.1134 19.235 64.4571 19.2242C64.9767 19.1811 65.4997 19.2053 66.0131 19.2963C66.1457 19.3246 66.2692 19.3854 66.3724 19.4732C66.4756 19.561 66.5554 19.6731 66.6044 19.7994C66.6535 19.9256 66.6703 20.0621 66.6535 20.1965C66.6366 20.3309 66.5865 20.4589 66.5077 20.5692C66.2709 20.8545 65.9479 21.0555 65.5872 21.1421C65.1867 21.3057 64.7431 21.3314 64.3264 21.2153C63.9097 21.0991 63.5436 20.8476 63.2858 20.5006L62.1626 21.7597C62.5764 22.3028 63.1605 22.6918 63.8216 22.8645C64.5626 23.0445 65.3403 23.0028 66.0578 22.7444C66.8524 22.5268 67.5439 22.0344 68.0088 21.3549Z" fill="#1D1D1B"/>
<path fill-rule="evenodd" clip-rule="evenodd" d="M76.3076 20.2912C77.1376 20.1916 77.9115 19.8214 78.5094 19.2379L79.4093 19.9687L80.6493 19.0115L79.3716 17.9547C79.6428 17.3536 79.8101 16.711 79.8662 16.054L78.3308 15.4433C78.3252 15.9425 78.2525 16.4388 78.1144 16.9186L75.9985 15.1723C75.7697 14.9957 75.5602 14.7956 75.3733 14.5753C75.2351 14.4022 75.1472 14.1945 75.1191 13.9749C75.0992 13.8531 75.1063 13.7285 75.1402 13.6099C75.174 13.4913 75.2337 13.3816 75.3149 13.2887C75.4902 13.0863 75.7356 12.9576 76.0019 12.9284C76.6065 12.8461 77.0736 13.1274 77.4068 13.7793L78.7361 12.75C78.4506 12.2204 78.0028 11.796 77.4583 11.5389C76.9224 11.2904 76.3245 11.2068 75.7409 11.2987C75.0305 11.3716 74.3758 11.7158 73.9135 12.2594C73.6966 12.5182 73.5388 12.821 73.451 13.1469C73.3632 13.4728 73.3475 13.8139 73.4051 14.1464C73.475 14.6537 73.6896 15.1301 74.0234 15.5188C73.6195 15.8233 73.3055 16.2311 73.1145 16.6991C72.9234 17.1671 72.8624 17.678 72.938 18.1777C72.9736 18.5325 73.0915 18.8741 73.2823 19.1754C73.4731 19.4768 73.7315 19.7296 74.0371 19.9138C74.7241 20.3076 75.53 20.4416 76.3076 20.2912ZM74.628 17.7592C74.5875 17.5202 74.6131 17.2746 74.7021 17.0491C74.7911 16.8236 74.94 16.6266 75.1329 16.4794C75.1409 16.4928 75.1514 16.5044 75.1638 16.5137L77.3003 18.2532C76.987 18.5104 76.607 18.6735 76.2046 18.7233C75.8306 18.8028 75.4405 18.7417 75.1089 18.5517C74.9747 18.4637 74.8619 18.3468 74.7787 18.2097C74.6955 18.0726 74.644 17.9187 74.628 17.7592Z" fill="#1D1D1B"/>
<path fill-rule="evenodd" clip-rule="evenodd" d="M89.6866 12.1739C90.1534 12.1824 90.6101 12.3112 91.0124 12.5479C91.391 12.77 91.6975 13.0964 91.8952 13.4879L93.3928 12.6851C93.0434 12.045 92.5255 11.5123 91.8952 11.1446C91.2439 10.7559 90.5034 10.5409 89.745 10.5202C89.1481 10.4808 88.5496 10.565 87.9869 10.7675C87.4242 10.97 86.9094 11.2864 86.4749 11.697C85.6277 12.5339 85.1327 13.6626 85.0912 14.8521C85.0497 16.0415 85.4648 17.2019 86.2516 18.0957C86.655 18.5381 87.1461 18.8919 87.6936 19.1347C88.2412 19.3774 88.8333 19.5038 89.4324 19.5058C90.1927 19.5398 90.9488 19.3767 91.6273 19.0323C92.2785 18.7069 92.8293 18.2113 93.2211 17.5982L91.7819 16.6959C91.5592 17.0695 91.2321 17.3701 90.8407 17.5605C90.4217 17.7661 89.9571 17.8618 89.4908 17.8384C89.1148 17.842 88.7423 17.7674 88.3969 17.6191C88.0515 17.4708 87.7408 17.2522 87.4848 16.9772C87.0068 16.3959 86.7578 15.6603 86.7843 14.9086C86.8109 14.1568 87.1113 13.4406 87.6291 12.8944C87.9029 12.6378 88.2274 12.4412 88.5817 12.3172C88.936 12.1931 89.3123 12.1443 89.6866 12.1739Z" fill="#1D1D1B"/>
<path fill-rule="evenodd" clip-rule="evenodd" d="M96.7794 16.9359L98.0572 17.1383L99.3144 20.3771L101.135 20.6653L99.7609 17.1452C100.288 17.0038 100.765 16.7159 101.135 16.3149C101.5 15.9297 101.74 15.4427 101.822 14.9185C101.881 14.5451 101.866 14.1637 101.777 13.7962C101.688 13.4288 101.527 13.0825 101.303 12.7774C101.08 12.4722 100.798 12.2142 100.475 12.0182C100.151 11.8221 99.7916 11.692 99.4174 11.6351L95.9825 11.0964L94.6257 19.636L96.3123 19.9002L96.7794 16.9359ZM97.4149 12.9354L99.1323 13.2099C99.2871 13.2338 99.435 13.2906 99.5659 13.3764C99.6969 13.4622 99.8079 13.5751 99.8914 13.7074C100.072 13.9877 100.143 14.3247 100.09 14.6538C100.037 14.9829 99.8652 15.2811 99.6063 15.4915C99.487 15.5935 99.3468 15.6682 99.1955 15.7103C99.0441 15.7524 98.8854 15.7608 98.7304 15.7351L96.9958 15.4606L97.4149 12.9354Z" fill="#1D1D1B"/>
<path d="M104.39 12.6504L102.296 21.0396L103.952 21.4521L106.046 13.0629L104.39 12.6504Z" fill="#1D1D1B"/>
<path fill-rule="evenodd" clip-rule="evenodd" d="M107.311 22.3878L108.19 19.6876L109.636 20.1577C110.004 20.2865 110.394 20.3396 110.782 20.3136C111.17 20.2877 111.55 20.1833 111.897 20.0067C112.585 19.6545 113.106 19.0443 113.346 18.3094C113.585 17.5745 113.524 16.7748 113.174 16.0852C112.998 15.7381 112.753 15.4307 112.453 15.1817C112.154 14.9328 111.807 14.7475 111.433 14.6373L108.365 13.6389L105.69 21.8731L107.311 22.3878ZM109.496 15.6803L110.942 16.1504C111.102 16.1984 111.251 16.2793 111.379 16.388C111.507 16.4967 111.611 16.6308 111.684 16.7816C111.824 17.0973 111.843 17.4537 111.737 17.7825C111.63 18.1112 111.406 18.389 111.107 18.5623C110.959 18.6437 110.795 18.6928 110.627 18.7064C110.459 18.72 110.29 18.6978 110.131 18.6412L108.685 18.1712L109.496 15.6803Z" fill="#1D1D1B"/>
<path fill-rule="evenodd" clip-rule="evenodd" d="M115.95 25.7396L118.918 19.3821L121.033 20.3702L121.724 18.8915L115.953 16.2017L115.263 17.6804L117.372 18.6616L114.401 25.0191L115.95 25.7396Z" fill="#1D1D1B"/>
<path fill-rule="evenodd" clip-rule="evenodd" d="M120.618 26.7481C120.845 27.7813 121.425 28.7035 122.257 29.357C123.09 30.0106 124.124 30.3548 125.183 30.3309C126.242 30.307 127.259 29.9164 128.062 29.2259C128.864 28.5355 129.401 27.588 129.582 26.5456C129.762 25.5032 129.574 24.4307 129.05 23.5114C128.526 22.5921 127.699 21.8832 126.709 21.5059C125.72 21.1286 124.63 21.1064 123.626 21.4431C122.622 21.7797 121.766 22.4543 121.205 23.3515C120.878 23.8468 120.658 24.4041 120.557 24.9886C120.456 25.573 120.476 26.172 120.618 26.7481ZM122.641 24.247C122.829 23.9205 123.083 23.6362 123.386 23.4119C123.689 23.1876 124.035 23.0281 124.403 22.9432C125.129 22.7895 125.887 22.9232 126.517 23.3161C127.146 23.7089 127.599 24.3304 127.78 25.0498C127.865 25.417 127.873 25.7978 127.805 26.1685C127.736 26.5392 127.592 26.8919 127.381 27.2044C127.193 27.5285 126.942 27.8116 126.642 28.0367C126.342 28.2618 126 28.4244 125.636 28.5148C125.272 28.6052 124.894 28.6216 124.524 28.5629C124.153 28.5042 123.798 28.3717 123.48 28.1732C123.162 27.9748 122.887 27.7145 122.672 27.4077C122.457 27.101 122.306 26.7542 122.227 26.3879C122.149 26.0215 122.145 25.6432 122.216 25.2754C122.287 24.9076 122.432 24.5579 122.641 24.247Z" fill="#1D1D1B"/>
<path fill-rule="evenodd" clip-rule="evenodd" d="M133.688 32.9858C133.894 32.966 134.089 32.8861 134.25 32.756C134.411 32.6259 134.53 32.4514 134.592 32.2542C134.655 32.057 134.657 31.8459 134.6 31.6472C134.543 31.4484 134.429 31.2709 134.272 31.1366C134.166 31.0469 134.044 30.9795 133.912 30.9382C133.779 30.8969 133.64 30.8827 133.502 30.8964C133.296 30.9162 133.101 30.9961 132.94 31.1262C132.779 31.2563 132.66 31.4308 132.598 31.628C132.535 31.8252 132.533 32.0363 132.59 32.235C132.647 32.4338 132.761 32.6114 132.918 32.7457C133.024 32.8353 133.146 32.9028 133.279 32.944C133.411 32.9853 133.55 32.9995 133.688 32.9858Z" fill="#1D1D1B"/>
<path fill-rule="evenodd" clip-rule="evenodd" d="M146.428 38.4892L145.153 37.1237L138.854 40.1257L142.278 34.0461L141.014 32.6909L136.666 40.709L138.105 42.2529L146.428 38.4892Z" fill="#1D1D1B"/>
<path d="M147.578 40.1371L140.666 45.3403L141.693 46.7021L148.606 41.4989L147.578 40.1371Z" fill="#1D1D1B"/>
<path fill-rule="evenodd" clip-rule="evenodd" d="M148.149 51.8869C148.345 51.7638 148.522 51.6123 148.674 51.4374C148.809 51.2926 148.924 51.1312 149.018 50.9571C149.102 50.7835 149.155 50.5966 149.176 50.4047C149.201 50.2228 149.215 50.0394 149.217 49.8558C149.211 49.6538 149.187 49.4529 149.145 49.2553C149.097 49.0083 149.052 48.8128 149.018 48.6755C148.983 48.5383 148.925 48.3324 148.849 48.0682C148.699 47.6185 148.616 47.1492 148.602 46.6753C148.605 46.5455 148.641 46.4185 148.706 46.3059C148.771 46.1933 148.862 46.0986 148.973 46.0303C149.073 45.9628 149.187 45.9199 149.306 45.905C149.426 45.8901 149.547 45.9036 149.66 45.9445C149.937 46.0539 150.169 46.2549 150.316 46.514C150.519 46.8081 150.626 47.1583 150.62 47.5157C150.615 47.873 150.498 48.2198 150.285 48.5074L151.762 49.2588C152.101 48.7127 152.282 48.0831 152.284 47.4404C152.274 46.7877 152.074 46.1521 151.707 45.6117C151.323 44.9886 150.727 44.5255 150.027 44.3079C149.511 44.1745 148.965 44.2052 148.466 44.3959C147.968 44.5865 147.541 44.9275 147.245 45.3715C147.072 45.6459 146.974 45.9604 146.96 46.2842C146.942 46.5926 146.958 46.9021 147.008 47.2071C147.071 47.5489 147.154 47.8869 147.256 48.2192C147.431 48.7113 147.546 49.2228 147.599 49.7425C147.605 49.8779 147.578 50.0126 147.519 50.1348C147.46 50.2569 147.372 50.3627 147.263 50.4425C147.153 50.5224 147.026 50.5739 146.891 50.5924C146.757 50.611 146.62 50.596 146.493 50.5488C146.156 50.3934 145.879 50.1334 145.703 49.8077C145.437 49.4627 145.294 49.0383 145.299 48.6027C145.303 48.1672 145.454 47.7457 145.727 47.4061L144.216 46.6478C143.799 47.1885 143.575 47.8527 143.58 48.5348C143.594 49.2961 143.833 50.0362 144.267 50.662C144.68 51.365 145.327 51.9015 146.095 52.1785C146.436 52.2923 146.799 52.3252 147.156 52.2746C147.512 52.224 147.852 52.0912 148.149 51.8869Z" fill="#1D1D1B"/>
<path d="M154.375 50.3148L146.733 54.3738L147.534 55.8794L155.177 51.8203L154.375 50.3148Z" fill="#1D1D1B"/>
<path fill-rule="evenodd" clip-rule="evenodd" d="M149.337 57.9559C149.131 58.792 149.209 59.673 149.56 60.4596C149.911 61.2462 150.514 61.8936 151.274 62.2995C151.649 62.4703 152.057 62.5549 152.468 62.5472C152.879 62.5395 153.284 62.4396 153.651 62.2549L158.972 59.891L158.285 58.3333L153.088 60.6423C152.913 60.732 152.722 60.7855 152.526 60.7997C152.33 60.8138 152.134 60.7883 151.948 60.7247C151.567 60.5077 151.266 60.1751 151.087 59.7753C150.909 59.3755 150.862 58.9293 150.955 58.5014C151.033 58.3215 151.146 58.1588 151.288 58.0228C151.429 57.8868 151.596 57.7801 151.779 57.7089L156.969 55.4033L156.283 53.856L150.962 56.2233C150.579 56.3735 150.235 56.6069 149.954 56.9066C149.673 57.2063 149.462 57.5648 149.337 57.9559Z" fill="#1D1D1B"/>
<path fill-rule="evenodd" clip-rule="evenodd" d="M152.188 66.856L157.591 65.4081L154.356 68.7876L154.414 68.9797L158.924 70.2938L153.5 71.7451L153.94 73.3816L162.301 71.1446L161.844 69.4429L157.258 68.1151L160.563 64.6636L160.109 62.9722L151.749 65.2091L152.188 66.856Z" fill="#1D1D1B"/>
<path fill-rule="evenodd" clip-rule="evenodd" d="M155.104 81.863C155.139 82.4174 155.291 82.9583 155.55 83.4497C155.809 83.9412 156.17 84.3721 156.609 84.7141C157.514 85.405 158.645 85.7331 159.78 85.6341C160.915 85.5351 161.972 85.016 162.743 84.1788C163.114 83.7653 163.393 83.2784 163.562 82.7499C163.731 82.2214 163.787 81.6631 163.726 81.1116L163.427 77.6807L154.805 78.432L155.104 81.863ZM161.95 79.5299L162.101 81.2454C162.143 81.5836 162.112 81.9267 162.011 82.252C161.909 82.5774 161.74 82.8775 161.514 83.1324C161.009 83.6338 160.345 83.9427 159.637 84.0054C158.928 84.0681 158.22 83.8806 157.636 83.4755C157.368 83.2637 157.149 82.9976 156.993 82.6947C156.836 82.3918 156.746 82.0592 156.729 81.7189L156.578 80.0034L161.95 79.5299Z" fill="#1D1D1B"/>
<path d="M155.357 87.484L155.328 89.189L163.982 89.3399L164.012 87.6349L155.357 87.484Z" fill="#1D1D1B"/>
<path fill-rule="evenodd" clip-rule="evenodd" d="M159.735 91.1987C159.148 91.1145 158.551 91.1524 157.98 91.31C157.409 91.4677 156.876 91.7417 156.416 92.1148C155.932 92.4928 155.53 92.9656 155.234 93.5042C154.939 94.0427 154.757 94.6359 154.699 95.2472C154.608 95.8016 154.629 96.3685 154.761 96.9146C154.892 97.4608 155.132 97.9752 155.465 98.4277C155.805 98.8683 156.233 99.2332 156.722 99.499C157.211 99.7649 157.751 99.9258 158.306 99.9716L158.965 100.054L159.494 95.7481L158 95.5663L157.681 98.1635C157.206 97.9617 156.819 97.5965 156.592 97.1342C156.342 96.6125 156.259 96.0268 156.355 95.4565C156.384 95.0653 156.493 94.6841 156.673 94.3358C156.854 93.9874 157.103 93.6789 157.406 93.4288C157.699 93.1951 158.037 93.0248 158.4 92.9285C158.762 92.8323 159.141 92.8122 159.511 92.8696C159.886 92.903 160.251 93.0113 160.583 93.1881C160.915 93.3649 161.208 93.6066 161.445 93.8988C161.68 94.1938 161.851 94.5343 161.947 94.8988C162.042 95.2632 162.061 95.6436 162.002 96.0157C161.951 96.497 161.778 96.9575 161.5 97.3538C161.26 97.713 160.923 97.9973 160.528 98.1738L161.184 99.7246C161.845 99.4213 162.413 98.9476 162.829 98.3522C163.28 97.7247 163.561 96.9923 163.647 96.225C163.729 95.6347 163.692 95.0339 163.538 94.4581C163.383 93.8824 163.115 93.3434 162.749 92.8729C162.383 92.4024 161.926 92.01 161.405 91.7189C160.884 91.4279 160.31 91.244 159.717 91.1781L159.735 91.1987Z" fill="#1D1D1B"/>
<path d="M154.085 100.884L153.73 102.552L162.197 104.35L162.552 102.682L154.085 100.884Z" fill="#1D1D1B"/>
<path fill-rule="evenodd" clip-rule="evenodd" d="M159.58 108L152.861 105.948L152.363 107.578L159.082 109.629L158.398 111.859L159.958 112.336L161.82 106.253L160.26 105.776L159.58 108Z" fill="#1D1D1B"/>
<path fill-rule="evenodd" clip-rule="evenodd" d="M150.938 111.924L152.188 112.988L150.855 116.282L149.203 116.21L148.557 117.812L157.725 118.224L158.519 116.265L151.628 110.219L150.938 111.924ZM153.459 114.1L156.293 116.525L152.545 116.357L153.459 114.1Z" fill="#1D1D1B"/>
<path fill-rule="evenodd" clip-rule="evenodd" d="M145.476 123.168L146.905 123.957L148.502 121.072L154.648 124.475L155.475 122.983L147.905 118.79L145.476 123.168Z" fill="#1D1D1B"/>
<path fill-rule="evenodd" clip-rule="evenodd" d="M146.631 129.168C146.521 129.085 146.395 129.025 146.26 128.993C146.126 128.961 145.987 128.958 145.851 128.983C145.714 129.002 145.582 129.049 145.463 129.12C145.345 129.191 145.242 129.285 145.16 129.397C145.079 129.509 145.021 129.636 144.989 129.77C144.958 129.905 144.954 130.044 144.978 130.181C145.006 130.35 145.075 130.51 145.179 130.647C145.283 130.784 145.419 130.893 145.576 130.965C145.732 131.036 145.904 131.068 146.075 131.058C146.247 131.048 146.414 130.995 146.56 130.905C146.707 130.816 146.829 130.691 146.916 130.543C147.003 130.395 147.052 130.227 147.059 130.056C147.066 129.884 147.031 129.713 146.956 129.558C146.881 129.404 146.77 129.27 146.631 129.168Z" fill="#1D1D1B"/>
<path fill-rule="evenodd" clip-rule="evenodd" d="M139.184 133.629C138.585 133.633 137.994 133.762 137.448 134.005C136.902 134.249 136.412 134.604 136.01 135.046C135.475 135.587 135.091 136.257 134.893 136.991C134.699 137.694 134.699 138.436 134.893 139.139L136.532 138.672C136.406 138.256 136.406 137.812 136.532 137.396C136.656 136.947 136.892 136.538 137.219 136.205C137.468 135.924 137.774 135.698 138.116 135.541C138.457 135.384 138.828 135.299 139.204 135.293C139.579 135.295 139.949 135.372 140.293 135.52C140.637 135.668 140.948 135.883 141.207 136.154C141.488 136.404 141.716 136.709 141.878 137.049C142.039 137.389 142.131 137.758 142.148 138.134C142.137 138.742 141.938 139.332 141.578 139.824C141.219 140.315 140.716 140.683 140.138 140.878C139.721 141.012 139.273 141.022 138.85 140.906L138.431 142.549C139.142 142.717 139.886 142.689 140.582 142.467C141.307 142.244 141.962 141.839 142.485 141.29C142.913 140.873 143.251 140.373 143.477 139.819C143.702 139.266 143.811 138.672 143.797 138.075C143.745 136.883 143.238 135.757 142.38 134.927C141.522 134.098 140.378 133.628 139.184 133.615V133.629Z" fill="#1D1D1B"/>
<path fill-rule="evenodd" clip-rule="evenodd" d="M128.312 142.168L129.363 143.417L132.156 141.074L133.406 142.559L130.895 144.663L131.929 145.894L134.436 143.791L135.621 145.198L132.874 147.503L133.925 148.749L137.978 145.352L132.413 138.73L128.312 142.168Z" fill="#1D1D1B"/>
<path fill-rule="evenodd" clip-rule="evenodd" d="M125.677 143.98L127.316 146.498L126.23 147.184L123.139 145.616L121.593 146.622L124.977 148.313C124.685 148.768 124.528 149.296 124.523 149.836C124.511 150.367 124.661 150.889 124.953 151.332C125.159 151.648 125.425 151.921 125.736 152.134C126.048 152.347 126.398 152.497 126.768 152.575C127.137 152.653 127.518 152.657 127.889 152.587C128.26 152.518 128.614 152.376 128.93 152.17L131.833 150.286L127.12 143.036L125.677 143.98ZM129.524 149.895L128.051 150.852C127.92 150.937 127.772 150.994 127.617 151.017C127.463 151.041 127.305 151.031 127.154 150.989C126.829 150.916 126.546 150.719 126.364 150.44C126.176 150.162 126.103 149.821 126.162 149.49C126.183 149.335 126.237 149.186 126.321 149.054C126.406 148.922 126.518 148.809 126.649 148.725L128.123 147.768L129.524 149.895Z" fill="#1D1D1B"/>
<path fill-rule="evenodd" clip-rule="evenodd" d="M122.335 154.214L119.041 148.021L117.533 148.821L120.831 155.017L118.766 156.112L119.532 157.553L125.155 154.564L124.389 153.127L122.335 154.214Z" fill="#1D1D1B"/>
<path d="M114.866 150.079L113.279 150.71L116.481 158.751L118.069 158.12L114.866 150.079Z" fill="#1D1D1B"/>
<path fill-rule="evenodd" clip-rule="evenodd" d="M109.465 152.214L110.495 155.384L107.297 156.424L107.802 157.971L111 156.935L111.635 158.884L108.341 159.954L108.846 161.505L113.762 159.91L111.086 151.686L109.465 152.214Z" fill="#1D1D1B"/>
<path d="M104.794 153.662L103.138 154.074L105.232 162.464L106.888 162.051L104.794 153.662Z" fill="#1D1D1B"/>
<path fill-rule="evenodd" clip-rule="evenodd" d="M100.678 155.782C100.198 155.425 99.6484 155.172 99.0648 155.038C98.4811 154.905 97.876 154.894 97.288 155.007C96.5362 155.118 95.8261 155.422 95.2271 155.889C94.6497 156.334 94.2035 156.927 93.9355 157.604L95.5225 158.215C95.6679 157.805 95.9306 157.447 96.2781 157.185C96.6507 156.903 97.0893 156.72 97.5525 156.654C97.9205 156.578 98.3002 156.58 98.6675 156.659C99.0347 156.738 99.3814 156.893 99.6856 157.113C100.267 157.593 100.653 158.267 100.772 159.011C100.89 159.755 100.732 160.516 100.328 161.152C99.9533 161.631 99.4392 161.984 98.8561 162.16C98.2731 162.336 97.6497 162.328 97.0716 162.136C96.6582 161.99 96.2949 161.729 96.024 161.385L94.7015 162.449C95.1718 163.014 95.7867 163.44 96.4808 163.684C97.1941 163.941 97.9619 164.011 98.7101 163.886C99.3034 163.812 99.8749 163.615 100.389 163.309C100.902 163.003 101.347 162.595 101.695 162.109C102.367 161.125 102.637 159.923 102.451 158.747C102.264 157.571 101.635 156.51 100.692 155.782H100.678Z" fill="#1D1D1B"/>
<path fill-rule="evenodd" clip-rule="evenodd" d="M90.6415 157.446L87.0898 157.57L86.4853 156.036L84.7678 156.094L88.1237 164.63L90.2362 164.555L92.9601 155.81L91.119 155.875L90.6415 157.446ZM89.0786 162.63L87.7047 159.144L90.14 159.059L89.0786 162.63Z" fill="#1D1D1B"/>
<path fill-rule="evenodd" clip-rule="evenodd" d="M77.0974 156.65C76.255 157.421 75.7323 158.479 75.6325 159.616C75.5326 160.753 75.8629 161.886 76.5582 162.792C76.9005 163.229 77.332 163.59 77.824 163.849C78.316 164.108 78.8575 164.26 79.4126 164.294L82.8475 164.593L83.5997 155.978L80.1648 155.679C79.6139 155.617 79.0561 155.671 78.5277 155.839C77.9992 156.006 77.5119 156.282 77.0974 156.65ZM81.2812 162.792L79.5637 162.641C79.2233 162.623 78.8904 162.534 78.5872 162.378C78.284 162.223 78.0174 162.005 77.805 161.738C77.3992 161.154 77.2114 160.446 77.2741 159.738C77.3369 159.029 77.6463 158.365 78.1485 157.861C78.404 157.636 78.7046 157.467 79.0303 157.367C79.356 157.266 79.6994 157.236 80.0377 157.278L81.7552 157.429L81.2812 162.792Z" fill="#1D1D1B"/>
<path fill-rule="evenodd" clip-rule="evenodd" d="M70.5128 153.803C69.5098 153.56 68.4538 153.672 67.5241 154.12C66.5945 154.567 65.8488 155.322 65.4137 156.257C64.9786 157.192 64.881 158.248 65.1375 159.246C65.394 160.245 65.9888 161.124 66.8207 161.733C67.6526 162.343 68.6703 162.647 69.7008 162.592C70.7312 162.537 71.7108 162.127 72.473 161.432C73.2352 160.737 73.7329 159.8 73.8815 158.78C74.0302 157.76 73.8205 156.72 73.2882 155.837C72.9881 155.328 72.5873 154.884 72.1101 154.535C71.633 154.185 71.0895 153.936 70.5128 153.803ZM72.1341 158.843C72.0557 159.211 71.9025 159.559 71.6839 159.865C71.4652 160.171 71.1859 160.429 70.8632 160.623C70.2199 160.994 69.4577 161.101 68.7369 160.922C68.0162 160.743 67.3932 160.291 66.9989 159.663C66.6313 159.004 66.5272 158.23 66.7075 157.497C66.8879 156.765 67.3393 156.127 67.971 155.714C68.6155 155.348 69.3761 155.244 70.0953 155.423C70.8146 155.601 71.4375 156.05 71.8353 156.674C72.0313 156.996 72.159 157.354 72.2104 157.727C72.2618 158.1 72.2359 158.48 72.1341 158.843Z" fill="#1D1D1B"/>
</svg>
