<svg width="175" height="175" viewBox="0 0 175 175" fill="none" xmlns="http://www.w3.org/2000/svg">
<circle cx="88.4552" cy="87.1603" r="62.4317" fill="#121212"/>
<circle cx="87.5853" cy="87.8021" r="85.3855" stroke="#121212" stroke-width="3.30972"/>
<path fill-rule="evenodd" clip-rule="evenodd" d="M48.5477 147.232L47.294 146.36C46.9803 146.13 46.6232 145.966 46.2442 145.877C45.8651 145.789 45.4721 145.778 45.0888 145.846C44.3269 145.982 43.6501 146.414 43.206 147.047C42.762 147.681 42.5867 148.464 42.7187 149.225C42.7868 149.608 42.9318 149.972 43.1449 150.297C43.358 150.622 43.6348 150.901 43.9587 151.116L46.607 152.962L51.5704 145.88L50.1724 144.902L48.5477 147.232ZM46.1433 150.683L44.8895 149.812C44.749 149.72 44.6293 149.599 44.5382 149.458C44.4471 149.317 44.3866 149.158 44.3606 148.992C44.3201 148.649 44.4073 148.303 44.6056 148.021C44.8038 147.738 45.0993 147.538 45.4357 147.458C45.6006 147.423 45.7711 147.424 45.9357 147.46C46.1004 147.496 46.2555 147.567 46.3906 147.668L47.6375 148.539L46.1433 150.683Z" fill="#1D1D1B"/>
<path fill-rule="evenodd" clip-rule="evenodd" d="M44.1203 140.349L42.1074 142.579L41.1491 141.714L41.8601 138.314L40.4861 137.086L39.7373 140.788C39.2207 140.623 38.6679 140.609 38.1435 140.747C37.6274 140.872 37.1615 141.151 36.8073 141.546C36.555 141.827 36.3605 142.155 36.2351 142.51C36.1097 142.866 36.0559 143.243 36.0766 143.62C36.0973 143.997 36.1923 144.366 36.356 144.706C36.5197 145.046 36.7489 145.35 37.0306 145.601L39.6034 147.914L45.3946 141.488L44.1203 140.349ZM39.3938 145.591L38.0886 144.418C37.9721 144.313 37.8791 144.185 37.8158 144.042C37.7524 143.899 37.7201 143.744 37.721 143.588C37.7254 143.255 37.8508 142.935 38.0739 142.687C38.297 142.44 38.6025 142.282 38.9335 142.243C39.0896 142.223 39.2482 142.237 39.3982 142.285C39.5482 142.332 39.6862 142.411 39.8026 142.517L41.1113 143.697L39.3938 145.591Z" fill="#1D1D1B"/>
<path fill-rule="evenodd" clip-rule="evenodd" d="M38.0848 136.341C38.1516 135.286 37.8492 134.24 37.2293 133.382C36.6094 132.525 35.7106 131.909 34.6864 131.64C33.6623 131.371 32.5764 131.466 31.6146 131.909C30.6527 132.351 29.8746 133.113 29.4133 134.065C28.952 135.018 28.8362 136.1 29.0855 137.128C29.3349 138.156 29.9341 139.065 30.7806 139.701C31.627 140.337 32.6682 140.659 33.7261 140.612C34.784 140.566 35.7929 140.154 36.5803 139.446C37.0308 139.059 37.3969 138.584 37.6557 138.05C37.9146 137.516 38.0606 136.934 38.0848 136.341ZM36.4223 136.231C36.3579 136.985 36.009 137.686 35.4464 138.192C34.8838 138.697 34.1496 138.971 33.3927 138.956C32.6526 138.903 31.9618 138.566 31.4654 138.015C30.969 137.464 30.7057 136.742 30.7306 136.002C30.795 135.249 31.1434 134.549 31.7053 134.043C32.2672 133.537 33.0005 133.263 33.7568 133.277C34.4966 133.332 35.1867 133.67 35.6833 134.22C36.1799 134.77 36.4446 135.491 36.4223 136.231Z" fill="#1D1D1B"/>
<path fill-rule="evenodd" clip-rule="evenodd" d="M31.4931 128.344C31.617 127.744 31.6175 127.125 31.4947 126.524C31.3719 125.924 31.1283 125.355 30.7787 124.851C30.4908 124.369 30.1096 123.949 29.6572 123.615C29.2048 123.282 28.6904 123.042 28.1441 122.909C27.6006 122.79 27.0381 122.786 26.4927 122.896C25.9474 123.007 25.4311 123.23 24.9771 123.551L24.4172 123.915L26.7839 127.548L28.0479 126.728L26.619 124.532C27.1114 124.383 27.6411 124.413 28.1132 124.618C28.6381 124.86 29.0776 125.254 29.3738 125.75C29.6025 126.069 29.7644 126.431 29.85 126.815C29.9356 127.198 29.943 127.594 29.8718 127.98C29.797 128.347 29.6471 128.695 29.4313 129.001C29.2155 129.308 28.9387 129.566 28.6181 129.761C28.3082 129.976 27.9579 130.126 27.5883 130.202C27.2188 130.278 26.8376 130.279 26.4679 130.204C26.0987 130.128 25.7492 129.977 25.4417 129.76C25.1342 129.543 24.8754 129.264 24.6817 128.941C24.4118 128.54 24.2476 128.077 24.2042 127.596C24.1561 127.165 24.2311 126.73 24.4207 126.34L22.9059 125.579C22.5945 126.232 22.4629 126.957 22.5246 127.678C22.586 128.448 22.8425 129.19 23.27 129.833C23.5868 130.338 24.0018 130.775 24.4904 131.117C24.979 131.459 25.5314 131.7 26.1148 131.825C26.6983 131.951 27.3009 131.958 27.8872 131.847C28.4735 131.736 29.0316 131.508 29.5284 131.178C30.034 130.867 30.4697 130.454 30.8078 129.966C31.146 129.479 31.3793 128.926 31.4931 128.344Z" fill="#1D1D1B"/>
<path fill-rule="evenodd" clip-rule="evenodd" d="M26.891 118.438L24.1671 119.708L23.6209 118.538L25.6063 115.683L24.8266 114.016L22.6763 117.127C22.2666 116.775 21.765 116.547 21.2302 116.469C20.7053 116.383 20.1666 116.457 19.6845 116.681C18.9956 117.007 18.464 117.592 18.2065 118.309C17.9489 119.025 17.9863 119.815 18.3106 120.504L19.7738 123.636L27.6192 119.982L26.891 118.438ZM20.502 121.42L19.7601 119.828C19.6947 119.686 19.6609 119.531 19.6609 119.375C19.6609 119.218 19.6947 119.064 19.7601 118.922C19.8894 118.611 20.1364 118.365 20.4471 118.236C20.7493 118.086 21.0981 118.06 21.4192 118.164C21.5695 118.207 21.7087 118.282 21.8273 118.384C21.9458 118.486 22.041 118.612 22.1061 118.754L22.8481 120.346L20.502 121.42Z" fill="#1D1D1B"/>
<path fill-rule="evenodd" clip-rule="evenodd" d="M23.988 111.79H22.3461L21.247 108.411L22.5591 107.409L22.0232 105.766L14.7344 111.337L15.387 113.348L24.5548 113.554L23.988 111.79ZM16.9258 111.708L19.9039 109.43L20.6562 111.742L16.9258 111.708Z" fill="#1D1D1B"/>
<path fill-rule="evenodd" clip-rule="evenodd" d="M21.4052 102.968L15.9162 104.032L19.382 100.889L19.3374 100.693L14.927 99.067L20.44 97.9965L20.1171 96.3359L11.6191 97.9862L11.9558 99.712L16.4383 101.355L12.9004 104.567L13.237 106.289L21.7315 104.639L21.4052 102.968Z" fill="#1D1D1B"/>
<path fill-rule="evenodd" clip-rule="evenodd" d="M19.9729 93.2632L18.3963 92.7966L18.2726 89.249L19.8115 88.6452L19.7496 86.9297L11.207 90.2783L11.2792 92.3883L20.0382 95.1125L19.9729 93.2632ZM13.2096 91.2355L16.6994 89.8631L16.7853 92.2957L13.2096 91.2355Z" fill="#1D1D1B"/>
<path fill-rule="evenodd" clip-rule="evenodd" d="M20.4064 79.1334C20.4963 78.5856 20.4696 78.0251 20.3281 77.4884C20.1867 76.9516 19.9337 76.4507 19.5855 76.0181C18.8586 75.1413 17.8298 74.5675 16.7011 74.4094C15.5725 74.2514 14.4254 74.5204 13.4851 75.1638C13.0305 75.4825 12.6486 75.8936 12.3645 76.3702C12.0803 76.8468 11.9003 77.3781 11.8364 77.9291L11.3555 81.3292L19.9427 82.5334L20.4064 79.1334ZM18.792 78.9069L18.5482 80.6224L13.2103 79.8813L13.4508 78.1658C13.4849 77.8255 13.5915 77.4965 13.7633 77.2006C13.9351 76.9048 14.1681 76.649 14.4469 76.4504C15.052 76.0766 15.7691 75.9262 16.4736 76.0252C17.1782 76.1242 17.8259 76.4664 18.3043 76.9925C18.5156 77.2593 18.6678 77.568 18.7507 77.8981C18.8336 78.2281 18.8454 78.572 18.7852 78.9069H18.792Z" fill="#1D1D1B"/>
<path fill-rule="evenodd" clip-rule="evenodd" d="M22.6445 68.3983L21.061 68.0037L20.1782 71.541L18.2959 71.071L19.0859 67.8939L17.5265 67.5063L16.733 70.6833L14.9469 70.2373L15.8124 66.7617L14.229 66.3672L12.9512 71.4964L21.3495 73.5893L22.6445 68.3983Z" fill="#1D1D1B"/>
<path fill-rule="evenodd" clip-rule="evenodd" d="M24.8408 62.3567L20.0044 60.2089L26.3487 58.9738L26.8777 57.7867L18.9671 54.2734L18.2732 55.8276L23.0924 57.972L16.7653 59.214L16.2363 60.3976L24.1469 63.9143L24.8408 62.3567Z" fill="#1D1D1B"/>
<path fill-rule="evenodd" clip-rule="evenodd" d="M30.4804 51.4781L29.0824 50.6375L27.2035 53.7631L25.5375 52.7646L27.2241 49.9582L25.8467 49.1313L24.1601 51.9344L22.5801 50.9874L24.4281 47.9167L23.03 47.0762L20.3027 51.6084L27.7221 56.0618L30.4804 51.4781Z" fill="#1D1D1B"/>
<path fill-rule="evenodd" clip-rule="evenodd" d="M27.4499 47.8918C27.917 48.2563 28.454 48.5212 29.0277 48.6699C29.6014 48.8186 30.1996 48.8481 30.7852 48.7564C31.3921 48.6674 31.9746 48.456 32.4972 48.1352C33.0198 47.8143 33.4715 47.3907 33.8251 46.8899C34.1816 46.4557 34.4474 45.9544 34.6066 45.4158C34.7659 44.8772 34.8155 44.3122 34.7525 43.7541C34.6776 43.2047 34.4889 42.6769 34.1985 42.2044C33.9081 41.7318 33.5225 41.3248 33.066 41.0093L32.5233 40.5976L29.9127 44.0594L31.115 44.9686L32.695 42.8758C33.0019 43.2875 33.1539 43.794 33.1244 44.3065C33.0763 44.8823 32.8547 45.4301 32.4889 45.8778C32.2667 46.2016 31.9816 46.4775 31.6506 46.689C31.3196 46.9006 30.9494 47.0436 30.5619 47.1095C30.1912 47.1642 29.8131 47.1418 29.4514 47.0438C29.0897 46.9458 28.7521 46.7743 28.4598 46.54C28.1508 46.3232 27.8892 46.046 27.6908 45.7252C27.4924 45.4043 27.3614 45.0466 27.3056 44.6736C27.2502 44.3011 27.2729 43.9212 27.3722 43.558C27.4716 43.1948 27.6454 42.8561 27.8827 42.5635C28.1687 42.1735 28.5477 41.861 28.9853 41.6544C29.3739 41.4637 29.8085 41.3864 30.2391 41.4313L30.4452 39.7605C29.7223 39.6918 28.9941 39.8173 28.3361 40.1242C27.6331 40.4427 27.0239 40.9366 26.5671 41.5583C26.2002 42.0283 25.9313 42.5669 25.7763 43.1424C25.6213 43.7179 25.5834 44.3186 25.6647 44.909C25.7461 45.4994 25.945 46.0675 26.2499 46.5799C26.5547 47.0922 26.9593 47.5383 27.4396 47.8918H27.4499Z" fill="#1D1D1B"/>
<path fill-rule="evenodd" clip-rule="evenodd" d="M37.2334 40.7701C38.2911 40.7985 39.3258 40.459 40.1606 39.8098C40.9954 39.1605 41.5785 38.2417 41.8102 37.2106C42.0419 36.1794 41.9078 35.0999 41.4308 34.1565C40.9538 33.2132 40.1636 32.4646 39.1953 32.0388C38.2269 31.613 37.1405 31.5364 36.1219 31.8221C35.1032 32.1078 34.2156 32.7381 33.6107 33.6052C33.0058 34.4722 32.7212 35.5223 32.8056 36.5757C32.8899 37.6292 33.3381 38.6206 34.0733 39.3806C34.4761 39.8167 34.9646 40.1652 35.5084 40.4043C36.0521 40.6434 36.6393 40.7679 37.2334 40.7701ZM35.327 34.2205C35.5861 33.9582 35.8963 33.7516 36.2383 33.6136C36.5803 33.4755 36.947 33.4088 37.3158 33.4176C37.6932 33.4242 38.0651 33.5083 38.4084 33.6647C38.7518 33.8211 39.0592 34.0465 39.3115 34.3268C39.5845 34.5866 39.802 34.8987 39.951 35.2446C40.1001 35.5904 40.1776 35.9628 40.1789 36.3393C40.1802 36.7158 40.1052 37.0887 39.9585 37.4356C39.8118 37.7825 39.5964 38.0961 39.3253 38.3577C39.0541 38.6193 38.7328 38.8234 38.3807 38.9577C38.0285 39.0921 37.6528 39.154 37.2761 39.1396C36.8994 39.1252 36.5295 39.0349 36.1887 38.8741C35.8478 38.7133 35.5431 38.4853 35.2927 38.2038C35.022 37.9412 34.8078 37.6263 34.6631 37.2783C34.5184 36.9302 34.4463 36.5564 34.4511 36.1795C34.4565 35.8117 34.5369 35.4489 34.6875 35.1132C34.8382 34.7775 35.0557 34.4761 35.327 34.2273V34.2205Z" fill="#1D1D1B"/>
<path fill-rule="evenodd" clip-rule="evenodd" d="M44.7622 33.8047C45.7329 33.9398 46.7215 33.7638 47.5856 33.302C48.4498 32.8403 49.145 32.1165 49.5711 31.2349C49.8853 30.5786 50.0147 29.8492 49.9455 29.1249L48.2555 29.2999C48.3105 29.7299 48.2377 30.1666 48.046 30.5556C47.7708 31.0987 47.3353 31.5442 46.7984 31.832C46.2615 32.1198 45.649 32.2359 45.0439 32.1647C44.3084 32.0009 43.6581 31.5743 43.2154 30.9653C42.7726 30.3562 42.5678 29.6066 42.6394 28.8573C42.7565 28.2608 43.0548 27.7148 43.4936 27.2937C43.9325 26.8725 44.4906 26.5967 45.092 26.5037C45.5271 26.4458 45.9697 26.5149 46.3663 26.7027L47.0533 25.1485C46.3832 24.8594 45.6472 24.7574 44.9236 24.8534C44.1704 24.9489 43.454 25.2347 42.8421 25.6837C42.3476 26.0202 41.9279 26.455 41.6093 26.9609C41.2908 27.4669 41.0802 28.033 40.9907 28.624C40.8398 29.806 41.147 31.001 41.8494 31.9641C42.5519 32.9273 43.5964 33.5858 44.7691 33.8047H44.7622Z" fill="#1D1D1B"/>
<path d="M49.2563 21.6667L47.793 22.5449L52.2511 29.9559L53.7144 29.0777L49.2563 21.6667Z" fill="#1D1D1B"/>
<path fill-rule="evenodd" clip-rule="evenodd" d="M58.7082 18.1518C57.7196 17.7837 56.6336 17.7698 55.6359 18.1126C54.6381 18.4553 53.7904 19.1335 53.2377 20.0311C52.6849 20.9288 52.4612 21.9904 52.605 23.0344C52.7487 24.0785 53.2509 25.0403 54.0258 25.7557C54.8006 26.471 55.8001 26.8954 56.8534 26.9564C57.9068 27.0174 58.9487 26.7113 59.8012 26.0903C60.6536 25.4692 61.2638 24.5718 61.5274 23.5514C61.7911 22.5309 61.6918 21.4506 61.2466 20.4952C61.0057 19.9524 60.6562 19.4646 60.2197 19.0617C59.7832 18.6587 59.2688 18.3491 58.7082 18.1518ZM59.8314 23.3943C59.5333 24.0545 58.9945 24.5764 58.3246 24.8539C57.6548 25.1313 56.9044 25.1433 56.2259 24.8876C55.5475 24.6318 54.9922 24.1275 54.6729 23.4772C54.3536 22.8269 54.2944 22.0795 54.5073 21.3872C54.7732 20.6948 55.2978 20.1325 55.9707 19.8189C56.6435 19.5052 57.4119 19.4648 58.114 19.706C58.4686 19.8359 58.7929 20.0368 59.067 20.2964C59.341 20.556 59.5591 20.8688 59.7078 21.2156C59.8764 21.551 59.9744 21.9174 59.9957 22.2922C60.0169 22.6669 59.9611 23.042 59.8314 23.3943Z" fill="#1D1D1B"/>
<path fill-rule="evenodd" clip-rule="evenodd" d="M69.3162 21.816C69.5139 21.5153 69.6388 21.1728 69.6812 20.8155C69.7235 20.4582 69.682 20.096 69.56 19.7575C69.4894 19.5361 69.3876 19.3259 69.2578 19.1331C69.1502 18.9708 69.0234 18.8222 68.8799 18.6905C68.7339 18.5653 68.5678 18.4656 68.3887 18.3954C68.2189 18.3234 68.0445 18.2627 67.8666 18.2136C67.67 18.1691 67.4702 18.1404 67.269 18.1278C67.0148 18.1106 66.8155 18.1038 66.6747 18.1003H66.0427C65.5699 18.1319 65.095 18.0914 64.6344 17.9803C64.5099 17.9439 64.3963 17.8772 64.304 17.7862C64.2117 17.6952 64.1434 17.5826 64.1054 17.4588C64.066 17.3449 64.0541 17.2234 64.0709 17.1041C64.0876 16.9848 64.1324 16.8712 64.2016 16.7726C64.378 16.5336 64.6316 16.3627 64.9195 16.2888C65.2565 16.1686 65.6228 16.1565 65.967 16.2543C66.3113 16.3521 66.6164 16.5549 66.8396 16.8343L67.9491 15.6026C67.5093 15.1333 66.9463 14.7969 66.3244 14.6317C65.6912 14.4712 65.0247 14.4999 64.4077 14.714C63.7055 14.923 63.1027 15.3788 62.7108 15.9972C62.521 16.2977 62.403 16.6379 62.366 16.9913C62.3291 17.3448 62.3742 17.702 62.4979 18.0352C62.6009 18.3778 62.7793 18.6931 63.02 18.9581C63.2409 19.1938 63.5189 19.3686 63.8272 19.4659C64.1214 19.5631 64.4256 19.6275 64.734 19.658C65.0767 19.6871 65.4207 19.6962 65.7645 19.6854C66.2841 19.6422 66.8071 19.6665 67.3205 19.7575C67.4531 19.7858 67.5765 19.8466 67.6798 19.9344C67.783 20.0222 67.8627 20.1343 67.9118 20.2606C67.9609 20.3868 67.9777 20.5233 67.9608 20.6577C67.9439 20.792 67.8939 20.9201 67.8151 21.0304C67.5783 21.3157 67.2553 21.5167 66.8945 21.6033C66.4941 21.7669 66.0505 21.7926 65.6338 21.6764C65.2171 21.5603 64.8509 21.3088 64.5932 20.9617L63.47 22.2209C63.8838 22.764 64.4679 23.1529 65.129 23.3256C65.87 23.5057 66.6477 23.464 67.3651 23.2056C68.1598 22.988 68.8512 22.4955 69.3162 21.816Z" fill="#1D1D1B"/>
<path fill-rule="evenodd" clip-rule="evenodd" d="M77.614 20.7534C78.444 20.6538 79.2179 20.2836 79.8158 19.7001L80.7157 20.4309L81.9557 19.4736L80.678 18.4169C80.9492 17.8158 81.1165 17.1731 81.1726 16.5162L79.6372 15.9055C79.6316 16.4047 79.5589 16.9009 79.4208 17.3808L77.3049 15.6344C77.0761 15.4579 76.8666 15.2578 76.6797 15.0374C76.5415 14.8643 76.4536 14.6566 76.4255 14.437C76.4056 14.3153 76.4127 14.1907 76.4466 14.072C76.4804 13.9534 76.5401 13.8437 76.6213 13.7508C76.7966 13.5485 77.042 13.4198 77.3083 13.3906C77.9129 13.3082 78.38 13.5896 78.7132 14.2415L80.0425 13.2122C79.757 12.6825 79.3092 12.2581 78.7647 12.0011C78.2288 11.7526 77.6309 11.669 77.0473 11.7609C76.3369 11.8337 75.6822 12.1779 75.2199 12.7216C75.003 12.9803 74.8452 13.2832 74.7574 13.6091C74.6696 13.9349 74.6539 14.276 74.7115 14.6086C74.7814 15.1158 74.996 15.5923 75.3298 15.9809C74.9259 16.2854 74.6119 16.6932 74.4208 17.1613C74.2298 17.6293 74.1688 18.1401 74.2444 18.6399C74.28 18.9947 74.3979 19.3363 74.5887 19.6376C74.7795 19.9389 75.0379 20.1917 75.3435 20.376C76.0305 20.7698 76.8364 20.9037 77.614 20.7534ZM75.9344 18.2213C75.8939 17.9823 75.9195 17.7368 76.0085 17.5113C76.0975 17.2857 76.2464 17.0888 76.4393 16.9416C76.4473 16.9549 76.4578 16.9666 76.4702 16.9759L78.6067 18.7154C78.2934 18.9726 77.9134 19.1356 77.511 19.1854C77.137 19.2649 76.7469 19.2039 76.4152 19.0139C76.2811 18.9258 76.1683 18.809 76.0851 18.6719C76.0019 18.5348 75.9504 18.3809 75.9344 18.2213Z" fill="#1D1D1B"/>
<path fill-rule="evenodd" clip-rule="evenodd" d="M90.9927 12.6358C91.4595 12.6443 91.9163 12.7731 92.3186 13.0098C92.6972 13.2319 93.0037 13.5583 93.2014 13.9499L94.699 13.147C94.3495 12.5069 93.8317 11.9742 93.2014 11.6065C92.55 11.2178 91.8096 11.0028 91.0511 10.9821C90.4543 10.9427 89.8558 11.0269 89.2931 11.2294C88.7303 11.4319 88.2156 11.7484 87.7811 12.1589C86.9339 12.9958 86.4389 14.1245 86.3974 15.314C86.3559 16.5034 86.771 17.6638 87.5578 18.5576C87.9612 19 88.4522 19.3539 88.9998 19.5966C89.5473 19.8394 90.1395 19.9657 90.7385 19.9677C91.4988 20.0017 92.255 19.8386 92.9334 19.4942C93.5847 19.1688 94.1355 18.6732 94.5272 18.0601L93.088 17.1578C92.8654 17.5315 92.5383 17.832 92.1469 18.0224C91.7278 18.228 91.2632 18.3237 90.7969 18.3003C90.421 18.3039 90.0484 18.2293 89.703 18.081C89.3576 17.9327 89.047 17.7141 88.7909 17.4391C88.313 16.8578 88.0639 16.1222 88.0905 15.3705C88.117 14.6187 88.4174 13.9025 88.9352 13.3563C89.209 13.0998 89.5335 12.9031 89.8878 12.7791C90.2421 12.655 90.6184 12.6062 90.9927 12.6358Z" fill="#1D1D1B"/>
<path fill-rule="evenodd" clip-rule="evenodd" d="M98.0853 17.398L99.3631 17.6005L100.62 20.8393L102.441 21.1275L101.067 17.6073C101.594 17.466 102.071 17.1781 102.441 16.777C102.806 16.3919 103.046 15.9049 103.128 15.3806C103.187 15.0072 103.171 14.6258 103.082 14.2584C102.993 13.8909 102.833 13.5447 102.609 13.2395C102.386 12.9344 102.104 12.6764 101.78 12.4803C101.457 12.2843 101.098 12.1541 100.723 12.0972L97.2884 11.5586L95.9316 20.0982L97.6182 20.3624L98.0853 17.398ZM98.7208 13.3976L100.438 13.672C100.593 13.696 100.741 13.7527 100.872 13.8386C101.003 13.9244 101.114 14.0372 101.197 14.1695C101.378 14.4499 101.448 14.7868 101.396 15.1159C101.343 15.4451 101.171 15.7433 100.912 15.9536C100.793 16.0557 100.653 16.1304 100.501 16.1724C100.35 16.2145 100.191 16.223 100.036 16.1972L98.3017 15.9227L98.7208 13.3976Z" fill="#1D1D1B"/>
<path d="M105.696 13.1128L103.602 21.502L105.258 21.9145L107.352 13.5254L105.696 13.1128Z" fill="#1D1D1B"/>
<path fill-rule="evenodd" clip-rule="evenodd" d="M108.617 22.8504L109.497 20.1503L110.943 20.6203C111.31 20.7492 111.7 20.8022 112.088 20.7763C112.477 20.7503 112.856 20.6459 113.203 20.4694C113.892 20.1172 114.413 19.5069 114.652 18.772C114.892 18.0371 114.83 17.2374 114.481 16.5478C114.304 16.2008 114.059 15.8933 113.76 15.6444C113.46 15.3954 113.113 15.2101 112.739 15.1L109.672 14.1016L106.996 22.3358L108.617 22.8504ZM110.802 16.143L112.248 16.613C112.409 16.661 112.558 16.742 112.686 16.8507C112.813 16.9594 112.917 17.0934 112.99 17.2443C113.131 17.5599 113.15 17.9164 113.043 18.2451C112.937 18.5738 112.712 18.8516 112.413 19.0249C112.265 19.1063 112.102 19.1554 111.934 19.169C111.765 19.1826 111.596 19.1604 111.437 19.1039L109.991 18.6338L110.802 16.143Z" fill="#1D1D1B"/>
<path fill-rule="evenodd" clip-rule="evenodd" d="M117.256 26.202L120.224 19.8445L122.34 20.8326L123.03 19.3539L117.26 16.6641L116.569 18.1428L118.678 19.124L115.707 25.4815L117.256 26.202Z" fill="#1D1D1B"/>
<path fill-rule="evenodd" clip-rule="evenodd" d="M121.925 27.2103C122.152 28.2434 122.732 29.1657 123.564 29.8192C124.397 30.4727 125.431 30.817 126.49 30.7931C127.549 30.7692 128.567 30.3786 129.369 29.6881C130.171 28.9976 130.708 28.0502 130.889 27.0078C131.069 25.9654 130.881 24.8928 130.357 23.9736C129.833 23.0543 129.006 22.3453 128.016 21.9681C127.027 21.5908 125.937 21.5686 124.933 21.9052C123.929 22.2419 123.073 22.9165 122.512 23.8136C122.186 24.309 121.965 24.8663 121.864 25.4507C121.763 26.0352 121.783 26.6342 121.925 27.2103ZM123.948 24.7091C124.136 24.3826 124.39 24.0984 124.693 23.8741C124.996 23.6498 125.343 23.4902 125.71 23.4054C126.436 23.2517 127.194 23.3854 127.824 23.7782C128.454 24.1711 128.906 24.7926 129.087 25.512C129.172 25.8792 129.181 26.26 129.112 26.6307C129.043 27.0014 128.899 27.354 128.688 27.6666C128.5 27.9907 128.249 28.2738 127.949 28.4989C127.649 28.724 127.307 28.8866 126.943 28.977C126.58 29.0674 126.201 29.0837 125.831 29.025C125.46 28.9663 125.106 28.8338 124.788 28.6354C124.469 28.4369 124.195 28.1766 123.979 27.8699C123.764 27.5632 123.613 27.2163 123.534 26.85C123.456 26.4837 123.452 26.1054 123.523 25.7376C123.594 25.3698 123.739 25.02 123.948 24.7091Z" fill="#1D1D1B"/>
<path fill-rule="evenodd" clip-rule="evenodd" d="M134.994 33.448C135.2 33.4282 135.396 33.3482 135.557 33.2181C135.718 33.088 135.837 32.9135 135.899 32.7164C135.961 32.5192 135.964 32.3081 135.907 32.1093C135.85 31.9106 135.736 31.733 135.578 31.5987C135.473 31.5091 135.35 31.4416 135.218 31.4004C135.086 31.3591 134.947 31.3449 134.809 31.3586C134.603 31.3784 134.407 31.4583 134.246 31.5884C134.086 31.7185 133.967 31.893 133.904 32.0902C133.842 32.2873 133.839 32.4985 133.896 32.6972C133.953 32.8959 134.068 33.0735 134.225 33.2078C134.331 33.2974 134.453 33.3649 134.585 33.4062C134.717 33.4474 134.857 33.4617 134.994 33.448Z" fill="#1D1D1B"/>
<path fill-rule="evenodd" clip-rule="evenodd" d="M147.735 38.9506L146.46 37.5851L140.161 40.5872L143.585 34.5076L142.321 33.1523L137.973 41.1704L139.412 42.7143L147.735 38.9506Z" fill="#1D1D1B"/>
<path d="M148.886 40.5995L141.973 45.8027L143 47.1645L149.913 41.9613L148.886 40.5995Z" fill="#1D1D1B"/>
<path fill-rule="evenodd" clip-rule="evenodd" d="M149.455 52.348C149.652 52.225 149.829 52.0735 149.981 51.8986C150.115 51.7538 150.231 51.5924 150.324 51.4183C150.409 51.2447 150.462 51.0578 150.482 50.8659C150.507 50.6839 150.521 50.5006 150.523 50.3169C150.518 50.115 150.494 49.9141 150.451 49.7165C150.403 49.4695 150.359 49.2739 150.324 49.1367C150.29 48.9995 150.232 48.7936 150.156 48.5294C150.006 48.0797 149.922 47.6104 149.909 47.1365C149.912 47.0066 149.948 46.8797 150.012 46.7671C150.077 46.6545 150.169 46.5598 150.28 46.4915C150.379 46.424 150.493 46.3811 150.613 46.3662C150.732 46.3513 150.853 46.3648 150.967 46.4057C151.244 46.5151 151.476 46.7161 151.623 46.9752C151.826 47.2693 151.932 47.6195 151.927 47.9768C151.921 48.3342 151.804 48.6809 151.592 48.9686L153.069 49.72C153.408 49.1739 153.589 48.5443 153.591 47.9016C153.581 47.2489 153.38 46.6132 153.014 46.0729C152.63 45.4498 152.033 44.9866 151.334 44.7691C150.817 44.6357 150.272 44.6664 149.773 44.857C149.274 45.0476 148.847 45.3887 148.552 45.8327C148.379 46.107 148.281 46.4216 148.267 46.7453C148.249 47.0538 148.265 47.3633 148.315 47.6683C148.378 48.0101 148.46 48.348 148.562 48.6804C148.738 49.1725 148.853 49.684 148.906 50.2037C148.912 50.339 148.884 50.4738 148.826 50.596C148.767 50.7181 148.679 50.8238 148.57 50.9037C148.46 50.9836 148.332 51.0351 148.198 51.0536C148.064 51.0722 147.927 51.0572 147.8 51.01C147.463 50.8546 147.186 50.5946 147.01 50.2689C146.743 49.9239 146.601 49.4995 146.605 49.0639C146.61 48.6283 146.76 48.2069 147.034 47.8673L145.522 47.109C145.106 47.6497 144.882 48.3139 144.887 48.996C144.901 49.7572 145.14 50.4973 145.574 51.1232C145.987 51.8262 146.633 52.3627 147.401 52.6397C147.743 52.7535 148.106 52.7864 148.463 52.7358C148.819 52.6851 149.159 52.5524 149.455 52.348Z" fill="#1D1D1B"/>
<path d="M155.682 50.7769L148.039 54.8359L148.841 56.3415L156.483 52.2825L155.682 50.7769Z" fill="#1D1D1B"/>
<path fill-rule="evenodd" clip-rule="evenodd" d="M150.644 58.4183C150.438 59.2544 150.516 60.1354 150.867 60.922C151.218 61.7086 151.821 62.356 152.581 62.7619C152.956 62.9327 153.363 63.0173 153.775 63.0096C154.186 63.0019 154.591 62.902 154.958 62.7173L160.279 60.3534L159.592 58.7957L154.395 61.1047C154.22 61.1944 154.029 61.2479 153.833 61.2621C153.637 61.2762 153.44 61.2507 153.255 61.1871C152.874 60.9701 152.572 60.6375 152.394 60.2377C152.215 59.8379 152.169 59.3917 152.262 58.9638C152.34 58.7839 152.453 58.6212 152.595 58.4852C152.736 58.3492 152.903 58.2425 153.086 58.1713L158.276 55.8657L157.589 54.3184L152.269 56.6857C151.886 56.8359 151.542 57.0693 151.261 57.369C150.98 57.6687 150.769 58.0272 150.644 58.4183Z" fill="#1D1D1B"/>
<path fill-rule="evenodd" clip-rule="evenodd" d="M153.494 67.3174L158.897 65.8696L155.662 69.249L155.72 69.4412L160.23 70.7552L154.806 72.2065L155.246 73.843L163.607 71.6061L163.15 69.9043L158.564 68.5766L161.869 65.125L161.415 63.4336L153.055 65.6706L153.494 67.3174Z" fill="#1D1D1B"/>
<path fill-rule="evenodd" clip-rule="evenodd" d="M156.41 82.3249C156.445 82.8794 156.597 83.4202 156.856 83.9116C157.116 84.4031 157.476 84.834 157.915 85.176C158.82 85.8669 159.951 86.195 161.086 86.096C162.221 85.997 163.278 85.478 164.049 84.6408C164.42 84.2272 164.699 83.7403 164.868 83.2118C165.037 82.6833 165.093 82.125 165.032 81.5735L164.733 78.1426L156.111 78.894L156.41 82.3249ZM163.256 79.9919L163.407 81.7073C163.449 82.0455 163.418 82.3886 163.317 82.714C163.215 83.0393 163.046 83.3394 162.82 83.5943C162.316 84.0957 161.651 84.4046 160.943 84.4673C160.234 84.53 159.526 84.3425 158.942 83.9374C158.674 83.7256 158.455 83.4595 158.299 83.1566C158.143 82.8537 158.053 82.5211 158.035 82.1808L157.884 80.4653L163.256 79.9919Z" fill="#1D1D1B"/>
<path d="M156.665 87.9455L156.635 89.6504L165.289 89.8013L165.319 88.0964L156.665 87.9455Z" fill="#1D1D1B"/>
<path fill-rule="evenodd" clip-rule="evenodd" d="M161.04 91.6609C160.454 91.5766 159.856 91.6145 159.285 91.7722C158.714 91.9298 158.182 92.2038 157.722 92.5769C157.238 92.9549 156.835 93.4277 156.54 93.9663C156.245 94.5049 156.063 95.098 156.005 95.7094C155.914 96.2637 155.935 96.8306 156.066 97.3768C156.198 97.923 156.437 98.4374 156.771 98.8898C157.111 99.3304 157.539 99.6953 158.028 99.9612C158.517 100.227 159.056 100.388 159.611 100.434L160.271 100.516L160.8 96.2103L159.306 96.0284L158.986 98.6256C158.512 98.4239 158.125 98.0586 157.897 97.5964C157.648 97.0747 157.565 96.4889 157.66 95.9186C157.69 95.5275 157.799 95.1463 157.979 94.7979C158.16 94.4495 158.409 94.1411 158.711 93.891C159.005 93.6573 159.343 93.4869 159.705 93.3907C160.068 93.2944 160.446 93.2743 160.817 93.3317C161.192 93.3651 161.556 93.4735 161.889 93.6503C162.221 93.8271 162.514 94.0688 162.751 94.361C162.986 94.6559 163.156 94.9965 163.252 95.3609C163.348 95.7254 163.367 96.1058 163.307 96.4779C163.257 96.9592 163.084 97.4197 162.806 97.8159C162.565 98.1752 162.229 98.4594 161.834 98.6359L162.49 100.187C163.151 99.8835 163.719 99.4097 164.135 98.8143C164.585 98.1868 164.867 97.4544 164.953 96.6872C165.035 96.0968 164.998 95.496 164.843 94.9203C164.689 94.3445 164.421 93.8055 164.055 93.335C163.688 92.8646 163.231 92.4722 162.711 92.1811C162.19 91.89 161.616 91.7061 161.023 91.6403L161.04 91.6609Z" fill="#1D1D1B"/>
<path d="M155.392 101.346L155.037 103.014L163.504 104.811L163.859 103.143L155.392 101.346Z" fill="#1D1D1B"/>
<path fill-rule="evenodd" clip-rule="evenodd" d="M160.887 108.462L154.168 106.41L153.67 108.04L160.389 110.091L159.705 112.321L161.264 112.798L163.126 106.715L161.567 106.238L160.887 108.462Z" fill="#1D1D1B"/>
<path fill-rule="evenodd" clip-rule="evenodd" d="M152.244 112.387L153.494 113.45L152.161 116.744L150.509 116.672L149.863 118.274L159.031 118.686L159.825 116.727L152.934 110.682L152.244 112.387ZM154.765 114.562L157.599 116.988L153.851 116.82L154.765 114.562Z" fill="#1D1D1B"/>
<path fill-rule="evenodd" clip-rule="evenodd" d="M146.783 123.63L148.212 124.419L149.809 121.534L155.954 124.937L156.782 123.445L149.212 119.252L146.783 123.63Z" fill="#1D1D1B"/>
<path fill-rule="evenodd" clip-rule="evenodd" d="M147.937 129.63C147.827 129.546 147.701 129.486 147.567 129.455C147.433 129.423 147.293 129.419 147.158 129.444C147.02 129.463 146.889 129.51 146.77 129.581C146.651 129.652 146.548 129.746 146.467 129.858C146.385 129.97 146.327 130.097 146.296 130.231C146.265 130.366 146.261 130.506 146.285 130.642C146.313 130.811 146.381 130.972 146.486 131.108C146.59 131.245 146.726 131.354 146.882 131.426C147.039 131.497 147.21 131.529 147.382 131.519C147.554 131.509 147.72 131.456 147.867 131.367C148.014 131.277 148.136 131.152 148.223 131.004C148.31 130.856 148.359 130.689 148.366 130.517C148.373 130.345 148.338 130.174 148.263 130.02C148.188 129.865 148.076 129.731 147.937 129.63Z" fill="#1D1D1B"/>
<path fill-rule="evenodd" clip-rule="evenodd" d="M140.49 134.09C139.892 134.095 139.301 134.223 138.755 134.467C138.209 134.711 137.719 135.065 137.317 135.507C136.782 136.048 136.398 136.718 136.2 137.452C136.006 138.155 136.006 138.897 136.2 139.6L137.839 139.133C137.713 138.717 137.713 138.273 137.839 137.857C137.963 137.408 138.199 136.999 138.526 136.667C138.775 136.385 139.081 136.159 139.422 136.002C139.764 135.845 140.135 135.76 140.511 135.754C140.886 135.756 141.256 135.833 141.6 135.981C141.944 136.129 142.255 136.345 142.514 136.615C142.795 136.866 143.023 137.17 143.185 137.51C143.346 137.85 143.438 138.219 143.455 138.595C143.444 139.203 143.245 139.794 142.885 140.285C142.525 140.776 142.023 141.144 141.445 141.339C141.028 141.474 140.58 141.483 140.157 141.367L139.738 143.01C140.449 143.178 141.193 143.15 141.888 142.928C142.614 142.706 143.269 142.3 143.791 141.751C144.22 141.334 144.558 140.834 144.784 140.281C145.009 139.727 145.118 139.134 145.104 138.536C145.052 137.345 144.545 136.218 143.687 135.388C142.828 134.559 141.685 134.089 140.49 134.076V134.09Z" fill="#1D1D1B"/>
<path fill-rule="evenodd" clip-rule="evenodd" d="M129.619 142.631L130.67 143.88L133.463 141.537L134.713 143.022L132.202 145.125L133.236 146.357L135.744 144.254L136.929 145.661L134.181 147.966L135.232 149.212L139.285 145.815L133.72 139.193L129.619 142.631Z" fill="#1D1D1B"/>
<path fill-rule="evenodd" clip-rule="evenodd" d="M126.984 144.442L128.623 146.96L127.538 147.646L124.446 146.078L122.9 147.083L126.284 148.775C125.992 149.23 125.835 149.758 125.83 150.298C125.818 150.829 125.968 151.35 126.26 151.794C126.466 152.11 126.732 152.383 127.043 152.596C127.355 152.809 127.705 152.959 128.075 153.037C128.444 153.114 128.825 153.119 129.196 153.049C129.568 152.979 129.921 152.837 130.237 152.631L133.14 150.748L128.427 143.498L126.984 144.442ZM130.832 150.356L129.358 151.314C129.227 151.399 129.079 151.455 128.925 151.479C128.77 151.503 128.612 151.493 128.462 151.451C128.136 151.378 127.853 151.181 127.671 150.902C127.483 150.624 127.41 150.283 127.469 149.952C127.49 149.796 127.544 149.648 127.628 149.515C127.713 149.383 127.825 149.271 127.957 149.187L129.43 148.229L130.832 150.356Z" fill="#1D1D1B"/>
<path fill-rule="evenodd" clip-rule="evenodd" d="M123.642 154.677L120.348 148.484L118.84 149.284L122.137 155.48L120.073 156.574L120.839 158.015L126.462 155.027L125.696 153.59L123.642 154.677Z" fill="#1D1D1B"/>
<path d="M116.174 150.541L114.586 151.172L117.789 159.213L119.376 158.582L116.174 150.541Z" fill="#1D1D1B"/>
<path fill-rule="evenodd" clip-rule="evenodd" d="M110.771 152.677L111.801 155.847L108.604 156.887L109.108 158.434L112.306 157.398L112.942 159.347L109.648 160.417L110.153 161.968L115.068 160.372L112.392 152.148L110.771 152.677Z" fill="#1D1D1B"/>
<path d="M106.1 154.125L104.443 154.537L106.537 162.926L108.194 162.514L106.1 154.125Z" fill="#1D1D1B"/>
<path fill-rule="evenodd" clip-rule="evenodd" d="M101.985 156.245C101.504 155.888 100.955 155.635 100.371 155.501C99.7878 155.368 99.1827 155.357 98.5946 155.47C97.8429 155.581 97.1328 155.884 96.5337 156.351C95.9564 156.797 95.5102 157.389 95.2422 158.067L96.8291 158.678C96.9745 158.268 97.2373 157.91 97.5848 157.648C97.9573 157.366 98.3959 157.183 98.8591 157.117C99.2272 157.041 99.6069 157.043 99.9741 157.122C100.341 157.201 100.688 157.356 100.992 157.576C101.574 158.055 101.96 158.73 102.078 159.474C102.197 160.218 102.039 160.979 101.635 161.615C101.26 162.094 100.746 162.447 100.163 162.623C99.5797 162.799 98.9564 162.791 98.3782 162.599C97.9648 162.453 97.6015 162.192 97.3306 161.848L96.0082 162.911C96.4784 163.476 97.0934 163.903 97.7874 164.147C98.5007 164.404 99.2685 164.474 100.017 164.349C100.61 164.274 101.182 164.078 101.695 163.772C102.209 163.466 102.654 163.058 103.002 162.572C103.673 161.588 103.944 160.386 103.757 159.21C103.571 158.034 102.942 156.973 101.999 156.245H101.985Z" fill="#1D1D1B"/>
<path fill-rule="evenodd" clip-rule="evenodd" d="M91.9479 157.908L88.3962 158.032L87.7917 156.498L86.0742 156.556L89.4301 165.092L91.5426 165.017L94.2665 156.271L92.4254 156.337L91.9479 157.908ZM90.385 163.092L89.0111 159.606L91.4464 159.521L90.385 163.092Z" fill="#1D1D1B"/>
<path fill-rule="evenodd" clip-rule="evenodd" d="M78.4043 157.113C77.5619 157.884 77.0392 158.942 76.9394 160.079C76.8395 161.216 77.1698 162.349 77.865 163.254C78.2074 163.692 78.6388 164.053 79.1309 164.312C79.6229 164.571 80.1643 164.723 80.7194 164.757L84.1544 165.056L84.9066 156.441L81.4717 156.142C80.9208 156.08 80.363 156.134 79.8345 156.302C79.3061 156.469 78.8188 156.745 78.4043 157.113ZM82.588 163.254L80.8706 163.104C80.5302 163.086 80.1973 162.997 79.8941 162.841C79.5909 162.686 79.3243 162.468 79.1119 162.201C78.7061 161.617 78.5183 160.909 78.581 160.201C78.6438 159.492 78.9532 158.828 79.4554 158.324C79.7109 158.099 80.0115 157.93 80.3372 157.83C80.6629 157.729 81.0063 157.699 81.3446 157.741L83.0621 157.892L82.588 163.254Z" fill="#1D1D1B"/>
<path fill-rule="evenodd" clip-rule="evenodd" d="M71.8202 154.264C70.8172 154.021 69.7611 154.133 68.8315 154.581C67.9019 155.028 67.1561 155.784 66.721 156.718C66.2859 157.653 66.1883 158.709 66.4448 159.708C66.7014 160.706 67.2961 161.585 68.1281 162.195C68.96 162.804 69.9777 163.108 71.0081 163.053C72.0386 162.998 73.0182 162.588 73.7804 161.893C74.5426 161.198 75.0403 160.261 75.1889 159.241C75.3375 158.221 75.1279 157.181 74.5956 156.298C74.2955 155.789 73.8947 155.346 73.4175 154.996C72.9403 154.646 72.3969 154.397 71.8202 154.264ZM73.4415 159.304C73.3631 159.672 73.2099 160.02 72.9912 160.326C72.7726 160.632 72.4933 160.89 72.1706 161.084C71.5273 161.455 70.765 161.562 70.0443 161.383C69.3236 161.204 68.7005 160.753 68.3063 160.124C67.9387 159.465 67.8346 158.691 68.0149 157.958C68.1953 157.226 68.6467 156.588 69.2784 156.175C69.9229 155.809 70.6834 155.705 71.4027 155.884C72.122 156.063 72.7449 156.511 73.1426 157.135C73.3387 157.457 73.4664 157.816 73.5178 158.189C73.5692 158.562 73.5432 158.941 73.4415 159.304Z" fill="#1D1D1B"/>
<path d="M87.7473 88.9204C89.1028 88.9204 90.2016 87.8215 90.2016 86.4661C90.2016 85.1106 89.1028 84.0117 87.7473 84.0117C86.3918 84.0117 85.293 85.1106 85.293 86.4661C85.293 87.8215 86.3918 88.9204 87.7473 88.9204Z" fill="#00E9B1"/>
<path d="M93.7318 82.7844C93.7318 81.4039 92.6581 80.3301 91.2775 80.3301C89.8969 80.3301 88.9766 81.4039 88.9766 82.7844C88.9766 84.165 90.0503 85.2387 91.4309 85.2387C92.6581 85.0854 93.7318 84.0116 93.7318 82.7844Z" fill="#00E9B1"/>
<path d="M91.4309 92.7563C92.7864 92.7563 93.8852 91.6575 93.8852 90.302C93.8852 88.9465 92.7864 87.8477 91.4309 87.8477C90.0754 87.8477 88.9766 88.9465 88.9766 90.302C88.9766 91.6575 90.0754 92.7563 91.4309 92.7563Z" fill="#00E9B1"/>
<path d="M95.5715 88.9204C96.927 88.9204 98.0259 87.8215 98.0259 86.4661C98.0259 85.1106 96.927 84.0117 95.5715 84.0117C94.216 84.0117 93.1172 85.1106 93.1172 86.4661C93.1172 87.8215 94.216 88.9204 95.5715 88.9204Z" fill="#00E9B1"/>
<path d="M100.171 80.1758C98.7906 80.1758 97.7168 81.2496 97.7168 82.6301C97.7168 84.0107 98.7906 85.0845 100.171 85.0845C101.552 85.0845 102.625 84.0107 102.625 82.6301C102.472 81.2496 101.398 80.1758 100.171 80.1758Z" fill="#00E9B1"/>
<path d="M100.019 92.7563C101.374 92.7563 102.473 91.6575 102.473 90.302C102.473 88.9465 101.374 87.8477 100.019 87.8477C98.6633 87.8477 97.5645 88.9465 97.5645 90.302C97.5645 91.6575 98.6633 92.7563 100.019 92.7563Z" fill="#00E9B1"/>
<path d="M95.418 96.5903C96.7986 96.5903 97.8723 95.5165 97.8723 94.136C97.8723 92.7554 96.7986 91.6816 95.418 91.6816C94.0374 91.6816 92.9637 92.7554 92.9637 94.136C92.9637 95.5165 94.0374 96.5903 95.418 96.5903ZM94.0374 98.8912C94.0374 97.5107 92.9637 96.4369 91.5831 96.4369C90.2025 96.4369 89.1288 97.5107 89.1288 98.8912C89.1288 100.272 90.2025 101.346 91.5831 101.346C92.9637 101.192 94.0374 100.118 94.0374 98.8912ZM87.9016 106.408C89.2822 106.408 90.3559 105.334 90.3559 103.953C90.3559 102.573 89.2822 101.499 87.9016 101.499C86.521 101.499 85.4473 102.573 85.4473 103.953C85.4473 105.334 86.521 106.408 87.9016 106.408Z" fill="#00E9B1"/>
<path d="M105.236 88.9204C106.591 88.9204 107.69 87.8215 107.69 86.4661C107.69 85.1106 106.591 84.0117 105.236 84.0117C103.88 84.0117 102.781 85.1106 102.781 86.4661C102.781 87.8215 103.88 88.9204 105.236 88.9204Z" fill="#00E9B1"/>
<path d="M104.931 96.8989C106.286 96.8989 107.385 95.8001 107.385 94.4446C107.385 93.0891 106.286 91.9902 104.931 91.9902C103.575 91.9902 102.477 93.0891 102.477 94.4446C102.477 95.8001 103.575 96.8989 104.931 96.8989Z" fill="#00E9B1"/>
<path d="M110.603 88.4629C109.223 88.4629 108.149 89.5367 108.149 90.9172C108.149 92.2978 109.223 93.3716 110.603 93.3716C111.984 93.3716 113.058 92.2978 113.058 90.9172C113.058 89.5367 111.984 88.4629 110.603 88.4629ZM112.444 99.0472C112.444 97.6666 111.37 96.5929 109.99 96.5929C108.609 96.5929 107.535 97.6666 107.535 99.0472C107.535 100.428 108.609 101.502 109.99 101.502C111.37 101.502 112.444 100.428 112.444 99.0472ZM106.615 102.729C106.615 101.348 105.541 100.274 104.161 100.274C102.78 100.274 101.706 101.348 101.706 102.729C101.706 104.109 102.78 105.183 104.161 105.183C105.388 105.183 106.615 104.109 106.615 102.729ZM95.7239 106.103C97.1045 106.103 98.1782 105.03 98.1782 103.649C98.1782 102.269 97.1045 101.195 95.7239 101.195C94.3433 101.195 93.2696 102.269 93.2696 103.649C93.2696 105.03 94.4967 106.103 95.7239 106.103ZM91.889 111.779C93.2696 111.779 94.3433 110.705 94.3433 109.325C94.3433 107.944 93.2696 106.87 91.889 106.87C90.5084 106.87 89.4347 107.944 89.4347 109.325C89.5881 110.705 90.6618 111.779 91.889 111.779ZM87.7473 117.762C89.1279 117.762 90.2016 116.688 90.2016 115.307C90.2016 113.927 89.1279 112.853 87.7473 112.853C86.3667 112.853 85.293 113.927 85.293 115.307C85.293 116.688 86.5201 117.762 87.7473 117.762ZM102.013 98.2802C102.013 96.8997 100.939 95.8259 99.5588 95.8259C98.1782 95.8259 97.1045 96.8997 97.1045 98.2802C97.1045 99.6608 98.1782 100.735 99.5588 100.735C100.939 100.735 102.013 99.6608 102.013 98.2802Z" fill="#00E9B1"/>
<path d="M116.279 97.6665C117.634 97.6665 118.733 96.5676 118.733 95.2122C118.733 93.8567 117.634 92.7578 116.279 92.7578C114.923 92.7578 113.824 93.8567 113.824 95.2122C113.824 96.5676 114.923 97.6665 116.279 97.6665Z" fill="#00E9B1"/>
<path d="M115.359 106.409C116.714 106.409 117.813 105.31 117.813 103.954C117.813 102.599 116.714 101.5 115.359 101.5C114.003 101.5 112.904 102.599 112.904 103.954C112.904 105.31 114.003 106.409 115.359 106.409Z" fill="#00E9B1"/>
<path d="M121.344 106.869C119.963 106.869 118.889 107.943 118.889 109.323C118.889 110.704 119.963 111.778 121.344 111.778C122.724 111.778 123.798 110.704 123.798 109.323C123.798 107.943 122.724 106.869 121.344 106.869ZM113.981 110.244C112.6 110.244 111.526 111.317 111.526 112.698C111.526 114.079 112.6 115.152 113.981 115.152C115.361 115.152 116.435 114.079 116.435 112.698C116.435 111.317 115.361 110.244 113.981 110.244ZM111.373 107.636C111.373 106.255 110.299 105.182 108.918 105.182C107.538 105.182 106.464 106.255 106.464 107.636C106.464 109.017 107.538 110.09 108.918 110.09C110.299 110.09 111.373 109.017 111.373 107.636ZM105.39 116.533C106.771 116.533 107.845 115.459 107.845 114.079C107.845 112.698 106.771 111.624 105.39 111.624C104.01 111.624 102.936 112.698 102.936 114.079C102.936 115.459 104.01 116.533 105.39 116.533ZM96.4934 117.453C97.874 117.453 98.9477 116.38 98.9477 114.999C98.9477 113.618 97.874 112.545 96.4934 112.545C95.1128 112.545 94.0391 113.618 94.0391 114.999C94.1925 116.38 95.2662 117.453 96.4934 117.453ZM102.783 108.71C102.783 107.329 101.709 106.255 100.328 106.255C98.9477 106.255 97.874 107.329 97.874 108.71C97.874 110.09 98.9477 111.164 100.328 111.164C101.709 111.164 102.783 110.09 102.783 108.71Z" fill="#00E9B1"/>
<path d="M119.656 120.829C121.011 120.829 122.11 119.73 122.11 118.374C122.11 117.019 121.011 115.92 119.656 115.92C118.3 115.92 117.201 117.019 117.201 118.374C117.201 119.73 118.3 120.829 119.656 120.829Z" fill="#00E9B1"/>
<path d="M110.452 122.514C111.808 122.514 112.907 121.415 112.907 120.06C112.907 118.704 111.808 117.605 110.452 117.605C109.097 117.605 107.998 118.704 107.998 120.06C107.998 121.415 109.097 122.514 110.452 122.514Z" fill="#00E9B1"/>
<path d="M106.464 124.662C105.084 124.662 104.01 125.736 104.01 127.116C104.01 128.497 105.084 129.571 106.464 129.571C107.845 129.571 108.918 128.497 108.918 127.116C108.918 125.736 107.845 124.662 106.464 124.662Z" fill="#00E9B1"/>
<path d="M101.402 123.588C102.757 123.588 103.856 122.49 103.856 121.134C103.856 119.779 102.757 118.68 101.402 118.68C100.046 118.68 98.9473 119.779 98.9473 121.134C98.9473 122.49 100.046 123.588 101.402 123.588Z" fill="#00E9B1"/>
<path d="M97.1047 125.891C95.7242 125.891 94.6504 126.964 94.6504 128.345C94.6504 129.726 95.7242 130.799 97.1047 130.799C98.4853 130.799 99.5591 129.726 99.5591 128.345C99.5591 126.964 98.4853 125.891 97.1047 125.891Z" fill="#00E9B1"/>
<path d="M92.1985 124.202C93.554 124.202 94.6528 123.103 94.6528 121.747C94.6528 120.392 93.554 119.293 92.1985 119.293C90.843 119.293 89.7441 120.392 89.7441 121.747C89.7441 123.103 90.843 124.202 92.1985 124.202Z" fill="#00E9B1"/>
<path d="M87.9016 131.258C89.2571 131.258 90.3559 130.159 90.3559 128.804C90.3559 127.448 89.2571 126.35 87.9016 126.35C86.5461 126.35 85.4473 127.448 85.4473 128.804C85.4473 130.159 86.5461 131.258 87.9016 131.258Z" fill="#00E9B1"/>
<path d="M83.1457 124.049C84.5012 124.049 85.6001 122.95 85.6001 121.595C85.6001 120.239 84.5012 119.141 83.1457 119.141C81.7902 119.141 80.6914 120.239 80.6914 121.595C80.6914 122.95 81.7902 124.049 83.1457 124.049Z" fill="#00E9B1"/>
<path d="M78.2375 125.891C76.857 125.891 75.7832 126.964 75.7832 128.345C75.7832 129.726 76.857 130.799 78.2375 130.799C79.6181 130.799 80.6919 129.726 80.6919 128.345C80.6919 127.118 79.6181 125.891 78.2375 125.891Z" fill="#00E9B1"/>
<path d="M69.1887 129.571C70.5442 129.571 71.643 128.472 71.643 127.116C71.643 125.761 70.5442 124.662 69.1887 124.662C67.8332 124.662 66.7344 125.761 66.7344 127.116C66.7344 128.472 67.8332 129.571 69.1887 129.571Z" fill="#00E9B1"/>
<path d="M122.415 97.6656C121.035 97.6656 119.961 98.7394 119.961 100.12C119.961 101.5 121.035 102.574 122.415 102.574C123.796 102.574 124.87 101.5 124.87 100.12C124.87 98.7394 123.796 97.6656 122.415 97.6656ZM128.398 102.574C127.017 102.574 125.943 103.648 125.943 105.029C125.943 106.409 127.017 107.483 128.398 107.483C129.778 107.483 130.852 106.409 130.852 105.029C130.852 103.648 129.778 102.574 128.398 102.574ZM129.625 93.3705C128.244 93.3705 127.171 94.4443 127.171 95.8248C127.171 97.2054 128.244 98.2792 129.625 98.2792C131.005 98.2792 132.079 97.2054 132.079 95.8248C132.079 94.4443 131.005 93.3705 129.625 93.3705ZM122.875 88.6152C121.495 88.6152 120.421 89.689 120.421 91.0696C120.421 92.4501 121.495 93.5239 122.875 93.5239C124.256 93.5239 125.33 92.4501 125.33 91.0696C125.33 89.689 124.256 88.6152 122.875 88.6152Z" fill="#00E9B1"/>
<path d="M130.085 88.9204C131.441 88.9204 132.54 87.8215 132.54 86.4661C132.54 85.1106 131.441 84.0117 130.085 84.0117C128.73 84.0117 127.631 85.1106 127.631 86.4661C127.631 87.8215 128.73 88.9204 130.085 88.9204Z" fill="#00E9B1"/>
<path d="M122.876 84.4712C124.232 84.4712 125.331 83.3723 125.331 82.0168C125.331 80.6613 124.232 79.5625 122.876 79.5625C121.521 79.5625 120.422 80.6613 120.422 82.0168C120.422 83.3723 121.521 84.4712 122.876 84.4712Z" fill="#00E9B1"/>
<path d="M129.626 79.5649C130.982 79.5649 132.081 78.4661 132.081 77.1106C132.081 75.7551 130.982 74.6562 129.626 74.6562C128.271 74.6562 127.172 75.7551 127.172 77.1106C127.172 78.4661 128.271 79.5649 129.626 79.5649Z" fill="#00E9B1"/>
<path d="M119.961 72.8152C119.961 74.1958 121.035 75.2696 122.415 75.2696C123.796 75.2696 124.87 74.1958 124.87 72.8152C124.87 71.4347 123.796 70.3609 122.415 70.3609C121.035 70.5143 119.961 71.5881 119.961 72.8152ZM128.398 70.2075C129.778 70.2075 130.852 69.1337 130.852 67.7532C130.852 66.3726 129.778 65.2988 128.398 65.2988C127.017 65.2988 125.943 66.3726 125.943 67.7532C126.097 69.1337 127.171 70.2075 128.398 70.2075Z" fill="#00E9B1"/>
<path d="M121.341 66.2212C122.697 66.2212 123.795 65.1223 123.795 63.7668C123.795 62.4113 122.697 61.3125 121.341 61.3125C119.986 61.3125 118.887 62.4113 118.887 63.7668C118.887 65.1223 119.986 66.2212 121.341 66.2212Z" fill="#00E9B1"/>
<path d="M119.656 57.1684C121.036 57.1684 122.11 56.0947 122.11 54.7141C122.11 53.3335 121.036 52.2598 119.656 52.2598C118.275 52.2598 117.201 53.3335 117.201 54.7141C117.201 56.0947 118.275 57.1684 119.656 57.1684Z" fill="#00E9B1"/>
<path d="M114.134 62.6919C115.49 62.6919 116.588 61.593 116.588 60.2375C116.588 58.882 115.49 57.7832 114.134 57.7832C112.779 57.7832 111.68 58.882 111.68 60.2375C111.68 61.593 112.779 62.6919 114.134 62.6919Z" fill="#00E9B1"/>
<path d="M108.919 62.8457C107.538 62.8457 106.464 63.9195 106.464 65.3C106.464 66.6806 107.538 67.7544 108.919 67.7544C110.299 67.7544 111.373 66.6806 111.373 65.3C111.373 63.9195 110.299 62.8457 108.919 62.8457ZM101.709 70.2087C101.709 71.5893 102.783 72.663 104.163 72.663C105.544 72.663 106.618 71.5893 106.618 70.2087C106.618 68.8281 105.544 67.7544 104.163 67.7544C102.783 67.7544 101.709 68.8281 101.709 70.2087Z" fill="#00E9B1"/>
<path d="M100.329 66.6782C101.685 66.6782 102.784 65.5794 102.784 64.2239C102.784 62.8684 101.685 61.7695 100.329 61.7695C98.9738 61.7695 97.875 62.8684 97.875 64.2239C97.875 65.5794 98.9738 66.6782 100.329 66.6782Z" fill="#00E9B1"/>
<path d="M96.4934 60.3911C97.8489 60.3911 98.9477 59.2922 98.9477 57.9368C98.9477 56.5813 97.8489 55.4824 96.4934 55.4824C95.1379 55.4824 94.0391 56.5813 94.0391 57.9368C94.0391 59.2922 95.1379 60.3911 96.4934 60.3911Z" fill="#00E9B1"/>
<path d="M92.0442 66.0649C93.3997 66.0649 94.4985 64.9661 94.4985 63.6106C94.4985 62.2551 93.3997 61.1562 92.0442 61.1562C90.6887 61.1562 89.5898 62.2551 89.5898 63.6106C89.5898 64.9661 90.6887 66.0649 92.0442 66.0649Z" fill="#00E9B1"/>
<path d="M83.2981 66.0649C84.6536 66.0649 85.7524 64.9661 85.7524 63.6106C85.7524 62.2551 84.6536 61.1562 83.2981 61.1562C81.9426 61.1562 80.8438 62.2551 80.8438 63.6106C80.8438 64.9661 81.9426 66.0649 83.2981 66.0649Z" fill="#00E9B1"/>
<path d="M79.7727 71.7407C81.1282 71.7407 82.227 70.6419 82.227 69.2864C82.227 67.9309 81.1282 66.832 79.7727 66.832C78.4172 66.832 77.3184 67.9309 77.3184 69.2864C77.3184 70.6419 78.4172 71.7407 79.7727 71.7407Z" fill="#00E9B1"/>
<path d="M81.3066 74.1946C81.3066 75.5751 82.3804 76.6489 83.761 76.6489C85.1415 76.6489 86.2153 75.5751 86.2153 74.1946C86.2153 72.814 85.1415 71.7402 83.761 71.7402C82.5338 71.7402 81.3066 72.814 81.3066 74.1946Z" fill="#00E9B1"/>
<path d="M75.9387 77.1118C77.2942 77.1118 78.393 76.0129 78.393 74.6575C78.393 73.302 77.2942 72.2031 75.9387 72.2031C74.5832 72.2031 73.4844 73.302 73.4844 74.6575C73.4844 76.0129 74.5832 77.1118 75.9387 77.1118Z" fill="#00E9B1"/>
<path d="M70.5676 80.9458C71.9231 80.9458 73.022 79.8469 73.022 78.4914C73.022 77.136 71.9231 76.0371 70.5676 76.0371C69.2121 76.0371 68.1133 77.136 68.1133 78.4914C68.1133 79.8469 69.2121 80.9458 70.5676 80.9458Z" fill="#00E9B1"/>
<path d="M64.8918 84.6274C66.2724 84.6274 67.3462 83.5536 67.3462 82.1731C67.3462 80.7925 66.2724 79.7188 64.8918 79.7188C63.5113 79.7188 62.4375 80.7925 62.4375 82.1731C62.4375 83.5536 63.5113 84.6274 64.8918 84.6274Z" fill="#00E9B1"/>
<path d="M65.5051 76.3442C66.8606 76.3442 67.9594 75.2454 67.9594 73.8899C67.9594 72.5344 66.8606 71.4355 65.5051 71.4355C64.1496 71.4355 63.0508 72.5344 63.0508 73.8899C63.0508 75.2454 64.1496 76.3442 65.5051 76.3442Z" fill="#00E9B1"/>
<path d="M59.218 80.1782C60.5735 80.1782 61.6723 79.0794 61.6723 77.7239C61.6723 76.3684 60.5735 75.2695 59.218 75.2695C57.8625 75.2695 56.7637 76.3684 56.7637 77.7239C56.7637 79.0794 57.8625 80.1782 59.218 80.1782Z" fill="#00E9B1"/>
<path d="M52.4674 84.4727C53.848 84.4727 54.9218 83.3989 54.9218 82.0184C54.9218 80.6378 53.848 79.564 52.4674 79.564C51.0869 79.564 50.0131 80.6378 50.0131 82.0184C50.0131 83.3989 51.2403 84.4727 52.4674 84.4727ZM45.718 79.4106C47.0986 79.4106 48.1723 78.3368 48.1723 76.9563C48.1723 75.5757 47.0986 74.502 45.718 74.502C44.3374 74.502 43.2637 75.5757 43.2637 76.9563C43.4171 78.3368 44.4908 79.4106 45.718 79.4106Z" fill="#00E9B1"/>
<path d="M53.0813 75.4243C54.4368 75.4243 55.5356 74.3255 55.5356 72.97C55.5356 71.6145 54.4368 70.5156 53.0813 70.5156C51.7258 70.5156 50.627 71.6145 50.627 72.97C50.627 74.3255 51.7258 75.4243 53.0813 75.4243Z" fill="#00E9B1"/>
<path d="M47.0989 65.3008C45.7183 65.3008 44.6445 66.3746 44.6445 67.7551C44.6445 69.1357 45.7183 70.2095 47.0989 70.2095C48.4794 70.2095 49.5532 69.1357 49.5532 67.7551C49.3998 66.3746 48.326 65.3008 47.0989 65.3008ZM54.1551 66.2212C55.5356 66.2212 56.6094 65.1474 56.6094 63.7668C56.6094 62.3863 55.5356 61.3125 54.1551 61.3125C52.7745 61.3125 51.7007 62.3863 51.7007 63.7668C51.7007 65.1474 52.7745 66.2212 54.1551 66.2212Z" fill="#00E9B1"/>
<path d="M59.9836 71.2817C61.3391 71.2817 62.438 70.1829 62.438 68.8274C62.438 67.4719 61.3391 66.373 59.9836 66.373C58.6281 66.373 57.5293 67.4719 57.5293 68.8274C57.5293 70.1829 58.6281 71.2817 59.9836 71.2817Z" fill="#00E9B1"/>
<path d="M66.5813 67.7544C67.9368 67.7544 69.0356 66.6555 69.0356 65.3C69.0356 63.9445 67.9368 62.8457 66.5813 62.8457C65.2258 62.8457 64.127 63.9445 64.127 65.3C64.127 66.6555 65.2258 67.7544 66.5813 67.7544Z" fill="#00E9B1"/>
<path d="M71.3352 72.6606C72.6907 72.6606 73.7895 71.5618 73.7895 70.2063C73.7895 68.8508 72.6907 67.752 71.3352 67.752C69.9797 67.752 68.8809 68.8508 68.8809 70.2063C68.8809 71.5618 69.9797 72.6606 71.3352 72.6606Z" fill="#00E9B1"/>
<path d="M58.9114 88.768C60.2919 88.768 61.3657 87.6943 61.3657 86.3137C61.3657 84.9331 60.2919 83.8594 58.9114 83.8594C57.5308 83.8594 56.457 84.9331 56.457 86.3137C56.457 87.6943 57.5308 88.768 58.9114 88.768Z" fill="#00E9B1"/>
<path d="M87.9016 71.4341C89.2571 71.4341 90.3559 70.3352 90.3559 68.9797C90.3559 67.6242 89.2571 66.5254 87.9016 66.5254C86.5461 66.5254 85.4473 67.6242 85.4473 68.9797C85.4473 70.3352 86.5461 71.4341 87.9016 71.4341Z" fill="#00E9B1"/>
<path d="M105.388 56.4023C104.007 56.4023 102.934 57.4761 102.934 58.8567C102.934 60.2372 104.007 61.311 105.388 61.311C106.768 61.311 107.842 60.2372 107.842 58.8567C107.689 57.4761 106.615 56.4023 105.388 56.4023Z" fill="#00E9B1"/>
<path d="M110.452 55.3266C111.808 55.3266 112.907 54.2278 112.907 52.8723C112.907 51.5168 111.808 50.418 110.452 50.418C109.097 50.418 107.998 51.5168 107.998 52.8723C107.998 54.2278 109.097 55.3266 110.452 55.3266Z" fill="#00E9B1"/>
<path d="M101.402 54.2544C102.757 54.2544 103.856 53.1555 103.856 51.8C103.856 50.4445 102.757 49.3457 101.402 49.3457C100.046 49.3457 98.9473 50.4445 98.9473 51.8C98.9473 53.1555 100.046 54.2544 101.402 54.2544Z" fill="#00E9B1"/>
<path d="M106.464 48.272C107.845 48.272 108.918 47.1982 108.918 45.8176C108.918 44.4371 107.845 43.3633 106.464 43.3633C105.084 43.3633 104.01 44.4371 104.01 45.8176C104.01 47.1982 105.237 48.272 106.464 48.272Z" fill="#00E9B1"/>
<path d="M97.1047 47.0454C98.4602 47.0454 99.5591 45.9465 99.5591 44.5911C99.5591 43.2356 98.4602 42.1367 97.1047 42.1367C95.7492 42.1367 94.6504 43.2356 94.6504 44.5911C94.6504 45.9465 95.7492 47.0454 97.1047 47.0454Z" fill="#00E9B1"/>
<path d="M87.7473 46.5845C89.1028 46.5845 90.2016 45.4856 90.2016 44.1301C90.2016 42.7746 89.1028 41.6758 87.7473 41.6758C86.3918 41.6758 85.293 42.7746 85.293 44.1301C85.293 45.4856 86.3918 46.5845 87.7473 46.5845Z" fill="#00E9B1"/>
<path d="M78.2375 47.0454C79.593 47.0454 80.6919 45.9465 80.6919 44.5911C80.6919 43.2356 79.593 42.1367 78.2375 42.1367C76.882 42.1367 75.7832 43.2356 75.7832 44.5911C75.7832 45.9465 76.882 47.0454 78.2375 47.0454Z" fill="#00E9B1"/>
<path d="M69.1887 48.272C70.5693 48.272 71.643 47.1982 71.643 45.8176C71.643 44.4371 70.5693 43.3633 69.1887 43.3633C67.8081 43.3633 66.7344 44.4371 66.7344 45.8176C66.7344 47.1982 67.8081 48.272 69.1887 48.272Z" fill="#00E9B1"/>
<path d="M83.1457 53.7934C84.5012 53.7934 85.6001 52.6946 85.6001 51.3391C85.6001 49.9836 84.5012 48.8848 83.1457 48.8848C81.7902 48.8848 80.6914 49.9836 80.6914 51.3391C80.6914 52.6946 81.7902 53.7934 83.1457 53.7934Z" fill="#00E9B1"/>
<path d="M74.0959 54.2544C75.4765 54.2544 76.5503 53.1806 76.5503 51.8C76.5503 50.4195 75.4765 49.3457 74.0959 49.3457C72.7154 49.3457 71.6416 50.4195 71.6416 51.8C71.6416 53.1806 72.8687 54.2544 74.0959 54.2544ZM70.1076 56.4019C68.7271 56.4019 67.6533 57.4757 67.6533 58.8563C67.6533 60.2368 68.7271 61.3106 70.1076 61.3106C71.4882 61.3106 72.562 60.2368 72.562 58.8563C72.562 57.4757 71.4882 56.4019 70.1076 56.4019ZM61.3641 62.6911C62.7446 62.6911 63.8184 61.6174 63.8184 60.2368C63.8184 58.8563 62.7446 57.7825 61.3641 57.7825C59.9835 57.7825 58.9097 58.8563 58.9097 60.2368C58.9097 61.6174 59.9835 62.6911 61.3641 62.6911ZM56.302 57.0155C57.6826 57.0155 58.7563 55.9417 58.7563 54.5612C58.7563 53.1806 57.6826 52.1068 56.302 52.1068C54.9214 52.1068 53.8477 53.1806 53.8477 54.5612C53.8477 55.9417 54.9214 57.0155 56.302 57.0155ZM65.0456 55.3281C66.4261 55.3281 67.4999 54.2544 67.4999 52.8738C67.4999 51.4932 66.4261 50.4195 65.0456 50.4195C63.665 50.4195 62.5912 51.4932 62.5912 52.8738C62.5912 54.2544 63.665 55.3281 65.0456 55.3281Z" fill="#00E9B1"/>
<path d="M75.1711 66.6782C76.5266 66.6782 77.6255 65.5794 77.6255 64.2239C77.6255 62.8684 76.5266 61.7695 75.1711 61.7695C73.8156 61.7695 72.7168 62.8684 72.7168 64.2239C72.7168 65.5794 73.8156 66.6782 75.1711 66.6782Z" fill="#00E9B1"/>
<path d="M78.8528 60.3911C80.2083 60.3911 81.3071 59.2922 81.3071 57.9368C81.3071 56.5813 80.2083 55.4824 78.8528 55.4824C77.4973 55.4824 76.3984 56.5813 76.3984 57.9368C76.3984 59.2922 77.4973 60.3911 78.8528 60.3911Z" fill="#00E9B1"/>
<path d="M92.1985 53.7934C93.554 53.7934 94.6528 52.6946 94.6528 51.3391C94.6528 49.9836 93.554 48.8848 92.1985 48.8848C90.843 48.8848 89.7441 49.9836 89.7441 51.3391C89.7441 52.6946 90.843 53.7934 92.1985 53.7934Z" fill="#00E9B1"/>
<path d="M87.7473 60.0845C89.1028 60.0845 90.2016 58.9856 90.2016 57.6301C90.2016 56.2746 89.1028 55.1758 87.7473 55.1758C86.3918 55.1758 85.293 56.2746 85.293 57.6301C85.293 58.9856 86.3918 60.0845 87.7473 60.0845Z" fill="#00E9B1"/>
<path d="M99.5618 77.1118C100.917 77.1118 102.016 76.0129 102.016 74.6575C102.016 73.302 100.917 72.2031 99.5618 72.2031C98.2063 72.2031 97.1074 73.302 97.1074 74.6575C97.1074 76.0129 98.2063 77.1118 99.5618 77.1118Z" fill="#00E9B1"/>
<path d="M95.418 76.3432C94.0375 76.3432 92.9637 77.4169 92.9637 78.7975C92.9637 80.1781 94.0375 81.2518 95.418 81.2518C96.7986 81.2518 97.8724 80.1781 97.8724 78.7975C97.8724 77.4169 96.7986 76.3432 95.418 76.3432ZM89.2822 74.0422C89.2822 75.4228 90.356 76.4966 91.7365 76.4966C93.1171 76.4966 94.1909 75.4228 94.1909 74.0422C94.1909 72.6617 93.1171 71.5879 91.7365 71.5879C90.356 71.5879 89.2822 72.8151 89.2822 74.0422ZM87.7482 76.1898C86.3677 76.1898 85.2939 77.2635 85.2939 78.6441C85.2939 80.0247 86.3677 81.0984 87.7482 81.0984C89.1288 81.0984 90.2026 80.0247 90.2026 78.6441C90.2026 77.2635 89.1288 76.1898 87.7482 76.1898ZM81.6124 82.7858C81.6124 84.1664 82.6862 85.2401 84.0667 85.2401C85.4473 85.2401 86.5211 84.1664 86.5211 82.7858C86.5211 81.4052 85.4473 80.3315 84.0667 80.3315C82.6862 80.3315 81.6124 81.4052 81.6124 82.7858ZM80.0784 76.4966C78.6979 76.4966 77.6241 77.5703 77.6241 78.9509C77.6241 80.3315 78.6979 81.4052 80.0784 81.4052C81.459 81.4052 82.5328 80.3315 82.5328 78.9509C82.5328 77.5703 81.459 76.4966 80.0784 76.4966ZM79.925 88.9216C81.3056 88.9216 82.3794 87.8479 82.3794 86.4673C82.3794 85.0867 81.3056 84.013 79.925 84.013C78.5445 84.013 77.4707 85.0867 77.4707 86.4673C77.4707 87.8479 78.5445 88.9216 79.925 88.9216Z" fill="#00E9B1"/>
<path d="M75.3235 85.0845C76.679 85.0845 77.7778 83.9856 77.7778 82.6301C77.7778 81.2746 76.679 80.1758 75.3235 80.1758C73.968 80.1758 72.8691 81.2746 72.8691 82.6301C72.8691 83.9856 73.968 85.0845 75.3235 85.0845Z" fill="#00E9B1"/>
<path d="M75.3235 92.9087C76.679 92.9087 77.7778 91.8098 77.7778 90.4543C77.7778 89.0988 76.679 88 75.3235 88C73.968 88 72.8691 89.0988 72.8691 90.4543C72.8691 91.8098 73.968 92.9087 75.3235 92.9087Z" fill="#00E9B1"/>
<path d="M70.261 88.768C71.6415 88.768 72.7153 87.6943 72.7153 86.3137C72.7153 84.9331 71.6415 83.8594 70.261 83.8594C68.8804 83.8594 67.8066 84.9331 67.8066 86.3137C67.8066 87.6943 68.8804 88.768 70.261 88.768Z" fill="#00E9B1"/>
<path d="M70.7219 97.0512C72.0774 97.0512 73.1762 95.9524 73.1762 94.5969C73.1762 93.2414 72.0774 92.1426 70.7219 92.1426C69.3664 92.1426 68.2676 93.2414 68.2676 94.5969C68.2676 95.9524 69.3664 97.0512 70.7219 97.0512Z" fill="#00E9B1"/>
<path d="M64.8928 93.2173C66.2733 93.2173 67.3471 92.1435 67.3471 90.7629C67.3471 89.3824 66.2733 88.3086 64.8928 88.3086C63.5122 88.3086 62.4384 89.3824 62.4384 90.7629C62.4384 92.1435 63.5122 93.2173 64.8928 93.2173ZM65.5064 101.654C66.8869 101.654 67.9607 100.58 67.9607 99.1997C67.9607 97.8191 66.8869 96.7454 65.5064 96.7454C64.1258 96.7454 63.052 97.8191 63.052 99.1997C63.052 100.427 64.1258 101.654 65.5064 101.654ZM59.9841 106.563C61.3647 106.563 62.4384 105.489 62.4384 104.108C62.4384 102.728 61.3647 101.654 59.9841 101.654C58.6035 101.654 57.5298 102.728 57.5298 104.108C57.6832 105.489 58.7569 106.563 59.9841 106.563ZM55.5356 100.12C55.5356 98.7395 54.4619 97.6657 53.0813 97.6657C51.7007 97.6657 50.627 98.7395 50.627 100.12C50.627 101.501 51.7007 102.574 53.0813 102.574C54.4619 102.574 55.5356 101.347 55.5356 100.12Z" fill="#00E9B1"/>
<path d="M45.8723 98.2778C47.2278 98.2778 48.3266 97.179 48.3266 95.8235C48.3266 94.468 47.2278 93.3691 45.8723 93.3691C44.5168 93.3691 43.418 94.468 43.418 95.8235C43.418 97.179 44.5168 98.2778 45.8723 98.2778Z" fill="#00E9B1"/>
<path d="M52.468 93.5239C53.8486 93.5239 54.9223 92.4501 54.9223 91.0696C54.9223 89.689 53.8486 88.6152 52.468 88.6152C51.0874 88.6152 50.0137 89.689 50.0137 91.0696C50.0137 92.4501 51.2408 93.5239 52.468 93.5239Z" fill="#00E9B1"/>
<path d="M45.4114 88.9204C46.7669 88.9204 47.8657 87.8215 47.8657 86.4661C47.8657 85.1106 46.7669 84.0117 45.4114 84.0117C44.0559 84.0117 42.957 85.1106 42.957 86.4661C42.957 87.8215 44.0559 88.9204 45.4114 88.9204Z" fill="#00E9B1"/>
<path d="M59.2162 97.6665C60.5968 97.6665 61.6706 96.5927 61.6706 95.2122C61.6706 93.8316 60.5968 92.7578 59.2162 92.7578C57.8357 92.7578 56.7619 93.8316 56.7619 95.2122C56.7619 96.5927 57.8357 97.6665 59.2162 97.6665ZM46.9446 102.575C45.564 102.575 44.4902 103.649 44.4902 105.029C44.4902 106.41 45.564 107.484 46.9446 107.484C48.3251 107.484 49.3989 106.41 49.3989 105.029C49.3989 103.649 48.3251 102.575 46.9446 102.575Z" fill="#00E9B1"/>
<path d="M54.1536 111.778C55.509 111.778 56.6079 110.679 56.6079 109.323C56.6079 107.968 55.509 106.869 54.1536 106.869C52.7981 106.869 51.6992 107.968 51.6992 109.323C51.6992 110.679 52.7981 111.778 54.1536 111.778Z" fill="#00E9B1"/>
<path d="M86.3687 90.302C86.3687 88.9214 85.2949 87.8477 83.9144 87.8477C82.5338 87.8477 81.4601 88.9214 81.4601 90.302C81.4601 91.6826 82.5338 92.7563 83.9144 92.7563C85.2949 92.7563 86.3687 91.6826 86.3687 90.302ZM87.7493 96.7446C89.1298 96.7446 90.2036 95.6708 90.2036 94.2903C90.2036 92.9097 89.1298 91.836 87.7493 91.836C86.3687 91.836 85.2949 92.9097 85.2949 94.2903C85.4483 95.5175 86.5221 96.7446 87.7493 96.7446ZM86.2153 98.8922C86.2153 97.5116 85.1416 96.4378 83.761 96.4378C82.3804 96.4378 81.3067 97.5116 81.3067 98.8922C81.3067 100.273 82.3804 101.347 83.761 101.347C85.1416 101.193 86.2153 100.119 86.2153 98.8922ZM79.7727 106.102C81.1533 106.102 82.227 105.028 82.227 103.647C82.227 102.267 81.1533 101.193 79.7727 101.193C78.3921 101.193 77.3184 102.267 77.3184 103.647C77.3184 105.028 78.3921 106.102 79.7727 106.102Z" fill="#00E9B1"/>
<path d="M83.4543 111.778C84.8098 111.778 85.9087 110.679 85.9087 109.323C85.9087 107.968 84.8098 106.869 83.4543 106.869C82.0988 106.869 81 107.968 81 109.323C81 110.679 82.0988 111.778 83.4543 111.778Z" fill="#00E9B1"/>
<path d="M78.8528 117.452C80.2083 117.452 81.3071 116.353 81.3071 114.997C81.3071 113.642 80.2083 112.543 78.8528 112.543C77.4973 112.543 76.3984 113.642 76.3984 114.997C76.3984 116.353 77.4973 117.452 78.8528 117.452Z" fill="#00E9B1"/>
<path d="M70.1086 116.532C71.4641 116.532 72.563 115.433 72.563 114.077C72.563 112.722 71.4641 111.623 70.1086 111.623C68.7531 111.623 67.6543 112.722 67.6543 114.077C67.6543 115.433 68.7531 116.532 70.1086 116.532Z" fill="#00E9B1"/>
<path d="M66.5813 110.089C67.9619 110.089 69.0356 109.015 69.0356 107.634C69.0356 106.254 67.9619 105.18 66.5813 105.18C65.2007 105.18 64.127 106.254 64.127 107.634C64.2803 109.015 65.3541 110.089 66.5813 110.089ZM75.1715 111.163C76.552 111.163 77.6258 110.089 77.6258 108.708C77.6258 107.328 76.552 106.254 75.1715 106.254C73.7909 106.254 72.7171 107.328 72.7171 108.708C72.7171 110.089 73.7909 111.163 75.1715 111.163ZM73.7909 102.726C73.7909 101.345 72.7171 100.271 71.3366 100.271C69.956 100.271 68.8822 101.345 68.8822 102.726C68.8822 104.106 69.956 105.18 71.3366 105.18C72.7171 105.027 73.7909 103.953 73.7909 102.726Z" fill="#00E9B1"/>
<path d="M75.9387 100.735C77.2942 100.735 78.393 99.636 78.393 98.2805C78.393 96.925 77.2942 95.8262 75.9387 95.8262C74.5832 95.8262 73.4844 96.925 73.4844 98.2805C73.4844 99.636 74.5832 100.735 75.9387 100.735Z" fill="#00E9B1"/>
<path d="M80.0788 96.5903C81.4594 96.5903 82.5331 95.5165 82.5331 94.136C82.5331 92.7554 81.4594 91.6816 80.0788 91.6816C78.6982 91.6816 77.6245 92.7554 77.6245 94.136C77.6245 95.3631 78.8516 96.5903 80.0788 96.5903ZM63.8188 112.697C63.8188 111.316 62.7451 110.243 61.3645 110.243C59.9839 110.243 58.9102 111.316 58.9102 112.697C58.9102 114.077 59.9839 115.151 61.3645 115.151C62.7451 114.998 63.8188 113.924 63.8188 112.697Z" fill="#00E9B1"/>
<path d="M65.0481 122.514C66.4036 122.514 67.5024 121.415 67.5024 120.06C67.5024 118.704 66.4036 117.605 65.0481 117.605C63.6926 117.605 62.5938 118.704 62.5938 120.06C62.5938 121.415 63.6926 122.514 65.0481 122.514Z" fill="#00E9B1"/>
<path d="M56.1477 115.919C54.7671 115.919 53.6934 116.993 53.6934 118.373C53.6934 119.754 54.7671 120.828 56.1477 120.828C57.5283 120.828 58.602 119.754 58.602 118.373C58.602 116.993 57.5283 115.919 56.1477 115.919ZM74.095 118.68C72.7145 118.68 71.6407 119.754 71.6407 121.134C71.6407 122.515 72.7145 123.589 74.095 123.589C75.4756 123.589 76.5494 122.515 76.5494 121.134C76.5494 119.754 75.4756 118.68 74.095 118.68ZM95.7239 66.9856C94.3433 66.9856 93.2695 68.0593 93.2695 69.4399C93.2695 70.8205 94.3433 71.8942 95.7239 71.8942C97.1044 71.8942 98.1782 70.8205 98.1782 69.4399C98.1782 68.0593 97.1044 66.9856 95.7239 66.9856ZM112.904 68.9797C112.904 70.3603 113.978 71.4341 115.359 71.4341C116.739 71.4341 117.813 70.3603 117.813 68.9797C117.813 67.5992 116.739 66.5254 115.359 66.5254C113.978 66.5254 112.904 67.5992 112.904 68.9797Z" fill="#00E9B1"/>
<path d="M109.991 76.3442C111.347 76.3442 112.446 75.2454 112.446 73.8899C112.446 72.5344 111.347 71.4355 109.991 71.4355C108.636 71.4355 107.537 72.5344 107.537 73.8899C107.537 75.2454 108.636 76.3442 109.991 76.3442Z" fill="#00E9B1"/>
<path d="M116.279 80.0259C117.659 80.0259 118.733 78.9521 118.733 77.5715C118.733 76.191 117.659 75.1172 116.279 75.1172C114.898 75.1172 113.824 76.191 113.824 77.5715C113.824 78.9521 114.898 80.0259 116.279 80.0259ZM116.585 84.0142C115.205 84.0142 114.131 85.0879 114.131 86.4685C114.131 87.849 115.205 88.9228 116.585 88.9228C117.966 88.9228 119.04 87.849 119.04 86.4685C119.04 85.0879 117.966 84.0142 116.585 84.0142Z" fill="#00E9B1"/>
<path d="M110.605 84.6274C111.96 84.6274 113.059 83.5286 113.059 82.1731C113.059 80.8176 111.96 79.7188 110.605 79.7188C109.249 79.7188 108.15 80.8176 108.15 82.1731C108.15 83.5286 109.249 84.6274 110.605 84.6274Z" fill="#00E9B1"/>
<path d="M104.931 80.9458C106.311 80.9458 107.385 79.872 107.385 78.4914C107.385 77.1109 106.311 76.0371 104.931 76.0371C103.55 76.0371 102.477 77.1109 102.477 78.4914C102.477 79.7186 103.55 80.9458 104.931 80.9458Z" fill="#00E9B1"/>
</svg>
