<svg width="373" height="370" viewBox="0 0 373 370" fill="none" xmlns="http://www.w3.org/2000/svg">
<rect x="0.201172" y="0.0742188" width="249.023" height="315.331" rx="14.7351" fill="#11182F"/>
<rect x="16.4092" y="11.8691" width="109.777" height="8.10431" rx="4.05215" fill="#D9D9D9"/>
<rect x="39.9834" y="40.5977" width="33.8907" height="8.10431" rx="4.05215" fill="#4CC937"/>
<rect x="39.9834" y="74.4883" width="33.8907" height="8.10431" rx="4.05215" fill="#D146DD"/>
<rect x="39.9834" y="90.6953" width="65.5712" height="8.10431" rx="4.05215" fill="#4CC937"/>
<rect x="39.9834" y="108.379" width="58.9404" height="8.10431" rx="4.05215" fill="#4CC937"/>
<rect x="39.9834" y="126.799" width="19.1556" height="8.10431" rx="4.05215" fill="#D146DD"/>
<rect x="67.9805" y="126.799" width="29.4702" height="8.10431" rx="4.05215" fill="#4CC937"/>
<rect x="39.9834" y="144.482" width="29.4702" height="8.10431" rx="4.05215" fill="#D146DD"/>
<rect x="39.9834" y="178.373" width="58.9404" height="8.10431" rx="4.05215" fill="#1C85E8"/>
<rect x="39.9834" y="198.266" width="27.9967" height="8.10431" rx="4.05215" fill="#D9D9D9"/>
<rect x="39.9834" y="215.947" width="44.2053" height="8.10431" rx="4.05215" fill="#D9D9D9"/>
<rect x="39.9834" y="234.367" width="58.9404" height="8.10431" rx="4.05215" fill="#1C85E8"/>
<rect x="39.2441" y="252.047" width="47.8891" height="8.10431" rx="4.05215" fill="#D9D9D9"/>
<rect x="39.2441" y="283.73" width="26.5232" height="8.10431" rx="4.05215" fill="#D9D9D9"/>
<rect x="87.1318" y="215.947" width="21.3659" height="8.10431" rx="4.05215" fill="#D9D9D9"/>
<rect x="39.9834" y="58.2812" width="58.9404" height="8.10431" rx="4.05215" fill="#D9D9D9"/>
<rect x="81.9795" y="40.5977" width="13.9983" height="8.10431" rx="4.05215" fill="#D9D9D9"/>
<rect x="213.857" y="11.8691" width="8.10431" height="8.10431" rx="4.05215" fill="#F72A4F"/>
<rect x="226.388" y="11.8691" width="8.10431" height="8.10431" rx="4.05215" fill="#F3BA2F"/>
<rect x="105.554" y="58.2812" width="16.9454" height="8.10431" rx="4.05215" fill="#F72A4F"/>
<rect x="105.554" y="108.379" width="14.7351" height="8.10431" rx="4.05215" fill="#D9D9D9"/>
<rect x="16.4092" y="40.5977" width="14.7351" height="8.10431" rx="4.05215" fill="#D9D9D9"/>
<rect x="16.4092" y="109.855" width="14.7351" height="8.10431" rx="4.05215" fill="#D9D9D9" fill-opacity="0.35"/>
<rect x="16.4092" y="180.584" width="14.7351" height="8.10431" rx="4.05215" fill="#D9D9D9"/>
<rect x="16.4092" y="58.2812" width="14.7351" height="8.10431" rx="4.05215" fill="#D9D9D9" fill-opacity="0.35"/>
<rect x="16.4092" y="126.799" width="14.7351" height="8.10431" rx="4.05215" fill="#D9D9D9" fill-opacity="0.35"/>
<rect x="16.4092" y="198.266" width="14.7351" height="8.10431" rx="4.05215" fill="#D9D9D9" fill-opacity="0.36"/>
<rect x="16.4092" y="251.311" width="14.7351" height="8.10431" rx="4.05215" fill="#D9D9D9" fill-opacity="0.36"/>
<rect x="16.4092" y="74.4883" width="14.7351" height="8.10431" rx="4.05215" fill="#D9D9D9" fill-opacity="0.35"/>
<rect x="16.4092" y="144.482" width="14.7351" height="8.10431" rx="4.05215" fill="#D9D9D9" fill-opacity="0.35"/>
<rect x="16.4092" y="214.473" width="14.7351" height="8.10431" rx="4.05215" fill="#D9D9D9" fill-opacity="0.36"/>
<rect x="16.4092" y="267.52" width="14.7351" height="8.10431" rx="4.05215" fill="#D9D9D9" fill-opacity="0.36"/>
<rect x="16.4092" y="90.6953" width="14.7351" height="8.10431" rx="4.05215" fill="#D9D9D9" fill-opacity="0.35"/>
<rect x="16.4092" y="159.953" width="14.7351" height="8.10431" rx="4.05215" fill="#D9D9D9" fill-opacity="0.35"/>
<rect x="16.4092" y="234.367" width="14.7351" height="8.10431" rx="4.05215" fill="#D9D9D9" fill-opacity="0.36"/>
<rect x="16.4092" y="283.73" width="14.7351" height="8.10431" rx="4.05215" fill="#D9D9D9"/>
<rect x="144.354" y="100.303" width="206.071" height="231.286" rx="8.98258" fill="white"/>
<rect x="156.51" y="117.734" width="28.0045" height="5.28387" rx="2.64194" fill="#D9D9D9"/>
<rect x="242.635" y="117.734" width="16.38" height="5.28387" rx="2.64194" fill="#D9D9D9"/>
<rect x="220.44" y="117.734" width="16.38" height="5.28387" rx="2.64194" fill="#D9D9D9"/>
<rect x="264.825" y="117.734" width="16.38" height="5.28387" rx="2.64194" fill="#D9D9D9"/>
<path d="M156.51 135.705C156.51 133.078 158.639 130.949 161.265 130.949H330.349C332.976 130.949 335.105 133.078 335.105 135.705V205.452C335.105 208.078 332.976 210.207 330.349 210.207H188.741C170.94 210.207 156.51 195.777 156.51 177.976V135.705Z" fill="#D2E7FA"/>
<rect x="173.942" y="155.783" width="45.9697" height="11.6245" rx="5.81226" fill="white"/>
<rect x="246.335" y="156.836" width="45.9697" height="11.6245" rx="5.81226" fill="white"/>
<rect x="222.026" y="155.783" width="21.1355" height="11.6245" rx="5.81226" fill="white"/>
<rect x="173.942" y="172.691" width="31.7032" height="11.6245" rx="5.81226" fill="#61CE6C"/>
<rect x="173.942" y="240.324" width="53.3671" height="5.81226" rx="2.90613" fill="#273A50"/>
<rect x="173.942" y="251.422" width="60.2361" height="5.81226" rx="2.90613" fill="#D9D9D9"/>
<rect x="173.942" y="263.047" width="53.3671" height="5.81226" rx="2.90613" fill="#D9D9D9"/>
<rect x="173.942" y="278.371" width="26.4194" height="10.0394" rx="5.01968" fill="#236CF6"/>
<rect x="258.486" y="232.924" width="48.0832" height="64.9916" rx="5.81226" fill="#D2E7FA"/>
<rect x="262.183" y="237.154" width="40.6858" height="23.7774" rx="3.17032" fill="white"/>
<rect x="262.183" y="267.271" width="38.0439" height="4.2271" rx="2.11355" fill="white"/>
<rect x="262.183" y="275.725" width="23.249" height="4.2271" rx="2.11355" fill="white"/>
<rect x="262.183" y="286.295" width="38.0439" height="5.28387" rx="2.64194" fill="#FEFEFE"/>
<rect x="319.252" y="231.873" width="48.0832" height="64.9916" rx="5.81226" fill="#1AD6D6"/>
<path fill-rule="evenodd" clip-rule="evenodd" d="M174.472 229.23C173.888 229.23 173.415 229.704 173.415 230.287V230.816C173.415 231.399 173.888 231.872 174.472 231.872H236.293C236.877 231.872 237.35 231.399 237.35 230.816V230.287C237.35 229.704 236.877 229.23 236.293 229.23H174.472ZM174.472 297.92C173.888 297.92 173.415 298.394 173.415 298.977V299.506C173.415 300.089 173.888 300.562 174.472 300.562H236.293C236.877 300.562 237.35 300.089 237.35 299.506V298.977C237.35 298.394 236.877 297.92 236.293 297.92H174.472ZM165.488 236.629C166.071 236.629 166.544 237.102 166.544 237.686L166.544 291.053C166.544 291.637 166.071 292.11 165.488 292.11H164.959C164.375 292.11 163.902 291.637 163.902 291.053L163.902 237.686C163.902 237.102 164.375 236.629 164.959 236.629H165.488ZM245.804 237.686C245.804 237.102 245.331 236.629 244.748 236.629H244.219C243.636 236.629 243.162 237.102 243.162 237.686V291.053C243.162 291.637 243.636 292.11 244.219 292.11H244.748C245.331 292.11 245.804 291.637 245.804 291.053V237.686Z" fill="#D9D9D9"/>
<rect x="160.205" y="223.947" width="10.0394" height="10.0394" rx="1.58516" fill="#D9D9D9"/>
<rect x="160.205" y="294.219" width="10.0394" height="10.0394" rx="1.58516" fill="#D9D9D9"/>
<rect x="238.935" y="223.947" width="10.0394" height="10.0394" rx="1.58516" fill="#D9D9D9"/>
<rect x="238.935" y="294.219" width="10.0394" height="10.0394" rx="1.58516" fill="#D9D9D9"/>
<rect x="341.513" y="257.234" width="3.92328" height="14.2665" rx="1.96164" fill="white"/>
<rect x="350.427" y="262.408" width="3.92328" height="14.2665" rx="1.96164" transform="rotate(90 350.427 262.408)" fill="white"/>
<rect x="287.06" y="38.8301" width="84.9921" height="28.3307" rx="14.1653" fill="#7581E9"/>
<rect x="298.428" y="50.2422" width="14.3118" height="5.85484" rx="2.92742" fill="white"/>
<rect x="317.3" y="50.2422" width="44.2366" height="5.85484" rx="2.92742" fill="white"/>
<path d="M281.568 73.4281C280.591 73.6897 279.698 72.7961 279.959 71.8196L282.196 63.4704C282.458 62.4938 283.679 62.1668 284.394 62.8816C286.041 66.0811 287.407 67.3892 290.506 68.9937C291.22 69.7086 290.893 70.9292 289.917 71.1909L281.568 73.4281Z" fill="#1C274C"/>
<rect x="15.9893" y="342.066" width="82.5762" height="27.5254" rx="13.7627" fill="#F586DD"/>
<rect x="26.7764" y="352.861" width="14.0326" height="7.01628" rx="2.96843" fill="white"/>
<rect x="45.6689" y="352.861" width="42.6374" height="7.01628" rx="2.96843" fill="white"/>
<path d="M104.583 335.618C105.662 335.329 106.649 336.316 106.36 337.395L103.889 346.619C103.6 347.697 102.251 348.059 101.461 347.269C99.6411 343.734 98.1323 342.289 94.7091 340.517C93.9193 339.727 94.2807 338.378 95.3595 338.089L104.583 335.618Z" fill="#1C274C"/>
</svg>
