<svg width="803" height="827" viewBox="0 0 803 827" fill="none" xmlns="http://www.w3.org/2000/svg">
<path d="M371.375 311.352C424.837 311.352 451.603 375.996 413.79 413.789L102.872 724.539C65.0695 762.322 0.457031 735.548 0.457031 682.102V371.352C0.457031 338.214 27.3199 311.352 60.457 311.352H371.375Z" fill="#F62A4F"/>
<path d="M769.969 522.495C769.96 575.937 705.353 602.702 667.554 564.923L479.006 376.477C455.559 353.043 455.559 315.035 479.006 291.601L667.616 103.093C705.422 65.307 770.04 92.0891 770.031 145.54L769.969 522.495Z" fill="#2058C2"/>
<path d="M280.434 750.768C226.978 750.758 200.22 686.12 238.029 648.33L426.54 459.915C449.969 436.498 487.942 436.498 511.371 459.915L699.95 648.398C737.767 686.195 710.991 750.845 657.524 750.835L280.434 750.768Z" fill="#FFC107"/>
</svg>
