<svg width="1730" height="1200" viewBox="0 0 1730 1200" fill="none" xmlns="http://www.w3.org/2000/svg">
<circle cx="962.871" cy="600.115" r="505.34" fill="#FFDA7A"/>
<path d="M555.065 721.61L441.207 787.274L555.065 852.938L668.822 787.274L555.065 721.61Z" fill="#7188D6"/>
<path d="M555.066 852.939V984.268L668.824 918.604V787.275L555.066 852.939Z" fill="#7188D6"/>
<path d="M555.065 852.939V984.268L441.207 918.604V787.275L555.065 852.939Z" fill="#7188D6"/>
<path d="M689.824 852.929V775.116" stroke="#242424" stroke-width="5.54321" stroke-miterlimit="10" stroke-linecap="round" stroke-linejoin="round"/>
<path d="M420.227 775.116V930.642L555.069 1008.45L633.585 963.072" stroke="#242424" stroke-width="5.54321" stroke-miterlimit="10" stroke-linecap="round" stroke-linejoin="round"/>
<path d="M472.715 745.456L420.227 775.121L555.069 852.934L689.811 775.121L649.829 751.972L630.715 740.963" stroke="#242424" stroke-width="5.54321" stroke-miterlimit="10" stroke-linecap="round" stroke-linejoin="round"/>
<path d="M555.066 852.93V1008.46" stroke="#242424" stroke-width="5.54321" stroke-miterlimit="10" stroke-linecap="round" stroke-linejoin="round"/>
<path d="M959.082 404.625L772.547 512.203L959.082 619.781L1145.45 512.203L959.082 404.625Z" fill="#7188D6"/>
<path d="M959.082 619.783V834.94L1145.45 727.361V512.205L959.082 619.783Z" fill="#7188D6"/>
<path d="M959.082 619.783V834.94L772.547 727.361V512.205L959.082 619.783Z" fill="#7188D6"/>
<path d="M795.543 780.324L959.049 874.578" stroke="#242424" stroke-width="5.54321" stroke-miterlimit="10" stroke-linecap="round" stroke-linejoin="round"/>
<path d="M1179.83 492.298L959.081 364.98L738.168 492.298V672.582" stroke="#242424" stroke-width="5.54321" stroke-miterlimit="10" stroke-linecap="round" stroke-linejoin="round"/>
<path d="M1117.82 782.959L959.082 874.581V619.782" stroke="#242424" stroke-width="5.54321" stroke-miterlimit="10" stroke-linecap="round" stroke-linejoin="round"/>
<path d="M959.082 619.784L1179.83 492.302V672.586" stroke="#242424" stroke-width="5.54321" stroke-miterlimit="10" stroke-linecap="round" stroke-linejoin="round"/>
<path d="M959.081 619.784L738.168 492.302" stroke="#242424" stroke-width="5.54321" stroke-miterlimit="10" stroke-linecap="round" stroke-linejoin="round"/>
<path d="M555.065 254.322L441.207 319.986L555.065 385.65L668.822 319.986L555.065 254.322Z" fill="white"/>
<path d="M555.066 385.65V516.979L668.824 451.314V319.986L555.066 385.65Z" fill="white"/>
<path d="M555.065 385.65V516.979L441.207 451.314V319.986L555.065 385.65Z" fill="white"/>
<path d="M689.811 307.936L620.459 267.867M420.227 307.936L478.265 275.46" stroke="#242424" stroke-width="5.54321" stroke-miterlimit="10" stroke-linecap="round" stroke-linejoin="round"/>
<path d="M555.066 385.648L689.808 307.936V385.648" stroke="#242424" stroke-width="5.54321" stroke-miterlimit="10" stroke-linecap="round" stroke-linejoin="round"/>
<path d="M555.066 385.65V541.276" stroke="#242424" stroke-width="5.54321" stroke-miterlimit="10" stroke-linecap="round" stroke-linejoin="round"/>
<path d="M555.069 385.648L420.227 307.936" stroke="#242424" stroke-width="5.54321" stroke-miterlimit="10" stroke-linecap="round" stroke-linejoin="round"/>
<path d="M420.227 418.48V307.936" stroke="#242424" stroke-width="5.54321" stroke-miterlimit="10" stroke-linecap="round" stroke-linejoin="round"/>
<path d="M555.079 541.277L454.977 483.545" stroke="#242424" stroke-width="5.54321" stroke-miterlimit="10" stroke-linecap="round" stroke-linejoin="round"/>
<path d="M1363.9 721.602L1250.05 787.266L1363.9 852.93L1477.66 787.266L1363.9 721.602Z" fill="#7188D6"/>
<path d="M1363.91 852.929V984.257L1477.66 918.593V787.265L1363.91 852.929Z" fill="#7188D6"/>
<path d="M1363.9 852.929V984.257L1250.05 918.593V787.265L1363.9 852.929Z" fill="#7188D6"/>
<path d="M1296.45 969.502L1363.92 1008.46" stroke="#242424" stroke-width="5.54321" stroke-miterlimit="10" stroke-linecap="round" stroke-linejoin="round"/>
<path d="M1498.65 775.116L1431.28 736.21M1229.07 852.929V775.116L1280.82 745.953" stroke="#242424" stroke-width="5.54321" stroke-miterlimit="10" stroke-linecap="round" stroke-linejoin="round"/>
<path d="M1363.91 852.929L1498.65 775.116V930.642L1363.91 1008.45V852.929Z" stroke="#242424" stroke-width="5.54321" stroke-miterlimit="10" stroke-linecap="round" stroke-linejoin="round"/>
<path d="M1363.91 852.929L1229.07 775.116" stroke="#242424" stroke-width="5.54321" stroke-miterlimit="10" stroke-linecap="round" stroke-linejoin="round"/>
<path d="M1363.9 254.322L1250.05 319.986L1363.9 385.65L1477.66 319.986L1363.9 254.322Z" fill="white"/>
<path d="M1363.91 385.65V516.979L1477.66 451.314V319.986L1363.91 385.65Z" fill="white"/>
<path d="M1363.9 385.65V516.979L1250.05 451.314V319.986L1363.9 385.65Z" fill="white"/>
<path d="M1498.65 307.935L1417.02 263.035M1303.13 263.036L1229.07 307.935" stroke="#242424" stroke-width="5.54321" stroke-miterlimit="10" stroke-linecap="round" stroke-linejoin="round"/>
<path d="M1498.66 418.48V307.936" stroke="#242424" stroke-width="5.54321" stroke-miterlimit="10" stroke-linecap="round" stroke-linejoin="round"/>
<path d="M1363.91 541.277L1463.91 483.545" stroke="#242424" stroke-width="5.54321" stroke-miterlimit="10" stroke-linecap="round" stroke-linejoin="round"/>
<path d="M1498.65 307.936L1363.91 385.648" stroke="#242424" stroke-width="5.54321" stroke-miterlimit="10" stroke-linecap="round" stroke-linejoin="round"/>
<path d="M1363.91 385.65V541.276" stroke="#242424" stroke-width="5.54321" stroke-miterlimit="10" stroke-linecap="round" stroke-linejoin="round"/>
<path d="M1363.91 385.648L1229.07 307.936V409.845" stroke="#242424" stroke-width="5.54321" stroke-miterlimit="10" stroke-linecap="round" stroke-linejoin="round"/>
<path d="M1307.5 418.486L1213.57 472.704" stroke="#242424" stroke-width="5.54321" stroke-miterlimit="10" stroke-linecap="round" stroke-linejoin="round" stroke-dasharray="11.09 11.09"/>
<path d="M722.652 755.838L805.385 708.146" stroke="#242424" stroke-width="5.54321" stroke-linecap="round" stroke-linejoin="round" stroke-dasharray="11.09 11.09"/>
<circle cx="715.506" cy="760.058" r="2.38509" fill="#242424"/>
<path d="M609.699 418.486L704.982 473.457" stroke="#242424" stroke-width="5.54321" stroke-miterlimit="10" stroke-linecap="round" stroke-linejoin="round" stroke-dasharray="11.09 11.09"/>
<path d="M1201.66 760.056L1108.14 706.089" stroke="#242424" stroke-width="5.54321" stroke-miterlimit="10" stroke-linecap="round" stroke-linejoin="round" stroke-dasharray="11.09 11.09"/>
<path d="M1056.38 995.006C1115.52 984.162 1173.25 963.178 1226.97 932.253L1303.28 888.276" stroke="#242424" stroke-width="4.48736" stroke-miterlimit="10" stroke-linecap="round" stroke-linejoin="round" stroke-dasharray="11.09 11.09"/>
<path d="M615.703 888.276L692.01 932.253C750.746 966.19 814.302 987.977 879.363 997.817" stroke="#242424" stroke-width="4.48736" stroke-miterlimit="10" stroke-linecap="round" stroke-linejoin="round" stroke-dasharray="11.09 11.09"/>
<path d="M879.782 239.762C829.479 247.894 780.382 263.758 734.799 287.353L727.168 291.369" stroke="#242424" stroke-width="4.48736" stroke-miterlimit="10" stroke-linecap="round" stroke-linejoin="round" stroke-dasharray="11.09 11.09"/>
<path d="M1191.82 291.269L1184.19 287.253C1138.81 263.758 1089.91 247.894 1039.91 239.762" stroke="#242424" stroke-width="4.48736" stroke-miterlimit="10" stroke-linecap="round" stroke-linejoin="round" stroke-dasharray="11.09 11.09"/>
<path d="M1363.92 631.041C1370.41 631.041 1375.67 625.782 1375.67 619.294C1375.67 612.806 1370.41 607.547 1363.92 607.547C1357.44 607.547 1352.18 612.806 1352.18 619.294C1352.18 625.782 1357.44 631.041 1363.92 631.041Z" stroke="#242424" stroke-width="4.77018" stroke-miterlimit="10" stroke-linecap="round" stroke-linejoin="round"/>
<path d="M555.052 631.041C561.54 631.041 566.799 625.782 566.799 619.294C566.799 612.806 561.54 607.547 555.052 607.547C548.564 607.547 543.305 612.806 543.305 619.294C543.305 625.782 548.564 631.041 555.052 631.041Z" stroke="#242424" stroke-width="4.77018" stroke-miterlimit="10" stroke-linecap="round" stroke-linejoin="round"/>
<path d="M1607 699.509C1596.16 714.067 1582.4 726.618 1566.14 735.955L1520.55 762.462" stroke="#242424" stroke-width="4.48736" stroke-miterlimit="10" stroke-linecap="round" stroke-linejoin="round" stroke-dasharray="11.09 11.09"/>
<path d="M1420.74 418.486L1566.12 502.625C1583.19 512.464 1597.55 525.718 1608.59 541.18" stroke="#242424" stroke-width="4.48736" stroke-miterlimit="10" stroke-linecap="round" stroke-linejoin="round" stroke-dasharray="11.09 11.09"/>
<path d="M1363.91 541.279L1271.54 487.965" stroke="#242424" stroke-width="4.77018" stroke-miterlimit="10" stroke-linecap="round" stroke-linejoin="round"/>
<path d="M689.789 418.478V307.934" stroke="#242424" stroke-width="4.77018" stroke-miterlimit="10" stroke-linecap="round" stroke-linejoin="round"/>
<path d="M555.066 541.275L655.069 483.543" stroke="#242424" stroke-width="4.77018" stroke-miterlimit="10" stroke-linecap="round" stroke-linejoin="round"/>
<path d="M311.473 699.509C322.316 714.067 336.072 726.618 352.337 735.955L397.92 762.462" stroke="#242424" stroke-width="4.48736" stroke-miterlimit="10" stroke-linecap="round" stroke-linejoin="round" stroke-dasharray="11.09 11.09"/>
<path d="M497.719 418.486L352.334 502.625C335.265 512.464 320.908 525.718 309.863 541.18" stroke="#242424" stroke-width="4.48736" stroke-miterlimit="10" stroke-linecap="round" stroke-linejoin="round" stroke-dasharray="11.09 11.09"/>
<path d="M959.479 182.93L915.703 208.131L959.479 233.332L1003.15 208.131L959.479 182.93Z" fill="white"/>
<path d="M959.473 233.33V283.733L1003.15 258.532V208.129L959.473 233.33Z" fill="white"/>
<path d="M959.479 233.33V283.733L915.703 258.532V208.129L959.479 233.33Z" fill="white"/>
<path d="M959.476 300.101L1017.31 266.667V199.999L959.476 166.564L901.543 199.999" stroke="#242424" stroke-width="5.54321" stroke-miterlimit="10" stroke-linecap="round" stroke-linejoin="round"/>
<path d="M1017.31 200L959.473 233.334" stroke="#242424" stroke-width="5.54321" stroke-miterlimit="10" stroke-linecap="round" stroke-linejoin="round"/>
<path d="M959.473 233.336V300.104" stroke="#242424" stroke-width="5.54321" stroke-miterlimit="10" stroke-linecap="round" stroke-linejoin="round"/>
<path d="M959.476 233.334L901.543 200" stroke="#242424" stroke-width="5.54321" stroke-miterlimit="10" stroke-linecap="round" stroke-linejoin="round"/>
<path d="M959.476 300.103L901.543 266.668V200" stroke="#242424" stroke-width="5.54321" stroke-miterlimit="10" stroke-linecap="round" stroke-linejoin="round"/>
<path d="M1643.12 567.68L1599.34 592.881L1643.12 618.082L1686.8 592.881L1643.12 567.68Z" fill="white"/>
<path d="M1643.16 618.081V668.484L1686.83 643.283V592.88L1643.16 618.081Z" fill="white"/>
<path d="M1643.12 618.081V668.484L1599.34 643.283V592.88L1643.12 618.081Z" fill="white"/>
<path d="M1643.14 684.852L1700.97 651.518V584.75L1643.14 551.315L1585.3 584.75" stroke="#242424" stroke-width="5.54321" stroke-miterlimit="10" stroke-linecap="round" stroke-linejoin="round"/>
<path d="M1700.99 584.751L1643.16 618.085" stroke="#242424" stroke-width="5.54321" stroke-miterlimit="10" stroke-linecap="round" stroke-linejoin="round"/>
<path d="M1643.16 618.088V684.856" stroke="#242424" stroke-width="5.54321" stroke-miterlimit="10" stroke-linecap="round" stroke-linejoin="round"/>
<path d="M1643.14 618.085L1585.3 584.751" stroke="#242424" stroke-width="5.54321" stroke-miterlimit="10" stroke-linecap="round" stroke-linejoin="round"/>
<path d="M1643.14 684.854L1585.3 651.519V584.751" stroke="#242424" stroke-width="5.54321" stroke-miterlimit="10" stroke-linecap="round" stroke-linejoin="round"/>
<path d="M959.479 947.01L915.703 972.211L959.479 997.412L1003.15 972.211L959.479 947.01Z" fill="white"/>
<path d="M959.473 997.411V1047.91L1003.15 1022.61V972.21L959.473 997.411Z" fill="white"/>
<path d="M959.479 997.411V1047.91L915.703 1022.61V972.21L959.479 997.411Z" fill="white"/>
<path d="M959.476 1064.18L1017.31 1030.85V964.08L959.476 930.646L901.543 964.08" stroke="#242424" stroke-width="5.54321" stroke-miterlimit="10" stroke-linecap="round" stroke-linejoin="round"/>
<path d="M1017.31 964.081L959.473 997.415" stroke="#242424" stroke-width="5.54321" stroke-miterlimit="10" stroke-linecap="round" stroke-linejoin="round"/>
<path d="M959.473 997.418V1064.19" stroke="#242424" stroke-width="5.54321" stroke-miterlimit="10" stroke-linecap="round" stroke-linejoin="round"/>
<path d="M959.476 997.415L901.543 964.081" stroke="#242424" stroke-width="5.54321" stroke-miterlimit="10" stroke-linecap="round" stroke-linejoin="round"/>
<path d="M959.476 1064.18L901.543 1030.85V964.081" stroke="#242424" stroke-width="5.54321" stroke-miterlimit="10" stroke-linecap="round" stroke-linejoin="round"/>
<path d="M275.726 567.681L232.051 592.882L275.726 618.083L319.502 592.882L275.726 567.681Z" fill="white"/>
<path d="M275.738 618.081V668.484L319.514 643.283V592.88L275.738 618.081Z" fill="white"/>
<path d="M275.726 618.081V668.484L232.051 643.283V592.88L275.726 618.081Z" fill="white"/>
<path d="M275.723 684.852L333.656 651.518V584.75L275.723 551.315L217.891 584.75" stroke="#242424" stroke-width="5.54321" stroke-miterlimit="10" stroke-linecap="round" stroke-linejoin="round"/>
<path d="M333.671 584.751L275.738 618.085" stroke="#242424" stroke-width="5.54321" stroke-miterlimit="10" stroke-linecap="round" stroke-linejoin="round"/>
<path d="M275.738 618.088V684.856" stroke="#242424" stroke-width="5.54321" stroke-miterlimit="10" stroke-linecap="round" stroke-linejoin="round"/>
<path d="M275.723 618.085L217.891 584.751" stroke="#242424" stroke-width="5.54321" stroke-miterlimit="10" stroke-linecap="round" stroke-linejoin="round"/>
<path d="M275.723 684.854L217.891 651.519V584.751" stroke="#242424" stroke-width="5.54321" stroke-miterlimit="10" stroke-linecap="round" stroke-linejoin="round"/>
<path d="M479.996 874.587C480.096 874.587 480.297 874.487 480.397 874.587L482.807 874.486L484.916 874.386L487.325 874.285L489.334 874.185L491.743 874.084L493.751 873.984L496.161 873.885L497.868 873.784C497.968 873.784 497.968 873.784 498.069 873.784C498.069 873.784 498.069 873.784 498.069 873.885C498.069 873.985 498.069 874.085 498.069 874.185C498.069 882.117 498.069 890.049 498.069 897.981C498.069 898.081 498.069 898.182 498.069 898.282C497.567 897.579 496.964 896.877 496.462 896.174L482.506 877.9L479.996 874.587Z" fill="#242424"/>
<path d="M498.074 898.175V873.878C498.074 873.778 498.074 873.778 498.074 873.677C498.074 873.577 498.074 873.476 498.074 873.476C498.074 864.339 498.074 855.102 498.074 845.966C498.074 845.865 498.074 845.664 498.175 845.664C498.576 846.668 498.978 847.773 499.38 848.777L516.147 893.758C516.147 893.858 516.247 893.958 516.247 894.058C516.147 894.058 516.147 893.959 516.047 893.858L514.641 892.352L511.93 889.239L509.219 886.228C508.315 885.224 507.412 884.119 506.508 883.114L503.898 880.103L501.187 876.99L498.576 873.977L498.476 873.878C498.376 873.778 498.375 873.778 498.375 873.878C498.375 873.979 498.375 873.977 498.375 874.078C498.375 881.909 498.375 889.842 498.375 897.674C498.175 897.875 498.074 898.075 498.074 898.175Z" fill="#242424"/>
<path d="M498.074 898.078C498.074 896.17 498.074 894.163 498.074 892.255C498.074 886.13 498.074 880.105 498.074 873.981C498.074 873.68 498.074 873.68 498.275 873.981L501.387 877.496C502.09 878.299 502.793 879.102 503.496 879.805L506.508 883.218L508.215 885.127L510.625 887.937L512.331 889.845L514.741 892.556L516.047 894.062C516.047 894.062 516.046 894.062 516.147 894.162C516.147 894.262 516.047 894.263 516.047 894.263L507.01 896.271L498.375 898.178C498.275 898.178 498.175 898.178 498.074 898.078Z" fill="#242424"/>
<path d="M498.075 905.31L501.891 904.507L512.634 902.098L516.048 901.396H516.148C516.148 901.496 516.148 901.496 516.048 901.496C510.124 909.127 504.1 916.756 498.176 924.387C498.176 924.387 498.176 924.488 498.075 924.488C498.075 924.387 498.075 924.287 498.075 924.186C498.075 918.062 498.075 911.837 498.075 905.712C497.975 905.411 497.975 905.31 498.075 905.31Z" fill="#242424"/>
<path d="M498.069 905.309C498.069 905.409 498.069 905.51 498.069 905.61C498.069 911.835 498.069 917.96 498.069 924.185C498.069 924.285 498.069 924.386 498.069 924.486C497.767 923.984 497.567 923.381 497.366 922.879C495.257 918.06 493.249 913.141 491.141 908.321L485.016 893.763L480.096 882.116L479.996 881.814C480.096 881.915 480.197 882.016 480.197 882.116L490.84 895.972L497.968 905.209C497.968 905.209 498.069 905.208 498.069 905.309Z" fill="#242424"/>
<path d="M498.08 845.664C498.08 845.664 498.08 845.765 498.08 845.865C498.08 855.102 498.08 864.239 498.08 873.476C498.08 873.577 498.08 873.677 498.08 873.677C498.08 873.577 497.979 873.577 498.08 873.476C498.08 873.376 498.08 873.376 498.08 873.275C498.08 864.239 498.08 855.102 498.08 846.066C498.08 845.865 498.08 845.764 498.08 845.664Z" fill="white"/>
<path d="M498.09 845.565C498.09 854.903 498.19 864.341 498.19 873.679V873.779C497.387 873.779 496.383 873.78 495.579 873.88C494.676 873.88 493.772 873.979 492.869 873.979L488.25 874.18L485.037 874.381L480.218 874.582C480.218 874.582 480.218 874.582 480.117 874.582C480.418 874.181 480.619 873.679 480.921 873.277L487.848 862.233L496.684 848.076L498.09 845.565Z" fill="#242424"/>
<path d="M835.211 656.189C835.311 656.189 835.512 656.088 835.612 656.189L838.022 656.088L840.131 655.988L842.54 655.887L844.548 655.787L846.958 655.686L848.966 655.586L851.376 655.486L853.083 655.386C853.183 655.386 853.183 655.386 853.283 655.386C853.283 655.386 853.283 655.386 853.283 655.486C853.283 655.587 853.283 655.686 853.283 655.787C853.283 663.718 853.283 671.65 853.283 679.582C853.283 679.683 853.283 679.783 853.283 679.884C852.781 679.181 852.179 678.478 851.677 677.776L837.721 659.501L835.211 656.189Z" fill="#242424"/>
<path d="M853.289 679.777V655.48C853.289 655.379 853.289 655.379 853.289 655.279C853.289 655.178 853.289 655.078 853.289 655.078C853.289 645.941 853.289 636.704 853.289 627.567C853.289 627.467 853.289 627.266 853.39 627.266C853.791 628.27 854.193 629.375 854.594 630.379L871.362 675.359C871.362 675.46 871.462 675.559 871.462 675.66C871.362 675.66 871.362 675.56 871.261 675.46L869.856 673.954L867.145 670.841L864.434 667.829C863.53 666.825 862.627 665.72 861.723 664.716L859.112 661.705L856.402 658.592L853.791 655.579L853.691 655.48C853.59 655.379 853.59 655.379 853.59 655.48C853.59 655.58 853.59 655.579 853.59 655.679C853.59 663.511 853.59 671.444 853.59 679.275C853.389 679.476 853.289 679.676 853.289 679.777Z" fill="#242424"/>
<path d="M853.289 679.68C853.289 677.772 853.289 675.764 853.289 673.857C853.289 667.732 853.289 661.707 853.289 655.582C853.289 655.281 853.289 655.281 853.49 655.582L856.602 659.097C857.305 659.901 858.008 660.704 858.711 661.407L861.723 664.82L863.43 666.728L865.84 669.539L867.546 671.447L869.956 674.158L871.261 675.663C871.261 675.663 871.261 675.663 871.362 675.764C871.362 675.864 871.261 675.864 871.261 675.864L862.225 677.873L853.59 679.78C853.49 679.78 853.389 679.78 853.289 679.68Z" fill="#242424"/>
<path d="M853.29 686.912L857.106 686.109L867.849 683.699L871.263 682.997H871.363C871.363 683.097 871.363 683.098 871.263 683.098C865.339 690.728 859.314 698.358 853.391 705.989C853.391 705.989 853.391 706.089 853.29 706.089C853.29 705.989 853.29 705.888 853.29 705.788C853.29 699.663 853.29 693.438 853.29 687.314C853.19 687.013 853.19 686.912 853.29 686.912Z" fill="#242424"/>
<path d="M853.283 686.91C853.283 687.011 853.283 687.111 853.283 687.212C853.283 693.437 853.283 699.561 853.283 705.786C853.283 705.887 853.283 705.987 853.283 706.088C852.982 705.586 852.781 704.983 852.581 704.481C850.472 699.661 848.464 694.742 846.356 689.923L840.231 675.365L835.311 663.718L835.211 663.416C835.311 663.516 835.412 663.617 835.412 663.718L846.054 677.573L853.183 686.811C853.183 686.811 853.283 686.81 853.283 686.91Z" fill="#242424"/>
<path d="M853.295 627.266C853.295 627.266 853.295 627.366 853.295 627.467C853.295 636.704 853.295 645.841 853.295 655.078C853.295 655.178 853.295 655.279 853.295 655.279C853.295 655.178 853.194 655.178 853.295 655.078C853.295 654.977 853.295 654.977 853.295 654.877C853.295 645.84 853.295 636.704 853.295 627.668C853.295 627.467 853.295 627.366 853.295 627.266Z" fill="white"/>
<path d="M853.304 627.167C853.304 636.505 853.405 645.943 853.405 655.281V655.381C852.602 655.381 851.598 655.381 850.794 655.482C849.891 655.482 848.987 655.581 848.084 655.581L843.465 655.782L840.252 655.983L835.433 656.184C835.433 656.184 835.432 656.184 835.332 656.184C835.633 655.782 835.834 655.28 836.135 654.879L843.063 643.834L851.899 629.677L853.304 627.167Z" fill="#242424"/>
<path d="M1438.82 863.476C1438.42 856.649 1433.3 857.553 1426.88 861.067L1427.08 851.026L1422.06 854.34L1421.86 864.079C1420.55 864.982 1419.24 865.886 1417.84 866.79L1418.04 856.95L1413.02 860.263L1412.82 870.304C1411.71 871.007 1410.71 871.71 1409.61 872.412L1402.68 876.93L1402.58 883.457C1402.58 883.457 1406.29 880.947 1406.19 881.047C1408.2 879.742 1408.8 880.746 1409 881.85L1408.8 893.296C1408.9 893.196 1409.1 893.096 1409.3 892.995C1409.1 893.096 1409 893.196 1408.8 893.296L1408.5 909.361C1408.4 910.164 1408 911.67 1406.59 912.574C1406.69 912.574 1402.98 914.984 1402.98 914.984L1401.88 922.915L1408.4 918.698C1409.61 917.895 1410.81 917.192 1412.02 916.389L1411.81 926.53L1416.84 923.217L1417.04 913.176C1418.44 912.273 1419.75 911.469 1421.05 910.566L1420.85 920.606L1425.87 917.293L1426.07 907.152C1434.51 901.027 1440.43 894.602 1441.33 884.461C1442.04 876.328 1439.12 874.822 1434.41 876.529C1437.32 872.914 1439.12 868.497 1438.82 863.476ZM1431.39 889.782C1431.29 897.413 1420.65 903.437 1417.24 905.646L1417.54 892.192C1420.95 889.983 1431.59 881.85 1431.39 889.782ZM1429.49 872.312C1429.39 879.24 1420.55 884.26 1417.64 886.067L1417.84 873.818C1420.75 872.011 1429.59 865.083 1429.49 872.312Z" fill="#242424"/>
<path d="M1086.62 643.492C1086.22 636.665 1081.1 637.568 1074.67 641.082L1074.87 631.042L1069.85 634.355L1069.65 644.094C1068.35 644.998 1067.04 645.902 1065.64 646.805L1065.84 636.966L1060.82 640.279L1060.62 650.319C1059.51 651.022 1058.51 651.725 1057.4 652.428L1050.47 656.946L1050.37 663.472C1050.37 663.472 1054.09 660.962 1053.99 661.063C1056 659.757 1056.6 660.762 1056.8 661.866L1056.6 673.312C1056.7 673.212 1056.9 673.111 1057.1 673.011C1056.9 673.111 1056.8 673.212 1056.6 673.312L1056.3 689.377C1056.2 690.18 1055.8 691.686 1054.39 692.589C1054.49 692.589 1050.78 694.999 1050.78 694.999L1049.67 702.931L1056.2 698.714C1057.4 697.911 1058.61 697.208 1059.81 696.405L1059.61 706.546L1064.63 703.232L1064.83 693.192C1066.24 692.288 1067.54 691.485 1068.85 690.581L1068.65 700.622L1073.67 697.308L1073.87 687.168C1082.3 681.043 1088.23 674.617 1089.13 664.476C1089.83 656.344 1086.92 654.838 1082.2 656.545C1085.11 652.93 1086.92 648.512 1086.62 643.492ZM1079.19 669.798C1079.09 677.429 1068.45 683.453 1065.03 685.662L1065.33 672.208C1068.75 669.999 1079.39 661.866 1079.19 669.798ZM1077.28 652.328C1077.18 659.255 1068.35 664.276 1065.44 666.083L1065.64 653.834C1068.55 652.026 1077.38 645.098 1077.28 652.328Z" fill="#242424"/>
<path d="M998.065 426.557C996.773 411.825 983.158 407.129 965.963 406.132L966.257 385.648L952.875 385.942L952.581 405.897C949.06 405.956 945.48 406.132 941.899 406.249L942.192 386.176L928.811 386.47L928.517 406.954C925.641 407.071 922.765 407.189 920.007 407.247L901.577 407.6L901.401 420.923C901.401 420.923 911.262 420.512 911.085 420.688C916.485 420.57 918.246 423.446 918.715 425.97L918.363 449.33C918.715 449.33 919.244 449.33 919.771 449.33C919.302 449.33 918.833 449.33 918.363 449.33L917.894 482.022C917.659 483.607 916.603 486.189 912.787 486.248C912.963 486.365 903.044 486.424 903.044 486.424L900.168 501.391L917.541 501.038C920.769 500.98 923.939 500.98 927.108 500.921L926.815 521.64L940.138 521.346L940.431 500.804C944.071 500.804 947.65 500.804 951.114 500.686L950.82 521.111L964.203 520.818L964.496 500.099C986.972 498.397 1002.77 492.763 1005.06 473.042C1006.87 457.136 999.007 450.269 986.272 447.686C994.08 443.813 999.007 437.24 998.065 426.439V426.557ZM978.698 471.281C978.464 486.776 950.116 485.602 941.018 485.837L941.429 458.369C950.469 458.193 978.931 455.141 978.698 471.281ZM973.062 432.661C972.828 446.747 949.177 445.632 941.605 445.809L941.958 420.923C949.529 420.747 973.241 417.988 973.008 432.72L973.062 432.661Z" fill="#242424"/>
<path d="M599.104 195.168H502.784C499.886 195.168 497.217 196.388 495.31 198.294C493.403 200.201 492.184 202.87 492.184 205.768V289.504C492.184 292.402 493.403 295.072 495.31 296.978C497.217 298.885 499.886 300.105 502.784 300.105H599.104C602.002 300.105 604.671 298.885 606.578 296.978C608.484 295.072 609.704 292.402 609.704 289.504V205.768C609.704 202.87 608.484 200.201 606.578 198.294C604.671 196.388 602.002 195.168 599.104 195.168Z" stroke="#242424" stroke-width="6" stroke-linecap="round" stroke-linejoin="round"/>
<path d="M594.454 286.988C595.674 286.988 596.665 285.995 596.665 284.776V282.869C596.665 280.81 596.665 280.428 595.75 279.361L566.313 242.908C565.703 242.145 564.711 241.611 563.72 241.611C562.728 241.611 561.737 241.993 561.05 242.755L543.282 261.668L535.274 254.881L535.046 254.728C534.435 254.194 533.596 253.965 532.758 254.042C531.918 254.042 531.155 254.424 530.546 254.957L530.393 255.109L505.761 280.81C505.227 281.344 505.227 281.268 505.227 282.183V284.851C505.227 286.072 506.218 287.064 507.439 287.064H594.377L594.454 286.988Z" fill="#242424"/>
<path d="M533.824 215.683C531.612 213.472 528.562 212.1 525.13 212.1C521.699 212.1 518.724 213.472 516.436 215.683C514.148 217.895 512.852 220.946 512.852 224.378C512.852 227.81 514.225 230.86 516.436 233.071C518.648 235.283 521.699 236.656 525.13 236.656C528.562 236.656 531.612 235.283 533.824 233.071C536.035 230.86 537.409 227.81 537.409 224.378C537.409 220.946 536.035 217.895 533.824 215.683Z" fill="#03FC9D" stroke="#242424" stroke-width="6" stroke-linecap="round" stroke-linejoin="round"/>
<path d="M1404.16 215.608V236.217C1404.16 266.686 1386.23 293.358 1359.64 307.582C1332.97 293.358 1315.11 266.686 1315.11 236.217V215.527C1315.11 215.527 1323.19 215.042 1336.28 210.597C1349.37 206.152 1359.64 201.141 1359.64 201.141C1359.64 201.141 1369.82 206.152 1382.99 210.597C1396.08 215.042 1404.16 215.527 1404.16 215.527V215.608Z" fill="#03FC9D"/>
<path d="M1309.29 233.873V210.516C1309.29 210.516 1318.42 210.03 1333.2 204.939C1348 199.929 1359.55 194.189 1359.55 194.189C1359.55 194.189 1371.11 199.847 1385.9 204.939C1400.69 209.95 1409.82 210.516 1409.82 210.516V233.873C1409.82 268.302 1389.62 298.367 1359.48 314.451" stroke="#242424" stroke-width="5" stroke-linecap="round" stroke-linejoin="round"/>
<path d="M1363.03 257.637L1380.16 237.432C1380.89 236.542 1380.96 235.33 1380.25 234.441C1379.43 233.309 1377.81 233.149 1376.69 234.037L1360.28 247.938C1360.28 247.938 1359.47 248.262 1359.22 247.938L1351.23 242.928C1350.09 242.2 1348.56 242.362 1347.58 243.332C1346.46 244.463 1346.46 246.241 1347.51 247.373L1356.64 257.718C1358.34 259.657 1361.33 259.577 1363.03 257.718V257.637Z" fill="white"/>
<path d="M1369.57 233.065C1366.51 231.045 1362.87 229.914 1358.99 229.914C1348.33 229.914 1339.68 238.561 1339.68 249.23C1339.68 259.898 1348.33 268.546 1358.99 268.546C1369.66 268.546 1378.38 259.898 1378.38 249.23C1378.38 248.664 1378.38 248.098 1378.38 247.614" stroke="#242424" stroke-width="4.50788" stroke-linecap="round" stroke-linejoin="round"/>
<path d="M1379.12 698.256L1399.12 691.001L1395.76 681.227L1346.97 698.256H1379.03H1379.12Z" fill="#242424"/>
<path d="M1401.95 698.715L1394.93 678.173C1394.32 676.417 1393.1 675.042 1391.49 674.279C1389.89 673.439 1387.99 673.362 1386.3 673.973L1302.37 702.533C1298.79 703.756 1296.88 707.65 1298.1 711.24L1305.58 732.164" stroke="#242424" stroke-width="5.5" stroke-linecap="round" stroke-linejoin="round"/>
<path d="M618.609 699.526C618.072 685.116 606.078 672.227 592.833 671.243C578.869 670.348 564.907 669.9 550.944 669.9C536.982 669.9 523.02 670.348 509.057 671.243C495.722 672.227 483.818 685.116 483.28 699.526C483.102 705.165 483.012 710.803 483.012 716.442C483.012 722.081 483.102 727.719 483.28 733.358C483.818 747.768 495.811 760.657 509.057 761.641C523.02 762.536 536.982 762.984 550.944 762.984C564.907 762.984 578.869 762.536 592.833 761.641C606.168 760.657 618.072 747.768 618.609 733.358C618.788 727.719 618.877 722.081 618.877 716.442C618.877 710.803 618.788 705.165 618.609 699.526Z" fill="#E6E8EA" stroke="#242424" stroke-width="4.99216" stroke-linecap="round" stroke-linejoin="round"/>
<path d="M569.471 719.215L541.098 735.593C539.04 736.758 536.445 735.325 536.445 732.91V700.061C536.445 697.645 539.04 696.212 541.098 697.377L569.471 713.755C571.53 714.919 571.53 717.873 569.471 719.125V719.215Z" fill="#03FC9D" stroke="#242424" stroke-width="4.99216" stroke-linecap="round" stroke-linejoin="round"/>
<path d="M1413.56 697.309H1319.84C1315.87 697.309 1312.57 700.537 1312.57 704.574L1312.97 728.387L1313.29 728.951C1303.53 731.776 1296.35 740.656 1296.35 751.311C1296.35 764.145 1306.84 774.639 1319.68 774.639C1326.61 774.639 1332.83 771.491 1337.1 766.647L1337.51 767.293H1413.47C1417.43 767.293 1420.74 764.065 1420.74 760.029V704.574C1420.74 700.619 1417.51 697.309 1413.47 697.309H1413.56Z" fill="#E6E8EA"/>
<path d="M1402.09 712.969H1391.28C1389.66 712.969 1388.29 714.341 1388.29 715.956V722.01C1388.29 723.624 1389.66 724.996 1391.28 724.996H1402.09C1403.71 724.996 1405.08 723.624 1405.08 722.01V715.956C1405.08 714.341 1403.71 712.969 1402.09 712.969Z" fill="#242424"/>
<path d="M1349.3 751.229H1361C1362.62 751.229 1363.91 749.938 1363.91 748.324C1363.91 746.709 1362.62 745.417 1361 745.417H1349.3C1347.68 745.417 1346.4 746.709 1346.4 748.324C1346.4 749.938 1347.68 751.229 1349.3 751.229Z" fill="#242424"/>
<path d="M1384.17 751.229C1385.79 751.229 1387.08 749.938 1387.08 748.324C1387.08 746.709 1385.79 745.417 1384.17 745.417H1372.47C1370.85 745.417 1369.55 746.709 1369.55 748.324C1369.55 749.938 1370.85 751.229 1372.47 751.229H1384.17Z" fill="#242424"/>
<path d="M1407.26 745.417H1395.55C1393.94 745.417 1392.64 746.709 1392.64 748.324C1392.64 749.938 1393.94 751.229 1395.55 751.229H1407.26C1408.88 751.229 1410.16 749.938 1410.16 748.324C1410.16 746.709 1408.88 745.417 1407.26 745.417Z" fill="#242424"/>
<path d="M1319.75 774.558C1306.92 774.558 1296.43 764.066 1296.43 751.23C1296.43 738.396 1306.92 727.902 1319.75 727.902C1332.59 727.902 1343.08 738.396 1343.08 751.23C1343.08 764.066 1332.59 774.558 1319.75 774.558Z" stroke="#242424" stroke-width="4.25939" stroke-linecap="round" stroke-linejoin="round"/>
<path d="M1334.61 747.195C1334.2 746.065 1333.32 745.258 1332.11 745.097L1325.49 744.128L1322.5 738.155C1322.02 737.105 1320.97 736.459 1319.75 736.459C1318.54 736.459 1317.49 737.105 1317.01 738.155L1314.02 744.128L1307.41 745.097C1306.27 745.258 1305.31 746.065 1304.9 747.195C1304.49 748.325 1304.9 749.536 1305.7 750.344L1310.56 755.025L1309.42 761.643C1309.26 762.774 1309.67 763.985 1310.63 764.63C1311.6 765.357 1312.81 765.438 1313.86 764.872L1319.84 761.725L1325.81 764.872C1326.29 765.116 1326.77 765.196 1327.27 765.196C1327.91 765.196 1328.55 765.034 1329.03 764.63C1330.01 763.905 1330.49 762.774 1330.25 761.643L1329.12 755.025L1333.96 750.344C1334.77 749.536 1335.09 748.325 1334.77 747.195H1334.61Z" fill="#242424"/>
</svg>
