<svg width="120" height="60" viewBox="0 0 120 60" fill="none" xmlns="http://www.w3.org/2000/svg">
<path d="M91.0301 28.5159C90.6253 28.5159 90.3883 28.0599 90.6209 27.7286L99.8966 14.5161C100.018 14.3428 100.018 14.1117 99.8949 13.9391L90.577 0.832187C90.3417 0.501141 90.5784 0.0424805 90.9846 0.0424805H97.9235C98.0833 0.0424805 98.2335 0.118917 98.3277 0.24814L105.651 10.3038C105.891 10.6342 105.655 11.0981 105.246 11.0981H104.232C103.816 11.0981 103.582 10.6211 103.836 10.2925L111.603 0.23684C111.697 0.114261 111.844 0.0424805 111.999 0.0424805H118.458C118.864 0.0424805 119.101 0.501142 118.866 0.832188L109.547 13.9399C109.425 14.1121 109.424 14.3427 109.545 14.5159L118.773 27.7296C119.004 28.0611 118.767 28.5159 118.363 28.5159H111.479C111.312 28.5159 111.157 28.4327 111.064 28.2942L104.316 18.22C104.099 17.8957 104.331 17.4603 104.721 17.4603C105.112 17.4603 105.344 17.8957 105.127 18.22L98.3789 28.2942C98.2861 28.4327 98.1303 28.5159 97.9635 28.5159H91.0301Z" fill="#D6FE7A"/>
<path d="M15.2354 5.7207C17.3417 -1.32437 28.3962 -2.61279 30.0811 6.12793V9.11719H30.0938V20.8623C30.0937 23.1362 32.6557 22.7995 33.1572 20.8623L38.8428 5.76953C41.405 -2.85957 53.5559 -0.869766 54.0781 5.99805V27.542C54.0781 27.8893 53.9489 28.0624 53.5566 28.0625H48.2207C47.9195 28.0626 47.7656 27.7754 47.7656 27.542V8.81348C47.8751 6.36558 45.0718 5.99872 44.4434 7.92383L38.1084 23.9697C36.5424 30.0446 24.2531 31.2228 23.9971 22.417V19.4277H23.9844V7.68262C23.8539 5.93093 21.4394 5.97954 20.9209 7.68262L15.2354 22.7754C12.6731 31.4045 0.522317 29.4146 0 22.5469V1.00293C0 0.65561 0.129272 0.482528 0.521484 0.482422H5.85742C6.1586 0.482304 6.3125 0.769552 6.3125 1.00293V19.7314C6.3127 22.2286 8.54125 22.5462 9.63477 20.6211L15.2354 5.7207Z" fill="#D6FE7A"/>
<path d="M74.6167 0.032959C82.4869 0.032959 88.8674 6.41277 88.8677 14.283C88.8677 22.1534 82.4871 28.5339 74.6167 28.5339C66.7464 28.5338 60.3667 22.1533 60.3667 14.283C60.367 6.41284 66.7465 0.0330656 74.6167 0.032959ZM74.6226 6.15796C70.139 6.15796 66.5044 9.79252 66.5044 14.2761C66.5044 18.7597 70.139 22.3943 74.6226 22.3943C79.106 22.3941 82.7407 18.7596 82.7407 14.2761C82.7407 9.79261 79.106 6.15811 74.6226 6.15796Z" fill="#D6FE7A"/>
<path d="M0.000488281 58.7886V37.622H2.1574V41.0731L1.8123 40.4691C2.42582 39.4913 3.24066 38.7148 4.2568 38.1397C5.29212 37.5645 6.47124 37.2769 7.79415 37.2769C9.25126 37.2769 10.5454 37.6316 11.6766 38.341C12.827 39.0312 13.7281 39.9802 14.3799 41.1881C15.051 42.396 15.3865 43.7764 15.3865 45.3294C15.3865 46.8632 15.051 48.2436 14.3799 49.4707C13.7281 50.6785 12.827 51.6372 11.6766 52.3466C10.5454 53.0368 9.25126 53.3819 7.79415 53.3819C6.47124 53.3819 5.27295 53.0847 4.19929 52.4904C3.14479 51.8768 2.34913 51.0141 1.8123 49.9021L2.1574 49.5857V58.7886H0.000488281ZM7.67911 51.225C8.71443 51.225 9.63472 50.9661 10.44 50.4485C11.2644 49.9308 11.9067 49.231 12.3668 48.3491C12.8461 47.448 13.0858 46.4414 13.0858 45.3294C13.0858 44.1982 12.8461 43.1916 12.3668 42.3097C11.9067 41.4278 11.2644 40.728 10.44 40.2103C9.63472 39.6927 8.71443 39.4338 7.67911 39.4338C6.64379 39.4338 5.70433 39.6927 4.86074 40.2103C4.03632 40.728 3.37486 41.4374 2.87638 42.3385C2.39706 43.2204 2.1574 44.2174 2.1574 45.3294C2.1574 46.4414 2.39706 47.448 2.87638 48.3491C3.37486 49.231 4.03632 49.9308 4.86074 50.4485C5.70433 50.9661 6.64379 51.225 7.67911 51.225Z" fill="white"/>
<path d="M23.6401 53.3819C22.6623 53.3819 21.7899 53.1997 21.023 52.8355C20.2561 52.452 19.6522 51.9344 19.2112 51.2825C18.7702 50.6306 18.5497 49.8829 18.5497 49.0393C18.5497 48.234 18.7223 47.5055 19.0674 46.8536C19.4125 46.1826 19.9493 45.617 20.6779 45.1568C21.4065 44.6967 22.3363 44.3708 23.4675 44.179L29.5069 43.1725V45.1281L23.9852 46.0484C22.8732 46.2401 22.0679 46.5948 21.5694 47.1124C21.0901 47.6301 20.8505 48.2436 20.8505 48.953C20.8505 49.6432 21.1189 50.228 21.6557 50.7073C22.2117 51.1866 22.9211 51.4263 23.7839 51.4263C24.8384 51.4263 25.7586 51.2058 26.5447 50.7648C27.3308 50.3047 27.9443 49.6912 28.3853 48.9243C28.8263 48.1574 29.0467 47.3042 29.0467 46.3647V42.4535C29.0467 41.5332 28.7112 40.7855 28.0402 40.2103C27.3691 39.6351 26.4968 39.3475 25.4231 39.3475C24.4837 39.3475 23.6592 39.5872 22.9499 40.0665C22.2405 40.5267 21.7132 41.1306 21.3681 41.8783L19.4125 40.8142C19.7001 40.1624 20.1507 39.568 20.7642 39.0312C21.3969 38.4944 22.1158 38.0726 22.9211 37.7658C23.7263 37.4399 24.5604 37.2769 25.4231 37.2769C26.5543 37.2769 27.5513 37.4974 28.414 37.9384C29.296 38.3793 29.9766 38.9929 30.4559 39.7789C30.9544 40.5458 31.2037 41.4374 31.2037 42.4535V53.0368H29.0467V49.9596L29.3631 50.2759C29.0947 50.8511 28.6729 51.3783 28.0977 51.8577C27.5417 52.3178 26.8802 52.6917 26.1133 52.9793C25.3656 53.2477 24.5412 53.3819 23.6401 53.3819Z" fill="white"/>
<path d="M35.9565 59.3637C35.6498 59.3637 35.3334 59.335 35.0075 59.2775C34.7007 59.2391 34.394 59.1624 34.0872 59.0474V57.0343C34.2789 57.0534 34.5186 57.0822 34.8062 57.1205C35.1129 57.1781 35.4197 57.2068 35.7264 57.2068C36.6659 57.2068 37.3849 57.0055 37.8834 56.6029C38.3818 56.2194 38.8707 55.4717 39.3501 54.3597L40.3279 52.059L40.2703 53.9571L33.7421 37.622H36.0716L41.4207 51.1099H40.8168L46.1372 37.622H48.5242L41.4782 54.9924C41.1715 55.7401 40.7784 56.4495 40.2991 57.1205C39.839 57.7916 39.2542 58.3284 38.5448 58.731C37.8354 59.1528 36.9727 59.3637 35.9565 59.3637Z" fill="white"/>
<path d="M51.0588 53.0368V37.622H53.2157V40.5554L52.8706 40.124C53.2924 39.2229 53.9155 38.5231 54.7399 38.0246C55.5835 37.5261 56.5038 37.2769 57.5007 37.2769C58.6894 37.2769 59.7631 37.6124 60.7217 38.2835C61.6804 38.9545 62.361 39.8269 62.7636 40.9005L62.1597 40.9293C62.5431 39.7406 63.2046 38.8395 64.144 38.2259C65.1027 37.5933 66.1572 37.2769 67.3075 37.2769C68.3428 37.2769 69.2919 37.5261 70.1547 38.0246C71.0366 38.5231 71.7364 39.2133 72.2541 40.0953C72.7909 40.958 73.0593 41.9358 73.0593 43.0287V53.0368H70.9024V43.8627C70.9024 42.9232 70.7298 42.1276 70.3847 41.4757C70.0588 40.8238 69.6082 40.3253 69.0331 39.9802C68.4579 39.616 67.7964 39.4338 67.0487 39.4338C66.3201 39.4338 65.6587 39.616 65.0643 39.9802C64.47 40.3253 64.0003 40.8334 63.6551 41.5045C63.31 42.1563 63.1375 42.9424 63.1375 43.8627V53.0368H60.9806V43.8627C60.9806 42.9232 60.808 42.1276 60.4629 41.4757C60.137 40.8238 59.6864 40.3253 59.1112 39.9802C58.5361 39.616 57.8746 39.4338 57.1269 39.4338C56.3791 39.4338 55.7081 39.616 55.1138 39.9802C54.5386 40.3253 54.0784 40.8334 53.7333 41.5045C53.3882 42.1563 53.2157 42.9424 53.2157 43.8627V53.0368H51.0588Z" fill="white"/>
<path d="M84.1948 53.3819C82.7569 53.3819 81.4531 53.0368 80.2836 52.3466C79.1333 51.6372 78.2226 50.669 77.5515 49.4419C76.8805 48.2149 76.545 46.8249 76.545 45.2719C76.545 43.7189 76.8709 42.3481 77.5228 41.1594C78.1746 39.9515 79.0566 39.0024 80.1686 38.3122C81.2998 37.622 82.5652 37.2769 83.9648 37.2769C85.0768 37.2769 86.0642 37.4878 86.9269 37.9096C87.8089 38.3122 88.5566 38.8682 89.1701 39.5776C89.7836 40.2678 90.2534 41.0539 90.5793 41.9358C90.9052 42.7986 91.0682 43.6901 91.0682 44.6104C91.0682 44.8021 91.0586 45.0226 91.0394 45.2719C91.0203 45.5019 90.9915 45.7416 90.9532 45.9908H77.9254V43.9777H89.7165L88.6812 44.8405C88.8538 43.786 88.7291 42.8465 88.3074 42.0221C87.9047 41.1785 87.32 40.5171 86.5531 40.0378C85.7862 39.5393 84.9234 39.29 83.9648 39.29C83.0061 39.29 82.1146 39.5393 81.2902 40.0378C80.4849 40.5362 79.8522 41.236 79.3921 42.1372C78.9319 43.0191 78.7498 44.0736 78.8457 45.3006C78.7498 46.5277 78.9415 47.6013 79.4209 48.5216C79.9193 49.4227 80.5904 50.1225 81.434 50.621C82.2967 51.1195 83.217 51.3688 84.1948 51.3688C85.326 51.3688 86.2751 51.1003 87.042 50.5635C87.8089 50.0267 88.432 49.3556 88.9113 48.5504L90.7519 49.5282C90.4451 50.2184 89.9754 50.8607 89.3427 51.455C88.71 52.0302 87.9527 52.4999 87.0707 52.8642C86.2079 53.2093 85.2493 53.3819 84.1948 53.3819Z" fill="white"/>
<path d="M94.8711 53.0368V37.622H97.028V40.6129L96.5391 40.4979C96.9226 39.5009 97.5457 38.7148 98.4085 38.1397C99.2904 37.5645 100.307 37.2769 101.457 37.2769C102.55 37.2769 103.528 37.5261 104.39 38.0246C105.272 38.5231 105.962 39.2133 106.461 40.0953C106.979 40.958 107.237 41.9358 107.237 43.0287V53.0368H105.081V43.8627C105.081 42.9232 104.908 42.1276 104.563 41.4757C104.237 40.8238 103.767 40.3253 103.154 39.9802C102.559 39.616 101.869 39.4338 101.083 39.4338C100.297 39.4338 99.5972 39.616 98.9836 39.9802C98.3701 40.3253 97.8908 40.8334 97.5457 41.5045C97.2006 42.1563 97.028 42.9424 97.028 43.8627V53.0368H94.8711Z" fill="white"/>
<path d="M117.252 53.2093C115.872 53.2093 114.808 52.8067 114.06 52.0015C113.313 51.1962 112.939 50.0459 112.939 48.5504V39.7789H110.092V37.622H110.811C111.462 37.622 111.98 37.4111 112.363 36.9893C112.747 36.5483 112.939 36.0019 112.939 35.3501V34.0559H115.096V37.622H118.489V39.7789H115.096V48.5504C115.096 49.068 115.172 49.5282 115.326 49.9308C115.479 50.3143 115.738 50.621 116.102 50.8511C116.486 51.0812 116.994 51.1962 117.626 51.1962C117.78 51.1962 117.962 51.1866 118.173 51.1674C118.384 51.1483 118.566 51.1291 118.719 51.1099V53.0368C118.489 53.0943 118.23 53.1326 117.943 53.1518C117.655 53.1902 117.425 53.2093 117.252 53.2093Z" fill="white"/>
</svg>
