<svg width="1081" height="460" viewBox="0 0 1081 460" fill="none" xmlns="http://www.w3.org/2000/svg">
<path d="M985.757 142.496H972.939L981.06 96.2417H964.262L966.093 85.8125H1012.59L1010.76 96.2417H993.877L985.757 142.496Z" fill="#303136"/>
<path d="M1070.44 142.496H1058.26L1066.22 97.2766L1043.85 142.496H1033.1L1026.65 97.2766L1018.77 142.496H1006.59L1016.54 85.8125H1036.21L1041.46 122.991L1059.77 85.8125H1080.39L1070.44 142.496Z" fill="#303136"/>
<path d="M462.551 201.095C461.988 204.35 459.165 206.728 455.861 206.728H441.959C437.741 206.728 434.543 202.921 435.273 198.765L454.398 89.8316C454.968 86.5848 457.788 84.2168 461.084 84.2168H539.182C543.401 84.2168 546.598 88.0242 545.869 92.1795L544.295 101.143C543.725 104.389 540.905 106.757 537.609 106.757H484.671C481.368 106.757 478.545 109.134 477.982 112.388L475.686 125.653C474.968 129.804 478.163 133.6 482.375 133.6H524.994C529.239 133.6 532.443 137.453 531.669 141.627L530.229 149.385C529.633 152.602 526.826 154.936 523.554 154.936H476.242C472.938 154.936 470.114 157.314 469.552 160.569L462.551 201.095Z" fill="#303136"/>
<path d="M619.788 201.064C619.239 204.333 616.408 206.728 613.093 206.728H542.264C538.045 206.728 534.848 202.921 535.578 198.765L554.702 89.8316C555.272 86.5848 558.092 84.2168 561.389 84.2168H575.293C579.516 84.2168 582.715 88.032 581.977 92.1906L567.082 176.214C566.344 180.372 569.543 184.187 573.766 184.187H614.598C618.797 184.187 621.988 187.96 621.293 192.1L619.788 201.064Z" fill="#303136"/>
<path d="M679.389 208.449C645.664 208.449 625.188 188.661 625.188 158.722C625.188 114.5 652.202 82.4961 696.94 82.4961C730.32 82.4961 751.14 102.284 751.14 132.223C751.14 176.444 725.503 208.449 679.389 208.449ZM681.281 185.908C708.468 185.908 723.438 162.163 723.438 134.288C723.438 116.049 712.081 105.037 695.047 105.037C667.86 105.037 652.891 128.782 652.891 156.657C652.891 174.896 664.247 185.908 681.281 185.908Z" fill="#303136"/>
<path d="M877.814 202.744C876.713 205.17 874.296 206.728 871.632 206.728H849.698C846.111 206.728 843.142 203.937 842.922 200.356L839.963 152.222C839.521 145.03 829.654 143.39 826.91 150.053L805.298 202.525C804.25 205.068 801.771 206.728 799.021 206.728H775.798C772.316 206.728 769.399 204.095 769.044 200.632L757.876 91.6979C757.465 87.6957 760.606 84.2168 764.629 84.2168H780.014C783.586 84.2168 786.547 86.9848 786.787 90.5487L790.439 144.702C790.921 151.857 800.725 153.474 803.48 146.854L827.809 88.397C828.862 85.8659 831.335 84.2168 834.076 84.2168H851.569C855.151 84.2168 858.116 86.9999 858.344 90.5747L861.783 144.659C862.238 151.817 872.039 153.47 874.817 146.857L899.381 88.3765C900.44 85.8563 902.906 84.2168 905.64 84.2168H921.05C925.985 84.2168 929.271 89.3158 927.232 93.8101L877.814 202.744Z" fill="#303136"/>
<path d="M482.914 374.773C451.77 374.773 435.424 362.212 435.424 338.811C435.424 335.588 438.235 333.133 441.458 333.133H455.649C459.399 333.133 462.294 336.224 463.158 339.873C465.492 349.736 473.438 354.125 486.011 354.125C501.841 354.125 512.165 347.07 512.165 336.23C512.165 328.659 507.175 324.874 491.861 322.637L477.924 320.572C457.276 317.647 446.952 308.183 446.952 290.633C446.952 264.134 467.428 248.82 500.465 248.82C529.2 248.82 545.03 262.758 545.03 284.266C545.03 286.816 542.929 288.74 540.378 288.74H525.837C522.087 288.74 519.211 285.626 518.139 282.034C515.785 274.147 508.861 269.468 497.368 269.468C484.118 269.468 474.655 275.663 474.655 286.503C474.655 293.902 478.268 296.999 491.689 298.892L505.799 300.785C526.619 303.882 539.868 314.034 539.868 332.617C539.868 358.771 520.424 374.773 482.914 374.773Z" fill="#303136"/>
<path d="M596.829 367.438C596.259 370.684 593.439 373.052 590.142 373.052H576.225C572.006 373.052 568.809 369.245 569.538 365.09L584.293 281.044C585.023 276.889 581.825 273.082 577.607 273.082H557.469C553.251 273.082 550.053 269.274 550.783 265.119L552.357 256.156C552.927 252.909 555.747 250.541 559.043 250.541H645.745C649.964 250.541 653.161 254.349 652.431 258.504L650.858 267.467C650.288 270.714 647.467 273.082 644.171 273.082H619.094C615.798 273.082 612.978 275.45 612.408 278.697L596.829 367.438Z" fill="#303136"/>
<path d="M756.327 279.62C756.327 289.177 754.526 296.322 750.926 301.779C747.053 307.648 744.797 327.051 745.114 334.076C745.133 334.501 745.142 334.933 745.142 335.37C745.142 337.263 744.97 339.327 744.626 341.564L741.357 360.664C740.841 363.589 740.669 366.514 740.669 368.751C740.669 370.92 738.853 373.052 736.683 373.052H719.236C716.313 373.052 713.608 371.189 713.283 368.285C713.19 367.456 713.138 366.581 713.138 365.654C713.138 364.105 713.31 362.556 713.654 360.664L716.923 342.597C717.268 340.532 717.44 338.467 717.44 336.746C717.44 328.143 712.106 325.218 701.782 325.218H682.549C679.245 325.218 676.421 327.596 675.859 330.852L669.546 367.419C668.983 370.674 666.159 373.052 662.856 373.052H648.954C644.736 373.052 641.538 369.245 642.268 365.09L661.393 256.156C661.963 252.909 664.783 250.541 668.079 250.541H717.612C742.733 250.541 756.327 262.93 756.327 279.62ZM728.452 283.922C728.452 274.458 721.913 271.189 707.976 271.189H692.141C688.857 271.189 686.043 273.54 685.46 276.773L681.888 296.576C681.136 300.74 684.337 304.57 688.568 304.57H706.427C721.913 304.57 728.452 297.687 728.452 283.922Z" fill="#303136"/>
<path d="M781.794 367.438C781.224 370.684 778.404 373.052 775.107 373.052H761.19C756.971 373.052 753.774 369.245 754.503 365.09L773.628 256.156C774.198 252.909 777.018 250.541 780.314 250.541H794.232C798.451 250.541 801.648 254.349 800.918 258.504L781.794 367.438Z" fill="#303136"/>
<path d="M919.659 298.548C919.659 343.629 895.913 373.052 848.079 373.052H804.027C799.808 373.052 796.611 369.245 797.341 365.09L816.465 256.156C817.035 252.909 819.855 250.541 823.152 250.541H865.113C900.043 250.541 919.659 267.748 919.659 298.548ZM891.956 300.612C891.956 282.373 881.288 272.222 864.769 272.222H846.894C843.599 272.222 840.78 274.588 840.208 277.833L828.661 343.406C827.93 347.562 831.127 351.372 835.347 351.372H851.348C878.018 351.372 891.956 328.487 891.956 300.612Z" fill="#303136"/>
<path d="M1011.26 367.388C1010.71 370.658 1007.88 373.052 1004.57 373.052H926.512C922.294 373.052 919.096 369.245 919.826 365.09L938.951 256.156C939.521 252.909 942.341 250.541 945.637 250.541H1023.74C1027.95 250.541 1031.15 254.349 1030.42 258.504L1028.85 267.467C1028.28 270.714 1025.46 273.082 1022.16 273.082H969.224C965.922 273.082 963.098 275.459 962.535 278.713L960.239 291.978C959.521 296.128 962.716 299.924 966.928 299.924H1009.55C1013.79 299.924 1017 303.777 1016.22 307.951L1014.78 315.71C1014.19 318.927 1011.38 321.26 1008.11 321.26H960.774C957.48 321.26 954.661 323.625 954.088 326.869L951.322 342.543C950.589 346.7 953.787 350.512 958.008 350.512H1006.07C1010.27 350.512 1013.46 354.284 1012.77 358.425L1011.26 367.388Z" fill="#303136"/>
<path d="M87.5927 122.802V213.563C87.5927 221.176 83.6057 228.234 77.0847 232.163L7.90634 273.849C2.99986 276.806 0 282.116 0 287.844C0 293.682 3.11431 299.076 8.1698 301.995L271.538 454.051C276.723 457.044 283.272 456.182 287.505 451.948C289.986 449.468 291.38 446.103 291.38 442.595V353.706C291.38 345.948 295.519 338.779 302.238 334.899L358.69 302.307C373.168 293.948 373.168 273.051 358.69 264.693L302.238 232.1C295.519 228.221 287.24 228.221 280.521 232.1L202.353 277.231C195.634 281.11 187.356 281.11 180.637 277.231L107.96 235.271C103.863 232.906 101.866 228.084 103.09 223.515C103.808 220.838 105.559 218.555 107.96 217.169L282.267 116.533C288.986 112.654 293.125 105.485 293.125 97.7265V13.6797C293.125 7.91016 289.249 2.85989 283.676 1.36661C280.411 0.491586 276.931 0.949664 274.003 2.64009L98.4508 103.995C91.7318 107.875 87.5927 115.044 87.5927 122.802Z" fill="#D4E613"/>
</svg>
