<svg width="120" height="22" viewBox="0 0 120 22" fill="none" xmlns="http://www.w3.org/2000/svg">
<path d="M28.9453 3.79395C31.9866 3.79395 34.6151 6.27263 34.6152 9.61426V20.7324C34.615 21.137 34.2865 21.4648 33.8818 21.4648H31.668C31.2634 21.4647 30.9358 21.1369 30.9355 20.7324V9.53906C30.9354 8.41279 30.0713 7.54886 29.0576 7.54883C28.0441 7.54907 27.1808 8.37549 27.1807 9.61426V14.9111C27.1806 19.041 25.303 21.4442 21.3984 21.4443C18.207 21.4442 15.4658 18.8527 15.4658 15.3984V10.1416L15.4697 10.1387V9.5498C15.4696 8.42351 14.6055 7.55957 13.5918 7.55957C12.5782 7.55979 11.7149 8.38621 11.7148 9.625V14.9219C11.7147 19.0518 9.83737 21.455 5.93262 21.4551C2.74108 21.4551 -1.50995e-07 18.8636 0 15.4092V4.53809C0 4.13329 0.328599 3.80469 0.733398 3.80469H2.94629C3.35109 3.80469 3.67969 4.13329 3.67969 4.53809V15.5908C3.67971 16.9425 4.65585 17.8437 5.78223 17.8438C6.90865 17.8438 7.84766 17.0173 7.84766 15.7031V10.1514C7.84766 6.47182 9.61233 3.80484 13.4795 3.80469C16.5207 3.80483 19.1493 6.28347 19.1494 9.625V13.6807L19.1455 13.6846V15.5801C19.1455 16.9316 20.1218 17.8328 21.248 17.833C22.3744 17.8329 23.3135 17.0065 23.3135 15.6924V10.1406C23.3135 6.46099 25.078 3.79397 28.9453 3.79395ZM47.002 3.8291C52.1507 3.82919 55.9463 7.69088 55.9463 12.6416C55.946 17.592 52.1505 21.453 47.002 21.4531C41.8204 21.4531 38.0247 17.5921 38.0244 12.6416C38.0244 7.72383 41.8201 3.8291 47.002 3.8291ZM73.915 4.22461C74.3196 4.22484 74.6475 4.55335 74.6475 4.95801V13.8945C74.6475 16.4359 76.595 18.2186 78.9053 18.2188C81.1826 18.2187 83.1631 16.4359 83.1631 13.8945V4.95801C83.1631 4.55332 83.4909 4.22479 83.8955 4.22461H86.2256C86.6304 4.22461 86.959 4.55321 86.959 4.95801V13.9287C86.9587 18.2521 83.7898 21.4531 78.9053 21.4531C74.0208 21.453 70.8528 18.2521 70.8525 13.9287V4.95801C70.8525 4.55326 71.1802 4.22469 71.585 4.22461H73.915ZM62.1279 0C62.5327 0 62.8613 0.328599 62.8613 0.733398V3.49219C62.8615 3.89675 63.1892 4.22443 63.5938 4.22461H67.376C67.7808 4.22461 68.1094 4.55321 68.1094 4.95801V6.72559C68.1094 7.13038 67.7808 7.45898 67.376 7.45898H63.5938C63.1891 7.45916 62.8613 7.78769 62.8613 8.19238V16.1064C62.8614 17.1293 63.5212 17.823 64.5439 17.8232H67.3428C67.7475 17.8232 68.0761 18.1509 68.0762 18.5557V20.3242C68.0762 20.729 67.7476 21.0576 67.3428 21.0576H63.8848C60.8813 21.0576 59.0987 19.2419 59.0986 16.2715V0.733398C59.0986 0.328746 59.4265 0.000236919 59.8311 0H62.1279ZM102.166 4.22461C102.571 4.22461 102.899 4.55321 102.899 4.95801V6.72559C102.899 7.13038 102.571 7.45898 102.166 7.45898H95.4404C94.4503 7.459 93.6905 8.21827 93.6904 9.10938C93.6904 10.0005 94.4177 10.7598 95.5068 10.7598H98.708C102.338 10.7599 104.45 12.4103 104.45 15.8428C104.45 18.6481 102.173 21.0576 99.1367 21.0576H91.3545C90.9497 21.0576 90.6211 20.729 90.6211 20.3242V18.5557C90.6211 18.1509 90.9497 17.8232 91.3545 17.8232H98.7402C99.9283 17.8232 100.721 16.9646 100.721 15.9746C100.721 14.9846 99.9948 14.1593 98.8398 14.1592H95.5391C92.3047 14.1591 89.9619 12.6075 89.9619 9.20801C89.9622 6.53485 92.14 4.22473 95.0771 4.22461H102.166ZM47.002 7.0625C43.8665 7.0625 41.8535 9.50611 41.8535 12.6416C41.8538 15.7768 43.8667 18.2188 47.002 18.2188C50.1041 18.2187 52.1169 15.7767 52.1172 12.6416C52.1172 9.50617 50.1043 7.06259 47.002 7.0625ZM113.854 4.21387C114.654 4.21387 115.403 4.36266 116.101 4.66113C116.799 4.95963 117.413 5.37372 117.942 5.90332C118.472 6.4329 118.885 7.04707 119.185 7.74512C119.483 8.44328 119.633 9.19199 119.633 9.99121C119.633 10.7904 119.483 11.5393 119.185 12.2373C118.886 12.9352 118.472 13.5487 117.942 14.0781C117.413 14.6077 116.799 15.0227 116.101 15.3213C115.403 15.6197 114.653 15.7686 113.854 15.7686C113.056 15.7685 112.307 15.6196 111.609 15.3213C110.911 15.0227 110.297 14.6077 109.768 14.0781C109.238 13.5486 108.824 12.9353 108.525 12.2373C108.226 11.5393 108.077 10.7904 108.077 9.99121C108.077 9.19203 108.226 8.44325 108.525 7.74512C108.824 7.04703 109.238 6.43292 109.768 5.90332C110.297 5.37378 110.911 4.95961 111.609 4.66113C112.307 4.36276 113.056 4.21391 113.854 4.21387ZM113.854 5.64355C113.056 5.64362 112.326 5.84069 111.667 6.23535C111.007 6.62524 110.482 7.15023 110.093 7.80957C109.703 8.46435 109.507 9.19199 109.507 9.99121C109.507 10.7904 109.703 11.5202 110.093 12.1797C110.482 12.8342 111.007 13.3592 111.667 13.7539C112.326 14.1437 113.056 14.3388 113.854 14.3389C114.654 14.3389 115.382 14.1439 116.036 13.7539C116.696 13.3592 117.22 12.8343 117.61 12.1797C118 11.5202 118.195 10.7904 118.195 9.99121C118.195 9.19199 118 8.46435 117.61 7.80957C117.22 7.15018 116.696 6.62526 116.036 6.23535C115.382 5.84056 114.654 5.64355 113.854 5.64355ZM114.476 7.26074C114.736 7.26074 114.996 7.3261 115.256 7.45605C115.521 7.58124 115.74 7.77422 115.913 8.03418C116.091 8.28934 116.181 8.60704 116.181 8.9873C116.181 9.37247 116.09 9.70013 115.906 9.96973C115.746 10.207 115.546 10.3898 115.314 10.5264L116.383 12.5908H115.018L114.124 10.793H113.054V12.5908H111.812V7.26074H114.476ZM113.054 9.87598H114.064C114.238 9.87589 114.409 9.80051 114.577 9.65137C114.751 9.50216 114.837 9.28089 114.837 8.9873C114.837 8.67926 114.751 8.46716 114.577 8.35156C114.409 8.23604 114.245 8.17871 114.086 8.17871H113.054V9.87598Z" fill="white"/>
</svg>
