<svg width="3270" height="587" viewBox="0 0 3270 587" fill="none" xmlns="http://www.w3.org/2000/svg">
<path d="M791.149 103.705C874.275 103.705 946.108 171.441 946.111 262.776V566.656C946.111 577.72 937.142 586.689 926.078 586.689H865.57C854.506 586.689 845.537 577.72 845.537 566.656V260.722C845.533 229.938 821.937 206.335 794.23 206.334C766.523 206.334 742.91 228.913 742.907 262.776V407.549C742.907 520.438 691.595 586.119 584.863 586.119C497.633 586.115 422.728 515.3 422.728 420.886V277.205L422.825 277.106V261.016C422.821 230.231 399.21 206.628 371.503 206.628C343.798 206.631 320.199 229.208 320.196 263.069V407.843C320.196 520.732 268.883 586.411 162.152 586.412C74.9195 586.412 -4.12709e-06 515.595 0 421.179V124.032C0 112.968 8.96915 103.999 20.0332 103.999H80.541C91.6052 103.999 100.575 112.968 100.575 124.032V426.135C100.575 463.08 127.256 487.712 158.044 487.713C188.832 487.713 214.486 465.136 214.486 429.217V277.449C214.486 176.875 262.732 103.999 368.438 103.999C451.56 104.003 523.397 171.737 523.4 263.069V373.924L523.286 374.038V425.842C523.286 462.787 549.984 487.419 580.771 487.419C611.557 487.416 637.214 464.84 637.214 428.923V277.155C637.214 176.581 685.445 103.706 791.149 103.705ZM1284.68 104.65C1425.41 104.653 1529.15 210.2 1529.15 345.516C1529.15 480.829 1425.41 586.378 1284.68 586.38C1143.05 586.38 1039.3 480.83 1039.3 345.516C1039.3 211.101 1143.05 104.651 1284.68 104.65ZM2020.27 115.477C2031.34 115.477 2040.31 124.446 2040.31 135.51V379.785C2040.31 449.246 2093.53 497.964 2156.68 497.967C2218.92 497.967 2273.05 449.248 2273.05 379.785V135.51C2273.05 124.446 2282.02 115.477 2293.08 115.477H2356.77C2367.84 115.477 2376.81 124.446 2376.81 135.51V380.698C2376.8 498.872 2290.19 586.38 2156.68 586.38C2023.17 586.377 1936.57 498.871 1936.57 380.698V135.51C1936.57 124.446 1945.54 115.477 1956.6 115.477H2020.27ZM1698.12 0C1709.18 6.32236e-05 1718.15 8.96919 1718.15 20.0332V95.4424C1718.15 106.506 1727.12 115.476 1738.19 115.477H1841.56C1852.62 115.477 1861.59 124.446 1861.59 135.51V183.839C1861.59 194.903 1852.62 203.872 1841.56 203.872H1738.19C1727.12 203.872 1718.15 212.842 1718.15 223.906V440.237C1718.16 468.198 1736.2 487.139 1764.16 487.142H1840.66C1851.72 487.142 1860.69 496.112 1860.69 507.176V555.521C1860.69 566.585 1851.72 575.555 1840.66 575.555H1746.13C1664.04 575.555 1615.31 525.928 1615.31 444.737V20.0332C1615.31 8.96917 1624.28 3.17764e-05 1635.35 0H1698.12ZM2792.46 115.477C2803.53 115.477 2812.49 124.446 2812.49 135.51V183.839C2812.49 194.903 2803.53 203.872 2792.46 203.872H2608.62C2581.56 203.873 2560.8 224.627 2560.8 248.983C2560.8 273.34 2580.66 294.095 2610.43 294.095H2697.93C2797.16 294.095 2854.9 339.195 2854.9 433.015C2854.9 509.694 2792.65 575.555 2709.65 575.555H2496.94C2485.88 575.555 2476.91 566.585 2476.91 555.521V507.176C2476.91 496.112 2485.88 487.142 2496.94 487.142H2698.83C2731.3 487.142 2752.96 463.682 2752.96 436.618C2752.95 409.557 2733.11 387.007 2701.53 387.007H2611.33C2522.92 387.006 2458.88 344.608 2458.88 251.69C2458.88 178.621 2518.41 115.48 2598.69 115.477H2792.46ZM1284.68 193.047C1198.98 193.047 1143.95 259.815 1143.95 345.516C1143.95 431.214 1198.98 497.967 1284.68 497.967C1369.48 497.964 1424.5 431.212 1424.5 345.516C1424.5 259.816 1369.48 193.049 1284.68 193.047ZM3111.94 115.166C3133.78 115.166 3154.25 119.246 3173.32 127.404C3192.42 135.563 3209.18 146.881 3223.66 161.356C3238.14 175.832 3249.45 192.611 3257.63 211.691C3265.78 230.774 3269.86 251.235 3269.86 273.08C3269.86 294.925 3265.78 315.389 3257.63 334.469C3249.45 353.551 3238.14 370.329 3223.66 384.804C3209.18 399.279 3192.42 410.597 3173.32 418.757C3154.25 426.915 3133.78 430.993 3111.94 430.993C3090.1 430.993 3069.63 426.915 3050.56 418.757C3031.46 410.597 3014.7 399.279 3000.22 384.804C2985.74 370.329 2974.43 353.551 2966.27 334.469C2958.1 315.389 2954.02 294.925 2954.02 273.08C2954.02 251.236 2958.1 230.774 2966.27 211.691C2974.43 192.611 2985.74 175.832 3000.22 161.356C3014.7 146.881 3031.46 135.563 3050.56 127.404C3069.63 119.246 3090.1 115.166 3111.94 115.166ZM3111.94 154.25C3090.1 154.25 3070.15 159.646 3052.14 170.437C3034.11 181.096 3019.75 195.44 3009.1 213.468C2998.45 231.365 2993.11 251.235 2993.11 273.08C2993.11 294.925 2998.45 314.862 3009.1 332.89C3019.75 350.786 3034.11 365.131 3052.14 375.922C3070.15 386.58 3090.1 391.909 3111.94 391.909C3133.78 391.909 3153.67 386.58 3171.56 375.922C3189.59 365.131 3203.92 350.786 3214.59 332.89C3225.24 314.862 3230.57 294.925 3230.57 273.08C3230.57 251.235 3225.24 231.365 3214.59 213.468C3203.92 195.44 3189.59 181.096 3171.56 170.437C3153.67 159.646 3133.78 154.25 3111.94 154.25ZM3128.91 198.466C3136.03 198.466 3143.12 200.242 3150.24 203.795C3157.47 207.217 3163.46 212.482 3168.21 219.587C3173.07 226.561 3175.51 235.248 3175.51 245.642C3175.51 256.171 3173.01 265.12 3168 272.489C3163.6 278.974 3158.23 284.082 3151.9 287.816L3181.04 344.141H3143.72L3119.29 294.991H3090.04V344.141H3056.09V198.466H3128.91ZM3090.04 269.922H3117.66C3122.4 269.922 3127.08 267.882 3131.68 263.803C3136.42 259.724 3138.79 253.671 3138.79 245.642C3138.79 237.222 3136.42 231.431 3131.68 228.271C3127.08 225.114 3122.61 223.535 3118.26 223.535H3090.04V269.922Z" fill="#31D8C5"/>
</svg>
