<svg width="219" height="46" viewBox="0 0 219 46" fill="none" xmlns="http://www.w3.org/2000/svg">
<path d="M108.966 20.6576C108.659 20.6576 108.385 20.4664 108.28 20.1787L101.89 2.77555C101.715 2.29859 102.068 1.79291 102.576 1.79291H105.429C105.741 1.79291 106.018 1.99025 106.12 2.28451L110.702 15.5132C110.712 15.5437 110.741 15.5641 110.773 15.5641C110.806 15.5641 110.834 15.5437 110.845 15.5132L115.427 2.2845C115.529 1.99025 115.806 1.79291 116.118 1.79291H118.997C119.505 1.79291 119.858 2.29859 119.683 2.77555L113.294 20.1787C113.188 20.4664 112.914 20.6576 112.608 20.6576H108.966Z" fill="black"/>
<path d="M123.909 20.6576C123.505 20.6576 123.178 20.3304 123.178 19.9268V2.52369C123.178 2.12009 123.505 1.79291 123.909 1.79291H126.651C127.055 1.79291 127.382 2.12009 127.382 2.52369V19.9268C127.382 20.3304 127.055 20.6576 126.651 20.6576H123.909Z" fill="black"/>
<path d="M139.817 21.0619C134.675 21.0619 131.355 18.6098 131.03 14.1667C131.001 13.7642 131.331 13.4351 131.735 13.4351H134.477C134.881 13.4351 135.202 13.7638 135.249 14.1646C135.517 16.4383 137.096 17.5045 139.763 17.5045C142.269 17.5045 143.374 16.5613 143.374 15.2407C143.374 14.055 142.511 13.3812 140.76 13.0578L138.065 12.5997C133.78 11.8451 131.705 10.1203 131.705 7.07503C131.705 3.51769 134.534 1.38867 139.062 1.38867C143.698 1.38867 146.667 3.6746 147.006 7.39591C147.043 7.79783 146.712 8.12606 146.308 8.12606H143.701C143.308 8.12606 142.994 7.81154 142.911 7.42734C142.541 5.71296 141.036 4.86517 138.981 4.86517C136.852 4.86517 135.909 5.7545 135.909 6.94028C135.909 8.07216 136.798 8.63811 138.577 8.9615L141.164 9.41964C145.611 10.2281 147.605 11.899 147.605 15.0521C147.605 18.8789 144.694 21.0619 139.817 21.0619Z" fill="black"/>
<path d="M151.898 20.6576C151.494 20.6576 151.167 20.3304 151.167 19.9268V2.52369C151.167 2.12009 151.494 1.79291 151.898 1.79291H154.64C155.044 1.79291 155.371 2.12009 155.371 2.52369V19.9268C155.371 20.3304 155.044 20.6576 154.64 20.6576H151.898Z" fill="black"/>
<path d="M167.267 21.0619C162.119 21.0619 159.155 17.9627 159.155 12.7883V2.52369C159.155 2.12009 159.482 1.79291 159.886 1.79291H162.628C163.032 1.79291 163.359 2.12009 163.359 2.52369V12.977C163.359 15.9145 164.68 17.3967 167.267 17.3967C169.827 17.3967 171.201 15.9684 171.201 12.977V2.52369C171.201 2.12009 171.529 1.79291 171.932 1.79291H174.675C175.078 1.79291 175.405 2.12009 175.405 2.52369V12.7883C175.405 18.0705 172.36 21.0619 167.267 21.0619Z" fill="black"/>
<path d="M187.975 20.6576C187.651 20.6576 187.366 20.4445 187.274 20.134L184.495 10.7318C184.256 9.92292 183.063 10.0955 183.063 10.939V19.9268C183.063 20.3304 182.736 20.6576 182.333 20.6576H179.913C179.51 20.6576 179.183 20.3304 179.183 19.9268V2.52369C179.183 2.12009 179.51 1.79291 179.913 1.79291H184.829C185.155 1.79291 185.443 2.00984 185.532 2.32418L188.637 13.267C188.838 13.9761 189.844 13.9752 190.044 13.2658L193.127 2.32544C193.216 2.01047 193.503 1.79291 193.83 1.79291H198.718C199.121 1.79291 199.449 2.12009 199.449 2.52369V19.9268C199.449 20.3304 199.121 20.6576 198.718 20.6576H196.299C195.895 20.6576 195.568 20.3304 195.568 19.9268V11.0413C195.568 10.1979 194.376 10.0252 194.136 10.8339L191.384 20.1342C191.292 20.4446 191.007 20.6576 190.683 20.6576H187.975Z" fill="black"/>
<path d="M104.231 44.0079C103.827 44.0079 103.5 43.6807 103.5 43.2771V25.8739C103.5 25.4703 103.827 25.1432 104.231 25.1432H110.83C116.867 25.1162 120.451 28.5119 120.451 34.5486C120.451 40.5583 116.921 44.0617 110.911 44.0079H104.231ZM110.911 40.3697C114.226 40.3697 116.139 38.2137 116.139 34.5486C116.139 30.9104 114.172 28.7813 110.83 28.7813H108.435C108.031 28.7813 107.704 29.1085 107.704 29.5121V39.6389C107.704 40.0425 108.031 40.3697 108.435 40.3697H110.911Z" fill="black"/>
<path d="M124.647 44.0079C124.243 44.0079 123.916 43.6807 123.916 43.2771V25.8739C123.916 25.4703 124.243 25.1432 124.647 25.1432H127.389C127.793 25.1432 128.12 25.4703 128.12 25.8739V43.2771C128.12 43.6807 127.793 44.0079 127.389 44.0079H124.647Z" fill="black"/>
<path d="M140.609 44.4121C135.219 44.4121 131.58 40.5583 131.58 34.6294C131.58 28.5657 135.353 24.7389 141.148 24.7389C145.82 24.7389 149.017 27.2209 149.822 30.8535C149.917 31.281 149.575 31.6649 149.137 31.6649H146.165C145.805 31.6649 145.506 31.4003 145.401 31.0563C144.89 29.3788 143.433 28.4041 141.282 28.4041C137.914 28.4041 135.919 30.7487 135.919 34.5755C135.919 38.2945 137.779 40.747 141.121 40.747C143.338 40.747 144.902 39.6499 145.475 37.6611C145.598 37.2347 145.252 36.8393 144.808 36.8393H141.69C141.286 36.8393 140.959 36.5121 140.959 36.1085V34.3091C140.959 33.9055 141.286 33.5784 141.69 33.5784H149.391C149.795 33.5784 150.122 33.9055 150.122 34.3091V43.2771C150.122 43.6807 149.795 44.0079 149.391 44.0079H147.115C146.811 44.0079 146.564 43.7613 146.564 43.4572C146.564 42.8746 145.588 42.5835 145.146 42.9634C144.065 43.8926 142.58 44.4121 140.609 44.4121Z" fill="black"/>
<path d="M154.741 44.0079C154.338 44.0079 154.011 43.6807 154.011 43.2771V25.8739C154.011 25.4703 154.338 25.1432 154.741 25.1432H157.484C157.888 25.1432 158.215 25.4703 158.215 25.8739V43.2771C158.215 43.6807 157.888 44.0079 157.484 44.0079H154.741Z" fill="black"/>
<path d="M167.146 29.8863C167.146 29.1856 166.742 28.8083 166.041 28.8083H162.082C161.679 28.8083 161.352 28.4811 161.352 28.0775V25.8739C161.352 25.4703 161.679 25.1432 162.082 25.1432H176.413C176.817 25.1432 177.144 25.4703 177.144 25.8739V28.0775C177.144 28.4811 176.817 28.8083 176.413 28.8083H172.455C171.754 28.8083 171.35 29.1856 171.35 29.8863V43.2771C171.35 43.6807 171.023 44.0079 170.619 44.0079H167.877C167.473 44.0079 167.146 43.6807 167.146 43.2771V29.8863Z" fill="black"/>
<path d="M177.33 44.0079C176.817 44.0079 176.464 43.4943 176.647 43.0158L183.31 25.6126C183.418 25.3299 183.69 25.1432 183.993 25.1432H187.676C187.979 25.1432 188.251 25.3299 188.359 25.6126L195.022 43.0158C195.205 43.4943 194.852 44.0079 194.339 44.0079H191.464C191.158 44.0079 190.884 43.8173 190.778 43.5303L189.568 40.2543C189.462 39.9673 189.189 39.7768 188.883 39.7768H182.783C182.479 39.7768 182.206 39.9655 182.099 40.2505L180.865 43.5341C180.758 43.8191 180.485 44.0079 180.181 44.0079H177.33ZM183.748 35.3421C183.571 35.8195 183.924 36.3272 184.433 36.3272H187.205C187.715 36.3272 188.068 35.8173 187.889 35.3395L185.88 29.9905C185.869 29.9602 185.84 29.9402 185.808 29.9402C185.775 29.9402 185.746 29.9604 185.735 29.9908L183.748 35.3421Z" fill="black"/>
<path d="M199.278 44.0079C198.874 44.0079 198.547 43.6807 198.547 43.2771V25.8739C198.547 25.4703 198.874 25.1432 199.278 25.1432H202.021C202.424 25.1432 202.751 25.4703 202.751 25.8739V39.2647C202.751 39.9654 203.156 40.3427 203.856 40.3427H211.291C211.695 40.3427 212.022 40.6699 212.022 41.0735V43.2771C212.022 43.6807 211.695 44.0079 211.291 44.0079H199.278Z" fill="black"/>
<path d="M30.5124 42.9478C28.6086 46.2453 23.8491 46.2453 21.9453 42.9478L1.49614 7.52881C-0.407656 4.23133 1.97209 0.109476 5.77969 0.109477L46.678 0.10948C50.4856 0.109481 52.8653 4.23133 50.9616 7.52881L30.5124 42.9478Z" fill="black"/>
<path d="M60.9802 2.00264C61.6329 0.833709 62.8669 0.109375 64.2057 0.109375H67.9378C80.4502 0.109375 90.5935 10.2527 90.5935 22.7651C90.5935 35.2775 80.4502 45.4208 67.9378 45.4208H44.2396C40.8777 45.4208 38.7557 41.8056 40.3947 38.8703L60.9802 2.00264Z" fill="black"/>
<path d="M213.366 0.905273C214.425 0.905273 215.375 1.1518 216.215 1.64487C217.055 2.11967 217.712 2.78621 218.187 3.64451C218.662 4.48454 218.899 5.43414 218.899 6.49331C218.899 7.55248 218.662 8.51122 218.187 9.36951C217.712 10.2278 217.055 10.9035 216.215 11.3965C215.375 11.8713 214.425 12.1087 213.366 12.1087C212.289 12.1087 211.33 11.8713 210.49 11.3965C209.65 10.9035 208.992 10.2278 208.518 9.36951C208.043 8.51122 207.805 7.55248 207.805 6.49331C207.805 5.43414 208.043 4.48454 208.518 3.64451C208.992 2.78621 209.65 2.11967 210.49 1.64487C211.33 1.1518 212.289 0.905273 213.366 0.905273ZM213.366 11.0131C214.681 11.0131 215.74 10.593 216.544 9.753C217.365 8.91297 217.776 7.82641 217.776 6.49331C217.776 5.16022 217.365 4.07365 216.544 3.23362C215.74 2.39359 214.681 1.97357 213.366 1.97357C212.033 1.97357 210.965 2.39359 210.161 3.23362C209.376 4.07365 208.983 5.16022 208.983 6.49331C208.983 7.82641 209.376 8.91297 210.161 9.753C210.965 10.593 212.033 11.0131 213.366 11.0131ZM215.831 5.34283C215.831 5.78111 215.713 6.15547 215.475 6.46592C215.256 6.75811 214.946 6.96811 214.544 7.09595L216.078 9.36951L214.352 9.3969L213.037 7.20551H212.572V9.3969H211.147V3.50755H213.777C214.398 3.50755 214.891 3.6719 215.256 4.00061C215.64 4.32932 215.831 4.77673 215.831 5.34283ZM212.572 6.02764H213.695C213.896 6.02764 214.06 5.97286 214.188 5.86329C214.334 5.75372 214.407 5.5985 214.407 5.39762C214.407 5.19674 214.334 5.05065 214.188 4.95934C214.06 4.84977 213.896 4.79499 213.695 4.79499H212.572V6.02764Z" fill="black"/>
</svg>
