<svg width="216" height="34" viewBox="0 0 216 34" fill="none" xmlns="http://www.w3.org/2000/svg">
<path d="M8.06348 24.8009C7.75567 24.8009 7.48398 24.5998 7.39403 24.3055L0.736455 2.51703C0.598998 2.06717 0.935509 1.61248 1.4059 1.61248H4.45012C4.75829 1.61248 5.0302 1.81401 5.11985 2.10884L10.1018 18.4941C10.3026 19.1543 11.2365 19.1564 11.4403 18.4972L16.5073 2.10574C16.5979 1.81247 16.8691 1.61248 17.1761 1.61248H20.2228C20.6932 1.61248 21.0297 2.06717 20.8922 2.51703L14.2347 24.3055C14.1447 24.5998 13.873 24.8009 13.5652 24.8009H8.06348Z" fill="black"/>
<path d="M22.3771 5.76143C21.9905 5.76143 21.6771 5.44803 21.6771 5.06143V2.59669C21.6771 2.21009 21.9905 1.89669 22.3771 1.89669H25.3572C25.7438 1.89669 26.0572 2.21009 26.0572 2.59669V5.06143C26.0572 5.44803 25.7438 5.76143 25.3572 5.76143H22.3771ZM22.3771 24.8009C21.9905 24.8009 21.6771 24.4875 21.6771 24.1009V8.10959C21.6771 7.72299 21.9905 7.40959 22.3771 7.40959H25.3572C25.7438 7.40959 26.0572 7.72299 26.0572 8.10959V24.1009C26.0572 24.4875 25.7438 24.8009 25.3572 24.8009H22.3771Z" fill="black"/>
<path d="M35.3027 25.284C33.1127 25.284 31.3414 24.7902 29.9887 23.8025C28.8225 22.9349 28.0536 21.7591 27.6819 20.2752C27.5875 19.8979 27.8545 19.5362 28.2391 19.4781L31.3724 19.0047C31.7359 18.9498 32.0716 19.1898 32.2135 19.5289C32.4334 20.0548 32.7707 20.4864 33.2254 20.8235C33.8588 21.2851 34.6586 21.5159 35.6248 21.5159C36.4192 21.5159 37.0311 21.3656 37.4605 21.065C37.8899 20.7537 38.1046 20.3243 38.1046 19.7768C38.1046 19.4332 38.0188 19.1595 37.847 18.9555C37.6752 18.7408 37.2888 18.5314 36.6876 18.3275C36.0971 18.1235 35.1739 17.8551 33.9178 17.5223C32.5008 17.1573 31.3682 16.7494 30.5201 16.2985C29.672 15.8476 29.0601 15.3108 28.6843 14.6882C28.3086 14.0548 28.1207 13.2926 28.1207 12.4015C28.1207 11.2851 28.4052 10.3189 28.9742 9.50299C29.5432 8.67636 30.343 8.04297 31.3736 7.60282C32.4149 7.15194 33.6387 6.92649 35.0451 6.92649C36.4085 6.92649 37.6162 7.13583 38.6683 7.55451C39.7203 7.97319 40.5684 8.56901 41.2125 9.34196C41.7261 9.94807 42.0844 10.64 42.2877 11.4178C42.383 11.7823 42.1266 12.1323 41.7557 12.199L38.6765 12.7528C38.2793 12.8243 37.9172 12.5363 37.7519 12.1681C37.6089 11.8495 37.3937 11.5784 37.1063 11.3548C36.6232 10.9791 35.9683 10.759 35.1417 10.6946C34.3365 10.6409 33.687 10.7483 33.1932 11.0167C32.7101 11.2851 32.4686 11.6715 32.4686 12.1761C32.4686 12.4767 32.5706 12.729 32.7745 12.9329C32.9892 13.1369 33.424 13.3463 34.0789 13.561C34.7445 13.7757 35.7536 14.0548 37.1063 14.3983C38.4267 14.7419 39.4841 15.1444 40.2786 15.6061C41.0837 16.0569 41.6688 16.6044 42.0338 17.2486C42.3988 17.882 42.5813 18.6495 42.5813 19.5513C42.5813 21.3334 41.9372 22.7344 40.6489 23.7542C39.3607 24.7741 37.5786 25.284 35.3027 25.284Z" fill="black"/>
<path d="M44.7644 5.76143C44.3778 5.76143 44.0644 5.44803 44.0644 5.06143V2.59669C44.0644 2.21009 44.3778 1.89669 44.7644 1.89669H47.7444C48.131 1.89669 48.4444 2.21009 48.4444 2.59669V5.06143C48.4444 5.44803 48.131 5.76143 47.7444 5.76143H44.7644ZM44.7644 24.8009C44.3778 24.8009 44.0644 24.4875 44.0644 24.1009V8.10959C44.0644 7.72299 44.3778 7.40959 44.7644 7.40959H47.7444C48.131 7.40959 48.4444 7.72299 48.4444 8.10959V24.1009C48.4444 24.4875 48.131 24.8009 47.7444 24.8009H44.7644Z" fill="black"/>
<path d="M56.6006 25.3162C55.2372 25.3162 54.1261 25.0854 53.2673 24.6238C52.4084 24.1622 51.7375 23.5771 51.2544 22.8685C50.782 22.16 50.4439 21.4246 50.2399 20.6624C50.0359 19.8895 49.9125 19.1863 49.8695 18.5529C49.8266 17.9195 49.8051 17.4579 49.8051 17.1681V8.10959C49.8051 7.72299 50.1185 7.40959 50.5051 7.40959H53.5496C53.9362 7.40959 54.2496 7.72299 54.2496 8.10959V15.6222C54.2496 16.0194 54.271 16.5293 54.314 17.152C54.3569 17.7639 54.4911 18.3812 54.7166 19.0038C54.942 19.6265 55.307 20.1471 55.8116 20.5658C56.3269 20.9845 57.0515 21.1938 57.9855 21.1938C58.3612 21.1938 58.7638 21.1348 59.1932 21.0167C59.6226 20.8986 60.0252 20.6732 60.4009 20.3404C60.7767 19.9968 61.0826 19.4976 61.3188 18.8428C61.4746 18.4228 61.5812 17.9217 61.6387 17.3394C61.6892 16.8278 62.2247 16.4881 62.6892 16.7084L63.8013 17.236C64.0456 17.3518 64.2035 17.5982 64.1915 17.8683C64.1377 19.0774 63.8618 20.2181 63.3639 21.2904C62.8057 22.4928 61.9629 23.4644 60.8357 24.2051C59.7192 24.9458 58.3075 25.3162 56.6006 25.3162ZM62.9367 24.8009C62.5501 24.8009 62.2367 24.4875 62.2367 24.1009V19.3098C62.2367 19.1586 62.1141 19.036 61.9629 19.036V19.036C61.8117 19.036 61.6892 18.9134 61.6892 18.7623V8.10959C61.6892 7.72299 62.0026 7.40959 62.3892 7.40959H65.4014C65.788 7.40959 66.1014 7.72299 66.1014 8.10959V24.1009C66.1014 24.4875 65.788 24.8009 65.4014 24.8009H62.9367Z" fill="black"/>
<path d="M89.0911 24.8009C88.7045 24.8009 88.3911 24.4875 88.3911 24.1009V14.5271C88.3911 13.3785 88.1173 12.4874 87.5698 11.854C87.033 11.2099 86.2869 10.8879 85.3315 10.8879C84.7196 10.8879 84.1882 11.0328 83.7373 11.3226C83.2864 11.6018 82.9321 11.999 82.6745 12.5143C82.602 12.6625 82.5401 12.8177 82.4888 12.9798C82.3204 13.5129 81.681 13.8541 81.2158 13.544L80.7801 13.2535C80.5853 13.1236 80.4659 12.9048 80.4778 12.6711C80.5307 11.6324 80.8067 10.7052 81.3057 9.88946C81.8747 8.97695 82.6315 8.26842 83.5763 7.76385C84.5317 7.24855 85.5891 6.99091 86.7486 6.99091C88.7346 6.99091 90.2322 7.58135 91.2413 8.76224C92.2612 9.9324 92.7711 11.4676 92.7711 13.3677V24.1009C92.7711 24.4875 92.4577 24.8009 92.0711 24.8009H89.0911ZM68.1249 24.8009C67.7383 24.8009 67.4249 24.4875 67.4249 24.1009V8.10959C67.4249 7.72299 67.7383 7.40959 68.1249 7.40959H70.5896C70.9762 7.40959 71.2896 7.72299 71.2896 8.10959V12.9007C71.2896 13.0519 71.4122 13.1745 71.5634 13.1745V13.1745C71.7145 13.1745 71.8371 13.2971 71.8371 13.4482V24.1009C71.8371 24.4875 71.5237 24.8009 71.1371 24.8009H68.1249ZM78.6241 24.8009C78.2375 24.8009 77.9241 24.4875 77.9241 24.1009V14.5271C77.9241 13.3785 77.6503 12.4874 77.1028 11.854C76.566 11.2099 75.8199 10.8879 74.8645 10.8879C73.952 10.8879 73.2166 11.2045 72.6584 11.8379C72.3778 12.157 72.1692 12.5253 72.0324 12.9429C71.856 13.4815 71.1989 13.8216 70.735 13.4961L70.2993 13.1903C70.1125 13.0593 69.9987 12.8452 70.0113 12.6174C70.066 11.6248 70.3472 10.7262 70.8548 9.92167C71.4238 9.0199 72.186 8.30599 73.1415 7.77996C74.1076 7.25392 75.1865 6.99091 76.3782 6.99091C77.7416 6.99091 78.8581 7.28076 79.7276 7.86047C80.6079 8.44018 81.2574 9.21313 81.6761 10.1793C82.0948 11.1455 82.3041 12.2083 82.3041 13.3677V24.1009C82.3041 24.4875 81.9907 24.8009 81.6041 24.8009H78.6241Z" fill="black"/>
<path d="M97.8161 24.8009C97.4295 24.8009 97.1161 24.4875 97.1161 24.1009V2.31248C97.1161 1.92588 97.4295 1.61248 97.8161 1.61248H104.62C104.803 1.61248 105.178 1.61784 105.747 1.62858C106.316 1.63931 106.864 1.67689 107.39 1.7413C109.258 1.96674 110.841 2.61624 112.14 3.68977C113.439 4.76331 114.427 6.12671 115.103 7.77996C115.78 9.43321 116.118 11.2421 116.118 13.2067C116.118 15.1713 115.78 16.9802 115.103 18.6334C114.427 20.2867 113.439 21.6501 112.14 22.7236C110.841 23.7972 109.258 24.4466 107.39 24.6721C106.864 24.7365 106.316 24.7741 105.747 24.7848C105.178 24.7955 104.803 24.8009 104.62 24.8009H97.8161ZM101.561 19.9785C101.561 20.3651 101.874 20.6785 102.261 20.6785H104.62C104.91 20.6785 105.302 20.6732 105.796 20.6624C106.289 20.641 106.735 20.5926 107.132 20.5175C108.141 20.3135 108.963 19.8412 109.596 19.1004C110.24 18.3597 110.712 17.4686 111.013 16.4273C111.324 15.386 111.48 14.3124 111.48 13.2067C111.48 12.0473 111.319 10.9469 110.997 9.90556C110.686 8.86423 110.208 7.98393 109.564 7.26466C108.92 6.54539 108.109 6.08913 107.132 5.8959C106.735 5.81001 106.289 5.7617 105.796 5.75097C105.302 5.74023 104.91 5.73487 104.62 5.73487H102.261C101.874 5.73487 101.561 6.04827 101.561 6.43487V19.9785Z" fill="black"/>
<path d="M118.626 4.99412C118.239 4.99412 117.926 4.68072 117.926 4.29412V1.82938C117.926 1.44278 118.239 1.12938 118.626 1.12938H121.606C121.992 1.12938 122.306 1.44278 122.306 1.82938V4.29412C122.306 4.68072 121.992 4.99412 121.606 4.99412H118.626ZM118.626 24.8009C118.239 24.8009 117.926 24.4875 117.926 24.1009V8.10959C117.926 7.72299 118.239 7.40959 118.626 7.40959H121.606C121.992 7.40959 122.306 7.72299 122.306 8.10959V24.1009C122.306 24.4875 121.992 24.8009 121.606 24.8009H118.626Z" fill="black"/>
<path d="M132.963 33.0135C131.975 33.0135 131.036 32.8525 130.145 32.5304C129.254 32.2191 128.454 31.7789 127.745 31.2099C127.251 30.8143 126.821 30.37 126.456 29.8773C126.212 29.5491 126.353 29.0932 126.72 28.9152L129.494 27.5722C129.831 27.4092 130.229 27.5485 130.478 27.8284C130.704 28.0835 130.974 28.2928 131.288 28.4563C131.814 28.7247 132.383 28.8589 132.995 28.8589C133.65 28.8589 134.267 28.7462 134.847 28.5207C135.426 28.306 135.888 27.9786 136.232 27.5384C136.586 27.109 136.752 26.5723 136.731 25.9281V21.1455C136.731 20.9943 136.853 20.8718 137.005 20.8718V20.8718C137.156 20.8718 137.278 20.7492 137.278 20.598V8.10959C137.278 7.72299 137.592 7.40959 137.978 7.40959H140.411C140.797 7.40959 141.111 7.72299 141.111 8.10959V25.9925C141.111 26.422 141.089 26.8245 141.046 27.2003C141.014 27.5867 140.95 27.9679 140.853 28.3436C140.574 29.4064 140.053 30.2813 139.291 30.9684C138.54 31.6555 137.616 32.1654 136.521 32.4982C135.426 32.8417 134.24 33.0135 132.963 33.0135ZM132.576 25.284C130.977 25.284 129.576 24.8814 128.373 24.0763C127.171 23.2711 126.232 22.1761 125.555 20.7912C124.89 19.4064 124.557 17.8444 124.557 16.1053C124.557 14.3339 124.895 12.7612 125.571 11.387C126.258 10.0022 127.219 8.91254 128.454 8.11812C129.688 7.3237 131.138 6.92649 132.802 6.92649C134.455 6.92649 135.845 7.32907 136.972 8.13422C138.1 8.93938 138.953 10.0344 139.533 11.4193C140.112 12.8041 140.402 14.3661 140.402 16.1053C140.402 17.8444 140.107 19.4064 139.517 20.7912C138.937 22.1761 138.067 23.2711 136.908 24.0763C135.748 24.8814 134.305 25.284 132.576 25.284ZM133.285 21.3871C134.262 21.3871 135.04 21.167 135.62 20.7268C136.21 20.2867 136.634 19.6694 136.892 18.875C137.149 18.0806 137.278 17.1573 137.278 16.1053C137.278 15.0532 137.149 14.1299 136.892 13.3355C136.634 12.5411 136.221 11.9238 135.652 11.4837C135.094 11.0435 134.358 10.8234 133.446 10.8234C132.469 10.8234 131.664 11.065 131.03 11.5481C130.408 12.0204 129.946 12.6592 129.645 13.4643C129.345 14.2588 129.195 15.1391 129.195 16.1053C129.195 17.0822 129.339 17.9732 129.629 18.7784C129.919 19.5728 130.365 20.2062 130.966 20.6785C131.567 21.1509 132.34 21.3871 133.285 21.3871Z" fill="black"/>
<path d="M144.265 4.99412C143.878 4.99412 143.565 4.68072 143.565 4.29412V1.82938C143.565 1.44278 143.878 1.12938 144.265 1.12938H147.245C147.632 1.12938 147.945 1.44278 147.945 1.82938V4.29412C147.945 4.68072 147.632 4.99412 147.245 4.99412H144.265ZM144.265 24.8009C143.878 24.8009 143.565 24.4875 143.565 24.1009V8.10959C143.565 7.72299 143.878 7.40959 144.265 7.40959H147.245C147.632 7.40959 147.945 7.72299 147.945 8.10959V24.1009C147.945 24.4875 147.632 24.8009 147.245 24.8009H144.265Z" fill="black"/>
<path d="M161.597 24.22C161.597 24.5568 161.357 24.8474 161.024 24.8988C160.019 25.0539 159.029 25.1179 158.054 25.0908C156.906 25.0693 155.875 24.8707 154.963 24.495C154.061 24.1085 153.374 23.4912 152.901 22.6431C152.472 21.8487 152.247 21.0435 152.225 20.2276C152.204 19.401 152.193 18.467 152.193 17.4257V3.27866C152.193 2.89206 152.506 2.57866 152.893 2.57866H155.873C156.259 2.57866 156.573 2.89206 156.573 3.27866V17.1681C156.573 17.8444 156.578 18.4563 156.589 19.0038C156.61 19.5406 156.723 19.97 156.927 20.2921C157.314 20.904 157.931 21.2368 158.779 21.2904C159.404 21.33 160.078 21.3171 160.801 21.2519C161.223 21.2138 161.597 21.5389 161.597 21.9628V24.22ZM149.93 10.7912C149.543 10.7912 149.23 10.4778 149.23 10.0912V8.10959C149.23 7.72299 149.543 7.40959 149.93 7.40959H160.897C161.284 7.40959 161.597 7.72299 161.597 8.10959V10.0912C161.597 10.4778 161.284 10.7912 160.897 10.7912H149.93Z" fill="black"/>
<path d="M168.693 25.284C167.448 25.284 166.39 25.0478 165.521 24.5755C164.662 24.0924 164.007 23.4536 163.556 22.6592C163.116 21.8541 162.896 20.9684 162.896 20.0022C162.896 19.197 163.02 18.4617 163.267 17.7961C163.513 17.1305 163.911 16.5454 164.458 16.0408C165.016 15.5255 165.762 15.0961 166.696 14.7526C167.341 14.5164 168.108 14.3071 168.999 14.1246C169.89 13.9421 170.899 13.7703 172.027 13.6093C172.763 13.4971 173.547 13.3781 174.379 13.2522C174.652 13.2109 174.777 13.5799 174.535 13.7131V13.7131C174.37 13.804 174.167 13.6844 174.154 13.4967C174.094 12.6772 173.852 12.0598 173.428 11.6447C172.934 11.1616 172.107 10.9201 170.948 10.9201C170.304 10.9201 169.633 11.0757 168.935 11.387C168.434 11.6106 168.041 11.9587 167.755 12.4314C167.56 12.7552 167.183 12.9548 166.822 12.8405L164.169 11.9991C163.803 11.8831 163.595 11.4922 163.742 11.1375C164.215 9.99336 164.964 9.04058 165.988 8.27915C167.201 7.37738 168.854 6.92649 170.948 6.92649C172.483 6.92649 173.846 7.16267 175.038 7.63503C176.229 8.10739 177.131 8.92328 177.743 10.0827C178.087 10.7268 178.291 11.3709 178.355 12.0151C178.42 12.6592 178.452 13.3785 178.452 14.1729V24.1009C178.452 24.4875 178.138 24.8009 177.752 24.8009H175.319C174.933 24.8009 174.619 24.4875 174.619 24.1009V21.9682C174.619 21.7323 174.92 21.6332 175.06 21.8229V21.8229C175.124 21.9085 175.124 22.0257 175.061 22.111C174.242 23.2069 173.36 24.0069 172.413 24.5111C171.436 25.0264 170.196 25.284 168.693 25.284ZM169.627 21.8379C170.432 21.8379 171.109 21.6984 171.656 21.4193C172.214 21.1294 172.655 20.802 172.977 20.437C173.309 20.072 173.535 19.766 173.653 19.5191C173.878 19.0467 174.007 18.4992 174.039 17.8766C174.073 17.3765 174.094 16.9433 174.101 16.577C174.104 16.4355 174.237 16.3317 174.374 16.3661V16.3661C174.603 16.4233 174.59 16.7542 174.357 16.7936C173.522 16.9351 172.815 17.0599 172.236 17.1681C171.431 17.3076 170.781 17.4364 170.287 17.5545C169.794 17.6726 169.359 17.8014 168.983 17.941C168.554 18.1128 168.205 18.3006 167.936 18.5046C167.679 18.6978 167.486 18.9126 167.357 19.1487C167.239 19.3849 167.18 19.6479 167.18 19.9378C167.18 20.335 167.276 20.6785 167.469 20.9684C167.673 21.2475 167.958 21.4622 168.323 21.6125C168.688 21.7628 169.123 21.8379 169.627 21.8379Z" fill="black"/>
<path d="M182.051 24.8009C181.664 24.8009 181.351 24.4875 181.351 24.1009V1.82939C181.351 1.44279 181.664 1.12938 182.051 1.12938H185.031C185.417 1.12938 185.731 1.44278 185.731 1.82938V24.1009C185.731 24.4875 185.417 24.8009 185.031 24.8009H182.051Z" fill="black"/>
<path d="M203.045 26.3629C201.274 26.3629 199.61 26.0248 198.053 25.3484C196.497 24.6828 195.128 23.765 193.947 22.5948C192.777 21.4139 191.859 20.0451 191.193 18.4885C190.528 16.9319 190.195 15.2679 190.195 13.4966C190.195 11.7145 190.528 10.0505 191.193 8.5046C191.859 6.94796 192.777 5.5792 193.947 4.39831C195.128 3.21742 196.497 2.29417 198.053 1.62858C199.61 0.962985 201.274 0.630188 203.045 0.630188C204.838 0.630188 206.507 0.968353 208.053 1.64468C209.61 2.31028 210.973 3.23352 212.143 4.41441C213.324 5.58457 214.248 6.94796 214.913 8.5046C215.579 10.0505 215.912 11.7145 215.912 13.4966C215.912 15.2679 215.579 16.9319 214.913 18.4885C214.248 20.0451 213.324 21.4139 212.143 22.5948C210.973 23.765 209.61 24.6828 208.053 25.3484C206.507 26.0248 204.838 26.3629 203.045 26.3629ZM203.271 20.3404C202.229 20.3404 201.322 20.1686 200.549 19.8251C199.776 19.4815 199.089 18.9448 198.488 18.2148C197.93 17.5062 197.533 16.7547 197.296 15.9603C197.071 15.1552 196.958 14.3285 196.958 13.4804C196.969 12.5894 197.092 11.7467 197.329 10.9523C197.576 10.1578 197.962 9.43321 198.488 8.77835C199.078 8.05908 199.771 7.52231 200.565 7.16804C201.36 6.81377 202.304 6.63664 203.399 6.63664C204.001 6.63664 204.554 6.69568 205.058 6.81377C205.563 6.93186 206.078 7.1573 206.604 7.4901C207.173 7.8229 207.661 8.25768 208.069 8.79445C208.355 9.16118 208.584 9.56799 208.755 10.0149C208.89 10.368 208.666 10.7423 208.301 10.8429L206.964 11.2121C206.608 11.3104 206.242 11.1103 206.06 10.7888C206.005 10.6911 205.944 10.5954 205.879 10.5014C205.686 10.2223 205.445 9.96998 205.155 9.74453C204.897 9.51909 204.602 9.35806 204.269 9.26144C203.947 9.16482 203.609 9.11651 203.255 9.11651C202.707 9.11651 202.208 9.22923 201.757 9.45468C201.317 9.66939 200.936 9.98071 200.614 10.3887C200.292 10.7966 200.071 11.2743 199.953 11.8218C199.835 12.3693 199.776 12.9168 199.776 13.4643C199.776 14.0441 199.841 14.6023 199.97 15.1391C200.109 15.6758 200.324 16.1536 200.614 16.5722C200.914 16.9802 201.29 17.2915 201.741 17.5062C202.192 17.7209 202.707 17.8283 203.287 17.8283C204.081 17.8283 204.725 17.635 205.219 17.2486C205.477 17.0339 205.686 16.8031 205.847 16.5561C205.91 16.4599 205.97 16.3589 206.028 16.2529C206.192 15.9531 206.526 15.7746 206.859 15.8508L208.207 16.1595C208.609 16.2514 208.848 16.6707 208.674 17.0441C208.513 17.3914 208.322 17.7172 208.102 18.0215C207.747 18.5153 207.339 18.934 206.878 19.2776C206.395 19.6211 205.869 19.8841 205.3 20.0666C204.731 20.2491 204.054 20.3404 203.271 20.3404ZM203.061 23.1584C204.392 23.1584 205.638 22.9115 206.797 22.4177C207.967 21.9131 208.993 21.2207 209.873 20.3404C210.764 19.4493 211.456 18.4187 211.95 17.2486C212.455 16.0784 212.707 14.8224 212.707 13.4804C212.707 12.1493 212.455 10.904 211.95 9.74453C211.456 8.57438 210.764 7.54915 209.873 6.66884C208.993 5.77781 207.967 5.08537 206.797 4.59155C205.638 4.08698 204.392 3.8347 203.061 3.8347C201.719 3.8347 200.463 4.08698 199.293 4.59155C198.123 5.08537 197.092 5.77781 196.201 6.66884C195.321 7.54915 194.629 8.57438 194.124 9.74453C193.63 10.904 193.383 12.1493 193.383 13.4804C193.383 14.8224 193.63 16.0784 194.124 17.2486C194.629 18.4187 195.321 19.4493 196.201 20.3404C197.092 21.2207 198.123 21.9131 199.293 22.4177C200.463 22.9115 201.719 23.1584 203.061 23.1584Z" fill="black"/>
</svg>
