<svg width="201" height="87" viewBox="0 0 201 87" fill="none" xmlns="http://www.w3.org/2000/svg">
<path d="M87.3134 37.9578C87.2073 38.5723 86.6742 39.0212 86.0506 39.0212H83.4265C82.6301 39.0212 82.0266 38.3025 82.1643 37.5181L85.7744 16.955C85.882 16.3421 86.4143 15.8951 87.0365 15.8951H101.779C102.575 15.8951 103.179 16.6138 103.041 17.3982L102.744 19.0902C102.636 19.703 102.104 20.15 101.482 20.15H91.489C90.8656 20.15 90.3326 20.5987 90.2263 21.213L89.7929 23.717C89.6573 24.5004 90.2605 25.217 91.0556 25.217H99.1005C99.9019 25.217 100.507 25.9443 100.361 26.7322L100.089 28.1968C99.9762 28.804 99.4465 29.2446 98.8289 29.2446H89.8978C89.2742 29.2446 88.7412 29.6934 88.635 30.3079L87.3134 37.9578Z" fill="white"/>
<path d="M116.995 37.9519C116.891 38.5691 116.357 39.0212 115.731 39.0212H102.361C101.564 39.0212 100.961 38.3025 101.098 37.5181L104.709 16.955C104.816 16.3421 105.349 15.8951 105.971 15.8951H108.595C109.393 15.8951 109.996 16.6153 109.857 17.4003L107.045 33.261C106.906 34.046 107.51 34.7662 108.307 34.7662H116.015C116.807 34.7662 117.41 35.4784 117.279 36.26L116.995 37.9519Z" fill="white"/>
<path d="M128.245 39.346C121.879 39.346 118.014 35.6107 118.014 29.9591C118.014 21.6117 123.113 15.5703 131.558 15.5703C137.859 15.5703 141.79 19.3056 141.79 24.9571C141.79 33.3046 136.95 39.346 128.245 39.346ZM128.602 35.091C133.734 35.091 136.56 30.6087 136.56 25.3469C136.56 21.904 134.416 19.8252 131.201 19.8252C126.069 19.8252 123.243 24.3075 123.243 29.5694C123.243 33.0123 125.387 35.091 128.602 35.091Z" fill="white"/>
<path d="M165.701 38.2691C165.493 38.727 165.037 39.0212 164.534 39.0212H160.394C159.717 39.0212 159.156 38.4942 159.115 37.8183L158.556 28.7323C158.473 27.3745 156.61 27.0651 156.092 28.3229L152.013 38.2277C151.815 38.7078 151.347 39.0212 150.828 39.0212H146.444C145.787 39.0212 145.236 38.5241 145.169 37.8704L143.061 17.3073C142.983 16.5518 143.576 15.8951 144.336 15.8951H147.24C147.914 15.8951 148.473 16.4176 148.518 17.0904L149.208 27.3128C149.299 28.6633 151.149 28.9686 151.669 27.719L156.262 16.6842C156.461 16.2064 156.928 15.8951 157.445 15.8951H160.747C161.423 15.8951 161.983 16.4205 162.026 17.0953L162.675 27.3046C162.761 28.6559 164.611 28.9679 165.135 27.7196L169.772 16.6803C169.972 16.2046 170.438 15.8951 170.954 15.8951H173.863C174.794 15.8951 175.415 16.8576 175.03 17.706L165.701 38.2691Z" fill="white"/>
<path d="M91.1573 70.7425C85.2784 70.7425 82.1927 68.3714 82.1927 63.9541C82.1927 63.3457 82.7235 62.8822 83.3319 62.8822H86.0106C86.7184 62.8822 87.265 63.4657 87.428 64.1545C87.8686 66.0162 89.3686 66.8448 91.742 66.8448C94.7301 66.8448 96.679 65.5131 96.679 63.4668C96.679 62.0377 95.737 61.3231 92.8463 60.9009L90.2154 60.5111C86.3177 59.959 84.3689 58.1725 84.3689 54.8595C84.3689 49.8576 88.2341 46.9668 94.4703 46.9668C99.8945 46.9668 102.883 49.5977 102.883 53.6578C102.883 54.1391 102.486 54.5023 102.005 54.5023H99.2597C98.5519 54.5023 98.009 53.9145 97.8065 53.2363C97.3622 51.7476 96.0553 50.8644 93.8857 50.8644C91.3847 50.8644 89.5982 52.0337 89.5982 54.08C89.5982 55.4767 90.2803 56.0613 92.8138 56.4186L95.4772 56.7759C99.4073 57.3605 101.908 59.2769 101.908 62.7848C101.908 67.7218 98.238 70.7425 91.1573 70.7425Z" fill="white"/>
<path d="M112.661 69.3578C112.553 69.9706 112.021 70.4177 111.398 70.4177H108.771C107.975 70.4177 107.371 69.6989 107.509 68.9146L110.294 53.0496C110.432 52.2652 109.828 51.5465 109.032 51.5465H105.231C104.435 51.5465 103.831 50.8278 103.969 50.0434L104.266 48.3515C104.373 47.7386 104.906 47.2916 105.528 47.2916H121.894C122.691 47.2916 123.294 48.0103 123.157 48.7947L122.859 50.4867C122.752 51.0995 122.22 51.5465 121.597 51.5465H116.864C116.241 51.5465 115.709 51.9936 115.601 52.6064L112.661 69.3578Z" fill="white"/>
<path d="M142.768 52.7808C142.768 54.5847 142.429 55.9334 141.749 56.9636C141.018 58.0715 140.592 61.7342 140.652 63.0601C140.655 63.1404 140.657 63.2219 140.657 63.3044C140.657 63.6617 140.625 64.0515 140.56 64.4737L139.943 68.0791C139.845 68.6312 139.813 69.1834 139.813 69.6056C139.813 70.0152 139.47 70.4177 139.06 70.4177H135.767C135.215 70.4177 134.705 70.0659 134.643 69.5177C134.626 69.3613 134.616 69.196 134.616 69.021C134.616 68.7287 134.648 68.4363 134.713 68.0791L135.33 64.6686C135.395 64.2789 135.428 63.8891 135.428 63.5643C135.428 61.9403 134.421 61.3881 132.472 61.3881H128.842C128.218 61.3881 127.685 61.837 127.579 62.4515L126.387 69.3542C126.281 69.9687 125.748 70.4177 125.124 70.4177H122.5C121.704 70.4177 121.1 69.6989 121.238 68.9146L124.848 48.3515C124.956 47.7386 125.488 47.2916 126.11 47.2916H135.46C140.203 47.2916 142.768 49.6302 142.768 52.7808ZM137.507 53.5928C137.507 51.8064 136.272 51.1893 133.641 51.1893H130.652C130.032 51.1893 129.501 51.6331 129.391 52.2432L128.717 55.9814C128.575 56.7676 129.179 57.4904 129.978 57.4904H133.349C136.272 57.4904 137.507 56.1912 137.507 53.5928Z" fill="white"/>
<path d="M147.576 69.3578C147.468 69.9706 146.936 70.4177 146.314 70.4177H143.686C142.89 70.4177 142.287 69.6989 142.424 68.9146L146.034 48.3515C146.142 47.7386 146.674 47.2916 147.297 47.2916H149.924C150.72 47.2916 151.324 48.0103 151.186 48.7947L147.576 69.3578Z" fill="white"/>
<path d="M173.6 56.3536C173.6 64.8635 169.118 70.4177 160.088 70.4177H151.773C150.976 70.4177 150.373 69.6989 150.511 68.9146L154.121 48.3515C154.228 47.7386 154.761 47.2916 155.383 47.2916H163.304C169.897 47.2916 173.6 50.5396 173.6 56.3536ZM168.371 56.7434C168.371 53.3005 166.357 51.3841 163.239 51.3841H159.865C159.243 51.3841 158.71 51.8308 158.602 52.4434L156.423 64.8214C156.285 65.606 156.888 66.3251 157.685 66.3251H160.705C165.74 66.3251 168.371 62.0052 168.371 56.7434Z" fill="white"/>
<path d="M190.892 69.3484C190.788 69.9656 190.254 70.4177 189.628 70.4177H174.894C174.098 70.4177 173.494 69.6989 173.632 68.9146L177.242 48.3515C177.349 47.7386 177.882 47.2916 178.504 47.2916H193.246C194.043 47.2916 194.646 48.0103 194.508 48.7947L194.211 50.4867C194.104 51.0995 193.571 51.5465 192.949 51.5465H182.956C182.333 51.5465 181.8 51.9952 181.694 52.6095L181.26 55.1134C181.125 55.8969 181.728 56.6135 182.523 56.6135H190.568C191.369 56.6135 191.974 57.3407 191.828 58.1287L191.556 59.5933C191.444 60.2005 190.914 60.641 190.296 60.641H181.361C180.739 60.641 180.207 61.0875 180.099 61.6998L179.577 64.6585C179.439 65.4432 180.042 66.1627 180.839 66.1627H189.912C190.705 66.1627 191.307 66.8749 191.176 67.6564L190.892 69.3484Z" fill="white"/>
<path d="M16.5346 23.181V40.3135C16.5346 41.7507 15.782 43.0829 14.551 43.8246L1.49245 51.6936C0.566274 52.2517 0 53.254 0 54.3354C0 55.4373 0.587877 56.4555 1.54219 57.0065L51.2574 85.7096C52.2361 86.2746 53.4723 86.1119 54.2714 85.3128C54.7397 84.8445 55.0027 84.2094 55.0027 83.5472V66.7679C55.0027 65.3034 55.7841 63.9501 57.0524 63.2178L67.7087 57.0654C70.4416 55.4875 70.4416 51.543 67.7087 49.9651L57.0524 43.8127C55.7841 43.0805 54.2214 43.0805 52.9531 43.8127L38.1975 52.3319C36.9291 53.0642 35.3665 53.0642 34.0982 52.3319L20.3792 44.4112C19.6059 43.9648 19.2289 43.0547 19.46 42.1922C19.5954 41.6868 19.9261 41.2559 20.3792 40.9943L53.2825 21.9976C54.5508 21.2653 55.3321 19.912 55.3321 18.4475V2.58228C55.3321 1.49317 54.6006 0.539852 53.5486 0.257971C52.9322 0.0927949 52.2754 0.179267 51.7227 0.498363L18.5842 19.6309C17.3159 20.3631 16.5346 21.7164 16.5346 23.181Z" fill="#D4E613"/>
<path d="M187.649 29.9621V21.3738H191.943C192.362 21.3738 192.781 21.4785 193.2 21.688C193.627 21.8897 193.98 22.2 194.259 22.619C194.546 23.0302 194.69 23.5422 194.69 24.1551C194.69 24.7757 194.542 25.3033 194.248 25.7377C193.953 26.1722 193.584 26.5019 193.142 26.7269C192.7 26.9519 192.258 27.0644 191.815 27.0644H188.766V25.5865H191.28C191.559 25.5865 191.835 25.4662 192.106 25.2257C192.386 24.9852 192.525 24.6283 192.525 24.1551C192.525 23.6586 192.386 23.3172 192.106 23.131C191.835 22.9448 191.571 22.8517 191.315 22.8517H189.651V29.9621H187.649ZM192.933 25.9356L195.016 29.9621H192.816L190.815 25.9356H192.933ZM190.943 35.0824C189.655 35.0824 188.448 34.8419 187.323 34.3609C186.198 33.8799 185.209 33.2127 184.356 32.3593C183.503 31.5059 182.835 30.5168 182.354 29.3918C181.873 28.2669 181.633 27.0605 181.633 25.7727C181.633 24.4848 181.873 23.2784 182.354 22.1535C182.835 21.0286 183.503 20.0394 184.356 19.186C185.209 18.3326 186.198 17.6654 187.323 17.1844C188.448 16.7034 189.655 16.4629 190.943 16.4629C192.23 16.4629 193.437 16.7034 194.562 17.1844C195.687 17.6654 196.676 18.3326 197.529 19.186C198.383 20.0394 199.05 21.0286 199.531 22.1535C200.012 23.2784 200.252 24.4848 200.252 25.7727C200.252 27.0605 200.012 28.2669 199.531 29.3918C199.05 30.5168 198.383 31.5059 197.529 32.3593C196.676 33.2127 195.687 33.8799 194.562 34.3609C193.437 34.8419 192.23 35.0824 190.943 35.0824ZM190.943 32.7783C192.23 32.7783 193.402 32.464 194.457 31.8356C195.52 31.1995 196.366 30.3538 196.994 29.2987C197.622 28.2359 197.937 27.0605 197.937 25.7727C197.937 24.4848 197.622 23.3133 196.994 22.2582C196.366 21.1954 195.52 20.3497 194.457 19.7213C193.402 19.0851 192.23 18.7671 190.943 18.7671C189.655 18.7671 188.479 19.0851 187.417 19.7213C186.354 20.3497 185.508 21.1954 184.88 22.2582C184.251 23.3133 183.937 24.4848 183.937 25.7727C183.937 27.0605 184.251 28.2359 184.88 29.2987C185.508 30.3538 186.354 31.1995 187.417 31.8356C188.479 32.464 189.655 32.7783 190.943 32.7783Z" fill="white"/>
</svg>
