<svg width="197" height="50" viewBox="0 0 197 50" fill="none" xmlns="http://www.w3.org/2000/svg">
<path d="M124.697 22.1378H120.431L114.85 6.79538H118.577L122.564 18.6901L126.55 6.79538H130.278L124.697 22.1378Z" fill="black"/>
<path d="M134.537 22.1378H131.068V6.79538H134.537V22.1378Z" fill="black"/>
<path d="M142.265 22.3533C137.89 22.3533 135.736 20.4355 135.736 17.1386H139.14C139.356 18.9702 140.239 19.7675 142.351 19.7675C144.376 19.7675 145.325 18.9056 145.325 17.742C145.325 16.7723 144.764 16.1689 142.523 15.8457L140.735 15.5871C137.481 15.1346 136.123 14.0356 136.123 11.3636C136.123 8.60544 138.171 6.5799 142.265 6.5799C146.359 6.5799 148.406 8.58389 148.406 11.5791H145.109C144.915 9.98454 143.989 9.1657 142.179 9.1657C140.368 9.1657 139.593 9.98454 139.593 11.1482C139.593 12.1178 140.045 12.5488 141.985 12.8289L143.773 13.066C146.984 13.54 148.794 14.7467 148.794 17.5265C148.794 20.3493 146.639 22.3533 142.265 22.3533Z" fill="black"/>
<path d="M153.498 22.1378H150.029V6.79538H153.498V22.1378Z" fill="black"/>
<path d="M161.829 22.3533C157.368 22.3533 155.106 20.2847 155.106 16.3198V6.79538H158.575V15.975C158.575 18.647 159.566 19.5305 161.829 19.5305C164.092 19.5305 165.083 18.647 165.083 15.975V6.79538H168.552V16.3198C168.552 20.2847 166.289 22.3533 161.829 22.3533Z" fill="black"/>
<path d="M187.471 22.1378H184.174V9.89835L180.273 22.1378H177.364L173.486 9.89835V22.1378H170.189V6.79538H175.641L178.83 16.8585L182.019 6.79538H187.471V22.1378Z" fill="black"/>
<path d="M129.955 35.5339C129.955 40.3823 127.283 43.2052 122.176 43.2052H115.905V27.8627H122.176C127.283 27.8627 129.955 30.6856 129.955 35.5339ZM126.486 35.5339C126.486 32.237 125.107 30.5778 122.348 30.5778H119.375V40.4901H122.348C125.107 40.4901 126.486 38.8308 126.486 35.5339Z" fill="black"/>
<path d="M134.965 43.2052H131.496V27.8627H134.965V43.2052Z" fill="black"/>
<path d="M143.921 43.4206C139.181 43.4206 136.487 40.2099 136.487 35.5339C136.487 30.8579 139.353 27.6472 144.266 27.6472C148.856 27.6472 151.312 30.2761 151.312 33.0343H148.166C147.779 31.6121 146.486 30.4701 144.266 30.4701C141.4 30.4701 139.956 32.2801 139.956 35.5339C139.956 38.7877 141.4 40.5978 144.266 40.5978C146.809 40.5978 147.994 39.2403 148.188 36.9992H144.676V34.6505H151.485V43.2052H149.007L148.684 40.921C147.972 42.5587 146.486 43.4206 143.921 43.4206Z" fill="black"/>
<path d="M156.908 43.2052H153.439V27.8627H156.908V43.2052Z" fill="black"/>
<path d="M166.209 43.2052H162.74V30.6856H158.193V27.8627H170.778V30.6856H166.209V43.2052Z" fill="black"/>
<path d="M184.41 43.2052H180.855L179.863 40.3608H173.528L172.537 43.2052H168.981L174.563 27.8627H178.829L184.41 43.2052ZM179.023 37.7103L176.696 30.9657L174.369 37.7103H179.023Z" fill="black"/>
<path d="M196.125 43.2052H185.523V27.8627H188.992V40.3823H196.125V43.2052Z" fill="black"/>
<path d="M32.6411 46.8258C30.5823 50.3917 25.4354 50.3917 23.3766 46.8258L1.26285 8.52356C-0.795925 4.95765 1.77754 0.500268 5.89509 0.500268L50.1227 0.500272C54.2402 0.500272 56.8137 4.95765 54.7549 8.52355L32.6411 46.8258Z" fill="black"/>
<path d="M61.0225 6.1567C61.0225 3.03276 63.5549 0.500305 66.6789 0.500305H82.5818C96.1127 0.500305 107.082 11.4693 107.082 25.0002C107.082 38.5312 96.1127 49.5002 82.5818 49.5002H65.0185C62.8115 49.5002 61.0225 47.7111 61.0225 45.5042V6.1567Z" fill="black"/>
</svg>
