<svg width="50" height="56" viewBox="0 0 50 56" fill="none" xmlns="http://www.w3.org/2000/svg">
<path d="M15.7606 13.6722V7.29805C15.612 4.88003 16.8547 2.48904 20.3061 2.41474H23.6157C25.7497 2.40951 27.8744 2.69583 29.9309 3.26577C31.9343 3.81821 33.8574 4.62876 35.6517 5.67704C39.2179 7.75606 42.2083 10.693 44.3512 14.2211C45.4231 15.9887 46.2523 17.8925 46.8165 19.8812C47.4005 21.926 47.6939 24.0428 47.6878 26.1694C47.7075 29.3312 47.0512 32.4608 45.7628 35.3484C44.8413 37.4214 43.6428 39.3369 42.2133 41.0499M15.7606 38.6931V45.4189C15.7654 46.0089 15.8891 46.5918 16.1243 47.1329C16.3595 47.674 16.7014 48.1621 17.1295 48.5682C17.5575 48.9742 18.0631 49.2897 18.6158 49.496C19.1686 49.7023 19.7573 49.795 20.3467 49.7686H23.6157C25.7534 49.7814 27.8778 49.502 29.9309 48.9422" stroke="black" stroke-width="3.49829" stroke-miterlimit="3.86"/>
<path d="M26.2553 31.0726L26.2747 31.0594L26.2938 31.0457C27.1771 30.4125 27.8886 29.5694 28.3633 28.5925C28.789 27.7633 29.0002 26.8408 28.9772 25.9088C28.9542 24.9753 28.697 24.063 28.2297 23.2548C27.7195 22.3335 26.9956 21.5478 26.1189 20.9633C26.1183 20.9629 26.1177 20.9625 26.1171 20.9621L10.7746 10.6876C10.7745 10.6875 10.7743 10.6874 10.7742 10.6873C8.48939 9.15498 6.31385 8.67726 4.54062 9.58152C2.83453 10.4515 2.21727 12.2475 2.21714 13.6029C2.21714 13.603 2.21714 13.6032 2.21714 13.6033L2.21106 38.2628L2.21105 38.289L2.21184 38.3153C2.24338 39.3751 2.54282 40.3663 3.15855 41.1708C3.77972 41.9824 4.63945 42.4934 5.58741 42.7155C7.42367 43.1456 9.49169 42.4989 11.3006 41.1961L26.2553 31.0726Z" stroke="black" stroke-width="3.49829"/>
<path d="M37.5023 54.0273C41.5952 54.0273 44.9933 50.7848 44.9933 46.6874C44.9933 42.59 41.5952 39.3475 37.5023 39.3475C33.4094 39.3475 30.0114 42.59 30.0114 46.6874C30.0114 50.7848 33.4094 54.0273 37.5023 54.0273Z" stroke="black" stroke-width="3.49829"/>
</svg>
