<svg width="224" height="234" viewBox="0 0 224 234" fill="none" xmlns="http://www.w3.org/2000/svg">
<rect x="0.688477" y="0.68457" width="222.443" height="232.805" rx="17" fill="#CDFFDE"/>
<g clip-path="url(#clip0_4352_113)">
<rect x="22.0127" y="94.4111" width="51.3247" height="51.3247" rx="10.848" fill="black"/>
<path d="M61.2239 107.431L57.7823 132.382L47.4575 135.824L37.1328 132.382L33.6912 107.431H61.2239Z" stroke="#CDFFDE" stroke-width="2.18225" stroke-linecap="round" stroke-linejoin="round"/>
<path d="M53.3803 114.744H41.3347L42.1951 121.627H52.5199L51.6595 127.65L47.3575 128.941L43.0555 127.65L42.8834 126.79" stroke="#CDFFDE" stroke-width="2.18225" stroke-linecap="round" stroke-linejoin="round"/>
</g>
<path d="M27.0727 172.736L22.1127 158.336H23.6427L28.0327 171.066L32.4527 158.336H33.9827L29.0227 172.736H27.0727ZM34.8924 159.886V158.236H36.3624V159.886H34.8924ZM34.8924 172.736V161.936H36.3624V172.736H34.8924ZM43.5304 173.036C42.477 173.036 41.5637 172.803 40.7904 172.336C40.0237 171.869 39.427 171.213 39.0004 170.366C38.5737 169.519 38.3604 168.526 38.3604 167.386C38.3604 166.206 38.5704 165.186 38.9904 164.326C39.4104 163.466 40.0004 162.803 40.7604 162.336C41.527 161.869 42.4304 161.636 43.4704 161.636C44.537 161.636 45.447 161.883 46.2004 162.376C46.9537 162.863 47.5237 163.563 47.9104 164.476C48.297 165.389 48.4737 166.479 48.4404 167.746H46.9404V167.226C46.9137 165.826 46.6104 164.769 46.0304 164.056C45.457 163.343 44.617 162.986 43.5104 162.986C42.3504 162.986 41.4604 163.363 40.8404 164.116C40.227 164.869 39.9204 165.943 39.9204 167.336C39.9204 168.696 40.227 169.753 40.8404 170.506C41.4604 171.253 42.337 171.626 43.4704 171.626C44.2437 171.626 44.917 171.449 45.4904 171.096C46.0704 170.736 46.527 170.219 46.8604 169.546L48.2304 170.076C47.8037 171.016 47.1737 171.746 46.3404 172.266C45.5137 172.779 44.577 173.036 43.5304 173.036ZM39.4004 167.746V166.516H47.6504V167.746H39.4004ZM50.2596 172.736V161.936H51.5796V164.536L51.3196 164.196C51.4396 163.876 51.5962 163.583 51.7896 163.316C51.9829 163.043 52.1929 162.819 52.4196 162.646C52.6996 162.399 53.0262 162.213 53.3996 162.086C53.7729 161.953 54.1496 161.876 54.5296 161.856C54.9096 161.829 55.2562 161.856 55.5696 161.936V163.316C55.1762 163.216 54.7462 163.193 54.2796 163.246C53.8129 163.299 53.3829 163.486 52.9896 163.806C52.6296 164.086 52.3596 164.423 52.1796 164.816C51.9996 165.203 51.8796 165.616 51.8196 166.056C51.7596 166.489 51.7296 166.919 51.7296 167.346V172.736H50.2596ZM64.8666 172.736V167.226C64.8666 166.626 64.8099 166.076 64.6966 165.576C64.5833 165.069 64.3999 164.629 64.1466 164.256C63.8999 163.876 63.5766 163.583 63.1766 163.376C62.7833 163.169 62.3033 163.066 61.7366 163.066C61.2166 163.066 60.7566 163.156 60.3566 163.336C59.9633 163.516 59.6299 163.776 59.3566 164.116C59.0899 164.449 58.8866 164.856 58.7466 165.336C58.6066 165.816 58.5366 166.363 58.5366 166.976L57.4966 166.746C57.4966 165.639 57.6899 164.709 58.0766 163.956C58.4633 163.203 58.9966 162.633 59.6766 162.246C60.3566 161.859 61.1366 161.666 62.0166 161.666C62.6633 161.666 63.2266 161.766 63.7066 161.966C64.1933 162.166 64.6033 162.436 64.9366 162.776C65.2766 163.116 65.5499 163.506 65.7566 163.946C65.9633 164.379 66.1133 164.843 66.2066 165.336C66.2999 165.823 66.3466 166.309 66.3466 166.796V172.736H64.8666ZM57.0566 172.736V161.936H58.3866V164.596H58.5366V172.736H57.0566ZM73.053 173.036C71.9997 173.036 71.0863 172.803 70.313 172.336C69.5463 171.869 68.9497 171.213 68.523 170.366C68.0963 169.519 67.883 168.526 67.883 167.386C67.883 166.206 68.093 165.186 68.513 164.326C68.933 163.466 69.523 162.803 70.283 162.336C71.0497 161.869 71.953 161.636 72.993 161.636C74.0597 161.636 74.9697 161.883 75.723 162.376C76.4763 162.863 77.0463 163.563 77.433 164.476C77.8197 165.389 77.9963 166.479 77.963 167.746H76.463V167.226C76.4363 165.826 76.133 164.769 75.553 164.056C74.9797 163.343 74.1397 162.986 73.033 162.986C71.873 162.986 70.983 163.363 70.363 164.116C69.7497 164.869 69.443 165.943 69.443 167.336C69.443 168.696 69.7497 169.753 70.363 170.506C70.983 171.253 71.8597 171.626 72.993 171.626C73.7663 171.626 74.4397 171.449 75.013 171.096C75.593 170.736 76.0497 170.219 76.383 169.546L77.753 170.076C77.3263 171.016 76.6963 171.746 75.863 172.266C75.0363 172.779 74.0997 173.036 73.053 173.036ZM68.923 167.746V166.516H77.173V167.746H68.923ZM83.8122 173.026C82.5456 173.026 81.5022 172.753 80.6822 172.206C79.8689 171.659 79.3689 170.899 79.1822 169.926L80.6822 169.676C80.8422 170.289 81.2056 170.779 81.7722 171.146C82.3456 171.506 83.0522 171.686 83.8922 171.686C84.7122 171.686 85.3589 171.516 85.8322 171.176C86.3056 170.829 86.5422 170.359 86.5422 169.766C86.5422 169.433 86.4656 169.163 86.3122 168.956C86.1656 168.743 85.8622 168.546 85.4022 168.366C84.9422 168.186 84.2556 167.973 83.3422 167.726C82.3622 167.459 81.5956 167.193 81.0422 166.926C80.4889 166.659 80.0956 166.353 79.8622 166.006C79.6289 165.653 79.5122 165.223 79.5122 164.716C79.5122 164.103 79.6856 163.566 80.0322 163.106C80.3789 162.639 80.8589 162.279 81.4722 162.026C82.0856 161.766 82.7989 161.636 83.6122 161.636C84.4256 161.636 85.1522 161.769 85.7922 162.036C86.4389 162.296 86.9589 162.663 87.3522 163.136C87.7456 163.609 87.9789 164.159 88.0522 164.786L86.5522 165.056C86.4522 164.423 86.1356 163.923 85.6022 163.556C85.0756 163.183 84.4056 162.989 83.5922 162.976C82.8256 162.956 82.2022 163.103 81.7222 163.416C81.2422 163.723 81.0022 164.133 81.0022 164.646C81.0022 164.933 81.0889 165.179 81.2622 165.386C81.4356 165.586 81.7489 165.776 82.2022 165.956C82.6622 166.136 83.3156 166.333 84.1622 166.546C85.1556 166.799 85.9356 167.066 86.5022 167.346C87.0689 167.626 87.4722 167.956 87.7122 168.336C87.9522 168.716 88.0722 169.186 88.0722 169.746C88.0722 170.766 87.6922 171.569 86.9322 172.156C86.1789 172.736 85.1389 173.026 83.8122 173.026ZM101.288 173.036C100.281 173.036 99.4212 172.786 98.7079 172.286C97.9945 171.779 97.4479 171.096 97.0679 170.236C96.6879 169.376 96.4979 168.406 96.4979 167.326C96.4979 166.253 96.6845 165.286 97.0579 164.426C97.4379 163.566 97.9812 162.886 98.6879 162.386C99.3945 161.886 100.241 161.636 101.228 161.636C102.241 161.636 103.095 161.883 103.788 162.376C104.481 162.869 105.005 163.546 105.358 164.406C105.718 165.259 105.898 166.233 105.898 167.326C105.898 168.399 105.721 169.369 105.368 170.236C105.015 171.096 104.495 171.779 103.808 172.286C103.121 172.786 102.281 173.036 101.288 173.036ZM101.438 171.666C102.205 171.666 102.838 171.479 103.338 171.106C103.838 170.733 104.211 170.219 104.458 169.566C104.705 168.906 104.828 168.159 104.828 167.326C104.828 166.479 104.705 165.733 104.458 165.086C104.211 164.433 103.838 163.923 103.338 163.556C102.845 163.189 102.221 163.006 101.468 163.006C100.695 163.006 100.055 163.196 99.5479 163.576C99.0412 163.956 98.6645 164.473 98.4179 165.126C98.1779 165.779 98.0579 166.513 98.0579 167.326C98.0579 168.146 98.1812 168.886 98.4279 169.546C98.6812 170.199 99.0579 170.716 99.5579 171.096C100.058 171.476 100.685 171.666 101.438 171.666ZM104.828 172.736V164.606H104.668V158.336H106.148V172.736H104.828ZM113.123 173.036C112.07 173.036 111.157 172.803 110.383 172.336C109.617 171.869 109.02 171.213 108.593 170.366C108.167 169.519 107.953 168.526 107.953 167.386C107.953 166.206 108.163 165.186 108.583 164.326C109.003 163.466 109.593 162.803 110.353 162.336C111.12 161.869 112.023 161.636 113.063 161.636C114.13 161.636 115.04 161.883 115.793 162.376C116.547 162.863 117.117 163.563 117.503 164.476C117.89 165.389 118.067 166.479 118.033 167.746H116.533V167.226C116.507 165.826 116.203 164.769 115.623 164.056C115.05 163.343 114.21 162.986 113.103 162.986C111.943 162.986 111.053 163.363 110.433 164.116C109.82 164.869 109.513 165.943 109.513 167.336C109.513 168.696 109.82 169.753 110.433 170.506C111.053 171.253 111.93 171.626 113.063 171.626C113.837 171.626 114.51 171.449 115.083 171.096C115.663 170.736 116.12 170.219 116.453 169.546L117.823 170.076C117.397 171.016 116.767 171.746 115.933 172.266C115.107 172.779 114.17 173.036 113.123 173.036ZM108.993 167.746V166.516H117.243V167.746H108.993ZM127.06 172.736V158.336H128.53V164.826H136.49V158.336H137.95V172.736H136.49V166.236H128.53V172.736H127.06ZM144.182 172.736V159.746H139.152V158.336H150.682V159.746H145.652V172.736H144.182ZM151.885 172.736V158.336H153.235L158.895 170.446L164.525 158.336H165.895V172.726H164.495V161.616L159.365 172.736H158.415L153.295 161.616V172.736H151.885ZM168.502 172.736V158.336H169.972V171.326H176.812V172.736H168.502Z" fill="black"/>
<path d="M28.0047 195.605C26.8527 195.605 25.866 195.355 25.0447 194.853C24.2234 194.347 23.5914 193.643 23.1487 192.741C22.7114 191.84 22.4927 190.795 22.4927 189.605C22.4927 188.416 22.7114 187.371 23.1487 186.469C23.5914 185.568 24.2234 184.867 25.0447 184.365C25.866 183.859 26.8527 183.605 28.0047 183.605C29.3327 183.605 30.4394 183.939 31.3247 184.605C32.21 185.267 32.8314 186.16 33.1887 187.285L31.2447 187.821C31.0207 187.069 30.6394 186.483 30.1007 186.061C29.562 185.635 28.8634 185.421 28.0047 185.421C27.2314 185.421 26.586 185.595 26.0687 185.941C25.5567 186.288 25.17 186.776 24.9087 187.405C24.6527 188.029 24.522 188.763 24.5167 189.605C24.5167 190.448 24.6447 191.184 24.9007 191.813C25.162 192.437 25.5514 192.923 26.0687 193.269C26.586 193.616 27.2314 193.789 28.0047 193.789C28.8634 193.789 29.562 193.576 30.1007 193.149C30.6394 192.723 31.0207 192.136 31.2447 191.389L33.1887 191.925C32.8314 193.051 32.21 193.947 31.3247 194.613C30.4394 195.275 29.3327 195.605 28.0047 195.605ZM34.7852 195.365V183.605H36.7132V195.365H34.7852ZM41.2056 195.605C40.5816 195.605 40.0536 195.488 39.6216 195.253C39.1896 195.013 38.8616 194.696 38.6376 194.301C38.4189 193.907 38.3096 193.472 38.3096 192.997C38.3096 192.581 38.3789 192.208 38.5176 191.877C38.6562 191.541 38.8696 191.253 39.1576 191.013C39.4456 190.768 39.8189 190.568 40.2776 190.413C40.6242 190.301 41.0296 190.2 41.4936 190.109C41.9629 190.019 42.4696 189.936 43.0136 189.861C43.5629 189.781 44.1362 189.696 44.7336 189.605L44.0456 189.997C44.0509 189.4 43.9176 188.96 43.6456 188.677C43.3736 188.395 42.9149 188.253 42.2696 188.253C41.8802 188.253 41.5042 188.344 41.1416 188.525C40.7789 188.707 40.5256 189.019 40.3816 189.461L38.6216 188.909C38.8349 188.179 39.2402 187.592 39.8376 187.149C40.4402 186.707 41.2509 186.485 42.2696 186.485C43.0376 186.485 43.7122 186.611 44.2936 186.861C44.8802 187.112 45.3149 187.523 45.5976 188.093C45.7522 188.397 45.8456 188.709 45.8776 189.029C45.9096 189.344 45.9256 189.688 45.9256 190.061V195.365H44.2376V193.493L44.5176 193.797C44.1282 194.421 43.6722 194.88 43.1496 195.173C42.6322 195.461 41.9842 195.605 41.2056 195.605ZM41.5896 194.069C42.0269 194.069 42.4002 193.992 42.7096 193.837C43.0189 193.683 43.2642 193.493 43.4456 193.269C43.6322 193.045 43.7576 192.835 43.8216 192.637C43.9229 192.392 43.9789 192.112 43.9896 191.797C44.0056 191.477 44.0136 191.219 44.0136 191.021L44.6056 191.197C44.0242 191.288 43.5256 191.368 43.1096 191.437C42.6936 191.507 42.3362 191.573 42.0376 191.637C41.7389 191.696 41.4749 191.763 41.2456 191.837C41.0216 191.917 40.8322 192.011 40.6776 192.117C40.5229 192.224 40.4029 192.347 40.3176 192.485C40.2376 192.624 40.1976 192.787 40.1976 192.973C40.1976 193.187 40.2509 193.376 40.3576 193.541C40.4642 193.701 40.6189 193.829 40.8216 193.925C41.0296 194.021 41.2856 194.069 41.5896 194.069ZM51.0243 195.605C49.9577 195.605 49.091 195.365 48.4243 194.885C47.7577 194.405 47.3523 193.731 47.2083 192.861L49.1763 192.557C49.2777 192.984 49.5017 193.32 49.8483 193.565C50.195 193.811 50.6323 193.933 51.1603 193.933C51.6243 193.933 51.9817 193.843 52.2323 193.661C52.4883 193.475 52.6163 193.221 52.6163 192.901C52.6163 192.704 52.5683 192.547 52.4723 192.429C52.3817 192.307 52.179 192.189 51.8643 192.077C51.5497 191.965 51.067 191.824 50.4163 191.653C49.691 191.461 49.115 191.256 48.6883 191.037C48.2617 190.813 47.955 190.549 47.7683 190.245C47.5817 189.941 47.4883 189.573 47.4883 189.141C47.4883 188.603 47.6297 188.133 47.9123 187.733C48.195 187.333 48.5897 187.027 49.0963 186.813C49.603 186.595 50.2003 186.485 50.8883 186.485C51.5603 186.485 52.155 186.589 52.6723 186.797C53.195 187.005 53.6163 187.301 53.9363 187.685C54.2563 188.069 54.4537 188.52 54.5283 189.037L52.5603 189.389C52.5123 189.021 52.3443 188.731 52.0563 188.517C51.7737 188.304 51.395 188.184 50.9203 188.157C50.467 188.131 50.1017 188.2 49.8243 188.365C49.547 188.525 49.4083 188.752 49.4083 189.045C49.4083 189.211 49.4643 189.352 49.5763 189.469C49.6883 189.587 49.9123 189.704 50.2483 189.821C50.5897 189.939 51.0963 190.083 51.7683 190.253C52.4563 190.429 53.0057 190.632 53.4163 190.861C53.8323 191.085 54.131 191.355 54.3123 191.669C54.499 191.984 54.5923 192.365 54.5923 192.813C54.5923 193.683 54.275 194.365 53.6403 194.861C53.011 195.357 52.139 195.605 51.0243 195.605ZM59.9526 195.605C59.0779 195.605 58.3099 195.416 57.6486 195.037C56.9872 194.659 56.4699 194.133 56.0966 193.461C55.7286 192.789 55.5446 192.016 55.5446 191.141C55.5446 190.197 55.7259 189.379 56.0886 188.685C56.4512 187.987 56.9552 187.445 57.6006 187.061C58.2459 186.677 58.9926 186.485 59.8406 186.485C60.7366 186.485 61.4966 186.696 62.1206 187.117C62.7499 187.533 63.2166 188.123 63.5206 188.885C63.8246 189.648 63.9392 190.547 63.8646 191.581H61.9526V190.877C61.9472 189.939 61.7819 189.253 61.4566 188.821C61.1312 188.389 60.6192 188.173 59.9206 188.173C59.1312 188.173 58.5446 188.419 58.1606 188.909C57.7766 189.395 57.5846 190.107 57.5846 191.045C57.5846 191.92 57.7766 192.597 58.1606 193.077C58.5446 193.557 59.1046 193.797 59.8406 193.797C60.3152 193.797 60.7232 193.693 61.0646 193.485C61.4112 193.272 61.6779 192.965 61.8646 192.565L63.7686 193.141C63.4379 193.92 62.9259 194.525 62.2326 194.957C61.5446 195.389 60.7846 195.605 59.9526 195.605ZM56.9766 191.581V190.125H62.9206V191.581H56.9766ZM67.4127 195.365L71.0447 183.845H73.8687L77.5007 195.365H75.5167L72.2207 185.029H72.6527L69.3967 195.365H67.4127ZM69.4367 192.869V191.069H75.4847V192.869H69.4367ZM82.7791 195.605C81.9364 195.605 81.2297 195.405 80.6591 195.005C80.0884 194.605 79.6591 194.061 79.3711 193.373C79.0831 192.68 78.9391 191.904 78.9391 191.045C78.9391 190.176 79.0831 189.397 79.3711 188.709C79.6591 188.021 80.0804 187.48 80.6351 187.085C81.1951 186.685 81.8857 186.485 82.7071 186.485C83.5231 186.485 84.2297 186.685 84.8271 187.085C85.4297 187.48 85.8964 188.021 86.2271 188.709C86.5577 189.392 86.7231 190.171 86.7231 191.045C86.7231 191.909 86.5604 192.685 86.2351 193.373C85.9097 194.061 85.4511 194.605 84.8591 195.005C84.2671 195.405 83.5737 195.605 82.7791 195.605ZM78.6111 195.365V183.845H80.5551V189.301H80.3151V195.365H78.6111ZM82.4831 193.877C82.9844 193.877 83.3977 193.752 83.7231 193.501C84.0484 193.251 84.2884 192.912 84.4431 192.485C84.6031 192.053 84.6831 191.573 84.6831 191.045C84.6831 190.523 84.6031 190.048 84.4431 189.621C84.2831 189.189 84.0351 188.848 83.6991 188.597C83.3631 188.341 82.9364 188.213 82.4191 188.213C81.9284 188.213 81.5284 188.333 81.2191 188.573C80.9097 188.808 80.6804 189.139 80.5311 189.565C80.3871 189.987 80.3151 190.48 80.3151 191.045C80.3151 191.605 80.3871 192.099 80.5311 192.525C80.6804 192.952 80.9124 193.285 81.2271 193.525C81.5471 193.76 81.9657 193.877 82.4831 193.877ZM88.3264 185.413V183.645H90.2544V185.413H88.3264ZM88.3264 195.365V186.725H90.2544V195.365H88.3264ZM96.2588 195.605C95.3842 195.605 94.6162 195.416 93.9548 195.037C93.2935 194.659 92.7762 194.133 92.4028 193.461C92.0348 192.789 91.8508 192.016 91.8508 191.141C91.8508 190.197 92.0322 189.379 92.3948 188.685C92.7575 187.987 93.2615 187.445 93.9068 187.061C94.5522 186.677 95.2988 186.485 96.1468 186.485C97.0428 186.485 97.8028 186.696 98.4268 187.117C99.0562 187.533 99.5228 188.123 99.8268 188.885C100.131 189.648 100.245 190.547 100.171 191.581H98.2588V190.877C98.2535 189.939 98.0882 189.253 97.7628 188.821C97.4375 188.389 96.9255 188.173 96.2268 188.173C95.4375 188.173 94.8508 188.419 94.4668 188.909C94.0828 189.395 93.8908 190.107 93.8908 191.045C93.8908 191.92 94.0828 192.597 94.4668 193.077C94.8508 193.557 95.4108 193.797 96.1468 193.797C96.6215 193.797 97.0295 193.693 97.3708 193.485C97.7175 193.272 97.9842 192.965 98.1708 192.565L100.075 193.141C99.7442 193.92 99.2322 194.525 98.5388 194.957C97.8508 195.389 97.0908 195.605 96.2588 195.605ZM93.2828 191.581V190.125H99.2268V191.581H93.2828ZM101.636 195.365V186.725H103.34V188.829L103.132 188.557C103.238 188.269 103.38 188.008 103.556 187.773C103.737 187.533 103.953 187.336 104.204 187.181C104.417 187.037 104.652 186.925 104.908 186.845C105.169 186.76 105.436 186.709 105.708 186.693C105.98 186.672 106.244 186.683 106.5 186.725V188.525C106.244 188.451 105.948 188.427 105.612 188.453C105.281 188.48 104.982 188.573 104.716 188.733C104.449 188.877 104.23 189.061 104.06 189.285C103.894 189.509 103.772 189.765 103.692 190.053C103.612 190.336 103.572 190.643 103.572 190.973V195.365H101.636ZM112.77 195.365C112.2 195.472 111.64 195.517 111.09 195.501C110.546 195.491 110.058 195.392 109.626 195.205C109.194 195.013 108.866 194.712 108.642 194.301C108.445 193.928 108.341 193.547 108.33 193.157C108.32 192.768 108.314 192.328 108.314 191.837V184.325H110.234V191.725C110.234 192.072 110.237 192.376 110.242 192.637C110.253 192.899 110.309 193.112 110.41 193.277C110.602 193.597 110.909 193.776 111.33 193.813C111.752 193.851 112.232 193.829 112.77 193.749V195.365ZM106.746 188.237V186.725H112.77V188.237H106.746ZM116.724 195.605C116.1 195.605 115.572 195.488 115.14 195.253C114.708 195.013 114.38 194.696 114.156 194.301C113.938 193.907 113.828 193.472 113.828 192.997C113.828 192.581 113.898 192.208 114.036 191.877C114.175 191.541 114.388 191.253 114.676 191.013C114.964 190.768 115.338 190.568 115.796 190.413C116.143 190.301 116.548 190.2 117.012 190.109C117.482 190.019 117.988 189.936 118.532 189.861C119.082 189.781 119.655 189.696 120.252 189.605L119.564 189.997C119.57 189.4 119.436 188.96 119.164 188.677C118.892 188.395 118.434 188.253 117.788 188.253C117.399 188.253 117.023 188.344 116.66 188.525C116.298 188.707 116.044 189.019 115.9 189.461L114.14 188.909C114.354 188.179 114.759 187.592 115.356 187.149C115.959 186.707 116.77 186.485 117.788 186.485C118.556 186.485 119.231 186.611 119.812 186.861C120.399 187.112 120.834 187.523 121.116 188.093C121.271 188.397 121.364 188.709 121.396 189.029C121.428 189.344 121.444 189.688 121.444 190.061V195.365H119.756V193.493L120.036 193.797C119.647 194.421 119.191 194.88 118.668 195.173C118.151 195.461 117.503 195.605 116.724 195.605ZM117.108 194.069C117.546 194.069 117.919 193.992 118.228 193.837C118.538 193.683 118.783 193.493 118.964 193.269C119.151 193.045 119.276 192.835 119.34 192.637C119.442 192.392 119.498 192.112 119.508 191.797C119.524 191.477 119.532 191.219 119.532 191.021L120.124 191.197C119.543 191.288 119.044 191.368 118.628 191.437C118.212 191.507 117.855 191.573 117.556 191.637C117.258 191.696 116.994 191.763 116.764 191.837C116.54 191.917 116.351 192.011 116.196 192.117C116.042 192.224 115.922 192.347 115.836 192.485C115.756 192.624 115.716 192.787 115.716 192.973C115.716 193.187 115.77 193.376 115.876 193.541C115.983 193.701 116.138 193.829 116.34 193.925C116.548 194.021 116.804 194.069 117.108 194.069Z" fill="black"/>
<defs>
<clipPath id="clip0_4352_113">
<rect x="22.0127" y="94.4111" width="51.3247" height="51.3247" rx="10.848" fill="white"/>
</clipPath>
</defs>
</svg>
