<svg width="224" height="233" viewBox="0 0 224 233" fill="none" xmlns="http://www.w3.org/2000/svg">
<rect x="0.912354" y="-0.00646973" width="222.443" height="232.805" rx="17" fill="#DAC9FD"/>
<path d="M43.56 104.322L36.3154 128.471" stroke="black" stroke-width="2.49434" stroke-linecap="round" stroke-linejoin="round"/>
<path d="M55.633 104.322L48.3884 128.471" stroke="black" stroke-width="2.49434" stroke-linecap="round" stroke-linejoin="round"/>
<path d="M60.4625 111.566H33.8989" stroke="black" stroke-width="2.49434" stroke-linecap="round" stroke-linejoin="round"/>
<path d="M58.0479 121.226H31.4844" stroke="black" stroke-width="2.49434" stroke-linecap="round" stroke-linejoin="round"/>
<path d="M21.8259 116.396C21.8259 105.012 21.8259 99.3202 25.3624 95.7837C28.8989 92.2472 34.5908 92.2472 45.9746 92.2472C57.3584 92.2472 63.0503 92.2472 66.5868 95.7837C70.1233 99.3202 70.1233 105.012 70.1233 116.396C70.1233 127.78 70.1233 133.472 66.5868 137.008C63.0503 140.545 57.3584 140.545 45.9746 140.545C34.5908 140.545 28.8989 140.545 25.3624 137.008C21.8259 133.472 21.8259 127.78 21.8259 116.396Z" stroke="black" stroke-width="2.49434"/>
<path d="M25.5595 167.32C24.5999 167.32 23.8003 167.07 23.1606 166.569C22.5267 166.069 22.0818 165.395 21.8259 164.546L23.9021 164.048C23.966 164.403 24.1521 164.709 24.4604 164.964C24.7686 165.22 25.1088 165.348 25.481 165.348C25.7252 165.348 25.984 165.284 26.2574 165.156C26.5307 165.023 26.7342 164.81 26.868 164.52C26.9494 164.333 26.9959 164.112 27.0076 163.857C27.025 163.595 27.0337 163.292 27.0337 162.949V154.496H29.1622V162.949C29.1622 163.339 29.1593 163.682 29.1535 163.979C29.1535 164.269 29.1244 164.546 29.0662 164.807C29.0139 165.063 28.9063 165.328 28.7435 165.601C28.4004 166.194 27.9526 166.631 27.4001 166.91C26.8476 167.183 26.2341 167.32 25.5595 167.32ZM34.9715 167.328C34.2736 167.328 33.6979 167.212 33.2443 166.979C32.7907 166.747 32.4301 166.45 32.1626 166.09C31.8951 165.729 31.6974 165.345 31.5694 164.938C31.4415 164.531 31.3571 164.147 31.3164 163.787C31.2815 163.42 31.2641 163.124 31.2641 162.897V157.637H33.3926V162.173C33.3926 162.464 33.4129 162.792 33.4536 163.159C33.4944 163.519 33.5874 163.868 33.7328 164.205C33.884 164.537 34.105 164.81 34.3958 165.025C34.6923 165.241 35.0907 165.348 35.5908 165.348C35.8584 165.348 36.123 165.305 36.3847 165.217C36.6464 165.13 36.8819 164.982 37.0912 164.772C37.3064 164.557 37.478 164.264 37.6059 163.891C37.7339 163.519 37.7978 163.048 37.7978 162.478L39.0453 163.01C39.0453 163.813 38.8882 164.54 38.5742 165.191C38.266 165.843 37.8095 166.363 37.2046 166.753C36.5998 167.136 35.8554 167.328 34.9715 167.328ZM38.0508 167.058V164.136H37.7978V157.637H39.9089V167.058H38.0508ZM46.2939 167.32C45.3401 167.32 44.5027 167.113 43.7816 166.7C43.0605 166.287 42.4964 165.715 42.0893 164.982C41.688 164.249 41.4874 163.406 41.4874 162.452C41.4874 161.423 41.6851 160.53 42.0805 159.774C42.476 159.012 43.0256 158.422 43.7292 158.003C44.4329 157.585 45.2471 157.375 46.1718 157.375C47.1488 157.375 47.9775 157.605 48.6579 158.064C49.3441 158.518 49.853 159.161 50.1845 159.992C50.516 160.824 50.641 161.804 50.5596 162.932H48.4747V162.164C48.4689 161.141 48.2886 160.393 47.9339 159.922C47.5791 159.451 47.0208 159.216 46.259 159.216C45.3983 159.216 44.7586 159.483 44.3399 160.018C43.9212 160.548 43.7118 161.324 43.7118 162.347C43.7118 163.301 43.9212 164.04 44.3399 164.563C44.7586 165.087 45.3692 165.348 46.1718 165.348C46.6893 165.348 47.1342 165.235 47.5064 165.008C47.8844 164.775 48.1752 164.441 48.3788 164.005L50.4549 164.633C50.0943 165.482 49.536 166.142 48.78 166.613C48.0298 167.084 47.2011 167.32 46.2939 167.32ZM43.0488 162.932V161.344H49.5302V162.932H43.0488ZM54.3635 167.058L50.9439 157.637H53.0463L55.419 164.467L57.783 157.637H59.894L56.4745 167.058H54.3635ZM65.053 167.32C64.0993 167.32 63.2618 167.113 62.5407 166.7C61.8196 166.287 61.2555 165.715 60.8484 164.982C60.4471 164.249 60.2465 163.406 60.2465 162.452C60.2465 161.423 60.4442 160.53 60.8397 159.774C61.2351 159.012 61.7847 158.422 62.4884 158.003C63.1921 157.585 64.0062 157.375 64.9309 157.375C65.9079 157.375 66.7366 157.605 67.417 158.064C68.1033 158.518 68.6121 159.161 68.9436 159.992C69.2751 160.824 69.4001 161.804 69.3187 162.932H67.2338V162.164C67.228 161.141 67.0477 160.393 66.693 159.922C66.3382 159.451 65.78 159.216 65.0181 159.216C64.1574 159.216 63.5177 159.483 63.099 160.018C62.6803 160.548 62.4709 161.324 62.4709 162.347C62.4709 163.301 62.6803 164.04 63.099 164.563C63.5177 165.087 64.1284 165.348 64.9309 165.348C65.4485 165.348 65.8934 165.235 66.2656 165.008C66.6436 164.775 66.9343 164.441 67.1379 164.005L69.214 164.633C68.8535 165.482 68.2952 166.142 67.5392 166.613C66.789 167.084 65.9602 167.32 65.053 167.32ZM61.808 162.932V161.344H68.2894V162.932H61.808ZM74.5538 167.32C73.3906 167.32 72.4456 167.058 71.7187 166.535C70.9917 166.011 70.5498 165.276 70.3928 164.328L72.5387 163.996C72.6492 164.461 72.8934 164.828 73.2714 165.095C73.6494 165.363 74.1263 165.497 74.702 165.497C75.208 165.497 75.5976 165.398 75.871 165.2C76.1501 164.996 76.2897 164.72 76.2897 164.371C76.2897 164.156 76.2373 163.984 76.1327 163.857C76.0338 163.723 75.8128 163.595 75.4697 163.473C75.1266 163.351 74.6003 163.196 73.8908 163.01C73.0999 162.801 72.4718 162.577 72.0066 162.339C71.5413 162.094 71.2069 161.807 71.0034 161.475C70.7998 161.144 70.6981 160.742 70.6981 160.271C70.6981 159.684 70.8522 159.172 71.1604 158.736C71.4686 158.3 71.899 157.965 72.4514 157.733C73.0039 157.494 73.6553 157.375 74.4055 157.375C75.1382 157.375 75.7866 157.489 76.3507 157.715C76.9207 157.942 77.3801 158.265 77.729 158.684C78.078 159.102 78.2931 159.594 78.3745 160.158L76.2286 160.542C76.1763 160.14 75.9931 159.823 75.6791 159.591C75.3708 159.358 74.9579 159.227 74.4403 159.198C73.946 159.169 73.5477 159.245 73.2453 159.425C72.9429 159.6 72.7917 159.847 72.7917 160.167C72.7917 160.347 72.8527 160.501 72.9748 160.629C73.097 160.757 73.3412 160.885 73.7076 161.013C74.0798 161.141 74.6323 161.298 75.365 161.484C76.1152 161.676 76.7142 161.897 77.162 162.147C77.6156 162.391 77.9413 162.685 78.139 163.028C78.3426 163.371 78.4443 163.787 78.4443 164.275C78.4443 165.223 78.0983 165.968 77.4063 166.508C76.72 167.049 75.7692 167.32 74.5538 167.32ZM86.8049 167.32C85.9268 167.32 85.1766 167.102 84.5543 166.665C83.932 166.223 83.4552 165.627 83.1237 164.877C82.7922 164.127 82.6265 163.281 82.6265 162.339C82.6265 161.402 82.7893 160.559 83.115 159.809C83.4464 159.059 83.9204 158.466 84.5369 158.029C85.1533 157.593 85.8919 157.375 86.7526 157.375C87.6365 157.375 88.3809 157.59 88.9857 158.021C89.5905 158.451 90.0471 159.041 90.3553 159.791C90.6693 160.536 90.8263 161.385 90.8263 162.339C90.8263 163.275 90.6722 164.121 90.364 164.877C90.0558 165.627 89.6022 166.223 89.0032 166.665C88.4042 167.102 87.6714 167.32 86.8049 167.32ZM86.9358 166.125C87.6045 166.125 88.157 165.962 88.5932 165.636C89.0293 165.31 89.355 164.863 89.5702 164.293C89.7854 163.717 89.8929 163.066 89.8929 162.339C89.8929 161.6 89.7854 160.949 89.5702 160.385C89.355 159.815 89.0293 159.37 88.5932 159.05C88.1628 158.73 87.6191 158.57 86.9619 158.57C86.2873 158.57 85.729 158.736 85.2871 159.067C84.8451 159.399 84.5165 159.85 84.3013 160.42C84.092 160.989 83.9873 161.629 83.9873 162.339C83.9873 163.054 84.0949 163.7 84.3101 164.275C84.531 164.845 84.8596 165.296 85.2958 165.627C85.7319 165.959 86.2786 166.125 86.9358 166.125ZM89.8929 167.058V159.966H89.7534V154.496H91.0444V167.058H89.8929ZM97.1293 167.32C96.2105 167.32 95.4137 167.116 94.7391 166.709C94.0703 166.302 93.5499 165.729 93.1777 164.991C92.8055 164.252 92.6194 163.385 92.6194 162.391C92.6194 161.362 92.8026 160.472 93.1689 159.722C93.5353 158.972 94.05 158.393 94.713 157.986C95.3817 157.579 96.1698 157.375 97.077 157.375C98.0075 157.375 98.8013 157.59 99.4584 158.021C100.116 158.445 100.613 159.056 100.95 159.853C101.287 160.649 101.442 161.6 101.412 162.705H100.104V162.251C100.081 161.03 99.8161 160.108 99.3101 159.486C98.81 158.864 98.0772 158.553 97.1119 158.553C96.1 158.553 95.3236 158.881 94.7828 159.539C94.2477 160.196 93.9802 161.132 93.9802 162.347C93.9802 163.534 94.2477 164.456 94.7828 165.113C95.3236 165.764 96.0883 166.09 97.077 166.09C97.7516 166.09 98.3389 165.936 98.8391 165.627C99.345 165.313 99.7434 164.863 100.034 164.275L101.229 164.738C100.857 165.558 100.307 166.194 99.5806 166.648C98.8594 167.096 98.0423 167.32 97.1293 167.32ZM93.5266 162.705V161.632H100.723V162.705H93.5266ZM26.3882 187.058V175.726H22.0004V174.496H32.0583V175.726H27.6705V187.058H26.3882ZM32.2393 187.058V177.637H33.3908V179.905L33.164 179.608C33.2687 179.329 33.4053 179.073 33.574 178.841C33.7426 178.602 33.9258 178.407 34.1236 178.256C34.3678 178.041 34.6528 177.878 34.9784 177.768C35.3041 177.651 35.6327 177.585 35.9642 177.567C36.2957 177.544 36.5981 177.567 36.8714 177.637V178.841C36.5283 178.753 36.1532 178.733 35.7461 178.78C35.339 178.826 34.9639 178.989 34.6208 179.268C34.3068 179.512 34.0712 179.806 33.9142 180.149C33.7572 180.486 33.6525 180.847 33.6002 181.231C33.5478 181.609 33.5217 181.984 33.5217 182.356V187.058H32.2393ZM40.515 187.32C39.8055 187.32 39.2094 187.192 38.7267 186.936C38.2499 186.68 37.8922 186.34 37.6538 185.915C37.4153 185.491 37.2961 185.028 37.2961 184.528C37.2961 184.016 37.3979 183.58 37.6014 183.22C37.8108 182.853 38.0928 182.554 38.4476 182.321C38.8081 182.089 39.224 181.911 39.695 181.789C40.1719 181.673 40.6982 181.571 41.2739 181.484C41.8555 181.391 42.4225 181.312 42.975 181.248C43.5332 181.178 44.0218 181.112 44.4405 181.048L43.9869 181.327C44.0043 180.396 43.824 179.707 43.446 179.259C43.068 178.812 42.4109 178.588 41.4746 178.588C40.829 178.588 40.2824 178.733 39.8346 179.024C39.3926 179.315 39.0815 179.774 38.9012 180.402L37.6538 180.036C37.8689 179.192 38.3022 178.538 38.9535 178.073C39.6049 177.608 40.451 177.375 41.492 177.375C42.3527 177.375 43.0825 177.538 43.6815 177.864C44.2864 178.184 44.7138 178.649 44.9639 179.259C45.0802 179.533 45.1558 179.838 45.1907 180.175C45.2256 180.513 45.243 180.856 45.243 181.205V187.058H44.1003V184.694L44.4317 184.834C44.1119 185.642 43.6147 186.258 42.9401 186.683C42.2655 187.107 41.4571 187.32 40.515 187.32ZM40.6633 186.212C41.2623 186.212 41.7857 186.104 42.2335 185.889C42.6813 185.674 43.0418 185.38 43.3152 185.008C43.5885 184.63 43.7659 184.205 43.8473 183.734C43.9171 183.432 43.9549 183.101 43.9607 182.74C43.9665 182.374 43.9694 182.1 43.9694 181.92L44.4579 182.173C44.0218 182.231 43.5478 182.289 43.036 182.347C42.5301 182.406 42.0299 182.472 41.5356 182.548C41.0471 182.624 40.6051 182.714 40.2097 182.818C39.9422 182.894 39.6834 183.002 39.4333 183.141C39.1832 183.275 38.9768 183.455 38.814 183.682C38.6569 183.909 38.5784 184.191 38.5784 184.528C38.5784 184.802 38.6453 185.066 38.7791 185.322C38.9186 185.578 39.1396 185.79 39.442 185.959C39.7503 186.128 40.1573 186.212 40.6633 186.212ZM53.9691 187.058V182.251C53.9691 181.728 53.9197 181.248 53.8209 180.812C53.722 180.37 53.5621 179.986 53.3411 179.661C53.1259 179.329 52.8438 179.073 52.4949 178.893C52.1518 178.713 51.7331 178.623 51.2388 178.623C50.7852 178.623 50.3839 178.701 50.035 178.858C49.6918 179.015 49.4011 179.242 49.1626 179.539C48.93 179.829 48.7526 180.184 48.6305 180.603C48.5084 181.021 48.4473 181.498 48.4473 182.033L47.5401 181.833C47.5401 180.867 47.7087 180.056 48.046 179.399C48.3833 178.742 48.8486 178.245 49.4418 177.907C50.035 177.57 50.7154 177.401 51.483 177.401C52.0471 177.401 52.5385 177.489 52.9572 177.663C53.3818 177.837 53.7394 178.073 54.0302 178.37C54.3268 178.666 54.5652 179.006 54.7455 179.39C54.9258 179.768 55.0566 180.172 55.1381 180.603C55.2195 181.027 55.2602 181.452 55.2602 181.876V187.058H53.9691ZM47.1563 187.058V177.637H48.3165V179.957H48.4473V187.058H47.1563ZM60.6904 187.311C59.5855 187.311 58.6754 187.073 57.96 186.596C57.2505 186.119 56.8144 185.456 56.6516 184.607L57.96 184.389C58.0996 184.924 58.4166 185.351 58.9109 185.671C59.411 185.985 60.0275 186.142 60.7602 186.142C61.4755 186.142 62.0396 185.994 62.4525 185.697C62.8654 185.395 63.0719 184.985 63.0719 184.467C63.0719 184.176 63.005 183.941 62.8712 183.761C62.7433 183.574 62.4787 183.403 62.0774 183.246C61.6762 183.089 61.0772 182.903 60.2804 182.688C59.4256 182.455 58.7568 182.222 58.2741 181.99C57.7914 181.757 57.4483 181.49 57.2447 181.187C57.0412 180.879 56.9394 180.504 56.9394 180.062C56.9394 179.527 57.0906 179.059 57.393 178.657C57.6954 178.25 58.1142 177.936 58.6492 177.715C59.1842 177.489 59.8065 177.375 60.516 177.375C61.2255 177.375 61.8593 177.491 62.4176 177.724C62.9817 177.951 63.4354 178.271 63.7785 178.684C64.1216 179.097 64.3251 179.576 64.3891 180.123L63.0806 180.359C62.9934 179.806 62.7171 179.37 62.2519 179.05C61.7925 178.724 61.208 178.556 60.4985 178.544C59.8297 178.527 59.286 178.655 58.8673 178.928C58.4485 179.195 58.2392 179.553 58.2392 180.001C58.2392 180.251 58.3148 180.466 58.466 180.646C58.6172 180.821 58.8905 180.987 59.286 181.144C59.6873 181.301 60.2572 181.472 60.9957 181.658C61.8623 181.879 62.5427 182.112 63.037 182.356C63.5313 182.6 63.8831 182.888 64.0925 183.22C64.3019 183.551 64.4065 183.961 64.4065 184.45C64.4065 185.339 64.0751 186.04 63.4121 186.552C62.7549 187.058 61.8477 187.311 60.6904 187.311ZM66.9257 187.058V176.939C66.9257 176.695 66.9373 176.453 66.9606 176.215C66.9896 175.977 67.0449 175.75 67.1263 175.535C67.2077 175.314 67.3357 175.11 67.5101 174.924C67.702 174.715 67.9114 174.563 68.1382 174.47C68.365 174.371 68.6005 174.307 68.8448 174.278C69.0948 174.249 69.3391 174.235 69.5775 174.235H70.7813V175.316H69.6648C69.1763 175.316 68.8099 175.436 68.5656 175.674C68.3272 175.913 68.208 176.288 68.208 176.799V187.058H66.9257ZM65.2944 178.736V177.637H70.7813V178.736H65.2944ZM75.4214 187.32C74.4851 187.32 73.6855 187.107 73.0225 186.683C72.3596 186.258 71.8507 185.671 71.496 184.921C71.1412 184.171 70.9639 183.31 70.9639 182.339C70.9639 181.35 71.1441 180.484 71.5047 179.739C71.8653 178.995 72.377 178.416 73.04 178.003C73.7088 177.585 74.5026 177.375 75.4214 177.375C76.3636 177.375 77.1661 177.587 77.8291 178.012C78.4979 178.431 79.0067 179.015 79.3556 179.765C79.7104 180.51 79.8878 181.368 79.8878 182.339C79.8878 183.327 79.7104 184.197 79.3556 184.947C79.0009 185.691 78.4891 186.273 77.8203 186.692C77.1516 187.11 76.3519 187.32 75.4214 187.32ZM75.4214 186.09C76.4682 186.09 77.2475 185.744 77.7593 185.052C78.271 184.354 78.5269 183.449 78.5269 182.339C78.5269 181.199 78.2681 180.292 77.7506 179.617C77.2388 178.942 76.4624 178.605 75.4214 178.605C74.7178 178.605 74.1362 178.765 73.6768 179.085C73.2232 179.399 72.883 179.838 72.6562 180.402C72.4352 180.96 72.3247 181.606 72.3247 182.339C72.3247 183.473 72.5864 184.383 73.1098 185.069C73.6332 185.749 74.4037 186.09 75.4214 186.09ZM81.4631 187.058V177.637H82.6146V179.905L82.3878 179.608C82.4925 179.329 82.6291 179.073 82.7978 178.841C82.9664 178.602 83.1496 178.407 83.3474 178.256C83.5916 178.041 83.8766 177.878 84.2022 177.768C84.5279 177.651 84.8565 177.585 85.188 177.567C85.5195 177.544 85.8219 177.567 86.0952 177.637V178.841C85.7521 178.753 85.377 178.733 84.9699 178.78C84.5628 178.826 84.1877 178.989 83.8446 179.268C83.5305 179.512 83.295 179.806 83.138 180.149C82.981 180.486 82.8763 180.847 82.824 181.231C82.7716 181.609 82.7455 181.984 82.7455 182.356V187.058H81.4631ZM98.6367 187.058L98.6454 180.873C98.6454 180.146 98.4418 179.576 98.0348 179.163C97.6335 178.745 97.1217 178.535 96.4995 178.535C96.1447 178.535 95.7987 178.617 95.4614 178.78C95.1241 178.942 94.845 179.204 94.624 179.565C94.4088 179.925 94.3012 180.396 94.3012 180.978L93.5423 180.76C93.5248 180.085 93.6557 179.495 93.9348 178.989C94.2198 178.483 94.6094 178.09 95.1037 177.811C95.6039 177.526 96.168 177.384 96.7961 177.384C97.744 177.384 98.5029 177.678 99.0728 178.265C99.6428 178.846 99.9277 179.634 99.9277 180.629L99.919 187.058H98.6367ZM87.3924 187.058V177.637H88.5438V179.957H88.6834V187.058H87.3924ZM93.0276 187.058L93.0363 180.96C93.0363 180.21 92.8357 179.62 92.4344 179.19C92.039 178.753 91.5156 178.535 90.8642 178.535C90.2129 178.535 89.6866 178.759 89.2853 179.207C88.884 179.649 88.6834 180.239 88.6834 180.978L87.9158 180.559C87.9158 179.954 88.0582 179.413 88.3432 178.937C88.6282 178.454 89.0178 178.076 89.5121 177.803C90.0064 177.523 90.5676 177.384 91.1957 177.384C91.7947 177.384 92.3268 177.512 92.7921 177.768C93.2631 178.024 93.6324 178.396 93.8999 178.884C94.1674 179.373 94.3012 179.966 94.3012 180.664L94.2925 187.058H93.0276ZM104.536 187.32C103.827 187.32 103.231 187.192 102.748 186.936C102.271 186.68 101.914 186.34 101.675 185.915C101.437 185.491 101.317 185.028 101.317 184.528C101.317 184.016 101.419 183.58 101.623 183.22C101.832 182.853 102.114 182.554 102.469 182.321C102.829 182.089 103.245 181.911 103.716 181.789C104.193 181.673 104.72 181.571 105.295 181.484C105.877 181.391 106.444 181.312 106.996 181.248C107.555 181.178 108.043 181.112 108.462 181.048L108.008 181.327C108.026 180.396 107.845 179.707 107.467 179.259C107.089 178.812 106.432 178.588 105.496 178.588C104.85 178.588 104.304 178.733 103.856 179.024C103.414 179.315 103.103 179.774 102.923 180.402L101.675 180.036C101.89 179.192 102.324 178.538 102.975 178.073C103.626 177.608 104.472 177.375 105.513 177.375C106.374 177.375 107.104 177.538 107.703 177.864C108.308 178.184 108.735 178.649 108.985 179.259C109.102 179.533 109.177 179.838 109.212 180.175C109.247 180.513 109.264 180.856 109.264 181.205V187.058H108.122V184.694L108.453 184.834C108.133 185.642 107.636 186.258 106.961 186.683C106.287 187.107 105.478 187.32 104.536 187.32ZM104.685 186.212C105.284 186.212 105.807 186.104 106.255 185.889C106.703 185.674 107.063 185.38 107.336 185.008C107.61 184.63 107.787 184.205 107.869 183.734C107.938 183.432 107.976 183.101 107.982 182.74C107.988 182.374 107.991 182.1 107.991 181.92L108.479 182.173C108.043 182.231 107.569 182.289 107.057 182.347C106.551 182.406 106.051 182.472 105.557 182.548C105.068 182.624 104.626 182.714 104.231 182.818C103.963 182.894 103.705 183.002 103.455 183.141C103.205 183.275 102.998 183.455 102.835 183.682C102.678 183.909 102.6 184.191 102.6 184.528C102.6 184.802 102.667 185.066 102.8 185.322C102.94 185.578 103.161 185.79 103.463 185.959C103.772 186.128 104.179 186.212 104.685 186.212ZM115.094 187.32C114.146 187.32 113.344 187.107 112.687 186.683C112.03 186.258 111.529 185.674 111.186 184.93C110.849 184.179 110.675 183.319 110.663 182.347C110.675 181.359 110.855 180.492 111.204 179.748C111.553 178.998 112.056 178.416 112.713 178.003C113.37 177.585 114.167 177.375 115.103 177.375C116.057 177.375 116.886 177.608 117.589 178.073C118.299 178.538 118.784 179.175 119.046 179.983L117.79 180.385C117.569 179.821 117.217 179.384 116.734 179.076C116.257 178.762 115.711 178.605 115.094 178.605C114.402 178.605 113.829 178.765 113.376 179.085C112.922 179.399 112.585 179.838 112.364 180.402C112.143 180.966 112.03 181.615 112.024 182.347C112.035 183.476 112.297 184.383 112.809 185.069C113.321 185.749 114.082 186.09 115.094 186.09C115.734 186.09 116.278 185.944 116.726 185.654C117.179 185.357 117.522 184.927 117.755 184.362L119.046 184.746C118.697 185.584 118.185 186.223 117.511 186.665C116.836 187.102 116.031 187.32 115.094 187.32ZM120.417 175.849V174.409H121.699V175.849H120.417ZM120.417 187.058V177.637H121.699V187.058H120.417ZM128.449 176.154H127.35L128.388 173.45H129.487L128.449 176.154ZM127.899 187.32C126.963 187.32 126.164 187.107 125.501 186.683C124.838 186.258 124.329 185.671 123.974 184.921C123.619 184.171 123.442 183.31 123.442 182.339C123.442 181.35 123.622 180.484 123.983 179.739C124.343 178.995 124.855 178.416 125.518 178.003C126.187 177.585 126.981 177.375 127.899 177.375C128.842 177.375 129.644 177.587 130.307 178.012C130.976 178.431 131.485 179.015 131.834 179.765C132.188 180.51 132.366 181.368 132.366 182.339C132.366 183.327 132.188 184.197 131.834 184.947C131.479 185.691 130.967 186.273 130.298 186.692C129.63 187.11 128.83 187.32 127.899 187.32ZM127.899 186.09C128.946 186.09 129.726 185.744 130.237 185.052C130.749 184.354 131.005 183.449 131.005 182.339C131.005 181.199 130.746 180.292 130.229 179.617C129.717 178.942 128.94 178.605 127.899 178.605C127.196 178.605 126.614 178.765 126.155 179.085C125.701 179.399 125.361 179.838 125.134 180.402C124.913 180.96 124.803 181.606 124.803 182.339C124.803 183.473 125.064 184.383 125.588 185.069C126.111 185.749 126.882 186.09 127.899 186.09ZM140.745 187.058V182.251C140.745 181.728 140.696 181.248 140.597 180.812C140.498 180.37 140.338 179.986 140.117 179.661C139.902 179.329 139.62 179.073 139.271 178.893C138.928 178.713 138.509 178.623 138.015 178.623C137.561 178.623 137.16 178.701 136.811 178.858C136.468 179.015 136.177 179.242 135.939 179.539C135.706 179.829 135.529 180.184 135.407 180.603C135.284 181.021 135.223 181.498 135.223 182.033L134.316 181.833C134.316 180.867 134.485 180.056 134.822 179.399C135.159 178.742 135.625 178.245 136.218 177.907C136.811 177.57 137.491 177.401 138.259 177.401C138.823 177.401 139.315 177.489 139.733 177.663C140.158 177.837 140.516 178.073 140.806 178.37C141.103 178.666 141.341 179.006 141.522 179.39C141.702 179.768 141.833 180.172 141.914 180.603C141.996 181.027 142.036 181.452 142.036 181.876V187.058H140.745ZM133.932 187.058V177.637H135.093V179.957H135.223V187.058H133.932ZM147.095 187.058V174.496H150.907C151.041 174.496 151.267 174.499 151.587 174.505C151.913 174.511 152.224 174.534 152.521 174.575C153.474 174.709 154.271 175.063 154.911 175.639C155.551 176.215 156.03 176.948 156.35 177.837C156.67 178.727 156.83 179.707 156.83 180.777C156.83 181.847 156.67 182.827 156.35 183.717C156.03 184.607 155.551 185.339 154.911 185.915C154.271 186.491 153.474 186.846 152.521 186.979C152.23 187.014 151.919 187.038 151.587 187.049C151.256 187.055 151.029 187.058 150.907 187.058H147.095ZM148.421 185.828H150.907C151.145 185.828 151.401 185.822 151.675 185.811C151.954 185.793 152.192 185.764 152.39 185.723C153.123 185.595 153.713 185.299 154.161 184.834C154.614 184.368 154.946 183.787 155.155 183.089C155.365 182.385 155.469 181.615 155.469 180.777C155.469 179.934 155.365 179.161 155.155 178.457C154.946 177.753 154.614 177.172 154.161 176.712C153.707 176.253 153.117 175.959 152.39 175.831C152.192 175.79 151.951 175.764 151.666 175.753C151.387 175.735 151.134 175.726 150.907 175.726H148.421V185.828ZM158.642 175.849V174.409H159.925V175.849H158.642ZM158.642 187.058V177.637H159.925V187.058H158.642ZM165.933 191.507C165.45 191.507 164.974 191.434 164.503 191.289C164.037 191.149 163.607 190.925 163.212 190.617C162.816 190.315 162.485 189.919 162.217 189.431L163.377 188.785C163.639 189.309 164.005 189.684 164.476 189.91C164.953 190.143 165.439 190.259 165.933 190.259C166.614 190.259 167.163 190.131 167.582 189.876C168.006 189.626 168.315 189.253 168.507 188.759C168.698 188.265 168.792 187.648 168.786 186.91V184.397H168.934V177.637H170.077V186.927C170.077 187.195 170.068 187.451 170.051 187.695C170.039 187.945 170.013 188.189 169.972 188.428C169.862 189.131 169.632 189.71 169.283 190.163C168.94 190.617 168.486 190.954 167.922 191.175C167.364 191.396 166.701 191.507 165.933 191.507ZM165.846 187.32C164.968 187.32 164.218 187.102 163.595 186.665C162.973 186.223 162.496 185.627 162.165 184.877C161.833 184.127 161.667 183.281 161.667 182.339C161.667 181.402 161.83 180.559 162.156 179.809C162.487 179.059 162.961 178.466 163.578 178.029C164.194 177.593 164.933 177.375 165.794 177.375C166.678 177.375 167.422 177.59 168.027 178.021C168.632 178.451 169.088 179.041 169.396 179.791C169.71 180.536 169.867 181.385 169.867 182.339C169.867 183.275 169.713 184.121 169.405 184.877C169.097 185.627 168.643 186.223 168.044 186.665C167.445 187.102 166.712 187.32 165.846 187.32ZM165.977 186.125C166.646 186.125 167.198 185.962 167.634 185.636C168.07 185.31 168.396 184.863 168.611 184.293C168.826 183.717 168.934 183.066 168.934 182.339C168.934 181.6 168.826 180.949 168.611 180.385C168.396 179.815 168.07 179.37 167.634 179.05C167.204 178.73 166.66 178.57 166.003 178.57C165.328 178.57 164.77 178.736 164.328 179.067C163.886 179.399 163.558 179.85 163.342 180.42C163.133 180.989 163.028 181.629 163.028 182.339C163.028 183.054 163.136 183.7 163.351 184.275C163.572 184.845 163.901 185.296 164.337 185.627C164.773 185.959 165.32 186.125 165.977 186.125ZM172.341 175.849V174.409H173.624V175.849H172.341ZM172.341 187.058V177.637H173.624V187.058H172.341ZM181.019 187.058C180.49 187.168 179.967 187.212 179.449 187.189C178.937 187.166 178.478 187.055 178.071 186.857C177.669 186.66 177.364 186.351 177.155 185.933C176.986 185.584 176.893 185.232 176.876 184.877C176.864 184.517 176.858 184.107 176.858 183.647V175.02H178.132V183.595C178.132 183.99 178.135 184.322 178.14 184.589C178.152 184.851 178.213 185.084 178.324 185.287C178.533 185.677 178.864 185.909 179.318 185.985C179.778 186.061 180.345 186.043 181.019 185.933V187.058ZM174.843 178.736V177.637H181.019V178.736H174.843ZM185.222 187.32C184.512 187.32 183.916 187.192 183.434 186.936C182.957 186.68 182.599 186.34 182.361 185.915C182.122 185.491 182.003 185.028 182.003 184.528C182.003 184.016 182.105 183.58 182.308 183.22C182.518 182.853 182.8 182.554 183.154 182.321C183.515 182.089 183.931 181.911 184.402 181.789C184.879 181.673 185.405 181.571 185.981 181.484C186.562 181.391 187.129 181.312 187.682 181.248C188.24 181.178 188.729 181.112 189.147 181.048L188.694 181.327C188.711 180.396 188.531 179.707 188.153 179.259C187.775 178.812 187.118 178.588 186.181 178.588C185.536 178.588 184.989 178.733 184.541 179.024C184.099 179.315 183.788 179.774 183.608 180.402L182.361 180.036C182.576 179.192 183.009 178.538 183.66 178.073C184.312 177.608 185.158 177.375 186.199 177.375C187.06 177.375 187.789 177.538 188.388 177.864C188.993 178.184 189.421 178.649 189.671 179.259C189.787 179.533 189.863 179.838 189.898 180.175C189.932 180.513 189.95 180.856 189.95 181.205V187.058H188.807V184.694L189.139 184.834C188.819 185.642 188.322 186.258 187.647 186.683C186.972 187.107 186.164 187.32 185.222 187.32ZM185.37 186.212C185.969 186.212 186.493 186.104 186.94 185.889C187.388 185.674 187.749 185.38 188.022 185.008C188.295 184.63 188.473 184.205 188.554 183.734C188.624 183.432 188.662 183.101 188.668 182.74C188.673 182.374 188.676 182.1 188.676 181.92L189.165 182.173C188.729 182.231 188.255 182.289 187.743 182.347C187.237 182.406 186.737 182.472 186.242 182.548C185.754 182.624 185.312 182.714 184.917 182.818C184.649 182.894 184.39 183.002 184.14 183.141C183.89 183.275 183.684 183.455 183.521 183.682C183.364 183.909 183.285 184.191 183.285 184.528C183.285 184.802 183.352 185.066 183.486 185.322C183.625 185.578 183.846 185.79 184.149 185.959C184.457 186.128 184.864 186.212 185.37 186.212ZM192.046 187.058V174.235H193.329V187.058H192.046Z" fill="black"/>
</svg>
