<svg width="224" height="234" viewBox="0 0 224 234" fill="none" xmlns="http://www.w3.org/2000/svg">
<rect x="0.753418" y="0.839844" width="222.443" height="232.805" rx="17" fill="#C3F1E1"/>
<path d="M22.0776 120.812C22.0776 108.44 22.0776 102.254 25.9213 98.41C29.7649 94.5664 35.9511 94.5664 48.3235 94.5664C60.6959 94.5664 66.8821 94.5664 70.7257 98.41C74.5693 102.254 74.5693 108.44 74.5693 120.812C74.5693 133.185 74.5693 139.371 70.7257 143.214C66.8821 147.058 60.6959 147.058 48.3235 147.058C35.9511 147.058 29.7649 147.058 25.9213 143.214C22.0776 139.371 22.0776 133.185 22.0776 120.812Z" fill="black"/>
<path d="M27.1376 174.264L22.1776 159.864H23.7076L28.0976 172.594L32.5176 159.864H34.0476L29.0876 174.264H27.1376ZM34.9573 161.414V159.764H36.4273V161.414H34.9573ZM34.9573 174.264V163.464H36.4273V174.264H34.9573ZM43.5953 174.564C42.542 174.564 41.6286 174.33 40.8553 173.864C40.0886 173.397 39.492 172.74 39.0653 171.894C38.6386 171.047 38.4253 170.054 38.4253 168.914C38.4253 167.734 38.6353 166.714 39.0553 165.854C39.4753 164.994 40.0653 164.33 40.8253 163.864C41.592 163.397 42.4953 163.164 43.5353 163.164C44.602 163.164 45.512 163.41 46.2653 163.904C47.0186 164.39 47.5886 165.09 47.9753 166.004C48.362 166.917 48.5386 168.007 48.5053 169.274H47.0053V168.754C46.9786 167.354 46.6753 166.297 46.0953 165.584C45.522 164.87 44.682 164.514 43.5753 164.514C42.4153 164.514 41.5253 164.89 40.9053 165.644C40.292 166.397 39.9853 167.47 39.9853 168.864C39.9853 170.224 40.292 171.28 40.9053 172.034C41.5253 172.78 42.402 173.154 43.5353 173.154C44.3086 173.154 44.982 172.977 45.5553 172.624C46.1353 172.264 46.592 171.747 46.9253 171.074L48.2953 171.604C47.8686 172.544 47.2386 173.274 46.4053 173.794C45.5786 174.307 44.642 174.564 43.5953 174.564ZM39.4653 169.274V168.044H47.7153V169.274H39.4653ZM50.3245 174.264V163.464H51.6445V166.064L51.3845 165.724C51.5045 165.404 51.6612 165.11 51.8545 164.844C52.0478 164.57 52.2578 164.347 52.4845 164.174C52.7645 163.927 53.0912 163.74 53.4645 163.614C53.8378 163.48 54.2145 163.404 54.5945 163.384C54.9745 163.357 55.3212 163.384 55.6345 163.464V164.844C55.2412 164.744 54.8112 164.72 54.3445 164.774C53.8778 164.827 53.4478 165.014 53.0545 165.334C52.6945 165.614 52.4245 165.95 52.2445 166.344C52.0645 166.73 51.9445 167.144 51.8845 167.584C51.8245 168.017 51.7945 168.447 51.7945 168.874V174.264H50.3245ZM64.9315 174.264V168.754C64.9315 168.154 64.8749 167.604 64.7615 167.104C64.6482 166.597 64.4649 166.157 64.2115 165.784C63.9649 165.404 63.6415 165.11 63.2415 164.904C62.8482 164.697 62.3682 164.594 61.8015 164.594C61.2815 164.594 60.8215 164.684 60.4215 164.864C60.0282 165.044 59.6949 165.304 59.4215 165.644C59.1549 165.977 58.9515 166.384 58.8115 166.864C58.6715 167.344 58.6015 167.89 58.6015 168.504L57.5615 168.274C57.5615 167.167 57.7549 166.237 58.1415 165.484C58.5282 164.73 59.0615 164.16 59.7415 163.774C60.4215 163.387 61.2015 163.194 62.0815 163.194C62.7282 163.194 63.2915 163.294 63.7715 163.494C64.2582 163.694 64.6682 163.964 65.0015 164.304C65.3415 164.644 65.6149 165.034 65.8215 165.474C66.0282 165.907 66.1782 166.37 66.2715 166.864C66.3649 167.35 66.4115 167.837 66.4115 168.324V174.264H64.9315ZM57.1215 174.264V163.464H58.4515V166.124H58.6015V174.264H57.1215ZM73.1179 174.564C72.0646 174.564 71.1513 174.33 70.3779 173.864C69.6113 173.397 69.0146 172.74 68.5879 171.894C68.1613 171.047 67.9479 170.054 67.9479 168.914C67.9479 167.734 68.1579 166.714 68.5779 165.854C68.9979 164.994 69.5879 164.33 70.3479 163.864C71.1146 163.397 72.0179 163.164 73.0579 163.164C74.1246 163.164 75.0346 163.41 75.7879 163.904C76.5413 164.39 77.1113 165.09 77.498 166.004C77.8846 166.917 78.0613 168.007 78.0279 169.274H76.5279V168.754C76.5013 167.354 76.1979 166.297 75.6179 165.584C75.0446 164.87 74.2046 164.514 73.0979 164.514C71.9379 164.514 71.0479 164.89 70.4279 165.644C69.8146 166.397 69.5079 167.47 69.5079 168.864C69.5079 170.224 69.8146 171.28 70.4279 172.034C71.0479 172.78 71.9246 173.154 73.0579 173.154C73.8313 173.154 74.5046 172.977 75.0779 172.624C75.6579 172.264 76.1146 171.747 76.4479 171.074L77.8179 171.604C77.3913 172.544 76.7613 173.274 75.9279 173.794C75.1013 174.307 74.1646 174.564 73.1179 174.564ZM68.9879 169.274V168.044H77.2379V169.274H68.9879ZM83.8772 174.554C82.6105 174.554 81.5672 174.28 80.7472 173.734C79.9338 173.187 79.4338 172.427 79.2472 171.454L80.7472 171.204C80.9072 171.817 81.2705 172.307 81.8372 172.674C82.4105 173.034 83.1172 173.214 83.9572 173.214C84.7772 173.214 85.4238 173.044 85.8972 172.704C86.3705 172.357 86.6072 171.887 86.6072 171.294C86.6072 170.96 86.5305 170.69 86.3772 170.484C86.2305 170.27 85.9272 170.074 85.4672 169.894C85.0072 169.714 84.3205 169.5 83.4072 169.254C82.4272 168.987 81.6605 168.72 81.1072 168.454C80.5538 168.187 80.1605 167.88 79.9272 167.534C79.6938 167.18 79.5772 166.75 79.5772 166.244C79.5772 165.63 79.7505 165.094 80.0972 164.634C80.4438 164.167 80.9238 163.807 81.5372 163.554C82.1505 163.294 82.8638 163.164 83.6772 163.164C84.4905 163.164 85.2172 163.297 85.8572 163.564C86.5038 163.824 87.0238 164.19 87.4172 164.664C87.8105 165.137 88.0438 165.687 88.1172 166.314L86.6172 166.584C86.5172 165.95 86.2005 165.45 85.6672 165.084C85.1405 164.71 84.4705 164.517 83.6572 164.504C82.8905 164.484 82.2672 164.63 81.7872 164.944C81.3072 165.25 81.0672 165.66 81.0672 166.174C81.0672 166.46 81.1538 166.707 81.3272 166.914C81.5005 167.114 81.8138 167.304 82.2672 167.484C82.7272 167.664 83.3805 167.86 84.2272 168.074C85.2205 168.327 86.0005 168.594 86.5672 168.874C87.1338 169.154 87.5372 169.484 87.7772 169.864C88.0172 170.244 88.1372 170.714 88.1372 171.274C88.1372 172.294 87.7572 173.097 86.9972 173.684C86.2438 174.264 85.2038 174.554 83.8772 174.554ZM101.353 174.564C100.346 174.564 99.4861 174.314 98.7728 173.814C98.0595 173.307 97.5128 172.624 97.1328 171.764C96.7528 170.904 96.5628 169.934 96.5628 168.854C96.5628 167.78 96.7495 166.814 97.1228 165.954C97.5028 165.094 98.0461 164.414 98.7528 163.914C99.4595 163.414 100.306 163.164 101.293 163.164C102.306 163.164 103.159 163.41 103.853 163.904C104.546 164.397 105.069 165.074 105.423 165.934C105.783 166.787 105.963 167.76 105.963 168.854C105.963 169.927 105.786 170.897 105.433 171.764C105.079 172.624 104.559 173.307 103.873 173.814C103.186 174.314 102.346 174.564 101.353 174.564ZM101.503 173.194C102.269 173.194 102.903 173.007 103.403 172.634C103.903 172.26 104.276 171.747 104.523 171.094C104.769 170.434 104.893 169.687 104.893 168.854C104.893 168.007 104.769 167.26 104.523 166.614C104.276 165.96 103.903 165.45 103.403 165.084C102.909 164.717 102.286 164.534 101.533 164.534C100.759 164.534 100.119 164.724 99.6128 165.104C99.1061 165.484 98.7295 166 98.4828 166.654C98.2428 167.307 98.1228 168.04 98.1228 168.854C98.1228 169.674 98.2461 170.414 98.4928 171.074C98.7461 171.727 99.1228 172.244 99.6228 172.624C100.123 173.004 100.749 173.194 101.503 173.194ZM104.893 174.264V166.134H104.733V159.864H106.213V174.264H104.893ZM113.188 174.564C112.135 174.564 111.222 174.33 110.448 173.864C109.682 173.397 109.085 172.74 108.658 171.894C108.232 171.047 108.018 170.054 108.018 168.914C108.018 167.734 108.228 166.714 108.648 165.854C109.068 164.994 109.658 164.33 110.418 163.864C111.185 163.397 112.088 163.164 113.128 163.164C114.195 163.164 115.105 163.41 115.858 163.904C116.612 164.39 117.182 165.09 117.568 166.004C117.955 166.917 118.132 168.007 118.098 169.274H116.598V168.754C116.572 167.354 116.268 166.297 115.688 165.584C115.115 164.87 114.275 164.514 113.168 164.514C112.008 164.514 111.118 164.89 110.498 165.644C109.885 166.397 109.578 167.47 109.578 168.864C109.578 170.224 109.885 171.28 110.498 172.034C111.118 172.78 111.995 173.154 113.128 173.154C113.902 173.154 114.575 172.977 115.148 172.624C115.728 172.264 116.185 171.747 116.518 171.074L117.888 171.604C117.462 172.544 116.832 173.274 115.998 173.794C115.172 174.307 114.235 174.564 113.188 174.564ZM109.058 169.274V168.044H117.308V169.274H109.058ZM127.125 174.264V159.864H135.395V161.334H128.595V166.334H134.195V167.794H128.595V174.264H127.125ZM137.003 161.414V159.764H138.473V161.414H137.003ZM137.003 174.264V163.464H138.473V174.264H137.003ZM145.361 179.364C144.808 179.364 144.261 179.28 143.721 179.114C143.188 178.954 142.695 178.697 142.241 178.344C141.788 177.997 141.408 177.544 141.101 176.984L142.431 176.244C142.731 176.844 143.151 177.274 143.691 177.534C144.238 177.8 144.795 177.934 145.361 177.934C146.141 177.934 146.771 177.787 147.251 177.494C147.738 177.207 148.091 176.78 148.311 176.214C148.531 175.647 148.638 174.94 148.631 174.094V171.214H148.801V163.464H150.111V174.114C150.111 174.42 150.101 174.714 150.081 174.994C150.068 175.28 150.038 175.56 149.991 175.834C149.865 176.64 149.601 177.304 149.201 177.824C148.808 178.344 148.288 178.73 147.641 178.984C147.001 179.237 146.241 179.364 145.361 179.364ZM145.261 174.564C144.255 174.564 143.395 174.314 142.681 173.814C141.968 173.307 141.421 172.624 141.041 171.764C140.661 170.904 140.471 169.934 140.471 168.854C140.471 167.78 140.658 166.814 141.031 165.954C141.411 165.094 141.955 164.414 142.661 163.914C143.368 163.414 144.215 163.164 145.201 163.164C146.215 163.164 147.068 163.41 147.761 163.904C148.455 164.397 148.978 165.074 149.331 165.934C149.691 166.787 149.871 167.76 149.871 168.854C149.871 169.927 149.695 170.897 149.341 171.764C148.988 172.624 148.468 173.307 147.781 173.814C147.095 174.314 146.255 174.564 145.261 174.564ZM145.411 173.194C146.178 173.194 146.811 173.007 147.311 172.634C147.811 172.26 148.185 171.747 148.431 171.094C148.678 170.434 148.801 169.687 148.801 168.854C148.801 168.007 148.678 167.26 148.431 166.614C148.185 165.96 147.811 165.45 147.311 165.084C146.818 164.717 146.195 164.534 145.441 164.534C144.668 164.534 144.028 164.724 143.521 165.104C143.015 165.484 142.638 166 142.391 166.654C142.151 167.307 142.031 168.04 142.031 168.854C142.031 169.674 142.155 170.414 142.401 171.074C142.655 171.727 143.031 172.244 143.531 172.624C144.031 173.004 144.658 173.194 145.411 173.194ZM165.387 174.264L165.397 167.174C165.397 166.34 165.164 165.687 164.697 165.214C164.237 164.734 163.651 164.494 162.937 164.494C162.531 164.494 162.134 164.587 161.747 164.774C161.361 164.96 161.041 165.26 160.787 165.674C160.541 166.087 160.417 166.627 160.417 167.294L159.547 167.044C159.527 166.27 159.677 165.594 159.997 165.014C160.324 164.434 160.771 163.984 161.337 163.664C161.911 163.337 162.557 163.174 163.277 163.174C164.364 163.174 165.234 163.51 165.887 164.184C166.541 164.85 166.867 165.754 166.867 166.894L166.857 174.264H165.387ZM152.497 174.264V163.464H153.817V166.124H153.977V174.264H152.497ZM158.957 174.264L158.967 167.274C158.967 166.414 158.737 165.737 158.277 165.244C157.824 164.744 157.224 164.494 156.477 164.494C155.731 164.494 155.127 164.75 154.667 165.264C154.207 165.77 153.977 166.447 153.977 167.294L153.097 166.814C153.097 166.12 153.261 165.5 153.587 164.954C153.914 164.4 154.361 163.967 154.927 163.654C155.494 163.334 156.137 163.174 156.857 163.174C157.544 163.174 158.154 163.32 158.687 163.614C159.227 163.907 159.651 164.334 159.957 164.894C160.264 165.454 160.417 166.134 160.417 166.934L160.407 174.264H158.957ZM172.15 174.564C171.337 174.564 170.654 174.417 170.1 174.124C169.554 173.83 169.144 173.44 168.87 172.954C168.597 172.467 168.46 171.937 168.46 171.364C168.46 170.777 168.577 170.277 168.81 169.864C169.05 169.444 169.374 169.1 169.78 168.834C170.194 168.567 170.67 168.364 171.21 168.224C171.757 168.09 172.36 167.974 173.02 167.874C173.687 167.767 174.337 167.677 174.97 167.604C175.61 167.524 176.17 167.447 176.65 167.374L176.13 167.694C176.15 166.627 175.944 165.837 175.51 165.324C175.077 164.81 174.324 164.554 173.25 164.554C172.51 164.554 171.884 164.72 171.37 165.054C170.864 165.387 170.507 165.914 170.3 166.634L168.87 166.214C169.117 165.247 169.614 164.497 170.36 163.964C171.107 163.43 172.077 163.164 173.27 163.164C174.257 163.164 175.094 163.35 175.78 163.724C176.474 164.09 176.964 164.624 177.25 165.324C177.384 165.637 177.47 165.987 177.51 166.374C177.55 166.76 177.57 167.154 177.57 167.554V174.264H176.26V171.554L176.64 171.714C176.274 172.64 175.704 173.347 174.93 173.834C174.157 174.32 173.23 174.564 172.15 174.564ZM172.32 173.294C173.007 173.294 173.607 173.17 174.12 172.924C174.634 172.677 175.047 172.34 175.36 171.914C175.674 171.48 175.877 170.994 175.97 170.454C176.05 170.107 176.094 169.727 176.1 169.314C176.107 168.894 176.11 168.58 176.11 168.374L176.67 168.664C176.17 168.73 175.627 168.797 175.04 168.864C174.46 168.93 173.887 169.007 173.32 169.094C172.76 169.18 172.254 169.284 171.8 169.404C171.494 169.49 171.197 169.614 170.91 169.774C170.624 169.927 170.387 170.134 170.2 170.394C170.02 170.654 169.93 170.977 169.93 171.364C169.93 171.677 170.007 171.98 170.16 172.274C170.32 172.567 170.574 172.81 170.92 173.004C171.274 173.197 171.74 173.294 172.32 173.294Z" fill="black"/>
<path d="M28.0696 195.761C26.9176 195.761 25.931 195.51 25.1096 195.009C24.2883 194.502 23.6563 193.798 23.2136 192.897C22.7763 191.995 22.5576 190.95 22.5576 189.761C22.5576 188.571 22.7763 187.526 23.2136 186.625C23.6563 185.723 24.2883 185.022 25.1096 184.521C25.931 184.014 26.9176 183.761 28.0696 183.761C29.3976 183.761 30.5043 184.094 31.3896 184.761C32.275 185.422 32.8963 186.315 33.2536 187.441L31.3096 187.977C31.0856 187.225 30.7043 186.638 30.1656 186.217C29.627 185.79 28.9283 185.577 28.0696 185.577C27.2963 185.577 26.651 185.75 26.1336 186.097C25.6216 186.443 25.235 186.931 24.9736 187.561C24.7176 188.185 24.587 188.918 24.5816 189.761C24.5816 190.603 24.7096 191.339 24.9656 191.969C25.227 192.593 25.6163 193.078 26.1336 193.425C26.651 193.771 27.2963 193.945 28.0696 193.945C28.9283 193.945 29.627 193.731 30.1656 193.305C30.7043 192.878 31.0856 192.291 31.3096 191.545L33.2536 192.081C32.8963 193.206 32.275 194.102 31.3896 194.769C30.5043 195.43 29.3976 195.761 28.0696 195.761ZM34.8501 195.521V183.761H36.7781V195.521H34.8501ZM41.2705 195.761C40.6465 195.761 40.1185 195.643 39.6865 195.409C39.2545 195.169 38.9265 194.851 38.7025 194.457C38.4838 194.062 38.3745 193.627 38.3745 193.153C38.3745 192.737 38.4438 192.363 38.5825 192.033C38.7212 191.697 38.9345 191.409 39.2225 191.169C39.5105 190.923 39.8838 190.723 40.3425 190.569C40.6892 190.457 41.0945 190.355 41.5585 190.265C42.0278 190.174 42.5345 190.091 43.0785 190.017C43.6278 189.937 44.2012 189.851 44.7985 189.761L44.1105 190.153C44.1158 189.555 43.9825 189.115 43.7105 188.833C43.4385 188.55 42.9798 188.409 42.3345 188.409C41.9452 188.409 41.5692 188.499 41.2065 188.681C40.8438 188.862 40.5905 189.174 40.4465 189.617L38.6865 189.065C38.8998 188.334 39.3052 187.747 39.9025 187.305C40.5052 186.862 41.3158 186.641 42.3345 186.641C43.1025 186.641 43.7772 186.766 44.3585 187.017C44.9452 187.267 45.3798 187.678 45.6625 188.249C45.8172 188.553 45.9105 188.865 45.9425 189.185C45.9745 189.499 45.9905 189.843 45.9905 190.217V195.521H44.3025V193.649L44.5825 193.953C44.1932 194.577 43.7372 195.035 43.2145 195.329C42.6972 195.617 42.0492 195.761 41.2705 195.761ZM41.6545 194.225C42.0918 194.225 42.4652 194.147 42.7745 193.993C43.0838 193.838 43.3292 193.649 43.5105 193.425C43.6972 193.201 43.8225 192.99 43.8865 192.793C43.9878 192.547 44.0438 192.267 44.0545 191.953C44.0705 191.633 44.0785 191.374 44.0785 191.177L44.6705 191.353C44.0892 191.443 43.5905 191.523 43.1745 191.593C42.7585 191.662 42.4012 191.729 42.1025 191.793C41.8038 191.851 41.5398 191.918 41.3105 191.993C41.0865 192.073 40.8972 192.166 40.7425 192.273C40.5878 192.379 40.4678 192.502 40.3825 192.641C40.3025 192.779 40.2625 192.942 40.2625 193.129C40.2625 193.342 40.3158 193.531 40.4225 193.697C40.5292 193.857 40.6838 193.985 40.8865 194.081C41.0945 194.177 41.3505 194.225 41.6545 194.225ZM51.0893 195.761C50.0226 195.761 49.1559 195.521 48.4893 195.041C47.8226 194.561 47.4173 193.886 47.2733 193.017L49.2413 192.713C49.3426 193.139 49.5666 193.475 49.9133 193.721C50.2599 193.966 50.6973 194.089 51.2253 194.089C51.6893 194.089 52.0466 193.998 52.2973 193.817C52.5533 193.63 52.6813 193.377 52.6813 193.057C52.6813 192.859 52.6333 192.702 52.5373 192.585C52.4466 192.462 52.2439 192.345 51.9293 192.233C51.6146 192.121 51.1319 191.979 50.4813 191.809C49.7559 191.617 49.1799 191.411 48.7533 191.193C48.3266 190.969 48.0199 190.705 47.8333 190.401C47.6466 190.097 47.5533 189.729 47.5533 189.297C47.5533 188.758 47.6946 188.289 47.9773 187.889C48.2599 187.489 48.6546 187.182 49.1613 186.969C49.6679 186.75 50.2653 186.641 50.9533 186.641C51.6253 186.641 52.2199 186.745 52.7373 186.953C53.2599 187.161 53.6813 187.457 54.0013 187.841C54.3213 188.225 54.5186 188.675 54.5933 189.193L52.6253 189.545C52.5773 189.177 52.4093 188.886 52.1213 188.673C51.8386 188.459 51.4599 188.339 50.9853 188.313C50.5319 188.286 50.1666 188.355 49.8893 188.521C49.6119 188.681 49.4733 188.907 49.4733 189.201C49.4733 189.366 49.5293 189.507 49.6413 189.625C49.7533 189.742 49.9773 189.859 50.3133 189.977C50.6546 190.094 51.1613 190.238 51.8333 190.409C52.5213 190.585 53.0706 190.787 53.4813 191.017C53.8973 191.241 54.1959 191.51 54.3773 191.825C54.5639 192.139 54.6573 192.521 54.6573 192.969C54.6573 193.838 54.3399 194.521 53.7053 195.017C53.0759 195.513 52.2039 195.761 51.0893 195.761ZM60.0175 195.761C59.1428 195.761 58.3748 195.571 57.7135 195.193C57.0522 194.814 56.5348 194.289 56.1615 193.617C55.7935 192.945 55.6095 192.171 55.6095 191.297C55.6095 190.353 55.7908 189.534 56.1535 188.841C56.5162 188.142 57.0202 187.601 57.6655 187.217C58.3108 186.833 59.0575 186.641 59.9055 186.641C60.8015 186.641 61.5615 186.851 62.1855 187.273C62.8148 187.689 63.2815 188.278 63.5855 189.041C63.8895 189.803 64.0042 190.702 63.9295 191.737H62.0175V191.033C62.0122 190.094 61.8468 189.409 61.5215 188.977C61.1962 188.545 60.6842 188.329 59.9855 188.329C59.1962 188.329 58.6095 188.574 58.2255 189.065C57.8415 189.55 57.6495 190.262 57.6495 191.201C57.6495 192.075 57.8415 192.753 58.2255 193.233C58.6095 193.713 59.1695 193.953 59.9055 193.953C60.3802 193.953 60.7882 193.849 61.1295 193.641C61.4762 193.427 61.7428 193.121 61.9295 192.721L63.8335 193.297C63.5028 194.075 62.9908 194.681 62.2975 195.113C61.6095 195.545 60.8495 195.761 60.0175 195.761ZM57.0415 191.737V190.281H62.9855V191.737H57.0415ZM67.4776 195.521L71.1096 184.001H73.9336L77.5656 195.521H75.5816L72.2856 185.185H72.7176L69.4616 195.521H67.4776ZM69.5016 193.025V191.225H75.5496V193.025H69.5016ZM82.844 195.761C82.0013 195.761 81.2947 195.561 80.724 195.161C80.1533 194.761 79.724 194.217 79.436 193.529C79.148 192.835 79.004 192.059 79.004 191.201C79.004 190.331 79.148 189.553 79.436 188.865C79.724 188.177 80.1453 187.635 80.7 187.241C81.26 186.841 81.9507 186.641 82.772 186.641C83.588 186.641 84.2947 186.841 84.892 187.241C85.4947 187.635 85.9613 188.177 86.292 188.865C86.6227 189.547 86.788 190.326 86.788 191.201C86.788 192.065 86.6253 192.841 86.3 193.529C85.9747 194.217 85.516 194.761 84.924 195.161C84.332 195.561 83.6387 195.761 82.844 195.761ZM78.676 195.521V184.001H80.62V189.457H80.38V195.521H78.676ZM82.548 194.033C83.0493 194.033 83.4627 193.907 83.788 193.657C84.1133 193.406 84.3533 193.067 84.508 192.641C84.668 192.209 84.748 191.729 84.748 191.201C84.748 190.678 84.668 190.203 84.508 189.777C84.348 189.345 84.1 189.003 83.764 188.753C83.428 188.497 83.0013 188.369 82.484 188.369C81.9933 188.369 81.5933 188.489 81.284 188.729C80.9747 188.963 80.7453 189.294 80.596 189.721C80.452 190.142 80.38 190.635 80.38 191.201C80.38 191.761 80.452 192.254 80.596 192.681C80.7453 193.107 80.9773 193.441 81.292 193.681C81.612 193.915 82.0307 194.033 82.548 194.033ZM88.3914 185.569V183.801H90.3194V185.569H88.3914ZM88.3914 195.521V186.881H90.3194V195.521H88.3914ZM96.3238 195.761C95.4491 195.761 94.6811 195.571 94.0198 195.193C93.3584 194.814 92.8411 194.289 92.4678 193.617C92.0998 192.945 91.9158 192.171 91.9158 191.297C91.9158 190.353 92.0971 189.534 92.4598 188.841C92.8224 188.142 93.3264 187.601 93.9718 187.217C94.6171 186.833 95.3638 186.641 96.2118 186.641C97.1078 186.641 97.8678 186.851 98.4918 187.273C99.1211 187.689 99.5878 188.278 99.8918 189.041C100.196 189.803 100.31 190.702 100.236 191.737H98.3238V191.033C98.3184 190.094 98.1531 189.409 97.8278 188.977C97.5024 188.545 96.9904 188.329 96.2918 188.329C95.5024 188.329 94.9158 188.574 94.5318 189.065C94.1478 189.55 93.9558 190.262 93.9558 191.201C93.9558 192.075 94.1478 192.753 94.5318 193.233C94.9158 193.713 95.4758 193.953 96.2118 193.953C96.6864 193.953 97.0944 193.849 97.4358 193.641C97.7824 193.427 98.0491 193.121 98.2358 192.721L100.14 193.297C99.8091 194.075 99.2971 194.681 98.6038 195.113C97.9158 195.545 97.1558 195.761 96.3238 195.761ZM93.3478 191.737V190.281H99.2918V191.737H93.3478ZM101.701 195.521V186.881H103.405V188.985L103.197 188.713C103.303 188.425 103.445 188.163 103.621 187.929C103.802 187.689 104.018 187.491 104.269 187.337C104.482 187.193 104.717 187.081 104.973 187.001C105.234 186.915 105.501 186.865 105.773 186.849C106.045 186.827 106.309 186.838 106.565 186.881V188.681C106.309 188.606 106.013 188.582 105.677 188.609C105.346 188.635 105.047 188.729 104.781 188.889C104.514 189.033 104.295 189.217 104.125 189.441C103.959 189.665 103.837 189.921 103.757 190.209C103.677 190.491 103.637 190.798 103.637 191.129V195.521H101.701ZM112.835 195.521C112.265 195.627 111.705 195.673 111.155 195.657C110.611 195.646 110.123 195.547 109.691 195.361C109.259 195.169 108.931 194.867 108.707 194.457C108.51 194.083 108.406 193.702 108.395 193.313C108.385 192.923 108.379 192.483 108.379 191.993V184.481H110.299V191.881C110.299 192.227 110.302 192.531 110.307 192.793C110.318 193.054 110.374 193.267 110.475 193.433C110.667 193.753 110.974 193.931 111.395 193.969C111.817 194.006 112.297 193.985 112.835 193.905V195.521ZM106.811 188.393V186.881H112.835V188.393H106.811ZM116.789 195.761C116.165 195.761 115.637 195.643 115.205 195.409C114.773 195.169 114.445 194.851 114.221 194.457C114.003 194.062 113.893 193.627 113.893 193.153C113.893 192.737 113.963 192.363 114.101 192.033C114.24 191.697 114.453 191.409 114.741 191.169C115.029 190.923 115.403 190.723 115.861 190.569C116.208 190.457 116.613 190.355 117.077 190.265C117.547 190.174 118.053 190.091 118.597 190.017C119.147 189.937 119.72 189.851 120.317 189.761L119.629 190.153C119.635 189.555 119.501 189.115 119.229 188.833C118.957 188.55 118.499 188.409 117.853 188.409C117.464 188.409 117.088 188.499 116.725 188.681C116.363 188.862 116.109 189.174 115.965 189.617L114.205 189.065C114.419 188.334 114.824 187.747 115.421 187.305C116.024 186.862 116.835 186.641 117.853 186.641C118.621 186.641 119.296 186.766 119.877 187.017C120.464 187.267 120.899 187.678 121.181 188.249C121.336 188.553 121.429 188.865 121.461 189.185C121.493 189.499 121.509 189.843 121.509 190.217V195.521H119.821V193.649L120.101 193.953C119.712 194.577 119.256 195.035 118.733 195.329C118.216 195.617 117.568 195.761 116.789 195.761ZM117.173 194.225C117.611 194.225 117.984 194.147 118.293 193.993C118.603 193.838 118.848 193.649 119.029 193.425C119.216 193.201 119.341 192.99 119.405 192.793C119.507 192.547 119.563 192.267 119.573 191.953C119.589 191.633 119.597 191.374 119.597 191.177L120.189 191.353C119.608 191.443 119.109 191.523 118.693 191.593C118.277 191.662 117.92 191.729 117.621 191.793C117.323 191.851 117.059 191.918 116.829 191.993C116.605 192.073 116.416 192.166 116.261 192.273C116.107 192.379 115.987 192.502 115.901 192.641C115.821 192.779 115.781 192.942 115.781 193.129C115.781 193.342 115.835 193.531 115.941 193.697C116.048 193.857 116.203 193.985 116.405 194.081C116.613 194.177 116.869 194.225 117.173 194.225Z" fill="black"/>
<path fill-rule="evenodd" clip-rule="evenodd" d="M43.0066 117.1C40.7268 117.1 38.8787 118.947 38.8787 121.226C38.8787 123.505 40.7268 125.352 43.0066 125.352H47.2459V121.226V117.1H43.0066ZM53.3819 115.092L53.4934 115.092C55.7732 115.092 57.6213 113.245 57.6213 110.966C57.6213 108.687 55.7732 106.839 53.4934 106.839H49.2541V115.092L53.3819 115.092ZM56.8583 116.096C58.5274 115 59.6294 113.111 59.6294 110.966C59.6294 107.578 56.8822 104.832 53.4934 104.832H49.2541H48.25H47.2459H43.0066C39.6178 104.832 36.8706 107.578 36.8706 110.966C36.8706 113.111 37.9726 115 39.6417 116.096C37.9726 117.192 36.8706 119.08 36.8706 121.226C36.8706 123.372 37.9726 125.26 39.6417 126.356C37.9726 127.452 36.8706 129.341 36.8706 131.486C36.8706 134.881 39.6526 137.62 43.0343 137.62C46.4468 137.62 49.2541 134.856 49.2541 131.431V127.36V126.356V125.764C50.344 126.756 51.7923 127.36 53.3819 127.36H53.4934C56.8822 127.36 59.6294 124.614 59.6294 121.226C59.6294 119.08 58.5274 117.192 56.8583 116.096ZM53.4934 117.1L53.3819 117.1C51.1022 117.1 49.2541 118.947 49.2541 121.226C49.2541 123.505 51.1022 125.352 53.3819 125.352H53.4934C55.7732 125.352 57.6213 123.505 57.6213 121.226C57.6213 118.947 55.7732 117.1 53.4934 117.1ZM38.8787 131.486C38.8787 129.207 40.7268 127.36 43.0066 127.36H47.2459V131.431C47.2459 133.733 45.3519 135.613 43.0343 135.613C40.7475 135.613 38.8787 133.758 38.8787 131.486ZM47.2459 115.092H43.0066C40.7268 115.092 38.8787 113.245 38.8787 110.966C38.8787 108.687 40.7268 106.839 43.0066 106.839H47.2459V115.092Z" fill="#C3F1E1"/>
</svg>
