<?xml version="1.0" encoding="UTF-8"?>
<svg width="360.3803px" height="360.38px" viewBox="0 0 360.3803 360.38" version="1.1" xmlns="http://www.w3.org/2000/svg" xmlns:xlink="http://www.w3.org/1999/xlink">
    <title>icon-services-digital copy</title>
    <g id="Page-1" stroke="none" stroke-width="1" fill="none" fill-rule="evenodd">
        <g id="icon-services-digital-copy" transform="translate(1, 1)" stroke="#FF0000" stroke-width="2">
            <path d="M358.38,179.19 C358.38,278.154 278.154,358.38 179.19,358.38 C80.226,358.38 0,278.154 0,179.19 C0,80.226 80.226,0 179.19,0 C278.154,0 358.38,80.226 358.38,179.19 Z" id="Stroke-1"></path>
            <path d="M266.1416,179.19 C266.1416,278.154 227.2126,358.38 179.1906,358.38 C131.1686,358.38 92.2386,278.154 92.2386,179.19 C92.2386,80.226 131.1686,0 179.1906,0 C227.2126,0 266.1416,80.226 266.1416,179.19 Z" id="Stroke-3"></path>
            <path d="M179.1903,266.1414 C80.2263,266.1414 0.0003,227.2124 0.0003,179.1904 C0.0003,131.1684 80.2263,92.2384 179.1903,92.2384 C278.1543,92.2384 358.3803,131.1684 358.3803,179.1904 C358.3803,227.2124 278.1543,266.1414 179.1903,266.1414 Z" id="Stroke-5"></path>
            <line x1="179.1903" y1="0.0003" x2="179.1903" y2="358.3803" id="Stroke-7"></line>
            <line x1="358.38" y1="179.19" x2="0" y2="179.19" id="Stroke-9"></line>
        </g>
    </g>
</svg>