<svg width="238" height="315" viewBox="0 0 238 315" fill="none" xmlns="http://www.w3.org/2000/svg">
<rect width="238" height="315" fill="#012A58"/>
<path d="M62.7202 92.3002L65.9793 79.0466H75.5392L64.9472 117.721H54.6811L51.4764 104.033C50.4625 99.9409 49.5028 95.2877 48.5975 90.0732C47.8009 94.2737 46.8413 98.927 45.7187 104.033L42.4596 117.721H32.1935L21.6016 79.0466H31.2158L34.4206 92.3002C35.7966 97.9492 36.9373 103.001 37.8426 107.455C39.0738 100.937 40.0877 95.8852 40.8844 92.3002L43.9805 79.0466H53.1602L56.2564 92.3002C57.2703 96.718 58.2842 101.806 59.2982 107.564C59.8051 105.246 60.9458 100.158 62.7202 92.3002ZM102.619 104.522V106.206H81.8698C82.1595 108.125 82.8656 109.591 83.9882 110.605C85.1107 111.619 86.5411 112.126 88.2793 112.126C91.0314 112.126 92.9144 111.076 93.9283 108.976H101.967C101.207 111.873 99.5955 114.172 97.1331 115.874C94.6707 117.54 91.7194 118.373 88.2793 118.373C83.9339 118.373 80.4213 117.033 77.7416 114.353C75.0619 111.674 73.7221 108.125 73.7221 103.707C73.7221 99.2529 75.0438 95.7041 77.6873 93.0606C80.2946 90.381 83.789 89.0411 88.1706 89.0411C92.5161 89.0411 96.0286 90.4353 98.7083 93.2236C101.316 96.0481 102.619 99.8142 102.619 104.522ZM88.062 95.2877C84.5857 95.2877 82.5397 97.1345 81.9241 100.828H94.3086C94.0189 99.0899 93.3308 97.732 92.2445 96.7543C91.1581 95.7765 89.764 95.2877 88.062 95.2877ZM123.313 89.0411C127.079 89.0411 130.067 90.3629 132.276 93.0063C134.449 95.6498 135.535 99.2167 135.535 103.707C135.535 108.197 134.449 111.764 132.276 114.408C130.067 117.051 127.079 118.373 123.313 118.373C119.584 118.373 116.759 116.906 114.84 113.973V117.721H106.584V79.0466H115.057V93.115C116.976 90.3991 119.728 89.0411 123.313 89.0411ZM120.978 111.583C122.861 111.583 124.327 110.895 125.378 109.519C126.428 108.107 126.953 106.097 126.953 103.49C126.953 98.3838 124.961 95.8308 120.978 95.8308C116.958 95.8308 114.948 98.4562 114.948 103.707C114.948 108.958 116.958 111.583 120.978 111.583ZM24.5347 114.047H40.3955C46.7688 114.047 51.6574 115.767 55.0614 119.207C58.4653 122.611 60.1672 127.336 60.1672 133.384C60.1672 139.431 58.4653 144.175 55.0614 147.615C51.6574 151.019 46.7688 152.721 40.3955 152.721H24.5347V114.047ZM33.7144 144.953H40.2326C43.5641 144.953 46.117 143.994 47.8914 142.075C49.702 140.119 50.6073 137.222 50.6073 133.384C50.6073 129.545 49.702 126.666 47.8914 124.747C46.117 122.792 43.5641 121.814 40.2326 121.814H33.7144V144.953ZM91.9572 139.522V141.206H71.2078C71.4975 143.125 72.2036 144.591 73.3262 145.605C74.4487 146.619 75.8791 147.126 77.6173 147.126C80.3694 147.126 82.2524 146.076 83.2663 143.976H91.3054C90.5449 146.873 88.9335 149.172 86.4711 150.874C84.0087 152.54 81.0574 153.373 77.6173 153.373C73.2719 153.373 69.7593 152.033 67.0796 149.353C64.3999 146.674 63.0601 143.125 63.0601 138.707C63.0601 134.253 64.3818 130.704 67.0253 128.061C69.6326 125.381 73.127 124.041 77.5086 124.041C81.8541 124.041 85.3666 125.435 88.0463 128.224C90.6536 131.048 91.9572 134.814 91.9572 139.522ZM77.4 130.288C73.9237 130.288 71.8777 132.134 71.2621 135.828H83.6466C83.3569 134.09 82.6688 132.732 81.5825 131.754C80.4961 130.777 79.102 130.288 77.4 130.288ZM107.815 153.536C103.397 153.536 100.101 152.775 97.9288 151.254C95.7923 149.697 94.5973 147.217 94.3438 143.813H102.6C102.745 145.298 103.216 146.348 104.012 146.963C104.845 147.579 106.167 147.887 107.978 147.887C111.128 147.887 112.703 146.981 112.703 145.171C112.703 144.302 112.359 143.65 111.671 143.215C110.983 142.745 109.716 142.364 107.869 142.075L104.23 141.477C97.9288 140.499 94.7783 137.639 94.7783 132.895C94.7783 130.07 95.8647 127.898 98.0374 126.377C100.21 124.82 103.324 124.041 107.38 124.041C115.745 124.041 120.09 127.246 120.416 133.655H112.54C112.504 131.012 110.784 129.69 107.38 129.69C104.519 129.69 103.089 130.577 103.089 132.352C103.089 133.148 103.415 133.764 104.067 134.199C104.718 134.633 105.751 134.959 107.163 135.176L111.345 135.774C114.713 136.281 117.193 137.24 118.787 138.653C120.38 140.065 121.177 142.002 121.177 144.465C121.177 147.362 120 149.607 117.646 151.2C115.329 152.757 112.051 153.536 107.815 153.536ZM132.558 121.488H124.465V114.318H132.558V121.488ZM132.721 152.721H124.247V124.693H132.721V152.721ZM157.168 128.387V124.693H165.424V151.852C165.424 155.654 164.157 158.623 161.622 160.76C159.123 162.933 155.611 164.019 151.084 164.019C146.92 164.019 143.661 163.096 141.307 161.249C138.953 159.438 137.686 156.94 137.505 153.753H145.87C146.087 156.36 147.88 157.664 151.247 157.664C153.094 157.664 154.506 157.175 155.484 156.197C156.462 155.256 156.951 153.916 156.951 152.178V148.158C155.176 150.802 152.497 152.123 148.912 152.123C145.218 152.123 142.23 150.82 139.949 148.213C137.668 145.605 136.527 142.219 136.527 138.055C136.527 133.927 137.65 130.541 139.895 127.898C142.14 125.327 145.091 124.041 148.749 124.041C152.515 124.041 155.321 125.49 157.168 128.387ZM151.084 145.334C153.004 145.334 154.488 144.718 155.538 143.487C156.589 142.219 157.114 140.409 157.114 138.055C157.114 135.701 156.589 133.909 155.538 132.678C154.524 131.446 153.04 130.831 151.084 130.831C149.201 130.831 147.735 131.483 146.685 132.786C145.634 134.054 145.109 135.846 145.109 138.164C145.109 140.445 145.634 142.219 146.685 143.487C147.735 144.718 149.201 145.334 151.084 145.334ZM187.346 124.041C190.316 124.041 192.669 124.946 194.407 126.757C196.182 128.531 197.069 131.066 197.069 134.362V152.721H188.595V136.045C188.595 132.859 187.093 131.265 184.087 131.265C182.566 131.265 181.299 131.772 180.285 132.786C179.271 133.8 178.764 135.231 178.764 137.077V152.721H170.29V124.693H178.547V128.658C180.719 125.58 183.653 124.041 187.346 124.041Z" fill="white"/>
<path d="M50.7159 168.11C52.8162 168.871 54.4639 170.12 55.6589 171.858C56.8539 173.56 57.4514 175.425 57.4514 177.453C57.4514 181.002 56.2564 183.772 53.8664 185.763C51.5126 187.719 48.0363 188.697 43.4373 188.697H24.5347V150.022H42.8942C47.1672 150.022 50.39 150.928 52.5627 152.738C54.7717 154.549 55.8761 156.939 55.8761 159.908C55.8761 163.747 54.1561 166.481 50.7159 168.11ZM42.2967 157.355H33.7144V165.611H42.2967C43.7089 165.611 44.7953 165.231 45.5557 164.471C46.3524 163.71 46.7507 162.678 46.7507 161.375C46.7507 160.143 46.3524 159.166 45.5557 158.441C44.7953 157.717 43.7089 157.355 42.2967 157.355ZM33.7144 181.364H42.8942C44.5237 181.364 45.773 180.983 46.6421 180.223C47.5474 179.462 48 178.376 48 176.964C48 174.031 46.2981 172.564 42.8942 172.564H33.7144V181.364ZM69.2795 188.697H60.8059V150.022H69.2795V188.697ZM82.5369 157.464H74.4435V150.294H82.5369V157.464ZM82.6998 188.697H74.2262V160.669H82.6998V188.697ZM103.833 160.669V166.861H98.4558V179.951C98.4558 180.893 98.6912 181.545 99.162 181.907C99.6327 182.233 100.466 182.396 101.661 182.396H103.833V188.697C102.819 188.841 101.516 188.914 99.9224 188.914C96.4098 188.914 93.875 188.298 92.3179 187.067C90.7608 185.8 89.9822 183.736 89.9822 180.875V166.861H85.7998V160.669H89.9822V152.358H98.4558V160.669H103.833ZM122.697 182.396H131.007V188.697H106.456V183.373L116.396 171.098C117.663 169.54 118.822 168.146 119.872 166.915C119.039 166.951 117.156 166.969 114.223 166.969H106.564V160.669H130.464V165.992L120.524 178.268C119.257 179.825 118.098 181.219 117.048 182.45C117.881 182.414 119.764 182.396 122.697 182.396Z" fill="#F62A4F"/>
<path d="M35.9456 205.691C36.8803 206.029 37.6136 206.585 38.1454 207.359C38.6773 208.116 38.9432 208.946 38.9432 209.849C38.9432 211.428 38.4114 212.661 37.3477 213.547C36.3001 214.417 34.753 214.853 32.7063 214.853H24.2937V197.641H32.4645C34.3662 197.641 35.8006 198.043 36.7675 198.849C37.7506 199.655 38.2421 200.719 38.2421 202.04C38.2421 203.749 37.4766 204.965 35.9456 205.691ZM32.1986 200.904H28.3791V204.579H32.1986C32.8271 204.579 33.3106 204.409 33.6491 204.071C34.0036 203.732 34.1809 203.273 34.1809 202.693C34.1809 202.145 34.0036 201.71 33.6491 201.388C33.3106 201.065 32.8271 200.904 32.1986 200.904ZM28.3791 211.589H32.4645C33.1897 211.589 33.7458 211.42 34.1325 211.081C34.5354 210.743 34.7369 210.259 34.7369 209.631C34.7369 208.326 33.9794 207.673 32.4645 207.673H28.3791V211.589ZM51.5724 213.354C50.3799 214.546 48.7924 215.143 46.8102 215.143C44.8279 215.143 43.2404 214.546 42.0479 213.354C40.8553 212.161 40.259 210.582 40.259 208.616C40.259 206.633 40.8553 205.046 42.0479 203.853C43.2243 202.677 44.8118 202.089 46.8102 202.089C48.8085 202.089 50.396 202.677 51.5724 203.853C52.7489 205.03 53.3372 206.617 53.3372 208.616C53.3372 210.598 52.7489 212.177 51.5724 213.354ZM46.8102 212.121C47.6804 212.121 48.3492 211.823 48.8166 211.226C49.284 210.63 49.5176 209.76 49.5176 208.616C49.5176 207.471 49.284 206.601 48.8166 206.005C48.3492 205.409 47.6804 205.11 46.8102 205.11C45.9238 205.11 45.2469 205.409 44.7795 206.005C44.3122 206.601 44.0785 207.471 44.0785 208.616C44.0785 209.76 44.3122 210.63 44.7795 211.226C45.2469 211.823 45.9238 212.121 46.8102 212.121ZM69.9899 202.089C71.3598 202.089 72.4315 202.5 73.2051 203.321C73.9786 204.127 74.3654 205.272 74.3654 206.754V214.853H70.5942V207.407C70.5942 206.005 69.9738 205.304 68.7328 205.304C68.0721 205.304 67.5483 205.529 67.1615 205.981C66.7747 206.432 66.5813 207.093 66.5813 207.963V214.853H62.8102V207.407C62.8102 206.005 62.1897 205.304 60.9488 205.304C60.288 205.304 59.7562 205.529 59.3533 205.981C58.9665 206.432 58.7731 207.093 58.7731 207.963V214.853H55.002V202.379H58.6764V204.143C59.595 202.774 60.7796 202.089 62.23 202.089C64.0995 202.089 65.3888 202.838 66.0979 204.337C67.1132 202.838 68.4105 202.089 69.9899 202.089ZM83.9776 202.089C85.6537 202.089 86.9833 202.677 87.9664 203.853C88.9333 205.03 89.4168 206.617 89.4168 208.616C89.4168 210.614 88.9333 212.201 87.9664 213.378C86.9833 214.554 85.6537 215.143 83.9776 215.143C82.3177 215.143 81.0606 214.49 80.2065 213.185V214.853H76.532V197.641H80.3032V203.902C81.1573 202.693 82.3821 202.089 83.9776 202.089ZM82.9381 212.121C83.7762 212.121 84.4289 211.815 84.8962 211.202C85.3636 210.574 85.5973 209.679 85.5973 208.519C85.5973 206.247 84.7109 205.11 82.9381 205.11C81.1493 205.11 80.2548 206.279 80.2548 208.616C80.2548 210.952 81.1493 212.121 82.9381 212.121ZM103.018 214.853H99.2226C99.0292 214.482 98.9245 214.015 98.9083 213.45C98.0703 214.579 96.7407 215.143 94.9196 215.143C93.5498 215.143 92.4458 214.804 91.6078 214.127C90.7858 213.45 90.3749 212.516 90.3749 211.323C90.3749 209.002 92.0026 207.705 95.2581 207.431L97.2162 207.262C98.2959 207.149 98.8358 206.738 98.8358 206.029C98.8358 205.191 98.1992 204.772 96.9261 204.772C96.1525 204.772 95.6046 204.893 95.2822 205.135C94.976 205.36 94.7907 205.787 94.7262 206.416H90.9792C91.2049 203.531 93.1952 202.089 96.9502 202.089C100.657 202.089 102.51 203.37 102.51 205.932V212.556C102.51 213.604 102.68 214.369 103.018 214.853ZM96.0558 212.604C96.91 212.604 97.5868 212.387 98.0864 211.952C98.586 211.5 98.8358 210.832 98.8358 209.945V209.027C98.6102 209.268 98.1912 209.429 97.5788 209.51L96.0316 209.679C94.8229 209.808 94.2186 210.308 94.2186 211.178C94.2186 211.613 94.3797 211.96 94.7021 212.218C95.0244 212.475 95.4756 212.604 96.0558 212.604ZM111.735 202.185C111.799 202.185 112.073 202.201 112.557 202.234V205.666H111.59C109.382 205.666 108.278 206.795 108.278 209.051V214.853H104.507V202.379H108.181V204.699C108.762 203.023 109.946 202.185 111.735 202.185ZM122.201 203.878V197.641H125.972V214.853H122.298V213.233C121.46 214.506 120.211 215.143 118.551 215.143C116.875 215.143 115.553 214.554 114.586 213.378C113.603 212.201 113.112 210.614 113.112 208.616C113.112 206.617 113.603 205.03 114.586 203.853C115.553 202.677 116.875 202.089 118.551 202.089C120.13 202.089 121.347 202.685 122.201 203.878ZM119.59 212.121C121.379 212.121 122.274 210.952 122.274 208.616C122.274 206.279 121.379 205.11 119.59 205.11C118.752 205.11 118.1 205.425 117.632 206.053C117.165 206.666 116.931 207.552 116.931 208.712C116.931 210.985 117.818 212.121 119.59 212.121ZM140.491 208.978V209.728H131.256C131.385 210.582 131.7 211.234 132.199 211.686C132.699 212.137 133.335 212.363 134.109 212.363C135.334 212.363 136.172 211.895 136.623 210.961H140.201C139.862 212.25 139.145 213.273 138.049 214.031C136.954 214.772 135.64 215.143 134.109 215.143C132.175 215.143 130.612 214.546 129.419 213.354C128.227 212.161 127.63 210.582 127.63 208.616C127.63 206.633 128.219 205.054 129.395 203.878C130.555 202.685 132.111 202.089 134.061 202.089C135.995 202.089 137.558 202.709 138.75 203.95C139.911 205.207 140.491 206.883 140.491 208.978ZM134.012 204.869C132.465 204.869 131.555 205.691 131.281 207.334H136.792C136.663 206.561 136.357 205.956 135.874 205.521C135.39 205.086 134.77 204.869 134.012 204.869ZM153.061 213.354C151.869 214.546 150.281 215.143 148.299 215.143C146.317 215.143 144.729 214.546 143.537 213.354C142.344 212.161 141.748 210.582 141.748 208.616C141.748 206.633 142.344 205.046 143.537 203.853C144.713 202.677 146.3 202.089 148.299 202.089C150.297 202.089 151.885 202.677 153.061 203.853C154.238 205.03 154.826 206.617 154.826 208.616C154.826 210.598 154.238 212.177 153.061 213.354ZM148.299 212.121C149.169 212.121 149.838 211.823 150.305 211.226C150.773 210.63 151.006 209.76 151.006 208.616C151.006 207.471 150.773 206.601 150.305 206.005C149.838 205.409 149.169 205.11 148.299 205.11C147.412 205.11 146.736 205.409 146.268 206.005C145.801 206.601 145.567 207.471 145.567 208.616C145.567 209.76 145.801 210.63 146.268 211.226C146.736 211.823 147.412 212.121 148.299 212.121ZM32.1503 235.239C29.5878 235.239 27.5169 234.425 25.9375 232.798C24.3581 231.17 23.5685 228.986 23.5685 226.247C23.5685 223.475 24.342 221.283 25.8892 219.671C27.4363 218.06 29.5233 217.254 32.1503 217.254C34.2776 217.254 36.0826 217.818 37.5653 218.946C39.0802 220.09 39.9907 221.71 40.2969 223.805H36.1632C35.9053 222.838 35.4218 222.097 34.7127 221.581C34.0197 221.049 33.1656 220.783 32.1503 220.783C30.7643 220.783 29.6926 221.259 28.9351 222.209C28.1938 223.16 27.8231 224.506 27.8231 226.247C27.8231 227.987 28.1938 229.333 28.9351 230.284C29.6926 231.234 30.7643 231.71 32.1503 231.71C33.2139 231.71 34.1164 231.404 34.8578 230.791C35.5991 230.179 36.0665 229.325 36.2599 228.229H40.3453C40.0874 230.453 39.2091 232.177 37.7103 233.402C36.1954 234.627 34.342 235.239 32.1503 235.239ZM49.2223 222.185C49.2867 222.185 49.5607 222.201 50.0442 222.234V225.666H49.0772C46.8693 225.666 45.7654 226.795 45.7654 229.051V234.853H41.9942V222.379H45.6687V224.699C46.2489 223.023 47.4334 222.185 49.2223 222.185ZM63.4597 228.978V229.728H54.2252C54.3541 230.582 54.6684 231.234 55.168 231.686C55.6676 232.137 56.3041 232.363 57.0777 232.363C58.3025 232.363 59.1406 231.895 59.5918 230.961H63.1696C62.8312 232.25 62.114 233.273 61.0181 234.031C59.9222 234.772 58.6087 235.143 57.0777 235.143C55.1438 235.143 53.5805 234.546 52.3879 233.354C51.1954 232.161 50.5991 230.582 50.5991 228.616C50.5991 226.633 51.1873 225.054 52.3638 223.878C53.5241 222.685 55.0793 222.089 57.0294 222.089C58.9633 222.089 60.5266 222.709 61.7191 223.95C62.8795 225.207 63.4597 226.883 63.4597 228.978ZM56.981 224.869C55.4339 224.869 54.5233 225.691 54.2493 227.334H59.761C59.6321 226.561 59.3259 225.956 58.8424 225.521C58.3589 225.086 57.7385 224.869 56.981 224.869ZM77.1205 234.853H73.3252C73.1318 234.482 73.027 234.015 73.0109 233.45C72.1729 234.579 70.8433 235.143 69.0222 235.143C67.6523 235.143 66.5484 234.804 65.7103 234.127C64.8884 233.45 64.4774 232.516 64.4774 231.323C64.4774 229.002 66.1052 227.705 69.3606 227.431L71.3187 227.262C72.3985 227.149 72.9384 226.738 72.9384 226.029C72.9384 225.191 72.3018 224.772 71.0286 224.772C70.2551 224.772 69.7071 224.893 69.3848 225.135C69.0786 225.36 68.8932 225.787 68.8288 226.416H65.0818C65.3074 223.531 67.2978 222.089 71.0528 222.089C74.7595 222.089 76.6128 223.37 76.6128 225.932V232.556C76.6128 233.604 76.7821 234.369 77.1205 234.853ZM70.1584 232.604C71.0125 232.604 71.6894 232.387 72.189 231.952C72.6886 231.5 72.9384 230.832 72.9384 229.945V229.027C72.7128 229.268 72.2937 229.429 71.6813 229.51L70.1342 229.679C68.9255 229.808 68.3211 230.308 68.3211 231.178C68.3211 231.613 68.4823 231.96 68.8046 232.218C69.1269 232.475 69.5782 232.604 70.1584 232.604ZM85.5065 222.379V225.135H83.1132V230.961C83.1132 231.38 83.218 231.67 83.4275 231.831C83.637 231.976 84.0077 232.048 84.5395 232.048H85.5065V234.853C85.0552 234.917 84.475 234.949 83.7659 234.949C82.2027 234.949 81.0745 234.675 80.3815 234.127C79.6886 233.563 79.3421 232.645 79.3421 231.371V225.135H77.4807V222.379H79.3421V218.68H83.1132V222.379H85.5065ZM90.8068 220.952H87.2049V217.761H90.8068V220.952ZM90.8793 234.853H87.1082V222.379H90.8793V234.853ZM100.771 224.264L101.424 222.379H105.292L100.844 234.853H96.3472L91.8992 222.379H95.9604L96.6131 224.264C96.9516 225.457 97.2819 226.625 97.6043 227.77C97.9266 228.898 98.1764 229.784 98.3537 230.429C98.5309 231.057 98.6438 231.46 98.6921 231.637C98.7405 231.46 98.8533 231.057 99.0305 230.429C99.2078 229.784 99.4576 228.898 99.7799 227.77C100.102 226.625 100.433 225.457 100.771 224.264ZM116.658 233.354C115.466 234.546 113.878 235.143 111.896 235.143C109.914 235.143 108.326 234.546 107.134 233.354C105.941 232.161 105.345 230.582 105.345 228.616C105.345 226.633 105.941 225.046 107.134 223.853C108.31 222.677 109.898 222.089 111.896 222.089C113.894 222.089 115.482 222.677 116.658 223.853C117.835 225.03 118.423 226.617 118.423 228.616C118.423 230.598 117.835 232.177 116.658 233.354ZM111.896 232.121C112.766 232.121 113.435 231.823 113.903 231.226C114.37 230.63 114.604 229.76 114.604 228.616C114.604 227.471 114.37 226.601 113.903 226.005C113.435 225.409 112.766 225.11 111.896 225.11C111.01 225.11 110.333 225.409 109.865 226.005C109.398 226.601 109.164 227.471 109.164 228.616C109.164 229.76 109.398 230.63 109.865 231.226C110.333 231.823 111.01 232.121 111.896 232.121Z" fill="white"/>
</svg>
